%TF.GenerationSoftware,Altium Limited,Altium Designer,23.3.1 (30)*%
G04 Layer_Color=2752767*
%FSLAX26Y26*%
%MOIN*%
%TF.SameCoordinates,C47A0882-6911-4C93-B89A-A613C280F5D7*%
%TF.FilePolarity,Positive*%
%TF.FileFunction,Drawing*%
%TF.Part,Single*%
G01*
G75*
%TA.AperFunction,NonConductor*%
%ADD45C,0.005000*%
%ADD99C,0.006667*%
%ADD101C,0.004000*%
D45*
X150000Y130000D02*
X160000Y140000D01*
X170000D01*
X160000Y150000D01*
X170000Y160000D01*
X160000D01*
X150000Y170000D01*
X140000Y160000D01*
X130000D01*
X140000Y150000D01*
X130000Y140000D01*
X140000D01*
X150000Y130000D01*
Y138000D02*
X156000Y144000D01*
X162000D01*
X156000Y150000D01*
X162000Y156000D01*
X156000D01*
X150000Y162000D01*
X144000Y156000D01*
X138000D01*
X144000Y150000D01*
X138000Y144000D01*
X144000D01*
X150000Y138000D01*
Y2830000D02*
X160000Y2840000D01*
X170000D01*
X160000Y2850000D01*
X170000Y2860000D01*
X160000D01*
X150000Y2870000D01*
X140000Y2860000D01*
X130000D01*
X140000Y2850000D01*
X130000Y2840000D01*
X140000D01*
X150000Y2830000D01*
Y2838000D02*
X156000Y2844000D01*
X162000D01*
X156000Y2850000D01*
X162000Y2856000D01*
X156000D01*
X150000Y2862000D01*
X144000Y2856000D01*
X138000D01*
X144000Y2850000D01*
X138000Y2844000D01*
X144000D01*
X150000Y2838000D01*
X6000000Y130000D02*
X6010000Y140000D01*
X6020000D01*
X6010000Y150000D01*
X6020000Y160000D01*
X6010000D01*
X6000000Y170000D01*
X5990000Y160000D01*
X5980000D01*
X5990000Y150000D01*
X5980000Y140000D01*
X5990000D01*
X6000000Y130000D01*
Y138000D02*
X6006000Y144000D01*
X6012000D01*
X6006000Y150000D01*
X6012000Y156000D01*
X6006000D01*
X6000000Y162000D01*
X5994000Y156000D01*
X5988000D01*
X5994000Y150000D01*
X5988000Y144000D01*
X5994000D01*
X6000000Y138000D01*
Y2830000D02*
X6010000Y2840000D01*
X6020000D01*
X6010000Y2850000D01*
X6020000Y2860000D01*
X6010000D01*
X6000000Y2870000D01*
X5990000Y2860000D01*
X5980000D01*
X5990000Y2850000D01*
X5980000Y2840000D01*
X5990000D01*
X6000000Y2830000D01*
Y2838000D02*
X6006000Y2844000D01*
X6012000D01*
X6006000Y2850000D01*
X6012000Y2856000D01*
X6006000D01*
X6000000Y2862000D01*
X5994000Y2856000D01*
X5988000D01*
X5994000Y2850000D01*
X5988000Y2844000D01*
X5994000D01*
X6000000Y2838000D01*
X1087000Y918228D02*
X1097000Y938228D01*
X1087000Y958228D01*
X1107000Y948228D01*
X1127000Y958228D01*
X1117000Y938228D01*
X1127000Y918228D01*
X1107000Y928228D01*
X1087000Y918228D01*
Y591772D02*
X1097000Y611772D01*
X1087000Y631772D01*
X1107000Y621772D01*
X1127000Y631772D01*
X1117000Y611772D01*
X1127000Y591772D01*
X1107000Y601772D01*
X1087000Y591772D01*
X2441771Y77000D02*
X2451771Y97000D01*
X2441771Y117000D01*
X2461771Y107000D01*
X2481771Y117000D01*
X2471771Y97000D01*
X2481771Y77000D01*
X2461771Y87000D01*
X2441771Y77000D01*
X2768227D02*
X2778227Y97000D01*
X2768227Y117000D01*
X2788227Y107000D01*
X2808227Y117000D01*
X2798227Y97000D01*
X2808227Y77000D01*
X2788227Y87000D01*
X2768227Y77000D01*
X2441771Y189000D02*
X2451771Y209000D01*
X2441771Y229000D01*
X2461771Y219000D01*
X2481771Y229000D01*
X2471771Y209000D01*
X2481771Y189000D01*
X2461771Y199000D01*
X2441771Y189000D01*
X2768227D02*
X2778227Y209000D01*
X2768227Y229000D01*
X2788227Y219000D01*
X2808227Y229000D01*
X2798227Y209000D01*
X2808227Y189000D01*
X2788227Y199000D01*
X2768227Y189000D01*
X2441771Y300000D02*
X2451771Y320000D01*
X2441771Y340000D01*
X2461771Y330000D01*
X2481771Y340000D01*
X2471771Y320000D01*
X2481771Y300000D01*
X2461771Y310000D01*
X2441771Y300000D01*
X2768229D02*
X2778229Y320000D01*
X2768229Y340000D01*
X2788229Y330000D01*
X2808229Y340000D01*
X2798229Y320000D01*
X2808229Y300000D01*
X2788229Y310000D01*
X2768229Y300000D01*
X3061126Y2249330D02*
Y2289330D01*
X3101126D01*
Y2249330D01*
X3061126D01*
X2961126D02*
Y2289330D01*
X3001126D01*
Y2249330D01*
X2961126D01*
X3216124Y1935330D02*
Y1975330D01*
X3256124D01*
Y1935330D01*
X3216124D01*
X3116124D02*
Y1975330D01*
X3156124D01*
Y1935330D01*
X3116124D01*
X2915126D02*
Y1975330D01*
X2955126D01*
Y1935330D01*
X2915126D01*
X2815126D02*
Y1975330D01*
X2855126D01*
Y1935330D01*
X2815126D01*
X1856126Y2240330D02*
Y2280330D01*
X1896126D01*
Y2240330D01*
X1856126D01*
X1756126D02*
Y2280330D01*
X1796126D01*
Y2240330D01*
X1756126D01*
X1702126Y1929330D02*
Y1969330D01*
X1742126D01*
Y1929330D01*
X1702126D01*
X1602126D02*
Y1969330D01*
X1642126D01*
Y1929330D01*
X1602126D01*
X2312126Y1936330D02*
Y1976330D01*
X2352126D01*
Y1936330D01*
X2312126D01*
X2212126D02*
Y1976330D01*
X2252126D01*
Y1936330D01*
X2212126D01*
X1907124Y1929330D02*
Y1969330D01*
X1947124D01*
Y1929330D01*
X1907124D01*
X2007124D02*
Y1969330D01*
X2047124D01*
Y1929330D01*
X2007124D01*
X1296126Y1930330D02*
Y1970330D01*
X1336126D01*
Y1930330D01*
X1296126D01*
X1396126D02*
Y1970330D01*
X1436126D01*
Y1930330D01*
X1396126D01*
X990126D02*
Y1970330D01*
X1030126D01*
Y1930330D01*
X990126D01*
X1090126D02*
Y1970330D01*
X1130126D01*
Y1930330D01*
X1090126D01*
X1151126Y2244330D02*
Y2284330D01*
X1191126D01*
Y2244330D01*
X1151126D01*
X1251126D02*
Y2284330D01*
X1291126D01*
Y2244330D01*
X1251126D01*
X2457126Y2245330D02*
Y2285330D01*
X2497126D01*
Y2245330D01*
X2457126D01*
X2357126D02*
Y2285330D01*
X2397126D01*
Y2245330D01*
X2357126D01*
X2616126Y1936330D02*
Y1976330D01*
X2656126D01*
Y1936330D01*
X2616126D01*
X2516126D02*
Y1976330D01*
X2556126D01*
Y1936330D01*
X2516126D01*
X714788Y2249000D02*
Y2239000D01*
X734788D01*
Y2249000D01*
X744788D01*
Y2269000D01*
X734788D01*
Y2279000D01*
X714788D01*
Y2269000D01*
X704788D01*
Y2249000D01*
X714788D01*
X813212D02*
Y2239000D01*
X833212D01*
Y2249000D01*
X843212D01*
Y2269000D01*
X833212D01*
Y2279000D01*
X813212D01*
Y2269000D01*
X803212D01*
Y2249000D01*
X813212D01*
X2691000Y440000D02*
X2671000Y480000D01*
X2711000D01*
X2691000Y440000D01*
Y448000D02*
X2679000Y472000D01*
X2703000D01*
X2691000Y448000D01*
X2757000Y440000D02*
X2737000Y480000D01*
X2777000D01*
X2757000Y440000D01*
Y448000D02*
X2745000Y472000D01*
X2769000D01*
X2757000Y448000D01*
X3125574Y825000D02*
X3135574Y845000D01*
X3125574Y865000D01*
X3145574Y855000D01*
X3165574Y865000D01*
X3155574Y845000D01*
X3165574Y825000D01*
X3145574Y835000D01*
X3125574Y825000D01*
X3133574Y833000D02*
X3139574Y845000D01*
X3133574Y857000D01*
X3145574Y851000D01*
X3157574Y857000D01*
X3151574Y845000D01*
X3157574Y833000D01*
X3145574Y839000D01*
X3133574Y833000D01*
X3322426Y825000D02*
X3332426Y845000D01*
X3322426Y865000D01*
X3342426Y855000D01*
X3362426Y865000D01*
X3352426Y845000D01*
X3362426Y825000D01*
X3342426Y835000D01*
X3322426Y825000D01*
X3330426Y833000D02*
X3336426Y845000D01*
X3330426Y857000D01*
X3342426Y851000D01*
X3354426Y857000D01*
X3348426Y845000D01*
X3354426Y833000D01*
X3342426Y839000D01*
X3330426Y833000D01*
X3011574Y280000D02*
X3021574Y300000D01*
X3011574Y320000D01*
X3031574Y310000D01*
X3051574Y320000D01*
X3041574Y300000D01*
X3051574Y280000D01*
X3031574Y290000D01*
X3011574Y280000D01*
X3019574Y288000D02*
X3025574Y300000D01*
X3019574Y312000D01*
X3031574Y306000D01*
X3043574Y312000D01*
X3037574Y300000D01*
X3043574Y288000D01*
X3031574Y294000D01*
X3019574Y288000D01*
X3208426Y280000D02*
X3218426Y300000D01*
X3208426Y320000D01*
X3228426Y310000D01*
X3248426Y320000D01*
X3238426Y300000D01*
X3248426Y280000D01*
X3228426Y290000D01*
X3208426Y280000D01*
X3216426Y288000D02*
X3222426Y300000D01*
X3216426Y312000D01*
X3228426Y306000D01*
X3240426Y312000D01*
X3234426Y300000D01*
X3240426Y288000D01*
X3228426Y294000D01*
X3216426Y288000D01*
X2538000Y440000D02*
X2518000Y480000D01*
X2558000D01*
X2538000Y440000D01*
Y448000D02*
X2526000Y472000D01*
X2550000D01*
X2538000Y448000D01*
X2472000Y440000D02*
X2452000Y480000D01*
X2492000D01*
X2472000Y440000D01*
Y448000D02*
X2460000Y472000D01*
X2484000D01*
X2472000Y448000D01*
X2971000Y1196000D02*
Y1236000D01*
X3011000D01*
Y1196000D01*
X2971000D01*
X3071000D02*
Y1236000D01*
X3111000D01*
Y1196000D01*
X3071000D01*
X2277212Y507000D02*
Y497000D01*
X2297212D01*
Y507000D01*
X2307212D01*
Y527000D01*
X2297212D01*
Y537000D01*
X2277212D01*
Y527000D01*
X2267212D01*
Y507000D01*
X2277212D01*
X2178788D02*
Y497000D01*
X2198788D01*
Y507000D01*
X2208788D01*
Y527000D01*
X2198788D01*
Y537000D01*
X2178788D01*
Y527000D01*
X2168788D01*
Y507000D01*
X2178788D01*
X1820000Y436000D02*
X1800000Y476000D01*
X1840000D01*
X1820000Y436000D01*
Y444000D02*
X1808000Y468000D01*
X1832000D01*
X1820000Y444000D01*
X1754000Y436000D02*
X1734000Y476000D01*
X1774000D01*
X1754000Y436000D01*
Y444000D02*
X1742000Y468000D01*
X1766000D01*
X1754000Y444000D01*
X2033000Y436000D02*
X2013000Y476000D01*
X2053000D01*
X2033000Y436000D01*
Y444000D02*
X2021000Y468000D01*
X2045000D01*
X2033000Y444000D01*
X1967000Y436000D02*
X1947000Y476000D01*
X1987000D01*
X1967000Y436000D01*
Y444000D02*
X1955000Y468000D01*
X1979000D01*
X1967000Y444000D01*
X2178786Y808000D02*
Y798000D01*
X2198786D01*
Y808000D01*
X2208786D01*
Y828000D01*
X2198786D01*
Y838000D01*
X2178786D01*
Y828000D01*
X2168786D01*
Y808000D01*
X2178786D01*
X2277212D02*
Y798000D01*
X2297212D01*
Y808000D01*
X2307212D01*
Y828000D01*
X2297212D01*
Y838000D01*
X2277212D01*
Y828000D01*
X2267212D01*
Y808000D01*
X2277212D01*
X2465002Y1200000D02*
Y1240000D01*
X2505002D01*
Y1200000D01*
X2465002D01*
X2365002D02*
Y1240000D01*
X2405002D01*
Y1200000D01*
X2365002D01*
X1555212Y290000D02*
Y280000D01*
X1575212D01*
Y290000D01*
X1585212D01*
Y310000D01*
X1575212D01*
Y320000D01*
X1555212D01*
Y310000D01*
X1545212D01*
Y290000D01*
X1555212D01*
X1456788D02*
Y280000D01*
X1476788D01*
Y290000D01*
X1486788D01*
Y310000D01*
X1476788D01*
Y320000D01*
X1456788D01*
Y310000D01*
X1446788D01*
Y290000D01*
X1456788D01*
X1846212Y204000D02*
Y194000D01*
X1866212D01*
Y204000D01*
X1876212D01*
Y224000D01*
X1866212D01*
Y234000D01*
X1846212D01*
Y224000D01*
X1836212D01*
Y204000D01*
X1846212D01*
X1747788D02*
Y194000D01*
X1767788D01*
Y204000D01*
X1777788D01*
Y224000D01*
X1767788D01*
Y234000D01*
X1747788D01*
Y224000D01*
X1737788D01*
Y204000D01*
X1747788D01*
X1858000Y582772D02*
X1868000Y602772D01*
X1858000Y622772D01*
X1878000Y612772D01*
X1898000Y622772D01*
X1888000Y602772D01*
X1898000Y582772D01*
X1878000Y592772D01*
X1858000Y582772D01*
Y909230D02*
X1868000Y929230D01*
X1858000Y949230D01*
X1878000Y939230D01*
X1898000Y949230D01*
X1888000Y929230D01*
X1898000Y909230D01*
X1878000Y919230D01*
X1858000Y909230D01*
X1746000Y918230D02*
X1756000Y938230D01*
X1746000Y958230D01*
X1766000Y948230D01*
X1786000Y958230D01*
X1776000Y938230D01*
X1786000Y918230D01*
X1766000Y928230D01*
X1746000Y918230D01*
Y591772D02*
X1756000Y611772D01*
X1746000Y631772D01*
X1766000Y621772D01*
X1786000Y631772D01*
X1776000Y611772D01*
X1786000Y591772D01*
X1766000Y601772D01*
X1746000Y591772D01*
X1309000Y581772D02*
X1319000Y601772D01*
X1309000Y621772D01*
X1329000Y611772D01*
X1349000Y621772D01*
X1339000Y601772D01*
X1349000Y581772D01*
X1329000Y591772D01*
X1309000Y581772D01*
Y908228D02*
X1319000Y928228D01*
X1309000Y948228D01*
X1329000Y938228D01*
X1349000Y948228D01*
X1339000Y928228D01*
X1349000Y908228D01*
X1329000Y918228D01*
X1309000Y908228D01*
X1198000Y918228D02*
X1208000Y938228D01*
X1198000Y958228D01*
X1218000Y948228D01*
X1238000Y958228D01*
X1228000Y938228D01*
X1238000Y918228D01*
X1218000Y928228D01*
X1198000Y918228D01*
Y591772D02*
X1208000Y611772D01*
X1198000Y631772D01*
X1218000Y621772D01*
X1238000Y631772D01*
X1228000Y611772D01*
X1238000Y591772D01*
X1218000Y601772D01*
X1198000Y591772D01*
X976000Y581772D02*
X986000Y601772D01*
X976000Y621772D01*
X996000Y611772D01*
X1016000Y621772D01*
X1006000Y601772D01*
X1016000Y581772D01*
X996000Y591772D01*
X976000Y581772D01*
Y908228D02*
X986000Y928228D01*
X976000Y948228D01*
X996000Y938228D01*
X1016000Y948228D01*
X1006000Y928228D01*
X1016000Y908228D01*
X996000Y918228D01*
X976000Y908228D01*
X1506000Y671000D02*
X1486000Y711000D01*
X1526000D01*
X1506000Y671000D01*
Y679000D02*
X1494000Y703000D01*
X1518000D01*
X1506000Y679000D01*
X1440000Y671000D02*
X1420000Y711000D01*
X1460000D01*
X1440000Y671000D01*
Y679000D02*
X1428000Y703000D01*
X1452000D01*
X1440000Y679000D01*
Y881000D02*
X1420000Y921000D01*
X1460000D01*
X1440000Y881000D01*
Y889000D02*
X1428000Y913000D01*
X1452000D01*
X1440000Y889000D01*
X1506000Y881000D02*
X1486000Y921000D01*
X1526000D01*
X1506000Y881000D01*
Y889000D02*
X1494000Y913000D01*
X1518000D01*
X1506000Y889000D01*
X1858000Y1198000D02*
Y1238000D01*
X1898000D01*
Y1198000D01*
X1858000D01*
X1758000D02*
Y1238000D01*
X1798000D01*
Y1198000D01*
X1758000D01*
X502000Y2040228D02*
X512000Y2060228D01*
X502000Y2080228D01*
X522000Y2070228D01*
X542000Y2080228D01*
X532000Y2060228D01*
X542000Y2040228D01*
X522000Y2050228D01*
X502000Y2040228D01*
Y1713772D02*
X512000Y1733772D01*
X502000Y1753772D01*
X522000Y1743772D01*
X542000Y1753772D01*
X532000Y1733772D01*
X542000Y1713772D01*
X522000Y1723772D01*
X502000Y1713772D01*
X386000Y1703772D02*
X396000Y1723772D01*
X386000Y1743772D01*
X406000Y1733772D01*
X426000Y1743772D01*
X416000Y1723772D01*
X426000Y1703772D01*
X406000Y1713772D01*
X386000Y1703772D01*
Y2030228D02*
X396000Y2050228D01*
X386000Y2070228D01*
X406000Y2060228D01*
X426000Y2070228D01*
X416000Y2050228D01*
X426000Y2030228D01*
X406000Y2040228D01*
X386000Y2030228D01*
X488212Y2249000D02*
Y2239000D01*
X508212D01*
Y2249000D01*
X518212D01*
Y2269000D01*
X508212D01*
Y2279000D01*
X488212D01*
Y2269000D01*
X478212D01*
Y2249000D01*
X488212D01*
X389788D02*
Y2239000D01*
X409788D01*
Y2249000D01*
X419788D01*
Y2269000D01*
X409788D01*
Y2279000D01*
X389788D01*
Y2269000D01*
X379788D01*
Y2249000D01*
X389788D01*
X1248000Y1196000D02*
Y1236000D01*
X1288000D01*
Y1196000D01*
X1248000D01*
X1148000D02*
Y1236000D01*
X1188000D01*
Y1196000D01*
X1148000D01*
X1325000Y434000D02*
X1305000Y474000D01*
X1345000D01*
X1325000Y434000D01*
Y442000D02*
X1313000Y466000D01*
X1337000D01*
X1325000Y442000D01*
X1205000Y434000D02*
X1185000Y474000D01*
X1225000D01*
X1205000Y434000D01*
Y442000D02*
X1193000Y466000D01*
X1217000D01*
X1205000Y442000D01*
X701000Y175000D02*
Y215000D01*
X741000D01*
Y175000D01*
X701000D01*
X801000D02*
Y215000D01*
X841000D01*
Y175000D01*
X801000D01*
X709000Y1080000D02*
Y1120000D01*
X749000D01*
Y1080000D01*
X709000D01*
X809000D02*
Y1120000D01*
X849000D01*
Y1080000D01*
X809000D01*
X988630Y322000D02*
Y312000D01*
X1008630D01*
Y322000D01*
X1018630D01*
Y342000D01*
X1008630D01*
Y352000D01*
X988630D01*
Y342000D01*
X978630D01*
Y322000D01*
X988630D01*
X1067370D02*
Y312000D01*
X1087370D01*
Y322000D01*
X1097370D01*
Y342000D01*
X1087370D01*
Y352000D01*
X1067370D01*
Y342000D01*
X1057370D01*
Y322000D01*
X1067370D01*
X2878700Y1705000D02*
X2888700Y1715000D01*
X2898700D01*
X2888700Y1725000D01*
X2898700Y1735000D01*
X2888700D01*
X2878700Y1745000D01*
X2868700Y1735000D01*
X2858700D01*
X2868700Y1725000D01*
X2858700Y1715000D01*
X2868700D01*
X2878700Y1705000D01*
Y1605000D02*
X2888700Y1615000D01*
X2898700D01*
X2888700Y1625000D01*
X2898700Y1635000D01*
X2888700D01*
X2878700Y1645000D01*
X2868700Y1635000D01*
X2858700D01*
X2868700Y1625000D01*
X2858700Y1615000D01*
X2868700D01*
X2878700Y1605000D01*
Y1505000D02*
X2888700Y1515000D01*
X2898700D01*
X2888700Y1525000D01*
X2898700Y1535000D01*
X2888700D01*
X2878700Y1545000D01*
X2868700Y1535000D01*
X2858700D01*
X2868700Y1525000D01*
X2858700Y1515000D01*
X2868700D01*
X2878700Y1505000D01*
Y1405000D02*
X2888700Y1415000D01*
X2898700D01*
X2888700Y1425000D01*
X2898700Y1435000D01*
X2888700D01*
X2878700Y1445000D01*
X2868700Y1435000D01*
X2858700D01*
X2868700Y1425000D01*
X2858700Y1415000D01*
X2868700D01*
X2878700Y1405000D01*
X3191300D02*
X3201300Y1415000D01*
X3211300D01*
X3201300Y1425000D01*
X3211300Y1435000D01*
X3201300D01*
X3191300Y1445000D01*
X3181300Y1435000D01*
X3171300D01*
X3181300Y1425000D01*
X3171300Y1415000D01*
X3181300D01*
X3191300Y1405000D01*
Y1505000D02*
X3201300Y1515000D01*
X3211300D01*
X3201300Y1525000D01*
X3211300Y1535000D01*
X3201300D01*
X3191300Y1545000D01*
X3181300Y1535000D01*
X3171300D01*
X3181300Y1525000D01*
X3171300Y1515000D01*
X3181300D01*
X3191300Y1505000D01*
Y1605000D02*
X3201300Y1615000D01*
X3211300D01*
X3201300Y1625000D01*
X3211300Y1635000D01*
X3201300D01*
X3191300Y1645000D01*
X3181300Y1635000D01*
X3171300D01*
X3181300Y1625000D01*
X3171300Y1615000D01*
X3181300D01*
X3191300Y1605000D01*
Y1705000D02*
X3201300Y1715000D01*
X3211300D01*
X3201300Y1725000D01*
X3211300Y1735000D01*
X3201300D01*
X3191300Y1745000D01*
X3181300Y1735000D01*
X3171300D01*
X3181300Y1725000D01*
X3171300Y1715000D01*
X3181300D01*
X3191300Y1705000D01*
X3612000Y2253998D02*
X3592000Y2293998D01*
X3632000D01*
X3612000Y2253998D01*
X3712000D02*
X3692000Y2293998D01*
X3732000D01*
X3712000Y2253998D01*
X3812000D02*
X3792000Y2293998D01*
X3832000D01*
X3812000Y2253998D01*
X3912000D02*
X3892000Y2293998D01*
X3932000D01*
X3912000Y2253998D01*
X4012000D02*
X3992000Y2293998D01*
X4032000D01*
X4012000Y2253998D01*
X4112000D02*
X4092000Y2293998D01*
X4132000D01*
X4112000Y2253998D01*
X4212000D02*
X4192000Y2293998D01*
X4232000D01*
X4212000Y2253998D01*
X4312000D02*
X4292000Y2293998D01*
X4332000D01*
X4312000Y2253998D01*
X4412000D02*
X4392000Y2293998D01*
X4432000D01*
X4412000Y2253998D01*
Y1878998D02*
X4392000Y1918998D01*
X4432000D01*
X4412000Y1878998D01*
X4312000D02*
X4292000Y1918998D01*
X4332000D01*
X4312000Y1878998D01*
X4212000D02*
X4192000Y1918998D01*
X4232000D01*
X4212000Y1878998D01*
X4112000D02*
X4092000Y1918998D01*
X4132000D01*
X4112000Y1878998D01*
X4012000D02*
X3992000Y1918998D01*
X4032000D01*
X4012000Y1878998D01*
X3912000D02*
X3892000Y1918998D01*
X3932000D01*
X3912000Y1878998D01*
X3812000D02*
X3792000Y1918998D01*
X3832000D01*
X3812000Y1878998D01*
X3712000D02*
X3692000Y1918998D01*
X3732000D01*
X3712000Y1878998D01*
X3612000D02*
X3592000Y1918998D01*
X3632000D01*
X3612000Y1878998D01*
Y1660500D02*
X3592000Y1700500D01*
X3632000D01*
X3612000Y1660500D01*
X3712000D02*
X3692000Y1700500D01*
X3732000D01*
X3712000Y1660500D01*
X3812000D02*
X3792000Y1700500D01*
X3832000D01*
X3812000Y1660500D01*
X3912000D02*
X3892000Y1700500D01*
X3932000D01*
X3912000Y1660500D01*
X4012000D02*
X3992000Y1700500D01*
X4032000D01*
X4012000Y1660500D01*
X4112000D02*
X4092000Y1700500D01*
X4132000D01*
X4112000Y1660500D01*
X4212000D02*
X4192000Y1700500D01*
X4232000D01*
X4212000Y1660500D01*
X4312000D02*
X4292000Y1700500D01*
X4332000D01*
X4312000Y1660500D01*
X4412000D02*
X4392000Y1700500D01*
X4432000D01*
X4412000Y1660500D01*
Y1285500D02*
X4392000Y1325500D01*
X4432000D01*
X4412000Y1285500D01*
X4312000D02*
X4292000Y1325500D01*
X4332000D01*
X4312000Y1285500D01*
X4212000D02*
X4192000Y1325500D01*
X4232000D01*
X4212000Y1285500D01*
X4112000D02*
X4092000Y1325500D01*
X4132000D01*
X4112000Y1285500D01*
X4012000D02*
X3992000Y1325500D01*
X4032000D01*
X4012000Y1285500D01*
X3912000D02*
X3892000Y1325500D01*
X3932000D01*
X3912000Y1285500D01*
X3812000D02*
X3792000Y1325500D01*
X3832000D01*
X3812000Y1285500D01*
X3712000D02*
X3692000Y1325500D01*
X3732000D01*
X3712000Y1285500D01*
X3612000D02*
X3592000Y1325500D01*
X3632000D01*
X3612000Y1285500D01*
Y2847500D02*
X3592000Y2887500D01*
X3632000D01*
X3612000Y2847500D01*
X3712000D02*
X3692000Y2887500D01*
X3732000D01*
X3712000Y2847500D01*
X3812000D02*
X3792000Y2887500D01*
X3832000D01*
X3812000Y2847500D01*
X3912000D02*
X3892000Y2887500D01*
X3932000D01*
X3912000Y2847500D01*
X4012000D02*
X3992000Y2887500D01*
X4032000D01*
X4012000Y2847500D01*
X4112000D02*
X4092000Y2887500D01*
X4132000D01*
X4112000Y2847500D01*
X4212000D02*
X4192000Y2887500D01*
X4232000D01*
X4212000Y2847500D01*
X4312000D02*
X4292000Y2887500D01*
X4332000D01*
X4312000Y2847500D01*
X4412000D02*
X4392000Y2887500D01*
X4432000D01*
X4412000Y2847500D01*
Y2472500D02*
X4392000Y2512500D01*
X4432000D01*
X4412000Y2472500D01*
X4312000D02*
X4292000Y2512500D01*
X4332000D01*
X4312000Y2472500D01*
X4212000D02*
X4192000Y2512500D01*
X4232000D01*
X4212000Y2472500D01*
X4112000D02*
X4092000Y2512500D01*
X4132000D01*
X4112000Y2472500D01*
X4012000D02*
X3992000Y2512500D01*
X4032000D01*
X4012000Y2472500D01*
X3912000D02*
X3892000Y2512500D01*
X3932000D01*
X3912000Y2472500D01*
X3812000D02*
X3792000Y2512500D01*
X3832000D01*
X3812000Y2472500D01*
X3712000D02*
X3692000Y2512500D01*
X3732000D01*
X3712000Y2472500D01*
X3612000D02*
X3592000Y2512500D01*
X3632000D01*
X3612000Y2472500D01*
X2529666Y2847500D02*
X2509666Y2887500D01*
X2549666D01*
X2529666Y2847500D01*
X2629666D02*
X2609666Y2887500D01*
X2649666D01*
X2629666Y2847500D01*
X2729666D02*
X2709666Y2887500D01*
X2749666D01*
X2729666Y2847500D01*
X2829666D02*
X2809666Y2887500D01*
X2849666D01*
X2829666Y2847500D01*
X2929666D02*
X2909666Y2887500D01*
X2949666D01*
X2929666Y2847500D01*
X3029666D02*
X3009666Y2887500D01*
X3049666D01*
X3029666Y2847500D01*
X3129666D02*
X3109666Y2887500D01*
X3149666D01*
X3129666Y2847500D01*
X3229666D02*
X3209666Y2887500D01*
X3249666D01*
X3229666Y2847500D01*
X3329666D02*
X3309666Y2887500D01*
X3349666D01*
X3329666Y2847500D01*
Y2472500D02*
X3309666Y2512500D01*
X3349666D01*
X3329666Y2472500D01*
X3229666D02*
X3209666Y2512500D01*
X3249666D01*
X3229666Y2472500D01*
X3129666D02*
X3109666Y2512500D01*
X3149666D01*
X3129666Y2472500D01*
X3029666D02*
X3009666Y2512500D01*
X3049666D01*
X3029666Y2472500D01*
X2929666D02*
X2909666Y2512500D01*
X2949666D01*
X2929666Y2472500D01*
X2829666D02*
X2809666Y2512500D01*
X2849666D01*
X2829666Y2472500D01*
X2729666D02*
X2709666Y2512500D01*
X2749666D01*
X2729666Y2472500D01*
X2629666D02*
X2609666Y2512500D01*
X2649666D01*
X2629666Y2472500D01*
X2529666D02*
X2509666Y2512500D01*
X2549666D01*
X2529666Y2472500D01*
X365000Y2847500D02*
X345000Y2887500D01*
X385000D01*
X365000Y2847500D01*
X465000D02*
X445000Y2887500D01*
X485000D01*
X465000Y2847500D01*
X565000D02*
X545000Y2887500D01*
X585000D01*
X565000Y2847500D01*
X665000D02*
X645000Y2887500D01*
X685000D01*
X665000Y2847500D01*
X765000D02*
X745000Y2887500D01*
X785000D01*
X765000Y2847500D01*
X865000D02*
X845000Y2887500D01*
X885000D01*
X865000Y2847500D01*
X965000D02*
X945000Y2887500D01*
X985000D01*
X965000Y2847500D01*
X1065000D02*
X1045000Y2887500D01*
X1085000D01*
X1065000Y2847500D01*
X1165000D02*
X1145000Y2887500D01*
X1185000D01*
X1165000Y2847500D01*
Y2472500D02*
X1145000Y2512500D01*
X1185000D01*
X1165000Y2472500D01*
X1065000D02*
X1045000Y2512500D01*
X1085000D01*
X1065000Y2472500D01*
X965000D02*
X945000Y2512500D01*
X985000D01*
X965000Y2472500D01*
X865000D02*
X845000Y2512500D01*
X885000D01*
X865000Y2472500D01*
X765000D02*
X745000Y2512500D01*
X785000D01*
X765000Y2472500D01*
X665000D02*
X645000Y2512500D01*
X685000D01*
X665000Y2472500D01*
X565000D02*
X545000Y2512500D01*
X585000D01*
X565000Y2472500D01*
X465000D02*
X445000Y2512500D01*
X485000D01*
X465000Y2472500D01*
X365000D02*
X345000Y2512500D01*
X385000D01*
X365000Y2472500D01*
X3612000Y692000D02*
X3592000Y732000D01*
X3632000D01*
X3612000Y692000D01*
X3712000D02*
X3692000Y732000D01*
X3732000D01*
X3712000Y692000D01*
X3812000D02*
X3792000Y732000D01*
X3832000D01*
X3812000Y692000D01*
X3912000D02*
X3892000Y732000D01*
X3932000D01*
X3912000Y692000D01*
X4012000D02*
X3992000Y732000D01*
X4032000D01*
X4012000Y692000D01*
X4112000D02*
X4092000Y732000D01*
X4132000D01*
X4112000Y692000D01*
X4212000D02*
X4192000Y732000D01*
X4232000D01*
X4212000Y692000D01*
X4312000D02*
X4292000Y732000D01*
X4332000D01*
X4312000Y692000D01*
X4412000D02*
X4392000Y732000D01*
X4432000D01*
X4412000Y692000D01*
Y1067000D02*
X4392000Y1107000D01*
X4432000D01*
X4412000Y1067000D01*
X4312000D02*
X4292000Y1107000D01*
X4332000D01*
X4312000Y1067000D01*
X4212000D02*
X4192000Y1107000D01*
X4232000D01*
X4212000Y1067000D01*
X4112000D02*
X4092000Y1107000D01*
X4132000D01*
X4112000Y1067000D01*
X4012000D02*
X3992000Y1107000D01*
X4032000D01*
X4012000Y1067000D01*
X3912000D02*
X3892000Y1107000D01*
X3932000D01*
X3912000Y1067000D01*
X3812000D02*
X3792000Y1107000D01*
X3832000D01*
X3812000Y1067000D01*
X3712000D02*
X3692000Y1107000D01*
X3732000D01*
X3712000Y1067000D01*
X3612000D02*
X3592000Y1107000D01*
X3632000D01*
X3612000Y1067000D01*
X1447334Y2847500D02*
X1427334Y2887500D01*
X1467334D01*
X1447334Y2847500D01*
X1547334D02*
X1527334Y2887500D01*
X1567334D01*
X1547334Y2847500D01*
X1647334D02*
X1627334Y2887500D01*
X1667334D01*
X1647334Y2847500D01*
X1747334D02*
X1727334Y2887500D01*
X1767334D01*
X1747334Y2847500D01*
X1847334D02*
X1827334Y2887500D01*
X1867334D01*
X1847334Y2847500D01*
X1947334D02*
X1927334Y2887500D01*
X1967334D01*
X1947334Y2847500D01*
X2047334D02*
X2027334Y2887500D01*
X2067334D01*
X2047334Y2847500D01*
X2147334D02*
X2127334Y2887500D01*
X2167334D01*
X2147334Y2847500D01*
X2247334D02*
X2227334Y2887500D01*
X2267334D01*
X2247334Y2847500D01*
Y2472500D02*
X2227334Y2512500D01*
X2267334D01*
X2247334Y2472500D01*
X2147334D02*
X2127334Y2512500D01*
X2167334D01*
X2147334Y2472500D01*
X2047334D02*
X2027334Y2512500D01*
X2067334D01*
X2047334Y2472500D01*
X1947334D02*
X1927334Y2512500D01*
X1967334D01*
X1947334Y2472500D01*
X1847334D02*
X1827334Y2512500D01*
X1867334D01*
X1847334Y2472500D01*
X1747334D02*
X1727334Y2512500D01*
X1767334D01*
X1747334Y2472500D01*
X1647334D02*
X1627334Y2512500D01*
X1667334D01*
X1647334Y2472500D01*
X1547334D02*
X1527334Y2512500D01*
X1567334D01*
X1547334Y2472500D01*
X1447334D02*
X1427334Y2512500D01*
X1467334D01*
X1447334Y2472500D01*
X3612000Y473500D02*
X3592000Y513500D01*
X3632000D01*
X3612000Y473500D01*
X3712000D02*
X3692000Y513500D01*
X3732000D01*
X3712000Y473500D01*
X3812000D02*
X3792000Y513500D01*
X3832000D01*
X3812000Y473500D01*
X3912000D02*
X3892000Y513500D01*
X3932000D01*
X3912000Y473500D01*
X4012000D02*
X3992000Y513500D01*
X4032000D01*
X4012000Y473500D01*
X4112000D02*
X4092000Y513500D01*
X4132000D01*
X4112000Y473500D01*
X4212000D02*
X4192000Y513500D01*
X4232000D01*
X4212000Y473500D01*
X4312000D02*
X4292000Y513500D01*
X4332000D01*
X4312000Y473500D01*
X4412000D02*
X4392000Y513500D01*
X4432000D01*
X4412000Y473500D01*
Y98500D02*
X4392000Y138500D01*
X4432000D01*
X4412000Y98500D01*
X4312000D02*
X4292000Y138500D01*
X4332000D01*
X4312000Y98500D01*
X4212000D02*
X4192000Y138500D01*
X4232000D01*
X4212000Y98500D01*
X4112000D02*
X4092000Y138500D01*
X4132000D01*
X4112000Y98500D01*
X4012000D02*
X3992000Y138500D01*
X4032000D01*
X4012000Y98500D01*
X3912000D02*
X3892000Y138500D01*
X3932000D01*
X3912000Y98500D01*
X3812000D02*
X3792000Y138500D01*
X3832000D01*
X3812000Y98500D01*
X3712000D02*
X3692000Y138500D01*
X3732000D01*
X3712000Y98500D01*
X3612000D02*
X3592000Y138500D01*
X3632000D01*
X3612000Y98500D01*
X209000Y1647000D02*
Y1637000D01*
X229000D01*
Y1647000D01*
X239000D01*
Y1667000D01*
X229000D01*
Y1677000D01*
X209000D01*
Y1667000D01*
X199000D01*
Y1647000D01*
X209000D01*
Y1847000D02*
Y1837000D01*
X229000D01*
Y1847000D01*
X239000D01*
Y1867000D01*
X229000D01*
Y1877000D01*
X209000D01*
Y1867000D01*
X199000D01*
Y1847000D01*
X209000D01*
Y1747000D02*
Y1737000D01*
X229000D01*
Y1747000D01*
X239000D01*
Y1767000D01*
X229000D01*
Y1777000D01*
X209000D01*
Y1767000D01*
X199000D01*
Y1747000D01*
X209000D01*
X267000Y1448000D02*
X277000D01*
X287000Y1458000D01*
X297000Y1448000D01*
X307000D01*
Y1458000D01*
X297000Y1468000D01*
X307000Y1478000D01*
Y1488000D01*
X297000D01*
X287000Y1478000D01*
X277000Y1488000D01*
X267000D01*
Y1478000D01*
X277000Y1468000D01*
X267000Y1458000D01*
Y1448000D01*
Y1348000D02*
X277000D01*
X287000Y1358000D01*
X297000Y1348000D01*
X307000D01*
Y1358000D01*
X297000Y1368000D01*
X307000Y1378000D01*
Y1388000D01*
X297000D01*
X287000Y1378000D01*
X277000Y1388000D01*
X267000D01*
Y1378000D01*
X277000Y1368000D01*
X267000Y1358000D01*
Y1348000D01*
X337000Y178000D02*
X357000Y198000D01*
X377000Y178000D01*
X357000Y158000D01*
X337000Y178000D01*
X437000Y278000D02*
X457000Y298000D01*
X477000Y278000D01*
X457000Y258000D01*
X437000Y278000D01*
X537000Y178000D02*
X557000Y198000D01*
X577000Y178000D01*
X557000Y158000D01*
X537000Y178000D01*
X267934Y457000D02*
X277934D01*
X287934Y467000D01*
X297934Y457000D01*
X307934D01*
Y467000D01*
X297934Y477000D01*
X307934Y487000D01*
Y497000D01*
X297934D01*
X287934Y487000D01*
X277934Y497000D01*
X267934D01*
Y487000D01*
X277934Y477000D01*
X267934Y467000D01*
Y457000D01*
Y557000D02*
X277934D01*
X287934Y567000D01*
X297934Y557000D01*
X307934D01*
Y567000D01*
X297934Y577000D01*
X307934Y587000D01*
Y597000D01*
X297934D01*
X287934Y587000D01*
X277934Y597000D01*
X267934D01*
Y587000D01*
X277934Y577000D01*
X267934Y567000D01*
Y557000D01*
Y725858D02*
X277934D01*
X287934Y735858D01*
X297934Y725858D01*
X307934D01*
Y735858D01*
X297934Y745858D01*
X307934Y755858D01*
Y765858D01*
X297934D01*
X287934Y755858D01*
X277934Y765858D01*
X267934D01*
Y755858D01*
X277934Y745858D01*
X267934Y735858D01*
Y725858D01*
Y825858D02*
X277934D01*
X287934Y835858D01*
X297934Y825858D01*
X307934D01*
Y835858D01*
X297934Y845858D01*
X307934Y855858D01*
Y865858D01*
X297934D01*
X287934Y855858D01*
X277934Y865858D01*
X267934D01*
Y855858D01*
X277934Y845858D01*
X267934Y835858D01*
Y825858D01*
X2438000Y591772D02*
X2448000Y611772D01*
X2438000Y631772D01*
X2458000Y621772D01*
X2478000Y631772D01*
X2468000Y611772D01*
X2478000Y591772D01*
X2458000Y601772D01*
X2438000Y591772D01*
Y918228D02*
X2448000Y938228D01*
X2438000Y958228D01*
X2458000Y948228D01*
X2478000Y958228D01*
X2468000Y938228D01*
X2478000Y918228D01*
X2458000Y928228D01*
X2438000Y918228D01*
X2549000Y908228D02*
X2559000Y928228D01*
X2549000Y948228D01*
X2569000Y938228D01*
X2589000Y948228D01*
X2579000Y928228D01*
X2589000Y908228D01*
X2569000Y918228D01*
X2549000Y908228D01*
Y581772D02*
X2559000Y601772D01*
X2549000Y621772D01*
X2569000Y611772D01*
X2589000Y621772D01*
X2579000Y601772D01*
X2589000Y581772D01*
X2569000Y591772D01*
X2549000Y581772D01*
X2882000Y908230D02*
X2892000Y928230D01*
X2882000Y948230D01*
X2902000Y938230D01*
X2922000Y948230D01*
X2912000Y928230D01*
X2922000Y908230D01*
X2902000Y918230D01*
X2882000Y908230D01*
Y581772D02*
X2892000Y601772D01*
X2882000Y621772D01*
X2902000Y611772D01*
X2922000Y621772D01*
X2912000Y601772D01*
X2922000Y581772D01*
X2902000Y591772D01*
X2882000Y581772D01*
X2660000Y591772D02*
X2670000Y611772D01*
X2660000Y631772D01*
X2680000Y621772D01*
X2700000Y631772D01*
X2690000Y611772D01*
X2700000Y591772D01*
X2680000Y601772D01*
X2660000Y591772D01*
Y918230D02*
X2670000Y938230D01*
X2660000Y958230D01*
X2680000Y948230D01*
X2700000Y958230D01*
X2690000Y938230D01*
X2700000Y918230D01*
X2680000Y928230D01*
X2660000Y918230D01*
X2771000Y908230D02*
X2781000Y928230D01*
X2771000Y948230D01*
X2791000Y938230D01*
X2811000Y948230D01*
X2801000Y928230D01*
X2811000Y908230D01*
X2791000Y918230D01*
X2771000Y908230D01*
Y581772D02*
X2781000Y601772D01*
X2771000Y621772D01*
X2791000Y611772D01*
X2811000Y621772D01*
X2801000Y601772D01*
X2811000Y581772D01*
X2791000Y591772D01*
X2771000Y581772D01*
X2587298Y1705000D02*
X2597298Y1715000D01*
X2607298D01*
X2597298Y1725000D01*
X2607298Y1735000D01*
X2597298D01*
X2587298Y1745000D01*
X2577298Y1735000D01*
X2567298D01*
X2577298Y1725000D01*
X2567298Y1715000D01*
X2577298D01*
X2587298Y1705000D01*
Y1605000D02*
X2597298Y1615000D01*
X2607298D01*
X2597298Y1625000D01*
X2607298Y1635000D01*
X2597298D01*
X2587298Y1645000D01*
X2577298Y1635000D01*
X2567298D01*
X2577298Y1625000D01*
X2567298Y1615000D01*
X2577298D01*
X2587298Y1605000D01*
Y1505000D02*
X2597298Y1515000D01*
X2607298D01*
X2597298Y1525000D01*
X2607298Y1535000D01*
X2597298D01*
X2587298Y1545000D01*
X2577298Y1535000D01*
X2567298D01*
X2577298Y1525000D01*
X2567298Y1515000D01*
X2577298D01*
X2587298Y1505000D01*
Y1405000D02*
X2597298Y1415000D01*
X2607298D01*
X2597298Y1425000D01*
X2607298Y1435000D01*
X2597298D01*
X2587298Y1445000D01*
X2577298Y1435000D01*
X2567298D01*
X2577298Y1425000D01*
X2567298Y1415000D01*
X2577298D01*
X2587298Y1405000D01*
X2274700D02*
X2284700Y1415000D01*
X2294700D01*
X2284700Y1425000D01*
X2294700Y1435000D01*
X2284700D01*
X2274700Y1445000D01*
X2264700Y1435000D01*
X2254700D01*
X2264700Y1425000D01*
X2254700Y1415000D01*
X2264700D01*
X2274700Y1405000D01*
Y1505000D02*
X2284700Y1515000D01*
X2294700D01*
X2284700Y1525000D01*
X2294700Y1535000D01*
X2284700D01*
X2274700Y1545000D01*
X2264700Y1535000D01*
X2254700D01*
X2264700Y1525000D01*
X2254700Y1515000D01*
X2264700D01*
X2274700Y1505000D01*
Y1605000D02*
X2284700Y1615000D01*
X2294700D01*
X2284700Y1625000D01*
X2294700Y1635000D01*
X2284700D01*
X2274700Y1645000D01*
X2264700Y1635000D01*
X2254700D01*
X2264700Y1625000D01*
X2254700Y1615000D01*
X2264700D01*
X2274700Y1605000D01*
Y1705000D02*
X2284700Y1715000D01*
X2294700D01*
X2284700Y1725000D01*
X2294700Y1735000D01*
X2284700D01*
X2274700Y1745000D01*
X2264700Y1735000D01*
X2254700D01*
X2264700Y1725000D01*
X2254700Y1715000D01*
X2264700D01*
X2274700Y1705000D01*
X1983298D02*
X1993298Y1715000D01*
X2003298D01*
X1993298Y1725000D01*
X2003298Y1735000D01*
X1993298D01*
X1983298Y1745000D01*
X1973298Y1735000D01*
X1963298D01*
X1973298Y1725000D01*
X1963298Y1715000D01*
X1973298D01*
X1983298Y1705000D01*
Y1605000D02*
X1993298Y1615000D01*
X2003298D01*
X1993298Y1625000D01*
X2003298Y1635000D01*
X1993298D01*
X1983298Y1645000D01*
X1973298Y1635000D01*
X1963298D01*
X1973298Y1625000D01*
X1963298Y1615000D01*
X1973298D01*
X1983298Y1605000D01*
Y1505000D02*
X1993298Y1515000D01*
X2003298D01*
X1993298Y1525000D01*
X2003298Y1535000D01*
X1993298D01*
X1983298Y1545000D01*
X1973298Y1535000D01*
X1963298D01*
X1973298Y1525000D01*
X1963298Y1515000D01*
X1973298D01*
X1983298Y1505000D01*
Y1405000D02*
X1993298Y1415000D01*
X2003298D01*
X1993298Y1425000D01*
X2003298Y1435000D01*
X1993298D01*
X1983298Y1445000D01*
X1973298Y1435000D01*
X1963298D01*
X1973298Y1425000D01*
X1963298Y1415000D01*
X1973298D01*
X1983298Y1405000D01*
X1670700D02*
X1680700Y1415000D01*
X1690700D01*
X1680700Y1425000D01*
X1690700Y1435000D01*
X1680700D01*
X1670700Y1445000D01*
X1660700Y1435000D01*
X1650700D01*
X1660700Y1425000D01*
X1650700Y1415000D01*
X1660700D01*
X1670700Y1405000D01*
Y1505000D02*
X1680700Y1515000D01*
X1690700D01*
X1680700Y1525000D01*
X1690700Y1535000D01*
X1680700D01*
X1670700Y1545000D01*
X1660700Y1535000D01*
X1650700D01*
X1660700Y1525000D01*
X1650700Y1515000D01*
X1660700D01*
X1670700Y1505000D01*
Y1605000D02*
X1680700Y1615000D01*
X1690700D01*
X1680700Y1625000D01*
X1690700Y1635000D01*
X1680700D01*
X1670700Y1645000D01*
X1660700Y1635000D01*
X1650700D01*
X1660700Y1625000D01*
X1650700Y1615000D01*
X1660700D01*
X1670700Y1605000D01*
Y1705000D02*
X1680700Y1715000D01*
X1690700D01*
X1680700Y1725000D01*
X1690700Y1735000D01*
X1680700D01*
X1670700Y1745000D01*
X1660700Y1735000D01*
X1650700D01*
X1660700Y1725000D01*
X1650700Y1715000D01*
X1660700D01*
X1670700Y1705000D01*
X1379300D02*
X1389300Y1715000D01*
X1399300D01*
X1389300Y1725000D01*
X1399300Y1735000D01*
X1389300D01*
X1379300Y1745000D01*
X1369300Y1735000D01*
X1359300D01*
X1369300Y1725000D01*
X1359300Y1715000D01*
X1369300D01*
X1379300Y1705000D01*
Y1605000D02*
X1389300Y1615000D01*
X1399300D01*
X1389300Y1625000D01*
X1399300Y1635000D01*
X1389300D01*
X1379300Y1645000D01*
X1369300Y1635000D01*
X1359300D01*
X1369300Y1625000D01*
X1359300Y1615000D01*
X1369300D01*
X1379300Y1605000D01*
Y1505000D02*
X1389300Y1515000D01*
X1399300D01*
X1389300Y1525000D01*
X1399300Y1535000D01*
X1389300D01*
X1379300Y1545000D01*
X1369300Y1535000D01*
X1359300D01*
X1369300Y1525000D01*
X1359300Y1515000D01*
X1369300D01*
X1379300Y1505000D01*
Y1405000D02*
X1389300Y1415000D01*
X1399300D01*
X1389300Y1425000D01*
X1399300Y1435000D01*
X1389300D01*
X1379300Y1445000D01*
X1369300Y1435000D01*
X1359300D01*
X1369300Y1425000D01*
X1359300Y1415000D01*
X1369300D01*
X1379300Y1405000D01*
X1066700D02*
X1076700Y1415000D01*
X1086700D01*
X1076700Y1425000D01*
X1086700Y1435000D01*
X1076700D01*
X1066700Y1445000D01*
X1056700Y1435000D01*
X1046700D01*
X1056700Y1425000D01*
X1046700Y1415000D01*
X1056700D01*
X1066700Y1405000D01*
Y1505000D02*
X1076700Y1515000D01*
X1086700D01*
X1076700Y1525000D01*
X1086700Y1535000D01*
X1076700D01*
X1066700Y1545000D01*
X1056700Y1535000D01*
X1046700D01*
X1056700Y1525000D01*
X1046700Y1515000D01*
X1056700D01*
X1066700Y1505000D01*
Y1605000D02*
X1076700Y1615000D01*
X1086700D01*
X1076700Y1625000D01*
X1086700Y1635000D01*
X1076700D01*
X1066700Y1645000D01*
X1056700Y1635000D01*
X1046700D01*
X1056700Y1625000D01*
X1046700Y1615000D01*
X1056700D01*
X1066700Y1605000D01*
Y1705000D02*
X1076700Y1715000D01*
X1086700D01*
X1076700Y1725000D01*
X1086700Y1735000D01*
X1076700D01*
X1066700Y1745000D01*
X1056700Y1735000D01*
X1046700D01*
X1056700Y1725000D01*
X1046700Y1715000D01*
X1056700D01*
X1066700Y1705000D01*
X447000Y1449000D02*
X467000Y1469000D01*
X487000Y1449000D01*
X467000Y1429000D01*
X447000Y1449000D01*
X547000Y1349000D02*
X567000Y1369000D01*
X587000Y1349000D01*
X567000Y1329000D01*
X547000Y1349000D01*
X647000Y1449000D02*
X667000Y1469000D01*
X687000Y1449000D01*
X667000Y1429000D01*
X647000Y1449000D01*
X204488Y1208016D02*
Y1248016D01*
X244488D01*
Y1208016D01*
X204488D01*
X212488Y1216016D02*
Y1240016D01*
X236488D01*
Y1216016D01*
X212488D01*
X204488Y959984D02*
Y999984D01*
X244488D01*
Y959984D01*
X204488D01*
X212488Y967984D02*
Y991984D01*
X236488D01*
Y967984D01*
X212488D01*
X468268Y1208016D02*
Y1248016D01*
X508268D01*
Y1208016D01*
X468268D01*
X476268Y1216016D02*
Y1240016D01*
X500268D01*
Y1216016D01*
X476268D01*
X468268Y959984D02*
Y999984D01*
X508268D01*
Y959984D01*
X468268D01*
X476268Y967984D02*
Y991984D01*
X500268D01*
Y967984D01*
X476268D01*
X330472Y1208016D02*
Y1248016D01*
X370472D01*
Y1208016D01*
X330472D01*
X338472Y1216016D02*
Y1240016D01*
X362472D01*
Y1216016D01*
X338472D01*
X4471000Y2597000D02*
Y2587000D01*
X4491000D01*
Y2597000D01*
X4501000D01*
Y2617000D01*
X4491000D01*
Y2627000D01*
X4471000D01*
Y2617000D01*
X4461000D01*
Y2597000D01*
X4471000D01*
X4475000Y2601000D02*
Y2595000D01*
X4487000D01*
Y2601000D01*
X4493000D01*
Y2613000D01*
X4487000D01*
Y2619000D01*
X4475000D01*
Y2613000D01*
X4469000D01*
Y2601000D01*
X4475000D01*
X4615000Y2184000D02*
Y2174000D01*
X4635000D01*
Y2184000D01*
X4645000D01*
Y2204000D01*
X4635000D01*
Y2214000D01*
X4615000D01*
Y2204000D01*
X4605000D01*
Y2184000D01*
X4615000D01*
X4619000Y2188000D02*
Y2182000D01*
X4631000D01*
Y2188000D01*
X4637000D01*
Y2200000D01*
X4631000D01*
Y2206000D01*
X4619000D01*
Y2200000D01*
X4613000D01*
Y2188000D01*
X4619000D01*
X4343000Y2584000D02*
Y2574000D01*
X4363000D01*
Y2584000D01*
X4373000D01*
Y2604000D01*
X4363000D01*
Y2614000D01*
X4343000D01*
Y2604000D01*
X4333000D01*
Y2584000D01*
X4343000D01*
X4347000Y2588000D02*
Y2582000D01*
X4359000D01*
Y2588000D01*
X4365000D01*
Y2600000D01*
X4359000D01*
Y2606000D01*
X4347000D01*
Y2600000D01*
X4341000D01*
Y2588000D01*
X4347000D01*
X1681000Y2267000D02*
Y2257000D01*
X1701000D01*
Y2267000D01*
X1711000D01*
Y2287000D01*
X1701000D01*
Y2297000D01*
X1681000D01*
Y2287000D01*
X1671000D01*
Y2267000D01*
X1681000D01*
X1685000Y2271000D02*
Y2265000D01*
X1697000D01*
Y2271000D01*
X1703000D01*
Y2283000D01*
X1697000D01*
Y2289000D01*
X1685000D01*
Y2283000D01*
X1679000D01*
Y2271000D01*
X1685000D01*
X3992000Y1960000D02*
Y1950000D01*
X4012000D01*
Y1960000D01*
X4022000D01*
Y1980000D01*
X4012000D01*
Y1990000D01*
X3992000D01*
Y1980000D01*
X3982000D01*
Y1960000D01*
X3992000D01*
X3996000Y1964000D02*
Y1958000D01*
X4008000D01*
Y1964000D01*
X4014000D01*
Y1976000D01*
X4008000D01*
Y1982000D01*
X3996000D01*
Y1976000D01*
X3990000D01*
Y1964000D01*
X3996000D01*
X1572000Y102000D02*
Y92000D01*
X1592000D01*
Y102000D01*
X1602000D01*
Y122000D01*
X1592000D01*
Y132000D01*
X1572000D01*
Y122000D01*
X1562000D01*
Y102000D01*
X1572000D01*
X1576000Y106000D02*
Y100000D01*
X1588000D01*
Y106000D01*
X1594000D01*
Y118000D01*
X1588000D01*
Y124000D01*
X1576000D01*
Y118000D01*
X1570000D01*
Y106000D01*
X1576000D01*
X3263000Y1087000D02*
Y1077000D01*
X3283000D01*
Y1087000D01*
X3293000D01*
Y1107000D01*
X3283000D01*
Y1117000D01*
X3263000D01*
Y1107000D01*
X3253000D01*
Y1087000D01*
X3263000D01*
X3267000Y1091000D02*
Y1085000D01*
X3279000D01*
Y1091000D01*
X3285000D01*
Y1103000D01*
X3279000D01*
Y1109000D01*
X3267000D01*
Y1103000D01*
X3261000D01*
Y1091000D01*
X3267000D01*
X1528000Y179000D02*
Y169000D01*
X1548000D01*
Y179000D01*
X1558000D01*
Y199000D01*
X1548000D01*
Y209000D01*
X1528000D01*
Y199000D01*
X1518000D01*
Y179000D01*
X1528000D01*
X1532000Y183000D02*
Y177000D01*
X1544000D01*
Y183000D01*
X1550000D01*
Y195000D01*
X1544000D01*
Y201000D01*
X1532000D01*
Y195000D01*
X1526000D01*
Y183000D01*
X1532000D01*
X5321963Y1069963D02*
Y1059963D01*
X5341963D01*
Y1069963D01*
X5351963D01*
Y1089963D01*
X5341963D01*
Y1099963D01*
X5321963D01*
Y1089963D01*
X5311963D01*
Y1069963D01*
X5321963D01*
X5325963Y1073963D02*
Y1067963D01*
X5337963D01*
Y1073963D01*
X5343963D01*
Y1085963D01*
X5337963D01*
Y1091963D01*
X5325963D01*
Y1085963D01*
X5319963D01*
Y1073963D01*
X5325963D01*
X3472000Y1766000D02*
Y1756000D01*
X3492000D01*
Y1766000D01*
X3502000D01*
Y1786000D01*
X3492000D01*
Y1796000D01*
X3472000D01*
Y1786000D01*
X3462000D01*
Y1766000D01*
X3472000D01*
X3476000Y1770000D02*
Y1764000D01*
X3488000D01*
Y1770000D01*
X3494000D01*
Y1782000D01*
X3488000D01*
Y1788000D01*
X3476000D01*
Y1782000D01*
X3470000D01*
Y1770000D01*
X3476000D01*
X3470000Y2013000D02*
Y2003000D01*
X3490000D01*
Y2013000D01*
X3500000D01*
Y2033000D01*
X3490000D01*
Y2043000D01*
X3470000D01*
Y2033000D01*
X3460000D01*
Y2013000D01*
X3470000D01*
X3474000Y2017000D02*
Y2011000D01*
X3486000D01*
Y2017000D01*
X3492000D01*
Y2029000D01*
X3486000D01*
Y2035000D01*
X3474000D01*
Y2029000D01*
X3468000D01*
Y2017000D01*
X3474000D01*
X3573000Y1984000D02*
Y1974000D01*
X3593000D01*
Y1984000D01*
X3603000D01*
Y2004000D01*
X3593000D01*
Y2014000D01*
X3573000D01*
Y2004000D01*
X3563000D01*
Y1984000D01*
X3573000D01*
X3577000Y1988000D02*
Y1982000D01*
X3589000D01*
Y1988000D01*
X3595000D01*
Y2000000D01*
X3589000D01*
Y2006000D01*
X3577000D01*
Y2000000D01*
X3571000D01*
Y1988000D01*
X3577000D01*
X3394000Y2010000D02*
Y2000000D01*
X3414000D01*
Y2010000D01*
X3424000D01*
Y2030000D01*
X3414000D01*
Y2040000D01*
X3394000D01*
Y2030000D01*
X3384000D01*
Y2010000D01*
X3394000D01*
X3398000Y2014000D02*
Y2008000D01*
X3410000D01*
Y2014000D01*
X3416000D01*
Y2026000D01*
X3410000D01*
Y2032000D01*
X3398000D01*
Y2026000D01*
X3392000D01*
Y2014000D01*
X3398000D01*
X2294000Y1220000D02*
Y1210000D01*
X2314000D01*
Y1220000D01*
X2324000D01*
Y1240000D01*
X2314000D01*
Y1250000D01*
X2294000D01*
Y1240000D01*
X2284000D01*
Y1220000D01*
X2294000D01*
X2298000Y1224000D02*
Y1218000D01*
X2310000D01*
Y1224000D01*
X2316000D01*
Y1236000D01*
X2310000D01*
Y1242000D01*
X2298000D01*
Y1236000D01*
X2292000D01*
Y1224000D01*
X2298000D01*
X1321000Y1570000D02*
Y1560000D01*
X1341000D01*
Y1570000D01*
X1351000D01*
Y1590000D01*
X1341000D01*
Y1600000D01*
X1321000D01*
Y1590000D01*
X1311000D01*
Y1570000D01*
X1321000D01*
X1325000Y1574000D02*
Y1568000D01*
X1337000D01*
Y1574000D01*
X1343000D01*
Y1586000D01*
X1337000D01*
Y1592000D01*
X1325000D01*
Y1586000D01*
X1319000D01*
Y1574000D01*
X1325000D01*
X2556000Y1186000D02*
Y1176000D01*
X2576000D01*
Y1186000D01*
X2586000D01*
Y1206000D01*
X2576000D01*
Y1216000D01*
X2556000D01*
Y1206000D01*
X2546000D01*
Y1186000D01*
X2556000D01*
X2560000Y1190000D02*
Y1184000D01*
X2572000D01*
Y1190000D01*
X2578000D01*
Y1202000D01*
X2572000D01*
Y1208000D01*
X2560000D01*
Y1202000D01*
X2554000D01*
Y1190000D01*
X2560000D01*
X1951000Y2184000D02*
Y2174000D01*
X1971000D01*
Y2184000D01*
X1981000D01*
Y2204000D01*
X1971000D01*
Y2214000D01*
X1951000D01*
Y2204000D01*
X1941000D01*
Y2184000D01*
X1951000D01*
X1955000Y2188000D02*
Y2182000D01*
X1967000D01*
Y2188000D01*
X1973000D01*
Y2200000D01*
X1967000D01*
Y2206000D01*
X1955000D01*
Y2200000D01*
X1949000D01*
Y2188000D01*
X1955000D01*
X1361000Y680000D02*
Y670000D01*
X1381000D01*
Y680000D01*
X1391000D01*
Y700000D01*
X1381000D01*
Y710000D01*
X1361000D01*
Y700000D01*
X1351000D01*
Y680000D01*
X1361000D01*
X1365000Y684000D02*
Y678000D01*
X1377000D01*
Y684000D01*
X1383000D01*
Y696000D01*
X1377000D01*
Y702000D01*
X1365000D01*
Y696000D01*
X1359000D01*
Y684000D01*
X1365000D01*
X1640000Y2334000D02*
Y2324000D01*
X1660000D01*
Y2334000D01*
X1670000D01*
Y2354000D01*
X1660000D01*
Y2364000D01*
X1640000D01*
Y2354000D01*
X1630000D01*
Y2334000D01*
X1640000D01*
X1644000Y2338000D02*
Y2332000D01*
X1656000D01*
Y2338000D01*
X1662000D01*
Y2350000D01*
X1656000D01*
Y2356000D01*
X1644000D01*
Y2350000D01*
X1638000D01*
Y2338000D01*
X1644000D01*
X2704000Y534000D02*
Y524000D01*
X2724000D01*
Y534000D01*
X2734000D01*
Y554000D01*
X2724000D01*
Y564000D01*
X2704000D01*
Y554000D01*
X2694000D01*
Y534000D01*
X2704000D01*
X2708000Y538000D02*
Y532000D01*
X2720000D01*
Y538000D01*
X2726000D01*
Y550000D01*
X2720000D01*
Y556000D01*
X2708000D01*
Y550000D01*
X2702000D01*
Y538000D01*
X2708000D01*
X4070000Y24000D02*
Y14000D01*
X4090000D01*
Y24000D01*
X4100000D01*
Y44000D01*
X4090000D01*
Y54000D01*
X4070000D01*
Y44000D01*
X4060000D01*
Y24000D01*
X4070000D01*
X4074000Y28000D02*
Y22000D01*
X4086000D01*
Y28000D01*
X4092000D01*
Y40000D01*
X4086000D01*
Y46000D01*
X4074000D01*
Y40000D01*
X4068000D01*
Y28000D01*
X4074000D01*
X3499000Y88000D02*
Y78000D01*
X3519000D01*
Y88000D01*
X3529000D01*
Y108000D01*
X3519000D01*
Y118000D01*
X3499000D01*
Y108000D01*
X3489000D01*
Y88000D01*
X3499000D01*
X3503000Y92000D02*
Y86000D01*
X3515000D01*
Y92000D01*
X3521000D01*
Y104000D01*
X3515000D01*
Y110000D01*
X3503000D01*
Y104000D01*
X3497000D01*
Y92000D01*
X3503000D01*
X2552000Y103000D02*
Y93000D01*
X2572000D01*
Y103000D01*
X2582000D01*
Y123000D01*
X2572000D01*
Y133000D01*
X2552000D01*
Y123000D01*
X2542000D01*
Y103000D01*
X2552000D01*
X2556000Y107000D02*
Y101000D01*
X2568000D01*
Y107000D01*
X2574000D01*
Y119000D01*
X2568000D01*
Y125000D01*
X2556000D01*
Y119000D01*
X2550000D01*
Y107000D01*
X2556000D01*
X1510000Y1377000D02*
Y1367000D01*
X1530000D01*
Y1377000D01*
X1540000D01*
Y1397000D01*
X1530000D01*
Y1407000D01*
X1510000D01*
Y1397000D01*
X1500000D01*
Y1377000D01*
X1510000D01*
X1514000Y1381000D02*
Y1375000D01*
X1526000D01*
Y1381000D01*
X1532000D01*
Y1393000D01*
X1526000D01*
Y1399000D01*
X1514000D01*
Y1393000D01*
X1508000D01*
Y1381000D01*
X1514000D01*
X1745000Y1515000D02*
Y1505000D01*
X1765000D01*
Y1515000D01*
X1775000D01*
Y1535000D01*
X1765000D01*
Y1545000D01*
X1745000D01*
Y1535000D01*
X1735000D01*
Y1515000D01*
X1745000D01*
X1749000Y1519000D02*
Y1513000D01*
X1761000D01*
Y1519000D01*
X1767000D01*
Y1531000D01*
X1761000D01*
Y1537000D01*
X1749000D01*
Y1531000D01*
X1743000D01*
Y1519000D01*
X1749000D01*
X2178786Y620214D02*
Y610214D01*
X2198786D01*
Y620214D01*
X2208786D01*
Y640214D01*
X2198786D01*
Y650214D01*
X2178786D01*
Y640214D01*
X2168786D01*
Y620214D01*
X2178786D01*
X2182786Y624214D02*
Y618214D01*
X2194786D01*
Y624214D01*
X2200786D01*
Y636214D01*
X2194786D01*
Y642214D01*
X2182786D01*
Y636214D01*
X2176786D01*
Y624214D01*
X2182786D01*
X2971000Y1674000D02*
Y1664000D01*
X2991000D01*
Y1674000D01*
X3001000D01*
Y1694000D01*
X2991000D01*
Y1704000D01*
X2971000D01*
Y1694000D01*
X2961000D01*
Y1674000D01*
X2971000D01*
X2975000Y1678000D02*
Y1672000D01*
X2987000D01*
Y1678000D01*
X2993000D01*
Y1690000D01*
X2987000D01*
Y1696000D01*
X2975000D01*
Y1690000D01*
X2969000D01*
Y1678000D01*
X2975000D01*
X3920000Y2638000D02*
Y2628000D01*
X3940000D01*
Y2638000D01*
X3950000D01*
Y2658000D01*
X3940000D01*
Y2668000D01*
X3920000D01*
Y2658000D01*
X3910000D01*
Y2638000D01*
X3920000D01*
X3924000Y2642000D02*
Y2636000D01*
X3936000D01*
Y2642000D01*
X3942000D01*
Y2654000D01*
X3936000D01*
Y2660000D01*
X3924000D01*
Y2654000D01*
X3918000D01*
Y2642000D01*
X3924000D01*
X3665000Y2638000D02*
Y2628000D01*
X3685000D01*
Y2638000D01*
X3695000D01*
Y2658000D01*
X3685000D01*
Y2668000D01*
X3665000D01*
Y2658000D01*
X3655000D01*
Y2638000D01*
X3665000D01*
X3669000Y2642000D02*
Y2636000D01*
X3681000D01*
Y2642000D01*
X3687000D01*
Y2654000D01*
X3681000D01*
Y2660000D01*
X3669000D01*
Y2654000D01*
X3663000D01*
Y2642000D01*
X3669000D01*
X2706000Y1435000D02*
Y1425000D01*
X2726000D01*
Y1435000D01*
X2736000D01*
Y1455000D01*
X2726000D01*
Y1465000D01*
X2706000D01*
Y1455000D01*
X2696000D01*
Y1435000D01*
X2706000D01*
X2710000Y1439000D02*
Y1433000D01*
X2722000D01*
Y1439000D01*
X2728000D01*
Y1451000D01*
X2722000D01*
Y1457000D01*
X2710000D01*
Y1451000D01*
X2704000D01*
Y1439000D01*
X2710000D01*
X666000Y1557000D02*
Y1547000D01*
X686000D01*
Y1557000D01*
X696000D01*
Y1577000D01*
X686000D01*
Y1587000D01*
X666000D01*
Y1577000D01*
X656000D01*
Y1557000D01*
X666000D01*
X670000Y1561000D02*
Y1555000D01*
X682000D01*
Y1561000D01*
X688000D01*
Y1573000D01*
X682000D01*
Y1579000D01*
X670000D01*
Y1573000D01*
X664000D01*
Y1561000D01*
X670000D01*
X2568000Y1320000D02*
Y1310000D01*
X2588000D01*
Y1320000D01*
X2598000D01*
Y1340000D01*
X2588000D01*
Y1350000D01*
X2568000D01*
Y1340000D01*
X2558000D01*
Y1320000D01*
X2568000D01*
X2572000Y1324000D02*
Y1318000D01*
X2584000D01*
Y1324000D01*
X2590000D01*
Y1336000D01*
X2584000D01*
Y1342000D01*
X2572000D01*
Y1336000D01*
X2566000D01*
Y1324000D01*
X2572000D01*
X3565000Y305000D02*
Y295000D01*
X3585000D01*
Y305000D01*
X3595000D01*
Y325000D01*
X3585000D01*
Y335000D01*
X3565000D01*
Y325000D01*
X3555000D01*
Y305000D01*
X3565000D01*
X3569000Y309000D02*
Y303000D01*
X3581000D01*
Y309000D01*
X3587000D01*
Y321000D01*
X3581000D01*
Y327000D01*
X3569000D01*
Y321000D01*
X3563000D01*
Y309000D01*
X3569000D01*
X5215000Y1167000D02*
Y1157000D01*
X5235000D01*
Y1167000D01*
X5245000D01*
Y1187000D01*
X5235000D01*
Y1197000D01*
X5215000D01*
Y1187000D01*
X5205000D01*
Y1167000D01*
X5215000D01*
X5219000Y1171000D02*
Y1165000D01*
X5231000D01*
Y1171000D01*
X5237000D01*
Y1183000D01*
X5231000D01*
Y1189000D01*
X5219000D01*
Y1183000D01*
X5213000D01*
Y1171000D01*
X5219000D01*
X4511000Y1055000D02*
Y1045000D01*
X4531000D01*
Y1055000D01*
X4541000D01*
Y1075000D01*
X4531000D01*
Y1085000D01*
X4511000D01*
Y1075000D01*
X4501000D01*
Y1055000D01*
X4511000D01*
X4515000Y1059000D02*
Y1053000D01*
X4527000D01*
Y1059000D01*
X4533000D01*
Y1071000D01*
X4527000D01*
Y1077000D01*
X4515000D01*
Y1071000D01*
X4509000D01*
Y1059000D01*
X4515000D01*
Y397000D02*
Y387000D01*
X4535000D01*
Y397000D01*
X4545000D01*
Y417000D01*
X4535000D01*
Y427000D01*
X4515000D01*
Y417000D01*
X4505000D01*
Y397000D01*
X4515000D01*
X4519000Y401000D02*
Y395000D01*
X4531000D01*
Y401000D01*
X4537000D01*
Y413000D01*
X4531000D01*
Y419000D01*
X4519000D01*
Y413000D01*
X4513000D01*
Y401000D01*
X4519000D01*
X5070000Y2930000D02*
Y2920000D01*
X5090000D01*
Y2930000D01*
X5100000D01*
Y2950000D01*
X5090000D01*
Y2960000D01*
X5070000D01*
Y2950000D01*
X5060000D01*
Y2930000D01*
X5070000D01*
X5074000Y2934000D02*
Y2928000D01*
X5086000D01*
Y2934000D01*
X5092000D01*
Y2946000D01*
X5086000D01*
Y2952000D01*
X5074000D01*
Y2946000D01*
X5068000D01*
Y2934000D01*
X5074000D01*
X5403444Y2860604D02*
Y2850604D01*
X5423444D01*
Y2860604D01*
X5433444D01*
Y2880604D01*
X5423444D01*
Y2890604D01*
X5403444D01*
Y2880604D01*
X5393444D01*
Y2860604D01*
X5403444D01*
X5407444Y2864604D02*
Y2858604D01*
X5419444D01*
Y2864604D01*
X5425444D01*
Y2876604D01*
X5419444D01*
Y2882604D01*
X5407444D01*
Y2876604D01*
X5401444D01*
Y2864604D01*
X5407444D01*
X5283000Y2899000D02*
Y2889000D01*
X5303000D01*
Y2899000D01*
X5313000D01*
Y2919000D01*
X5303000D01*
Y2929000D01*
X5283000D01*
Y2919000D01*
X5273000D01*
Y2899000D01*
X5283000D01*
X5287000Y2903000D02*
Y2897000D01*
X5299000D01*
Y2903000D01*
X5305000D01*
Y2915000D01*
X5299000D01*
Y2921000D01*
X5287000D01*
Y2915000D01*
X5281000D01*
Y2903000D01*
X5287000D01*
X1319106Y2693394D02*
Y2683394D01*
X1339106D01*
Y2693394D01*
X1349106D01*
Y2713394D01*
X1339106D01*
Y2723394D01*
X1319106D01*
Y2713394D01*
X1309106D01*
Y2693394D01*
X1319106D01*
X1323106Y2697394D02*
Y2691394D01*
X1335106D01*
Y2697394D01*
X1341106D01*
Y2709394D01*
X1335106D01*
Y2715394D01*
X1323106D01*
Y2709394D01*
X1317106D01*
Y2697394D01*
X1323106D01*
X5745000Y2888000D02*
Y2878000D01*
X5765000D01*
Y2888000D01*
X5775000D01*
Y2908000D01*
X5765000D01*
Y2918000D01*
X5745000D01*
Y2908000D01*
X5735000D01*
Y2888000D01*
X5745000D01*
X5749000Y2892000D02*
Y2886000D01*
X5761000D01*
Y2892000D01*
X5767000D01*
Y2904000D01*
X5761000D01*
Y2910000D01*
X5749000D01*
Y2904000D01*
X5743000D01*
Y2892000D01*
X5749000D01*
X1516000Y2381000D02*
Y2371000D01*
X1536000D01*
Y2381000D01*
X1546000D01*
Y2401000D01*
X1536000D01*
Y2411000D01*
X1516000D01*
Y2401000D01*
X1506000D01*
Y2381000D01*
X1516000D01*
X1520000Y2385000D02*
Y2379000D01*
X1532000D01*
Y2385000D01*
X1538000D01*
Y2397000D01*
X1532000D01*
Y2403000D01*
X1520000D01*
Y2397000D01*
X1514000D01*
Y2385000D01*
X1520000D01*
X1446000Y2382000D02*
Y2372000D01*
X1466000D01*
Y2382000D01*
X1476000D01*
Y2402000D01*
X1466000D01*
Y2412000D01*
X1446000D01*
Y2402000D01*
X1436000D01*
Y2382000D01*
X1446000D01*
X1450000Y2386000D02*
Y2380000D01*
X1462000D01*
Y2386000D01*
X1468000D01*
Y2398000D01*
X1462000D01*
Y2404000D01*
X1450000D01*
Y2398000D01*
X1444000D01*
Y2386000D01*
X1450000D01*
X1686000Y2530000D02*
Y2520000D01*
X1706000D01*
Y2530000D01*
X1716000D01*
Y2550000D01*
X1706000D01*
Y2560000D01*
X1686000D01*
Y2550000D01*
X1676000D01*
Y2530000D01*
X1686000D01*
X1690000Y2534000D02*
Y2528000D01*
X1702000D01*
Y2534000D01*
X1708000D01*
Y2546000D01*
X1702000D01*
Y2552000D01*
X1690000D01*
Y2546000D01*
X1684000D01*
Y2534000D01*
X1690000D01*
X1913000Y2334000D02*
Y2324000D01*
X1933000D01*
Y2334000D01*
X1943000D01*
Y2354000D01*
X1933000D01*
Y2364000D01*
X1913000D01*
Y2354000D01*
X1903000D01*
Y2334000D01*
X1913000D01*
X1917000Y2338000D02*
Y2332000D01*
X1929000D01*
Y2338000D01*
X1935000D01*
Y2350000D01*
X1929000D01*
Y2356000D01*
X1917000D01*
Y2350000D01*
X1911000D01*
Y2338000D01*
X1917000D01*
X3606000Y1401000D02*
Y1391000D01*
X3626000D01*
Y1401000D01*
X3636000D01*
Y1421000D01*
X3626000D01*
Y1431000D01*
X3606000D01*
Y1421000D01*
X3596000D01*
Y1401000D01*
X3606000D01*
X3610000Y1405000D02*
Y1399000D01*
X3622000D01*
Y1405000D01*
X3628000D01*
Y1417000D01*
X3622000D01*
Y1423000D01*
X3610000D01*
Y1417000D01*
X3604000D01*
Y1405000D01*
X3610000D01*
X5158000Y1528000D02*
Y1518000D01*
X5178000D01*
Y1528000D01*
X5188000D01*
Y1548000D01*
X5178000D01*
Y1558000D01*
X5158000D01*
Y1548000D01*
X5148000D01*
Y1528000D01*
X5158000D01*
X5162000Y1532000D02*
Y1526000D01*
X5174000D01*
Y1532000D01*
X5180000D01*
Y1544000D01*
X5174000D01*
Y1550000D01*
X5162000D01*
Y1544000D01*
X5156000D01*
Y1532000D01*
X5162000D01*
X4052000Y1162230D02*
Y1152230D01*
X4072000D01*
Y1162230D01*
X4082000D01*
Y1182230D01*
X4072000D01*
Y1192230D01*
X4052000D01*
Y1182230D01*
X4042000D01*
Y1162230D01*
X4052000D01*
X4056000Y1166230D02*
Y1160230D01*
X4068000D01*
Y1166230D01*
X4074000D01*
Y1178230D01*
X4068000D01*
Y1184230D01*
X4056000D01*
Y1178230D01*
X4050000D01*
Y1166230D01*
X4056000D01*
X4748000Y1104000D02*
Y1094000D01*
X4768000D01*
Y1104000D01*
X4778000D01*
Y1124000D01*
X4768000D01*
Y1134000D01*
X4748000D01*
Y1124000D01*
X4738000D01*
Y1104000D01*
X4748000D01*
X4752000Y1108000D02*
Y1102000D01*
X4764000D01*
Y1108000D01*
X4770000D01*
Y1120000D01*
X4764000D01*
Y1126000D01*
X4752000D01*
Y1120000D01*
X4746000D01*
Y1108000D01*
X4752000D01*
X3152246Y2155000D02*
Y2145000D01*
X3172246D01*
Y2155000D01*
X3182246D01*
Y2175000D01*
X3172246D01*
Y2185000D01*
X3152246D01*
Y2175000D01*
X3142246D01*
Y2155000D01*
X3152246D01*
X3156246Y2159000D02*
Y2153000D01*
X3168246D01*
Y2159000D01*
X3174246D01*
Y2171000D01*
X3168246D01*
Y2177000D01*
X3156246D01*
Y2171000D01*
X3150246D01*
Y2159000D01*
X3156246D01*
X3535000Y2114000D02*
Y2104000D01*
X3555000D01*
Y2114000D01*
X3565000D01*
Y2134000D01*
X3555000D01*
Y2144000D01*
X3535000D01*
Y2134000D01*
X3525000D01*
Y2114000D01*
X3535000D01*
X3539000Y2118000D02*
Y2112000D01*
X3551000D01*
Y2118000D01*
X3557000D01*
Y2130000D01*
X3551000D01*
Y2136000D01*
X3539000D01*
Y2130000D01*
X3533000D01*
Y2118000D01*
X3539000D01*
X3405000Y2107000D02*
Y2097000D01*
X3425000D01*
Y2107000D01*
X3435000D01*
Y2127000D01*
X3425000D01*
Y2137000D01*
X3405000D01*
Y2127000D01*
X3395000D01*
Y2107000D01*
X3405000D01*
X3409000Y2111000D02*
Y2105000D01*
X3421000D01*
Y2111000D01*
X3427000D01*
Y2123000D01*
X3421000D01*
Y2129000D01*
X3409000D01*
Y2123000D01*
X3403000D01*
Y2111000D01*
X3409000D01*
X3420000Y2210000D02*
Y2200000D01*
X3440000D01*
Y2210000D01*
X3450000D01*
Y2230000D01*
X3440000D01*
Y2240000D01*
X3420000D01*
Y2230000D01*
X3410000D01*
Y2210000D01*
X3420000D01*
X3424000Y2214000D02*
Y2208000D01*
X3436000D01*
Y2214000D01*
X3442000D01*
Y2226000D01*
X3436000D01*
Y2232000D01*
X3424000D01*
Y2226000D01*
X3418000D01*
Y2214000D01*
X3424000D01*
X3559576Y1783000D02*
Y1773000D01*
X3579576D01*
Y1783000D01*
X3589576D01*
Y1803000D01*
X3579576D01*
Y1813000D01*
X3559576D01*
Y1803000D01*
X3549576D01*
Y1783000D01*
X3559576D01*
X3563576Y1787000D02*
Y1781000D01*
X3575576D01*
Y1787000D01*
X3581576D01*
Y1799000D01*
X3575576D01*
Y1805000D01*
X3563576D01*
Y1799000D01*
X3557576D01*
Y1787000D01*
X3563576D01*
X3800000Y1741000D02*
Y1731000D01*
X3820000D01*
Y1741000D01*
X3830000D01*
Y1761000D01*
X3820000D01*
Y1771000D01*
X3800000D01*
Y1761000D01*
X3790000D01*
Y1741000D01*
X3800000D01*
X3804000Y1745000D02*
Y1739000D01*
X3816000D01*
Y1745000D01*
X3822000D01*
Y1757000D01*
X3816000D01*
Y1763000D01*
X3804000D01*
Y1757000D01*
X3798000D01*
Y1745000D01*
X3804000D01*
X1028000Y263000D02*
Y253000D01*
X1048000D01*
Y263000D01*
X1058000D01*
Y283000D01*
X1048000D01*
Y293000D01*
X1028000D01*
Y283000D01*
X1018000D01*
Y263000D01*
X1028000D01*
X1032000Y267000D02*
Y261000D01*
X1044000D01*
Y267000D01*
X1050000D01*
Y279000D01*
X1044000D01*
Y285000D01*
X1032000D01*
Y279000D01*
X1026000D01*
Y267000D01*
X1032000D01*
X1757000Y751000D02*
Y741000D01*
X1777000D01*
Y751000D01*
X1787000D01*
Y771000D01*
X1777000D01*
Y781000D01*
X1757000D01*
Y771000D01*
X1747000D01*
Y751000D01*
X1757000D01*
X1761000Y755000D02*
Y749000D01*
X1773000D01*
Y755000D01*
X1779000D01*
Y767000D01*
X1773000D01*
Y773000D01*
X1761000D01*
Y767000D01*
X1755000D01*
Y755000D01*
X1761000D01*
X1608000Y203000D02*
Y193000D01*
X1628000D01*
Y203000D01*
X1638000D01*
Y223000D01*
X1628000D01*
Y233000D01*
X1608000D01*
Y223000D01*
X1598000D01*
Y203000D01*
X1608000D01*
X1612000Y207000D02*
Y201000D01*
X1624000D01*
Y207000D01*
X1630000D01*
Y219000D01*
X1624000D01*
Y225000D01*
X1612000D01*
Y219000D01*
X1606000D01*
Y207000D01*
X1612000D01*
X1939000Y2637000D02*
Y2627000D01*
X1959000D01*
Y2637000D01*
X1969000D01*
Y2657000D01*
X1959000D01*
Y2667000D01*
X1939000D01*
Y2657000D01*
X1929000D01*
Y2637000D01*
X1939000D01*
X1943000Y2641000D02*
Y2635000D01*
X1955000D01*
Y2641000D01*
X1961000D01*
Y2653000D01*
X1955000D01*
Y2659000D01*
X1943000D01*
Y2653000D01*
X1937000D01*
Y2641000D01*
X1943000D01*
X2559000Y821000D02*
Y811000D01*
X2579000D01*
Y821000D01*
X2589000D01*
Y841000D01*
X2579000D01*
Y851000D01*
X2559000D01*
Y841000D01*
X2549000D01*
Y821000D01*
X2559000D01*
X2563000Y825000D02*
Y819000D01*
X2575000D01*
Y825000D01*
X2581000D01*
Y837000D01*
X2575000D01*
Y843000D01*
X2563000D01*
Y837000D01*
X2557000D01*
Y825000D01*
X2563000D01*
X1947000Y722000D02*
Y712000D01*
X1967000D01*
Y722000D01*
X1977000D01*
Y742000D01*
X1967000D01*
Y752000D01*
X1947000D01*
Y742000D01*
X1937000D01*
Y722000D01*
X1947000D01*
X1951000Y726000D02*
Y720000D01*
X1963000D01*
Y726000D01*
X1969000D01*
Y738000D01*
X1963000D01*
Y744000D01*
X1951000D01*
Y738000D01*
X1945000D01*
Y726000D01*
X1951000D01*
X4480000Y941000D02*
Y931000D01*
X4500000D01*
Y941000D01*
X4510000D01*
Y961000D01*
X4500000D01*
Y971000D01*
X4480000D01*
Y961000D01*
X4470000D01*
Y941000D01*
X4480000D01*
X4484000Y945000D02*
Y939000D01*
X4496000D01*
Y945000D01*
X4502000D01*
Y957000D01*
X4496000D01*
Y963000D01*
X4484000D01*
Y957000D01*
X4478000D01*
Y945000D01*
X4484000D01*
X1848000Y2107000D02*
Y2097000D01*
X1868000D01*
Y2107000D01*
X1878000D01*
Y2127000D01*
X1868000D01*
Y2137000D01*
X1848000D01*
Y2127000D01*
X1838000D01*
Y2107000D01*
X1848000D01*
X1852000Y2111000D02*
Y2105000D01*
X1864000D01*
Y2111000D01*
X1870000D01*
Y2123000D01*
X1864000D01*
Y2129000D01*
X1852000D01*
Y2123000D01*
X1846000D01*
Y2111000D01*
X1852000D01*
X2984000Y2582000D02*
Y2572000D01*
X3004000D01*
Y2582000D01*
X3014000D01*
Y2602000D01*
X3004000D01*
Y2612000D01*
X2984000D01*
Y2602000D01*
X2974000D01*
Y2582000D01*
X2984000D01*
X2988000Y2586000D02*
Y2580000D01*
X3000000D01*
Y2586000D01*
X3006000D01*
Y2598000D01*
X3000000D01*
Y2604000D01*
X2988000D01*
Y2598000D01*
X2982000D01*
Y2586000D01*
X2988000D01*
X3199000Y1861000D02*
Y1851000D01*
X3219000D01*
Y1861000D01*
X3229000D01*
Y1881000D01*
X3219000D01*
Y1891000D01*
X3199000D01*
Y1881000D01*
X3189000D01*
Y1861000D01*
X3199000D01*
X3203000Y1865000D02*
Y1859000D01*
X3215000D01*
Y1865000D01*
X3221000D01*
Y1877000D01*
X3215000D01*
Y1883000D01*
X3203000D01*
Y1877000D01*
X3197000D01*
Y1865000D01*
X3203000D01*
X3483000Y2466000D02*
Y2456000D01*
X3503000D01*
Y2466000D01*
X3513000D01*
Y2486000D01*
X3503000D01*
Y2496000D01*
X3483000D01*
Y2486000D01*
X3473000D01*
Y2466000D01*
X3483000D01*
X3487000Y2470000D02*
Y2464000D01*
X3499000D01*
Y2470000D01*
X3505000D01*
Y2482000D01*
X3499000D01*
Y2488000D01*
X3487000D01*
Y2482000D01*
X3481000D01*
Y2470000D01*
X3487000D01*
X1863000Y2557000D02*
Y2547000D01*
X1883000D01*
Y2557000D01*
X1893000D01*
Y2577000D01*
X1883000D01*
Y2587000D01*
X1863000D01*
Y2577000D01*
X1853000D01*
Y2557000D01*
X1863000D01*
X1867000Y2561000D02*
Y2555000D01*
X1879000D01*
Y2561000D01*
X1885000D01*
Y2573000D01*
X1879000D01*
Y2579000D01*
X1867000D01*
Y2573000D01*
X1861000D01*
Y2561000D01*
X1867000D01*
X3795000Y884000D02*
Y874000D01*
X3815000D01*
Y884000D01*
X3825000D01*
Y904000D01*
X3815000D01*
Y914000D01*
X3795000D01*
Y904000D01*
X3785000D01*
Y884000D01*
X3795000D01*
X3799000Y888000D02*
Y882000D01*
X3811000D01*
Y888000D01*
X3817000D01*
Y900000D01*
X3811000D01*
Y906000D01*
X3799000D01*
Y900000D01*
X3793000D01*
Y888000D01*
X3799000D01*
X5426798Y838000D02*
Y828000D01*
X5446798D01*
Y838000D01*
X5456798D01*
Y858000D01*
X5446798D01*
Y868000D01*
X5426798D01*
Y858000D01*
X5416798D01*
Y838000D01*
X5426798D01*
X5430798Y842000D02*
Y836000D01*
X5442798D01*
Y842000D01*
X5448798D01*
Y854000D01*
X5442798D01*
Y860000D01*
X5430798D01*
Y854000D01*
X5424798D01*
Y842000D01*
X5430798D01*
X5617000Y517000D02*
Y507000D01*
X5637000D01*
Y517000D01*
X5647000D01*
Y537000D01*
X5637000D01*
Y547000D01*
X5617000D01*
Y537000D01*
X5607000D01*
Y517000D01*
X5617000D01*
X5621000Y521000D02*
Y515000D01*
X5633000D01*
Y521000D01*
X5639000D01*
Y533000D01*
X5633000D01*
Y539000D01*
X5621000D01*
Y533000D01*
X5615000D01*
Y521000D01*
X5621000D01*
X550000Y1985000D02*
Y1975000D01*
X570000D01*
Y1985000D01*
X580000D01*
Y2005000D01*
X570000D01*
Y2015000D01*
X550000D01*
Y2005000D01*
X540000D01*
Y1985000D01*
X550000D01*
X554000Y1989000D02*
Y1983000D01*
X566000D01*
Y1989000D01*
X572000D01*
Y2001000D01*
X566000D01*
Y2007000D01*
X554000D01*
Y2001000D01*
X548000D01*
Y1989000D01*
X554000D01*
X3745000Y1171000D02*
Y1161000D01*
X3765000D01*
Y1171000D01*
X3775000D01*
Y1191000D01*
X3765000D01*
Y1201000D01*
X3745000D01*
Y1191000D01*
X3735000D01*
Y1171000D01*
X3745000D01*
X3749000Y1175000D02*
Y1169000D01*
X3761000D01*
Y1175000D01*
X3767000D01*
Y1187000D01*
X3761000D01*
Y1193000D01*
X3749000D01*
Y1187000D01*
X3743000D01*
Y1175000D01*
X3749000D01*
X3169000Y2575000D02*
Y2565000D01*
X3189000D01*
Y2575000D01*
X3199000D01*
Y2595000D01*
X3189000D01*
Y2605000D01*
X3169000D01*
Y2595000D01*
X3159000D01*
Y2575000D01*
X3169000D01*
X3173000Y2579000D02*
Y2573000D01*
X3185000D01*
Y2579000D01*
X3191000D01*
Y2591000D01*
X3185000D01*
Y2597000D01*
X3173000D01*
Y2591000D01*
X3167000D01*
Y2579000D01*
X3173000D01*
X4081000Y2577000D02*
Y2567000D01*
X4101000D01*
Y2577000D01*
X4111000D01*
Y2597000D01*
X4101000D01*
Y2607000D01*
X4081000D01*
Y2597000D01*
X4071000D01*
Y2577000D01*
X4081000D01*
X4085000Y2581000D02*
Y2575000D01*
X4097000D01*
Y2581000D01*
X4103000D01*
Y2593000D01*
X4097000D01*
Y2599000D01*
X4085000D01*
Y2593000D01*
X4079000D01*
Y2581000D01*
X4085000D01*
X4352000Y1926000D02*
Y1916000D01*
X4372000D01*
Y1926000D01*
X4382000D01*
Y1946000D01*
X4372000D01*
Y1956000D01*
X4352000D01*
Y1946000D01*
X4342000D01*
Y1926000D01*
X4352000D01*
X4356000Y1930000D02*
Y1924000D01*
X4368000D01*
Y1930000D01*
X4374000D01*
Y1942000D01*
X4368000D01*
Y1948000D01*
X4356000D01*
Y1942000D01*
X4350000D01*
Y1930000D01*
X4356000D01*
X5134000Y1856000D02*
Y1846000D01*
X5154000D01*
Y1856000D01*
X5164000D01*
Y1876000D01*
X5154000D01*
Y1886000D01*
X5134000D01*
Y1876000D01*
X5124000D01*
Y1856000D01*
X5134000D01*
X5138000Y1860000D02*
Y1854000D01*
X5150000D01*
Y1860000D01*
X5156000D01*
Y1872000D01*
X5150000D01*
Y1878000D01*
X5138000D01*
Y1872000D01*
X5132000D01*
Y1860000D01*
X5138000D01*
X4590000Y1370000D02*
Y1360000D01*
X4610000D01*
Y1370000D01*
X4620000D01*
Y1390000D01*
X4610000D01*
Y1400000D01*
X4590000D01*
Y1390000D01*
X4580000D01*
Y1370000D01*
X4590000D01*
X4594000Y1374000D02*
Y1368000D01*
X4606000D01*
Y1374000D01*
X4612000D01*
Y1386000D01*
X4606000D01*
Y1392000D01*
X4594000D01*
Y1386000D01*
X4588000D01*
Y1374000D01*
X4594000D01*
X4575000Y2262000D02*
Y2252000D01*
X4595000D01*
Y2262000D01*
X4605000D01*
Y2282000D01*
X4595000D01*
Y2292000D01*
X4575000D01*
Y2282000D01*
X4565000D01*
Y2262000D01*
X4575000D01*
X4579000Y2266000D02*
Y2260000D01*
X4591000D01*
Y2266000D01*
X4597000D01*
Y2278000D01*
X4591000D01*
Y2284000D01*
X4579000D01*
Y2278000D01*
X4573000D01*
Y2266000D01*
X4579000D01*
X3246000Y2179000D02*
Y2169000D01*
X3266000D01*
Y2179000D01*
X3276000D01*
Y2199000D01*
X3266000D01*
Y2209000D01*
X3246000D01*
Y2199000D01*
X3236000D01*
Y2179000D01*
X3246000D01*
X3250000Y2183000D02*
Y2177000D01*
X3262000D01*
Y2183000D01*
X3268000D01*
Y2195000D01*
X3262000D01*
Y2201000D01*
X3250000D01*
Y2195000D01*
X3244000D01*
Y2183000D01*
X3250000D01*
X5803000Y1511000D02*
Y1501000D01*
X5823000D01*
Y1511000D01*
X5833000D01*
Y1531000D01*
X5823000D01*
Y1541000D01*
X5803000D01*
Y1531000D01*
X5793000D01*
Y1511000D01*
X5803000D01*
X5807000Y1515000D02*
Y1509000D01*
X5819000D01*
Y1515000D01*
X5825000D01*
Y1527000D01*
X5819000D01*
Y1533000D01*
X5807000D01*
Y1527000D01*
X5801000D01*
Y1515000D01*
X5807000D01*
X4554000Y2709000D02*
Y2699000D01*
X4574000D01*
Y2709000D01*
X4584000D01*
Y2729000D01*
X4574000D01*
Y2739000D01*
X4554000D01*
Y2729000D01*
X4544000D01*
Y2709000D01*
X4554000D01*
X4558000Y2713000D02*
Y2707000D01*
X4570000D01*
Y2713000D01*
X4576000D01*
Y2725000D01*
X4570000D01*
Y2731000D01*
X4558000D01*
Y2725000D01*
X4552000D01*
Y2713000D01*
X4558000D01*
X2185120Y2725000D02*
Y2715000D01*
X2205120D01*
Y2725000D01*
X2215120D01*
Y2745000D01*
X2205120D01*
Y2755000D01*
X2185120D01*
Y2745000D01*
X2175120D01*
Y2725000D01*
X2185120D01*
X2189120Y2729000D02*
Y2723000D01*
X2201120D01*
Y2729000D01*
X2207120D01*
Y2741000D01*
X2201120D01*
Y2747000D01*
X2189120D01*
Y2741000D01*
X2183120D01*
Y2729000D01*
X2189120D01*
X1178000Y2742000D02*
Y2732000D01*
X1198000D01*
Y2742000D01*
X1208000D01*
Y2762000D01*
X1198000D01*
Y2772000D01*
X1178000D01*
Y2762000D01*
X1168000D01*
Y2742000D01*
X1178000D01*
X1182000Y2746000D02*
Y2740000D01*
X1194000D01*
Y2746000D01*
X1200000D01*
Y2758000D01*
X1194000D01*
Y2764000D01*
X1182000D01*
Y2758000D01*
X1176000D01*
Y2746000D01*
X1182000D01*
X2782000Y1674000D02*
Y1664000D01*
X2802000D01*
Y1674000D01*
X2812000D01*
Y1694000D01*
X2802000D01*
Y1704000D01*
X2782000D01*
Y1694000D01*
X2772000D01*
Y1674000D01*
X2782000D01*
X2786000Y1678000D02*
Y1672000D01*
X2798000D01*
Y1678000D01*
X2804000D01*
Y1690000D01*
X2798000D01*
Y1696000D01*
X2786000D01*
Y1690000D01*
X2780000D01*
Y1678000D01*
X2786000D01*
X2541000Y1102000D02*
Y1092000D01*
X2561000D01*
Y1102000D01*
X2571000D01*
Y1122000D01*
X2561000D01*
Y1132000D01*
X2541000D01*
Y1122000D01*
X2531000D01*
Y1102000D01*
X2541000D01*
X2545000Y1106000D02*
Y1100000D01*
X2557000D01*
Y1106000D01*
X2563000D01*
Y1118000D01*
X2557000D01*
Y1124000D01*
X2545000D01*
Y1118000D01*
X2539000D01*
Y1106000D01*
X2545000D01*
X1203000Y1845000D02*
Y1835000D01*
X1223000D01*
Y1845000D01*
X1233000D01*
Y1865000D01*
X1223000D01*
Y1875000D01*
X1203000D01*
Y1865000D01*
X1193000D01*
Y1845000D01*
X1203000D01*
X1207000Y1849000D02*
Y1843000D01*
X1219000D01*
Y1849000D01*
X1225000D01*
Y1861000D01*
X1219000D01*
Y1867000D01*
X1207000D01*
Y1861000D01*
X1201000D01*
Y1849000D01*
X1207000D01*
X3627000Y1814000D02*
Y1804000D01*
X3647000D01*
Y1814000D01*
X3657000D01*
Y1834000D01*
X3647000D01*
Y1844000D01*
X3627000D01*
Y1834000D01*
X3617000D01*
Y1814000D01*
X3627000D01*
X3631000Y1818000D02*
Y1812000D01*
X3643000D01*
Y1818000D01*
X3649000D01*
Y1830000D01*
X3643000D01*
Y1836000D01*
X3631000D01*
Y1830000D01*
X3625000D01*
Y1818000D01*
X3631000D01*
X5034000Y349000D02*
Y339000D01*
X5054000D01*
Y349000D01*
X5064000D01*
Y369000D01*
X5054000D01*
Y379000D01*
X5034000D01*
Y369000D01*
X5024000D01*
Y349000D01*
X5034000D01*
X5038000Y353000D02*
Y347000D01*
X5050000D01*
Y353000D01*
X5056000D01*
Y365000D01*
X5050000D01*
Y371000D01*
X5038000D01*
Y365000D01*
X5032000D01*
Y353000D01*
X5038000D01*
X3021000Y2102000D02*
Y2092000D01*
X3041000D01*
Y2102000D01*
X3051000D01*
Y2122000D01*
X3041000D01*
Y2132000D01*
X3021000D01*
Y2122000D01*
X3011000D01*
Y2102000D01*
X3021000D01*
X3025000Y2106000D02*
Y2100000D01*
X3037000D01*
Y2106000D01*
X3043000D01*
Y2118000D01*
X3037000D01*
Y2124000D01*
X3025000D01*
Y2118000D01*
X3019000D01*
Y2106000D01*
X3025000D01*
X2603000Y2062000D02*
Y2052000D01*
X2623000D01*
Y2062000D01*
X2633000D01*
Y2082000D01*
X2623000D01*
Y2092000D01*
X2603000D01*
Y2082000D01*
X2593000D01*
Y2062000D01*
X2603000D01*
X2607000Y2066000D02*
Y2060000D01*
X2619000D01*
Y2066000D01*
X2625000D01*
Y2078000D01*
X2619000D01*
Y2084000D01*
X2607000D01*
Y2078000D01*
X2601000D01*
Y2066000D01*
X2607000D01*
X2517000Y2047000D02*
Y2037000D01*
X2537000D01*
Y2047000D01*
X2547000D01*
Y2067000D01*
X2537000D01*
Y2077000D01*
X2517000D01*
Y2067000D01*
X2507000D01*
Y2047000D01*
X2517000D01*
X2521000Y2051000D02*
Y2045000D01*
X2533000D01*
Y2051000D01*
X2539000D01*
Y2063000D01*
X2533000D01*
Y2069000D01*
X2521000D01*
Y2063000D01*
X2515000D01*
Y2051000D01*
X2521000D01*
X2121000Y2047000D02*
Y2037000D01*
X2141000D01*
Y2047000D01*
X2151000D01*
Y2067000D01*
X2141000D01*
Y2077000D01*
X2121000D01*
Y2067000D01*
X2111000D01*
Y2047000D01*
X2121000D01*
X2125000Y2051000D02*
Y2045000D01*
X2137000D01*
Y2051000D01*
X2143000D01*
Y2063000D01*
X2137000D01*
Y2069000D01*
X2125000D01*
Y2063000D01*
X2119000D01*
Y2051000D01*
X2125000D01*
X5348000Y1572000D02*
Y1562000D01*
X5368000D01*
Y1572000D01*
X5378000D01*
Y1592000D01*
X5368000D01*
Y1602000D01*
X5348000D01*
Y1592000D01*
X5338000D01*
Y1572000D01*
X5348000D01*
X5352000Y1576000D02*
Y1570000D01*
X5364000D01*
Y1576000D01*
X5370000D01*
Y1588000D01*
X5364000D01*
Y1594000D01*
X5352000D01*
Y1588000D01*
X5346000D01*
Y1576000D01*
X5352000D01*
X3824000Y1587000D02*
Y1577000D01*
X3844000D01*
Y1587000D01*
X3854000D01*
Y1607000D01*
X3844000D01*
Y1617000D01*
X3824000D01*
Y1607000D01*
X3814000D01*
Y1587000D01*
X3824000D01*
X3828000Y1591000D02*
Y1585000D01*
X3840000D01*
Y1591000D01*
X3846000D01*
Y1603000D01*
X3840000D01*
Y1609000D01*
X3828000D01*
Y1603000D01*
X3822000D01*
Y1591000D01*
X3828000D01*
X3757000Y1416000D02*
Y1406000D01*
X3777000D01*
Y1416000D01*
X3787000D01*
Y1436000D01*
X3777000D01*
Y1446000D01*
X3757000D01*
Y1436000D01*
X3747000D01*
Y1416000D01*
X3757000D01*
X3761000Y1420000D02*
Y1414000D01*
X3773000D01*
Y1420000D01*
X3779000D01*
Y1432000D01*
X3773000D01*
Y1438000D01*
X3761000D01*
Y1432000D01*
X3755000D01*
Y1420000D01*
X3761000D01*
X2875000Y2028000D02*
Y2018000D01*
X2895000D01*
Y2028000D01*
X2905000D01*
Y2048000D01*
X2895000D01*
Y2058000D01*
X2875000D01*
Y2048000D01*
X2865000D01*
Y2028000D01*
X2875000D01*
X2879000Y2032000D02*
Y2026000D01*
X2891000D01*
Y2032000D01*
X2897000D01*
Y2044000D01*
X2891000D01*
Y2050000D01*
X2879000D01*
Y2044000D01*
X2873000D01*
Y2032000D01*
X2879000D01*
X2533000Y1034000D02*
Y1024000D01*
X2553000D01*
Y1034000D01*
X2563000D01*
Y1054000D01*
X2553000D01*
Y1064000D01*
X2533000D01*
Y1054000D01*
X2523000D01*
Y1034000D01*
X2533000D01*
X2537000Y1038000D02*
Y1032000D01*
X2549000D01*
Y1038000D01*
X2555000D01*
Y1050000D01*
X2549000D01*
Y1056000D01*
X2537000D01*
Y1050000D01*
X2531000D01*
Y1038000D01*
X2537000D01*
X2037334Y2557666D02*
Y2547666D01*
X2057334D01*
Y2557666D01*
X2067334D01*
Y2577666D01*
X2057334D01*
Y2587666D01*
X2037334D01*
Y2577666D01*
X2027334D01*
Y2557666D01*
X2037334D01*
X2041334Y2561666D02*
Y2555666D01*
X2053334D01*
Y2561666D01*
X2059334D01*
Y2573666D01*
X2053334D01*
Y2579666D01*
X2041334D01*
Y2573666D01*
X2035334D01*
Y2561666D01*
X2041334D01*
X4779022Y2517000D02*
Y2507000D01*
X4799022D01*
Y2517000D01*
X4809022D01*
Y2537000D01*
X4799022D01*
Y2547000D01*
X4779022D01*
Y2537000D01*
X4769022D01*
Y2517000D01*
X4779022D01*
X4783022Y2521000D02*
Y2515000D01*
X4795022D01*
Y2521000D01*
X4801022D01*
Y2533000D01*
X4795022D01*
Y2539000D01*
X4783022D01*
Y2533000D01*
X4777022D01*
Y2521000D01*
X4783022D01*
X5501000Y2762000D02*
Y2752000D01*
X5521000D01*
Y2762000D01*
X5531000D01*
Y2782000D01*
X5521000D01*
Y2792000D01*
X5501000D01*
Y2782000D01*
X5491000D01*
Y2762000D01*
X5501000D01*
X5505000Y2766000D02*
Y2760000D01*
X5517000D01*
Y2766000D01*
X5523000D01*
Y2778000D01*
X5517000D01*
Y2784000D01*
X5505000D01*
Y2778000D01*
X5499000D01*
Y2766000D01*
X5505000D01*
X3727000Y1945000D02*
Y1935000D01*
X3747000D01*
Y1945000D01*
X3757000D01*
Y1965000D01*
X3747000D01*
Y1975000D01*
X3727000D01*
Y1965000D01*
X3717000D01*
Y1945000D01*
X3727000D01*
X3731000Y1949000D02*
Y1943000D01*
X3743000D01*
Y1949000D01*
X3749000D01*
Y1961000D01*
X3743000D01*
Y1967000D01*
X3731000D01*
Y1961000D01*
X3725000D01*
Y1949000D01*
X3731000D01*
D99*
X5872110Y1952490D02*
G03*
X5872110Y1952490I-20000J0D01*
G01*
Y2037490D02*
G03*
X5872110Y2037490I-20000J0D01*
G01*
X6019000Y1952490D02*
G03*
X6019000Y1952490I-20000J0D01*
G01*
Y2037490D02*
G03*
X6019000Y2037490I-20000J0D01*
G01*
X5578332Y2280244D02*
G03*
X5578332Y2280244I-20000J0D01*
G01*
Y2365244D02*
G03*
X5578332Y2365244I-20000J0D01*
G01*
X5431444Y2280244D02*
G03*
X5431444Y2280244I-20000J0D01*
G01*
Y2365244D02*
G03*
X5431444Y2365244I-20000J0D01*
G01*
X5725222Y2280244D02*
G03*
X5725222Y2280244I-20000J0D01*
G01*
Y2365244D02*
G03*
X5725222Y2365244I-20000J0D01*
G01*
X5284556Y1952490D02*
G03*
X5284556Y1952490I-20000J0D01*
G01*
Y2037490D02*
G03*
X5284556Y2037490I-20000J0D01*
G01*
X6019000Y2280244D02*
G03*
X6019000Y2280244I-20000J0D01*
G01*
Y2365244D02*
G03*
X6019000Y2365244I-20000J0D01*
G01*
X5872110Y2280244D02*
G03*
X5872110Y2280244I-20000J0D01*
G01*
Y2365244D02*
G03*
X5872110Y2365244I-20000J0D01*
G01*
X5578332Y1952490D02*
G03*
X5578332Y1952490I-20000J0D01*
G01*
Y2037490D02*
G03*
X5578332Y2037490I-20000J0D01*
G01*
X5431444Y1952490D02*
G03*
X5431444Y1952490I-20000J0D01*
G01*
Y2037490D02*
G03*
X5431444Y2037490I-20000J0D01*
G01*
X5725222Y1952490D02*
G03*
X5725222Y1952490I-20000J0D01*
G01*
Y2037490D02*
G03*
X5725222Y2037490I-20000J0D01*
G01*
X5284556Y2280244D02*
G03*
X5284556Y2280244I-20000J0D01*
G01*
Y2365244D02*
G03*
X5284556Y2365244I-20000J0D01*
G01*
X5578332Y1296976D02*
G03*
X5578332Y1296976I-20000J0D01*
G01*
Y1381976D02*
G03*
X5578332Y1381976I-20000J0D01*
G01*
X5725222Y1296976D02*
G03*
X5725222Y1296976I-20000J0D01*
G01*
Y1381976D02*
G03*
X5725222Y1381976I-20000J0D01*
G01*
X5872110Y1296976D02*
G03*
X5872110Y1296976I-20000J0D01*
G01*
Y1381976D02*
G03*
X5872110Y1381976I-20000J0D01*
G01*
X6019000Y1296976D02*
G03*
X6019000Y1296976I-20000J0D01*
G01*
Y1381976D02*
G03*
X6019000Y1381976I-20000J0D01*
G01*
X5431444Y1296976D02*
G03*
X5431444Y1296976I-20000J0D01*
G01*
Y1381976D02*
G03*
X5431444Y1381976I-20000J0D01*
G01*
X5872110Y1624732D02*
G03*
X5872110Y1624732I-20000J0D01*
G01*
Y1709732D02*
G03*
X5872110Y1709732I-20000J0D01*
G01*
X6019000Y1624732D02*
G03*
X6019000Y1624732I-20000J0D01*
G01*
Y1709732D02*
G03*
X6019000Y1709732I-20000J0D01*
G01*
X5284556Y1624732D02*
G03*
X5284556Y1624732I-20000J0D01*
G01*
Y1709732D02*
G03*
X5284556Y1709732I-20000J0D01*
G01*
X5431444Y1624732D02*
G03*
X5431444Y1624732I-20000J0D01*
G01*
Y1709732D02*
G03*
X5431444Y1709732I-20000J0D01*
G01*
X5725222Y1624732D02*
G03*
X5725222Y1624732I-20000J0D01*
G01*
Y1709732D02*
G03*
X5725222Y1709732I-20000J0D01*
G01*
X5578332Y1624732D02*
G03*
X5578332Y1624732I-20000J0D01*
G01*
Y1709732D02*
G03*
X5578332Y1709732I-20000J0D01*
G01*
X5431444Y313712D02*
G03*
X5431444Y313712I-20000J0D01*
G01*
Y398712D02*
G03*
X5431444Y398712I-20000J0D01*
G01*
X4699000Y2693000D02*
G03*
X4699000Y2693000I-20000J0D01*
G01*
Y2608000D02*
G03*
X4699000Y2608000I-20000J0D01*
G01*
X5433444Y2693000D02*
G03*
X5433444Y2693000I-20000J0D01*
G01*
Y2608000D02*
G03*
X5433444Y2608000I-20000J0D01*
G01*
X5284556Y1296976D02*
G03*
X5284556Y1296976I-20000J0D01*
G01*
Y1381976D02*
G03*
X5284556Y1381976I-20000J0D01*
G01*
X5286556Y2693000D02*
G03*
X5286556Y2693000I-20000J0D01*
G01*
Y2608000D02*
G03*
X5286556Y2608000I-20000J0D01*
G01*
X4992778Y2693000D02*
G03*
X4992778Y2693000I-20000J0D01*
G01*
Y2608000D02*
G03*
X4992778Y2608000I-20000J0D01*
G01*
X5139666Y2693000D02*
G03*
X5139666Y2693000I-20000J0D01*
G01*
Y2608000D02*
G03*
X5139666Y2608000I-20000J0D01*
G01*
X5284556Y641466D02*
G03*
X5284556Y641466I-20000J0D01*
G01*
Y726466D02*
G03*
X5284556Y726466I-20000J0D01*
G01*
X4843888Y2280244D02*
G03*
X4843888Y2280244I-20000J0D01*
G01*
Y2365244D02*
G03*
X4843888Y2365244I-20000J0D01*
G01*
X4990778Y2280244D02*
G03*
X4990778Y2280244I-20000J0D01*
G01*
Y2365244D02*
G03*
X4990778Y2365244I-20000J0D01*
G01*
X5137666Y2280244D02*
G03*
X5137666Y2280244I-20000J0D01*
G01*
Y2365244D02*
G03*
X5137666Y2365244I-20000J0D01*
G01*
X4845888Y2693000D02*
G03*
X4845888Y2693000I-20000J0D01*
G01*
Y2608000D02*
G03*
X4845888Y2608000I-20000J0D01*
G01*
X5874110Y2693000D02*
G03*
X5874110Y2693000I-20000J0D01*
G01*
Y2608000D02*
G03*
X5874110Y2608000I-20000J0D01*
G01*
X5727222Y2693000D02*
G03*
X5727222Y2693000I-20000J0D01*
G01*
Y2608000D02*
G03*
X5727222Y2608000I-20000J0D01*
G01*
X5580332Y2693000D02*
G03*
X5580332Y2693000I-20000J0D01*
G01*
Y2608000D02*
G03*
X5580332Y2608000I-20000J0D01*
G01*
X6021000Y2693000D02*
G03*
X6021000Y2693000I-20000J0D01*
G01*
Y2608000D02*
G03*
X6021000Y2608000I-20000J0D01*
G01*
X5284556Y313712D02*
G03*
X5284556Y313712I-20000J0D01*
G01*
Y398712D02*
G03*
X5284556Y398712I-20000J0D01*
G01*
X5872110Y313712D02*
G03*
X5872110Y313712I-20000J0D01*
G01*
Y398712D02*
G03*
X5872110Y398712I-20000J0D01*
G01*
X5725222Y313712D02*
G03*
X5725222Y313712I-20000J0D01*
G01*
Y398712D02*
G03*
X5725222Y398712I-20000J0D01*
G01*
X5578332Y313712D02*
G03*
X5578332Y313712I-20000J0D01*
G01*
Y398712D02*
G03*
X5578332Y398712I-20000J0D01*
G01*
X5284556Y969222D02*
G03*
X5284556Y969222I-20000J0D01*
G01*
Y1054222D02*
G03*
X5284556Y1054222I-20000J0D01*
G01*
X5578332Y969222D02*
G03*
X5578332Y969222I-20000J0D01*
G01*
Y1054222D02*
G03*
X5578332Y1054222I-20000J0D01*
G01*
X5725222Y969222D02*
G03*
X5725222Y969222I-20000J0D01*
G01*
Y1054222D02*
G03*
X5725222Y1054222I-20000J0D01*
G01*
X5431444Y969222D02*
G03*
X5431444Y969222I-20000J0D01*
G01*
Y1054222D02*
G03*
X5431444Y1054222I-20000J0D01*
G01*
X6019000Y398712D02*
G03*
X6019000Y398712I-20000J0D01*
G01*
Y313712D02*
G03*
X6019000Y313712I-20000J0D01*
G01*
X5872110Y641466D02*
G03*
X5872110Y641466I-20000J0D01*
G01*
Y726466D02*
G03*
X5872110Y726466I-20000J0D01*
G01*
X6019000Y641466D02*
G03*
X6019000Y641466I-20000J0D01*
G01*
Y726466D02*
G03*
X6019000Y726466I-20000J0D01*
G01*
X5431444Y641466D02*
G03*
X5431444Y641466I-20000J0D01*
G01*
Y726466D02*
G03*
X5431444Y726466I-20000J0D01*
G01*
X5725222Y641466D02*
G03*
X5725222Y641466I-20000J0D01*
G01*
Y726466D02*
G03*
X5725222Y726466I-20000J0D01*
G01*
X5578332Y641466D02*
G03*
X5578332Y641466I-20000J0D01*
G01*
Y726466D02*
G03*
X5578332Y726466I-20000J0D01*
G01*
X5872110Y969222D02*
G03*
X5872110Y969222I-20000J0D01*
G01*
Y1054222D02*
G03*
X5872110Y1054222I-20000J0D01*
G01*
X4697000Y2280244D02*
G03*
X4697000Y2280244I-20000J0D01*
G01*
Y2365244D02*
G03*
X4697000Y2365244I-20000J0D01*
G01*
X6019000Y969222D02*
G03*
X6019000Y969222I-20000J0D01*
G01*
Y1054222D02*
G03*
X6019000Y1054222I-20000J0D01*
G01*
X4697000Y313712D02*
G03*
X4697000Y313712I-20000J0D01*
G01*
Y398712D02*
G03*
X4697000Y398712I-20000J0D01*
G01*
X4843888Y641466D02*
G03*
X4843888Y641466I-20000J0D01*
G01*
Y726466D02*
G03*
X4843888Y726466I-20000J0D01*
G01*
X4697000Y641466D02*
G03*
X4697000Y641466I-20000J0D01*
G01*
Y726466D02*
G03*
X4697000Y726466I-20000J0D01*
G01*
X4843888Y313712D02*
G03*
X4843888Y313712I-20000J0D01*
G01*
Y398712D02*
G03*
X4843888Y398712I-20000J0D01*
G01*
X4697000Y969222D02*
G03*
X4697000Y969222I-20000J0D01*
G01*
Y1054222D02*
G03*
X4697000Y1054222I-20000J0D01*
G01*
X5137666Y969222D02*
G03*
X5137666Y969222I-20000J0D01*
G01*
Y1054222D02*
G03*
X5137666Y1054222I-20000J0D01*
G01*
X4697000Y1296976D02*
G03*
X4697000Y1296976I-20000J0D01*
G01*
Y1381976D02*
G03*
X4697000Y1381976I-20000J0D01*
G01*
X4990778Y1296976D02*
G03*
X4990778Y1296976I-20000J0D01*
G01*
Y1381976D02*
G03*
X4990778Y1381976I-20000J0D01*
G01*
X5137666Y1296976D02*
G03*
X5137666Y1296976I-20000J0D01*
G01*
Y1381976D02*
G03*
X5137666Y1381976I-20000J0D01*
G01*
X4990778Y969222D02*
G03*
X4990778Y969222I-20000J0D01*
G01*
Y1054222D02*
G03*
X4990778Y1054222I-20000J0D01*
G01*
X4843888Y1296976D02*
G03*
X4843888Y1296976I-20000J0D01*
G01*
Y1381976D02*
G03*
X4843888Y1381976I-20000J0D01*
G01*
Y969222D02*
G03*
X4843888Y969222I-20000J0D01*
G01*
Y1054222D02*
G03*
X4843888Y1054222I-20000J0D01*
G01*
X4697000Y1624732D02*
G03*
X4697000Y1624732I-20000J0D01*
G01*
Y1709732D02*
G03*
X4697000Y1709732I-20000J0D01*
G01*
X4843888Y1952490D02*
G03*
X4843888Y1952490I-20000J0D01*
G01*
Y2037490D02*
G03*
X4843888Y2037490I-20000J0D01*
G01*
Y1624732D02*
G03*
X4843888Y1624732I-20000J0D01*
G01*
Y1709732D02*
G03*
X4843888Y1709732I-20000J0D01*
G01*
X4697000Y1952490D02*
G03*
X4697000Y1952490I-20000J0D01*
G01*
Y2037490D02*
G03*
X4697000Y2037490I-20000J0D01*
G01*
X4990778Y313712D02*
G03*
X4990778Y313712I-20000J0D01*
G01*
Y398712D02*
G03*
X4990778Y398712I-20000J0D01*
G01*
Y641466D02*
G03*
X4990778Y641466I-20000J0D01*
G01*
Y726466D02*
G03*
X4990778Y726466I-20000J0D01*
G01*
X5137666Y641466D02*
G03*
X5137666Y641466I-20000J0D01*
G01*
Y726466D02*
G03*
X5137666Y726466I-20000J0D01*
G01*
Y313712D02*
G03*
X5137666Y313712I-20000J0D01*
G01*
Y398712D02*
G03*
X5137666Y398712I-20000J0D01*
G01*
Y1624732D02*
G03*
X5137666Y1624732I-20000J0D01*
G01*
Y1709732D02*
G03*
X5137666Y1709732I-20000J0D01*
G01*
X4990778Y1952490D02*
G03*
X4990778Y1952490I-20000J0D01*
G01*
Y2037490D02*
G03*
X4990778Y2037490I-20000J0D01*
G01*
Y1624732D02*
G03*
X4990778Y1624732I-20000J0D01*
G01*
Y1709732D02*
G03*
X4990778Y1709732I-20000J0D01*
G01*
X5137666Y1952490D02*
G03*
X5137666Y1952490I-20000J0D01*
G01*
Y2037490D02*
G03*
X5137666Y2037490I-20000J0D01*
G01*
X546000Y424000D02*
G03*
X546000Y424000I-20000J0D01*
G01*
X646000D02*
G03*
X646000Y424000I-20000J0D01*
G01*
X546000Y724000D02*
G03*
X546000Y724000I-20000J0D01*
G01*
X646000D02*
G03*
X646000Y724000I-20000J0D01*
G01*
X846000Y424000D02*
G03*
X846000Y424000I-20000J0D01*
G01*
X746000D02*
G03*
X746000Y424000I-20000J0D01*
G01*
Y724000D02*
G03*
X746000Y724000I-20000J0D01*
G01*
X846000D02*
G03*
X846000Y724000I-20000J0D01*
G01*
X272048Y1104000D02*
G03*
X272048Y1104000I-20000J0D01*
G01*
X508268D02*
G03*
X508268Y1104000I-20000J0D01*
G01*
D101*
X264048D02*
G03*
X264048Y1104000I-12000J0D01*
G01*
X500268D02*
G03*
X500268Y1104000I-12000J0D01*
G01*
%TF.MD5,8be703569f6ab640f5f40ae25868f310*%
M02*
