%TF.GenerationSoftware,Altium Limited,Altium Designer,23.3.1 (30)*%
G04 Layer_Color=0*
%FSLAX26Y26*%
%MOIN*%
%TF.SameCoordinates,C47A0882-6911-4C93-B89A-A613C280F5D7*%
%TF.FilePolarity,Positive*%
%TF.FileFunction,Plated,1,2,PTH,Drill*%
%TF.Part,Single*%
G01*
G75*
%TA.AperFunction,ComponentDrill*%
%ADD81C,0.032000*%
%TA.AperFunction,OtherDrill,Pad Free-31 (150mil,150mil)*%
%ADD82C,0.130000*%
%TA.AperFunction,OtherDrill,Pad Free-30 (150mil,2850mil)*%
%ADD83C,0.130000*%
%TA.AperFunction,OtherDrill,Pad Free-29 (6000mil,150mil)*%
%ADD84C,0.130000*%
%TA.AperFunction,OtherDrill,Pad Free-28 (6000mil,2850mil)*%
%ADD85C,0.130000*%
%TA.AperFunction,ComponentDrill*%
%ADD86C,0.028740*%
%ADD87C,0.028740*%
%ADD88C,0.040157*%
%ADD89C,0.031496*%
%ADD90C,0.020000*%
%ADD91C,0.035433*%
%ADD92C,0.030709*%
%ADD93C,0.032677*%
%ADD94C,0.031496*%
%ADD95C,0.051181*%
%ADD96C,0.028110*%
%ADD97C,0.023622*%
%TA.AperFunction,ViaDrill,NotFilled*%
%ADD98C,0.028000*%
D81*
X5852110Y1952490D02*
D03*
Y2037490D02*
D03*
X5999000Y1952490D02*
D03*
Y2037490D02*
D03*
X5558332Y2280244D02*
D03*
Y2365244D02*
D03*
X5411444Y2280244D02*
D03*
Y2365244D02*
D03*
X5705222Y2280244D02*
D03*
Y2365244D02*
D03*
X5264556Y1952490D02*
D03*
Y2037490D02*
D03*
X5999000Y2280244D02*
D03*
Y2365244D02*
D03*
X5852110Y2280244D02*
D03*
Y2365244D02*
D03*
X5558332Y1952490D02*
D03*
Y2037490D02*
D03*
X5411444Y1952490D02*
D03*
Y2037490D02*
D03*
X5705222Y1952490D02*
D03*
Y2037490D02*
D03*
X5264556Y2280244D02*
D03*
Y2365244D02*
D03*
X5558332Y1296976D02*
D03*
Y1381976D02*
D03*
X5705222Y1296976D02*
D03*
Y1381976D02*
D03*
X5852110Y1296976D02*
D03*
Y1381976D02*
D03*
X5999000Y1296976D02*
D03*
Y1381976D02*
D03*
X5411444Y1296976D02*
D03*
Y1381976D02*
D03*
X5852110Y1624732D02*
D03*
Y1709732D02*
D03*
X5999000Y1624732D02*
D03*
Y1709732D02*
D03*
X5264556Y1624732D02*
D03*
Y1709732D02*
D03*
X5411444Y1624732D02*
D03*
Y1709732D02*
D03*
X5705222Y1624732D02*
D03*
Y1709732D02*
D03*
X5558332Y1624732D02*
D03*
Y1709732D02*
D03*
X5411444Y313712D02*
D03*
Y398712D02*
D03*
X4679000Y2693000D02*
D03*
Y2608000D02*
D03*
X5413444Y2693000D02*
D03*
Y2608000D02*
D03*
X5264556Y1296976D02*
D03*
Y1381976D02*
D03*
X5266556Y2693000D02*
D03*
Y2608000D02*
D03*
X4972778Y2693000D02*
D03*
Y2608000D02*
D03*
X5119666Y2693000D02*
D03*
Y2608000D02*
D03*
X5264556Y641466D02*
D03*
Y726466D02*
D03*
X4823888Y2280244D02*
D03*
Y2365244D02*
D03*
X4970778Y2280244D02*
D03*
Y2365244D02*
D03*
X5117666Y2280244D02*
D03*
Y2365244D02*
D03*
X4825888Y2693000D02*
D03*
Y2608000D02*
D03*
X5854110Y2693000D02*
D03*
Y2608000D02*
D03*
X5707222Y2693000D02*
D03*
Y2608000D02*
D03*
X5560332Y2693000D02*
D03*
Y2608000D02*
D03*
X6001000Y2693000D02*
D03*
Y2608000D02*
D03*
X5264556Y313712D02*
D03*
Y398712D02*
D03*
X5852110Y313712D02*
D03*
Y398712D02*
D03*
X5705222Y313712D02*
D03*
Y398712D02*
D03*
X5558332Y313712D02*
D03*
Y398712D02*
D03*
X5264556Y969222D02*
D03*
Y1054222D02*
D03*
X5558332Y969222D02*
D03*
Y1054222D02*
D03*
X5705222Y969222D02*
D03*
Y1054222D02*
D03*
X5411444Y969222D02*
D03*
Y1054222D02*
D03*
X5999000Y398712D02*
D03*
Y313712D02*
D03*
X5852110Y641466D02*
D03*
Y726466D02*
D03*
X5999000Y641466D02*
D03*
Y726466D02*
D03*
X5411444Y641466D02*
D03*
Y726466D02*
D03*
X5705222Y641466D02*
D03*
Y726466D02*
D03*
X5558332Y641466D02*
D03*
Y726466D02*
D03*
X5852110Y969222D02*
D03*
Y1054222D02*
D03*
X4677000Y2280244D02*
D03*
Y2365244D02*
D03*
X5999000Y969222D02*
D03*
Y1054222D02*
D03*
X4677000Y313712D02*
D03*
Y398712D02*
D03*
X4823888Y641466D02*
D03*
Y726466D02*
D03*
X4677000Y641466D02*
D03*
Y726466D02*
D03*
X4823888Y313712D02*
D03*
Y398712D02*
D03*
X4677000Y969222D02*
D03*
Y1054222D02*
D03*
X5117666Y969222D02*
D03*
Y1054222D02*
D03*
X4677000Y1296976D02*
D03*
Y1381976D02*
D03*
X4970778Y1296976D02*
D03*
Y1381976D02*
D03*
X5117666Y1296976D02*
D03*
Y1381976D02*
D03*
X4970778Y969222D02*
D03*
Y1054222D02*
D03*
X4823888Y1296976D02*
D03*
Y1381976D02*
D03*
Y969222D02*
D03*
Y1054222D02*
D03*
X4677000Y1624732D02*
D03*
Y1709732D02*
D03*
X4823888Y1952490D02*
D03*
Y2037490D02*
D03*
Y1624732D02*
D03*
Y1709732D02*
D03*
X4677000Y1952490D02*
D03*
Y2037490D02*
D03*
X4970778Y313712D02*
D03*
Y398712D02*
D03*
Y641466D02*
D03*
Y726466D02*
D03*
X5117666Y641466D02*
D03*
Y726466D02*
D03*
Y313712D02*
D03*
Y398712D02*
D03*
Y1624732D02*
D03*
Y1709732D02*
D03*
X4970778Y1952490D02*
D03*
Y2037490D02*
D03*
Y1624732D02*
D03*
Y1709732D02*
D03*
X5117666Y1952490D02*
D03*
Y2037490D02*
D03*
X526000Y424000D02*
D03*
X626000D02*
D03*
X526000Y724000D02*
D03*
X626000D02*
D03*
X826000Y424000D02*
D03*
X726000D02*
D03*
Y724000D02*
D03*
X826000D02*
D03*
D82*
X150000Y150000D02*
D03*
D83*
Y2850000D02*
D03*
D84*
X6000000Y150000D02*
D03*
D85*
Y2850000D02*
D03*
D86*
X1107000Y938228D02*
D03*
Y611772D02*
D03*
X1878000Y602772D02*
D03*
Y929230D02*
D03*
X1766000Y938230D02*
D03*
Y611772D02*
D03*
X1329000Y601772D02*
D03*
Y928228D02*
D03*
X1218000Y938228D02*
D03*
Y611772D02*
D03*
X996000Y601772D02*
D03*
Y928228D02*
D03*
X522000Y2060228D02*
D03*
Y1733772D02*
D03*
X406000Y1723772D02*
D03*
Y2050228D02*
D03*
X2458000Y611772D02*
D03*
Y938228D02*
D03*
X2569000Y928228D02*
D03*
Y601772D02*
D03*
X2902000Y928230D02*
D03*
Y601772D02*
D03*
X2680000Y611772D02*
D03*
Y938230D02*
D03*
X2791000Y928230D02*
D03*
Y601772D02*
D03*
D87*
X2461771Y97000D02*
D03*
X2788227D02*
D03*
X2461771Y209000D02*
D03*
X2788227D02*
D03*
X2461771Y320000D02*
D03*
X2788229D02*
D03*
D88*
X3081126Y2269330D02*
D03*
X2981126D02*
D03*
X3236124Y1955330D02*
D03*
X3136124D02*
D03*
X2935126D02*
D03*
X2835126D02*
D03*
X1876126Y2260330D02*
D03*
X1776126D02*
D03*
X1722126Y1949330D02*
D03*
X1622126D02*
D03*
X2332126Y1956330D02*
D03*
X2232126D02*
D03*
X1927124Y1949330D02*
D03*
X2027124D02*
D03*
X1316126Y1950330D02*
D03*
X1416126D02*
D03*
X1010126D02*
D03*
X1110126D02*
D03*
X1171126Y2264330D02*
D03*
X1271126D02*
D03*
X2477126Y2265330D02*
D03*
X2377126D02*
D03*
X2636126Y1956330D02*
D03*
X2536126D02*
D03*
X2991000Y1216000D02*
D03*
X3091000D02*
D03*
X2485002Y1220000D02*
D03*
X2385002D02*
D03*
X1878000Y1218000D02*
D03*
X1778000D02*
D03*
X1268000Y1216000D02*
D03*
X1168000D02*
D03*
X721000Y195000D02*
D03*
X821000D02*
D03*
X729000Y1100000D02*
D03*
X829000D02*
D03*
D89*
X724788Y2259000D02*
D03*
X823212D02*
D03*
X2287212Y517000D02*
D03*
X2188788D02*
D03*
X2188786Y818000D02*
D03*
X2287212D02*
D03*
X1565212Y300000D02*
D03*
X1466788D02*
D03*
X1856212Y214000D02*
D03*
X1757788D02*
D03*
X498212Y2259000D02*
D03*
X399788D02*
D03*
X998630Y332000D02*
D03*
X1077370D02*
D03*
D90*
X2691000Y460000D02*
D03*
X2757000D02*
D03*
X2538000D02*
D03*
X2472000D02*
D03*
X1820000Y456000D02*
D03*
X1754000D02*
D03*
X2033000D02*
D03*
X1967000D02*
D03*
X1506000Y691000D02*
D03*
X1440000D02*
D03*
Y901000D02*
D03*
X1506000D02*
D03*
X1325000Y454000D02*
D03*
X1205000D02*
D03*
D91*
X3145574Y845000D02*
D03*
X3342426D02*
D03*
X3031574Y300000D02*
D03*
X3228426D02*
D03*
D92*
X2878700Y1725000D02*
D03*
Y1625000D02*
D03*
Y1525000D02*
D03*
Y1425000D02*
D03*
X3191300D02*
D03*
Y1525000D02*
D03*
Y1625000D02*
D03*
Y1725000D02*
D03*
X2587298D02*
D03*
Y1625000D02*
D03*
Y1525000D02*
D03*
Y1425000D02*
D03*
X2274700D02*
D03*
Y1525000D02*
D03*
Y1625000D02*
D03*
Y1725000D02*
D03*
X1983298D02*
D03*
Y1625000D02*
D03*
Y1525000D02*
D03*
Y1425000D02*
D03*
X1670700D02*
D03*
Y1525000D02*
D03*
Y1625000D02*
D03*
Y1725000D02*
D03*
X1379300D02*
D03*
Y1625000D02*
D03*
Y1525000D02*
D03*
Y1425000D02*
D03*
X1066700D02*
D03*
Y1525000D02*
D03*
Y1625000D02*
D03*
Y1725000D02*
D03*
D93*
X3612000Y2273998D02*
D03*
X3712000D02*
D03*
X3812000D02*
D03*
X3912000D02*
D03*
X4012000D02*
D03*
X4112000D02*
D03*
X4212000D02*
D03*
X4312000D02*
D03*
X4412000D02*
D03*
Y1898998D02*
D03*
X4312000D02*
D03*
X4212000D02*
D03*
X4112000D02*
D03*
X4012000D02*
D03*
X3912000D02*
D03*
X3812000D02*
D03*
X3712000D02*
D03*
X3612000D02*
D03*
Y1680500D02*
D03*
X3712000D02*
D03*
X3812000D02*
D03*
X3912000D02*
D03*
X4012000D02*
D03*
X4112000D02*
D03*
X4212000D02*
D03*
X4312000D02*
D03*
X4412000D02*
D03*
Y1305500D02*
D03*
X4312000D02*
D03*
X4212000D02*
D03*
X4112000D02*
D03*
X4012000D02*
D03*
X3912000D02*
D03*
X3812000D02*
D03*
X3712000D02*
D03*
X3612000D02*
D03*
Y2867500D02*
D03*
X3712000D02*
D03*
X3812000D02*
D03*
X3912000D02*
D03*
X4012000D02*
D03*
X4112000D02*
D03*
X4212000D02*
D03*
X4312000D02*
D03*
X4412000D02*
D03*
Y2492500D02*
D03*
X4312000D02*
D03*
X4212000D02*
D03*
X4112000D02*
D03*
X4012000D02*
D03*
X3912000D02*
D03*
X3812000D02*
D03*
X3712000D02*
D03*
X3612000D02*
D03*
X2529666Y2867500D02*
D03*
X2629666D02*
D03*
X2729666D02*
D03*
X2829666D02*
D03*
X2929666D02*
D03*
X3029666D02*
D03*
X3129666D02*
D03*
X3229666D02*
D03*
X3329666D02*
D03*
Y2492500D02*
D03*
X3229666D02*
D03*
X3129666D02*
D03*
X3029666D02*
D03*
X2929666D02*
D03*
X2829666D02*
D03*
X2729666D02*
D03*
X2629666D02*
D03*
X2529666D02*
D03*
X365000Y2867500D02*
D03*
X465000D02*
D03*
X565000D02*
D03*
X665000D02*
D03*
X765000D02*
D03*
X865000D02*
D03*
X965000D02*
D03*
X1065000D02*
D03*
X1165000D02*
D03*
Y2492500D02*
D03*
X1065000D02*
D03*
X965000D02*
D03*
X865000D02*
D03*
X765000D02*
D03*
X665000D02*
D03*
X565000D02*
D03*
X465000D02*
D03*
X365000D02*
D03*
X3612000Y712000D02*
D03*
X3712000D02*
D03*
X3812000D02*
D03*
X3912000D02*
D03*
X4012000D02*
D03*
X4112000D02*
D03*
X4212000D02*
D03*
X4312000D02*
D03*
X4412000D02*
D03*
Y1087000D02*
D03*
X4312000D02*
D03*
X4212000D02*
D03*
X4112000D02*
D03*
X4012000D02*
D03*
X3912000D02*
D03*
X3812000D02*
D03*
X3712000D02*
D03*
X3612000D02*
D03*
X1447334Y2867500D02*
D03*
X1547334D02*
D03*
X1647334D02*
D03*
X1747334D02*
D03*
X1847334D02*
D03*
X1947334D02*
D03*
X2047334D02*
D03*
X2147334D02*
D03*
X2247334D02*
D03*
Y2492500D02*
D03*
X2147334D02*
D03*
X2047334D02*
D03*
X1947334D02*
D03*
X1847334D02*
D03*
X1747334D02*
D03*
X1647334D02*
D03*
X1547334D02*
D03*
X1447334D02*
D03*
X3612000Y493500D02*
D03*
X3712000D02*
D03*
X3812000D02*
D03*
X3912000D02*
D03*
X4012000D02*
D03*
X4112000D02*
D03*
X4212000D02*
D03*
X4312000D02*
D03*
X4412000D02*
D03*
Y118500D02*
D03*
X4312000D02*
D03*
X4212000D02*
D03*
X4112000D02*
D03*
X4012000D02*
D03*
X3912000D02*
D03*
X3812000D02*
D03*
X3712000D02*
D03*
X3612000D02*
D03*
D94*
X219000Y1657000D02*
D03*
Y1857000D02*
D03*
Y1757000D02*
D03*
D95*
X287000Y1468000D02*
D03*
Y1368000D02*
D03*
X287934Y477000D02*
D03*
Y577000D02*
D03*
Y745858D02*
D03*
Y845858D02*
D03*
D96*
X357000Y178000D02*
D03*
X457000Y278000D02*
D03*
X557000Y178000D02*
D03*
X467000Y1449000D02*
D03*
X567000Y1349000D02*
D03*
X667000Y1449000D02*
D03*
D97*
X224488Y1228016D02*
D03*
Y979984D02*
D03*
X488268Y1228016D02*
D03*
Y979984D02*
D03*
X350472Y1228016D02*
D03*
D98*
X4481000Y2607000D02*
D03*
X4625000Y2194000D02*
D03*
X4353000Y2594000D02*
D03*
X1691000Y2277000D02*
D03*
X4002000Y1970000D02*
D03*
X1582000Y112000D02*
D03*
X3273000Y1097000D02*
D03*
X1538000Y189000D02*
D03*
X5331963Y1079963D02*
D03*
X3482000Y1776000D02*
D03*
X3480000Y2023000D02*
D03*
X3583000Y1994000D02*
D03*
X3404000Y2020000D02*
D03*
X2304000Y1230000D02*
D03*
X1331000Y1580000D02*
D03*
X2566000Y1196000D02*
D03*
X1961000Y2194000D02*
D03*
X1371000Y690000D02*
D03*
X1650000Y2344000D02*
D03*
X2714000Y544000D02*
D03*
X4080000Y34000D02*
D03*
X3509000Y98000D02*
D03*
X2562000Y113000D02*
D03*
X1520000Y1387000D02*
D03*
X1755000Y1525000D02*
D03*
X2188786Y630214D02*
D03*
X2981000Y1684000D02*
D03*
X3930000Y2648000D02*
D03*
X3675000D02*
D03*
X2716000Y1445000D02*
D03*
X676000Y1567000D02*
D03*
X2578000Y1330000D02*
D03*
X3575000Y315000D02*
D03*
X5225000Y1177000D02*
D03*
X4521000Y1065000D02*
D03*
X4525000Y407000D02*
D03*
X5080000Y2940000D02*
D03*
X5413444Y2870604D02*
D03*
X5293000Y2909000D02*
D03*
X1329106Y2703394D02*
D03*
X5755000Y2898000D02*
D03*
X1526000Y2391000D02*
D03*
X1456000Y2392000D02*
D03*
X1696000Y2540000D02*
D03*
X1923000Y2344000D02*
D03*
X3616000Y1411000D02*
D03*
X5168000Y1538000D02*
D03*
X4062000Y1172230D02*
D03*
X4758000Y1114000D02*
D03*
X3162246Y2165000D02*
D03*
X3545000Y2124000D02*
D03*
X3415000Y2117000D02*
D03*
X3430000Y2220000D02*
D03*
X3569576Y1793000D02*
D03*
X3810000Y1751000D02*
D03*
X1038000Y273000D02*
D03*
X1767000Y761000D02*
D03*
X1618000Y213000D02*
D03*
X1949000Y2647000D02*
D03*
X2569000Y831000D02*
D03*
X1957000Y732000D02*
D03*
X4490000Y951000D02*
D03*
X1858000Y2117000D02*
D03*
X2994000Y2592000D02*
D03*
X3209000Y1871000D02*
D03*
X3493000Y2476000D02*
D03*
X1873000Y2567000D02*
D03*
X3805000Y894000D02*
D03*
X5436798Y848000D02*
D03*
X5627000Y527000D02*
D03*
X560000Y1995000D02*
D03*
X3755000Y1181000D02*
D03*
X3179000Y2585000D02*
D03*
X4091000Y2587000D02*
D03*
X4362000Y1936000D02*
D03*
X5144000Y1866000D02*
D03*
X4600000Y1380000D02*
D03*
X4585000Y2272000D02*
D03*
X3256000Y2189000D02*
D03*
X5813000Y1521000D02*
D03*
X4564000Y2719000D02*
D03*
X2195120Y2735000D02*
D03*
X1188000Y2752000D02*
D03*
X2792000Y1684000D02*
D03*
X2551000Y1112000D02*
D03*
X1213000Y1855000D02*
D03*
X3637000Y1824000D02*
D03*
X5044000Y359000D02*
D03*
X3031000Y2112000D02*
D03*
X2613000Y2072000D02*
D03*
X2527000Y2057000D02*
D03*
X2131000D02*
D03*
X5358000Y1582000D02*
D03*
X3834000Y1597000D02*
D03*
X3767000Y1426000D02*
D03*
X2885000Y2038000D02*
D03*
X2543000Y1044000D02*
D03*
X2047334Y2567666D02*
D03*
X4789022Y2527000D02*
D03*
X5511000Y2772000D02*
D03*
X3737000Y1955000D02*
D03*
%TF.MD5,9d042a3b93b7faedd6db1ceeb849a3a2*%
M02*
