%TF.GenerationSoftware,Altium Limited,Altium Designer,23.3.1 (30)*%
G04 Layer_Color=8388736*
%FSLAX26Y26*%
%MOIN*%
%TF.SameCoordinates,C47A0882-6911-4C93-B89A-A613C280F5D7*%
%TF.FilePolarity,Negative*%
%TF.FileFunction,Soldermask,Top*%
%TF.Part,Single*%
G01*
G75*
%TA.AperFunction,SMDPad,CuDef*%
%ADD48R,0.045402X0.065087*%
%ADD49R,0.040677X0.062724*%
%ADD50R,0.062724X0.040677*%
%ADD51R,0.065087X0.045402*%
%TA.AperFunction,ComponentPad*%
%ADD52C,0.060000*%
%TA.AperFunction,ViaPad*%
%ADD53C,0.208000*%
%TA.AperFunction,ComponentPad*%
%ADD54C,0.056740*%
%ADD55R,0.056740X0.056740*%
%ADD56R,0.056740X0.056740*%
%ADD57R,0.068236X0.068236*%
%ADD58C,0.068236*%
%ADD59C,0.059181*%
G04:AMPARAMS|DCode=60|XSize=59.181mil|YSize=59.181mil|CornerRadius=16.795mil|HoleSize=0mil|Usage=FLASHONLY|Rotation=0.000|XOffset=0mil|YOffset=0mil|HoleType=Round|Shape=RoundedRectangle|*
%AMROUNDEDRECTD60*
21,1,0.059181,0.025591,0,0,0.0*
21,1,0.025591,0.059181,0,0,0.0*
1,1,0.033590,0.012795,-0.012795*
1,1,0.033590,-0.012795,-0.012795*
1,1,0.033590,-0.012795,0.012795*
1,1,0.033590,0.012795,0.012795*
%
%ADD60ROUNDEDRECTD60*%
%ADD61C,0.048000*%
G04:AMPARAMS|DCode=62|XSize=48mil|YSize=48mil|CornerRadius=14mil|HoleSize=0mil|Usage=FLASHONLY|Rotation=0.000|XOffset=0mil|YOffset=0mil|HoleType=Round|Shape=RoundedRectangle|*
%AMROUNDEDRECTD62*
21,1,0.048000,0.020000,0,0,0.0*
21,1,0.020000,0.048000,0,0,0.0*
1,1,0.028000,0.010000,-0.010000*
1,1,0.028000,-0.010000,-0.010000*
1,1,0.028000,-0.010000,0.010000*
1,1,0.028000,0.010000,0.010000*
%
%ADD62ROUNDEDRECTD62*%
%ADD63C,0.063118*%
G04:AMPARAMS|DCode=64|XSize=63.118mil|YSize=63.118mil|CornerRadius=17.779mil|HoleSize=0mil|Usage=FLASHONLY|Rotation=0.000|XOffset=0mil|YOffset=0mil|HoleType=Round|Shape=RoundedRectangle|*
%AMROUNDEDRECTD64*
21,1,0.063118,0.027559,0,0,0.0*
21,1,0.027559,0.063118,0,0,0.0*
1,1,0.035559,0.013780,-0.013780*
1,1,0.035559,-0.013780,-0.013780*
1,1,0.035559,-0.013780,0.013780*
1,1,0.035559,0.013780,0.013780*
%
%ADD64ROUNDEDRECTD64*%
%ADD65R,0.052488X0.052488*%
%ADD66C,0.052488*%
%ADD67C,0.054457*%
%ADD68R,0.054457X0.054457*%
%ADD69R,0.078000X0.078000*%
%ADD70C,0.078000*%
G04:AMPARAMS|DCode=71|XSize=84.772mil|YSize=84.772mil|CornerRadius=23.193mil|HoleSize=0mil|Usage=FLASHONLY|Rotation=270.000|XOffset=0mil|YOffset=0mil|HoleType=Round|Shape=RoundedRectangle|*
%AMROUNDEDRECTD71*
21,1,0.084772,0.038386,0,0,270.0*
21,1,0.038386,0.084772,0,0,270.0*
1,1,0.046386,-0.019193,-0.019193*
1,1,0.046386,-0.019193,0.019193*
1,1,0.046386,0.019193,0.019193*
1,1,0.046386,0.019193,-0.019193*
%
%ADD71ROUNDEDRECTD71*%
%ADD72C,0.084772*%
%ADD73R,0.056110X0.056110*%
%ADD74C,0.056110*%
%ADD75O,0.058000X0.108000*%
%ADD76O,0.120000X0.064000*%
%ADD77C,0.070992*%
%TA.AperFunction,ViaPad*%
%ADD78C,0.058000*%
D48*
X3225630Y1294818D02*
D03*
X3304370D02*
D03*
X1485370Y1042818D02*
D03*
X1406630D02*
D03*
X2079370Y261002D02*
D03*
X2000630D02*
D03*
X2300630D02*
D03*
X2379370D02*
D03*
X1221630D02*
D03*
X1300370D02*
D03*
X2300630Y113000D02*
D03*
X2379370D02*
D03*
X2229370Y111998D02*
D03*
X2150630D02*
D03*
X2000630D02*
D03*
X2079370D02*
D03*
X2045370Y926818D02*
D03*
X1966630D02*
D03*
X2104370Y1169000D02*
D03*
X2025630D02*
D03*
X2104370Y1042818D02*
D03*
X2025630D02*
D03*
X2104370Y1294818D02*
D03*
X2025630D02*
D03*
X2253370D02*
D03*
X2174630D02*
D03*
Y1169000D02*
D03*
X2253370D02*
D03*
X1440630Y119998D02*
D03*
X1519370D02*
D03*
X1488370Y545000D02*
D03*
X1409630D02*
D03*
X1599630D02*
D03*
X1678370D02*
D03*
X1599630Y673060D02*
D03*
X1678370D02*
D03*
Y801120D02*
D03*
X1599630D02*
D03*
X1553504Y1169000D02*
D03*
X1632244D02*
D03*
X1406630Y1294818D02*
D03*
X1485370D02*
D03*
X760630Y1272000D02*
D03*
X839370D02*
D03*
X1566370Y1735000D02*
D03*
X1487630D02*
D03*
X2012504Y2129182D02*
D03*
X2091244D02*
D03*
X1411630D02*
D03*
X1490370D02*
D03*
X1411630Y2248000D02*
D03*
X1490370D02*
D03*
X953630D02*
D03*
X1032370D02*
D03*
X953630Y2129182D02*
D03*
X1032370D02*
D03*
X2612630D02*
D03*
X2691370D02*
D03*
X3223504Y2248000D02*
D03*
X3302244D02*
D03*
X2691370D02*
D03*
X2612630D02*
D03*
X2242370Y2129182D02*
D03*
X2163630D02*
D03*
Y2248000D02*
D03*
X2242370D02*
D03*
X2163630Y2364000D02*
D03*
X2242370D02*
D03*
X2612630D02*
D03*
X2691370D02*
D03*
X2850244Y2129182D02*
D03*
X2771504D02*
D03*
X2850244Y2248000D02*
D03*
X2771504D02*
D03*
X686370Y1651000D02*
D03*
X607630D02*
D03*
X839370Y1774334D02*
D03*
X760630D02*
D03*
X839370Y1896000D02*
D03*
X760630D02*
D03*
X847630Y1664670D02*
D03*
X926370D02*
D03*
X961756Y1169000D02*
D03*
X1040496D02*
D03*
X3450370Y1170000D02*
D03*
X3371630D02*
D03*
X3304370D02*
D03*
X3225630D02*
D03*
X2229370Y261002D02*
D03*
X2150630D02*
D03*
X1285964Y119998D02*
D03*
X1364704D02*
D03*
X1406630Y1169000D02*
D03*
X1485370D02*
D03*
X760630Y2019000D02*
D03*
X839370D02*
D03*
X687496Y1897000D02*
D03*
X608756D02*
D03*
X1131296Y119998D02*
D03*
X1210036D02*
D03*
X976630D02*
D03*
X1055370D02*
D03*
X927370Y1531086D02*
D03*
X848630D02*
D03*
Y1397504D02*
D03*
X927370D02*
D03*
X179630Y2155000D02*
D03*
X258370D02*
D03*
Y2020002D02*
D03*
X179630D02*
D03*
X258370Y2303002D02*
D03*
X179630D02*
D03*
X2856244Y1294818D02*
D03*
X2777504D02*
D03*
X2706370Y1042818D02*
D03*
X2627630D02*
D03*
X2777504Y1170000D02*
D03*
X2856244D02*
D03*
X2627630Y1168818D02*
D03*
X2706370D02*
D03*
X2627630Y1294818D02*
D03*
X2706370D02*
D03*
X1632244D02*
D03*
X1553504D02*
D03*
X2045370Y801120D02*
D03*
X1966630D02*
D03*
Y673060D02*
D03*
X2045370D02*
D03*
D49*
X2313142Y1013000D02*
D03*
X2380858D02*
D03*
X2073268Y1416000D02*
D03*
X2140984D02*
D03*
X2239984Y1044000D02*
D03*
X2172268D02*
D03*
X1613016Y928000D02*
D03*
X1680732D02*
D03*
X1618858Y1044000D02*
D03*
X1551142D02*
D03*
X1631858Y2128000D02*
D03*
X1564142D02*
D03*
X2010142Y2362818D02*
D03*
X2077858D02*
D03*
Y2246818D02*
D03*
X2010142D02*
D03*
X1631858D02*
D03*
X1564142D02*
D03*
X2836858Y2362818D02*
D03*
X2769142D02*
D03*
X3221142Y2124000D02*
D03*
X3288858D02*
D03*
X330142Y1590000D02*
D03*
X397858D02*
D03*
X975142Y1296000D02*
D03*
X1042858D02*
D03*
X2790890Y1044000D02*
D03*
X2858606D02*
D03*
X622142Y2016880D02*
D03*
X689858D02*
D03*
X624142Y1771000D02*
D03*
X691858D02*
D03*
X1042858Y1044000D02*
D03*
X975142D02*
D03*
D50*
X769292Y1444858D02*
D03*
Y1377142D02*
D03*
X470000Y899732D02*
D03*
Y832016D02*
D03*
D51*
X770472Y1545630D02*
D03*
Y1624370D02*
D03*
X727060Y818630D02*
D03*
Y897370D02*
D03*
X599120Y818630D02*
D03*
Y897370D02*
D03*
X855000D02*
D03*
Y818630D02*
D03*
D52*
X5852110Y1952490D02*
D03*
Y2037490D02*
D03*
X5999000Y1952490D02*
D03*
Y2037490D02*
D03*
X5558332Y2280244D02*
D03*
Y2365244D02*
D03*
X5411444Y2280244D02*
D03*
Y2365244D02*
D03*
X5705222Y2280244D02*
D03*
Y2365244D02*
D03*
X5264556Y1952490D02*
D03*
Y2037490D02*
D03*
X5999000Y2280244D02*
D03*
Y2365244D02*
D03*
X5852110Y2280244D02*
D03*
Y2365244D02*
D03*
X5558332Y1952490D02*
D03*
Y2037490D02*
D03*
X5411444Y1952490D02*
D03*
Y2037490D02*
D03*
X5705222Y1952490D02*
D03*
Y2037490D02*
D03*
X5264556Y2280244D02*
D03*
Y2365244D02*
D03*
X5558332Y1296976D02*
D03*
Y1381976D02*
D03*
X5705222Y1296976D02*
D03*
Y1381976D02*
D03*
X5852110Y1296976D02*
D03*
Y1381976D02*
D03*
X5999000Y1296976D02*
D03*
Y1381976D02*
D03*
X5411444Y1296976D02*
D03*
Y1381976D02*
D03*
X5852110Y1624732D02*
D03*
Y1709732D02*
D03*
X5999000Y1624732D02*
D03*
Y1709732D02*
D03*
X5264556Y1624732D02*
D03*
Y1709732D02*
D03*
X5411444Y1624732D02*
D03*
Y1709732D02*
D03*
X5705222Y1624732D02*
D03*
Y1709732D02*
D03*
X5558332Y1624732D02*
D03*
Y1709732D02*
D03*
X5411444Y313712D02*
D03*
Y398712D02*
D03*
X4679000Y2693000D02*
D03*
Y2608000D02*
D03*
X5413444Y2693000D02*
D03*
Y2608000D02*
D03*
X5264556Y1296976D02*
D03*
Y1381976D02*
D03*
X5266556Y2693000D02*
D03*
Y2608000D02*
D03*
X4972778Y2693000D02*
D03*
Y2608000D02*
D03*
X5119666Y2693000D02*
D03*
Y2608000D02*
D03*
X5264556Y641466D02*
D03*
Y726466D02*
D03*
X4823888Y2280244D02*
D03*
Y2365244D02*
D03*
X4970778Y2280244D02*
D03*
Y2365244D02*
D03*
X5117666Y2280244D02*
D03*
Y2365244D02*
D03*
X4825888Y2693000D02*
D03*
Y2608000D02*
D03*
X5854110Y2693000D02*
D03*
Y2608000D02*
D03*
X5707222Y2693000D02*
D03*
Y2608000D02*
D03*
X5560332Y2693000D02*
D03*
Y2608000D02*
D03*
X6001000Y2693000D02*
D03*
Y2608000D02*
D03*
X5264556Y313712D02*
D03*
Y398712D02*
D03*
X5852110Y313712D02*
D03*
Y398712D02*
D03*
X5705222Y313712D02*
D03*
Y398712D02*
D03*
X5558332Y313712D02*
D03*
Y398712D02*
D03*
X5264556Y969222D02*
D03*
Y1054222D02*
D03*
X5558332Y969222D02*
D03*
Y1054222D02*
D03*
X5705222Y969222D02*
D03*
Y1054222D02*
D03*
X5411444Y969222D02*
D03*
Y1054222D02*
D03*
X5999000Y398712D02*
D03*
Y313712D02*
D03*
X5852110Y641466D02*
D03*
Y726466D02*
D03*
X5999000Y641466D02*
D03*
Y726466D02*
D03*
X5411444Y641466D02*
D03*
Y726466D02*
D03*
X5705222Y641466D02*
D03*
Y726466D02*
D03*
X5558332Y641466D02*
D03*
Y726466D02*
D03*
X5852110Y969222D02*
D03*
Y1054222D02*
D03*
X4677000Y2280244D02*
D03*
Y2365244D02*
D03*
X5999000Y969222D02*
D03*
Y1054222D02*
D03*
X4677000Y313712D02*
D03*
Y398712D02*
D03*
X4823888Y641466D02*
D03*
Y726466D02*
D03*
X4677000Y641466D02*
D03*
Y726466D02*
D03*
X4823888Y313712D02*
D03*
Y398712D02*
D03*
X4677000Y969222D02*
D03*
Y1054222D02*
D03*
X5117666Y969222D02*
D03*
Y1054222D02*
D03*
X4677000Y1296976D02*
D03*
Y1381976D02*
D03*
X4970778Y1296976D02*
D03*
Y1381976D02*
D03*
X5117666Y1296976D02*
D03*
Y1381976D02*
D03*
X4970778Y969222D02*
D03*
Y1054222D02*
D03*
X4823888Y1296976D02*
D03*
Y1381976D02*
D03*
Y969222D02*
D03*
Y1054222D02*
D03*
X4677000Y1624732D02*
D03*
Y1709732D02*
D03*
X4823888Y1952490D02*
D03*
Y2037490D02*
D03*
Y1624732D02*
D03*
Y1709732D02*
D03*
X4677000Y1952490D02*
D03*
Y2037490D02*
D03*
X4970778Y313712D02*
D03*
Y398712D02*
D03*
Y641466D02*
D03*
Y726466D02*
D03*
X5117666Y641466D02*
D03*
Y726466D02*
D03*
Y313712D02*
D03*
Y398712D02*
D03*
Y1624732D02*
D03*
Y1709732D02*
D03*
X4970778Y1952490D02*
D03*
Y2037490D02*
D03*
Y1624732D02*
D03*
Y1709732D02*
D03*
X5117666Y1952490D02*
D03*
Y2037490D02*
D03*
D53*
X150000Y150000D02*
D03*
Y2850000D02*
D03*
X6000000Y150000D02*
D03*
Y2850000D02*
D03*
D54*
X1107000Y938228D02*
D03*
X2461771Y97000D02*
D03*
Y209000D02*
D03*
Y320000D02*
D03*
X1878000Y602772D02*
D03*
X1766000Y938230D02*
D03*
X1329000Y601772D02*
D03*
X1218000Y938228D02*
D03*
X996000Y601772D02*
D03*
X522000Y2060228D02*
D03*
X406000Y1723772D02*
D03*
X2458000Y938228D02*
D03*
X2569000Y601772D02*
D03*
X2902000D02*
D03*
X2680000Y938230D02*
D03*
X2791000Y601772D02*
D03*
D55*
X1107000Y611772D02*
D03*
X1878000Y929230D02*
D03*
X1766000Y611772D02*
D03*
X1329000Y928228D02*
D03*
X1218000Y611772D02*
D03*
X996000Y928228D02*
D03*
X522000Y1733772D02*
D03*
X406000Y2050228D02*
D03*
X2458000Y611772D02*
D03*
X2569000Y928228D02*
D03*
X2902000Y928230D02*
D03*
X2680000Y611772D02*
D03*
X2791000Y928230D02*
D03*
D56*
X2788227Y97000D02*
D03*
Y209000D02*
D03*
X2788229Y320000D02*
D03*
D57*
X3081126Y2269330D02*
D03*
X3236124Y1955330D02*
D03*
X2935126D02*
D03*
X1876126Y2260330D02*
D03*
X1722126Y1949330D02*
D03*
X2332126Y1956330D02*
D03*
X2027124Y1949330D02*
D03*
X1416126Y1950330D02*
D03*
X1110126D02*
D03*
X1271126Y2264330D02*
D03*
X2477126Y2265330D02*
D03*
X2636126Y1956330D02*
D03*
X3091000Y1216000D02*
D03*
X2485002Y1220000D02*
D03*
X1878000Y1218000D02*
D03*
X1268000Y1216000D02*
D03*
X821000Y195000D02*
D03*
X829000Y1100000D02*
D03*
D58*
X2981126Y2269330D02*
D03*
X3136124Y1955330D02*
D03*
X2835126D02*
D03*
X1776126Y2260330D02*
D03*
X1622126Y1949330D02*
D03*
X2232126Y1956330D02*
D03*
X1927124Y1949330D02*
D03*
X1316126Y1950330D02*
D03*
X1010126D02*
D03*
X1171126Y2264330D02*
D03*
X2377126Y2265330D02*
D03*
X2536126Y1956330D02*
D03*
X2991000Y1216000D02*
D03*
X2385002Y1220000D02*
D03*
X1778000Y1218000D02*
D03*
X1168000Y1216000D02*
D03*
X721000Y195000D02*
D03*
X729000Y1100000D02*
D03*
D59*
X724788Y2259000D02*
D03*
X2188788Y517000D02*
D03*
X2188786Y818000D02*
D03*
X1466788Y300000D02*
D03*
X1757788Y214000D02*
D03*
X399788Y2259000D02*
D03*
X998630Y332000D02*
D03*
D60*
X823212Y2259000D02*
D03*
X2287212Y517000D02*
D03*
Y818000D02*
D03*
X1565212Y300000D02*
D03*
X1856212Y214000D02*
D03*
X498212Y2259000D02*
D03*
X1077370Y332000D02*
D03*
D61*
X2691000Y460000D02*
D03*
X2472000D02*
D03*
X1754000Y456000D02*
D03*
X1967000D02*
D03*
X1440000Y691000D02*
D03*
Y901000D02*
D03*
X1205000Y454000D02*
D03*
D62*
X2757000Y460000D02*
D03*
X2538000D02*
D03*
X1820000Y456000D02*
D03*
X2033000D02*
D03*
X1506000Y691000D02*
D03*
Y901000D02*
D03*
X1325000Y454000D02*
D03*
D63*
X3145574Y845000D02*
D03*
X3031574Y300000D02*
D03*
D64*
X3342426Y845000D02*
D03*
X3228426Y300000D02*
D03*
D65*
X2878700Y1725000D02*
D03*
X2274700D02*
D03*
X1670700D02*
D03*
X1066700D02*
D03*
D66*
X2878700Y1625000D02*
D03*
Y1525000D02*
D03*
Y1425000D02*
D03*
X3191300D02*
D03*
Y1525000D02*
D03*
Y1625000D02*
D03*
Y1725000D02*
D03*
X2587298D02*
D03*
Y1625000D02*
D03*
Y1525000D02*
D03*
Y1425000D02*
D03*
X2274700D02*
D03*
Y1525000D02*
D03*
Y1625000D02*
D03*
X1983298Y1725000D02*
D03*
Y1625000D02*
D03*
Y1525000D02*
D03*
Y1425000D02*
D03*
X1670700D02*
D03*
Y1525000D02*
D03*
Y1625000D02*
D03*
X1379300Y1725000D02*
D03*
Y1625000D02*
D03*
Y1525000D02*
D03*
Y1425000D02*
D03*
X1066700D02*
D03*
Y1525000D02*
D03*
Y1625000D02*
D03*
D67*
X3612000Y2273998D02*
D03*
X3712000D02*
D03*
X3812000D02*
D03*
X3912000D02*
D03*
X4012000D02*
D03*
X4112000D02*
D03*
X4212000D02*
D03*
X4312000D02*
D03*
X4412000D02*
D03*
Y1898998D02*
D03*
X4312000D02*
D03*
X4212000D02*
D03*
X4112000D02*
D03*
X4012000D02*
D03*
X3912000D02*
D03*
X3812000D02*
D03*
X3712000D02*
D03*
X3612000Y1680500D02*
D03*
X3712000D02*
D03*
X3812000D02*
D03*
X3912000D02*
D03*
X4012000D02*
D03*
X4112000D02*
D03*
X4212000D02*
D03*
X4312000D02*
D03*
X4412000D02*
D03*
Y1305500D02*
D03*
X4312000D02*
D03*
X4212000D02*
D03*
X4112000D02*
D03*
X4012000D02*
D03*
X3912000D02*
D03*
X3812000D02*
D03*
X3712000D02*
D03*
X3612000Y2867500D02*
D03*
X3712000D02*
D03*
X3812000D02*
D03*
X3912000D02*
D03*
X4012000D02*
D03*
X4112000D02*
D03*
X4212000D02*
D03*
X4312000D02*
D03*
X4412000D02*
D03*
Y2492500D02*
D03*
X4312000D02*
D03*
X4212000D02*
D03*
X4112000D02*
D03*
X4012000D02*
D03*
X3912000D02*
D03*
X3812000D02*
D03*
X3712000D02*
D03*
X2529666Y2867500D02*
D03*
X2629666D02*
D03*
X2729666D02*
D03*
X2829666D02*
D03*
X2929666D02*
D03*
X3029666D02*
D03*
X3129666D02*
D03*
X3229666D02*
D03*
X3329666D02*
D03*
Y2492500D02*
D03*
X3229666D02*
D03*
X3129666D02*
D03*
X3029666D02*
D03*
X2929666D02*
D03*
X2829666D02*
D03*
X2729666D02*
D03*
X2629666D02*
D03*
X365000Y2867500D02*
D03*
X465000D02*
D03*
X565000D02*
D03*
X665000D02*
D03*
X765000D02*
D03*
X865000D02*
D03*
X965000D02*
D03*
X1065000D02*
D03*
X1165000D02*
D03*
Y2492500D02*
D03*
X1065000D02*
D03*
X965000D02*
D03*
X865000D02*
D03*
X765000D02*
D03*
X665000D02*
D03*
X565000D02*
D03*
X465000D02*
D03*
X3712000Y712000D02*
D03*
X3812000D02*
D03*
X3912000D02*
D03*
X4012000D02*
D03*
X4112000D02*
D03*
X4212000D02*
D03*
X4312000D02*
D03*
X4412000D02*
D03*
Y1087000D02*
D03*
X4312000D02*
D03*
X4212000D02*
D03*
X4112000D02*
D03*
X4012000D02*
D03*
X3912000D02*
D03*
X3812000D02*
D03*
X3712000D02*
D03*
X3612000D02*
D03*
X1447334Y2867500D02*
D03*
X1547334D02*
D03*
X1647334D02*
D03*
X1747334D02*
D03*
X1847334D02*
D03*
X1947334D02*
D03*
X2047334D02*
D03*
X2147334D02*
D03*
X2247334D02*
D03*
Y2492500D02*
D03*
X2147334D02*
D03*
X2047334D02*
D03*
X1947334D02*
D03*
X1847334D02*
D03*
X1747334D02*
D03*
X1647334D02*
D03*
X1547334D02*
D03*
X3612000Y493500D02*
D03*
X3712000D02*
D03*
X3812000D02*
D03*
X3912000D02*
D03*
X4012000D02*
D03*
X4112000D02*
D03*
X4212000D02*
D03*
X4312000D02*
D03*
X4412000D02*
D03*
Y118500D02*
D03*
X4312000D02*
D03*
X4212000D02*
D03*
X4112000D02*
D03*
X4012000D02*
D03*
X3912000D02*
D03*
X3812000D02*
D03*
X3712000D02*
D03*
D68*
X3612000Y1898998D02*
D03*
Y1305500D02*
D03*
Y2492500D02*
D03*
X2529666D02*
D03*
X365000D02*
D03*
X3612000Y712000D02*
D03*
X1447334Y2492500D02*
D03*
X3612000Y118500D02*
D03*
D69*
X219000Y1657000D02*
D03*
D70*
Y1857000D02*
D03*
Y1757000D02*
D03*
D71*
X287000Y1468000D02*
D03*
X287934Y577000D02*
D03*
Y845858D02*
D03*
D72*
X287000Y1368000D02*
D03*
X287934Y477000D02*
D03*
Y745858D02*
D03*
D73*
X357000Y178000D02*
D03*
X667000Y1449000D02*
D03*
D74*
X457000Y278000D02*
D03*
X557000Y178000D02*
D03*
X467000Y1449000D02*
D03*
X567000Y1349000D02*
D03*
D75*
X526000Y424000D02*
D03*
X626000D02*
D03*
X526000Y724000D02*
D03*
X626000D02*
D03*
X826000Y424000D02*
D03*
X726000D02*
D03*
Y724000D02*
D03*
X826000D02*
D03*
D76*
X224488Y1228016D02*
D03*
Y979984D02*
D03*
X488268Y1228016D02*
D03*
Y979984D02*
D03*
X350472Y1228016D02*
D03*
D77*
X252048Y1104000D02*
D03*
X488268D02*
D03*
D78*
X4481000Y2607000D02*
D03*
X4625000Y2194000D02*
D03*
X4353000Y2594000D02*
D03*
X1691000Y2277000D02*
D03*
X4002000Y1970000D02*
D03*
X1582000Y112000D02*
D03*
X3273000Y1097000D02*
D03*
X1538000Y189000D02*
D03*
X5331963Y1079963D02*
D03*
X3482000Y1776000D02*
D03*
X3480000Y2023000D02*
D03*
X3583000Y1994000D02*
D03*
X3404000Y2020000D02*
D03*
X2304000Y1230000D02*
D03*
X1331000Y1580000D02*
D03*
X2566000Y1196000D02*
D03*
X1961000Y2194000D02*
D03*
X1371000Y690000D02*
D03*
X1650000Y2344000D02*
D03*
X2714000Y544000D02*
D03*
X4080000Y34000D02*
D03*
X3509000Y98000D02*
D03*
X2562000Y113000D02*
D03*
X1520000Y1387000D02*
D03*
X1755000Y1525000D02*
D03*
X2188786Y630214D02*
D03*
X2981000Y1684000D02*
D03*
X3930000Y2648000D02*
D03*
X3675000D02*
D03*
X2716000Y1445000D02*
D03*
X676000Y1567000D02*
D03*
X2578000Y1330000D02*
D03*
X3575000Y315000D02*
D03*
X5225000Y1177000D02*
D03*
X4521000Y1065000D02*
D03*
X4525000Y407000D02*
D03*
X5080000Y2940000D02*
D03*
X5413444Y2870604D02*
D03*
X5293000Y2909000D02*
D03*
X1329106Y2703394D02*
D03*
X5755000Y2898000D02*
D03*
X1526000Y2391000D02*
D03*
X1456000Y2392000D02*
D03*
X1696000Y2540000D02*
D03*
X1923000Y2344000D02*
D03*
X3616000Y1411000D02*
D03*
X5168000Y1538000D02*
D03*
X4062000Y1172230D02*
D03*
X4758000Y1114000D02*
D03*
X3162246Y2165000D02*
D03*
X3545000Y2124000D02*
D03*
X3415000Y2117000D02*
D03*
X3430000Y2220000D02*
D03*
X3569576Y1793000D02*
D03*
X3810000Y1751000D02*
D03*
X1038000Y273000D02*
D03*
X1767000Y761000D02*
D03*
X1618000Y213000D02*
D03*
X1949000Y2647000D02*
D03*
X2569000Y831000D02*
D03*
X1957000Y732000D02*
D03*
X4490000Y951000D02*
D03*
X1858000Y2117000D02*
D03*
X2994000Y2592000D02*
D03*
X3209000Y1871000D02*
D03*
X3493000Y2476000D02*
D03*
X1873000Y2567000D02*
D03*
X3805000Y894000D02*
D03*
X5436798Y848000D02*
D03*
X5627000Y527000D02*
D03*
X560000Y1995000D02*
D03*
X3755000Y1181000D02*
D03*
X3179000Y2585000D02*
D03*
X4091000Y2587000D02*
D03*
X4362000Y1936000D02*
D03*
X5144000Y1866000D02*
D03*
X4600000Y1380000D02*
D03*
X4585000Y2272000D02*
D03*
X3256000Y2189000D02*
D03*
X5813000Y1521000D02*
D03*
X4564000Y2719000D02*
D03*
X2195120Y2735000D02*
D03*
X1188000Y2752000D02*
D03*
X2792000Y1684000D02*
D03*
X2551000Y1112000D02*
D03*
X1213000Y1855000D02*
D03*
X3637000Y1824000D02*
D03*
X5044000Y359000D02*
D03*
X3031000Y2112000D02*
D03*
X2613000Y2072000D02*
D03*
X2527000Y2057000D02*
D03*
X2131000D02*
D03*
X5358000Y1582000D02*
D03*
X3834000Y1597000D02*
D03*
X3767000Y1426000D02*
D03*
X2885000Y2038000D02*
D03*
X2543000Y1044000D02*
D03*
X2047334Y2567666D02*
D03*
X4789022Y2527000D02*
D03*
X5511000Y2772000D02*
D03*
X3737000Y1955000D02*
D03*
%TF.MD5,1653d33516acbb2e303cfba313b9c21e*%
M02*
