%TF.GenerationSoftware,Altium Limited,Altium Designer,23.3.1 (30)*%
G04 Layer_Color=65535*
%FSLAX26Y26*%
%MOIN*%
%TF.SameCoordinates,C47A0882-6911-4C93-B89A-A613C280F5D7*%
%TF.FilePolarity,Positive*%
%TF.FileFunction,Legend,Top*%
%TF.Part,Single*%
G01*
G75*
%TA.AperFunction,NonConductor*%
%ADD42C,0.007874*%
%ADD43C,0.006000*%
%ADD44C,0.010000*%
%ADD45C,0.005000*%
%ADD46C,0.012000*%
%ADD47C,0.005906*%
G36*
X3518377Y1470594D02*
Y1462868D01*
X3515802D01*
Y1460292D01*
X3513226D01*
Y1457717D01*
X3510651D01*
Y1455141D01*
X3508075D01*
Y1452566D01*
X3505500D01*
Y1449991D01*
X3500349D01*
Y1447415D01*
X3263406D01*
Y1537557D01*
X3474594D01*
Y1550434D01*
X3263406D01*
Y1638000D01*
X3474594D01*
Y1650877D01*
X3263406D01*
Y1738443D01*
X3420509D01*
X3423085D01*
X3520953D01*
Y1470594D01*
X3518377D01*
D02*
G37*
%LPC*%
G36*
X3363849Y1457717D02*
Y1529830D01*
X3268557D01*
Y1493774D01*
X3340670D01*
Y1488623D01*
X3289160D01*
X3286585D01*
X3268557D01*
Y1452566D01*
X3358698D01*
Y1455141D01*
X3361273D01*
Y1457717D01*
X3363849D01*
D02*
G37*
%LPD*%
D42*
X1110937Y566339D02*
G03*
X1110937Y566339I-3937J0D01*
G01*
X2837598Y97000D02*
G03*
X2837598Y97000I-3937J0D01*
G01*
Y209000D02*
G03*
X2837598Y209000I-3937J0D01*
G01*
Y320000D02*
G03*
X2837598Y320000I-3937J0D01*
G01*
X3159472Y2269330D02*
G03*
X3159472Y2269330I-3937J0D01*
G01*
X3314472Y1955330D02*
G03*
X3314472Y1955330I-3937J0D01*
G01*
X3013472D02*
G03*
X3013472Y1955330I-3937J0D01*
G01*
X1954472Y2260330D02*
G03*
X1954472Y2260330I-3937J0D01*
G01*
X1800472Y1949330D02*
G03*
X1800472Y1949330I-3937J0D01*
G01*
X2410472Y1956330D02*
G03*
X2410472Y1956330I-3937J0D01*
G01*
X2105472Y1949330D02*
G03*
X2105472Y1949330I-3937J0D01*
G01*
X1494472Y1950330D02*
G03*
X1494472Y1950330I-3937J0D01*
G01*
X1188472D02*
G03*
X1188472Y1950330I-3937J0D01*
G01*
X1349472Y2264330D02*
G03*
X1349472Y2264330I-3937J0D01*
G01*
X2555472Y2265330D02*
G03*
X2555472Y2265330I-3937J0D01*
G01*
X2714472Y1956330D02*
G03*
X2714472Y1956330I-3937J0D01*
G01*
X907858Y2259000D02*
G03*
X907858Y2259000I-133858J0D01*
G01*
X2804000Y460000D02*
G03*
X2804000Y460000I-80000J0D01*
G01*
X3509748Y845000D02*
G03*
X3509748Y845000I-265748J0D01*
G01*
X3395748Y300000D02*
G03*
X3395748Y300000I-265748J0D01*
G01*
X2585000Y460000D02*
G03*
X2585000Y460000I-80000J0D01*
G01*
X3169346Y1216000D02*
G03*
X3169346Y1216000I-3937J0D01*
G01*
X2371858Y517000D02*
G03*
X2371858Y517000I-133858J0D01*
G01*
X1867000Y456000D02*
G03*
X1867000Y456000I-80000J0D01*
G01*
X2080000D02*
G03*
X2080000Y456000I-80000J0D01*
G01*
X2371858Y818000D02*
G03*
X2371858Y818000I-133858J0D01*
G01*
X2563346Y1220000D02*
G03*
X2563346Y1220000I-3937J0D01*
G01*
X1649858Y300000D02*
G03*
X1649858Y300000I-133858J0D01*
G01*
X1940858Y214000D02*
G03*
X1940858Y214000I-133858J0D01*
G01*
X1881937Y974661D02*
G03*
X1881937Y974661I-3937J0D01*
G01*
X1769937Y566339D02*
G03*
X1769937Y566339I-3937J0D01*
G01*
X1332937Y973661D02*
G03*
X1332937Y973661I-3937J0D01*
G01*
X1221937Y566339D02*
G03*
X1221937Y566339I-3937J0D01*
G01*
X999937Y973661D02*
G03*
X999937Y973661I-3937J0D01*
G01*
X1553000Y691000D02*
G03*
X1553000Y691000I-80000J0D01*
G01*
Y901000D02*
G03*
X1553000Y901000I-80000J0D01*
G01*
X1956346Y1218000D02*
G03*
X1956346Y1218000I-3937J0D01*
G01*
X525937Y1688337D02*
G03*
X525937Y1688337I-3937J0D01*
G01*
X409937Y2095660D02*
G03*
X409937Y2095660I-3937J0D01*
G01*
X582858Y2259000D02*
G03*
X582858Y2259000I-133858J0D01*
G01*
X1346346Y1216000D02*
G03*
X1346346Y1216000I-3937J0D01*
G01*
X1171031Y488202D02*
G03*
X1171031Y419798I93969J-34202D01*
G01*
X1358969D02*
G03*
X1358969Y488202I-93969J34202D01*
G01*
X899346Y195000D02*
G03*
X899346Y195000I-3937J0D01*
G01*
X907346Y1100000D02*
G03*
X907346Y1100000I-3937J0D01*
G01*
X1146268Y332000D02*
G03*
X1146268Y332000I-108268J0D01*
G01*
X2840708Y1725000D02*
G03*
X2840708Y1725000I-3937J0D01*
G01*
X3615937Y1856087D02*
G03*
X3615937Y1856087I-3937J0D01*
G01*
Y1262587D02*
G03*
X3615937Y1262587I-3937J0D01*
G01*
X3615937Y2449587D02*
G03*
X3615937Y2449587I-3937J0D01*
G01*
X2533604Y2449585D02*
G03*
X2533604Y2449585I-3937J0D01*
G01*
X368937Y2449586D02*
G03*
X368937Y2449586I-3937J0D01*
G01*
X3615937Y669087D02*
G03*
X3615937Y669087I-3937J0D01*
G01*
X1451270Y2449586D02*
G03*
X1451270Y2449586I-3937J0D01*
G01*
X3615937Y75587D02*
G03*
X3615937Y75587I-3937J0D01*
G01*
X300937Y178000D02*
G03*
X300937Y178000I-3937J0D01*
G01*
X2461937Y566339D02*
G03*
X2461937Y566339I-3937J0D01*
G01*
X2572937Y973661D02*
G03*
X2572937Y973661I-3937J0D01*
G01*
X2905937D02*
G03*
X2905937Y973661I-3937J0D01*
G01*
X2683937Y566339D02*
G03*
X2683937Y566339I-3937J0D01*
G01*
X2794937Y973661D02*
G03*
X2794937Y973661I-3937J0D01*
G01*
X2236709Y1725000D02*
G03*
X2236709Y1725000I-3937J0D01*
G01*
X1632709D02*
G03*
X1632709Y1725000I-3937J0D01*
G01*
X1028709D02*
G03*
X1028709Y1725000I-3937J0D01*
G01*
X730937Y1449000D02*
G03*
X730937Y1449000I-3937J0D01*
G01*
X3265000Y1274148D02*
Y1315486D01*
X2347000Y992330D02*
Y1033670D01*
X1446000Y1022148D02*
Y1063488D01*
X2040000Y240334D02*
Y281672D01*
X2340000Y240332D02*
Y281670D01*
X1261000Y240332D02*
Y281672D01*
X2340000Y92330D02*
Y133670D01*
X2190000Y91328D02*
Y132668D01*
X2040000Y91328D02*
Y132666D01*
X2107126Y1395330D02*
Y1436670D01*
X2006000Y906150D02*
Y947488D01*
X2065000Y1148330D02*
Y1189670D01*
Y1022148D02*
Y1063488D01*
Y1274148D02*
Y1315488D01*
X2214000Y1274148D02*
Y1315488D01*
Y1148330D02*
Y1189670D01*
X2206126Y1023330D02*
Y1064670D01*
X1480000Y99328D02*
Y140666D01*
X1449000Y524332D02*
Y565670D01*
X1639000Y524330D02*
Y565670D01*
Y652392D02*
Y693730D01*
Y780450D02*
Y821790D01*
X1646874Y907330D02*
Y948670D01*
X1585000Y1023330D02*
Y1064670D01*
X1592874Y1148330D02*
Y1189670D01*
X1446000Y1274148D02*
Y1315488D01*
X800000Y1251330D02*
Y1292670D01*
X1527000Y1714330D02*
Y1755670D01*
X2931126Y2318326D02*
X3131126D01*
Y2220334D02*
Y2318326D01*
X2931126Y2220334D02*
X3131126D01*
X2931126D02*
Y2318326D01*
X3086124Y2004326D02*
X3286124D01*
Y1906334D02*
Y2004326D01*
X3086124Y1906334D02*
X3286124D01*
X3086124D02*
Y2004326D01*
X2785126D02*
X2985126D01*
Y1906334D02*
Y2004326D01*
X2785126Y1906334D02*
X2985126D01*
X2785126D02*
Y2004326D01*
X1726126Y2309326D02*
X1926126D01*
Y2211334D02*
Y2309326D01*
X1726126Y2211334D02*
X1926126D01*
X1726126D02*
Y2309326D01*
X1572126Y1998326D02*
X1772126D01*
Y1900334D02*
Y1998326D01*
X1572126Y1900334D02*
X1772126D01*
X1572126D02*
Y1998326D01*
X2182126Y2005326D02*
X2382126D01*
Y1907334D02*
Y2005326D01*
X2182126Y1907334D02*
X2382126D01*
X2182126D02*
Y2005326D01*
X1877124Y1900334D02*
Y1998326D01*
Y1900334D02*
X2077124D01*
Y1998326D01*
X1877124D02*
X2077124D01*
X1266126Y1901334D02*
Y1999326D01*
Y1901334D02*
X1466126D01*
Y1999326D01*
X1266126D02*
X1466126D01*
X960126Y1901334D02*
Y1999326D01*
Y1901334D02*
X1160126D01*
Y1999326D01*
X960126D02*
X1160126D01*
X1121126Y2215334D02*
Y2313326D01*
Y2215334D02*
X1321126D01*
Y2313326D01*
X1121126D02*
X1321126D01*
X2327126Y2314326D02*
X2527126D01*
Y2216334D02*
Y2314326D01*
X2327126Y2216334D02*
X2527126D01*
X2327126D02*
Y2314326D01*
X2486126Y2005326D02*
X2686126D01*
Y1907334D02*
Y2005326D01*
X2486126Y1907334D02*
X2686126D01*
X2486126D02*
Y2005326D01*
X2051874Y2108512D02*
Y2149852D01*
X1598000Y2107330D02*
Y2148670D01*
X2044000Y2342148D02*
Y2383488D01*
Y2226148D02*
Y2267488D01*
X1598000Y2226148D02*
Y2267488D01*
X1451000Y2108512D02*
Y2149852D01*
Y2227330D02*
Y2268670D01*
X993000Y2227330D02*
Y2268670D01*
Y2108512D02*
Y2149852D01*
X2652000Y2108512D02*
Y2149852D01*
X3262874Y2227330D02*
Y2268670D01*
X2652000Y2227330D02*
Y2268670D01*
X2203000Y2108512D02*
Y2149852D01*
Y2227330D02*
Y2268670D01*
Y2343330D02*
Y2384670D01*
X2652000Y2343330D02*
Y2384670D01*
X2803000Y2342148D02*
Y2383488D01*
X2810874Y2108512D02*
Y2149852D01*
Y2227330D02*
Y2268670D01*
X3255000Y2103330D02*
Y2144670D01*
X647000Y1630330D02*
Y1671670D01*
X364000Y1569330D02*
Y1610670D01*
X800000Y1753664D02*
Y1795004D01*
Y1875330D02*
Y1916670D01*
X887000Y1644000D02*
Y1685340D01*
X748622Y1411000D02*
X789962D01*
X749802Y1585000D02*
X791142D01*
X1001126Y1148330D02*
Y1189670D01*
X1009000Y1275330D02*
Y1316670D01*
X3411000Y1149330D02*
Y1190668D01*
X3265000Y1149330D02*
Y1190668D01*
X2941000Y1167004D02*
Y1264996D01*
Y1167004D02*
X3141000D01*
Y1264996D01*
X2941000D02*
X3141000D01*
X2824748Y1023330D02*
Y1064670D01*
X2190000Y240332D02*
Y281670D01*
X2335002Y1268996D02*
X2535002D01*
Y1171004D02*
Y1268996D01*
X2335002Y1171004D02*
X2535002D01*
X2335002D02*
Y1268996D01*
X1325334Y99330D02*
Y140668D01*
X1728000Y1266996D02*
X1928000D01*
Y1169004D02*
Y1266996D01*
X1728000Y1169004D02*
X1928000D01*
X1728000D02*
Y1266996D01*
X1446000Y1148330D02*
Y1189670D01*
X800000Y1998330D02*
Y2039670D01*
X656000Y1996210D02*
Y2037550D01*
X648126Y1876330D02*
Y1917670D01*
X658000Y1750330D02*
Y1791670D01*
X1170666Y99328D02*
Y140666D01*
X1016000Y99328D02*
Y140668D01*
X888000Y1510416D02*
Y1551756D01*
X1009000Y1023330D02*
Y1064670D01*
X1118000Y1264996D02*
X1318000D01*
Y1167004D02*
Y1264996D01*
X1118000Y1167004D02*
X1318000D01*
X1118000D02*
Y1264996D01*
X671000Y146004D02*
Y243996D01*
Y146004D02*
X871000D01*
Y243996D01*
X671000D02*
X871000D01*
X679000Y1051004D02*
Y1148996D01*
Y1051004D02*
X879000D01*
Y1148996D01*
X679000D02*
X879000D01*
X888000Y1376834D02*
Y1418174D01*
X414952Y1310126D02*
Y1525874D01*
X159048Y1310126D02*
X414952D01*
X159048D02*
Y1525874D01*
X414952D01*
X706390Y858000D02*
X747730D01*
X578450D02*
X619790D01*
X159980Y634874D02*
X415886D01*
X159980Y419126D02*
Y634874D01*
Y419126D02*
X415886D01*
Y634874D01*
X159980Y903732D02*
X415886D01*
X159980Y687984D02*
Y903732D01*
Y687984D02*
X415886D01*
Y903732D01*
X219000Y2134330D02*
Y2175670D01*
Y1999332D02*
Y2040670D01*
Y2282332D02*
Y2323670D01*
X834330Y858000D02*
X875670D01*
X449330Y865874D02*
X490670D01*
X2816874Y1274148D02*
Y1315488D01*
X2667000Y1022148D02*
Y1063488D01*
X2816874Y1149330D02*
Y1190670D01*
X2667000Y1148148D02*
Y1189488D01*
Y1274148D02*
Y1315488D01*
X1592874Y1274148D02*
Y1315488D01*
X2006000Y780450D02*
Y821790D01*
Y652392D02*
Y693730D01*
D43*
X876000Y614000D02*
G03*
X876000Y534000I0J-40000D01*
G01*
Y614000D02*
Y689000D01*
Y459000D02*
Y534000D01*
X476000Y459000D02*
Y689000D01*
X876000D01*
X476000Y459000D02*
X876000D01*
D44*
X2907000Y1057000D02*
X3187000D01*
X2907000Y1337000D02*
X3187000D01*
Y1057000D02*
Y1337000D01*
X2907000Y1057000D02*
Y1337000D01*
X1697000Y1059000D02*
X1977000D01*
X1697000Y1339000D02*
X1977000D01*
Y1059000D02*
Y1339000D01*
X1697000Y1059000D02*
Y1339000D01*
X2299000Y1058000D02*
X2579000D01*
X2299000Y1338000D02*
X2579000D01*
Y1058000D02*
Y1338000D01*
X2299000Y1058000D02*
Y1338000D01*
X1688000Y2105000D02*
X1968000D01*
X1688000Y2385000D02*
X1968000D01*
Y2105000D02*
Y2385000D01*
X1688000Y2105000D02*
Y2385000D01*
X1082000Y1056000D02*
X1362000D01*
X1082000Y1336000D02*
X1362000D01*
Y1056000D02*
Y1336000D01*
X1082000Y1056000D02*
Y1336000D01*
X2751000Y1796000D02*
X3031000D01*
X2751000Y2076000D02*
X3031000D01*
Y1796000D02*
Y2076000D01*
X2751000Y1796000D02*
Y2076000D01*
X929000Y1790000D02*
X1209000D01*
X929000Y2070000D02*
X1209000D01*
Y1790000D02*
Y2070000D01*
X929000Y1790000D02*
Y2070000D01*
X1536000Y1791000D02*
X1816000D01*
X1536000Y2071000D02*
X1816000D01*
Y1791000D02*
Y2071000D01*
X1536000Y1791000D02*
Y2071000D01*
X634000Y39000D02*
X914000D01*
X634000Y319000D02*
X914000D01*
Y39000D02*
Y319000D01*
X634000Y39000D02*
Y319000D01*
X640000Y943000D02*
X920000D01*
X640000Y1223000D02*
X920000D01*
Y943000D02*
Y1223000D01*
X640000Y943000D02*
Y1223000D01*
X1081000Y2104000D02*
X1361000D01*
X1081000Y2384000D02*
X1361000D01*
Y2104000D02*
Y2384000D01*
X1081000Y2104000D02*
Y2384000D01*
X2293000Y2106000D02*
X2573000D01*
X2293000Y2386000D02*
X2573000D01*
Y2106000D02*
Y2386000D01*
X2293000Y2106000D02*
Y2386000D01*
X2901000Y2106000D02*
X3181000D01*
X2901000Y2386000D02*
X3181000D01*
Y2106000D02*
Y2386000D01*
X2901000Y2106000D02*
Y2386000D01*
X2145000Y1798000D02*
X2425000D01*
X2145000Y2078000D02*
X2425000D01*
Y1798000D02*
Y2078000D01*
X2145000Y1798000D02*
Y2078000D01*
X2448991Y1799874D02*
X2728991D01*
X2448991Y2079874D02*
X2728991D01*
Y1799874D02*
Y2079874D01*
X2448991Y1799874D02*
Y2079874D01*
X3054991Y1797874D02*
X3334991D01*
X3054991Y2077874D02*
X3334991D01*
Y1797874D02*
Y2077874D01*
X3054991Y1797874D02*
Y2077874D01*
X1232991Y1791874D02*
X1512991D01*
X1232991Y2071874D02*
X1512991D01*
Y1791874D02*
Y2071874D01*
X1232991Y1791874D02*
Y2071874D01*
X1839991Y1792874D02*
X2119991D01*
X1839991Y2072874D02*
X2119991D01*
Y1792874D02*
Y2072874D01*
X1839991Y1792874D02*
Y2072874D01*
X5891110Y1935490D02*
Y2055490D01*
X5813110Y1936490D02*
Y2055490D01*
X6038000Y1935490D02*
Y2055490D01*
X5960000Y1936490D02*
Y2055490D01*
X5597332Y2263244D02*
Y2383244D01*
X5519332Y2264244D02*
Y2383244D01*
X5450444Y2263244D02*
Y2383244D01*
X5372444Y2264244D02*
Y2383244D01*
X5744222Y2263244D02*
Y2383244D01*
X5666222Y2264244D02*
Y2383244D01*
X5303556Y1935490D02*
Y2055490D01*
X5225556Y1936490D02*
Y2055490D01*
X6038000Y2263244D02*
Y2383244D01*
X5960000Y2264244D02*
Y2383244D01*
X5891110Y2263244D02*
Y2383244D01*
X5813110Y2264244D02*
Y2383244D01*
X5597332Y1935490D02*
Y2055490D01*
X5519332Y1936490D02*
Y2055490D01*
X5450444Y1935490D02*
Y2055490D01*
X5372444Y1936490D02*
Y2055490D01*
X5744222Y1935490D02*
Y2055490D01*
X5666222Y1936490D02*
Y2055490D01*
X5303556Y2263244D02*
Y2383244D01*
X5225556Y2264244D02*
Y2383244D01*
X5597332Y1279976D02*
Y1399976D01*
X5519332Y1280976D02*
Y1399976D01*
X5744222Y1279976D02*
Y1399976D01*
X5666222Y1280976D02*
Y1399976D01*
X5891110Y1279976D02*
Y1399976D01*
X5813110Y1280976D02*
Y1399976D01*
X6038000Y1279976D02*
Y1399976D01*
X5960000Y1280976D02*
Y1399976D01*
X5450444Y1279976D02*
Y1399976D01*
X5372444Y1280976D02*
Y1399976D01*
X5891110Y1607732D02*
Y1727732D01*
X5813110Y1608732D02*
Y1727732D01*
X6038000Y1607732D02*
Y1727732D01*
X5960000Y1608732D02*
Y1727732D01*
X5303556Y1607732D02*
Y1727732D01*
X5225556Y1608732D02*
Y1727732D01*
X5450444Y1607732D02*
Y1727732D01*
X5372444Y1608732D02*
Y1727732D01*
X5744222Y1607732D02*
Y1727732D01*
X5666222Y1608732D02*
Y1727732D01*
X5597332Y1607732D02*
Y1727732D01*
X5519332Y1608732D02*
Y1727732D01*
X5450444Y296712D02*
Y416712D01*
X5372444Y297712D02*
Y416712D01*
X4640000Y2592000D02*
Y2711000D01*
X4718000Y2591000D02*
Y2711000D01*
X5374444Y2592000D02*
Y2711000D01*
X5452444Y2591000D02*
Y2711000D01*
X5303556Y1279976D02*
Y1399976D01*
X5225556Y1280976D02*
Y1399976D01*
X5227556Y2592000D02*
Y2711000D01*
X5305556Y2591000D02*
Y2711000D01*
X4933778Y2592000D02*
Y2711000D01*
X5011778Y2591000D02*
Y2711000D01*
X5080666Y2592000D02*
Y2711000D01*
X5158666Y2591000D02*
Y2711000D01*
X5303556Y624466D02*
Y744466D01*
X5225556Y625466D02*
Y744466D01*
X4862888Y2263244D02*
Y2383244D01*
X4784888Y2264244D02*
Y2383244D01*
X5009778Y2263244D02*
Y2383244D01*
X4931778Y2264244D02*
Y2383244D01*
X5156666Y2263244D02*
Y2383244D01*
X5078666Y2264244D02*
Y2383244D01*
X4786888Y2592000D02*
Y2711000D01*
X4864888Y2591000D02*
Y2711000D01*
X5815110Y2592000D02*
Y2711000D01*
X5893110Y2591000D02*
Y2711000D01*
X5668222Y2592000D02*
Y2711000D01*
X5746222Y2591000D02*
Y2711000D01*
X5521332Y2592000D02*
Y2711000D01*
X5599332Y2591000D02*
Y2711000D01*
X5962000Y2592000D02*
Y2711000D01*
X6040000Y2591000D02*
Y2711000D01*
X5303556Y296712D02*
Y416712D01*
X5225556Y297712D02*
Y416712D01*
X5891110Y296712D02*
Y416712D01*
X5813110Y297712D02*
Y416712D01*
X5744222Y296712D02*
Y416712D01*
X5666222Y297712D02*
Y416712D01*
X5597332Y296712D02*
Y416712D01*
X5519332Y297712D02*
Y416712D01*
X5303556Y952222D02*
Y1072222D01*
X5225556Y953222D02*
Y1072222D01*
X5597332Y952222D02*
Y1072222D01*
X5519332Y953222D02*
Y1072222D01*
X5744222Y952222D02*
Y1072222D01*
X5666222Y953222D02*
Y1072222D01*
X5450444Y952222D02*
Y1072222D01*
X5372444Y953222D02*
Y1072222D01*
X5960000Y297712D02*
Y416712D01*
X6038000Y296712D02*
Y416712D01*
X5891110Y624466D02*
Y744466D01*
X5813110Y625466D02*
Y744466D01*
X6038000Y624466D02*
Y744466D01*
X5960000Y625466D02*
Y744466D01*
X5450444Y624466D02*
Y744466D01*
X5372444Y625466D02*
Y744466D01*
X5744222Y624466D02*
Y744466D01*
X5666222Y625466D02*
Y744466D01*
X5597332Y624466D02*
Y744466D01*
X5519332Y625466D02*
Y744466D01*
X5891110Y952222D02*
Y1072222D01*
X5813110Y953222D02*
Y1072222D01*
X4716000Y2263244D02*
Y2383244D01*
X4638000Y2264244D02*
Y2383244D01*
X6038000Y952222D02*
Y1072222D01*
X5960000Y953222D02*
Y1072222D01*
X4716000Y296712D02*
Y416712D01*
X4638000Y297712D02*
Y416712D01*
X4862888Y624466D02*
Y744466D01*
X4784888Y625466D02*
Y744466D01*
X4716000Y624466D02*
Y744466D01*
X4638000Y625466D02*
Y744466D01*
X4862888Y296712D02*
Y416712D01*
X4784888Y297712D02*
Y416712D01*
X4716000Y952222D02*
Y1072222D01*
X4638000Y953222D02*
Y1072222D01*
X5156666Y952222D02*
Y1072222D01*
X5078666Y953222D02*
Y1072222D01*
X4716000Y1279976D02*
Y1399976D01*
X4638000Y1280976D02*
Y1399976D01*
X5009778Y1279976D02*
Y1399976D01*
X4931778Y1280976D02*
Y1399976D01*
X5156666Y1279976D02*
Y1399976D01*
X5078666Y1280976D02*
Y1399976D01*
X5009778Y952222D02*
Y1072222D01*
X4931778Y953222D02*
Y1072222D01*
X4862888Y1279976D02*
Y1399976D01*
X4784888Y1280976D02*
Y1399976D01*
X4862888Y952222D02*
Y1072222D01*
X4784888Y953222D02*
Y1072222D01*
X4716000Y1607732D02*
Y1727732D01*
X4638000Y1608732D02*
Y1727732D01*
X4862888Y1935490D02*
Y2055490D01*
X4784888Y1936490D02*
Y2055490D01*
X4862888Y1607732D02*
Y1727732D01*
X4784888Y1608732D02*
Y1727732D01*
X4716000Y1935490D02*
Y2055490D01*
X4638000Y1936490D02*
Y2055490D01*
X5009778Y296712D02*
Y416712D01*
X4931778Y297712D02*
Y416712D01*
X5009778Y624466D02*
Y744466D01*
X4931778Y625466D02*
Y744466D01*
X5156666Y624466D02*
Y744466D01*
X5078666Y625466D02*
Y744466D01*
X5156666Y296712D02*
Y416712D01*
X5078666Y297712D02*
Y416712D01*
X5156666Y1607732D02*
Y1727732D01*
X5078666Y1608732D02*
Y1727732D01*
X5009778Y1935490D02*
Y2055490D01*
X4931778Y1936490D02*
Y2055490D01*
X5009778Y1607732D02*
Y1727732D01*
X4931778Y1608732D02*
Y1727732D01*
X5156666Y1935490D02*
Y2055490D01*
X5078666Y1936490D02*
Y2055490D01*
X3442000Y2608000D02*
X3481987D01*
Y2588006D01*
X3475323Y2581342D01*
X3461994D01*
X3455329Y2588006D01*
Y2608000D01*
X3481987Y2568013D02*
X3442000Y2541355D01*
X3481987D02*
X3442000Y2568013D01*
X3481987Y2528026D02*
X3442000D01*
Y2501368D01*
X3481987Y2448052D02*
X3442000D01*
X3481987Y2428058D02*
X3442000D01*
Y2348084D02*
Y2361413D01*
X3448664Y2368077D01*
X3461994D01*
X3468658Y2361413D01*
Y2348084D01*
X3461994Y2341419D01*
X3455329D01*
Y2368077D01*
X3442000Y2328090D02*
Y2314761D01*
Y2321426D01*
X3481987D01*
Y2328090D01*
X3442000Y2274774D02*
Y2288103D01*
X3448664Y2294768D01*
X3461994D01*
X3468658Y2288103D01*
Y2274774D01*
X3461994Y2268110D01*
X3455329D01*
Y2294768D01*
X3468658Y2228123D02*
Y2248116D01*
X3461994Y2254781D01*
X3448664D01*
X3442000Y2248116D01*
Y2228123D01*
X3475323Y2208129D02*
X3468658D01*
Y2214794D01*
Y2201465D01*
Y2208129D01*
X3448664D01*
X3442000Y2201465D01*
X3468658Y2181471D02*
X3442000D01*
X3455329D01*
X3461994Y2174807D01*
X3468658Y2168142D01*
Y2161477D01*
X3442000Y2134819D02*
Y2121490D01*
X3448664Y2114826D01*
X3461994D01*
X3468658Y2121490D01*
Y2134819D01*
X3461994Y2141484D01*
X3448664D01*
X3442000Y2134819D01*
Y2101497D02*
X3468658D01*
Y2081503D01*
X3461994Y2074839D01*
X3442000D01*
Y2061510D02*
Y2048181D01*
Y2054845D01*
X3468658D01*
Y2061510D01*
X3442000Y2028187D02*
X3481987D01*
X3455329D02*
X3468658Y2008194D01*
X3455329Y2028187D02*
X3442000Y2008194D01*
X3468658Y1981535D02*
Y1968207D01*
X3461994Y1961542D01*
X3442000D01*
Y1981535D01*
X3448664Y1988200D01*
X3455329Y1981535D01*
Y1961542D01*
X3461994Y1948213D02*
Y1921555D01*
X3481987Y1908226D02*
Y1894897D01*
Y1901561D01*
X3442000D01*
Y1908226D01*
Y1894897D01*
X3475323Y1848245D02*
X3481987Y1854910D01*
Y1868239D01*
X3475323Y1874903D01*
X3448664D01*
X3442000Y1868239D01*
Y1854910D01*
X3448664Y1848245D01*
X3481987Y1834916D02*
Y1808258D01*
Y1821587D01*
X3442000D01*
X4703987Y2908977D02*
X4693990Y2918974D01*
X4673997D01*
X4664000Y2908977D01*
Y2898981D01*
X4673997Y2888984D01*
X4693990D01*
X4703987Y2878987D01*
Y2868990D01*
X4693990Y2858994D01*
X4673997D01*
X4664000Y2868990D01*
X4723981Y2839000D02*
Y2898981D01*
X4753971D01*
X4763968Y2888984D01*
Y2868990D01*
X4753971Y2858994D01*
X4723981D01*
X4813952D02*
X4793958D01*
X4783961Y2868990D01*
Y2888984D01*
X4793958Y2898981D01*
X4813952D01*
X4823948Y2888984D01*
Y2878987D01*
X4783961D01*
X4883929Y2898981D02*
X4853939D01*
X4843942Y2888984D01*
Y2868990D01*
X4853939Y2858994D01*
X4883929D01*
X4913919Y2908977D02*
Y2898981D01*
X4903922D01*
X4923916D01*
X4913919D01*
Y2868990D01*
X4923916Y2858994D01*
X4953906Y2898981D02*
Y2858994D01*
Y2878987D01*
X4963903Y2888984D01*
X4973900Y2898981D01*
X4983896D01*
X5013887D02*
Y2868990D01*
X5023884Y2858994D01*
X5053874D01*
Y2898981D01*
X5073867Y2858994D02*
Y2898981D01*
X5083864D01*
X5093861Y2888984D01*
Y2858994D01*
Y2888984D01*
X5103858Y2898981D01*
X5113855Y2888984D01*
Y2858994D01*
X5193829D02*
Y2898981D01*
X5213822Y2918974D01*
X5233816Y2898981D01*
Y2858994D01*
Y2888984D01*
X5193829D01*
X5253809Y2858994D02*
Y2898981D01*
X5283800D01*
X5293796Y2888984D01*
Y2858994D01*
X5323787Y2898981D02*
X5343780D01*
X5353777Y2888984D01*
Y2858994D01*
X5323787D01*
X5313790Y2868990D01*
X5323787Y2878987D01*
X5353777D01*
X5373770Y2858994D02*
X5393764D01*
X5383767D01*
Y2918974D01*
X5373770D01*
X5423754Y2898981D02*
Y2868990D01*
X5433751Y2858994D01*
X5463741D01*
Y2848997D01*
X5453744Y2839000D01*
X5443748D01*
X5463741Y2858994D02*
Y2898981D01*
X5483735D02*
X5523722D01*
X5483735Y2858994D01*
X5523722D01*
X5573706D02*
X5553712D01*
X5543715Y2868990D01*
Y2888984D01*
X5553712Y2898981D01*
X5573706D01*
X5583703Y2888984D01*
Y2878987D01*
X5543715D01*
X5603696Y2898981D02*
Y2858994D01*
Y2878987D01*
X5613693Y2888984D01*
X5623690Y2898981D01*
X5633686D01*
X5723657D02*
X5743651Y2858994D01*
X5763644Y2898981D01*
X5783638Y2858994D02*
X5803631D01*
X5793635D01*
Y2918974D01*
X5783638Y2908977D01*
X4744000Y114993D02*
Y174974D01*
X4763993Y154981D01*
X4783987Y174974D01*
Y114993D01*
X4803981D02*
X4823974D01*
X4813977D01*
Y154981D01*
X4803981D01*
X4873958Y95000D02*
X4883955D01*
X4893952Y104997D01*
Y154981D01*
X4863961D01*
X4853964Y144984D01*
Y124990D01*
X4863961Y114993D01*
X4893952D01*
X4913945Y154981D02*
Y124990D01*
X4923942Y114993D01*
X4953932D01*
Y154981D01*
X5003916Y114993D02*
X4983922D01*
X4973926Y124990D01*
Y144984D01*
X4983922Y154981D01*
X5003916D01*
X5013913Y144984D01*
Y134987D01*
X4973926D01*
X5033906Y114993D02*
X5053900D01*
X5043903D01*
Y174974D01*
X5033906D01*
X5143871Y114993D02*
Y174974D01*
X5183858Y114993D01*
Y174974D01*
X5203851Y154981D02*
Y124990D01*
X5213848Y114993D01*
X5243838D01*
Y154981D01*
X5263832Y114993D02*
Y154981D01*
X5293822D01*
X5303819Y144984D01*
Y114993D01*
X5353803D02*
X5333809D01*
X5323812Y124990D01*
Y144984D01*
X5333809Y154981D01*
X5353803D01*
X5363800Y144984D01*
Y134987D01*
X5323812D01*
X5383793Y154981D02*
X5423780D01*
X5383793Y114993D01*
X5423780D01*
X5543741D02*
X5503754D01*
X5543741Y154981D01*
Y164977D01*
X5533744Y174974D01*
X5513751D01*
X5503754Y164977D01*
X5563735D02*
X5573732Y174974D01*
X5593725D01*
X5603722Y164977D01*
Y124990D01*
X5593725Y114993D01*
X5573732D01*
X5563735Y124990D01*
Y164977D01*
X5663703Y114993D02*
X5623715D01*
X5663703Y154981D01*
Y164977D01*
X5653706Y174974D01*
X5633712D01*
X5623715Y164977D01*
X5683696D02*
X5693693Y174974D01*
X5713686D01*
X5723683Y164977D01*
Y154981D01*
X5713686Y144984D01*
X5703690D01*
X5713686D01*
X5723683Y134987D01*
Y124990D01*
X5713686Y114993D01*
X5693693D01*
X5683696Y124990D01*
X5799101Y2041634D02*
X5769110D01*
Y2021640D01*
X5799101Y2011644D02*
X5769110D01*
Y1996649D01*
X5774109Y1991650D01*
X5794102D01*
X5799101Y1996649D01*
Y2011644D01*
Y1961660D02*
Y1981653D01*
X5784106D01*
X5789104Y1971657D01*
Y1966658D01*
X5784106Y1961660D01*
X5774109D01*
X5769110Y1966658D01*
Y1976655D01*
X5774109Y1981653D01*
X5769110Y1951663D02*
Y1941666D01*
Y1946665D01*
X5799101D01*
X5794102Y1951663D01*
X5945989Y2046634D02*
X5915999D01*
Y2026640D01*
X5945989Y2016644D02*
X5915999D01*
Y2001649D01*
X5920998Y1996650D01*
X5940991D01*
X5945989Y2001649D01*
Y2016644D01*
Y1966660D02*
Y1986653D01*
X5930994D01*
X5935993Y1976657D01*
Y1971658D01*
X5930994Y1966660D01*
X5920998D01*
X5915999Y1971658D01*
Y1981655D01*
X5920998Y1986653D01*
X5940991Y1956663D02*
X5945989Y1951665D01*
Y1941668D01*
X5940991Y1936670D01*
X5920998D01*
X5915999Y1941668D01*
Y1951665D01*
X5920998Y1956663D01*
X5940991D01*
X5505323Y2373961D02*
X5475333D01*
Y2353967D01*
X5505323Y2343970D02*
X5475333D01*
Y2328975D01*
X5480331Y2323977D01*
X5500325D01*
X5505323Y2328975D01*
Y2343970D01*
X5500325Y2313980D02*
X5505323Y2308982D01*
Y2298985D01*
X5500325Y2293987D01*
X5495326D01*
X5490328Y2298985D01*
Y2303983D01*
Y2298985D01*
X5485330Y2293987D01*
X5480331D01*
X5475333Y2298985D01*
Y2308982D01*
X5480331Y2313980D01*
X5500325Y2283990D02*
X5505323Y2278992D01*
Y2268995D01*
X5500325Y2263996D01*
X5495326D01*
X5490328Y2268995D01*
Y2273993D01*
Y2268995D01*
X5485330Y2263996D01*
X5480331D01*
X5475333Y2268995D01*
Y2278992D01*
X5480331Y2283990D01*
X5358434Y2373961D02*
X5328444D01*
Y2353967D01*
X5358434Y2343970D02*
X5328444D01*
Y2328975D01*
X5333442Y2323977D01*
X5353436D01*
X5358434Y2328975D01*
Y2343970D01*
X5353436Y2313980D02*
X5358434Y2308982D01*
Y2298985D01*
X5353436Y2293987D01*
X5348438D01*
X5343439Y2298985D01*
Y2303983D01*
Y2298985D01*
X5338441Y2293987D01*
X5333442D01*
X5328444Y2298985D01*
Y2308982D01*
X5333442Y2313980D01*
X5328444Y2268995D02*
X5358434D01*
X5343439Y2283990D01*
Y2263996D01*
X5652212Y2373961D02*
X5622222D01*
Y2353967D01*
X5652212Y2343970D02*
X5622222D01*
Y2328975D01*
X5627220Y2323977D01*
X5647213D01*
X5652212Y2328975D01*
Y2343970D01*
X5647213Y2313980D02*
X5652212Y2308982D01*
Y2298985D01*
X5647213Y2293987D01*
X5642215D01*
X5637217Y2298985D01*
Y2303983D01*
Y2298985D01*
X5632218Y2293987D01*
X5627220D01*
X5622222Y2298985D01*
Y2308982D01*
X5627220Y2313980D01*
X5622222Y2263996D02*
Y2283990D01*
X5642215Y2263996D01*
X5647213D01*
X5652212Y2268995D01*
Y2278992D01*
X5647213Y2283990D01*
X5211546Y2046634D02*
X5181555D01*
Y2026640D01*
X5211546Y2016644D02*
X5181555D01*
Y2001649D01*
X5186554Y1996650D01*
X5206547D01*
X5211546Y2001649D01*
Y2016644D01*
Y1966660D02*
Y1986653D01*
X5196550D01*
X5201549Y1976657D01*
Y1971658D01*
X5196550Y1966660D01*
X5186554D01*
X5181555Y1971658D01*
Y1981655D01*
X5186554Y1986653D01*
X5211546Y1936670D02*
Y1956663D01*
X5196550D01*
X5201549Y1946666D01*
Y1941668D01*
X5196550Y1936670D01*
X5186554D01*
X5181555Y1941668D01*
Y1951665D01*
X5186554Y1956663D01*
X5945989Y2373961D02*
X5915999D01*
Y2353967D01*
X5945989Y2343970D02*
X5915999D01*
Y2328975D01*
X5920998Y2323977D01*
X5940991D01*
X5945989Y2328975D01*
Y2343970D01*
X5940991Y2313980D02*
X5945989Y2308982D01*
Y2298985D01*
X5940991Y2293987D01*
X5935993D01*
X5930994Y2298985D01*
Y2303983D01*
Y2298985D01*
X5925996Y2293987D01*
X5920998D01*
X5915999Y2298985D01*
Y2308982D01*
X5920998Y2313980D01*
X5940991Y2283990D02*
X5945989Y2278992D01*
Y2268995D01*
X5940991Y2263996D01*
X5920998D01*
X5915999Y2268995D01*
Y2278992D01*
X5920998Y2283990D01*
X5940991D01*
X5799101Y2368961D02*
X5769110D01*
Y2348967D01*
X5799101Y2338970D02*
X5769110D01*
Y2323975D01*
X5774109Y2318977D01*
X5794102D01*
X5799101Y2323975D01*
Y2338970D01*
X5794102Y2308980D02*
X5799101Y2303982D01*
Y2293985D01*
X5794102Y2288987D01*
X5789104D01*
X5784106Y2293985D01*
Y2298983D01*
Y2293985D01*
X5779107Y2288987D01*
X5774109D01*
X5769110Y2293985D01*
Y2303982D01*
X5774109Y2308980D01*
X5769110Y2278990D02*
Y2268993D01*
Y2273992D01*
X5799101D01*
X5794102Y2278990D01*
X5505323Y2046634D02*
X5475333D01*
Y2026640D01*
X5505323Y2016644D02*
X5475333D01*
Y2001649D01*
X5480331Y1996650D01*
X5500325D01*
X5505323Y2001649D01*
Y2016644D01*
Y1966660D02*
Y1986653D01*
X5490328D01*
X5495326Y1976657D01*
Y1971658D01*
X5490328Y1966660D01*
X5480331D01*
X5475333Y1971658D01*
Y1981655D01*
X5480331Y1986653D01*
X5500325Y1956663D02*
X5505323Y1951665D01*
Y1941668D01*
X5500325Y1936670D01*
X5495326D01*
X5490328Y1941668D01*
Y1946666D01*
Y1941668D01*
X5485330Y1936670D01*
X5480331D01*
X5475333Y1941668D01*
Y1951665D01*
X5480331Y1956663D01*
X5358434Y2046634D02*
X5328444D01*
Y2026640D01*
X5358434Y2016644D02*
X5328444D01*
Y2001649D01*
X5333442Y1996650D01*
X5353436D01*
X5358434Y2001649D01*
Y2016644D01*
Y1966660D02*
Y1986653D01*
X5343439D01*
X5348438Y1976657D01*
Y1971658D01*
X5343439Y1966660D01*
X5333442D01*
X5328444Y1971658D01*
Y1981655D01*
X5333442Y1986653D01*
X5328444Y1941668D02*
X5358434D01*
X5343439Y1956663D01*
Y1936670D01*
X5652212Y2046634D02*
X5622222D01*
Y2026640D01*
X5652212Y2016644D02*
X5622222D01*
Y2001649D01*
X5627220Y1996650D01*
X5647213D01*
X5652212Y2001649D01*
Y2016644D01*
Y1966660D02*
Y1986653D01*
X5637217D01*
X5642215Y1976657D01*
Y1971658D01*
X5637217Y1966660D01*
X5627220D01*
X5622222Y1971658D01*
Y1981655D01*
X5627220Y1986653D01*
X5622222Y1936670D02*
Y1956663D01*
X5642215Y1936670D01*
X5647213D01*
X5652212Y1941668D01*
Y1951665D01*
X5647213Y1956663D01*
X5211546Y2373961D02*
X5181555D01*
Y2353967D01*
X5211546Y2343970D02*
X5181555D01*
Y2328975D01*
X5186554Y2323977D01*
X5206547D01*
X5211546Y2328975D01*
Y2343970D01*
X5206547Y2313980D02*
X5211546Y2308982D01*
Y2298985D01*
X5206547Y2293987D01*
X5201549D01*
X5196550Y2298985D01*
Y2303983D01*
Y2298985D01*
X5191552Y2293987D01*
X5186554D01*
X5181555Y2298985D01*
Y2308982D01*
X5186554Y2313980D01*
X5211546Y2263996D02*
Y2283990D01*
X5196550D01*
X5201549Y2273993D01*
Y2268995D01*
X5196550Y2263996D01*
X5186554D01*
X5181555Y2268995D01*
Y2278992D01*
X5186554Y2283990D01*
X5505323Y1390980D02*
X5475333D01*
Y1370987D01*
X5505323Y1360990D02*
X5475333D01*
Y1345995D01*
X5480331Y1340997D01*
X5500325D01*
X5505323Y1345995D01*
Y1360990D01*
Y1311006D02*
X5500325Y1321003D01*
X5490328Y1331000D01*
X5480331D01*
X5475333Y1326001D01*
Y1316005D01*
X5480331Y1311006D01*
X5485330D01*
X5490328Y1316005D01*
Y1331000D01*
X5500325Y1301009D02*
X5505323Y1296011D01*
Y1286014D01*
X5500325Y1281016D01*
X5495326D01*
X5490328Y1286014D01*
Y1291013D01*
Y1286014D01*
X5485330Y1281016D01*
X5480331D01*
X5475333Y1286014D01*
Y1296011D01*
X5480331Y1301009D01*
X5652212Y1390980D02*
X5622222D01*
Y1370987D01*
X5652212Y1360990D02*
X5622222D01*
Y1345995D01*
X5627220Y1340997D01*
X5647213D01*
X5652212Y1345995D01*
Y1360990D01*
Y1311006D02*
X5647213Y1321003D01*
X5637217Y1331000D01*
X5627220D01*
X5622222Y1326001D01*
Y1316005D01*
X5627220Y1311006D01*
X5632218D01*
X5637217Y1316005D01*
Y1331000D01*
X5622222Y1281016D02*
Y1301009D01*
X5642215Y1281016D01*
X5647213D01*
X5652212Y1286014D01*
Y1296011D01*
X5647213Y1301009D01*
X5799101Y1385980D02*
X5769110D01*
Y1365987D01*
X5799101Y1355990D02*
X5769110D01*
Y1340995D01*
X5774109Y1335997D01*
X5794102D01*
X5799101Y1340995D01*
Y1355990D01*
Y1306006D02*
X5794102Y1316003D01*
X5784106Y1326000D01*
X5774109D01*
X5769110Y1321001D01*
Y1311005D01*
X5774109Y1306006D01*
X5779107D01*
X5784106Y1311005D01*
Y1326000D01*
X5769110Y1296009D02*
Y1286013D01*
Y1291011D01*
X5799101D01*
X5794102Y1296009D01*
X5945989Y1390980D02*
X5915999D01*
Y1370987D01*
X5945989Y1360990D02*
X5915999D01*
Y1345995D01*
X5920998Y1340997D01*
X5940991D01*
X5945989Y1345995D01*
Y1360990D01*
Y1311006D02*
X5940991Y1321003D01*
X5930994Y1331000D01*
X5920998D01*
X5915999Y1326001D01*
Y1316005D01*
X5920998Y1311006D01*
X5925996D01*
X5930994Y1316005D01*
Y1331000D01*
X5940991Y1301009D02*
X5945989Y1296011D01*
Y1286014D01*
X5940991Y1281016D01*
X5920998D01*
X5915999Y1286014D01*
Y1296011D01*
X5920998Y1301009D01*
X5940991D01*
X5358434Y1390980D02*
X5328444D01*
Y1370987D01*
X5358434Y1360990D02*
X5328444D01*
Y1345995D01*
X5333442Y1340997D01*
X5353436D01*
X5358434Y1345995D01*
Y1360990D01*
Y1311006D02*
X5353436Y1321003D01*
X5343439Y1331000D01*
X5333442D01*
X5328444Y1326001D01*
Y1316005D01*
X5333442Y1311006D01*
X5338441D01*
X5343439Y1316005D01*
Y1331000D01*
X5328444Y1286014D02*
X5358434D01*
X5343439Y1301009D01*
Y1281016D01*
X5799101Y1713307D02*
X5769110D01*
Y1693314D01*
X5799101Y1683317D02*
X5769110D01*
Y1668322D01*
X5774109Y1663323D01*
X5794102D01*
X5799101Y1668322D01*
Y1683317D01*
Y1653327D02*
Y1633333D01*
X5794102D01*
X5774109Y1653327D01*
X5769110D01*
Y1623336D02*
Y1613340D01*
Y1618338D01*
X5799101D01*
X5794102Y1623336D01*
X5945989Y1718307D02*
X5915999D01*
Y1698314D01*
X5945989Y1688317D02*
X5915999D01*
Y1673322D01*
X5920998Y1668323D01*
X5940991D01*
X5945989Y1673322D01*
Y1688317D01*
Y1658327D02*
Y1638333D01*
X5940991D01*
X5920998Y1658327D01*
X5915999D01*
X5940991Y1628336D02*
X5945989Y1623338D01*
Y1613341D01*
X5940991Y1608343D01*
X5920998D01*
X5915999Y1613341D01*
Y1623338D01*
X5920998Y1628336D01*
X5940991D01*
X5211546Y1718307D02*
X5181555D01*
Y1698314D01*
X5211546Y1688317D02*
X5181555D01*
Y1673322D01*
X5186554Y1668323D01*
X5206547D01*
X5211546Y1673322D01*
Y1688317D01*
Y1658327D02*
Y1638333D01*
X5206547D01*
X5186554Y1658327D01*
X5181555D01*
X5211546Y1608343D02*
Y1628336D01*
X5196550D01*
X5201549Y1618340D01*
Y1613341D01*
X5196550Y1608343D01*
X5186554D01*
X5181555Y1613341D01*
Y1623338D01*
X5186554Y1628336D01*
X5358434Y1718307D02*
X5328444D01*
Y1698314D01*
X5358434Y1688317D02*
X5328444D01*
Y1673322D01*
X5333442Y1668323D01*
X5353436D01*
X5358434Y1673322D01*
Y1688317D01*
Y1658327D02*
Y1638333D01*
X5353436D01*
X5333442Y1658327D01*
X5328444D01*
Y1613341D02*
X5358434D01*
X5343439Y1628336D01*
Y1608343D01*
X5652212Y1718307D02*
X5622222D01*
Y1698314D01*
X5652212Y1688317D02*
X5622222D01*
Y1673322D01*
X5627220Y1668323D01*
X5647213D01*
X5652212Y1673322D01*
Y1688317D01*
Y1658327D02*
Y1638333D01*
X5647213D01*
X5627220Y1658327D01*
X5622222D01*
Y1608343D02*
Y1628336D01*
X5642215Y1608343D01*
X5647213D01*
X5652212Y1613341D01*
Y1623338D01*
X5647213Y1628336D01*
X5505323Y1718307D02*
X5475333D01*
Y1698314D01*
X5505323Y1688317D02*
X5475333D01*
Y1673322D01*
X5480331Y1668323D01*
X5500325D01*
X5505323Y1673322D01*
Y1688317D01*
Y1658327D02*
Y1638333D01*
X5500325D01*
X5480331Y1658327D01*
X5475333D01*
X5500325Y1628336D02*
X5505323Y1623338D01*
Y1613341D01*
X5500325Y1608343D01*
X5495326D01*
X5490328Y1613341D01*
Y1618340D01*
Y1613341D01*
X5485330Y1608343D01*
X5480331D01*
X5475333Y1613341D01*
Y1623338D01*
X5480331Y1628336D01*
X5358434Y408000D02*
X5328444D01*
Y388007D01*
X5358434Y378010D02*
X5328444D01*
Y363014D01*
X5333442Y358016D01*
X5353436D01*
X5358434Y363014D01*
Y378010D01*
X5353436Y348019D02*
X5358434Y343021D01*
Y333024D01*
X5353436Y328026D01*
X5333442D01*
X5328444Y333024D01*
Y343021D01*
X5333442Y348019D01*
X5353436D01*
X5328444Y303034D02*
X5358434D01*
X5343439Y318029D01*
Y298036D01*
X4625990Y2699288D02*
X4596000D01*
Y2679294D01*
X4625990Y2669297D02*
X4596000D01*
Y2654302D01*
X4600998Y2649304D01*
X4620992D01*
X4625990Y2654302D01*
Y2669297D01*
X4596000Y2639307D02*
Y2629310D01*
Y2634309D01*
X4625990D01*
X4620992Y2639307D01*
X4600998Y2614315D02*
X4596000Y2609317D01*
Y2599320D01*
X4600998Y2594322D01*
X4620992D01*
X4625990Y2599320D01*
Y2609317D01*
X4620992Y2614315D01*
X4615993D01*
X4610995Y2609317D01*
Y2594322D01*
X5360434Y2699288D02*
X5330444D01*
Y2679294D01*
X5360434Y2669297D02*
X5330444D01*
Y2654302D01*
X5335442Y2649304D01*
X5355436D01*
X5360434Y2654302D01*
Y2669297D01*
X5330444Y2639307D02*
Y2629310D01*
Y2634309D01*
X5360434D01*
X5355436Y2639307D01*
X5330444Y2599320D02*
X5360434D01*
X5345439Y2614315D01*
Y2594322D01*
X5211546Y1390980D02*
X5181555D01*
Y1370987D01*
X5211546Y1360990D02*
X5181555D01*
Y1345995D01*
X5186554Y1340997D01*
X5206547D01*
X5211546Y1345995D01*
Y1360990D01*
Y1311006D02*
X5206547Y1321003D01*
X5196550Y1331000D01*
X5186554D01*
X5181555Y1326001D01*
Y1316005D01*
X5186554Y1311006D01*
X5191552D01*
X5196550Y1316005D01*
Y1331000D01*
X5211546Y1281016D02*
Y1301009D01*
X5196550D01*
X5201549Y1291013D01*
Y1286014D01*
X5196550Y1281016D01*
X5186554D01*
X5181555Y1286014D01*
Y1296011D01*
X5186554Y1301009D01*
X5213546Y2699288D02*
X5183555D01*
Y2679294D01*
X5213546Y2669297D02*
X5183555D01*
Y2654302D01*
X5188554Y2649304D01*
X5208547D01*
X5213546Y2654302D01*
Y2669297D01*
X5183555Y2639307D02*
Y2629310D01*
Y2634309D01*
X5213546D01*
X5208547Y2639307D01*
X5213546Y2594322D02*
Y2614315D01*
X5198550D01*
X5203549Y2604318D01*
Y2599320D01*
X5198550Y2594322D01*
X5188554D01*
X5183555Y2599320D01*
Y2609317D01*
X5188554Y2614315D01*
X4919768Y2699288D02*
X4889778D01*
Y2679294D01*
X4919768Y2669297D02*
X4889778D01*
Y2654302D01*
X4894776Y2649304D01*
X4914770D01*
X4919768Y2654302D01*
Y2669297D01*
X4889778Y2639307D02*
Y2629310D01*
Y2634309D01*
X4919768D01*
X4914770Y2639307D01*
X4919768Y2614315D02*
Y2594322D01*
X4914770D01*
X4894776Y2614315D01*
X4889778D01*
X5066657Y2699288D02*
X5036666D01*
Y2679294D01*
X5066657Y2669297D02*
X5036666D01*
Y2654302D01*
X5041665Y2649304D01*
X5061658D01*
X5066657Y2654302D01*
Y2669297D01*
X5036666Y2639307D02*
Y2629310D01*
Y2634309D01*
X5066657D01*
X5061658Y2639307D01*
X5066657Y2594322D02*
X5061658Y2604318D01*
X5051662Y2614315D01*
X5041665D01*
X5036666Y2609317D01*
Y2599320D01*
X5041665Y2594322D01*
X5046663D01*
X5051662Y2599320D01*
Y2614315D01*
X5211546Y735327D02*
X5181555D01*
Y715333D01*
X5211546Y705337D02*
X5181555D01*
Y690341D01*
X5186554Y685343D01*
X5206547D01*
X5211546Y690341D01*
Y705337D01*
X5181555Y655353D02*
Y675346D01*
X5201549Y655353D01*
X5206547D01*
X5211546Y660351D01*
Y670348D01*
X5206547Y675346D01*
X5211546Y625362D02*
Y645356D01*
X5196550D01*
X5201549Y635359D01*
Y630361D01*
X5196550Y625362D01*
X5186554D01*
X5181555Y630361D01*
Y640357D01*
X5186554Y645356D01*
X4770879Y2373961D02*
X4740889D01*
Y2353967D01*
X4770879Y2343970D02*
X4740889D01*
Y2328975D01*
X4745887Y2323977D01*
X4765881D01*
X4770879Y2328975D01*
Y2343970D01*
X4765881Y2313980D02*
X4770879Y2308982D01*
Y2298985D01*
X4765881Y2293987D01*
X4760882D01*
X4755884Y2298985D01*
Y2303983D01*
Y2298985D01*
X4750886Y2293987D01*
X4745887D01*
X4740889Y2298985D01*
Y2308982D01*
X4745887Y2313980D01*
X4765881Y2283990D02*
X4770879Y2278992D01*
Y2268995D01*
X4765881Y2263996D01*
X4760882D01*
X4755884Y2268995D01*
X4750886Y2263996D01*
X4745887D01*
X4740889Y2268995D01*
Y2278992D01*
X4745887Y2283990D01*
X4750886D01*
X4755884Y2278992D01*
X4760882Y2283990D01*
X4765881D01*
X4755884Y2278992D02*
Y2268995D01*
X4917768Y2373961D02*
X4887778D01*
Y2353967D01*
X4917768Y2343970D02*
X4887778D01*
Y2328975D01*
X4892776Y2323977D01*
X4912770D01*
X4917768Y2328975D01*
Y2343970D01*
X4912770Y2313980D02*
X4917768Y2308982D01*
Y2298985D01*
X4912770Y2293987D01*
X4907771D01*
X4902773Y2298985D01*
Y2303983D01*
Y2298985D01*
X4897774Y2293987D01*
X4892776D01*
X4887778Y2298985D01*
Y2308982D01*
X4892776Y2313980D01*
X4917768Y2283990D02*
Y2263996D01*
X4912770D01*
X4892776Y2283990D01*
X4887778D01*
X5064657Y2373961D02*
X5034666D01*
Y2353967D01*
X5064657Y2343970D02*
X5034666D01*
Y2328975D01*
X5039665Y2323977D01*
X5059658D01*
X5064657Y2328975D01*
Y2343970D01*
X5059658Y2313980D02*
X5064657Y2308982D01*
Y2298985D01*
X5059658Y2293987D01*
X5054660D01*
X5049662Y2298985D01*
Y2303983D01*
Y2298985D01*
X5044663Y2293987D01*
X5039665D01*
X5034666Y2298985D01*
Y2308982D01*
X5039665Y2313980D01*
X5064657Y2263996D02*
X5059658Y2273993D01*
X5049662Y2283990D01*
X5039665D01*
X5034666Y2278992D01*
Y2268995D01*
X5039665Y2263996D01*
X5044663D01*
X5049662Y2268995D01*
Y2283990D01*
X4772879Y2699288D02*
X4742889D01*
Y2679294D01*
X4772879Y2669297D02*
X4742889D01*
Y2654302D01*
X4747887Y2649304D01*
X4767881D01*
X4772879Y2654302D01*
Y2669297D01*
X4742889Y2639307D02*
Y2629310D01*
Y2634309D01*
X4772879D01*
X4767881Y2639307D01*
Y2614315D02*
X4772879Y2609317D01*
Y2599320D01*
X4767881Y2594322D01*
X4762882D01*
X4757884Y2599320D01*
X4752886Y2594322D01*
X4747887D01*
X4742889Y2599320D01*
Y2609317D01*
X4747887Y2614315D01*
X4752886D01*
X4757884Y2609317D01*
X4762882Y2614315D01*
X4767881D01*
X4757884Y2609317D02*
Y2599320D01*
X5801101Y2694288D02*
X5771110D01*
Y2674294D01*
X5801101Y2664297D02*
X5771110D01*
Y2649302D01*
X5776109Y2644304D01*
X5796102D01*
X5801101Y2649302D01*
Y2664297D01*
X5771110Y2634307D02*
Y2624310D01*
Y2629309D01*
X5801101D01*
X5796102Y2634307D01*
X5771110Y2609315D02*
Y2599318D01*
Y2604317D01*
X5801101D01*
X5796102Y2609315D01*
X5654212Y2699288D02*
X5624222D01*
Y2679294D01*
X5654212Y2669297D02*
X5624222D01*
Y2654302D01*
X5629220Y2649304D01*
X5649213D01*
X5654212Y2654302D01*
Y2669297D01*
X5624222Y2639307D02*
Y2629310D01*
Y2634309D01*
X5654212D01*
X5649213Y2639307D01*
X5624222Y2594322D02*
Y2614315D01*
X5644215Y2594322D01*
X5649213D01*
X5654212Y2599320D01*
Y2609317D01*
X5649213Y2614315D01*
X5507323Y2699288D02*
X5477333D01*
Y2679294D01*
X5507323Y2669297D02*
X5477333D01*
Y2654302D01*
X5482331Y2649304D01*
X5502325D01*
X5507323Y2654302D01*
Y2669297D01*
X5477333Y2639307D02*
Y2629310D01*
Y2634309D01*
X5507323D01*
X5502325Y2639307D01*
Y2614315D02*
X5507323Y2609317D01*
Y2599320D01*
X5502325Y2594322D01*
X5497326D01*
X5492328Y2599320D01*
Y2604318D01*
Y2599320D01*
X5487330Y2594322D01*
X5482331D01*
X5477333Y2599320D01*
Y2609317D01*
X5482331Y2614315D01*
X5947989Y2699288D02*
X5917999D01*
Y2679294D01*
X5947989Y2669297D02*
X5917999D01*
Y2654302D01*
X5922998Y2649304D01*
X5942991D01*
X5947989Y2654302D01*
Y2669297D01*
X5917999Y2639307D02*
Y2629310D01*
Y2634309D01*
X5947989D01*
X5942991Y2639307D01*
Y2614315D02*
X5947989Y2609317D01*
Y2599320D01*
X5942991Y2594322D01*
X5922998D01*
X5917999Y2599320D01*
Y2609317D01*
X5922998Y2614315D01*
X5942991D01*
X5211546Y408000D02*
X5181555D01*
Y388007D01*
X5211546Y378010D02*
X5181555D01*
Y363014D01*
X5186554Y358016D01*
X5206547D01*
X5211546Y363014D01*
Y378010D01*
X5206547Y348019D02*
X5211546Y343021D01*
Y333024D01*
X5206547Y328026D01*
X5186554D01*
X5181555Y333024D01*
Y343021D01*
X5186554Y348019D01*
X5206547D01*
X5211546Y298036D02*
Y318029D01*
X5196550D01*
X5201549Y308032D01*
Y303034D01*
X5196550Y298036D01*
X5186554D01*
X5181555Y303034D01*
Y313031D01*
X5186554Y318029D01*
X5799101Y403000D02*
X5769110D01*
Y383007D01*
X5799101Y373010D02*
X5769110D01*
Y358014D01*
X5774109Y353016D01*
X5794102D01*
X5799101Y358014D01*
Y373010D01*
X5794102Y343019D02*
X5799101Y338021D01*
Y328024D01*
X5794102Y323026D01*
X5774109D01*
X5769110Y328024D01*
Y338021D01*
X5774109Y343019D01*
X5794102D01*
X5769110Y313029D02*
Y303032D01*
Y308031D01*
X5799101D01*
X5794102Y313029D01*
X5652212Y408000D02*
X5622222D01*
Y388007D01*
X5652212Y378010D02*
X5622222D01*
Y363014D01*
X5627220Y358016D01*
X5647213D01*
X5652212Y363014D01*
Y378010D01*
X5647213Y348019D02*
X5652212Y343021D01*
Y333024D01*
X5647213Y328026D01*
X5627220D01*
X5622222Y333024D01*
Y343021D01*
X5627220Y348019D01*
X5647213D01*
X5622222Y298036D02*
Y318029D01*
X5642215Y298036D01*
X5647213D01*
X5652212Y303034D01*
Y313031D01*
X5647213Y318029D01*
X5505323Y408000D02*
X5475333D01*
Y388007D01*
X5505323Y378010D02*
X5475333D01*
Y363014D01*
X5480331Y358016D01*
X5500325D01*
X5505323Y363014D01*
Y378010D01*
X5500325Y348019D02*
X5505323Y343021D01*
Y333024D01*
X5500325Y328026D01*
X5480331D01*
X5475333Y333024D01*
Y343021D01*
X5480331Y348019D01*
X5500325D01*
Y318029D02*
X5505323Y313031D01*
Y303034D01*
X5500325Y298036D01*
X5495326D01*
X5490328Y303034D01*
Y308032D01*
Y303034D01*
X5485330Y298036D01*
X5480331D01*
X5475333Y303034D01*
Y313031D01*
X5480331Y318029D01*
X5211546Y1063654D02*
X5181555D01*
Y1043660D01*
X5211546Y1033663D02*
X5181555D01*
Y1018668D01*
X5186554Y1013670D01*
X5206547D01*
X5211546Y1018668D01*
Y1033663D01*
X5181555Y988678D02*
X5211546D01*
X5196550Y1003673D01*
Y983679D01*
X5211546Y953689D02*
Y973683D01*
X5196550D01*
X5201549Y963686D01*
Y958688D01*
X5196550Y953689D01*
X5186554D01*
X5181555Y958688D01*
Y968684D01*
X5186554Y973683D01*
X5505323Y1063654D02*
X5475333D01*
Y1043660D01*
X5505323Y1033663D02*
X5475333D01*
Y1018668D01*
X5480331Y1013670D01*
X5500325D01*
X5505323Y1018668D01*
Y1033663D01*
X5475333Y988678D02*
X5505323D01*
X5490328Y1003673D01*
Y983679D01*
X5500325Y973683D02*
X5505323Y968684D01*
Y958688D01*
X5500325Y953689D01*
X5495326D01*
X5490328Y958688D01*
Y963686D01*
Y958688D01*
X5485330Y953689D01*
X5480331D01*
X5475333Y958688D01*
Y968684D01*
X5480331Y973683D01*
X5652212Y1063654D02*
X5622222D01*
Y1043660D01*
X5652212Y1033663D02*
X5622222D01*
Y1018668D01*
X5627220Y1013670D01*
X5647213D01*
X5652212Y1018668D01*
Y1033663D01*
X5622222Y988678D02*
X5652212D01*
X5637217Y1003673D01*
Y983679D01*
X5622222Y953689D02*
Y973683D01*
X5642215Y953689D01*
X5647213D01*
X5652212Y958688D01*
Y968684D01*
X5647213Y973683D01*
X5358434Y1063654D02*
X5328444D01*
Y1043660D01*
X5358434Y1033663D02*
X5328444D01*
Y1018668D01*
X5333442Y1013670D01*
X5353436D01*
X5358434Y1018668D01*
Y1033663D01*
X5328444Y988678D02*
X5358434D01*
X5343439Y1003673D01*
Y983679D01*
X5328444Y958688D02*
X5358434D01*
X5343439Y973683D01*
Y953689D01*
X5945989Y408000D02*
X5915999D01*
Y388007D01*
X5945989Y378010D02*
X5915999D01*
Y363014D01*
X5920998Y358016D01*
X5940991D01*
X5945989Y363014D01*
Y378010D01*
X5940991Y348019D02*
X5945989Y343021D01*
Y333024D01*
X5940991Y328026D01*
X5920998D01*
X5915999Y333024D01*
Y343021D01*
X5920998Y348019D01*
X5940991D01*
Y318029D02*
X5945989Y313031D01*
Y303034D01*
X5940991Y298036D01*
X5920998D01*
X5915999Y303034D01*
Y313031D01*
X5920998Y318029D01*
X5940991D01*
X5799101Y730327D02*
X5769110D01*
Y710333D01*
X5799101Y700337D02*
X5769110D01*
Y685341D01*
X5774109Y680343D01*
X5794102D01*
X5799101Y685341D01*
Y700337D01*
X5769110Y650353D02*
Y670346D01*
X5789104Y650353D01*
X5794102D01*
X5799101Y655351D01*
Y665348D01*
X5794102Y670346D01*
X5769110Y640356D02*
Y630359D01*
Y635357D01*
X5799101D01*
X5794102Y640356D01*
X5945989Y735327D02*
X5915999D01*
Y715333D01*
X5945989Y705337D02*
X5915999D01*
Y690341D01*
X5920998Y685343D01*
X5940991D01*
X5945989Y690341D01*
Y705337D01*
X5915999Y655353D02*
Y675346D01*
X5935993Y655353D01*
X5940991D01*
X5945989Y660351D01*
Y670348D01*
X5940991Y675346D01*
Y645356D02*
X5945989Y640357D01*
Y630361D01*
X5940991Y625362D01*
X5920998D01*
X5915999Y630361D01*
Y640357D01*
X5920998Y645356D01*
X5940991D01*
X5358434Y735327D02*
X5328444D01*
Y715333D01*
X5358434Y705337D02*
X5328444D01*
Y690341D01*
X5333442Y685343D01*
X5353436D01*
X5358434Y690341D01*
Y705337D01*
X5328444Y655353D02*
Y675346D01*
X5348438Y655353D01*
X5353436D01*
X5358434Y660351D01*
Y670348D01*
X5353436Y675346D01*
X5328444Y630361D02*
X5358434D01*
X5343439Y645356D01*
Y625362D01*
X5652212Y735327D02*
X5622222D01*
Y715333D01*
X5652212Y705337D02*
X5622222D01*
Y690341D01*
X5627220Y685343D01*
X5647213D01*
X5652212Y690341D01*
Y705337D01*
X5622222Y655353D02*
Y675346D01*
X5642215Y655353D01*
X5647213D01*
X5652212Y660351D01*
Y670348D01*
X5647213Y675346D01*
X5622222Y625362D02*
Y645356D01*
X5642215Y625362D01*
X5647213D01*
X5652212Y630361D01*
Y640357D01*
X5647213Y645356D01*
X5505323Y735327D02*
X5475333D01*
Y715333D01*
X5505323Y705337D02*
X5475333D01*
Y690341D01*
X5480331Y685343D01*
X5500325D01*
X5505323Y690341D01*
Y705337D01*
X5475333Y655353D02*
Y675346D01*
X5495326Y655353D01*
X5500325D01*
X5505323Y660351D01*
Y670348D01*
X5500325Y675346D01*
Y645356D02*
X5505323Y640357D01*
Y630361D01*
X5500325Y625362D01*
X5495326D01*
X5490328Y630361D01*
Y635359D01*
Y630361D01*
X5485330Y625362D01*
X5480331D01*
X5475333Y630361D01*
Y640357D01*
X5480331Y645356D01*
X5799101Y1058654D02*
X5769110D01*
Y1038660D01*
X5799101Y1028663D02*
X5769110D01*
Y1013668D01*
X5774109Y1008670D01*
X5794102D01*
X5799101Y1013668D01*
Y1028663D01*
X5769110Y983678D02*
X5799101D01*
X5784106Y998673D01*
Y978679D01*
X5769110Y968683D02*
Y958686D01*
Y963684D01*
X5799101D01*
X5794102Y968683D01*
X4623990Y2373961D02*
X4594000D01*
Y2353967D01*
X4623990Y2343970D02*
X4594000D01*
Y2328975D01*
X4598998Y2323977D01*
X4618992D01*
X4623990Y2328975D01*
Y2343970D01*
X4618992Y2313980D02*
X4623990Y2308982D01*
Y2298985D01*
X4618992Y2293987D01*
X4613993D01*
X4608995Y2298985D01*
Y2303983D01*
Y2298985D01*
X4603997Y2293987D01*
X4598998D01*
X4594000Y2298985D01*
Y2308982D01*
X4598998Y2313980D01*
Y2283990D02*
X4594000Y2278992D01*
Y2268995D01*
X4598998Y2263996D01*
X4618992D01*
X4623990Y2268995D01*
Y2278992D01*
X4618992Y2283990D01*
X4613993D01*
X4608995Y2278992D01*
Y2263996D01*
X5945989Y1063654D02*
X5915999D01*
Y1043660D01*
X5945989Y1033663D02*
X5915999D01*
Y1018668D01*
X5920998Y1013670D01*
X5940991D01*
X5945989Y1018668D01*
Y1033663D01*
X5915999Y988678D02*
X5945989D01*
X5930994Y1003673D01*
Y983679D01*
X5940991Y973683D02*
X5945989Y968684D01*
Y958688D01*
X5940991Y953689D01*
X5920998D01*
X5915999Y958688D01*
Y968684D01*
X5920998Y973683D01*
X5940991D01*
X4623990Y408000D02*
X4594000D01*
Y388007D01*
X4623990Y378010D02*
X4594000D01*
Y363014D01*
X4598998Y358016D01*
X4618992D01*
X4623990Y363014D01*
Y378010D01*
X4618992Y348019D02*
X4623990Y343021D01*
Y333024D01*
X4618992Y328026D01*
X4598998D01*
X4594000Y333024D01*
Y343021D01*
X4598998Y348019D01*
X4618992D01*
X4598998Y318029D02*
X4594000Y313031D01*
Y303034D01*
X4598998Y298036D01*
X4618992D01*
X4623990Y303034D01*
Y313031D01*
X4618992Y318029D01*
X4613993D01*
X4608995Y313031D01*
Y298036D01*
X4770879Y735327D02*
X4740889D01*
Y715333D01*
X4770879Y705337D02*
X4740889D01*
Y690341D01*
X4745887Y685343D01*
X4765881D01*
X4770879Y690341D01*
Y705337D01*
X4740889Y655353D02*
Y675346D01*
X4760882Y655353D01*
X4765881D01*
X4770879Y660351D01*
Y670348D01*
X4765881Y675346D01*
Y645356D02*
X4770879Y640357D01*
Y630361D01*
X4765881Y625362D01*
X4760882D01*
X4755884Y630361D01*
X4750886Y625362D01*
X4745887D01*
X4740889Y630361D01*
Y640357D01*
X4745887Y645356D01*
X4750886D01*
X4755884Y640357D01*
X4760882Y645356D01*
X4765881D01*
X4755884Y640357D02*
Y630361D01*
X4623990Y735327D02*
X4594000D01*
Y715333D01*
X4623990Y705337D02*
X4594000D01*
Y690341D01*
X4598998Y685343D01*
X4618992D01*
X4623990Y690341D01*
Y705337D01*
X4594000Y655353D02*
Y675346D01*
X4613993Y655353D01*
X4618992D01*
X4623990Y660351D01*
Y670348D01*
X4618992Y675346D01*
X4598998Y645356D02*
X4594000Y640357D01*
Y630361D01*
X4598998Y625362D01*
X4618992D01*
X4623990Y630361D01*
Y640357D01*
X4618992Y645356D01*
X4613993D01*
X4608995Y640357D01*
Y625362D01*
X4770879Y408000D02*
X4740889D01*
Y388007D01*
X4770879Y378010D02*
X4740889D01*
Y363014D01*
X4745887Y358016D01*
X4765881D01*
X4770879Y363014D01*
Y378010D01*
X4765881Y348019D02*
X4770879Y343021D01*
Y333024D01*
X4765881Y328026D01*
X4745887D01*
X4740889Y333024D01*
Y343021D01*
X4745887Y348019D01*
X4765881D01*
Y318029D02*
X4770879Y313031D01*
Y303034D01*
X4765881Y298036D01*
X4760882D01*
X4755884Y303034D01*
X4750886Y298036D01*
X4745887D01*
X4740889Y303034D01*
Y313031D01*
X4745887Y318029D01*
X4750886D01*
X4755884Y313031D01*
X4760882Y318029D01*
X4765881D01*
X4755884Y313031D02*
Y303034D01*
X4623990Y1063654D02*
X4594000D01*
Y1043660D01*
X4623990Y1033663D02*
X4594000D01*
Y1018668D01*
X4598998Y1013670D01*
X4618992D01*
X4623990Y1018668D01*
Y1033663D01*
X4594000Y988678D02*
X4623990D01*
X4608995Y1003673D01*
Y983679D01*
X4598998Y973683D02*
X4594000Y968684D01*
Y958688D01*
X4598998Y953689D01*
X4618992D01*
X4623990Y958688D01*
Y968684D01*
X4618992Y973683D01*
X4613993D01*
X4608995Y968684D01*
Y953689D01*
X5064657Y1063654D02*
X5034666D01*
Y1043660D01*
X5064657Y1033663D02*
X5034666D01*
Y1018668D01*
X5039665Y1013670D01*
X5059658D01*
X5064657Y1018668D01*
Y1033663D01*
X5034666Y988678D02*
X5064657D01*
X5049662Y1003673D01*
Y983679D01*
X5064657Y953689D02*
X5059658Y963686D01*
X5049662Y973683D01*
X5039665D01*
X5034666Y968684D01*
Y958688D01*
X5039665Y953689D01*
X5044663D01*
X5049662Y958688D01*
Y973683D01*
X4623990Y1390980D02*
X4594000D01*
Y1370987D01*
X4623990Y1360990D02*
X4594000D01*
Y1345995D01*
X4598998Y1340997D01*
X4618992D01*
X4623990Y1345995D01*
Y1360990D01*
Y1311006D02*
X4618992Y1321003D01*
X4608995Y1331000D01*
X4598998D01*
X4594000Y1326001D01*
Y1316005D01*
X4598998Y1311006D01*
X4603997D01*
X4608995Y1316005D01*
Y1331000D01*
X4598998Y1301009D02*
X4594000Y1296011D01*
Y1286014D01*
X4598998Y1281016D01*
X4618992D01*
X4623990Y1286014D01*
Y1296011D01*
X4618992Y1301009D01*
X4613993D01*
X4608995Y1296011D01*
Y1281016D01*
X4917768Y1390980D02*
X4887778D01*
Y1370987D01*
X4917768Y1360990D02*
X4887778D01*
Y1345995D01*
X4892776Y1340997D01*
X4912770D01*
X4917768Y1345995D01*
Y1360990D01*
Y1311006D02*
X4912770Y1321003D01*
X4902773Y1331000D01*
X4892776D01*
X4887778Y1326001D01*
Y1316005D01*
X4892776Y1311006D01*
X4897774D01*
X4902773Y1316005D01*
Y1331000D01*
X4917768Y1301009D02*
Y1281016D01*
X4912770D01*
X4892776Y1301009D01*
X4887778D01*
X5064657Y1390980D02*
X5034666D01*
Y1370987D01*
X5064657Y1360990D02*
X5034666D01*
Y1345995D01*
X5039665Y1340997D01*
X5059658D01*
X5064657Y1345995D01*
Y1360990D01*
Y1311006D02*
X5059658Y1321003D01*
X5049662Y1331000D01*
X5039665D01*
X5034666Y1326001D01*
Y1316005D01*
X5039665Y1311006D01*
X5044663D01*
X5049662Y1316005D01*
Y1331000D01*
X5064657Y1281016D02*
X5059658Y1291013D01*
X5049662Y1301009D01*
X5039665D01*
X5034666Y1296011D01*
Y1286014D01*
X5039665Y1281016D01*
X5044663D01*
X5049662Y1286014D01*
Y1301009D01*
X4917768Y1063654D02*
X4887778D01*
Y1043660D01*
X4917768Y1033663D02*
X4887778D01*
Y1018668D01*
X4892776Y1013670D01*
X4912770D01*
X4917768Y1018668D01*
Y1033663D01*
X4887778Y988678D02*
X4917768D01*
X4902773Y1003673D01*
Y983679D01*
X4917768Y973683D02*
Y953689D01*
X4912770D01*
X4892776Y973683D01*
X4887778D01*
X4770879Y1390980D02*
X4740889D01*
Y1370987D01*
X4770879Y1360990D02*
X4740889D01*
Y1345995D01*
X4745887Y1340997D01*
X4765881D01*
X4770879Y1345995D01*
Y1360990D01*
Y1311006D02*
X4765881Y1321003D01*
X4755884Y1331000D01*
X4745887D01*
X4740889Y1326001D01*
Y1316005D01*
X4745887Y1311006D01*
X4750886D01*
X4755884Y1316005D01*
Y1331000D01*
X4765881Y1301009D02*
X4770879Y1296011D01*
Y1286014D01*
X4765881Y1281016D01*
X4760882D01*
X4755884Y1286014D01*
X4750886Y1281016D01*
X4745887D01*
X4740889Y1286014D01*
Y1296011D01*
X4745887Y1301009D01*
X4750886D01*
X4755884Y1296011D01*
X4760882Y1301009D01*
X4765881D01*
X4755884Y1296011D02*
Y1286014D01*
X4770879Y1063654D02*
X4740889D01*
Y1043660D01*
X4770879Y1033663D02*
X4740889D01*
Y1018668D01*
X4745887Y1013670D01*
X4765881D01*
X4770879Y1018668D01*
Y1033663D01*
X4740889Y988678D02*
X4770879D01*
X4755884Y1003673D01*
Y983679D01*
X4765881Y973683D02*
X4770879Y968684D01*
Y958688D01*
X4765881Y953689D01*
X4760882D01*
X4755884Y958688D01*
X4750886Y953689D01*
X4745887D01*
X4740889Y958688D01*
Y968684D01*
X4745887Y973683D01*
X4750886D01*
X4755884Y968684D01*
X4760882Y973683D01*
X4765881D01*
X4755884Y968684D02*
Y958688D01*
X4623990Y1718307D02*
X4594000D01*
Y1698314D01*
X4623990Y1688317D02*
X4594000D01*
Y1673322D01*
X4598998Y1668323D01*
X4618992D01*
X4623990Y1673322D01*
Y1688317D01*
Y1658327D02*
Y1638333D01*
X4618992D01*
X4598998Y1658327D01*
X4594000D01*
X4598998Y1628336D02*
X4594000Y1623338D01*
Y1613341D01*
X4598998Y1608343D01*
X4618992D01*
X4623990Y1613341D01*
Y1623338D01*
X4618992Y1628336D01*
X4613993D01*
X4608995Y1623338D01*
Y1608343D01*
X4770879Y2046634D02*
X4740889D01*
Y2026640D01*
X4770879Y2016644D02*
X4740889D01*
Y2001649D01*
X4745887Y1996650D01*
X4765881D01*
X4770879Y2001649D01*
Y2016644D01*
Y1966660D02*
Y1986653D01*
X4755884D01*
X4760882Y1976657D01*
Y1971658D01*
X4755884Y1966660D01*
X4745887D01*
X4740889Y1971658D01*
Y1981655D01*
X4745887Y1986653D01*
X4765881Y1956663D02*
X4770879Y1951665D01*
Y1941668D01*
X4765881Y1936670D01*
X4760882D01*
X4755884Y1941668D01*
X4750886Y1936670D01*
X4745887D01*
X4740889Y1941668D01*
Y1951665D01*
X4745887Y1956663D01*
X4750886D01*
X4755884Y1951665D01*
X4760882Y1956663D01*
X4765881D01*
X4755884Y1951665D02*
Y1941668D01*
X4770879Y1718307D02*
X4740889D01*
Y1698314D01*
X4770879Y1688317D02*
X4740889D01*
Y1673322D01*
X4745887Y1668323D01*
X4765881D01*
X4770879Y1673322D01*
Y1688317D01*
Y1658327D02*
Y1638333D01*
X4765881D01*
X4745887Y1658327D01*
X4740889D01*
X4765881Y1628336D02*
X4770879Y1623338D01*
Y1613341D01*
X4765881Y1608343D01*
X4760882D01*
X4755884Y1613341D01*
X4750886Y1608343D01*
X4745887D01*
X4740889Y1613341D01*
Y1623338D01*
X4745887Y1628336D01*
X4750886D01*
X4755884Y1623338D01*
X4760882Y1628336D01*
X4765881D01*
X4755884Y1623338D02*
Y1613341D01*
X4623990Y2046634D02*
X4594000D01*
Y2026640D01*
X4623990Y2016644D02*
X4594000D01*
Y2001649D01*
X4598998Y1996650D01*
X4618992D01*
X4623990Y2001649D01*
Y2016644D01*
Y1966660D02*
Y1986653D01*
X4608995D01*
X4613993Y1976657D01*
Y1971658D01*
X4608995Y1966660D01*
X4598998D01*
X4594000Y1971658D01*
Y1981655D01*
X4598998Y1986653D01*
Y1956663D02*
X4594000Y1951665D01*
Y1941668D01*
X4598998Y1936670D01*
X4618992D01*
X4623990Y1941668D01*
Y1951665D01*
X4618992Y1956663D01*
X4613993D01*
X4608995Y1951665D01*
Y1936670D01*
X4917768Y408000D02*
X4887778D01*
Y388007D01*
X4917768Y378010D02*
X4887778D01*
Y363014D01*
X4892776Y358016D01*
X4912770D01*
X4917768Y363014D01*
Y378010D01*
X4912770Y348019D02*
X4917768Y343021D01*
Y333024D01*
X4912770Y328026D01*
X4892776D01*
X4887778Y333024D01*
Y343021D01*
X4892776Y348019D01*
X4912770D01*
X4917768Y318029D02*
Y298036D01*
X4912770D01*
X4892776Y318029D01*
X4887778D01*
X4917768Y735327D02*
X4887778D01*
Y715333D01*
X4917768Y705337D02*
X4887778D01*
Y690341D01*
X4892776Y685343D01*
X4912770D01*
X4917768Y690341D01*
Y705337D01*
X4887778Y655353D02*
Y675346D01*
X4907771Y655353D01*
X4912770D01*
X4917768Y660351D01*
Y670348D01*
X4912770Y675346D01*
X4917768Y645356D02*
Y625362D01*
X4912770D01*
X4892776Y645356D01*
X4887778D01*
X5064657Y735327D02*
X5034666D01*
Y715333D01*
X5064657Y705337D02*
X5034666D01*
Y690341D01*
X5039665Y685343D01*
X5059658D01*
X5064657Y690341D01*
Y705337D01*
X5034666Y655353D02*
Y675346D01*
X5054660Y655353D01*
X5059658D01*
X5064657Y660351D01*
Y670348D01*
X5059658Y675346D01*
X5064657Y625362D02*
X5059658Y635359D01*
X5049662Y645356D01*
X5039665D01*
X5034666Y640357D01*
Y630361D01*
X5039665Y625362D01*
X5044663D01*
X5049662Y630361D01*
Y645356D01*
X5064657Y408000D02*
X5034666D01*
Y388007D01*
X5064657Y378010D02*
X5034666D01*
Y363014D01*
X5039665Y358016D01*
X5059658D01*
X5064657Y363014D01*
Y378010D01*
X5059658Y348019D02*
X5064657Y343021D01*
Y333024D01*
X5059658Y328026D01*
X5039665D01*
X5034666Y333024D01*
Y343021D01*
X5039665Y348019D01*
X5059658D01*
X5064657Y298036D02*
X5059658Y308032D01*
X5049662Y318029D01*
X5039665D01*
X5034666Y313031D01*
Y303034D01*
X5039665Y298036D01*
X5044663D01*
X5049662Y303034D01*
Y318029D01*
X5064657Y1718307D02*
X5034666D01*
Y1698314D01*
X5064657Y1688317D02*
X5034666D01*
Y1673322D01*
X5039665Y1668323D01*
X5059658D01*
X5064657Y1673322D01*
Y1688317D01*
Y1658327D02*
Y1638333D01*
X5059658D01*
X5039665Y1658327D01*
X5034666D01*
X5064657Y1608343D02*
X5059658Y1618340D01*
X5049662Y1628336D01*
X5039665D01*
X5034666Y1623338D01*
Y1613341D01*
X5039665Y1608343D01*
X5044663D01*
X5049662Y1613341D01*
Y1628336D01*
X4917768Y2046634D02*
X4887778D01*
Y2026640D01*
X4917768Y2016644D02*
X4887778D01*
Y2001649D01*
X4892776Y1996650D01*
X4912770D01*
X4917768Y2001649D01*
Y2016644D01*
Y1966660D02*
Y1986653D01*
X4902773D01*
X4907771Y1976657D01*
Y1971658D01*
X4902773Y1966660D01*
X4892776D01*
X4887778Y1971658D01*
Y1981655D01*
X4892776Y1986653D01*
X4917768Y1956663D02*
Y1936670D01*
X4912770D01*
X4892776Y1956663D01*
X4887778D01*
X4917768Y1718307D02*
X4887778D01*
Y1698314D01*
X4917768Y1688317D02*
X4887778D01*
Y1673322D01*
X4892776Y1668323D01*
X4912770D01*
X4917768Y1673322D01*
Y1688317D01*
Y1658327D02*
Y1638333D01*
X4912770D01*
X4892776Y1658327D01*
X4887778D01*
X4917768Y1628336D02*
Y1608343D01*
X4912770D01*
X4892776Y1628336D01*
X4887778D01*
X5064657Y2046634D02*
X5034666D01*
Y2026640D01*
X5064657Y2016644D02*
X5034666D01*
Y2001649D01*
X5039665Y1996650D01*
X5059658D01*
X5064657Y2001649D01*
Y2016644D01*
Y1966660D02*
Y1986653D01*
X5049662D01*
X5054660Y1976657D01*
Y1971658D01*
X5049662Y1966660D01*
X5039665D01*
X5034666Y1971658D01*
Y1981655D01*
X5039665Y1986653D01*
X5064657Y1936670D02*
X5059658Y1946666D01*
X5049662Y1956663D01*
X5039665D01*
X5034666Y1951665D01*
Y1941668D01*
X5039665Y1936670D01*
X5044663D01*
X5049662Y1941668D01*
Y1956663D01*
X3247000Y1347819D02*
Y1377809D01*
X3261995D01*
X3266994Y1372811D01*
Y1362814D01*
X3261995Y1357816D01*
X3247000D01*
X3256997D02*
X3266994Y1347819D01*
X3296984Y1377809D02*
X3286987Y1372811D01*
X3276990Y1362814D01*
Y1352817D01*
X3281989Y1347819D01*
X3291985D01*
X3296984Y1352817D01*
Y1357816D01*
X3291985Y1362814D01*
X3276990D01*
X3306981Y1377809D02*
X3326974D01*
Y1372811D01*
X3306981Y1352817D01*
Y1347819D01*
X2335006Y962997D02*
X2330008Y967995D01*
X2320011D01*
X2315013Y962997D01*
Y943003D01*
X2320011Y938005D01*
X2330008D01*
X2335006Y943003D01*
X2364997Y938005D02*
X2345003D01*
X2364997Y957998D01*
Y962997D01*
X2359999Y967995D01*
X2350002D01*
X2345003Y962997D01*
X2374994Y967995D02*
X2394987D01*
Y962997D01*
X2374994Y943003D01*
Y938005D01*
X1387000Y1092819D02*
Y1122809D01*
X1401995D01*
X1406994Y1117811D01*
Y1107814D01*
X1401995Y1102816D01*
X1387000D01*
X1396997D02*
X1406994Y1092819D01*
X1436984D02*
X1416990D01*
X1436984Y1112812D01*
Y1117811D01*
X1431986Y1122809D01*
X1421989D01*
X1416990Y1117811D01*
X1446981Y1092819D02*
X1456977D01*
X1451979D01*
Y1122809D01*
X1446981Y1117811D01*
X2018000Y313000D02*
Y342990D01*
X2032995D01*
X2037994Y337992D01*
Y327995D01*
X2032995Y322997D01*
X2018000D01*
X2027997D02*
X2037994Y313000D01*
X2067984Y342990D02*
X2047990D01*
Y327995D01*
X2057987Y332994D01*
X2062985D01*
X2067984Y327995D01*
Y317999D01*
X2062985Y313000D01*
X2052989D01*
X2047990Y317999D01*
X2077981Y337992D02*
X2082979Y342990D01*
X2092976D01*
X2097974Y337992D01*
Y317999D01*
X2092976Y313000D01*
X2082979D01*
X2077981Y317999D01*
Y337992D01*
X2281000Y316609D02*
Y346599D01*
X2295995D01*
X2300994Y341601D01*
Y331604D01*
X2295995Y326606D01*
X2281000D01*
X2290997D02*
X2300994Y316609D01*
X2330984Y346599D02*
X2320987Y341601D01*
X2310990Y331604D01*
Y321608D01*
X2315989Y316609D01*
X2325985D01*
X2330984Y321608D01*
Y326606D01*
X2325985Y331604D01*
X2310990D01*
X2355976Y316609D02*
Y346599D01*
X2340981Y331604D01*
X2360974D01*
X1201008Y312006D02*
Y341996D01*
X1216003D01*
X1221002Y336998D01*
Y327001D01*
X1216003Y322003D01*
X1201008D01*
X1211005D02*
X1221002Y312006D01*
X1250992Y341996D02*
X1240995Y336998D01*
X1230998Y327001D01*
Y317004D01*
X1235997Y312006D01*
X1245994D01*
X1250992Y317004D01*
Y322003D01*
X1245994Y327001D01*
X1230998D01*
X2281013Y166004D02*
Y195994D01*
X2296008D01*
X2301006Y190996D01*
Y180999D01*
X2296008Y176001D01*
X2281013D01*
X2291010D02*
X2301006Y166004D01*
X2330997Y195994D02*
X2321000Y190996D01*
X2311003Y180999D01*
Y171003D01*
X2316002Y166004D01*
X2325999D01*
X2330997Y171003D01*
Y176001D01*
X2325999Y180999D01*
X2311003D01*
X2360987Y195994D02*
X2340994D01*
Y180999D01*
X2350990Y185998D01*
X2355989D01*
X2360987Y180999D01*
Y171003D01*
X2355989Y166004D01*
X2345992D01*
X2340994Y171003D01*
X2131000Y166868D02*
Y196858D01*
X2145995D01*
X2150994Y191860D01*
Y181863D01*
X2145995Y176865D01*
X2131000D01*
X2140997D02*
X2150994Y166868D01*
X2180984Y196858D02*
X2170987Y191860D01*
X2160990Y181863D01*
Y171867D01*
X2165989Y166868D01*
X2175985D01*
X2180984Y171867D01*
Y176865D01*
X2175985Y181863D01*
X2160990D01*
X2190981Y191860D02*
X2195979Y196858D01*
X2205976D01*
X2210974Y191860D01*
Y186862D01*
X2205976Y181863D01*
X2200977D01*
X2205976D01*
X2210974Y176865D01*
Y171867D01*
X2205976Y166868D01*
X2195979D01*
X2190981Y171867D01*
X2017500Y163998D02*
Y193988D01*
X2032495D01*
X2037494Y188990D01*
Y178993D01*
X2032495Y173995D01*
X2017500D01*
X2027497D02*
X2037494Y163998D01*
X2067484Y193988D02*
X2047490D01*
Y178993D01*
X2057487Y183991D01*
X2062485D01*
X2067484Y178993D01*
Y168996D01*
X2062485Y163998D01*
X2052489D01*
X2047490Y168996D01*
X2097474Y163998D02*
X2077481D01*
X2097474Y183991D01*
Y188990D01*
X2092476Y193988D01*
X2082479D01*
X2077481Y188990D01*
X1082000Y784990D02*
Y755000D01*
X1096995D01*
X1101994Y759998D01*
Y779992D01*
X1096995Y784990D01*
X1082000D01*
X1131984Y755000D02*
X1111990D01*
X1131984Y774994D01*
Y779992D01*
X1126986Y784990D01*
X1116989D01*
X1111990Y779992D01*
X2593000Y111990D02*
Y82000D01*
X2607995D01*
X2612994Y86998D01*
Y106992D01*
X2607995Y111990D01*
X2593000D01*
X2622990Y82000D02*
X2632987D01*
X2627989D01*
Y111990D01*
X2622990Y106992D01*
X2647982D02*
X2652981Y111990D01*
X2662977D01*
X2667976Y106992D01*
Y101993D01*
X2662977Y96995D01*
X2657979D01*
X2662977D01*
X2667976Y91997D01*
Y86998D01*
X2662977Y82000D01*
X2652981D01*
X2647982Y86998D01*
X2593000Y223990D02*
Y194000D01*
X2607995D01*
X2612994Y198998D01*
Y218992D01*
X2607995Y223990D01*
X2593000D01*
X2622990Y194000D02*
X2632987D01*
X2627989D01*
Y223990D01*
X2622990Y218992D01*
X2662977Y194000D02*
Y223990D01*
X2647982Y208995D01*
X2667976D01*
X2097632Y1490997D02*
X2092634Y1495995D01*
X2082637D01*
X2077639Y1490997D01*
Y1471003D01*
X2082637Y1466005D01*
X2092634D01*
X2097632Y1471003D01*
X2107629Y1466005D02*
X2117626D01*
X2112627D01*
Y1495995D01*
X2107629Y1490997D01*
X2132621Y1471003D02*
X2137619Y1466005D01*
X2147616D01*
X2152614Y1471003D01*
Y1490997D01*
X2147616Y1495995D01*
X2137619D01*
X2132621Y1490997D01*
Y1485998D01*
X2137619Y1481000D01*
X2152614D01*
X1947000Y981907D02*
Y1011897D01*
X1961995D01*
X1966994Y1006898D01*
Y996902D01*
X1961995Y991903D01*
X1947000D01*
X1956997D02*
X1966994Y981907D01*
X1991986D02*
Y1011897D01*
X1976990Y996902D01*
X1996984D01*
X2006981Y1011897D02*
X2026974D01*
Y1006898D01*
X2006981Y986905D01*
Y981907D01*
X2006000Y1219000D02*
Y1248990D01*
X2020995D01*
X2025994Y1243992D01*
Y1233995D01*
X2020995Y1228997D01*
X2006000D01*
X2015997D02*
X2025994Y1219000D01*
X2035990Y1243992D02*
X2040989Y1248990D01*
X2050985D01*
X2055984Y1243992D01*
Y1238994D01*
X2050985Y1233995D01*
X2045987D01*
X2050985D01*
X2055984Y1228997D01*
Y1223998D01*
X2050985Y1219000D01*
X2040989D01*
X2035990Y1223998D01*
X2065981Y1248990D02*
X2085974D01*
Y1243992D01*
X2065981Y1223998D01*
Y1219000D01*
X2006000Y1092819D02*
Y1122809D01*
X2020995D01*
X2025994Y1117811D01*
Y1107814D01*
X2020995Y1102816D01*
X2006000D01*
X2015997D02*
X2025994Y1092819D01*
X2035990Y1117811D02*
X2040989Y1122809D01*
X2050985D01*
X2055984Y1117811D01*
Y1112812D01*
X2050985Y1107814D01*
X2045987D01*
X2050985D01*
X2055984Y1102816D01*
Y1097817D01*
X2050985Y1092819D01*
X2040989D01*
X2035990Y1097817D01*
X2065981Y1117811D02*
X2070979Y1122809D01*
X2080976D01*
X2085974Y1117811D01*
Y1112812D01*
X2080976Y1107814D01*
X2085974Y1102816D01*
Y1097817D01*
X2080976Y1092819D01*
X2070979D01*
X2065981Y1097817D01*
Y1102816D01*
X2070979Y1107814D01*
X2065981Y1112812D01*
Y1117811D01*
X2070979Y1107814D02*
X2080976D01*
X2006000Y1344819D02*
Y1374809D01*
X2020995D01*
X2025994Y1369811D01*
Y1359814D01*
X2020995Y1354816D01*
X2006000D01*
X2015997D02*
X2025994Y1344819D01*
X2035990Y1369811D02*
X2040989Y1374809D01*
X2050985D01*
X2055984Y1369811D01*
Y1364812D01*
X2050985Y1359814D01*
X2045987D01*
X2050985D01*
X2055984Y1354816D01*
Y1349817D01*
X2050985Y1344819D01*
X2040989D01*
X2035990Y1349817D01*
X2085974Y1374809D02*
X2075977Y1369811D01*
X2065981Y1359814D01*
Y1349817D01*
X2070979Y1344819D01*
X2080976D01*
X2085974Y1349817D01*
Y1354816D01*
X2080976Y1359814D01*
X2065981D01*
X2155000Y1344819D02*
Y1374809D01*
X2169995D01*
X2174994Y1369811D01*
Y1359814D01*
X2169995Y1354816D01*
X2155000D01*
X2164997D02*
X2174994Y1344819D01*
X2184990Y1369811D02*
X2189989Y1374809D01*
X2199985D01*
X2204984Y1369811D01*
Y1364812D01*
X2199985Y1359814D01*
X2194987D01*
X2199985D01*
X2204984Y1354816D01*
Y1349817D01*
X2199985Y1344819D01*
X2189989D01*
X2184990Y1349817D01*
X2214981D02*
X2219979Y1344819D01*
X2229976D01*
X2234974Y1349817D01*
Y1369811D01*
X2229976Y1374809D01*
X2219979D01*
X2214981Y1369811D01*
Y1364812D01*
X2219979Y1359814D01*
X2234974D01*
X2155000Y1219000D02*
Y1248990D01*
X2169995D01*
X2174994Y1243992D01*
Y1233995D01*
X2169995Y1228997D01*
X2155000D01*
X2164997D02*
X2174994Y1219000D01*
X2199985D02*
Y1248990D01*
X2184990Y1233995D01*
X2204984D01*
X2214981Y1243992D02*
X2219979Y1248990D01*
X2229976D01*
X2234974Y1243992D01*
Y1223998D01*
X2229976Y1219000D01*
X2219979D01*
X2214981Y1223998D01*
Y1243992D01*
X2177119Y1117992D02*
X2172121Y1122990D01*
X2162124D01*
X2157126Y1117992D01*
Y1097998D01*
X2162124Y1093000D01*
X2172121D01*
X2177119Y1097998D01*
X2187116Y1093000D02*
X2197113D01*
X2192114D01*
Y1122990D01*
X2187116Y1117992D01*
X2212108D02*
X2217106Y1122990D01*
X2227103D01*
X2232101Y1117992D01*
Y1112994D01*
X2227103Y1107995D01*
X2232101Y1102997D01*
Y1097998D01*
X2227103Y1093000D01*
X2217106D01*
X2212108Y1097998D01*
Y1102997D01*
X2217106Y1107995D01*
X2212108Y1112994D01*
Y1117992D01*
X2217106Y1107995D02*
X2227103D01*
X2593000Y334990D02*
Y305000D01*
X2607995D01*
X2612994Y309998D01*
Y329992D01*
X2607995Y334990D01*
X2593000D01*
X2622990Y305000D02*
X2632987D01*
X2627989D01*
Y334990D01*
X2622990Y329992D01*
X2667976Y334990D02*
X2647982D01*
Y319995D01*
X2657979Y324993D01*
X2662977D01*
X2667976Y319995D01*
Y309998D01*
X2662977Y305000D01*
X2652981D01*
X2647982Y309998D01*
X1565011Y105003D02*
Y134993D01*
X1580006D01*
X1585005Y129994D01*
Y119998D01*
X1580006Y114999D01*
X1565011D01*
X1575008D02*
X1585005Y105003D01*
X1595001Y129994D02*
X1600000Y134993D01*
X1609997D01*
X1614995Y129994D01*
Y124996D01*
X1609997Y119998D01*
X1604998D01*
X1609997D01*
X1614995Y114999D01*
Y110001D01*
X1609997Y105003D01*
X1600000D01*
X1595001Y110001D01*
X1624992Y105003D02*
X1634988D01*
X1629990D01*
Y134993D01*
X1624992Y129994D01*
X1428026Y459705D02*
Y489696D01*
X1443021D01*
X1448020Y484697D01*
Y474700D01*
X1443021Y469702D01*
X1428026D01*
X1438023D02*
X1448020Y459705D01*
X1458016Y484697D02*
X1463015Y489696D01*
X1473012D01*
X1478010Y484697D01*
Y479699D01*
X1473012Y474700D01*
X1468013D01*
X1473012D01*
X1478010Y469702D01*
Y464704D01*
X1473012Y459705D01*
X1463015D01*
X1458016Y464704D01*
X1488007Y484697D02*
X1493005Y489696D01*
X1503002D01*
X1508000Y484697D01*
Y464704D01*
X1503002Y459705D01*
X1493005D01*
X1488007Y464704D01*
Y484697D01*
X1618138Y595005D02*
Y624995D01*
X1633133D01*
X1638132Y619997D01*
Y610000D01*
X1633133Y605002D01*
X1618138D01*
X1628135D02*
X1638132Y595005D01*
X1648128Y619997D02*
X1653127Y624995D01*
X1663124D01*
X1668122Y619997D01*
Y614998D01*
X1663124Y610000D01*
X1658125D01*
X1663124D01*
X1668122Y605002D01*
Y600003D01*
X1663124Y595005D01*
X1653127D01*
X1648128Y600003D01*
X1698112Y624995D02*
X1678119D01*
Y610000D01*
X1688116Y614998D01*
X1693114D01*
X1698112Y610000D01*
Y600003D01*
X1693114Y595005D01*
X1683117D01*
X1678119Y600003D01*
X1618000Y725062D02*
Y755052D01*
X1632995D01*
X1637994Y750053D01*
Y740057D01*
X1632995Y735058D01*
X1618000D01*
X1627997D02*
X1637994Y725062D01*
X1647990Y750053D02*
X1652989Y755052D01*
X1662986D01*
X1667984Y750053D01*
Y745055D01*
X1662986Y740057D01*
X1657987D01*
X1662986D01*
X1667984Y735058D01*
Y730060D01*
X1662986Y725062D01*
X1652989D01*
X1647990Y730060D01*
X1692976Y725062D02*
Y755052D01*
X1677981Y740057D01*
X1697974D01*
X1618000Y853120D02*
Y883111D01*
X1632995D01*
X1637994Y878112D01*
Y868116D01*
X1632995Y863117D01*
X1618000D01*
X1627997D02*
X1637994Y853120D01*
X1647990Y878112D02*
X1652989Y883111D01*
X1662986D01*
X1667984Y878112D01*
Y873114D01*
X1662986Y868116D01*
X1657987D01*
X1662986D01*
X1667984Y863117D01*
Y858119D01*
X1662986Y853120D01*
X1652989D01*
X1647990Y858119D01*
X1677981Y878112D02*
X1682979Y883111D01*
X1692976D01*
X1697974Y878112D01*
Y873114D01*
X1692976Y868116D01*
X1687977D01*
X1692976D01*
X1697974Y863117D01*
Y858119D01*
X1692976Y853120D01*
X1682979D01*
X1677981Y858119D01*
X1619378Y999827D02*
X1614380Y1004825D01*
X1604383D01*
X1599385Y999827D01*
Y979833D01*
X1604383Y974835D01*
X1614380D01*
X1619378Y979833D01*
X1629375Y974835D02*
X1639372D01*
X1634373D01*
Y1004825D01*
X1629375Y999827D01*
X1654367Y974835D02*
X1664364D01*
X1659365D01*
Y1004825D01*
X1654367Y999827D01*
X1553994Y1117489D02*
X1548995Y1122487D01*
X1538998D01*
X1534000Y1117489D01*
Y1097495D01*
X1538998Y1092497D01*
X1548995D01*
X1553994Y1097495D01*
X1563990Y1092497D02*
X1573987D01*
X1568989D01*
Y1122487D01*
X1563990Y1117489D01*
X1588982D02*
X1593981Y1122487D01*
X1603977D01*
X1608976Y1117489D01*
Y1097495D01*
X1603977Y1092497D01*
X1593981D01*
X1588982Y1097495D01*
Y1117489D01*
X1532888Y1219005D02*
Y1248995D01*
X1547883D01*
X1552881Y1243997D01*
Y1234000D01*
X1547883Y1229002D01*
X1532888D01*
X1542885D02*
X1552881Y1219005D01*
X1582872D02*
X1562878D01*
X1582872Y1238998D01*
Y1243997D01*
X1577873Y1248995D01*
X1567877D01*
X1562878Y1243997D01*
X1592869D02*
X1597867Y1248995D01*
X1607864D01*
X1612862Y1243997D01*
Y1238998D01*
X1607864Y1234000D01*
X1602865D01*
X1607864D01*
X1612862Y1229002D01*
Y1224003D01*
X1607864Y1219005D01*
X1597867D01*
X1592869Y1224003D01*
X1387388Y1349824D02*
Y1379814D01*
X1402383D01*
X1407382Y1374816D01*
Y1364819D01*
X1402383Y1359821D01*
X1387388D01*
X1397385D02*
X1407382Y1349824D01*
X1437372D02*
X1417378D01*
X1437372Y1369817D01*
Y1374816D01*
X1432374Y1379814D01*
X1422377D01*
X1417378Y1374816D01*
X1467362Y1349824D02*
X1447369D01*
X1467362Y1369817D01*
Y1374816D01*
X1462364Y1379814D01*
X1452367D01*
X1447369Y1374816D01*
X792510Y1321005D02*
Y1350995D01*
X807506D01*
X812504Y1345997D01*
Y1336000D01*
X807506Y1331002D01*
X792510D01*
X802507D02*
X812504Y1321005D01*
X822501D02*
X832498D01*
X827499D01*
Y1350995D01*
X822501Y1345997D01*
X847493Y1321005D02*
X857490D01*
X852491D01*
Y1350995D01*
X847493Y1345997D01*
X1506013Y1652005D02*
Y1681995D01*
X1521008D01*
X1526006Y1676997D01*
Y1667000D01*
X1521008Y1662002D01*
X1506013D01*
X1516010D02*
X1526006Y1652005D01*
X1555997D02*
X1536003D01*
X1555997Y1671998D01*
Y1676997D01*
X1550998Y1681995D01*
X1541002D01*
X1536003Y1676997D01*
X1585987Y1681995D02*
X1575990Y1676997D01*
X1565994Y1667000D01*
Y1657003D01*
X1570992Y1652005D01*
X1580989D01*
X1585987Y1657003D01*
Y1662002D01*
X1580989Y1667000D01*
X1565994D01*
X3068631Y2364325D02*
X3058634D01*
X3063633D01*
Y2339333D01*
X3058634Y2334335D01*
X3053636D01*
X3048637Y2339333D01*
X3078628Y2334335D02*
X3088624D01*
X3083626D01*
Y2364325D01*
X3078628Y2359327D01*
X3103619Y2339333D02*
X3108618Y2334335D01*
X3118615D01*
X3123613Y2339333D01*
Y2359327D01*
X3118615Y2364325D01*
X3108618D01*
X3103619Y2359327D01*
Y2354328D01*
X3108618Y2349330D01*
X3123613D01*
X3237631Y2052325D02*
X3227634D01*
X3232633D01*
Y2027333D01*
X3227634Y2022335D01*
X3222636D01*
X3217637Y2027333D01*
X3247628Y2022335D02*
X3257624D01*
X3252626D01*
Y2052325D01*
X3247628Y2047327D01*
X3272619Y2052325D02*
X3292613D01*
Y2047327D01*
X3272619Y2027333D01*
Y2022335D01*
X2923631Y2057325D02*
X2913634D01*
X2918633D01*
Y2032333D01*
X2913634Y2027335D01*
X2908636D01*
X2903637Y2032333D01*
X2933628Y2027335D02*
X2943624D01*
X2938626D01*
Y2057325D01*
X2933628Y2052327D01*
X2978613Y2057325D02*
X2968616Y2052327D01*
X2958619Y2042330D01*
Y2032333D01*
X2963618Y2027335D01*
X2973615D01*
X2978613Y2032333D01*
Y2037332D01*
X2973615Y2042330D01*
X2958619D01*
X1874631Y2364325D02*
X1864634D01*
X1869632D01*
Y2339333D01*
X1864634Y2334335D01*
X1859636D01*
X1854637Y2339333D01*
X1884628Y2334335D02*
X1894624D01*
X1889626D01*
Y2364325D01*
X1884628Y2359327D01*
X1909620D02*
X1914618Y2364325D01*
X1924615D01*
X1929613Y2359327D01*
Y2354328D01*
X1924615Y2349330D01*
X1919616D01*
X1924615D01*
X1929613Y2344332D01*
Y2339333D01*
X1924615Y2334335D01*
X1914618D01*
X1909620Y2339333D01*
X1742127Y2050325D02*
X1732130D01*
X1737128D01*
Y2025333D01*
X1732130Y2020335D01*
X1727132D01*
X1722133Y2025333D01*
X1752123Y2050325D02*
X1772117D01*
Y2045327D01*
X1752123Y2025333D01*
Y2020335D01*
X2324132Y2056325D02*
X2314135D01*
X2319133D01*
Y2031333D01*
X2314135Y2026335D01*
X2309137D01*
X2304138Y2031333D01*
X2354122Y2026335D02*
X2334128D01*
X2354122Y2046328D01*
Y2051327D01*
X2349124Y2056325D01*
X2339127D01*
X2334128Y2051327D01*
X2364119D02*
X2369117Y2056325D01*
X2379114D01*
X2384112Y2051327D01*
Y2031333D01*
X2379114Y2026335D01*
X2369117D01*
X2364119Y2031333D01*
Y2051327D01*
X2051127Y2049325D02*
X2041130D01*
X2046128D01*
Y2024333D01*
X2041130Y2019335D01*
X2036132D01*
X2031133Y2024333D01*
X2061124Y2044327D02*
X2066122Y2049325D01*
X2076119D01*
X2081117Y2044327D01*
Y2039328D01*
X2076119Y2034330D01*
X2081117Y2029332D01*
Y2024333D01*
X2076119Y2019335D01*
X2066122D01*
X2061124Y2024333D01*
Y2029332D01*
X2066122Y2034330D01*
X2061124Y2039328D01*
Y2044327D01*
X2066122Y2034330D02*
X2076119D01*
X1437127Y2056325D02*
X1427130D01*
X1432128D01*
Y2031333D01*
X1427130Y2026335D01*
X1422132D01*
X1417133Y2031333D01*
X1467117Y2056325D02*
X1457120Y2051327D01*
X1447123Y2041330D01*
Y2031333D01*
X1452122Y2026335D01*
X1462119D01*
X1467117Y2031333D01*
Y2036332D01*
X1462119Y2041330D01*
X1447123D01*
X1132127Y2055325D02*
X1122130D01*
X1127128D01*
Y2030333D01*
X1122130Y2025335D01*
X1117132D01*
X1112133Y2030333D01*
X1162117Y2055325D02*
X1142123D01*
Y2040330D01*
X1152120Y2045328D01*
X1157119D01*
X1162117Y2040330D01*
Y2030333D01*
X1157119Y2025335D01*
X1147122D01*
X1142123Y2030333D01*
X1277629Y2365325D02*
X1267632D01*
X1272631D01*
Y2340333D01*
X1267632Y2335335D01*
X1262634D01*
X1257636Y2340333D01*
X1287626Y2335335D02*
X1297623D01*
X1292624D01*
Y2365325D01*
X1287626Y2360327D01*
X1312618Y2335335D02*
X1322615D01*
X1317616D01*
Y2365325D01*
X1312618Y2360327D01*
X2471631Y2366325D02*
X2461634D01*
X2466633D01*
Y2341333D01*
X2461634Y2336335D01*
X2456636D01*
X2451637Y2341333D01*
X2481628Y2336335D02*
X2491624D01*
X2486626D01*
Y2366325D01*
X2481628Y2361327D01*
X2526613Y2366325D02*
X2506619D01*
Y2351330D01*
X2516616Y2356328D01*
X2521615D01*
X2526613Y2351330D01*
Y2341333D01*
X2521615Y2336335D01*
X2511618D01*
X2506619Y2341333D01*
X2659127Y2056002D02*
X2649130D01*
X2654128D01*
Y2031010D01*
X2649130Y2026011D01*
X2644132D01*
X2639133Y2031010D01*
X2669124D02*
X2674122Y2026011D01*
X2684119D01*
X2689117Y2031010D01*
Y2051003D01*
X2684119Y2056002D01*
X2674122D01*
X2669124Y2051003D01*
Y2046005D01*
X2674122Y2041007D01*
X2689117D01*
X1992874Y2182181D02*
Y2212171D01*
X2007869D01*
X2012868Y2207173D01*
Y2197176D01*
X2007869Y2192178D01*
X1992874D01*
X2002871D02*
X2012868Y2182181D01*
X2037860D02*
Y2212171D01*
X2022864Y2197176D01*
X2042858D01*
X2072848Y2212171D02*
X2052855D01*
Y2197176D01*
X2062852Y2202175D01*
X2067850D01*
X2072848Y2197176D01*
Y2187180D01*
X2067850Y2182181D01*
X2057853D01*
X2052855Y2187180D01*
X1570993Y2197992D02*
X1565995Y2202990D01*
X1555998D01*
X1550999Y2197992D01*
Y2177998D01*
X1555998Y2173000D01*
X1565995D01*
X1570993Y2177998D01*
X1580990Y2173000D02*
X1590986D01*
X1585988D01*
Y2202990D01*
X1580990Y2197992D01*
X1605982D02*
X1610980Y2202990D01*
X1620977D01*
X1625975Y2197992D01*
Y2192994D01*
X1620977Y2187995D01*
X1615978D01*
X1620977D01*
X1625975Y2182997D01*
Y2177998D01*
X1620977Y2173000D01*
X1610980D01*
X1605982Y2177998D01*
X2016993Y2434811D02*
X2011995Y2439809D01*
X2001998D01*
X1996999Y2434811D01*
Y2414817D01*
X2001998Y2409819D01*
X2011995D01*
X2016993Y2414817D01*
X2046983Y2409819D02*
X2026990D01*
X2046983Y2429812D01*
Y2434811D01*
X2041985Y2439809D01*
X2031988D01*
X2026990Y2434811D01*
X2056980D02*
X2061978Y2439809D01*
X2071975D01*
X2076973Y2434811D01*
Y2414817D01*
X2071975Y2409819D01*
X2061978D01*
X2056980Y2414817D01*
Y2434811D01*
X2016994Y2318811D02*
X2011995Y2323809D01*
X2001998D01*
X1997000Y2318811D01*
Y2298817D01*
X2001998Y2293819D01*
X2011995D01*
X2016994Y2298817D01*
X2046984Y2293819D02*
X2026990D01*
X2046984Y2313812D01*
Y2318811D01*
X2041986Y2323809D01*
X2031989D01*
X2026990Y2318811D01*
X2056981Y2293819D02*
X2066977D01*
X2061979D01*
Y2323809D01*
X2056981Y2318811D01*
X1570994Y2316811D02*
X1565995Y2321809D01*
X1555998D01*
X1551000Y2316811D01*
Y2296817D01*
X1555998Y2291819D01*
X1565995D01*
X1570994Y2296817D01*
X1580990Y2291819D02*
X1590987D01*
X1585989D01*
Y2321809D01*
X1580990Y2316811D01*
X1625976Y2291819D02*
X1605982D01*
X1625976Y2311812D01*
Y2316811D01*
X1620977Y2321809D01*
X1610981D01*
X1605982Y2316811D01*
X1392000Y2179181D02*
Y2209171D01*
X1406995D01*
X1411994Y2204173D01*
Y2194176D01*
X1406995Y2189178D01*
X1392000D01*
X1401997D02*
X1411994Y2179181D01*
X1441984D02*
X1421990D01*
X1441984Y2199175D01*
Y2204173D01*
X1436986Y2209171D01*
X1426989D01*
X1421990Y2204173D01*
X1451981D02*
X1456979Y2209171D01*
X1466976D01*
X1471974Y2204173D01*
Y2199175D01*
X1466976Y2194176D01*
X1471974Y2189178D01*
Y2184180D01*
X1466976Y2179181D01*
X1456979D01*
X1451981Y2184180D01*
Y2189178D01*
X1456979Y2194176D01*
X1451981Y2199175D01*
Y2204173D01*
X1456979Y2194176D02*
X1466976D01*
X1392000Y2299000D02*
Y2328990D01*
X1406995D01*
X1411994Y2323992D01*
Y2313995D01*
X1406995Y2308997D01*
X1392000D01*
X1401997D02*
X1411994Y2299000D01*
X1441984D02*
X1421990D01*
X1441984Y2318994D01*
Y2323992D01*
X1436986Y2328990D01*
X1426989D01*
X1421990Y2323992D01*
X1471974Y2328990D02*
X1451981D01*
Y2313995D01*
X1461977Y2318994D01*
X1466976D01*
X1471974Y2313995D01*
Y2303998D01*
X1466976Y2299000D01*
X1456979D01*
X1451981Y2303998D01*
X934500Y2299000D02*
Y2328990D01*
X949495D01*
X954494Y2323992D01*
Y2313995D01*
X949495Y2308997D01*
X934500D01*
X944497D02*
X954494Y2299000D01*
X984484D02*
X964490D01*
X984484Y2318994D01*
Y2323992D01*
X979486Y2328990D01*
X969489D01*
X964490Y2323992D01*
X994481Y2328990D02*
X1014474D01*
Y2323992D01*
X994481Y2303998D01*
Y2299000D01*
X934500Y2180181D02*
Y2210171D01*
X949495D01*
X954494Y2205173D01*
Y2195176D01*
X949495Y2190178D01*
X934500D01*
X944497D02*
X954494Y2180181D01*
X984484D02*
X964490D01*
X984484Y2200175D01*
Y2205173D01*
X979486Y2210171D01*
X969489D01*
X964490Y2205173D01*
X1009476Y2180181D02*
Y2210171D01*
X994481Y2195176D01*
X1014474D01*
X2593000Y2179181D02*
Y2209171D01*
X2607995D01*
X2612994Y2204173D01*
Y2194176D01*
X2607995Y2189178D01*
X2593000D01*
X2602997D02*
X2612994Y2179181D01*
X2642984Y2209171D02*
X2622990D01*
Y2194176D01*
X2632987Y2199175D01*
X2637985D01*
X2642984Y2194176D01*
Y2184180D01*
X2637985Y2179181D01*
X2627989D01*
X2622990Y2184180D01*
X2652981D02*
X2657979Y2179181D01*
X2667976D01*
X2672974Y2184180D01*
Y2204173D01*
X2667976Y2209171D01*
X2657979D01*
X2652981Y2204173D01*
Y2199175D01*
X2657979Y2194176D01*
X2672974D01*
X3205886Y2301186D02*
Y2331176D01*
X3220881D01*
X3225879Y2326178D01*
Y2316181D01*
X3220881Y2311183D01*
X3205886D01*
X3215882D02*
X3225879Y2301186D01*
X3255869Y2331176D02*
X3245873Y2326178D01*
X3235876Y2316181D01*
Y2306184D01*
X3240874Y2301186D01*
X3250871D01*
X3255869Y2306184D01*
Y2311183D01*
X3250871Y2316181D01*
X3235876D01*
X3265866Y2301186D02*
X3275863D01*
X3270865D01*
Y2331176D01*
X3265866Y2326178D01*
X2593000Y2298000D02*
Y2327990D01*
X2607995D01*
X2612994Y2322992D01*
Y2312995D01*
X2607995Y2307997D01*
X2593000D01*
X2602997D02*
X2612994Y2298000D01*
X2642984Y2327990D02*
X2632987Y2322992D01*
X2622990Y2312995D01*
Y2302998D01*
X2627989Y2298000D01*
X2637985D01*
X2642984Y2302998D01*
Y2307997D01*
X2637985Y2312995D01*
X2622990D01*
X2672974Y2298000D02*
X2652981D01*
X2672974Y2317994D01*
Y2322992D01*
X2667976Y2327990D01*
X2657979D01*
X2652981Y2322992D01*
X2144000Y2179181D02*
Y2209171D01*
X2158995D01*
X2163994Y2204173D01*
Y2194176D01*
X2158995Y2189178D01*
X2144000D01*
X2153997D02*
X2163994Y2179181D01*
X2188985D02*
Y2209171D01*
X2173990Y2194176D01*
X2193984D01*
X2218976Y2179181D02*
Y2209171D01*
X2203981Y2194176D01*
X2223974D01*
X2144000Y2300000D02*
Y2329990D01*
X2158995D01*
X2163994Y2324992D01*
Y2314995D01*
X2158995Y2309997D01*
X2144000D01*
X2153997D02*
X2163994Y2300000D01*
X2188985D02*
Y2329990D01*
X2173990Y2314995D01*
X2193984D01*
X2203981Y2324992D02*
X2208979Y2329990D01*
X2218976D01*
X2223974Y2324992D01*
Y2319994D01*
X2218976Y2314995D01*
X2213977D01*
X2218976D01*
X2223974Y2309997D01*
Y2304998D01*
X2218976Y2300000D01*
X2208979D01*
X2203981Y2304998D01*
X2148011Y2414005D02*
Y2443995D01*
X2163006D01*
X2168005Y2438997D01*
Y2429000D01*
X2163006Y2424002D01*
X2148011D01*
X2158008D02*
X2168005Y2414005D01*
X2192997D02*
Y2443995D01*
X2178002Y2429000D01*
X2197995D01*
X2207992Y2414005D02*
X2217989D01*
X2212990D01*
Y2443995D01*
X2207992Y2438997D01*
X2593000Y2416000D02*
Y2445990D01*
X2607995D01*
X2612994Y2440992D01*
Y2430995D01*
X2607995Y2425997D01*
X2593000D01*
X2602997D02*
X2612994Y2416000D01*
X2637985D02*
Y2445990D01*
X2622990Y2430995D01*
X2642984D01*
X2672974Y2416000D02*
X2652981D01*
X2672974Y2435994D01*
Y2440992D01*
X2667976Y2445990D01*
X2657979D01*
X2652981Y2440992D01*
X2775994Y2451992D02*
X2770995Y2456990D01*
X2760998D01*
X2756000Y2451992D01*
Y2431998D01*
X2760998Y2427000D01*
X2770995D01*
X2775994Y2431998D01*
X2805984Y2427000D02*
X2785990D01*
X2805984Y2446994D01*
Y2451992D01*
X2800985Y2456990D01*
X2790989D01*
X2785990Y2451992D01*
X2815981Y2431998D02*
X2820979Y2427000D01*
X2830976D01*
X2835974Y2431998D01*
Y2451992D01*
X2830976Y2456990D01*
X2820979D01*
X2815981Y2451992D01*
Y2446994D01*
X2820979Y2441995D01*
X2835974D01*
X2751874Y2179181D02*
Y2209171D01*
X2766869D01*
X2771867Y2204173D01*
Y2194176D01*
X2766869Y2189178D01*
X2751874D01*
X2761870D02*
X2771867Y2179181D01*
X2801857Y2209171D02*
X2781864D01*
Y2194176D01*
X2791861Y2199175D01*
X2796859D01*
X2801857Y2194176D01*
Y2184180D01*
X2796859Y2179181D01*
X2786862D01*
X2781864Y2184180D01*
X2811854Y2204173D02*
X2816853Y2209171D01*
X2826849D01*
X2831848Y2204173D01*
Y2199175D01*
X2826849Y2194176D01*
X2831848Y2189178D01*
Y2184180D01*
X2826849Y2179181D01*
X2816853D01*
X2811854Y2184180D01*
Y2189178D01*
X2816853Y2194176D01*
X2811854Y2199175D01*
Y2204173D01*
X2816853Y2194176D02*
X2826849D01*
X2751874Y2298000D02*
Y2327990D01*
X2766869D01*
X2771867Y2322992D01*
Y2312995D01*
X2766869Y2307997D01*
X2751874D01*
X2761870D02*
X2771867Y2298000D01*
X2801857Y2327990D02*
X2791861Y2322992D01*
X2781864Y2312995D01*
Y2302998D01*
X2786862Y2298000D01*
X2796859D01*
X2801857Y2302998D01*
Y2307997D01*
X2796859Y2312995D01*
X2781864D01*
X2811854Y2322992D02*
X2816853Y2327990D01*
X2826849D01*
X2831848Y2322992D01*
Y2302998D01*
X2826849Y2298000D01*
X2816853D01*
X2811854Y2302998D01*
Y2322992D01*
X3227994Y2212992D02*
X3222995Y2217990D01*
X3212998D01*
X3208000Y2212992D01*
Y2192998D01*
X3212998Y2188000D01*
X3222995D01*
X3227994Y2192998D01*
X3257984Y2188000D02*
X3237990D01*
X3257984Y2207994D01*
Y2212992D01*
X3252985Y2217990D01*
X3242989D01*
X3237990Y2212992D01*
X3267981D02*
X3272979Y2217990D01*
X3282976D01*
X3287974Y2212992D01*
Y2207994D01*
X3282976Y2202995D01*
X3287974Y2197997D01*
Y2192998D01*
X3282976Y2188000D01*
X3272979D01*
X3267981Y2192998D01*
Y2197997D01*
X3272979Y2202995D01*
X3267981Y2207994D01*
Y2212992D01*
X3272979Y2202995D02*
X3282976D01*
X1718125Y2130330D02*
X1734786D01*
X1726456D01*
Y2180314D01*
X1718125Y2171983D01*
X1793101Y2130330D02*
X1759778D01*
X1793101Y2163653D01*
Y2171983D01*
X1784770Y2180314D01*
X1768109D01*
X1759778Y2171983D01*
X1843085Y2180314D02*
X1809762D01*
Y2155322D01*
X1826423Y2163653D01*
X1834754D01*
X1843085Y2155322D01*
Y2138661D01*
X1834754Y2130330D01*
X1818093D01*
X1809762Y2138661D01*
X1859746Y2180314D02*
Y2130330D01*
Y2155322D01*
X1893069D01*
Y2180314D01*
Y2130330D01*
X1909730Y2163653D02*
X1943052D01*
X1909730Y2130330D01*
X1943052D01*
X2175125Y1874314D02*
X2191786D01*
X2183456D01*
Y1824330D01*
X2175125D01*
X2191786D01*
X2216778D02*
Y1874314D01*
X2250101Y1824330D01*
Y1874314D01*
X2291754Y1824330D02*
Y1874314D01*
X2266762Y1849322D01*
X2300085D01*
X2316746D02*
X2350068D01*
X2366730Y1824330D02*
X2383391D01*
X2375060D01*
Y1874314D01*
X2366730Y1865983D01*
X1566125Y1867314D02*
X1582786D01*
X1574456D01*
Y1817330D01*
X1566125D01*
X1582786D01*
X1607778D02*
Y1867314D01*
X1641101Y1817330D01*
Y1867314D01*
X1657762Y1858983D02*
X1666093Y1867314D01*
X1682754D01*
X1691085Y1858983D01*
Y1850653D01*
X1682754Y1842322D01*
X1674423D01*
X1682754D01*
X1691085Y1833991D01*
Y1825661D01*
X1682754Y1817330D01*
X1666093D01*
X1657762Y1825661D01*
X1707746Y1842322D02*
X1741069D01*
X1757730Y1817330D02*
X1774391D01*
X1766060D01*
Y1867314D01*
X1757730Y1858983D01*
X1869125Y1867314D02*
X1885786D01*
X1877456D01*
Y1817330D01*
X1869125D01*
X1885786D01*
X1910778D02*
Y1867314D01*
X1944101Y1817330D01*
Y1867314D01*
X1960762Y1858983D02*
X1969093Y1867314D01*
X1985754D01*
X1994085Y1858983D01*
Y1850653D01*
X1985754Y1842322D01*
X1977423D01*
X1985754D01*
X1994085Y1833991D01*
Y1825661D01*
X1985754Y1817330D01*
X1969093D01*
X1960762Y1825661D01*
X2010746Y1842322D02*
X2044069D01*
X2094052Y1817330D02*
X2060730D01*
X2094052Y1850653D01*
Y1858983D01*
X2085722Y1867314D01*
X2069060D01*
X2060730Y1858983D01*
X1262125Y1866314D02*
X1278786D01*
X1270456D01*
Y1816330D01*
X1262125D01*
X1278786D01*
X1303778D02*
Y1866314D01*
X1337101Y1816330D01*
Y1866314D01*
X1387085Y1816330D02*
X1353762D01*
X1387085Y1849653D01*
Y1857983D01*
X1378754Y1866314D01*
X1362093D01*
X1353762Y1857983D01*
X1403746Y1841322D02*
X1437069D01*
X1487052Y1816330D02*
X1453730D01*
X1487052Y1849653D01*
Y1857983D01*
X1478722Y1866314D01*
X1462060D01*
X1453730Y1857983D01*
X2478125Y1874314D02*
X2494786D01*
X2486456D01*
Y1824330D01*
X2478125D01*
X2494786D01*
X2519778D02*
Y1874314D01*
X2553101Y1824330D01*
Y1874314D01*
X2594754Y1824330D02*
Y1874314D01*
X2569762Y1849322D01*
X2603085D01*
X2619746D02*
X2653068D01*
X2703052Y1824330D02*
X2669730D01*
X2703052Y1857653D01*
Y1865983D01*
X2694722Y1874314D01*
X2678060D01*
X2669730Y1865983D01*
X2781125Y1872314D02*
X2797786D01*
X2789456D01*
Y1822330D01*
X2781125D01*
X2797786D01*
X2822778D02*
Y1872314D01*
X2856101Y1822330D01*
Y1872314D01*
X2897754Y1822330D02*
Y1872314D01*
X2872762Y1847322D01*
X2906085D01*
X2922746D02*
X2956068D01*
X2972730Y1822330D02*
X2989391D01*
X2981060D01*
Y1872314D01*
X2972730Y1863983D01*
X2958448Y2182314D02*
X2925125D01*
Y2157322D01*
X2941786Y2165653D01*
X2950117D01*
X2958448Y2157322D01*
Y2140661D01*
X2950117Y2132330D01*
X2933456D01*
X2925125Y2140661D01*
X2975109Y2173983D02*
X2983439Y2182314D01*
X3000101D01*
X3008432Y2173983D01*
Y2140661D01*
X3000101Y2132330D01*
X2983439D01*
X2975109Y2140661D01*
Y2173983D01*
X3025093D02*
X3033423Y2182314D01*
X3050085D01*
X3058415Y2173983D01*
Y2140661D01*
X3050085Y2132330D01*
X3033423D01*
X3025093Y2140661D01*
Y2173983D01*
X3075077Y2182314D02*
Y2132330D01*
Y2157322D01*
X3108399D01*
Y2182314D01*
Y2132330D01*
X3125060Y2165653D02*
X3158383D01*
X3125060Y2132330D01*
X3158383D01*
X2350448D02*
X2317125D01*
X2350448Y2165653D01*
Y2173983D01*
X2342117Y2182314D01*
X2325456D01*
X2317125Y2173983D01*
X2400432Y2182314D02*
X2367109D01*
Y2157322D01*
X2383770Y2165653D01*
X2392101D01*
X2400432Y2157322D01*
Y2140661D01*
X2392101Y2132330D01*
X2375439D01*
X2367109Y2140661D01*
X2417093Y2173983D02*
X2425423Y2182314D01*
X2442085D01*
X2450415Y2173983D01*
Y2140661D01*
X2442085Y2132330D01*
X2425423D01*
X2417093Y2140661D01*
Y2173983D01*
X2467077Y2182314D02*
Y2132330D01*
Y2157322D01*
X2500399D01*
Y2182314D01*
Y2132330D01*
X2517060Y2165653D02*
X2550383D01*
X2517060Y2132330D01*
X2550383D01*
X764994Y2192992D02*
X759995Y2197990D01*
X749999D01*
X745000Y2192992D01*
Y2172998D01*
X749999Y2168000D01*
X759995D01*
X764994Y2172998D01*
X774990Y2192992D02*
X779989Y2197990D01*
X789986D01*
X794984Y2192992D01*
Y2187994D01*
X789986Y2182995D01*
X794984Y2177997D01*
Y2172998D01*
X789986Y2168000D01*
X779989D01*
X774990Y2172998D01*
Y2177997D01*
X779989Y2182995D01*
X774990Y2187994D01*
Y2192992D01*
X779989Y2182995D02*
X789986D01*
X1167448Y2180314D02*
X1150786Y2171983D01*
X1134125Y2155322D01*
Y2138661D01*
X1142456Y2130330D01*
X1159117D01*
X1167448Y2138661D01*
Y2146991D01*
X1159117Y2155322D01*
X1134125D01*
X1209101Y2130330D02*
Y2180314D01*
X1184109Y2155322D01*
X1217431D01*
X1234093Y2180314D02*
Y2130330D01*
Y2155322D01*
X1267415D01*
Y2180314D01*
Y2130330D01*
X1284076Y2163653D02*
X1317399D01*
X1284076Y2130330D01*
X1317399D01*
X959125Y1866314D02*
X975786D01*
X967456D01*
Y1816330D01*
X959125D01*
X975786D01*
X1000778D02*
Y1866314D01*
X1034101Y1816330D01*
Y1866314D01*
X1084085Y1816330D02*
X1050762D01*
X1084085Y1849653D01*
Y1857983D01*
X1075754Y1866314D01*
X1059093D01*
X1050762Y1857983D01*
X1100746Y1841322D02*
X1134069D01*
X1150730Y1816330D02*
X1167391D01*
X1159060D01*
Y1866314D01*
X1150730Y1857983D01*
X3084125Y1872314D02*
X3100786D01*
X3092456D01*
Y1822330D01*
X3084125D01*
X3100786D01*
X3125778D02*
Y1872314D01*
X3159101Y1822330D01*
Y1872314D01*
X3200754Y1822330D02*
Y1872314D01*
X3175762Y1847322D01*
X3209085D01*
X3225746D02*
X3259068D01*
X3309052Y1822330D02*
X3275730D01*
X3309052Y1855653D01*
Y1863983D01*
X3300722Y1872314D01*
X3284060D01*
X3275730Y1863983D01*
X629013Y1705005D02*
Y1734995D01*
X644008D01*
X649006Y1729997D01*
Y1720000D01*
X644008Y1715002D01*
X629013D01*
X639010D02*
X649006Y1705005D01*
X678997Y1734995D02*
X669000Y1729997D01*
X659003Y1720000D01*
Y1710003D01*
X664002Y1705005D01*
X673999D01*
X678997Y1710003D01*
Y1715002D01*
X673999Y1720000D01*
X659003D01*
X688994Y1710003D02*
X693992Y1705005D01*
X703989D01*
X708987Y1710003D01*
Y1729997D01*
X703989Y1734995D01*
X693992D01*
X688994Y1729997D01*
Y1724998D01*
X693992Y1720000D01*
X708987D01*
X357007Y1661997D02*
X352008Y1666995D01*
X342011D01*
X337013Y1661997D01*
Y1642003D01*
X342011Y1637005D01*
X352008D01*
X357007Y1642003D01*
X367003Y1661997D02*
X372002Y1666995D01*
X381998D01*
X386997Y1661997D01*
Y1656998D01*
X381998Y1652000D01*
X377000D01*
X381998D01*
X386997Y1647002D01*
Y1642003D01*
X381998Y1637005D01*
X372002D01*
X367003Y1642003D01*
X416987Y1666995D02*
X396994D01*
Y1652000D01*
X406990Y1656998D01*
X411989D01*
X416987Y1652000D01*
Y1642003D01*
X411989Y1637005D01*
X401992D01*
X396994Y1642003D01*
X789000Y1827333D02*
Y1857324D01*
X803995D01*
X808994Y1852325D01*
Y1842329D01*
X803995Y1837330D01*
X789000D01*
X798997D02*
X808994Y1827333D01*
X818990D02*
X828987D01*
X823989D01*
Y1857324D01*
X818990Y1852325D01*
X843982D02*
X848981Y1857324D01*
X858977D01*
X863976Y1852325D01*
Y1847327D01*
X858977Y1842329D01*
X853979D01*
X858977D01*
X863976Y1837330D01*
Y1832332D01*
X858977Y1827333D01*
X848981D01*
X843982Y1832332D01*
X789000Y1949000D02*
Y1978990D01*
X803995D01*
X808994Y1973992D01*
Y1963995D01*
X803995Y1958997D01*
X789000D01*
X798997D02*
X808994Y1949000D01*
X818990D02*
X828987D01*
X823989D01*
Y1978990D01*
X818990Y1973992D01*
X858977Y1949000D02*
Y1978990D01*
X843982Y1963995D01*
X863976D01*
X892008Y1717675D02*
Y1747665D01*
X907003D01*
X912002Y1742667D01*
Y1732670D01*
X907003Y1727672D01*
X892008D01*
X902005D02*
X912002Y1717675D01*
X921998Y1722673D02*
X926997Y1717675D01*
X936994D01*
X941992Y1722673D01*
Y1742667D01*
X936994Y1747665D01*
X926997D01*
X921998Y1742667D01*
Y1737668D01*
X926997Y1732670D01*
X941992D01*
X743298Y1504997D02*
X738300Y1509995D01*
X728303D01*
X723304Y1504997D01*
Y1485003D01*
X728303Y1480005D01*
X738300D01*
X743298Y1485003D01*
X753295Y1504997D02*
X758293Y1509995D01*
X768290D01*
X773288Y1504997D01*
Y1499998D01*
X768290Y1495000D01*
X763292D01*
X768290D01*
X773288Y1490002D01*
Y1485003D01*
X768290Y1480005D01*
X758293D01*
X753295Y1485003D01*
X798280Y1480005D02*
Y1509995D01*
X783285Y1495000D01*
X803279D01*
X726985Y1660005D02*
Y1689995D01*
X741980D01*
X746978Y1684997D01*
Y1675000D01*
X741980Y1670002D01*
X726985D01*
X736981D02*
X746978Y1660005D01*
X756975D02*
X766972D01*
X761973D01*
Y1689995D01*
X756975Y1684997D01*
X801960Y1660005D02*
X781967D01*
X801960Y1679998D01*
Y1684997D01*
X796962Y1689995D01*
X786965D01*
X781967Y1684997D01*
X1012134Y1219005D02*
Y1248995D01*
X1027129D01*
X1032127Y1243997D01*
Y1234000D01*
X1027129Y1229002D01*
X1012134D01*
X1022131D02*
X1032127Y1219005D01*
X1062118Y1248995D02*
X1042124D01*
Y1234000D01*
X1052121Y1238998D01*
X1057119D01*
X1062118Y1234000D01*
Y1224003D01*
X1057119Y1219005D01*
X1047123D01*
X1042124Y1224003D01*
X1028002Y1366997D02*
X1023003Y1371995D01*
X1013006D01*
X1008008Y1366997D01*
Y1347003D01*
X1013006Y1342005D01*
X1023003D01*
X1028002Y1347003D01*
X1037998Y1366997D02*
X1042997Y1371995D01*
X1052994D01*
X1057992Y1366997D01*
Y1361998D01*
X1052994Y1357000D01*
X1047995D01*
X1052994D01*
X1057992Y1352002D01*
Y1347003D01*
X1052994Y1342005D01*
X1042997D01*
X1037998Y1347003D01*
X3393000Y1223000D02*
Y1252990D01*
X3407995D01*
X3412994Y1247992D01*
Y1237995D01*
X3407995Y1232997D01*
X3393000D01*
X3402997D02*
X3412994Y1223000D01*
X3442984Y1252990D02*
X3432987Y1247992D01*
X3422990Y1237995D01*
Y1227998D01*
X3427989Y1223000D01*
X3437985D01*
X3442984Y1227998D01*
Y1232997D01*
X3437985Y1237995D01*
X3422990D01*
X3452981Y1247992D02*
X3457979Y1252990D01*
X3467976D01*
X3472974Y1247992D01*
Y1242994D01*
X3467976Y1237995D01*
X3472974Y1232997D01*
Y1227998D01*
X3467976Y1223000D01*
X3457979D01*
X3452981Y1227998D01*
Y1232997D01*
X3457979Y1237995D01*
X3452981Y1242994D01*
Y1247992D01*
X3457979Y1237995D02*
X3467976D01*
X3247000Y1223000D02*
Y1252991D01*
X3261995D01*
X3266994Y1247992D01*
Y1237995D01*
X3261995Y1232997D01*
X3247000D01*
X3256997D02*
X3266994Y1223000D01*
X3296984Y1252991D02*
X3286987Y1247992D01*
X3276990Y1237995D01*
Y1227999D01*
X3281989Y1223000D01*
X3291985D01*
X3296984Y1227999D01*
Y1232997D01*
X3291985Y1237995D01*
X3276990D01*
X3326974Y1252991D02*
X3316977Y1247992D01*
X3306981Y1237995D01*
Y1227999D01*
X3311979Y1223000D01*
X3321976D01*
X3326974Y1227999D01*
Y1232997D01*
X3321976Y1237995D01*
X3306981D01*
X2704006Y423997D02*
X2699008Y428995D01*
X2689011D01*
X2684013Y423997D01*
Y404003D01*
X2689011Y399005D01*
X2699008D01*
X2704006Y404003D01*
X2714003Y423997D02*
X2719002Y428995D01*
X2728999D01*
X2733997Y423997D01*
Y418998D01*
X2728999Y414000D01*
X2724000D01*
X2728999D01*
X2733997Y409002D01*
Y404003D01*
X2728999Y399005D01*
X2719002D01*
X2714003Y404003D01*
X2743994Y423997D02*
X2748992Y428995D01*
X2758989D01*
X2763987Y423997D01*
Y418998D01*
X2758989Y414000D01*
X2753990D01*
X2758989D01*
X2763987Y409002D01*
Y404003D01*
X2758989Y399005D01*
X2748992D01*
X2743994Y404003D01*
X3234006Y741997D02*
X3229008Y746995D01*
X3219011D01*
X3214013Y741997D01*
Y722003D01*
X3219011Y717005D01*
X3229008D01*
X3234006Y722003D01*
X3244003Y741997D02*
X3249002Y746995D01*
X3258999D01*
X3263997Y741997D01*
Y736998D01*
X3258999Y732000D01*
X3254000D01*
X3258999D01*
X3263997Y727002D01*
Y722003D01*
X3258999Y717005D01*
X3249002D01*
X3244003Y722003D01*
X3293987Y717005D02*
X3273994D01*
X3293987Y736998D01*
Y741997D01*
X3288989Y746995D01*
X3278992D01*
X3273994Y741997D01*
X3111006Y186997D02*
X3106008Y191995D01*
X3096011D01*
X3091013Y186997D01*
Y167003D01*
X3096011Y162005D01*
X3106008D01*
X3111006Y167003D01*
X3121003Y186997D02*
X3126002Y191995D01*
X3135999D01*
X3140997Y186997D01*
Y181998D01*
X3135999Y177000D01*
X3131000D01*
X3135999D01*
X3140997Y172002D01*
Y167003D01*
X3135999Y162005D01*
X3126002D01*
X3121003Y167003D01*
X3150994Y186997D02*
X3155992Y191995D01*
X3165989D01*
X3170987Y186997D01*
Y167003D01*
X3165989Y162005D01*
X3155992D01*
X3150994Y167003D01*
Y186997D01*
X2493005Y424997D02*
X2488006Y429995D01*
X2478010D01*
X2473011Y424997D01*
Y405003D01*
X2478010Y400005D01*
X2488006D01*
X2493005Y405003D01*
X2503002Y424997D02*
X2508000Y429995D01*
X2517997D01*
X2522995Y424997D01*
Y419998D01*
X2517997Y415000D01*
X2512998D01*
X2517997D01*
X2522995Y410002D01*
Y405003D01*
X2517997Y400005D01*
X2508000D01*
X2503002Y405003D01*
X2532992Y400005D02*
X2542989D01*
X2537990D01*
Y429995D01*
X2532992Y424997D01*
X3088506Y1317995D02*
X3078509D01*
X3083507D01*
Y1293003D01*
X3078509Y1288005D01*
X3073511D01*
X3068512Y1293003D01*
X3098503Y1288005D02*
X3108499D01*
X3103501D01*
Y1317995D01*
X3098503Y1312997D01*
X3123494D02*
X3128493Y1317995D01*
X3138490D01*
X3143488Y1312997D01*
Y1307998D01*
X3138490Y1303000D01*
X3143488Y1298002D01*
Y1293003D01*
X3138490Y1288005D01*
X3128493D01*
X3123494Y1293003D01*
Y1298002D01*
X3128493Y1303000D01*
X3123494Y1307998D01*
Y1312997D01*
X3128493Y1303000D02*
X3138490D01*
X2796755Y1111997D02*
X2791757Y1116995D01*
X2781760D01*
X2776761Y1111997D01*
Y1092003D01*
X2781760Y1087005D01*
X2791757D01*
X2796755Y1092003D01*
X2826745Y1087005D02*
X2806752D01*
X2826745Y1106998D01*
Y1111997D01*
X2821747Y1116995D01*
X2811750D01*
X2806752Y1111997D01*
X2856735Y1116995D02*
X2846739Y1111997D01*
X2836742Y1102000D01*
Y1092003D01*
X2841740Y1087005D01*
X2851737D01*
X2856735Y1092003D01*
Y1097002D01*
X2851737Y1102000D01*
X2836742D01*
X2955000Y1087000D02*
X2971661D01*
X2963331D01*
Y1136984D01*
X2955000Y1128653D01*
X2996653Y1087000D02*
Y1136984D01*
Y1103661D02*
X3021645Y1120323D01*
X2996653Y1103661D02*
X3021645Y1087000D01*
X3046637Y1136984D02*
Y1087000D01*
Y1111992D01*
X3079960D01*
Y1136984D01*
Y1087000D01*
X3096621Y1120323D02*
X3129943D01*
X3096621Y1087000D01*
X3129943D01*
X2178000Y313000D02*
Y342990D01*
X2192995D01*
X2197994Y337992D01*
Y327995D01*
X2192995Y322997D01*
X2178000D01*
X2187997D02*
X2197994Y313000D01*
X2227984Y342990D02*
X2207990D01*
Y327995D01*
X2217987Y332994D01*
X2222985D01*
X2227984Y327995D01*
Y317999D01*
X2222985Y313000D01*
X2212989D01*
X2207990Y317999D01*
X2237981Y313000D02*
X2247977D01*
X2242979D01*
Y342990D01*
X2237981Y337992D01*
X2220006Y447997D02*
X2215008Y452995D01*
X2205011D01*
X2200013Y447997D01*
Y428003D01*
X2205011Y423005D01*
X2215008D01*
X2220006Y428003D01*
X2249997Y423005D02*
X2230003D01*
X2249997Y442998D01*
Y447997D01*
X2244999Y452995D01*
X2235002D01*
X2230003Y447997D01*
X2274989Y423005D02*
Y452995D01*
X2259994Y438000D01*
X2279987D01*
X1766994Y416992D02*
X1761995Y421990D01*
X1751998D01*
X1747000Y416992D01*
Y396998D01*
X1751998Y392000D01*
X1761995D01*
X1766994Y396998D01*
X1796984Y392000D02*
X1776990D01*
X1796984Y411993D01*
Y416992D01*
X1791986Y421990D01*
X1781989D01*
X1776990Y416992D01*
X1826974Y421990D02*
X1806981D01*
Y406995D01*
X1816977Y411993D01*
X1821976D01*
X1826974Y406995D01*
Y396998D01*
X1821976Y392000D01*
X1811979D01*
X1806981Y396998D01*
X2384323Y1091000D02*
X2351000D01*
X2384323Y1124323D01*
Y1132653D01*
X2375992Y1140984D01*
X2359331D01*
X2351000Y1132653D01*
X2400984Y1091000D02*
Y1140984D01*
Y1107661D02*
X2425976Y1124323D01*
X2400984Y1107661D02*
X2425976Y1091000D01*
X2450968Y1140984D02*
Y1091000D01*
Y1115992D01*
X2484290D01*
Y1140984D01*
Y1091000D01*
X2500951Y1124323D02*
X2534274D01*
X2500951Y1091000D01*
X2534274D01*
X1980993Y415992D02*
X1975995Y420990D01*
X1965998D01*
X1961000Y415992D01*
Y395998D01*
X1965998Y391000D01*
X1975995D01*
X1980993Y395998D01*
X2010984Y391000D02*
X1990990D01*
X2010984Y410993D01*
Y415992D01*
X2005985Y420990D01*
X1995989D01*
X1990990Y415992D01*
X2020980D02*
X2025979Y420990D01*
X2035976D01*
X2040974Y415992D01*
Y410993D01*
X2035976Y405995D01*
X2030977D01*
X2035976D01*
X2040974Y400997D01*
Y395998D01*
X2035976Y391000D01*
X2025979D01*
X2020980Y395998D01*
X2217006Y755997D02*
X2212008Y760995D01*
X2202011D01*
X2197013Y755997D01*
Y736003D01*
X2202011Y731005D01*
X2212008D01*
X2217006Y736003D01*
X2246997Y731005D02*
X2227003D01*
X2246997Y750998D01*
Y755997D01*
X2241999Y760995D01*
X2232002D01*
X2227003Y755997D01*
X2276987Y731005D02*
X2256994D01*
X2276987Y750998D01*
Y755997D01*
X2271989Y760995D01*
X2261992D01*
X2256994Y755997D01*
X2477507Y1320995D02*
X2467510D01*
X2472509D01*
Y1296003D01*
X2467510Y1291005D01*
X2462512D01*
X2457514Y1296003D01*
X2487504Y1291005D02*
X2497501D01*
X2492502D01*
Y1320995D01*
X2487504Y1315997D01*
X2527491Y1291005D02*
Y1320995D01*
X2512496Y1306000D01*
X2532489D01*
X1267333Y172000D02*
Y201990D01*
X1282328D01*
X1287327Y196992D01*
Y186995D01*
X1282328Y181997D01*
X1267333D01*
X1277330D02*
X1287327Y172000D01*
X1297323Y196992D02*
X1302322Y201990D01*
X1312319D01*
X1317317Y196992D01*
Y191994D01*
X1312319Y186995D01*
X1307320D01*
X1312319D01*
X1317317Y181997D01*
Y176998D01*
X1312319Y172000D01*
X1302322D01*
X1297323Y176998D01*
X1347307Y172000D02*
X1327314D01*
X1347307Y191994D01*
Y196992D01*
X1342309Y201990D01*
X1332312D01*
X1327314Y196992D01*
X1497994Y239992D02*
X1492995Y244990D01*
X1482998D01*
X1478000Y239992D01*
Y219998D01*
X1482998Y215000D01*
X1492995D01*
X1497994Y219998D01*
X1507990Y215000D02*
X1517987D01*
X1512989D01*
Y244990D01*
X1507990Y239992D01*
X1532982Y244990D02*
X1552976D01*
Y239992D01*
X1532982Y219998D01*
Y215000D01*
X1788994Y153992D02*
X1783995Y158990D01*
X1773998D01*
X1769000Y153992D01*
Y133998D01*
X1773998Y129000D01*
X1783995D01*
X1788994Y133998D01*
X1798990Y129000D02*
X1808987D01*
X1803989D01*
Y158990D01*
X1798990Y153992D01*
X1843976Y158990D02*
X1833979Y153992D01*
X1823982Y143995D01*
Y133998D01*
X1828981Y129000D01*
X1838977D01*
X1843976Y133998D01*
Y138997D01*
X1838977Y143995D01*
X1823982D01*
X1853000Y785990D02*
Y756000D01*
X1867995D01*
X1872994Y760998D01*
Y780992D01*
X1867995Y785990D01*
X1853000D01*
X1882990Y780992D02*
X1887989Y785990D01*
X1897986D01*
X1902984Y780992D01*
Y775994D01*
X1897986Y770995D01*
X1902984Y765997D01*
Y760998D01*
X1897986Y756000D01*
X1887989D01*
X1882990Y760998D01*
Y765997D01*
X1887989Y770995D01*
X1882990Y775994D01*
Y780992D01*
X1887989Y770995D02*
X1897986D01*
X1741000Y784990D02*
Y755000D01*
X1755995D01*
X1760994Y759998D01*
Y779992D01*
X1755995Y784990D01*
X1741000D01*
X1770990D02*
X1790984D01*
Y779992D01*
X1770990Y759998D01*
Y755000D01*
X1304000Y784864D02*
Y754874D01*
X1318995D01*
X1323994Y759872D01*
Y779866D01*
X1318995Y784864D01*
X1304000D01*
X1353984D02*
X1333990D01*
Y769869D01*
X1343987Y774867D01*
X1348986D01*
X1353984Y769869D01*
Y759872D01*
X1348986Y754874D01*
X1338989D01*
X1333990Y759872D01*
X1193000Y784864D02*
Y754874D01*
X1207995D01*
X1212994Y759872D01*
Y779866D01*
X1207995Y784864D01*
X1193000D01*
X1242984D02*
X1232987Y779866D01*
X1222990Y769869D01*
Y759872D01*
X1227989Y754874D01*
X1237986D01*
X1242984Y759872D01*
Y764871D01*
X1237986Y769869D01*
X1222990D01*
X976000Y784990D02*
Y755000D01*
X990995D01*
X995994Y759998D01*
Y779992D01*
X990995Y784990D01*
X976000D01*
X1005990Y755000D02*
X1015987D01*
X1010989D01*
Y784990D01*
X1005990Y779992D01*
X1454993Y652992D02*
X1449995Y657990D01*
X1439998D01*
X1435000Y652992D01*
Y632998D01*
X1439998Y628000D01*
X1449995D01*
X1454993Y632998D01*
X1464990Y628000D02*
X1474987D01*
X1469989D01*
Y657990D01*
X1464990Y652992D01*
X1509976Y657990D02*
X1489982D01*
Y642995D01*
X1499979Y647994D01*
X1504977D01*
X1509976Y642995D01*
Y632998D01*
X1504977Y628000D01*
X1494980D01*
X1489982Y632998D01*
X1458993Y862992D02*
X1453995Y867990D01*
X1443998D01*
X1439000Y862992D01*
Y842998D01*
X1443998Y838000D01*
X1453995D01*
X1458993Y842998D01*
X1468990Y838000D02*
X1478987D01*
X1473989D01*
Y867990D01*
X1468990Y862992D01*
X1508977Y838000D02*
Y867990D01*
X1493982Y852995D01*
X1513976D01*
X1877506Y1316995D02*
X1867509D01*
X1872507D01*
Y1292003D01*
X1867509Y1287005D01*
X1862511D01*
X1857512Y1292003D01*
X1887503Y1287005D02*
X1897499D01*
X1892501D01*
Y1316995D01*
X1887503Y1311997D01*
X1932488Y1287005D02*
X1912494D01*
X1932488Y1306998D01*
Y1311997D01*
X1927490Y1316995D01*
X1917493D01*
X1912494Y1311997D01*
X1773992Y1089000D02*
Y1138984D01*
X1749000Y1113992D01*
X1782323D01*
X1798984Y1089000D02*
Y1138984D01*
Y1105661D02*
X1823976Y1122323D01*
X1798984Y1105661D02*
X1823976Y1089000D01*
X1848968Y1138984D02*
Y1089000D01*
Y1113992D01*
X1882290D01*
Y1138984D01*
Y1089000D01*
X1898951Y1122323D02*
X1932274D01*
X1898951Y1089000D01*
X1932274D01*
X1391013Y1219005D02*
Y1248995D01*
X1406008D01*
X1411006Y1243997D01*
Y1234000D01*
X1406008Y1229002D01*
X1391013D01*
X1401010D02*
X1411006Y1219005D01*
X1440997D02*
X1421003D01*
X1440997Y1238998D01*
Y1243997D01*
X1435998Y1248995D01*
X1426002D01*
X1421003Y1243997D01*
X1450994D02*
X1455992Y1248995D01*
X1465989D01*
X1470987Y1243997D01*
Y1224003D01*
X1465989Y1219005D01*
X1455992D01*
X1450994Y1224003D01*
Y1243997D01*
X1134000Y1128653D02*
X1142331Y1136984D01*
X1158992D01*
X1167323Y1128653D01*
Y1120323D01*
X1158992Y1111992D01*
X1167323Y1103661D01*
Y1095331D01*
X1158992Y1087000D01*
X1142331D01*
X1134000Y1095331D01*
Y1103661D01*
X1142331Y1111992D01*
X1134000Y1120323D01*
Y1128653D01*
X1142331Y1111992D02*
X1158992D01*
X1183984Y1087000D02*
Y1136984D01*
Y1103661D02*
X1208976Y1120323D01*
X1183984Y1103661D02*
X1208976Y1087000D01*
X1233968Y1136984D02*
Y1087000D01*
Y1111992D01*
X1267290D01*
Y1136984D01*
Y1087000D01*
X1283951Y1120323D02*
X1317274D01*
X1283951Y1087000D01*
X1317274D01*
X732990Y1024981D02*
X712997D01*
X703000Y1014984D01*
Y974997D01*
X712997Y965000D01*
X732990D01*
X742987Y974997D01*
Y1014984D01*
X732990Y1024981D01*
X762981D02*
Y974997D01*
X772977Y965000D01*
X792971D01*
X802968Y974997D01*
Y1024981D01*
X822961D02*
X862948D01*
X842955D01*
Y965000D01*
X113000Y1362995D02*
X142990D01*
X127995Y1377990D02*
Y1348000D01*
X127995Y1456000D02*
Y1485990D01*
X664000Y114984D02*
X680661D01*
X672331D01*
Y65000D01*
X664000D01*
X680661D01*
X705653D02*
Y114984D01*
X738976Y65000D01*
Y114984D01*
X755637Y65000D02*
Y114984D01*
X780629D01*
X788960Y106653D01*
Y89992D01*
X780629Y81661D01*
X755637D01*
X805621Y114984D02*
Y73331D01*
X813951Y65000D01*
X830613D01*
X838943Y73331D01*
Y114984D01*
X855605D02*
X888927D01*
X872266D01*
Y65000D01*
X35000Y1172000D02*
X101645D01*
X134968Y1138677D01*
X101645Y1105355D01*
X35000D01*
X84984D01*
Y1172000D01*
X101645Y1072032D02*
X51661D01*
X35000Y1055371D01*
Y1005387D01*
X101645D01*
X134968Y905419D02*
X35000D01*
Y955403D01*
X51661Y972065D01*
X84984D01*
X101645Y955403D01*
Y905419D01*
X35000Y872097D02*
Y838774D01*
Y855436D01*
X101645D01*
Y872097D01*
X35000Y772129D02*
Y738807D01*
X51661Y722145D01*
X84984D01*
X101645Y738807D01*
Y772129D01*
X84984Y788790D01*
X51661D01*
X35000Y772129D01*
X134968Y588855D02*
Y555533D01*
Y572194D01*
X35000D01*
Y588855D01*
Y555533D01*
Y505549D02*
X134968D01*
X35000Y438904D01*
X134968D01*
X838204Y1201995D02*
X828207D01*
X833206D01*
Y1177003D01*
X828207Y1172005D01*
X823209D01*
X818210Y1177003D01*
X868194Y1172005D02*
X848201D01*
X868194Y1191998D01*
Y1196997D01*
X863196Y1201995D01*
X853199D01*
X848201Y1196997D01*
X878191Y1172005D02*
X888188D01*
X883189D01*
Y1201995D01*
X878191Y1196997D01*
X527000Y1469987D02*
Y1443329D01*
X540329Y1430000D01*
X553658Y1443329D01*
Y1469987D01*
X566987Y1430000D02*
Y1469987D01*
X586981D01*
X593645Y1463323D01*
Y1449994D01*
X586981Y1443329D01*
X566987D01*
X580316D02*
X593645Y1430000D01*
X633632D02*
X606974D01*
X633632Y1456658D01*
Y1463323D01*
X626968Y1469987D01*
X613639D01*
X606974Y1463323D01*
X397000Y196987D02*
Y170329D01*
X410329Y157000D01*
X423658Y170329D01*
Y196987D01*
X436987Y157000D02*
Y196987D01*
X456981D01*
X463645Y190323D01*
Y176994D01*
X456981Y170329D01*
X436987D01*
X450316D02*
X463645Y157000D01*
X476974D02*
X490303D01*
X483639D01*
Y196987D01*
X476974Y190323D01*
X3551000Y2971987D02*
Y2938664D01*
X3557664Y2932000D01*
X3570994D01*
X3577658Y2938664D01*
Y2971987D01*
X3590987Y2965323D02*
X3597652Y2971987D01*
X3610981D01*
X3617645Y2965323D01*
Y2958658D01*
X3610981Y2951994D01*
X3617645Y2945329D01*
Y2938664D01*
X3610981Y2932000D01*
X3597652D01*
X3590987Y2938664D01*
Y2945329D01*
X3597652Y2951994D01*
X3590987Y2958658D01*
Y2965323D01*
X3597652Y2951994D02*
X3610981D01*
X3684290Y2932000D02*
X3670961D01*
Y2971987D01*
X3684290D01*
X3730942D02*
X3704284D01*
Y2951994D01*
X3717613Y2958658D01*
X3724277D01*
X3730942Y2951994D01*
Y2938664D01*
X3724277Y2932000D01*
X3710948D01*
X3704284Y2938664D01*
X3744271Y2965323D02*
X3750936Y2971987D01*
X3764265D01*
X3770929Y2965323D01*
Y2938664D01*
X3764265Y2932000D01*
X3750936D01*
X3744271Y2938664D01*
Y2965323D01*
X3784258D02*
X3790923Y2971987D01*
X3804252D01*
X3810916Y2965323D01*
Y2938664D01*
X3804252Y2932000D01*
X3790923D01*
X3784258Y2938664D01*
Y2965323D01*
X3824245Y2971987D02*
Y2932000D01*
Y2951994D01*
X3850903D01*
Y2971987D01*
Y2932000D01*
X3864232Y2958658D02*
X3890890D01*
X3864232Y2932000D01*
X3890890D01*
X3904219D02*
X3917548D01*
Y2971987D01*
X3904219D01*
X3551000Y2377987D02*
Y2344664D01*
X3557664Y2338000D01*
X3570994D01*
X3577658Y2344664D01*
Y2377987D01*
X3590987D02*
X3617645D01*
Y2371323D01*
X3590987Y2344664D01*
Y2338000D01*
X3684290D02*
X3670961D01*
Y2377987D01*
X3684290D01*
X3704284Y2338000D02*
X3717613D01*
X3710948D01*
Y2377987D01*
X3704284Y2371323D01*
X3737606Y2338000D02*
Y2377987D01*
Y2351329D02*
X3757600Y2364658D01*
X3737606Y2351329D02*
X3757600Y2338000D01*
X3777594Y2377987D02*
Y2338000D01*
Y2357994D01*
X3804252D01*
Y2377987D01*
Y2338000D01*
X3817581Y2364658D02*
X3844239D01*
X3817581Y2338000D01*
X3844239D01*
X3857568D02*
X3870897D01*
Y2377987D01*
X3857568D01*
X2469000Y2971987D02*
Y2938664D01*
X2475664Y2932000D01*
X2488994D01*
X2495658Y2938664D01*
Y2971987D01*
X2535645D02*
X2522316Y2965323D01*
X2508987Y2951994D01*
Y2938664D01*
X2515652Y2932000D01*
X2528981D01*
X2535645Y2938664D01*
Y2945329D01*
X2528981Y2951994D01*
X2508987D01*
X2602290Y2932000D02*
X2588961D01*
Y2971987D01*
X2602290D01*
X2648942Y2932000D02*
X2622284D01*
X2648942Y2958658D01*
Y2965323D01*
X2642277Y2971987D01*
X2628948D01*
X2622284Y2965323D01*
X2688929Y2971987D02*
X2662271D01*
Y2951994D01*
X2675600Y2958658D01*
X2682265D01*
X2688929Y2951994D01*
Y2938664D01*
X2682265Y2932000D01*
X2668936D01*
X2662271Y2938664D01*
X2702258Y2965323D02*
X2708923Y2971987D01*
X2722252D01*
X2728916Y2965323D01*
Y2938664D01*
X2722252Y2932000D01*
X2708923D01*
X2702258Y2938664D01*
Y2965323D01*
X2742245Y2971987D02*
Y2932000D01*
Y2951994D01*
X2768903D01*
Y2971987D01*
Y2932000D01*
X2782232Y2958658D02*
X2808890D01*
X2782232Y2932000D01*
X2808890D01*
X2822219D02*
X2835548D01*
Y2971987D01*
X2822219D01*
X3551000Y1784987D02*
Y1751665D01*
X3557664Y1745000D01*
X3570994D01*
X3577658Y1751665D01*
Y1784987D01*
X3617645D02*
X3590987D01*
Y1764994D01*
X3604316Y1771658D01*
X3610981D01*
X3617645Y1764994D01*
Y1751665D01*
X3610981Y1745000D01*
X3597652D01*
X3590987Y1751665D01*
X3684290Y1745000D02*
X3670961D01*
Y1784987D01*
X3684290D01*
X3730942Y1745000D02*
X3704284D01*
X3730942Y1771658D01*
Y1778323D01*
X3724277Y1784987D01*
X3710948D01*
X3704284Y1778323D01*
X3744271Y1745000D02*
Y1784987D01*
Y1758329D02*
X3764265Y1771658D01*
X3744271Y1758329D02*
X3764265Y1745000D01*
X3784258Y1784987D02*
Y1745000D01*
Y1764994D01*
X3810916D01*
Y1784987D01*
Y1745000D01*
X3824245Y1771658D02*
X3850903D01*
X3824245Y1745000D01*
X3850903D01*
X3864232D02*
X3877561D01*
Y1784987D01*
X3864232D01*
X1387000Y2971987D02*
Y2938664D01*
X1393665Y2932000D01*
X1406994D01*
X1413658Y2938664D01*
Y2971987D01*
X1446981Y2932000D02*
Y2971987D01*
X1426987Y2951994D01*
X1453645D01*
X1520290Y2932000D02*
X1506961D01*
Y2971987D01*
X1520290D01*
X1540284Y2932000D02*
X1553613D01*
X1546948D01*
Y2971987D01*
X1540284Y2965323D01*
X1600264Y2932000D02*
X1573607D01*
X1600264Y2958658D01*
Y2965323D01*
X1593600Y2971987D01*
X1580271D01*
X1573607Y2965323D01*
X1640252Y2971987D02*
X1613594D01*
Y2951994D01*
X1626923Y2958658D01*
X1633587D01*
X1640252Y2951994D01*
Y2938664D01*
X1633587Y2932000D01*
X1620258D01*
X1613594Y2938664D01*
X1653581Y2971987D02*
Y2932000D01*
Y2951994D01*
X1680239D01*
Y2971987D01*
Y2932000D01*
X1693568Y2958658D02*
X1720226D01*
X1693568Y2932000D01*
X1720226D01*
X1733555D02*
X1746884D01*
Y2971987D01*
X1733555D01*
X3551000Y597987D02*
Y564664D01*
X3557664Y558000D01*
X3570994D01*
X3577658Y564664D01*
Y597987D01*
X3590987Y591323D02*
X3597652Y597987D01*
X3610981D01*
X3617645Y591323D01*
Y584658D01*
X3610981Y577994D01*
X3604316D01*
X3610981D01*
X3617645Y571329D01*
Y564664D01*
X3610981Y558000D01*
X3597652D01*
X3590987Y564664D01*
X3684290Y558000D02*
X3670961D01*
Y597987D01*
X3684290D01*
X3724277Y558000D02*
Y597987D01*
X3704284Y577994D01*
X3730942D01*
X3784258Y558000D02*
Y597987D01*
Y571329D02*
X3804252Y584658D01*
X3784258Y571329D02*
X3804252Y558000D01*
X3824245Y597987D02*
Y558000D01*
Y577994D01*
X3850903D01*
Y597987D01*
Y558000D01*
X3864232Y584658D02*
X3890890D01*
X3864232Y558000D01*
X3890890D01*
X3904219D02*
X3917548D01*
Y597987D01*
X3904219D01*
X304000Y2971987D02*
Y2938664D01*
X310664Y2932000D01*
X323993D01*
X330658Y2938664D01*
Y2971987D01*
X370645Y2932000D02*
X343987D01*
X370645Y2958658D01*
Y2965323D01*
X363981Y2971987D01*
X350652D01*
X343987Y2965323D01*
X437290Y2932000D02*
X423961D01*
Y2971987D01*
X437290D01*
X483942D02*
X470613Y2965323D01*
X457284Y2951994D01*
Y2938664D01*
X463948Y2932000D01*
X477277D01*
X483942Y2938664D01*
Y2945329D01*
X477277Y2951994D01*
X457284D01*
X517264Y2932000D02*
Y2971987D01*
X497271Y2951994D01*
X523929D01*
X537258Y2971987D02*
Y2932000D01*
Y2951994D01*
X563916D01*
Y2971987D01*
Y2932000D01*
X577245Y2958658D02*
X603903D01*
X577245Y2932000D01*
X603903D01*
X617232D02*
X630561D01*
Y2971987D01*
X617232D01*
X3551000Y1190987D02*
Y1157665D01*
X3557664Y1151000D01*
X3570994D01*
X3577658Y1157665D01*
Y1190987D01*
X3590987Y1151000D02*
X3604316D01*
X3597652D01*
Y1190987D01*
X3590987Y1184323D01*
X3677626Y1151000D02*
X3664297D01*
Y1190987D01*
X3677626D01*
X3697619Y1184323D02*
X3704284Y1190987D01*
X3717613D01*
X3724277Y1184323D01*
Y1177658D01*
X3717613Y1170994D01*
X3724277Y1164329D01*
Y1157665D01*
X3717613Y1151000D01*
X3704284D01*
X3697619Y1157665D01*
Y1164329D01*
X3704284Y1170994D01*
X3697619Y1177658D01*
Y1184323D01*
X3704284Y1170994D02*
X3717613D01*
X3777594Y1151000D02*
Y1190987D01*
Y1164329D02*
X3797587Y1177658D01*
X3777594Y1164329D02*
X3797587Y1151000D01*
X3817581Y1190987D02*
Y1151000D01*
Y1170994D01*
X3844239D01*
Y1190987D01*
Y1151000D01*
X3857568Y1177658D02*
X3884226D01*
X3857568Y1151000D01*
X3884226D01*
X3897555D02*
X3910884D01*
Y1190987D01*
X3897555D01*
X2608000Y1092819D02*
Y1122809D01*
X2622995D01*
X2627994Y1117811D01*
Y1107814D01*
X2622995Y1102816D01*
X2608000D01*
X2617997D02*
X2627994Y1092819D01*
X2657984Y1122809D02*
X2637990D01*
Y1107814D01*
X2647987Y1112812D01*
X2652985D01*
X2657984Y1107814D01*
Y1097817D01*
X2652985Y1092819D01*
X2642989D01*
X2637990Y1097817D01*
X2667981Y1122809D02*
X2687974D01*
Y1117811D01*
X2667981Y1097817D01*
Y1092819D01*
X2757874Y1220000D02*
Y1249990D01*
X2772869D01*
X2777867Y1244992D01*
Y1234995D01*
X2772869Y1229997D01*
X2757874D01*
X2767870D02*
X2777867Y1220000D01*
X2807857Y1249990D02*
X2787864D01*
Y1234995D01*
X2797861Y1239994D01*
X2802859D01*
X2807857Y1234995D01*
Y1224998D01*
X2802859Y1220000D01*
X2792862D01*
X2787864Y1224998D01*
X2837848Y1249990D02*
X2827851Y1244992D01*
X2817854Y1234995D01*
Y1224998D01*
X2822852Y1220000D01*
X2832849D01*
X2837848Y1224998D01*
Y1229997D01*
X2832849Y1234995D01*
X2817854D01*
X2608000Y1218819D02*
Y1248809D01*
X2622995D01*
X2627994Y1243811D01*
Y1233814D01*
X2622995Y1228816D01*
X2608000D01*
X2617997D02*
X2627994Y1218819D01*
X2657984Y1248809D02*
X2637990D01*
Y1233814D01*
X2647987Y1238812D01*
X2652985D01*
X2657984Y1233814D01*
Y1223817D01*
X2652985Y1218819D01*
X2642989D01*
X2637990Y1223817D01*
X2687974Y1248809D02*
X2667981D01*
Y1233814D01*
X2677977Y1238812D01*
X2682976D01*
X2687974Y1233814D01*
Y1223817D01*
X2682976Y1218819D01*
X2672979D01*
X2667981Y1223817D01*
X2757874Y1344819D02*
Y1374809D01*
X2772869D01*
X2777867Y1369811D01*
Y1359814D01*
X2772869Y1354816D01*
X2757874D01*
X2767870D02*
X2777867Y1344819D01*
X2807857Y1374809D02*
X2787864D01*
Y1359814D01*
X2797861Y1364812D01*
X2802859D01*
X2807857Y1359814D01*
Y1349817D01*
X2802859Y1344819D01*
X2792862D01*
X2787864Y1349817D01*
X2832849Y1344819D02*
Y1374809D01*
X2817854Y1359814D01*
X2837848D01*
X2608000Y1344819D02*
Y1374809D01*
X2622995D01*
X2627994Y1369811D01*
Y1359814D01*
X2622995Y1354816D01*
X2608000D01*
X2617997D02*
X2627994Y1344819D01*
X2657984Y1374809D02*
X2637990D01*
Y1359814D01*
X2647987Y1364812D01*
X2652985D01*
X2657984Y1359814D01*
Y1349817D01*
X2652985Y1344819D01*
X2642989D01*
X2637990Y1349817D01*
X2667981Y1369811D02*
X2672979Y1374809D01*
X2682976D01*
X2687974Y1369811D01*
Y1364812D01*
X2682976Y1359814D01*
X2677977D01*
X2682976D01*
X2687974Y1354816D01*
Y1349817D01*
X2682976Y1344819D01*
X2672979D01*
X2667981Y1349817D01*
X1947000Y728625D02*
Y758615D01*
X1961995D01*
X1966994Y753617D01*
Y743620D01*
X1961995Y738622D01*
X1947000D01*
X1956997D02*
X1966994Y728625D01*
X1991986D02*
Y758615D01*
X1976990Y743620D01*
X1996984D01*
X2006981Y733624D02*
X2011979Y728625D01*
X2021976D01*
X2026974Y733624D01*
Y753617D01*
X2021976Y758615D01*
X2011979D01*
X2006981Y753617D01*
Y748619D01*
X2011979Y743620D01*
X2026974D01*
X1947000Y856947D02*
Y886937D01*
X1961995D01*
X1966994Y881939D01*
Y871942D01*
X1961995Y866944D01*
X1947000D01*
X1956997D02*
X1966994Y856947D01*
X1991986D02*
Y886937D01*
X1976990Y871942D01*
X1996984D01*
X2006981Y881939D02*
X2011979Y886937D01*
X2021976D01*
X2026974Y881939D01*
Y876940D01*
X2021976Y871942D01*
X2026974Y866944D01*
Y861945D01*
X2021976Y856947D01*
X2011979D01*
X2006981Y861945D01*
Y866944D01*
X2011979Y871942D01*
X2006981Y876940D01*
Y881939D01*
X2011979Y871942D02*
X2021976D01*
X1533875Y1344819D02*
Y1374809D01*
X1548870D01*
X1553868Y1369811D01*
Y1359814D01*
X1548870Y1354816D01*
X1533875D01*
X1543872D02*
X1553868Y1344819D01*
X1583859D02*
X1563865D01*
X1583859Y1364812D01*
Y1369811D01*
X1578860Y1374809D01*
X1568864D01*
X1563865Y1369811D01*
X1593855Y1349817D02*
X1598854Y1344819D01*
X1608851D01*
X1613849Y1349817D01*
Y1369811D01*
X1608851Y1374809D01*
X1598854D01*
X1593855Y1369811D01*
Y1364812D01*
X1598854Y1359814D01*
X1613849D01*
X160000Y2358479D02*
Y2388469D01*
X174995D01*
X179994Y2383471D01*
Y2373474D01*
X174995Y2368476D01*
X160000D01*
X169997D02*
X179994Y2358479D01*
X189990D02*
X199987D01*
X194989D01*
Y2388469D01*
X189990Y2383471D01*
X214982Y2363477D02*
X219981Y2358479D01*
X229977D01*
X234976Y2363477D01*
Y2383471D01*
X229977Y2388469D01*
X219981D01*
X214982Y2383471D01*
Y2378472D01*
X219981Y2373474D01*
X234976D01*
X160000Y2210740D02*
Y2240730D01*
X174995D01*
X179994Y2235732D01*
Y2225735D01*
X174995Y2220737D01*
X160000D01*
X169997D02*
X179994Y2210740D01*
X189990D02*
X199987D01*
X194989D01*
Y2240730D01*
X189990Y2235732D01*
X214982D02*
X219981Y2240730D01*
X229977D01*
X234976Y2235732D01*
Y2230733D01*
X229977Y2225735D01*
X234976Y2220737D01*
Y2215738D01*
X229977Y2210740D01*
X219981D01*
X214982Y2215738D01*
Y2220737D01*
X219981Y2225735D01*
X214982Y2230733D01*
Y2235732D01*
X219981Y2225735D02*
X229977D01*
X160000Y2075001D02*
Y2104991D01*
X174995D01*
X179994Y2099993D01*
Y2089996D01*
X174995Y2084997D01*
X160000D01*
X169997D02*
X179994Y2075001D01*
X189990D02*
X199987D01*
X194989D01*
Y2104991D01*
X189990Y2099993D01*
X214982Y2104991D02*
X234976D01*
Y2099993D01*
X214982Y2079999D01*
Y2075001D01*
X637126Y1950000D02*
Y1979990D01*
X652121D01*
X657119Y1974992D01*
Y1964995D01*
X652121Y1959997D01*
X637126D01*
X647123D02*
X657119Y1950000D01*
X667116D02*
X677113D01*
X672115D01*
Y1979990D01*
X667116Y1974992D01*
X712101Y1979990D02*
X702105Y1974992D01*
X692108Y1964995D01*
Y1954998D01*
X697106Y1950000D01*
X707103D01*
X712101Y1954998D01*
Y1959997D01*
X707103Y1964995D01*
X692108D01*
X789000Y2072000D02*
Y2101990D01*
X803995D01*
X808994Y2096992D01*
Y2086995D01*
X803995Y2081997D01*
X789000D01*
X798997D02*
X808994Y2072000D01*
X818990D02*
X828987D01*
X823989D01*
Y2101990D01*
X818990Y2096992D01*
X863976Y2101990D02*
X843982D01*
Y2086995D01*
X853979Y2091994D01*
X858977D01*
X863976Y2086995D01*
Y2076998D01*
X858977Y2072000D01*
X848981D01*
X843982Y2076998D01*
X872000Y1444503D02*
Y1474494D01*
X886995D01*
X891994Y1469495D01*
Y1459498D01*
X886995Y1454500D01*
X872000D01*
X881997D02*
X891994Y1444503D01*
X901990D02*
X911987D01*
X906989D01*
Y1474494D01*
X901990Y1469495D01*
X926982D02*
X931981Y1474494D01*
X941977D01*
X946976Y1469495D01*
Y1449502D01*
X941977Y1444503D01*
X931981D01*
X926982Y1449502D01*
Y1469495D01*
X1024008Y173004D02*
Y202994D01*
X1039003D01*
X1044002Y197996D01*
Y187999D01*
X1039003Y183001D01*
X1024008D01*
X1034005D02*
X1044002Y173004D01*
X1053998Y197996D02*
X1058997Y202994D01*
X1068994D01*
X1073992Y197996D01*
Y192998D01*
X1068994Y187999D01*
X1073992Y183001D01*
Y178003D01*
X1068994Y173004D01*
X1058997D01*
X1053998Y178003D01*
Y183001D01*
X1058997Y187999D01*
X1053998Y192998D01*
Y197996D01*
X1058997Y187999D02*
X1068994D01*
X1180675Y168002D02*
Y197992D01*
X1195670D01*
X1200668Y192994D01*
Y182997D01*
X1195670Y177999D01*
X1180675D01*
X1190671D02*
X1200668Y168002D01*
X1210665Y197992D02*
X1230659D01*
Y192994D01*
X1210665Y173000D01*
Y168002D01*
X898008Y1580341D02*
Y1610332D01*
X913003D01*
X918002Y1605333D01*
Y1595337D01*
X913003Y1590338D01*
X898008D01*
X908005D02*
X918002Y1580341D01*
X942994D02*
Y1610332D01*
X927998Y1595337D01*
X947992D01*
X782066Y907992D02*
X812057D01*
Y892997D01*
X807058Y887998D01*
X797061D01*
X792063Y892997D01*
Y907992D01*
Y897995D02*
X782066Y887998D01*
X807058Y878002D02*
X812057Y873003D01*
Y863006D01*
X807058Y858008D01*
X802060D01*
X797061Y863006D01*
Y868005D01*
Y863006D01*
X792063Y858008D01*
X787065D01*
X782066Y863006D01*
Y873003D01*
X787065Y878002D01*
X654119Y917000D02*
X684109D01*
Y902005D01*
X679111Y897006D01*
X669114D01*
X664116Y902005D01*
Y917000D01*
Y907003D02*
X654119Y897006D01*
Y867016D02*
Y887010D01*
X674112Y867016D01*
X679111D01*
X684109Y872014D01*
Y882011D01*
X679111Y887010D01*
X910000Y917000D02*
X939990D01*
Y902005D01*
X934992Y897006D01*
X924995D01*
X919997Y902005D01*
Y917000D01*
Y907003D02*
X910000Y897006D01*
Y887010D02*
Y877013D01*
Y882011D01*
X939990D01*
X934992Y887010D01*
X222926Y1441658D02*
Y1454987D01*
Y1448322D01*
X189603D01*
X182939Y1454987D01*
Y1461651D01*
X189603Y1468316D01*
X182939Y1401671D02*
Y1428329D01*
X209597Y1401671D01*
X216261D01*
X222926Y1408335D01*
Y1421664D01*
X216261Y1428329D01*
X182939Y1361684D02*
Y1388342D01*
X209597Y1361684D01*
X216261D01*
X222926Y1368348D01*
Y1381677D01*
X216261Y1388342D01*
X1265506Y1314995D02*
X1255509D01*
X1260507D01*
Y1290003D01*
X1255509Y1285005D01*
X1250511D01*
X1245512Y1290003D01*
X1275503Y1285005D02*
X1285499D01*
X1280501D01*
Y1314995D01*
X1275503Y1309997D01*
X1300494D02*
X1305493Y1314995D01*
X1315490D01*
X1320488Y1309997D01*
Y1290003D01*
X1315490Y1285005D01*
X1305493D01*
X1300494Y1290003D01*
Y1309997D01*
X845002Y298995D02*
X835005D01*
X840003D01*
Y274003D01*
X835005Y269005D01*
X830006D01*
X825008Y274003D01*
X869994Y269005D02*
Y298995D01*
X854998Y284000D01*
X874992D01*
X199946Y546000D02*
X186617D01*
X193281D01*
Y512678D01*
X186617Y506013D01*
X179952D01*
X173288Y512678D01*
X213275Y539336D02*
X219940Y546000D01*
X233269D01*
X239933Y539336D01*
Y532671D01*
X233269Y526006D01*
X226604D01*
X233269D01*
X239933Y519342D01*
Y512678D01*
X233269Y506013D01*
X219940D01*
X213275Y512678D01*
X199946Y814858D02*
X186617D01*
X193281D01*
Y781536D01*
X186617Y774871D01*
X179952D01*
X173288Y781536D01*
X239933Y774871D02*
X213275D01*
X239933Y801529D01*
Y808194D01*
X233269Y814858D01*
X219940D01*
X213275Y808194D01*
X379658Y1123987D02*
X366329D01*
X372993D01*
Y1090664D01*
X366329Y1084000D01*
X359664D01*
X353000Y1090664D01*
X392987Y1084000D02*
X406316D01*
X399652D01*
Y1123987D01*
X392987Y1117322D01*
X165994Y1805984D02*
Y1792655D01*
Y1799319D01*
X126007D01*
Y1805984D01*
Y1792655D01*
X159329Y1746003D02*
X165994Y1752668D01*
Y1765997D01*
X159329Y1772661D01*
X132671D01*
X126007Y1765997D01*
Y1752668D01*
X132671Y1746003D01*
X165994Y1706016D02*
X159329Y1719345D01*
X146000Y1732674D01*
X132671D01*
X126007Y1726010D01*
Y1712681D01*
X132671Y1706016D01*
X139335D01*
X146000Y1712681D01*
Y1732674D01*
X2977000Y1594987D02*
X2990329D01*
X2983664D01*
Y1555000D01*
X2977000D01*
X2990329D01*
X3036981Y1588323D02*
X3030316Y1594987D01*
X3016987D01*
X3010323Y1588323D01*
Y1561665D01*
X3016987Y1555000D01*
X3030316D01*
X3036981Y1561665D01*
X3076968Y1594987D02*
X3050310D01*
Y1574994D01*
X3063639Y1581658D01*
X3070303D01*
X3076968Y1574994D01*
Y1561665D01*
X3070303Y1555000D01*
X3056974D01*
X3050310Y1561665D01*
X2373000Y1594987D02*
X2386329D01*
X2379664D01*
Y1555000D01*
X2373000D01*
X2386329D01*
X2432981Y1588323D02*
X2426316Y1594987D01*
X2412987D01*
X2406323Y1588323D01*
Y1561665D01*
X2412987Y1555000D01*
X2426316D01*
X2432981Y1561665D01*
X2466303Y1555000D02*
Y1594987D01*
X2446310Y1574994D01*
X2472968D01*
X1769000Y1594987D02*
X1782329D01*
X1775665D01*
Y1555000D01*
X1769000D01*
X1782329D01*
X1828981Y1588323D02*
X1822316Y1594987D01*
X1808987D01*
X1802323Y1588323D01*
Y1561665D01*
X1808987Y1555000D01*
X1822316D01*
X1828981Y1561665D01*
X1842310Y1588323D02*
X1848974Y1594987D01*
X1862303D01*
X1868968Y1588323D01*
Y1581658D01*
X1862303Y1574994D01*
X1855639D01*
X1862303D01*
X1868968Y1568329D01*
Y1561665D01*
X1862303Y1555000D01*
X1848974D01*
X1842310Y1561665D01*
X1165000Y1594987D02*
X1178329D01*
X1171665D01*
Y1555000D01*
X1165000D01*
X1178329D01*
X1224981Y1588323D02*
X1218316Y1594987D01*
X1204987D01*
X1198323Y1588323D01*
Y1561665D01*
X1204987Y1555000D01*
X1218316D01*
X1224981Y1561665D01*
X1264968Y1555000D02*
X1238310D01*
X1264968Y1581658D01*
Y1588323D01*
X1258303Y1594987D01*
X1244974D01*
X1238310Y1588323D01*
X497681Y652994D02*
X511010D01*
X504345D01*
Y613006D01*
X497681D01*
X511010D01*
X557661Y646329D02*
X550997Y652994D01*
X537668D01*
X531003Y646329D01*
Y619671D01*
X537668Y613006D01*
X550997D01*
X557661Y619671D01*
X570990Y613006D02*
X584319D01*
X577655D01*
Y652994D01*
X570990Y646329D01*
X2865000Y784990D02*
Y755000D01*
X2879995D01*
X2884994Y759998D01*
Y779992D01*
X2879995Y784990D01*
X2865000D01*
X2894990Y755000D02*
X2904987D01*
X2899989D01*
Y784990D01*
X2894990Y779992D01*
X2939976Y784990D02*
X2929979Y779992D01*
X2919982Y769995D01*
Y759998D01*
X2924981Y755000D01*
X2934977D01*
X2939976Y759998D01*
Y764997D01*
X2934977Y769995D01*
X2919982D01*
X2754000Y784990D02*
Y755000D01*
X2768995D01*
X2773994Y759998D01*
Y779992D01*
X2768995Y784990D01*
X2754000D01*
X2783990Y755000D02*
X2793987D01*
X2788989D01*
Y784990D01*
X2783990Y779992D01*
X2828976Y755000D02*
X2808982D01*
X2828976Y774994D01*
Y779992D01*
X2823977Y784990D01*
X2813981D01*
X2808982Y779992D01*
X2647333Y784990D02*
Y755000D01*
X2662329D01*
X2667327Y759998D01*
Y779992D01*
X2662329Y784990D01*
X2647333D01*
X2677324Y755000D02*
X2687320D01*
X2682322D01*
Y784990D01*
X2677324Y779992D01*
X2702316Y755000D02*
X2712312D01*
X2707314D01*
Y784990D01*
X2702316Y779992D01*
X2421000Y784990D02*
Y755000D01*
X2435995D01*
X2440994Y759998D01*
Y779992D01*
X2435995Y784990D01*
X2421000D01*
X2450990Y755000D02*
X2460987D01*
X2455989D01*
Y784990D01*
X2450990Y779992D01*
X2475982D02*
X2480981Y784990D01*
X2490977D01*
X2495976Y779992D01*
Y759998D01*
X2490977Y755000D01*
X2480981D01*
X2475982Y759998D01*
Y779992D01*
X2543667Y784990D02*
Y755000D01*
X2558662D01*
X2563660Y759998D01*
Y779992D01*
X2558662Y784990D01*
X2543667D01*
X2573657Y759998D02*
X2578655Y755000D01*
X2588652D01*
X2593651Y759998D01*
Y779992D01*
X2588652Y784990D01*
X2578655D01*
X2573657Y779992D01*
Y774994D01*
X2578655Y769995D01*
X2593651D01*
X381000Y1906990D02*
Y1877000D01*
X395995D01*
X400993Y1881998D01*
Y1901992D01*
X395995Y1906990D01*
X381000D01*
X425986Y1877000D02*
Y1906990D01*
X410990Y1891995D01*
X430984D01*
X497000Y1906990D02*
Y1877000D01*
X511995D01*
X516994Y1881998D01*
Y1901992D01*
X511995Y1906990D01*
X497000D01*
X526990Y1901992D02*
X531989Y1906990D01*
X541986D01*
X546984Y1901992D01*
Y1896994D01*
X541986Y1891995D01*
X536987D01*
X541986D01*
X546984Y1886997D01*
Y1881998D01*
X541986Y1877000D01*
X531989D01*
X526990Y1881998D01*
X446994Y2192992D02*
X441995Y2197990D01*
X431998D01*
X427000Y2192992D01*
Y2172998D01*
X431998Y2168000D01*
X441995D01*
X446994Y2172998D01*
X456990D02*
X461989Y2168000D01*
X471986D01*
X476984Y2172998D01*
Y2192992D01*
X471986Y2197990D01*
X461989D01*
X456990Y2192992D01*
Y2187994D01*
X461989Y2182995D01*
X476984D01*
X677994Y2088871D02*
X672995Y2093870D01*
X662998D01*
X658000Y2088871D01*
Y2068878D01*
X662998Y2063879D01*
X672995D01*
X677994Y2068878D01*
X687990Y2093870D02*
X707984D01*
Y2088871D01*
X687990Y2068878D01*
Y2063879D01*
X679994Y1842992D02*
X674995Y1847990D01*
X664998D01*
X660000Y1842992D01*
Y1822998D01*
X664998Y1818000D01*
X674995D01*
X679994Y1822998D01*
X709984Y1847990D02*
X699987Y1842992D01*
X689990Y1832995D01*
Y1822998D01*
X694989Y1818000D01*
X704986D01*
X709984Y1822998D01*
Y1827997D01*
X704986Y1832995D01*
X689990D01*
X1034002Y278627D02*
X1029003Y283625D01*
X1019006D01*
X1014008Y278627D01*
Y258633D01*
X1019006Y253635D01*
X1029003D01*
X1034002Y258633D01*
X1063992Y283625D02*
X1043998D01*
Y268630D01*
X1053995Y273628D01*
X1058994D01*
X1063992Y268630D01*
Y258633D01*
X1058994Y253635D01*
X1048997D01*
X1043998Y258633D01*
X1328994Y337992D02*
X1323995Y342990D01*
X1313998D01*
X1309000Y337992D01*
Y317998D01*
X1313998Y313000D01*
X1323995D01*
X1328994Y317998D01*
X1353986Y313000D02*
Y342990D01*
X1338990Y327995D01*
X1358984D01*
X1028002Y1119997D02*
X1023003Y1124995D01*
X1013006D01*
X1008008Y1119997D01*
Y1100003D01*
X1013006Y1095005D01*
X1023003D01*
X1028002Y1100003D01*
X1057992Y1095005D02*
X1037998D01*
X1057992Y1114998D01*
Y1119997D01*
X1052994Y1124995D01*
X1042997D01*
X1037998Y1119997D01*
X543992Y892881D02*
X548990Y897879D01*
Y907876D01*
X543992Y912875D01*
X523999D01*
X519000Y907876D01*
Y897879D01*
X523999Y892881D01*
X519000Y882884D02*
Y872888D01*
Y877886D01*
X548990D01*
X543992Y882884D01*
D45*
X1107000Y864764D02*
Y900984D01*
Y649016D02*
Y685236D01*
X1144402D01*
X1069204D02*
X1107000D01*
Y864764D02*
X1144796D01*
X1069598D02*
X1107000D01*
X1069204Y834842D02*
Y864764D01*
X1144796Y834842D02*
Y864764D01*
Y685236D02*
Y715158D01*
X1069204Y685236D02*
Y715158D01*
X2499015Y97000D02*
X2535235D01*
X2714763D02*
X2750983D01*
X2714763D02*
Y134402D01*
Y59204D02*
Y97000D01*
X2535235D02*
Y134796D01*
Y59598D02*
Y97000D01*
Y59204D02*
X2565157D01*
X2535235Y134796D02*
X2565157D01*
X2684843D02*
X2714763D01*
X2684843Y59204D02*
X2714763D01*
X2499015Y209000D02*
X2535235D01*
X2714763D02*
X2750983D01*
X2714763D02*
Y246402D01*
Y171204D02*
Y209000D01*
X2535235D02*
Y246796D01*
Y171598D02*
Y209000D01*
Y171204D02*
X2565155D01*
X2535235Y246796D02*
X2565155D01*
X2684841D02*
X2714763D01*
X2684841Y171204D02*
X2714763D01*
X2499015Y320000D02*
X2535237D01*
X2714763D02*
X2750985D01*
X2714763D02*
Y357402D01*
Y282204D02*
Y320000D01*
X2535237D02*
Y357796D01*
Y282598D02*
Y320000D01*
Y282204D02*
X2565157D01*
X2535237Y357796D02*
X2565157D01*
X2684843D02*
X2714763D01*
X2684843Y282204D02*
X2714763D01*
X1878000Y640016D02*
Y676238D01*
Y855766D02*
Y891986D01*
X1840598Y855766D02*
X1878000D01*
X1915796D01*
X1840204Y676238D02*
X1878000D01*
X1915402D01*
X1915796D02*
Y706158D01*
X1840204Y676238D02*
Y706158D01*
Y825844D02*
Y855766D01*
X1915796Y825844D02*
Y855766D01*
X1766000Y864766D02*
Y900986D01*
Y649016D02*
Y685238D01*
X1803402D01*
X1728204D02*
X1766000D01*
Y864766D02*
X1803796D01*
X1728598D02*
X1766000D01*
X1728204Y834844D02*
Y864766D01*
X1803796Y834844D02*
Y864766D01*
Y685238D02*
Y715158D01*
X1728204Y685238D02*
Y715158D01*
X1329000Y639016D02*
Y675236D01*
Y854764D02*
Y890984D01*
X1291598Y854764D02*
X1329000D01*
X1366796D01*
X1291204Y675236D02*
X1329000D01*
X1366402D01*
X1366796D02*
Y705158D01*
X1291204Y675236D02*
Y705158D01*
Y824842D02*
Y854764D01*
X1366796Y824842D02*
Y854764D01*
X1218000Y864764D02*
Y900984D01*
Y649016D02*
Y685236D01*
X1255402D01*
X1180204D02*
X1218000D01*
Y864764D02*
X1255796D01*
X1180598D02*
X1218000D01*
X1180204Y834842D02*
Y864764D01*
X1255796Y834842D02*
Y864764D01*
Y685236D02*
Y715158D01*
X1180204Y685236D02*
Y715158D01*
X996000Y639016D02*
Y675236D01*
Y854764D02*
Y890984D01*
X958598Y854764D02*
X996000D01*
X1033796D01*
X958204Y675236D02*
X996000D01*
X1033402D01*
X1033796D02*
Y705158D01*
X958204Y675236D02*
Y705158D01*
Y824842D02*
Y854764D01*
X1033796Y824842D02*
Y854764D01*
X522000Y1986764D02*
Y2022984D01*
Y1771016D02*
Y1807236D01*
X559402D01*
X484204D02*
X522000D01*
Y1986764D02*
X559796D01*
X484598D02*
X522000D01*
X484204Y1956842D02*
Y1986764D01*
X559796Y1956842D02*
Y1986764D01*
Y1807236D02*
Y1837156D01*
X484204Y1807236D02*
Y1837156D01*
X406000Y1761016D02*
Y1797236D01*
Y1976764D02*
Y2012984D01*
X368598Y1976764D02*
X406000D01*
X443796D01*
X368204Y1797236D02*
X406000D01*
X443402D01*
X443796D02*
Y1827156D01*
X368204Y1797236D02*
Y1827156D01*
Y1946842D02*
Y1976764D01*
X443796Y1946842D02*
Y1976764D01*
X2910000Y1763780D02*
X3160000D01*
X2910000Y1386220D02*
X3160000D01*
X4472000Y1956498D02*
Y2216498D01*
X3552000Y1956498D02*
Y2216498D01*
X4472000D01*
X3552000Y1956498D02*
X4472000D01*
Y1363000D02*
Y1623000D01*
X3552000Y1363000D02*
Y1623000D01*
X4472000D01*
X3552000Y1363000D02*
X4472000D01*
Y2550000D02*
Y2810000D01*
X3552000Y2550000D02*
Y2810000D01*
X4472000D01*
X3552000Y2550000D02*
X4472000D01*
X3389666D02*
Y2810000D01*
X2469666Y2550000D02*
Y2810000D01*
X3389666D01*
X2469666Y2550000D02*
X3389666D01*
X1225000D02*
Y2810000D01*
X305000Y2550000D02*
Y2810000D01*
X1225000D01*
X305000Y2550000D02*
X1225000D01*
X3552000Y769500D02*
X4472000D01*
X3552000Y1029500D02*
X4472000D01*
X3552000Y769500D02*
Y1029500D01*
X4472000Y769500D02*
Y1029500D01*
X2307334Y2550000D02*
Y2810000D01*
X1387334Y2550000D02*
Y2810000D01*
X2307334D01*
X1387334Y2550000D02*
X2307334D01*
X4472000Y176000D02*
Y436000D01*
X3552000Y176000D02*
Y436000D01*
X4472000D01*
X3552000Y176000D02*
X4472000D01*
X144000Y1607000D02*
X269000D01*
Y1907000D01*
X144000D02*
X269000D01*
X144000Y1607000D02*
Y1907000D01*
X327078Y39024D02*
X586922D01*
Y39418D02*
Y129378D01*
Y229378D02*
Y314614D01*
X327078D02*
X586922D01*
X327078Y229378D02*
Y314614D01*
Y39418D02*
Y129378D01*
X2420204Y685236D02*
Y715158D01*
X2495796Y685236D02*
Y715158D01*
Y834842D02*
Y864764D01*
X2420204Y834842D02*
Y864764D01*
X2420598D02*
X2458000D01*
X2495796D01*
X2420204Y685236D02*
X2458000D01*
X2495402D01*
X2458000Y649016D02*
Y685236D01*
Y864764D02*
Y900984D01*
X2606796Y824842D02*
Y854764D01*
X2531204Y824842D02*
Y854764D01*
Y675236D02*
Y705158D01*
X2606796Y675236D02*
Y705158D01*
X2569000Y675236D02*
X2606402D01*
X2531204D02*
X2569000D01*
Y854764D02*
X2606796D01*
X2531598D02*
X2569000D01*
Y890984D01*
Y639016D02*
Y675236D01*
X2939796Y824844D02*
Y854764D01*
X2864204Y824844D02*
Y854764D01*
Y675238D02*
Y705158D01*
X2939796Y675238D02*
Y705158D01*
X2902000Y675238D02*
X2939402D01*
X2864204D02*
X2902000D01*
Y854764D02*
X2939796D01*
X2864598D02*
X2902000D01*
Y890986D01*
Y639016D02*
Y675238D01*
X2642204Y685238D02*
Y715158D01*
X2717796Y685238D02*
Y715158D01*
Y834844D02*
Y864764D01*
X2642204Y834844D02*
Y864764D01*
X2642598D02*
X2680000D01*
X2717796D01*
X2642204Y685238D02*
X2680000D01*
X2717402D01*
X2680000Y649016D02*
Y685238D01*
Y864764D02*
Y900986D01*
X2828796Y824844D02*
Y854764D01*
X2753204Y824844D02*
Y854764D01*
Y675238D02*
Y705158D01*
X2828796Y675238D02*
Y705158D01*
X2791000Y675238D02*
X2828402D01*
X2753204D02*
X2791000D01*
Y854764D02*
X2828796D01*
X2753598D02*
X2791000D01*
Y890986D01*
Y639016D02*
Y675238D01*
X2306000Y1386220D02*
X2556000D01*
X2306000Y1763780D02*
X2556000D01*
X1701998Y1386220D02*
X1951998D01*
X1701998Y1763780D02*
X1951998D01*
X1098000Y1386220D02*
X1348000D01*
X1098000Y1763780D02*
X1348000D01*
X696922Y1497622D02*
Y1587582D01*
Y1312386D02*
Y1397622D01*
X437078Y1312386D02*
X696922D01*
X437078D02*
Y1397622D01*
Y1497622D02*
Y1587582D01*
Y1587976D02*
X696922D01*
X153622Y985890D02*
Y1222110D01*
X606378Y985890D02*
Y1222110D01*
X547322D02*
X606378D01*
X547322Y985890D02*
X606378D01*
X286496D02*
X424292D01*
X409528Y1222110D02*
X429212D01*
X153622D02*
X163464D01*
X153622Y985890D02*
X163464D01*
X922000Y2256679D02*
X948238D01*
X935119Y2269798D02*
Y2243560D01*
X2821000Y460995D02*
X2840994D01*
X2830997Y470992D02*
Y450998D01*
X2601000Y460995D02*
X2620994D01*
X2610997Y470992D02*
Y450998D01*
X2383669Y516994D02*
X2409907D01*
X2396788Y530113D02*
Y503875D01*
X1884000Y456995D02*
X1903994D01*
X1893997Y466992D02*
Y446998D01*
X2096000Y456995D02*
X2115994D01*
X2105997Y466992D02*
Y446998D01*
X2383669Y817994D02*
X2409907D01*
X2396788Y831113D02*
Y804875D01*
X1658000Y337679D02*
X1684238D01*
X1671119Y350798D02*
Y324560D01*
X1955000Y211679D02*
X1981238D01*
X1968119Y224798D02*
Y198560D01*
X1565000Y692995D02*
X1584994D01*
X1574997Y702992D02*
Y682999D01*
X1573000Y898995D02*
X1592994D01*
X1582997Y908992D02*
Y888998D01*
X594669Y2258994D02*
X620908D01*
X607788Y2272113D02*
Y2245875D01*
X1158079Y331994D02*
X1184317D01*
X1171198Y345113D02*
Y318875D01*
D46*
X6105278Y2685148D02*
X6109087Y2687052D01*
X6110991Y2692765D01*
Y2696574D01*
X6109087Y2702287D01*
X6103374Y2706096D01*
X6093852Y2708000D01*
X6084331D01*
X6076713Y2706096D01*
X6072904Y2702287D01*
X6071000Y2696574D01*
Y2694669D01*
X6072904Y2688956D01*
X6076713Y2685148D01*
X6082426Y2683243D01*
X6084331D01*
X6090043Y2685148D01*
X6093852Y2688956D01*
X6095757Y2694669D01*
Y2696574D01*
X6093852Y2702287D01*
X6090043Y2706096D01*
X6084331Y2708000D01*
X6110991Y2655440D02*
X6084331Y2674483D01*
Y2645918D01*
X6110991Y2655440D02*
X6071000D01*
X6110991Y2638872D02*
X6071000D01*
X6110991Y2612211D02*
X6071000D01*
X6091948Y2638872D02*
Y2612211D01*
X6097661Y2580218D02*
X6071000Y2601166D01*
X6097661D02*
Y2580218D01*
X6071000Y2601166D02*
Y2580218D01*
X6103374Y1399000D02*
X6105279Y1395191D01*
X6110992Y1389478D01*
X6071000D01*
X6110992Y1369673D02*
X6071000D01*
X6097661Y1350629D02*
X6078618Y1369673D01*
X6086235Y1362055D02*
X6071000Y1348725D01*
X6110992Y1342440D02*
X6071000D01*
X6110992Y1315780D02*
X6071000D01*
X6091948Y1342440D02*
Y1315780D01*
X6097661Y1283786D02*
X6071000Y1304734D01*
X6097661D02*
Y1283786D01*
X6071000Y1304734D02*
Y1283786D01*
X6101470Y2080095D02*
X6103374D01*
X6107183Y2078191D01*
X6109087Y2076287D01*
X6110992Y2072478D01*
Y2064861D01*
X6109087Y2061052D01*
X6107183Y2059148D01*
X6103374Y2057243D01*
X6099565D01*
X6095757Y2059148D01*
X6090044Y2062956D01*
X6071000Y2082000D01*
Y2055339D01*
X6110992Y2023536D02*
Y2042580D01*
X6093852Y2044484D01*
X6095757Y2042580D01*
X6097661Y2036867D01*
Y2031154D01*
X6095757Y2025441D01*
X6091948Y2021632D01*
X6086235Y2019727D01*
X6082426D01*
X6076713Y2021632D01*
X6072904Y2025441D01*
X6071000Y2031154D01*
Y2036867D01*
X6072904Y2042580D01*
X6074809Y2044484D01*
X6078618Y2046389D01*
X6110992Y1999351D02*
X6109087Y2005064D01*
X6103374Y2008873D01*
X6093852Y2010777D01*
X6088139D01*
X6078618Y2008873D01*
X6072904Y2005064D01*
X6071000Y1999351D01*
Y1995542D01*
X6072904Y1989829D01*
X6078618Y1986021D01*
X6088139Y1984116D01*
X6093852D01*
X6103374Y1986021D01*
X6109087Y1989829D01*
X6110992Y1995542D01*
Y1999351D01*
Y1975166D02*
X6071000D01*
X6110992Y1948505D02*
X6071000D01*
X6091948Y1975166D02*
Y1948505D01*
X6097661Y1916512D02*
X6071000Y1937459D01*
X6097661D02*
Y1916512D01*
X6071000Y1937459D02*
Y1916512D01*
X6101470Y1068096D02*
X6103374D01*
X6107183Y1066191D01*
X6109087Y1064287D01*
X6110991Y1060478D01*
Y1052861D01*
X6109087Y1049052D01*
X6107183Y1047148D01*
X6103374Y1045243D01*
X6099565D01*
X6095757Y1047148D01*
X6090043Y1050957D01*
X6071000Y1070000D01*
Y1043339D01*
X6110991Y1034389D02*
X6071000D01*
X6097661Y1015345D02*
X6078617Y1034389D01*
X6086235Y1026771D02*
X6071000Y1013441D01*
X6110991Y1007156D02*
X6071000D01*
X6110991Y980495D02*
X6071000D01*
X6091948Y1007156D02*
Y980495D01*
X6097661Y948502D02*
X6071000Y969450D01*
X6097661D02*
Y948502D01*
X6071000Y969450D02*
Y948502D01*
X6103374Y2410000D02*
X6105278Y2406191D01*
X6110991Y2400478D01*
X6071000D01*
X6101470Y2378769D02*
X6103374D01*
X6107183Y2376864D01*
X6109087Y2374960D01*
X6110991Y2371151D01*
Y2363534D01*
X6109087Y2359725D01*
X6107183Y2357821D01*
X6103374Y2355916D01*
X6099565D01*
X6095757Y2357821D01*
X6090043Y2361629D01*
X6071000Y2380673D01*
Y2354012D01*
X6110991Y2322209D02*
Y2341253D01*
X6093852Y2343157D01*
X6095757Y2341253D01*
X6097661Y2335540D01*
Y2329827D01*
X6095757Y2324114D01*
X6091948Y2320305D01*
X6086235Y2318401D01*
X6082426D01*
X6076713Y2320305D01*
X6072904Y2324114D01*
X6071000Y2329827D01*
Y2335540D01*
X6072904Y2341253D01*
X6074809Y2343157D01*
X6078617Y2345061D01*
X6110991Y2309450D02*
X6071000D01*
X6110991Y2282789D02*
X6071000D01*
X6091948Y2309450D02*
Y2282789D01*
X6097661Y2250796D02*
X6071000Y2271744D01*
X6097661D02*
Y2250796D01*
X6071000Y2271744D02*
Y2250796D01*
X6110991Y1727148D02*
Y1746191D01*
X6093852Y1748096D01*
X6095757Y1746191D01*
X6097661Y1740478D01*
Y1734765D01*
X6095757Y1729052D01*
X6091948Y1725243D01*
X6086235Y1723339D01*
X6082426D01*
X6076713Y1725243D01*
X6072904Y1729052D01*
X6071000Y1734765D01*
Y1740478D01*
X6072904Y1746191D01*
X6074809Y1748096D01*
X6078617Y1750000D01*
X6110991Y1702963D02*
X6109087Y1708676D01*
X6103374Y1712484D01*
X6093852Y1714389D01*
X6088139D01*
X6078617Y1712484D01*
X6072904Y1708676D01*
X6071000Y1702963D01*
Y1699154D01*
X6072904Y1693441D01*
X6078617Y1689632D01*
X6088139Y1687728D01*
X6093852D01*
X6103374Y1689632D01*
X6109087Y1693441D01*
X6110991Y1699154D01*
Y1702963D01*
Y1667351D02*
X6109087Y1673064D01*
X6103374Y1676873D01*
X6093852Y1678777D01*
X6088139D01*
X6078617Y1676873D01*
X6072904Y1673064D01*
X6071000Y1667351D01*
Y1663542D01*
X6072904Y1657829D01*
X6078617Y1654021D01*
X6088139Y1652116D01*
X6093852D01*
X6103374Y1654021D01*
X6109087Y1657829D01*
X6110991Y1663542D01*
Y1667351D01*
Y1643166D02*
X6071000D01*
X6110991Y1616505D02*
X6071000D01*
X6091948Y1643166D02*
Y1616505D01*
X6097661Y1584512D02*
X6071000Y1605460D01*
X6097661D02*
Y1584512D01*
X6071000Y1605460D02*
Y1584512D01*
X6110991Y406478D02*
X6109087Y412191D01*
X6105278Y414096D01*
X6101470D01*
X6097661Y412191D01*
X6095757Y408383D01*
X6093852Y400765D01*
X6091948Y395052D01*
X6088139Y391243D01*
X6084331Y389339D01*
X6078617D01*
X6074809Y391243D01*
X6072904Y393148D01*
X6071000Y398861D01*
Y406478D01*
X6072904Y412191D01*
X6074809Y414096D01*
X6078617Y416000D01*
X6084331D01*
X6088139Y414096D01*
X6091948Y410287D01*
X6093852Y404574D01*
X6095757Y396957D01*
X6097661Y393148D01*
X6101470Y391243D01*
X6105278D01*
X6109087Y393148D01*
X6110991Y398861D01*
Y406478D01*
Y380389D02*
X6071000D01*
X6097661Y361345D02*
X6078617Y380389D01*
X6086235Y372771D02*
X6071000Y359441D01*
X6110991Y353156D02*
X6071000D01*
X6110991Y326495D02*
X6071000D01*
X6091948Y353156D02*
Y326495D01*
X6097661Y294502D02*
X6071000Y315450D01*
X6097661D02*
Y294502D01*
X6071000Y315450D02*
Y294502D01*
X6110991Y723957D02*
X6084331Y743000D01*
Y714435D01*
X6110991Y723957D02*
X6071000D01*
X6110991Y707389D02*
X6071000D01*
X6097661Y688345D02*
X6078617Y707389D01*
X6086235Y699771D02*
X6071000Y686441D01*
X6110991Y680156D02*
X6071000D01*
X6110991Y653495D02*
X6071000D01*
X6091948Y680156D02*
Y653495D01*
X6097661Y621502D02*
X6071000Y642450D01*
X6097661D02*
Y621502D01*
X6071000Y642450D02*
Y621502D01*
X92987Y1502000D02*
X33000Y1479148D01*
X92987Y1456295D02*
X33000Y1479148D01*
X78704Y1405735D02*
X84418Y1408591D01*
X90131Y1414304D01*
X92987Y1420018D01*
Y1431444D01*
X90131Y1437157D01*
X84418Y1442870D01*
X78704Y1445726D01*
X70135Y1448583D01*
X55852D01*
X47283Y1445726D01*
X41570Y1442870D01*
X35856Y1437157D01*
X33000Y1431444D01*
Y1420018D01*
X35856Y1414304D01*
X41570Y1408591D01*
X47283Y1405735D01*
X78704Y1346033D02*
X84418Y1348890D01*
X90131Y1354603D01*
X92987Y1360316D01*
Y1371742D01*
X90131Y1377455D01*
X84418Y1383168D01*
X78704Y1386025D01*
X70135Y1388881D01*
X55852D01*
X47283Y1386025D01*
X41570Y1383168D01*
X35856Y1377455D01*
X33000Y1371742D01*
Y1360316D01*
X35856Y1354603D01*
X41570Y1348890D01*
X47283Y1346033D01*
D47*
X3526000Y837518D02*
X3565357D01*
X3545679Y857197D02*
Y817839D01*
X3416426Y303518D02*
X3455783D01*
X3436105Y323197D02*
Y283840D01*
%TF.MD5,ef3c5faf58ae45c7f3c2bc4a7d069be2*%
M02*
