%TF.GenerationSoftware,Altium Limited,Altium Designer,23.3.1 (30)*%
G04 Layer_Physical_Order=2*
G04 Layer_Color=16711680*
%FSLAX26Y26*%
%MOIN*%
%TF.SameCoordinates,C47A0882-6911-4C93-B89A-A613C280F5D7*%
%TF.FilePolarity,Positive*%
%TF.FileFunction,Copper,L2,Bot,Signal*%
%TF.Part,Single*%
G01*
G75*
%TA.AperFunction,Conductor*%
%ADD14C,0.010000*%
%TA.AperFunction,ComponentPad*%
%ADD15C,0.052000*%
%TA.AperFunction,ViaPad*%
%ADD16C,0.200000*%
%TA.AperFunction,ComponentPad*%
%ADD17C,0.048740*%
%ADD18R,0.048740X0.048740*%
%ADD19R,0.048740X0.048740*%
%ADD20R,0.060236X0.060236*%
%ADD21C,0.060236*%
%ADD22C,0.051181*%
G04:AMPARAMS|DCode=23|XSize=51.181mil|YSize=51.181mil|CornerRadius=12.795mil|HoleSize=0mil|Usage=FLASHONLY|Rotation=0.000|XOffset=0mil|YOffset=0mil|HoleType=Round|Shape=RoundedRectangle|*
%AMROUNDEDRECTD23*
21,1,0.051181,0.025591,0,0,0.0*
21,1,0.025591,0.051181,0,0,0.0*
1,1,0.025590,0.012795,-0.012795*
1,1,0.025590,-0.012795,-0.012795*
1,1,0.025590,-0.012795,0.012795*
1,1,0.025590,0.012795,0.012795*
%
%ADD23ROUNDEDRECTD23*%
%ADD24C,0.040000*%
G04:AMPARAMS|DCode=25|XSize=40mil|YSize=40mil|CornerRadius=10mil|HoleSize=0mil|Usage=FLASHONLY|Rotation=0.000|XOffset=0mil|YOffset=0mil|HoleType=Round|Shape=RoundedRectangle|*
%AMROUNDEDRECTD25*
21,1,0.040000,0.020000,0,0,0.0*
21,1,0.020000,0.040000,0,0,0.0*
1,1,0.020000,0.010000,-0.010000*
1,1,0.020000,-0.010000,-0.010000*
1,1,0.020000,-0.010000,0.010000*
1,1,0.020000,0.010000,0.010000*
%
%ADD25ROUNDEDRECTD25*%
%ADD26C,0.055118*%
G04:AMPARAMS|DCode=27|XSize=55.118mil|YSize=55.118mil|CornerRadius=13.78mil|HoleSize=0mil|Usage=FLASHONLY|Rotation=0.000|XOffset=0mil|YOffset=0mil|HoleType=Round|Shape=RoundedRectangle|*
%AMROUNDEDRECTD27*
21,1,0.055118,0.027559,0,0,0.0*
21,1,0.027559,0.055118,0,0,0.0*
1,1,0.027559,0.013780,-0.013780*
1,1,0.027559,-0.013780,-0.013780*
1,1,0.027559,-0.013780,0.013780*
1,1,0.027559,0.013780,0.013780*
%
%ADD27ROUNDEDRECTD27*%
%ADD28R,0.044488X0.044488*%
%ADD29C,0.044488*%
%ADD30C,0.046457*%
%ADD31R,0.046457X0.046457*%
%ADD32R,0.070000X0.070000*%
%ADD33C,0.070000*%
G04:AMPARAMS|DCode=34|XSize=76.772mil|YSize=76.772mil|CornerRadius=19.193mil|HoleSize=0mil|Usage=FLASHONLY|Rotation=270.000|XOffset=0mil|YOffset=0mil|HoleType=Round|Shape=RoundedRectangle|*
%AMROUNDEDRECTD34*
21,1,0.076772,0.038386,0,0,270.0*
21,1,0.038386,0.076772,0,0,270.0*
1,1,0.038386,-0.019193,-0.019193*
1,1,0.038386,-0.019193,0.019193*
1,1,0.038386,0.019193,0.019193*
1,1,0.038386,0.019193,-0.019193*
%
%ADD34ROUNDEDRECTD34*%
%ADD35C,0.076772*%
%ADD36R,0.048110X0.048110*%
%ADD37C,0.048110*%
%ADD38O,0.050000X0.100000*%
%ADD39O,0.112000X0.056000*%
%ADD40C,0.062992*%
%TA.AperFunction,ViaPad*%
%ADD41C,0.050000*%
D14*
X4474500Y2600500D02*
X4481000Y2607000D01*
X4353000Y2594000D02*
X4359500Y2600500D01*
X4474500D01*
X4029396Y2602000D02*
X4074396Y2647000D01*
X5955000D01*
X6001000Y2693000D01*
X4769022Y2547000D02*
X4789022Y2527000D01*
X2068000Y2547000D02*
X4769022D01*
X2047334Y2567666D02*
X2068000Y2547000D01*
X3456000Y2194000D02*
X4625000D01*
X4312000Y2853000D02*
X4313000Y2852000D01*
X4312000Y2853000D02*
Y2867500D01*
X4522000Y2907000D02*
X4558396Y2870604D01*
X2694666Y2907000D02*
X4522000D01*
X2679936Y2921730D02*
X2694666Y2907000D01*
X2715936Y2957730D02*
X2730666Y2943000D01*
X4548456Y2940000D02*
X5080000D01*
X2716626Y2925000D02*
X4538000D01*
X2701896Y2939730D02*
X2716626Y2925000D01*
X4538000D02*
X4565000Y2898000D01*
X4545456Y2943000D02*
X4548456Y2940000D01*
X2730666Y2943000D02*
X4545456D01*
X1691000Y2277000D02*
X1738697Y2229303D01*
Y2202043D02*
Y2229303D01*
X3962000Y1932000D02*
X4000000Y1970000D01*
X4396000Y2026000D02*
X4510000Y1912000D01*
X4000000Y1970000D02*
X4002000D01*
X4202998Y2008000D02*
X4312000Y1898998D01*
X3791228Y2049000D02*
X3814228Y2026000D01*
X3764000Y2031000D02*
X3787000Y2008000D01*
X3814228Y2026000D02*
X4396000D01*
X3787000Y2008000D02*
X4202998D01*
X3962000Y1880000D02*
Y1932000D01*
X1574346Y104346D02*
X1582000Y112000D01*
X1574346Y73522D02*
Y104346D01*
X1574000Y73176D02*
X1574346Y73522D01*
X1574000Y60000D02*
Y73176D01*
X3209063Y1097000D02*
X3273000D01*
X3144950Y1108000D02*
X3198063D01*
X3209063Y1097000D01*
X3296000Y1044000D02*
X3575772Y1323772D01*
X3593728Y1341728D02*
X3593730Y1341730D01*
X3583387Y1341728D02*
X3593728D01*
X3575772Y1323772D02*
Y1334113D01*
X3160000Y1044000D02*
X3296000D01*
X3575772Y1334113D02*
X3583387Y1341728D01*
X3593730Y1341730D02*
X3648230D01*
X1538000Y189000D02*
X1578244D01*
X1723244Y44000D01*
X1324000Y37000D02*
X1521000Y234000D01*
X1613142Y213000D02*
X1618000D01*
X1521000Y234000D02*
X1592142D01*
X1613142Y213000D01*
X5331963Y1079963D02*
Y1146037D01*
X5257000Y1221000D02*
X5331963Y1146037D01*
X3482000Y1776000D02*
Y1852000D01*
X3492000Y1862000D01*
X3736000D01*
X3611012Y2049240D02*
X3646772Y2085000D01*
X3584500Y2049240D02*
X3611012D01*
X3583000Y1994000D02*
X3591772D01*
X3558260Y2023000D02*
X3584500Y2049240D01*
X3480000Y2023000D02*
X3558260D01*
X3591772Y1994000D02*
X3664772Y2067000D01*
X3425827Y2052651D02*
Y2061827D01*
X3404000Y2020000D02*
Y2030824D01*
X3425827Y2061827D02*
X3440000Y2076000D01*
X3404000Y2030824D02*
X3425827Y2052651D01*
X2380002Y1225000D02*
X2385002Y1220000D01*
X2309000Y1225000D02*
X2380002D01*
X2304000Y1230000D02*
X2309000Y1225000D01*
X1058000Y1475000D02*
X1226000D01*
X1331000Y1580000D01*
X2551000Y1112000D02*
Y1170176D01*
X2566000Y1185176D01*
Y1196000D01*
X1961000Y2194000D02*
X2097450Y2330450D01*
X3142246D01*
X1371000Y690000D02*
X1403000Y658000D01*
X1461000D01*
X1738697Y2202043D02*
X1741626Y2199114D01*
X1785740Y2155000D01*
X1792456Y2344000D02*
X1876126Y2260330D01*
X1650000Y2344000D02*
X1792456D01*
X1459000Y2335000D02*
X1581000D01*
X1630000Y2384000D02*
X1689136D01*
X1581000Y2335000D02*
X1630000Y2384000D01*
X1570200Y2353000D02*
X1619200Y2402000D01*
X1526000Y2391000D02*
X1555000Y2420000D01*
X1501834Y2438000D02*
X3180009D01*
X3165098Y2402000D02*
X3183098Y2384000D01*
X3198009Y2420000D02*
X4580666D01*
X1555000D02*
X3172554D01*
X3180009Y2438000D02*
X3198009Y2420000D01*
X4608000Y2384000D02*
X4646244Y2422244D01*
X3183098Y2384000D02*
X4608000D01*
X3190554Y2402000D02*
X4600544D01*
X1447334Y2492500D02*
X1501834Y2438000D01*
X4600544Y2402000D02*
X4638788Y2440244D01*
X1619200Y2402000D02*
X3165098D01*
X4580666Y2420000D02*
X4618910Y2458244D01*
X1689136Y2384000D02*
X1706686Y2366450D01*
X3172554Y2420000D02*
X3190554Y2402000D01*
X1706686Y2366450D02*
X1869450D01*
X2668000Y498000D02*
X2714000Y544000D01*
X2390000Y498000D02*
X2668000D01*
X1785740Y2155000D02*
X1901000D01*
X1574000Y60000D02*
X1592000Y42000D01*
X1597858Y25000D02*
X3632456D01*
X1592000Y30858D02*
X1597858Y25000D01*
X1592000Y30858D02*
Y42000D01*
X3632456Y25000D02*
X3641456Y34000D01*
X3626000Y44000D02*
X3662000Y80000D01*
X1723244Y44000D02*
X3626000D01*
X5915365Y72000D02*
X5993365Y150000D01*
X3641456Y34000D02*
X4080000D01*
X5993365Y150000D02*
X6000000D01*
X3912000Y118500D02*
X3958500Y72000D01*
X5915365D01*
X3456176Y140000D02*
X3498176Y98000D01*
X3662000Y80000D02*
Y120000D01*
X3775770Y96500D02*
Y125230D01*
X3790000Y82270D02*
X3830500D01*
X3712000Y118500D02*
X3766230Y64270D01*
X2562000Y113000D02*
X2686399D01*
X3766230Y64270D02*
X3857770D01*
X3848230Y100000D02*
Y127230D01*
X3498176Y98000D02*
X3509000D01*
X3775770Y96500D02*
X3790000Y82270D01*
X3830500D02*
X3848230Y100000D01*
X3857770Y64270D02*
X3912000Y118500D01*
X2713399Y140000D02*
X3456176D01*
X2686399Y113000D02*
X2713399Y140000D01*
X1042454Y1389000D02*
X1947298D01*
X1783564Y2528730D02*
X1841834Y2587000D01*
X460000Y917924D02*
Y979984D01*
X2188786Y630214D02*
X2540558D01*
X2587298Y1725000D02*
X2623298Y1761000D01*
X3155300D01*
X3191300Y1725000D01*
X1983298D02*
X2019298Y1761000D01*
X2551298D01*
X2587298Y1725000D01*
X1379300D02*
X1415300Y1761000D01*
X1947298D01*
X1983298Y1725000D01*
X3192454Y1999000D02*
X3236124Y1955330D01*
X2978796Y1999000D02*
X3192454D01*
X2935126Y1955330D02*
X2978796Y1999000D01*
X2592456Y2000000D02*
X2636126Y1956330D01*
X2375796Y2000000D02*
X2592456D01*
X2332126Y1956330D02*
X2375796Y2000000D01*
X2935126Y1955330D02*
Y2063874D01*
X2923000Y2076000D02*
X2935126Y2063874D01*
X2755796Y2076000D02*
X2923000D01*
X2636126Y1956330D02*
X2755796Y2076000D01*
X2027124Y1949330D02*
X2081794Y2004000D01*
X2284456D01*
X2332126Y1956330D01*
X1983454Y1993000D02*
X2027124Y1949330D01*
X1765796Y1993000D02*
X1983454D01*
X1722126Y1949330D02*
X1765796Y1993000D01*
X1416126Y1950330D02*
X1462796Y1997000D01*
X1674456D01*
X1722126Y1949330D01*
X1372456Y1994000D02*
X1416126Y1950330D01*
X1153796Y1994000D02*
X1372456D01*
X1110126Y1950330D02*
X1153796Y1994000D01*
X2629666Y2492500D02*
X2666166Y2456000D01*
X2793166D01*
X2829666Y2492500D01*
X399788Y2182440D02*
Y2259000D01*
Y2182440D02*
X522000Y2060228D01*
X287000Y1468000D02*
X448000D01*
X467000Y1449000D01*
X3875500Y2456000D02*
X3912000Y2492500D01*
X3748500Y2456000D02*
X3875500D01*
X3712000Y2492500D02*
X3748500Y2456000D01*
X3712000Y1305500D02*
X3748500Y1269000D01*
X3875500D01*
X3912000Y1305500D01*
X1670700Y1425000D02*
X1720700Y1475000D01*
X2224700D01*
X2274700Y1425000D01*
X2458000Y938228D02*
X2510228Y886000D01*
X2627770D01*
X2680000Y938230D01*
X498212Y2259000D02*
X524000Y2284788D01*
Y2517000D01*
X535730Y2528730D01*
X590000D01*
X601230Y2517500D01*
Y2493000D02*
Y2517500D01*
Y2493000D02*
X637960Y2456270D01*
X728770D01*
X765000Y2492500D01*
X1755000Y1525000D02*
X1983298D01*
X1461000Y658000D02*
X1473000Y670000D01*
X1484000Y691000D01*
X1506000D01*
X1526212Y339000D02*
X1565212Y300000D01*
X1398000Y339000D02*
X1526212D01*
X1269000Y210000D02*
X1398000Y339000D01*
X1031000Y210000D02*
X1269000D01*
X960000Y281000D02*
X1031000Y210000D01*
X960000Y281000D02*
Y506000D01*
X1033372Y579372D01*
Y712000D01*
X1119372Y798000D01*
X1746770D01*
X1878000Y929230D01*
X2540558Y630214D02*
X2569000Y601772D01*
Y928228D02*
X2649772Y1009000D01*
X3011566D01*
X3362296Y1359730D01*
X3666230D01*
Y1278770D02*
Y1359730D01*
Y1278770D02*
X3697000Y1248000D01*
X3907328D01*
X3964828Y1305500D01*
X4012000D01*
X2188788Y517000D02*
X2236788Y565000D01*
X2345000D01*
X2373000Y537000D01*
X2605228D01*
X2680000Y611772D01*
X3040000Y1625000D02*
X3191300D01*
X2981000Y1684000D02*
X3040000Y1625000D01*
X2572898Y204000D02*
X2788354D01*
X2461898Y93000D02*
X2572898Y204000D01*
X2884354Y300000D02*
X3031574D01*
X2788354Y204000D02*
X2884354Y300000D01*
X3675000Y2648000D02*
X3930000D01*
X1814000Y1282000D02*
X1878000Y1218000D01*
X1109220Y1282000D02*
X1814000D01*
X1013454Y1377766D02*
X1109220Y1282000D01*
X1013454Y1377766D02*
Y1522454D01*
X1051246Y1560246D01*
X1252246D01*
X1367000Y1675000D01*
X1620700D01*
X1670700Y1725000D01*
X1031454Y1448454D02*
X1058000Y1475000D01*
X1031454Y1400000D02*
Y1448454D01*
Y1400000D02*
X1042454Y1389000D01*
X1947298D02*
X1983298Y1425000D01*
X3111300Y1345000D02*
X3191300Y1425000D01*
X2816000Y1345000D02*
X3111300D01*
X2716000Y1445000D02*
X2816000Y1345000D01*
X773000Y243000D02*
X821000Y195000D01*
X622000Y243000D02*
X773000D01*
X557000Y178000D02*
X622000Y243000D01*
X1316126Y1919126D02*
Y1950330D01*
X1300000Y1903000D02*
X1316126Y1919126D01*
X1012000Y1903000D02*
X1300000D01*
X676000Y1567000D02*
X1012000Y1903000D01*
X2578000Y1330000D02*
X2617000Y1291000D01*
X3000000D01*
X3047000Y1244000D01*
Y1172000D02*
Y1244000D01*
Y1172000D02*
X3138566D01*
X3299000Y1332434D01*
Y1670000D01*
X3133000Y1836000D02*
X3299000Y1670000D01*
X2910000Y1836000D02*
X3133000D01*
X2835126Y1910874D02*
X2910000Y1836000D01*
X2835126Y1910874D02*
Y1955330D01*
X5999000Y398712D02*
X6038000Y359712D01*
Y290000D02*
Y359712D01*
X6022000Y274000D02*
X6038000Y290000D01*
X4382000Y274000D02*
X6022000D01*
X4341000Y315000D02*
X4382000Y274000D01*
X3575000Y315000D02*
X4341000D01*
X3712000Y1087000D02*
X3768000Y1143000D01*
X3930000D01*
X4015230Y1228230D01*
X4558236D01*
X4565466Y1221000D01*
X5257000D01*
X3812000Y1087000D02*
X3848454Y1050546D01*
X3928546D01*
X3975000Y1097000D01*
Y1141502D01*
X4043728Y1210230D01*
X4505228D01*
X4538458Y1177000D01*
X5225000D01*
X3875000Y1124000D02*
X3912000Y1087000D01*
X3789000Y1124000D02*
X3875000D01*
X3775000Y1110000D02*
X3789000Y1124000D01*
X3775000Y1056546D02*
Y1110000D01*
Y1056546D02*
X3799000Y1032546D01*
X4488546D01*
X4521000Y1065000D01*
X5078666Y437712D02*
X5117666Y398712D01*
X4555712Y437712D02*
X5078666D01*
X4525000Y407000D02*
X4555712Y437712D01*
X465000Y2867500D02*
X555230Y2957730D01*
X2715936D01*
X4558396Y2870604D02*
X5413444D01*
X719230Y2921730D02*
X2679936D01*
X665000Y2867500D02*
X719230Y2921730D01*
X5282000Y2898000D02*
X5293000Y2909000D01*
X4565000Y2898000D02*
X5282000D01*
X683730Y2939730D02*
X2701896D01*
X628770Y2884770D02*
X683730Y2939730D01*
X628770Y2842500D02*
Y2884770D01*
Y2842500D02*
X640000Y2831270D01*
X728770D01*
X765000Y2867500D01*
X1329106Y2703394D02*
X2005000D01*
X2015394Y2693000D01*
X4488000D01*
X4501000Y2680000D01*
X4581000D01*
X4594000Y2693000D01*
X4679000D01*
X5999000Y726466D02*
X6056000Y669466D01*
Y614544D02*
Y669466D01*
X5929456Y488000D02*
X6056000Y614544D01*
X5227000Y488000D02*
X5929456D01*
X5185000Y530000D02*
X5227000Y488000D01*
X4075000Y530000D02*
X5185000D01*
X4057270Y547730D02*
X4075000Y530000D01*
X3986274Y547730D02*
X4057270D01*
X3952000Y513456D02*
X3986274Y547730D01*
X3952000Y439000D02*
Y513456D01*
X3866000Y353000D02*
X3952000Y439000D01*
X3550000Y353000D02*
X3866000D01*
X3537000Y340000D02*
X3550000Y353000D01*
X3537000Y193500D02*
Y340000D01*
Y193500D02*
X3612000Y118500D01*
X5806644Y681000D02*
X5852110Y726466D01*
X4463000Y681000D02*
X5806644D01*
X4383730Y601730D02*
X4463000Y681000D01*
X3720230Y601730D02*
X4383730D01*
X3612000Y493500D02*
X3720230Y601730D01*
X3712000Y493500D02*
X3784230Y565730D01*
X3939072D01*
X3957072Y583730D01*
X4110960D01*
X4124306Y570384D01*
X5986384D01*
X6038000Y622000D01*
Y660000D01*
X6014000Y684000D02*
X6038000Y660000D01*
X5952000Y684000D02*
X6014000D01*
X5870534Y765466D02*
X5952000Y684000D01*
X5744222Y765466D02*
X5870534D01*
X5705222Y726466D02*
X5744222Y765466D01*
X4618910Y2458244D02*
X5906000D01*
X5999000Y2365244D01*
X1447334Y2867500D02*
X1483564Y2903730D01*
X2652270D01*
X2693000Y2863000D01*
Y2848000D02*
Y2863000D01*
Y2848000D02*
X2710000Y2831000D01*
X5688000D01*
X5755000Y2898000D01*
X5630222Y2440244D02*
X5705222Y2365244D01*
X4638788Y2440244D02*
X5630222D01*
X5501332Y2422244D02*
X5558332Y2365244D01*
X4646244Y2422244D02*
X5501332D01*
X1495000Y2353000D02*
X1570200D01*
X1456000Y2392000D02*
X1495000Y2353000D01*
X1641104Y2540000D02*
X1696000D01*
X1611104Y2510000D02*
X1641104Y2540000D01*
X1611104Y2480000D02*
Y2510000D01*
X1587104Y2456000D02*
X1611104Y2480000D01*
X1525000Y2456000D02*
X1587104D01*
X1511000Y2470000D02*
X1525000Y2456000D01*
X1511000Y2470000D02*
Y2525000D01*
X1480000Y2556000D02*
X1511000Y2525000D01*
X1440000Y2556000D02*
X1480000D01*
X1411000Y2527000D02*
X1440000Y2556000D01*
X1411000Y2383000D02*
Y2527000D01*
Y2383000D02*
X1459000Y2335000D01*
X1869450Y2366450D02*
X1885000Y2382000D01*
X1945450D01*
X1961000Y2366450D01*
X3175192D01*
X3177414Y2364228D01*
X4619984D01*
X4660000Y2404244D01*
X5372444D01*
X5411444Y2365244D01*
X5264556D02*
X5303800Y2326000D01*
X6012000D01*
X6038000Y2300000D01*
Y2260000D02*
Y2300000D01*
X6016000Y2238000D02*
X6038000Y2260000D01*
X4614232Y2238000D02*
X6016000D01*
X4596000Y2219768D02*
X4614232Y2238000D01*
X3985232Y2219768D02*
X4596000D01*
X3965000Y2240000D02*
X3985232Y2219768D01*
X3965000Y2240000D02*
Y2293228D01*
X3948000Y2310228D02*
X3965000Y2293228D01*
X3127222Y2310228D02*
X3948000D01*
X3125000Y2312450D02*
X3127222Y2310228D01*
X3038000Y2312450D02*
X3125000D01*
X3038000Y2264564D02*
Y2312450D01*
X2921436Y2148000D02*
X3038000Y2264564D01*
X1908000Y2148000D02*
X2921436D01*
X1901000Y2155000D02*
X1908000Y2148000D01*
X5072422Y2320000D02*
X5117666Y2365244D01*
X3966230Y2320000D02*
X5072422D01*
X3958002Y2328228D02*
X3966230Y2320000D01*
X3144468Y2328228D02*
X3958002D01*
X3142246Y2330450D02*
X3144468Y2328228D01*
X4657984Y2346228D02*
X4677000Y2365244D01*
X3162468Y2346228D02*
X4657984D01*
X3160246Y2348450D02*
X3162468Y2346228D01*
X1927450Y2348450D02*
X3160246D01*
X1923000Y2344000D02*
X1927450Y2348450D01*
X5502310Y1257134D02*
X5705222Y1054222D01*
X4634866Y1257134D02*
X5502310D01*
X4532000Y1360000D02*
X4634866Y1257134D01*
X3701960Y1360000D02*
X4532000D01*
X3650960Y1411000D02*
X3701960Y1360000D01*
X3616000Y1411000D02*
X3650960D01*
X3871500Y1640000D02*
X3912000Y1680500D01*
X3816000Y1640000D02*
X3871500D01*
X3796000Y1620000D02*
X3816000Y1640000D01*
X3796000Y1580000D02*
Y1620000D01*
Y1580000D02*
X3817000Y1559000D01*
X5147000D01*
X5168000Y1538000D01*
X5166778Y1152000D02*
X5264556Y1054222D01*
X4082230Y1152000D02*
X5166778D01*
X4062000Y1172230D02*
X4082230Y1152000D01*
X4758000Y1114000D02*
X4911000D01*
X4970778Y1054222D01*
X3162246Y2165000D02*
X3371246Y1956000D01*
X3600000D01*
X3693000Y2049000D01*
X3791228D01*
X4510000Y1912000D02*
X6020000D01*
X6038000Y1930000D01*
Y1998490D01*
X5999000Y2037490D02*
X6038000Y1998490D01*
X5812620Y1998000D02*
X5852110Y2037490D01*
X5537000Y1998000D02*
X5812620D01*
X5415000Y2120000D02*
X5537000Y1998000D01*
X3920000Y2120000D02*
X5415000D01*
X3901000Y2139000D02*
X3920000Y2120000D01*
X3560000Y2139000D02*
X3901000D01*
X3545000Y2124000D02*
X3560000Y2139000D01*
X3415000Y2117000D02*
X3485000D01*
X3516760Y2085240D01*
X3575012D01*
X3610772Y2121000D01*
X3883000D01*
X3902772Y2101228D01*
X5200818D01*
X5264556Y2037490D01*
X5071928Y2083228D02*
X5117666Y2037490D01*
X3884772Y2083228D02*
X5071928D01*
X3865000Y2103000D02*
X3884772Y2083228D01*
X3628772Y2103000D02*
X3865000D01*
X3593012Y2067240D02*
X3628772Y2103000D01*
X3487000Y2067240D02*
X3593012D01*
X3478240Y2076000D02*
X3487000Y2067240D01*
X3440000Y2076000D02*
X3478240D01*
X3430000Y2220000D02*
X3456000Y2194000D01*
X5790086Y1444000D02*
X5852110Y1381976D01*
X5074000Y1444000D02*
X5790086D01*
X5054000Y1464000D02*
X5074000Y1444000D01*
X3537000Y1464000D02*
X5054000D01*
X3171000Y1830000D02*
X3537000Y1464000D01*
X3171000Y1830000D02*
Y1890000D01*
X3190000Y1909000D01*
X3270000D01*
X3280000Y1919000D01*
Y1999000D01*
X3260000Y2019000D02*
X3280000Y1999000D01*
X3160000Y2019000D02*
X3260000D01*
X3104000Y2075000D02*
X3160000Y2019000D01*
X3104000Y2075000D02*
Y2198000D01*
X3179998Y2273998D01*
X3612000D01*
X5812842Y1749000D02*
X5852110Y1709732D01*
X3897230Y1749000D02*
X5812842D01*
X3853230Y1793000D02*
X3897230Y1749000D01*
X3682000Y1793000D02*
X3853230D01*
X3675000Y1786000D02*
X3682000Y1793000D01*
X3576576Y1786000D02*
X3675000D01*
X3569576Y1793000D02*
X3576576Y1786000D01*
X5371712Y1670000D02*
X5411444Y1709732D01*
X4638000Y1670000D02*
X5371712D01*
X4587000Y1721000D02*
X4638000Y1670000D01*
X3840000Y1721000D02*
X4587000D01*
X3810000Y1751000D02*
X3840000Y1721000D01*
X1038000Y273000D02*
Y523308D01*
X1051372Y536680D01*
Y647372D01*
X1134000Y730000D01*
X1669000D01*
X1723000Y676000D01*
X2058168D01*
X2086204Y704036D01*
X3530036D01*
X3610230Y784230D01*
X4039770D01*
X4112000Y712000D01*
X4221000Y803000D02*
X4312000Y712000D01*
X3269000Y803000D02*
X4221000D01*
X3188036Y722036D02*
X3269000Y803000D01*
X2009036Y722036D02*
X3188036D01*
X1981000Y694000D02*
X2009036Y722036D01*
X1940000Y694000D02*
X1981000D01*
X1873000Y761000D02*
X1940000Y694000D01*
X1767000Y761000D02*
X1873000D01*
X4075500Y155000D02*
X4112000Y118500D01*
X3876000Y155000D02*
X4075500D01*
X3848230Y127230D02*
X3876000Y155000D01*
X3741000Y160000D02*
X3775770Y125230D01*
X3702000Y160000D02*
X3741000D01*
X3662000Y120000D02*
X3702000Y160000D01*
X80000Y37000D02*
X1324000D01*
X37000Y80000D02*
X80000Y37000D01*
X37000Y80000D02*
Y2152000D01*
X227000Y2342000D01*
X400000D01*
X449000Y2293000D01*
Y2232000D02*
Y2293000D01*
Y2232000D02*
X480000Y2201000D01*
X609000D01*
X769000Y2361000D01*
X1189870D01*
X1475870Y2647000D01*
X1949000D01*
X4275500Y1269000D02*
X4312000Y1305500D01*
X3987500Y1269000D02*
X4275500D01*
X3948500Y1230000D02*
X3987500Y1269000D01*
X3678230Y1230000D02*
X3948500D01*
X3648230Y1260000D02*
X3678230Y1230000D01*
X3648230Y1260000D02*
Y1341730D01*
X2947000Y831000D02*
X3160000Y1044000D01*
X2569000Y831000D02*
X2947000D01*
X1957000Y732000D02*
X1965036Y740036D01*
X3164036D01*
X3375000Y951000D01*
X4490000D01*
X1580000Y2117000D02*
X1858000D01*
X1393000Y2304000D02*
X1580000Y2117000D01*
X1393000Y2304000D02*
Y2534456D01*
X1467544Y2609000D01*
X2977000D01*
X2994000Y2592000D01*
X3712000Y2031000D02*
X3764000D01*
X3619000Y1938000D02*
X3712000Y2031000D01*
X3427000Y1938000D02*
X3619000D01*
X3360000Y1871000D02*
X3427000Y1938000D01*
X3209000Y1871000D02*
X3360000D01*
X3493000Y2476000D02*
X3531000Y2438000D01*
X4257500D01*
X4312000Y2492500D01*
X1110770Y2438270D02*
X1165000Y2492500D01*
X619230Y2438270D02*
X1110770D01*
X565000Y2492500D02*
X619230Y2438270D01*
X3812000Y118500D02*
X3990500Y297000D01*
X4233500D01*
X4412000Y118500D01*
X2729666Y2492500D02*
X2766166Y2529000D01*
X3293166D01*
X3329666Y2492500D01*
X3812000D02*
X3848500Y2529000D01*
X4375500D01*
X4412000Y2492500D01*
X829000Y1100000D02*
X1829408D01*
X2150000Y779408D01*
X2991306D01*
X3201864Y989966D01*
X4656256D01*
X4677000Y969222D01*
X1853000Y2587000D02*
X1873000Y2567000D01*
X1841834Y2587000D02*
X1853000D01*
X365000Y2492500D02*
X523500Y2651000D01*
X1444582D01*
X1478976Y2685394D01*
X1987000D01*
X2021394Y2651000D01*
X3167912D01*
X3216912Y2602000D01*
X4029396D01*
X5264556Y726466D02*
X5321556Y783466D01*
X6014534D01*
X6074000Y724000D01*
Y599000D02*
Y724000D01*
X5930712Y455712D02*
X6074000Y599000D01*
X4049788Y455712D02*
X5930712D01*
X4012000Y493500D02*
X4049788Y455712D01*
X3805000Y894000D02*
X6051000D01*
X6092000Y853000D01*
Y591000D02*
Y853000D01*
X5899712Y398712D02*
X6092000Y591000D01*
X5852110Y398712D02*
X5899712D01*
X3759500Y441000D02*
X3812000Y493500D01*
X3600000Y441000D02*
X3759500D01*
X3575000Y466000D02*
X3600000Y441000D01*
X3575000Y466000D02*
Y560000D01*
X3634730Y619730D01*
X4375730D01*
X4604000Y848000D01*
X5436798D01*
X5601616Y552384D02*
X5627000Y527000D01*
X4092960Y552384D02*
X5601616D01*
X4079614Y565730D02*
X4092960Y552384D01*
X3975072Y565730D02*
X4079614D01*
X3932232Y522890D02*
X3975072Y565730D01*
X3932232Y513732D02*
Y522890D01*
X3912000Y493500D02*
X3932232Y513732D01*
X2274700Y1425000D02*
X2332700Y1483000D01*
X2642000D01*
X2660000Y1501000D01*
X2802700D01*
X2878700Y1425000D01*
X2274700Y1725000D02*
X2416700Y1583000D01*
X2749000D01*
X2843000Y1489000D01*
X2865000D01*
X2914000Y1440000D01*
Y1398000D02*
Y1440000D01*
X2900000Y1384000D02*
X2914000Y1398000D01*
X2835000Y1384000D02*
X2900000D01*
X2736000Y1483000D02*
X2835000Y1384000D01*
X2696000Y1483000D02*
X2736000D01*
X2678000Y1465000D02*
X2696000Y1483000D01*
X2532000Y1465000D02*
X2678000D01*
X2485002Y1418002D02*
X2532000Y1465000D01*
X2485002Y1220000D02*
Y1418002D01*
X1107000Y611772D02*
X1147228Y652000D01*
X1340646D01*
X1364000Y628646D01*
X1467646D01*
X1491000Y652000D01*
X2120964D01*
X2155000Y686036D01*
X2196964D01*
X2231000Y652000D01*
X3720000D01*
X3771000Y703000D01*
Y736000D01*
X3783230Y748230D01*
X3830000D01*
X3848230Y730000D01*
Y712000D02*
Y730000D01*
Y712000D02*
X3884460Y675770D01*
X4000000D01*
X4012000Y687770D01*
Y712000D01*
X1271126Y2192126D02*
Y2264330D01*
X1200000Y2121000D02*
X1271126Y2192126D01*
X686000Y2121000D02*
X1200000D01*
X560000Y1995000D02*
X686000Y2121000D01*
X460000Y979984D02*
X488268D01*
X287934Y745858D02*
X460000Y917924D01*
X624000Y98000D02*
X721000Y195000D01*
X552000Y98000D02*
X624000D01*
X72000Y578000D02*
X552000Y98000D01*
X72000Y578000D02*
Y1867000D01*
X120000Y1915000D01*
X776000D01*
X861000Y2000000D01*
X1060456D01*
X1110126Y1950330D01*
X2902000Y928230D02*
X2965180D01*
X3144950Y1108000D01*
X5474912Y1054222D02*
X5558332D01*
X5290134Y1239000D02*
X5474912Y1054222D01*
X4591000Y1239000D02*
X5290134D01*
X4583000Y1247000D02*
X4591000Y1239000D01*
X3991000Y1247000D02*
X4583000D01*
X3925000Y1181000D02*
X3991000Y1247000D01*
X3755000Y1181000D02*
X3925000D01*
X5264556Y1624732D02*
X5411444D01*
X3179000Y2585000D02*
X3189000Y2575000D01*
X4079000D01*
X4091000Y2587000D01*
X4362000Y1936000D02*
X4443000D01*
X4513000Y1866000D01*
X5144000D01*
X4600000Y1380000D02*
X4641000Y1339000D01*
X5074690D01*
X5117666Y1381976D01*
X4012000Y2273998D02*
X4048230Y2237768D01*
X4550768D01*
X4585000Y2272000D01*
X3256000Y2189000D02*
X3272000Y2173000D01*
X4556116D01*
X4573116Y2156000D01*
X5439822D01*
X5558332Y2037490D01*
X3612000Y1680500D02*
X3762500Y1530000D01*
X5106000D01*
X5136000Y1500000D01*
X5792000D01*
X5813000Y1521000D01*
X2211120Y2719000D02*
X4564000D01*
X2195120Y2735000D02*
X2211120Y2719000D01*
X1188000Y2752000D02*
X1209000Y2773000D01*
X2250000D01*
X2266000Y2757000D01*
X4827000D01*
X4891000Y2693000D01*
X4972778D01*
X3132000Y1525000D02*
X3191300D01*
X3082000Y1575000D02*
X3132000Y1525000D01*
X2850000Y1575000D02*
X3082000D01*
X2792000Y1633000D02*
X2850000Y1575000D01*
X2792000Y1633000D02*
Y1684000D01*
X2287212Y818000D02*
Y1122210D01*
X2385002Y1220000D01*
X2593436Y2528730D02*
X2629666Y2492500D01*
X1783564Y2528730D02*
X2593436D01*
X1747334Y2492500D02*
X1783564Y2528730D01*
X1832794Y1855000D02*
X1927124Y1949330D01*
X1213000Y1855000D02*
X1832794D01*
X235000Y1420000D02*
X287000Y1368000D01*
X235000Y1420000D02*
Y1504000D01*
X260000Y1529000D01*
X804000D01*
X853246Y1578246D01*
X1232546D01*
X1379300Y1725000D01*
X1421000Y816000D02*
X1506000Y901000D01*
X945000Y816000D02*
X1421000D01*
X785000Y976000D02*
X945000Y816000D01*
X785000Y976000D02*
Y1140000D01*
X805000Y1160000D01*
X1720000D01*
X1778000Y1218000D01*
X3575000Y1268500D02*
X3612000Y1305500D01*
X3575000Y1060000D02*
Y1268500D01*
Y1060000D02*
X3626000Y1009000D01*
X5953778D01*
X5999000Y1054222D01*
Y1709732D02*
X6038000Y1670732D01*
Y1600000D02*
Y1670732D01*
X5918000Y1480000D02*
X6038000Y1600000D01*
X5120302Y1480000D02*
X5918000D01*
X5100302Y1500000D02*
X5120302Y1480000D01*
X3693000Y1500000D02*
X5100302D01*
X3531000Y1662000D02*
X3693000Y1500000D01*
X3531000Y1662000D02*
Y1820000D01*
X3542000Y1831000D01*
X3630000D01*
X3637000Y1824000D01*
X3812000Y712000D02*
X3866230Y657770D01*
X4357770D01*
X4412000Y712000D01*
X4065500Y493500D02*
X4112000D01*
X4029270Y529730D02*
X4065500Y493500D01*
X3993730Y529730D02*
X4029270D01*
X3975000Y511000D02*
X3993730Y529730D01*
X3975000Y478000D02*
Y511000D01*
Y478000D02*
X4094000Y359000D01*
X5044000D01*
X3091000Y1216000D02*
X3278680Y1403680D01*
Y1545320D01*
X3240000Y1584000D02*
X3278680Y1545320D01*
X3129000Y1584000D02*
X3240000D01*
X3110000Y1603000D02*
X3129000Y1584000D01*
X3000700Y1603000D02*
X3110000D01*
X2878700Y1725000D02*
X3000700Y1603000D01*
X2653000Y2112000D02*
X3031000D01*
X2613000Y2072000D02*
X2653000Y2112000D01*
X2763000Y601772D02*
X2791000D01*
X2753000Y611772D02*
X2763000Y601772D01*
X2680000Y611772D02*
X2753000D01*
X2339000Y447000D02*
X2390000Y498000D01*
X2142000Y447000D02*
X2339000D01*
X2084000Y505000D02*
X2142000Y447000D01*
X1869000Y505000D02*
X2084000D01*
X1820000Y456000D02*
X1869000Y505000D01*
X2131000Y2057000D02*
X2527000D01*
X4056002Y1843000D02*
X4112000Y1898998D01*
X3999000Y1843000D02*
X4056002D01*
X3962000Y1880000D02*
X3999000Y1843000D01*
X3849000Y1582000D02*
X5358000D01*
X3834000Y1597000D02*
X3849000Y1582000D01*
X3446998Y1898998D02*
X3612000D01*
X3427000Y1879000D02*
X3446998Y1898998D01*
X3427000Y1739000D02*
Y1879000D01*
Y1739000D02*
X3684000Y1482000D01*
X5072000D01*
X5092000Y1462000D01*
X5918976D01*
X5999000Y1381976D01*
X5514308Y1426000D02*
X5558332Y1381976D01*
X3767000Y1426000D02*
X5514308D01*
X2885000Y1920000D02*
Y2038000D01*
Y1920000D02*
X2935000Y1870000D01*
X3050794D01*
X3136124Y1955330D01*
X4649262Y2065228D02*
X4677000Y2037490D01*
X3866772Y2065228D02*
X4649262D01*
X3847000Y2085000D02*
X3866772Y2065228D01*
X3646772Y2085000D02*
X3847000D01*
X4780398Y1994000D02*
X4823888Y2037490D01*
X4507000Y1994000D02*
X4780398D01*
X4453772Y2047228D02*
X4507000Y1994000D01*
X3848772Y2047228D02*
X4453772D01*
X3829000Y2067000D02*
X3848772Y2047228D01*
X3664772Y2067000D02*
X3829000D01*
X5705222Y2037490D02*
X5744732Y2077000D01*
X5967000D01*
X6113000Y2223000D01*
Y2920000D01*
X6068000Y2965000D02*
X6113000Y2920000D01*
X5878000Y2965000D02*
X6068000D01*
X5726000Y2813000D02*
X5878000Y2965000D01*
X2684166Y2813000D02*
X5726000D01*
X2629666Y2867500D02*
X2684166Y2813000D01*
X2543000Y1044000D02*
X2819000D01*
X2991000Y1216000D01*
X1747334Y2492500D02*
Y2559396D01*
X1720000Y2586730D02*
X1747334Y2559396D01*
X1641564Y2586730D02*
X1720000D01*
X1547334Y2492500D02*
X1641564Y2586730D01*
X1066700Y1425000D02*
X1308000D01*
X1344000Y1461000D01*
X1634700D01*
X1670700Y1425000D01*
X3675770Y2456270D02*
X3712000Y2492500D01*
X3577730Y2456270D02*
X3675770D01*
X3520000Y2514000D02*
X3577730Y2456270D01*
X3468000Y2514000D02*
X3520000D01*
X3410000Y2456000D02*
X3468000Y2514000D01*
X2866166Y2456000D02*
X3410000D01*
X2829666Y2492500D02*
X2866166Y2456000D01*
X1647334Y2492500D02*
X1683834Y2456000D01*
X2210834D01*
X2247334Y2492500D01*
X5815110Y2732000D02*
X5854110Y2693000D01*
X4900888Y2732000D02*
X5815110D01*
X4855888Y2777000D02*
X4900888Y2732000D01*
X2297944Y2777000D02*
X4855888D01*
X2265132Y2809812D02*
X2297944Y2777000D01*
X1130598Y2809812D02*
X2265132D01*
X1097786Y2777000D02*
X1130598Y2809812D01*
X455500Y2777000D02*
X1097786D01*
X365000Y2867500D02*
X455500Y2777000D01*
X5488000Y2795000D02*
X5511000Y2772000D01*
X2635000Y2795000D02*
X5488000D01*
X2602188Y2827812D02*
X2635000Y2795000D01*
X1112598Y2827812D02*
X2602188D01*
X1093786Y2809000D02*
X1112598Y2827812D01*
X623500Y2809000D02*
X1093786D01*
X565000Y2867500D02*
X623500Y2809000D01*
X5558332Y1709732D02*
X5598064Y1670000D01*
X5882000D01*
X5892000Y1680000D01*
Y1767000D01*
X5886000Y1773000D02*
X5892000Y1767000D01*
X3911230Y1773000D02*
X5886000D01*
X3873230Y1811000D02*
X3911230Y1773000D01*
X3787000Y1811000D02*
X3873230D01*
X3736000Y1862000D02*
X3787000Y1811000D01*
X5705222Y1381976D02*
X5745198Y1342000D01*
X6020000D01*
X6056000Y1378000D01*
Y1742000D01*
X6007000Y1791000D02*
X6056000Y1742000D01*
X3940230Y1791000D02*
X6007000D01*
X3902230Y1829000D02*
X3940230Y1791000D01*
X3800000Y1829000D02*
X3902230D01*
X3766000Y1863000D02*
X3800000Y1829000D01*
X3766000Y1863000D02*
Y1926000D01*
X3737000Y1955000D02*
X3766000Y1926000D01*
X4322002Y1809000D02*
X4412000Y1898998D01*
X3958230Y1809000D02*
X4322002D01*
X3920230Y1847000D02*
X3958230Y1809000D01*
X3863998Y1847000D02*
X3920230D01*
X3812000Y1898998D02*
X3863998Y1847000D01*
X3712000Y1898998D02*
Y1925226D01*
X3699000Y1938226D02*
X3712000Y1925226D01*
X3699000Y1938226D02*
Y1992000D01*
X3720000Y2013000D01*
X3740228D01*
X3817228Y1936000D01*
X3874998D01*
X3912000Y1898998D01*
X4823888Y2280244D02*
X4970778D01*
X686000Y1057000D02*
X729000Y1100000D01*
X182000Y1057000D02*
X686000D01*
X90000Y1149000D02*
X182000Y1057000D01*
X90000Y1149000D02*
Y1628000D01*
X219000Y1757000D01*
X3857770Y766230D02*
X3912000Y712000D01*
X3766230Y766230D02*
X3857770D01*
X3712000Y712000D02*
X3766230Y766230D01*
X1754000Y320000D02*
Y456000D01*
X1690000Y256000D02*
X1754000Y320000D01*
X1510788Y256000D02*
X1690000D01*
X1466788Y300000D02*
X1510788Y256000D01*
X3812000Y1305500D02*
X3848500Y1342000D01*
X4375500D01*
X4412000Y1305500D01*
X610770Y2546730D02*
X665000Y2492500D01*
X519230Y2546730D02*
X610770D01*
X465000Y2492500D02*
X519230Y2546730D01*
X626000Y320000D02*
Y424000D01*
X584000Y278000D02*
X626000Y320000D01*
X457000Y278000D02*
X584000D01*
X526000Y635772D02*
Y724000D01*
Y635772D02*
X560000Y601772D01*
X996000D01*
X2472000Y456000D02*
X2508000Y420000D01*
X2655000D01*
X2691000Y456000D01*
X1754000D02*
X1810000Y400000D01*
X1911000D01*
X1967000Y456000D01*
X467000Y1449000D02*
X567000Y1349000D01*
X350472Y1228016D02*
X488268D01*
X1056000Y938228D02*
X1107000D01*
X1046000Y928228D02*
X1056000Y938228D01*
X996000Y928228D02*
X1046000D01*
X469000Y1733772D02*
X522000D01*
X459000Y1723772D02*
X469000Y1733772D01*
X406000Y1723772D02*
X459000D01*
X999330Y2264330D02*
X1171126D01*
X994000Y2259000D02*
X999330Y2264330D01*
X823212Y2259000D02*
X994000D01*
X1278000Y601772D02*
X1329000D01*
X1268000Y611772D02*
X1278000Y601772D01*
X1218000Y611772D02*
X1268000D01*
X1826000Y602772D02*
X1878000D01*
X1817000Y611772D02*
X1826000Y602772D01*
X1766000Y611772D02*
X1817000D01*
X2518000Y601772D02*
X2569000D01*
X2508000Y611772D02*
X2518000Y601772D01*
X2458000Y611772D02*
X2508000D01*
X4112000Y712000D02*
X4212000D01*
X865000Y2492500D02*
X965000D01*
X4112000Y118500D02*
X4212000D01*
X1947334Y2492500D02*
X2047334D01*
X4112000Y1305500D02*
X4212000D01*
X3029666Y2492500D02*
X3129666D01*
X4112000Y1898998D02*
X4212000D01*
X4112000Y2492500D02*
X4212000D01*
X4972778Y2608000D02*
X5119666D01*
X4825888D02*
X4972778D01*
X4679000D02*
X4825888D01*
X5854110D02*
X6001000D01*
X5707222D02*
X5854110D01*
X5560332D02*
X5707222D01*
X5413444D02*
X5560332D01*
X5119666D02*
X5266556D01*
X5413444D01*
X5852110Y1952490D02*
X5999000D01*
X5705222D02*
X5852110D01*
X5558332D02*
X5705222D01*
X5411444D02*
X5558332D01*
X5264556D02*
X5411444D01*
X5117666D02*
X5264556D01*
X4970778D02*
X5117666D01*
X4823888D02*
X4970778D01*
X4677000D02*
X4823888D01*
X5852110Y2280244D02*
X5999000D01*
X5705222D02*
X5852110D01*
X5558332D02*
X5705222D01*
X5411444D02*
X5558332D01*
X5264556D02*
X5411444D01*
X4677000D02*
X4823888D01*
X5117666D02*
X5264556D01*
X4970778D02*
X5117666D01*
X4677000Y641466D02*
X4823888D01*
X5852110D02*
X5999000D01*
X5705222D02*
X5852110D01*
X5558332D02*
X5705222D01*
X5411444D02*
X5558332D01*
X5264556D02*
X5411444D01*
X5117666D02*
X5264556D01*
X4823888D02*
X4970778D01*
X5117666D01*
X5852110Y313712D02*
X5999000D01*
X5705222D02*
X5852110D01*
X5558332D02*
X5705222D01*
X5411444D02*
X5558332D01*
X5264556D02*
X5411444D01*
X5117666D02*
X5264556D01*
X4970778D02*
X5117666D01*
X4823888D02*
X4970778D01*
X4677000D02*
X4823888D01*
X5852110Y969222D02*
X5999000D01*
X5705222D02*
X5852110D01*
X5558332D02*
X5705222D01*
X5264556D02*
X5411444D01*
X5558332D01*
X5117666D02*
X5264556D01*
X4970778D02*
X5117666D01*
X4823888D02*
X4970778D01*
X4677000D02*
X4823888D01*
X4677000Y1624732D02*
X4823888D01*
X5852110D02*
X5999000D01*
X5705222D02*
X5852110D01*
X5558332D02*
X5705222D01*
X5411444D02*
X5558332D01*
X5117666D02*
X5264556D01*
X4823888D02*
X4970778D01*
X5117666D01*
X5852110Y1296976D02*
X5999000D01*
X5705222D02*
X5852110D01*
X5558332D02*
X5705222D01*
X5264556D02*
X5411444D01*
X5558332D01*
X4677000D02*
X4823888D01*
X5117666D02*
X5264556D01*
X4823888D02*
X4970778D01*
X5117666D01*
D15*
X5852110Y1952490D02*
D03*
Y2037490D02*
D03*
X5999000Y1952490D02*
D03*
Y2037490D02*
D03*
X5558332Y2280244D02*
D03*
Y2365244D02*
D03*
X5411444Y2280244D02*
D03*
Y2365244D02*
D03*
X5705222Y2280244D02*
D03*
Y2365244D02*
D03*
X5264556Y1952490D02*
D03*
Y2037490D02*
D03*
X5999000Y2280244D02*
D03*
Y2365244D02*
D03*
X5852110Y2280244D02*
D03*
Y2365244D02*
D03*
X5558332Y1952490D02*
D03*
Y2037490D02*
D03*
X5411444Y1952490D02*
D03*
Y2037490D02*
D03*
X5705222Y1952490D02*
D03*
Y2037490D02*
D03*
X5264556Y2280244D02*
D03*
Y2365244D02*
D03*
X5558332Y1296976D02*
D03*
Y1381976D02*
D03*
X5705222Y1296976D02*
D03*
Y1381976D02*
D03*
X5852110Y1296976D02*
D03*
Y1381976D02*
D03*
X5999000Y1296976D02*
D03*
Y1381976D02*
D03*
X5411444Y1296976D02*
D03*
Y1381976D02*
D03*
X5852110Y1624732D02*
D03*
Y1709732D02*
D03*
X5999000Y1624732D02*
D03*
Y1709732D02*
D03*
X5264556Y1624732D02*
D03*
Y1709732D02*
D03*
X5411444Y1624732D02*
D03*
Y1709732D02*
D03*
X5705222Y1624732D02*
D03*
Y1709732D02*
D03*
X5558332Y1624732D02*
D03*
Y1709732D02*
D03*
X5411444Y313712D02*
D03*
Y398712D02*
D03*
X4679000Y2693000D02*
D03*
Y2608000D02*
D03*
X5413444Y2693000D02*
D03*
Y2608000D02*
D03*
X5264556Y1296976D02*
D03*
Y1381976D02*
D03*
X5266556Y2693000D02*
D03*
Y2608000D02*
D03*
X4972778Y2693000D02*
D03*
Y2608000D02*
D03*
X5119666Y2693000D02*
D03*
Y2608000D02*
D03*
X5264556Y641466D02*
D03*
Y726466D02*
D03*
X4823888Y2280244D02*
D03*
Y2365244D02*
D03*
X4970778Y2280244D02*
D03*
Y2365244D02*
D03*
X5117666Y2280244D02*
D03*
Y2365244D02*
D03*
X4825888Y2693000D02*
D03*
Y2608000D02*
D03*
X5854110Y2693000D02*
D03*
Y2608000D02*
D03*
X5707222Y2693000D02*
D03*
Y2608000D02*
D03*
X5560332Y2693000D02*
D03*
Y2608000D02*
D03*
X6001000Y2693000D02*
D03*
Y2608000D02*
D03*
X5264556Y313712D02*
D03*
Y398712D02*
D03*
X5852110Y313712D02*
D03*
Y398712D02*
D03*
X5705222Y313712D02*
D03*
Y398712D02*
D03*
X5558332Y313712D02*
D03*
Y398712D02*
D03*
X5264556Y969222D02*
D03*
Y1054222D02*
D03*
X5558332Y969222D02*
D03*
Y1054222D02*
D03*
X5705222Y969222D02*
D03*
Y1054222D02*
D03*
X5411444Y969222D02*
D03*
Y1054222D02*
D03*
X5999000Y398712D02*
D03*
Y313712D02*
D03*
X5852110Y641466D02*
D03*
Y726466D02*
D03*
X5999000Y641466D02*
D03*
Y726466D02*
D03*
X5411444Y641466D02*
D03*
Y726466D02*
D03*
X5705222Y641466D02*
D03*
Y726466D02*
D03*
X5558332Y641466D02*
D03*
Y726466D02*
D03*
X5852110Y969222D02*
D03*
Y1054222D02*
D03*
X4677000Y2280244D02*
D03*
Y2365244D02*
D03*
X5999000Y969222D02*
D03*
Y1054222D02*
D03*
X4677000Y313712D02*
D03*
Y398712D02*
D03*
X4823888Y641466D02*
D03*
Y726466D02*
D03*
X4677000Y641466D02*
D03*
Y726466D02*
D03*
X4823888Y313712D02*
D03*
Y398712D02*
D03*
X4677000Y969222D02*
D03*
Y1054222D02*
D03*
X5117666Y969222D02*
D03*
Y1054222D02*
D03*
X4677000Y1296976D02*
D03*
Y1381976D02*
D03*
X4970778Y1296976D02*
D03*
Y1381976D02*
D03*
X5117666Y1296976D02*
D03*
Y1381976D02*
D03*
X4970778Y969222D02*
D03*
Y1054222D02*
D03*
X4823888Y1296976D02*
D03*
Y1381976D02*
D03*
Y969222D02*
D03*
Y1054222D02*
D03*
X4677000Y1624732D02*
D03*
Y1709732D02*
D03*
X4823888Y1952490D02*
D03*
Y2037490D02*
D03*
Y1624732D02*
D03*
Y1709732D02*
D03*
X4677000Y1952490D02*
D03*
Y2037490D02*
D03*
X4970778Y313712D02*
D03*
Y398712D02*
D03*
Y641466D02*
D03*
Y726466D02*
D03*
X5117666Y641466D02*
D03*
Y726466D02*
D03*
Y313712D02*
D03*
Y398712D02*
D03*
Y1624732D02*
D03*
Y1709732D02*
D03*
X4970778Y1952490D02*
D03*
Y2037490D02*
D03*
Y1624732D02*
D03*
Y1709732D02*
D03*
X5117666Y1952490D02*
D03*
Y2037490D02*
D03*
D16*
X150000Y150000D02*
D03*
Y2850000D02*
D03*
X6000000Y150000D02*
D03*
Y2850000D02*
D03*
D17*
X1107000Y938228D02*
D03*
X2461771Y97000D02*
D03*
Y209000D02*
D03*
Y320000D02*
D03*
X1878000Y602772D02*
D03*
X1766000Y938230D02*
D03*
X1329000Y601772D02*
D03*
X1218000Y938228D02*
D03*
X996000Y601772D02*
D03*
X522000Y2060228D02*
D03*
X406000Y1723772D02*
D03*
X2458000Y938228D02*
D03*
X2569000Y601772D02*
D03*
X2902000D02*
D03*
X2680000Y938230D02*
D03*
X2791000Y601772D02*
D03*
D18*
X1107000Y611772D02*
D03*
X1878000Y929230D02*
D03*
X1766000Y611772D02*
D03*
X1329000Y928228D02*
D03*
X1218000Y611772D02*
D03*
X996000Y928228D02*
D03*
X522000Y1733772D02*
D03*
X406000Y2050228D02*
D03*
X2458000Y611772D02*
D03*
X2569000Y928228D02*
D03*
X2902000Y928230D02*
D03*
X2680000Y611772D02*
D03*
X2791000Y928230D02*
D03*
D19*
X2788227Y97000D02*
D03*
Y209000D02*
D03*
X2788229Y320000D02*
D03*
D20*
X3081126Y2269330D02*
D03*
X3236124Y1955330D02*
D03*
X2935126D02*
D03*
X1876126Y2260330D02*
D03*
X1722126Y1949330D02*
D03*
X2332126Y1956330D02*
D03*
X2027124Y1949330D02*
D03*
X1416126Y1950330D02*
D03*
X1110126D02*
D03*
X1271126Y2264330D02*
D03*
X2477126Y2265330D02*
D03*
X2636126Y1956330D02*
D03*
X3091000Y1216000D02*
D03*
X2485002Y1220000D02*
D03*
X1878000Y1218000D02*
D03*
X1268000Y1216000D02*
D03*
X821000Y195000D02*
D03*
X829000Y1100000D02*
D03*
D21*
X2981126Y2269330D02*
D03*
X3136124Y1955330D02*
D03*
X2835126D02*
D03*
X1776126Y2260330D02*
D03*
X1622126Y1949330D02*
D03*
X2232126Y1956330D02*
D03*
X1927124Y1949330D02*
D03*
X1316126Y1950330D02*
D03*
X1010126D02*
D03*
X1171126Y2264330D02*
D03*
X2377126Y2265330D02*
D03*
X2536126Y1956330D02*
D03*
X2991000Y1216000D02*
D03*
X2385002Y1220000D02*
D03*
X1778000Y1218000D02*
D03*
X1168000Y1216000D02*
D03*
X721000Y195000D02*
D03*
X729000Y1100000D02*
D03*
D22*
X724788Y2259000D02*
D03*
X2188788Y517000D02*
D03*
X2188786Y818000D02*
D03*
X1466788Y300000D02*
D03*
X1757788Y214000D02*
D03*
X399788Y2259000D02*
D03*
X998630Y332000D02*
D03*
D23*
X823212Y2259000D02*
D03*
X2287212Y517000D02*
D03*
Y818000D02*
D03*
X1565212Y300000D02*
D03*
X1856212Y214000D02*
D03*
X498212Y2259000D02*
D03*
X1077370Y332000D02*
D03*
D24*
X2691000Y460000D02*
D03*
X2472000D02*
D03*
X1754000Y456000D02*
D03*
X1967000D02*
D03*
X1440000Y691000D02*
D03*
Y901000D02*
D03*
X1205000Y454000D02*
D03*
D25*
X2757000Y460000D02*
D03*
X2538000D02*
D03*
X1820000Y456000D02*
D03*
X2033000D02*
D03*
X1506000Y691000D02*
D03*
Y901000D02*
D03*
X1325000Y454000D02*
D03*
D26*
X3145574Y845000D02*
D03*
X3031574Y300000D02*
D03*
D27*
X3342426Y845000D02*
D03*
X3228426Y300000D02*
D03*
D28*
X2878700Y1725000D02*
D03*
X2274700D02*
D03*
X1670700D02*
D03*
X1066700D02*
D03*
D29*
X2878700Y1625000D02*
D03*
Y1525000D02*
D03*
Y1425000D02*
D03*
X3191300D02*
D03*
Y1525000D02*
D03*
Y1625000D02*
D03*
Y1725000D02*
D03*
X2587298D02*
D03*
Y1625000D02*
D03*
Y1525000D02*
D03*
Y1425000D02*
D03*
X2274700D02*
D03*
Y1525000D02*
D03*
Y1625000D02*
D03*
X1983298Y1725000D02*
D03*
Y1625000D02*
D03*
Y1525000D02*
D03*
Y1425000D02*
D03*
X1670700D02*
D03*
Y1525000D02*
D03*
Y1625000D02*
D03*
X1379300Y1725000D02*
D03*
Y1625000D02*
D03*
Y1525000D02*
D03*
Y1425000D02*
D03*
X1066700D02*
D03*
Y1525000D02*
D03*
Y1625000D02*
D03*
D30*
X3612000Y2273998D02*
D03*
X3712000D02*
D03*
X3812000D02*
D03*
X3912000D02*
D03*
X4012000D02*
D03*
X4112000D02*
D03*
X4212000D02*
D03*
X4312000D02*
D03*
X4412000D02*
D03*
Y1898998D02*
D03*
X4312000D02*
D03*
X4212000D02*
D03*
X4112000D02*
D03*
X4012000D02*
D03*
X3912000D02*
D03*
X3812000D02*
D03*
X3712000D02*
D03*
X3612000Y1680500D02*
D03*
X3712000D02*
D03*
X3812000D02*
D03*
X3912000D02*
D03*
X4012000D02*
D03*
X4112000D02*
D03*
X4212000D02*
D03*
X4312000D02*
D03*
X4412000D02*
D03*
Y1305500D02*
D03*
X4312000D02*
D03*
X4212000D02*
D03*
X4112000D02*
D03*
X4012000D02*
D03*
X3912000D02*
D03*
X3812000D02*
D03*
X3712000D02*
D03*
X3612000Y2867500D02*
D03*
X3712000D02*
D03*
X3812000D02*
D03*
X3912000D02*
D03*
X4012000D02*
D03*
X4112000D02*
D03*
X4212000D02*
D03*
X4312000D02*
D03*
X4412000D02*
D03*
Y2492500D02*
D03*
X4312000D02*
D03*
X4212000D02*
D03*
X4112000D02*
D03*
X4012000D02*
D03*
X3912000D02*
D03*
X3812000D02*
D03*
X3712000D02*
D03*
X2529666Y2867500D02*
D03*
X2629666D02*
D03*
X2729666D02*
D03*
X2829666D02*
D03*
X2929666D02*
D03*
X3029666D02*
D03*
X3129666D02*
D03*
X3229666D02*
D03*
X3329666D02*
D03*
Y2492500D02*
D03*
X3229666D02*
D03*
X3129666D02*
D03*
X3029666D02*
D03*
X2929666D02*
D03*
X2829666D02*
D03*
X2729666D02*
D03*
X2629666D02*
D03*
X365000Y2867500D02*
D03*
X465000D02*
D03*
X565000D02*
D03*
X665000D02*
D03*
X765000D02*
D03*
X865000D02*
D03*
X965000D02*
D03*
X1065000D02*
D03*
X1165000D02*
D03*
Y2492500D02*
D03*
X1065000D02*
D03*
X965000D02*
D03*
X865000D02*
D03*
X765000D02*
D03*
X665000D02*
D03*
X565000D02*
D03*
X465000D02*
D03*
X3712000Y712000D02*
D03*
X3812000D02*
D03*
X3912000D02*
D03*
X4012000D02*
D03*
X4112000D02*
D03*
X4212000D02*
D03*
X4312000D02*
D03*
X4412000D02*
D03*
Y1087000D02*
D03*
X4312000D02*
D03*
X4212000D02*
D03*
X4112000D02*
D03*
X4012000D02*
D03*
X3912000D02*
D03*
X3812000D02*
D03*
X3712000D02*
D03*
X3612000D02*
D03*
X1447334Y2867500D02*
D03*
X1547334D02*
D03*
X1647334D02*
D03*
X1747334D02*
D03*
X1847334D02*
D03*
X1947334D02*
D03*
X2047334D02*
D03*
X2147334D02*
D03*
X2247334D02*
D03*
Y2492500D02*
D03*
X2147334D02*
D03*
X2047334D02*
D03*
X1947334D02*
D03*
X1847334D02*
D03*
X1747334D02*
D03*
X1647334D02*
D03*
X1547334D02*
D03*
X3612000Y493500D02*
D03*
X3712000D02*
D03*
X3812000D02*
D03*
X3912000D02*
D03*
X4012000D02*
D03*
X4112000D02*
D03*
X4212000D02*
D03*
X4312000D02*
D03*
X4412000D02*
D03*
Y118500D02*
D03*
X4312000D02*
D03*
X4212000D02*
D03*
X4112000D02*
D03*
X4012000D02*
D03*
X3912000D02*
D03*
X3812000D02*
D03*
X3712000D02*
D03*
D31*
X3612000Y1898998D02*
D03*
Y1305500D02*
D03*
Y2492500D02*
D03*
X2529666D02*
D03*
X365000D02*
D03*
X3612000Y712000D02*
D03*
X1447334Y2492500D02*
D03*
X3612000Y118500D02*
D03*
D32*
X219000Y1657000D02*
D03*
D33*
Y1857000D02*
D03*
Y1757000D02*
D03*
D34*
X287000Y1468000D02*
D03*
X287934Y577000D02*
D03*
Y845858D02*
D03*
D35*
X287000Y1368000D02*
D03*
X287934Y477000D02*
D03*
Y745858D02*
D03*
D36*
X357000Y178000D02*
D03*
X667000Y1449000D02*
D03*
D37*
X457000Y278000D02*
D03*
X557000Y178000D02*
D03*
X467000Y1449000D02*
D03*
X567000Y1349000D02*
D03*
D38*
X526000Y424000D02*
D03*
X626000D02*
D03*
X526000Y724000D02*
D03*
X626000D02*
D03*
X826000Y424000D02*
D03*
X726000D02*
D03*
Y724000D02*
D03*
X826000D02*
D03*
D39*
X224488Y1228016D02*
D03*
Y979984D02*
D03*
X488268Y1228016D02*
D03*
Y979984D02*
D03*
X350472Y1228016D02*
D03*
D40*
X252048Y1104000D02*
D03*
X488268D02*
D03*
D41*
X4481000Y2607000D02*
D03*
X4625000Y2194000D02*
D03*
X4353000Y2594000D02*
D03*
X1691000Y2277000D02*
D03*
X4002000Y1970000D02*
D03*
X1582000Y112000D02*
D03*
X3273000Y1097000D02*
D03*
X1538000Y189000D02*
D03*
X5331963Y1079963D02*
D03*
X3482000Y1776000D02*
D03*
X3480000Y2023000D02*
D03*
X3583000Y1994000D02*
D03*
X3404000Y2020000D02*
D03*
X2304000Y1230000D02*
D03*
X1331000Y1580000D02*
D03*
X2566000Y1196000D02*
D03*
X1961000Y2194000D02*
D03*
X1371000Y690000D02*
D03*
X1650000Y2344000D02*
D03*
X2714000Y544000D02*
D03*
X4080000Y34000D02*
D03*
X3509000Y98000D02*
D03*
X2562000Y113000D02*
D03*
X1520000Y1387000D02*
D03*
X1755000Y1525000D02*
D03*
X2188786Y630214D02*
D03*
X2981000Y1684000D02*
D03*
X3930000Y2648000D02*
D03*
X3675000D02*
D03*
X2716000Y1445000D02*
D03*
X676000Y1567000D02*
D03*
X2578000Y1330000D02*
D03*
X3575000Y315000D02*
D03*
X5225000Y1177000D02*
D03*
X4521000Y1065000D02*
D03*
X4525000Y407000D02*
D03*
X5080000Y2940000D02*
D03*
X5413444Y2870604D02*
D03*
X5293000Y2909000D02*
D03*
X1329106Y2703394D02*
D03*
X5755000Y2898000D02*
D03*
X1526000Y2391000D02*
D03*
X1456000Y2392000D02*
D03*
X1696000Y2540000D02*
D03*
X1923000Y2344000D02*
D03*
X3616000Y1411000D02*
D03*
X5168000Y1538000D02*
D03*
X4062000Y1172230D02*
D03*
X4758000Y1114000D02*
D03*
X3162246Y2165000D02*
D03*
X3545000Y2124000D02*
D03*
X3415000Y2117000D02*
D03*
X3430000Y2220000D02*
D03*
X3569576Y1793000D02*
D03*
X3810000Y1751000D02*
D03*
X1038000Y273000D02*
D03*
X1767000Y761000D02*
D03*
X1618000Y213000D02*
D03*
X1949000Y2647000D02*
D03*
X2569000Y831000D02*
D03*
X1957000Y732000D02*
D03*
X4490000Y951000D02*
D03*
X1858000Y2117000D02*
D03*
X2994000Y2592000D02*
D03*
X3209000Y1871000D02*
D03*
X3493000Y2476000D02*
D03*
X1873000Y2567000D02*
D03*
X3805000Y894000D02*
D03*
X5436798Y848000D02*
D03*
X5627000Y527000D02*
D03*
X560000Y1995000D02*
D03*
X3755000Y1181000D02*
D03*
X3179000Y2585000D02*
D03*
X4091000Y2587000D02*
D03*
X4362000Y1936000D02*
D03*
X5144000Y1866000D02*
D03*
X4600000Y1380000D02*
D03*
X4585000Y2272000D02*
D03*
X3256000Y2189000D02*
D03*
X5813000Y1521000D02*
D03*
X4564000Y2719000D02*
D03*
X2195120Y2735000D02*
D03*
X1188000Y2752000D02*
D03*
X2792000Y1684000D02*
D03*
X2551000Y1112000D02*
D03*
X1213000Y1855000D02*
D03*
X3637000Y1824000D02*
D03*
X5044000Y359000D02*
D03*
X3031000Y2112000D02*
D03*
X2613000Y2072000D02*
D03*
X2527000Y2057000D02*
D03*
X2131000D02*
D03*
X5358000Y1582000D02*
D03*
X3834000Y1597000D02*
D03*
X3767000Y1426000D02*
D03*
X2885000Y2038000D02*
D03*
X2543000Y1044000D02*
D03*
X2047334Y2567666D02*
D03*
X4789022Y2527000D02*
D03*
X5511000Y2772000D02*
D03*
X3737000Y1955000D02*
D03*
%TF.MD5,a1f0fd886b65b4e8bc17b5ac3e0f6bb1*%
M02*
