M48
;Layer_Color=9474304
;FILE_FORMAT=4:4
METRIC,LZ
;TYPE=PLATED
T1F00S00C0.5080
T2F00S00C0.6000
T3F00S00C0.7112
T4F00S00C0.7140
T5F00S00C0.7300
T6F00S00C0.7800
T7F00S00C0.8000
T8F00S00C0.8128
T9F00S00C0.8300
T10F00S00C0.9000
T11F00S00C1.0200
T12F00S00C1.3000
T13F00S00C3.3020
;TYPE=NON_PLATED
T14F00S00C1.6000
%
T01
X0030607Y00115316
X0033655
X0036576Y00175514
X00382524
Y00228854
X0036576
X00445516Y00115824
X0046228
X00499618
X00516382
X00627888Y0011684
X00644652
X00683514
X00700278
T02
X0005702Y00248916
Y00311916
X0008902
X0012402
Y00248916
T03
X00263652Y00069342
X00390652Y00048006
X00348234Y0017526
X0038608Y00352298
X0044577Y0038735
X00448818Y00193294
X00497078Y00185928
X00555952Y00160074
X00652526Y00211074
X00645922Y00265176
X00647954Y00282448
X00651764Y00303784
X00654812Y0033782
X00689864Y0036703
X00585216Y0031242
X00689356Y00138176
X00650748Y00028702
X00401828Y00028448
X00410972Y00054102
X00891286Y00024892
X0090805Y0008001
X0103632Y00008636
X0114935Y00103378
X0114046Y00241554
X01148334Y0027051
X011684Y0035052
X01031748Y00297746
X0095377Y00299974
X00956818Y00362204
X00918464Y00358394
X00831342Y00278638
X0096647Y00227076
X01208532Y00282956
X0132715Y00298958
X01354319Y00274311
X01380947Y00215392
X01429258Y00133858
X01281176Y00091186
X01312672Y00390652
X01476502Y00386334
X01360932Y00401828
X01306576Y00473964
X01216412Y00641858
X0129032Y0074676
X01344422Y00738886
X01375015Y00729133
X01399794Y00704088
X0146177Y00736092
X01159256Y00690626
X01138174Y00662178
X01105662Y00658876
X01039114Y00657098
X0099822Y00672592
X0093345
X00887222Y00628904
X0087122Y0056388
X0086741Y00537718
X00864616Y0051308
X0088392Y00513842
X00910082Y00506476
X0090043Y00539496
X00827024Y00556006
X00803211Y0054991
X00815086Y00475234
X00884428Y00451104
X00906672Y00455422
X00923798Y00463296
X00949198Y0049657
X0096774Y00444754
X00973836Y00405638
X01016508Y0050038
X01107948Y00491744
X0117475Y00557276
X0116459Y00577088
X00807466Y0065659
X00760476Y00658368
X00769874Y00536448
X0073279Y00517652
X00663702Y00526288
X00641858Y00522478
X00541274
X00498094Y00557276
X00471932Y00537718
X00488442Y00595376
X004191
X00429514Y00578358
X00430784Y0064516
X00475742Y00652018
X00495046Y00672338
X00520023Y00652187
X00557561Y0069469
X00709168Y00427736
X00757174
X00338074Y0040132
X00308102Y0047117
X00369824Y00607568
X00387604Y00607314
X00337593Y00686662
X00301752Y00699008
X0014224Y0050673
X00171704Y00398018
T04
X00090678Y00045212
X00116078Y00070612
X00141478Y00045212
X00144018Y00342646
X00118618Y00368046
X00169418
T05
X00252984Y0015285
X00281178Y0015539
X00309372
X00337566Y0015285
Y0023577
X00309372Y0023831
X00281178
X00252984Y0023577
X00448564Y0023831
X00477012Y00236024
Y00153104
X00448564Y0015539
X00624332
X00652526Y0015285
X0068072Y0015539
X00708914Y0015285
X00737108
Y0023577
X00708914
X0068072Y0023831
X00652526Y0023577
X00624332Y0023831
X0062529Y0008128
Y00053086
Y00024638
X0070821
Y00053086
X0070821Y0008128
X00132588Y00440378
X00103124Y00437838
Y00520758
X00132588Y00523298
T06
X00270942Y0036195
Y0038735
X00350342
Y0036195
X00424358
Y0038735
X00503758
Y0036195
X00577774
Y0038735
X00657174
Y0036195
X0073119
Y0038735
X0081059
Y0036195
Y0041275
Y0043815
X0073119
Y0041275
X00657174
Y0043815
X00577774
Y0041275
X00503758
Y0043815
X00424358
Y0041275
X00350342
Y0043815
X00270942
Y0041275
T07
X00253652Y00084328
X00273652
X00372564Y000762
X00397564
X00446478Y00054356
X00471478
X00555952Y00131318
X00580952
Y00207772
X00555952
X00209096Y00573786
X00184096
X00126546
X00101546
X00055626Y00471678
Y00446278
Y00420878
T08
X00133604Y00107696
X00159004
X00184404
X00209804
Y00183896
X00184404
X00159004
X00133604
X01187958Y00184522
Y00162932
Y00101273
Y00079683
Y00246182
Y00267772
Y00329432
Y00351022
X01225268
Y00329432
X01262578
Y00351022
X01299887
Y00329432
X01337197
Y00351022
X01374507
Y00329432
X01411816
Y00351022
X01449126
Y00329432
X01486436
Y00351022
X01523746
Y00329432
Y00267772
Y00246182
X01486436
Y00267772
X01449126
Y00246182
X01411816
Y00267772
X01374507
Y00246182
X01337197
Y00267772
X01299887
Y00246182
X01262578
Y00267772
X01225268
Y00246182
Y00184522
Y00162932
X01262578
Y00184522
X01299887
Y00162932
X01337197
Y00184522
X01374507
Y00162932
X01411816
Y00184522
X01449126
Y00162932
X01486436
Y00184522
X01523746
Y00162932
Y00101273
Y00079683
X01486436
Y00101273
X01449126
Y00079683
X01411816
Y00101273
X01374507
Y00079683
X01337197
Y00101273
X01299887
Y00079683
X01262578
Y00101273
X01225268
Y00079683
Y00412682
Y00434272
X01262578
Y00412682
X01299887
Y00434272
X01337197
Y00412682
X01374507
Y00434272
X01411816
Y00412682
X01449126
Y00434272
X01486436
Y00412682
X01523746
Y00434272
Y00495933
Y00517523
X01486436
Y00495933
X01449126
Y00517523
X01411816
Y00495933
X01374507
Y00517523
X01337197
Y00495933
X01299887
Y00517523
X01262578
Y00495933
X01225268
Y00517523
Y00579182
Y00600772
X01262578
Y00579182
X01299887
Y00600772
X01337197
Y00579182
X01374507
Y00600772
X01411816
Y00579182
X01449126
Y00600772
X01486436
Y00579182
X01523746
Y00600772
X01524254Y00662432
Y00684022
X01486944
Y00662432
X01449634
Y00684022
X01412324
Y00662432
X01375015
Y00684022
X01337705
Y00662432
X01300395
Y00684022
X01263086
Y00662432
X01225776
Y00684022
X01188466
Y00662432
X01187958Y00600772
Y00579182
Y00517523
Y00495933
Y00434272
Y00412682
T09
X00917448Y00030099
X00942848
X00968248
X00993648
X01019048
X01044448
X01069848
X01095248
X01120648
Y00125349
X01095248
X01069848
X01044448
X01019048
X00993648
X00968248
X00942848
X00917448
Y00180848
X00942848
X00968248
X00993648
X01019048
X01044448
X01069848
X01095248
X01120648
Y00276098
X01095248
X01069848
X01044448
X01019048
X00993648
X00968248
X00942848
X00917448
Y00331597
X00942848
X00968248
X00993648
X01019048
X01044448
X01069848
X01095248
X01120648
Y00426847
X01095248
X01069848
X01044448
X01019048
X00993648
X00968248
X00942848
X00917448
Y00482346
X00942848
X00968248
X00993648
X01019048
X01044448
X01069848
X01095248
X01120648
Y00577595
X01095248
X01069848
X01044448
X01019048
X00993648
X00968248
X00942848
X00917448
Y00633095
X00942848
X00968248
X00993648
X01019048
X01044448
X01069848
X01095248
X01120648
Y00728345
X01095248
X01069848
X01044448
X01019048
X00993648
X00968248
X00942848
X00917448
X00845735
X00820335
X00794935
Y00633095
X00820335
X00845735
X00769535
X00744135
X00718735
X00693335
X00667935
X00642535
X00570823
X00545423
X00520023
X00494623
X00469223
X00443823
X00418423
Y00728345
X00443823
X00469223
X00494623
X00520023
X00545423
X00570823
X00642535
X00667935
X00693335
X00718735
X00744135
X00769535
X00393023
X00367623
X0029591
X0027051
X0024511
X0021971
X0019431
X0016891
X0014351
X0011811
X0009271
Y00633095
X0011811
X0014351
X0016891
X0019431
X0021971
X0024511
X0027051
X0029591
X00367623
X00393023
T10
X0077002Y000762
X0082002
X00798976Y0021463
X00848976
T11
X00183134Y0004953
X00208534
X00210566Y002794
X00185166
X00296672Y00308864
X00322072
X00451612Y00309372
X00477012
X0060579Y0030988
X0063119
X00759714Y00308864
X00785114
X00796575Y00496654
X00821975
X00745522
X00720122
X00669576Y00496908
X00644176
X0059236
X0056696
X00514889Y0049513
X0048949
X0043742
X0041202
X00451136Y00574124
X00476536
X0060379Y00575394
X0062919
X00757206Y0057641
X00782606
X00322866Y0057514
X00297466
X00281972Y00495384
X00256572
X00334296
X00359696
T12
X00073135Y00121158
Y00146558
Y00189448
Y00214848
X00072898Y00347472
Y00372872
T13
X000381Y000381
X01524
Y007239
X000381
T14
X0006402Y00280416
X0012402
M30
