%FSTAX23Y23*%
%MOIN*%
%SFA1B1*%

%IPPOS*%
%ADD45C,0.005000*%
%LNmb_spectrumanalyzer_drillmap_1-1*%
%LPD*%
G54D45*
X05836Y01952D02*
X05868D01*
X05852Y01936D02*
Y01968D01*
X05836Y02037D02*
X05868D01*
X05852Y02021D02*
Y02053D01*
X05983Y01952D02*
X06015D01*
X05999Y01936D02*
Y01968D01*
X05983Y02037D02*
X06015D01*
X05999Y02021D02*
Y02053D01*
X05542Y0228D02*
X05574D01*
X05558Y02264D02*
Y02296D01*
X05542Y02365D02*
X05574D01*
X05558Y02349D02*
Y02381D01*
X05395Y0228D02*
X05427D01*
X05411Y02264D02*
Y02296D01*
X05395Y02365D02*
X05427D01*
X05411Y02349D02*
Y02381D01*
X05689Y0228D02*
X05721D01*
X05705Y02264D02*
Y02296D01*
X05689Y02365D02*
X05721D01*
X05705Y02349D02*
Y02381D01*
X05248Y01952D02*
X0528D01*
X05264Y01936D02*
Y01968D01*
X05248Y02037D02*
X0528D01*
X05264Y02021D02*
Y02053D01*
X05983Y0228D02*
X06015D01*
X05999Y02264D02*
Y02296D01*
X05983Y02365D02*
X06015D01*
X05999Y02349D02*
Y02381D01*
X05836Y0228D02*
X05868D01*
X05852Y02264D02*
Y02296D01*
X05836Y02365D02*
X05868D01*
X05852Y02349D02*
Y02381D01*
X05542Y01952D02*
X05574D01*
X05558Y01936D02*
Y01968D01*
X05542Y02037D02*
X05574D01*
X05558Y02021D02*
Y02053D01*
X05395Y01952D02*
X05427D01*
X05411Y01936D02*
Y01968D01*
X05395Y02037D02*
X05427D01*
X05411Y02021D02*
Y02053D01*
X05689Y01952D02*
X05721D01*
X05705Y01936D02*
Y01968D01*
X05689Y02037D02*
X05721D01*
X05705Y02021D02*
Y02053D01*
X05248Y0228D02*
X0528D01*
X05264Y02264D02*
Y02296D01*
X05248Y02365D02*
X0528D01*
X05264Y02349D02*
Y02381D01*
X05542Y01296D02*
X05574D01*
X05558Y0128D02*
Y01312D01*
X05542Y01381D02*
X05574D01*
X05558Y01365D02*
Y01397D01*
X05689Y01296D02*
X05721D01*
X05705Y0128D02*
Y01312D01*
X05689Y01381D02*
X05721D01*
X05705Y01365D02*
Y01397D01*
X05836Y01296D02*
X05868D01*
X05852Y0128D02*
Y01312D01*
X05836Y01381D02*
X05868D01*
X05852Y01365D02*
Y01397D01*
X05983Y01296D02*
X06015D01*
X05999Y0128D02*
Y01312D01*
X05983Y01381D02*
X06015D01*
X05999Y01365D02*
Y01397D01*
X05395Y01296D02*
X05427D01*
X05411Y0128D02*
Y01312D01*
X05395Y01381D02*
X05427D01*
X05411Y01365D02*
Y01397D01*
X05836Y01624D02*
X05868D01*
X05852Y01608D02*
Y0164D01*
X05836Y01709D02*
X05868D01*
X05852Y01693D02*
Y01725D01*
X05983Y01624D02*
X06015D01*
X05999Y01608D02*
Y0164D01*
X05983Y01709D02*
X06015D01*
X05999Y01693D02*
Y01725D01*
X05248Y01624D02*
X0528D01*
X05264Y01608D02*
Y0164D01*
X05248Y01709D02*
X0528D01*
X05264Y01693D02*
Y01725D01*
X05395Y01624D02*
X05427D01*
X05411Y01608D02*
Y0164D01*
X05395Y01709D02*
X05427D01*
X05411Y01693D02*
Y01725D01*
X05689Y01624D02*
X05721D01*
X05705Y01608D02*
Y0164D01*
X05689Y01709D02*
X05721D01*
X05705Y01693D02*
Y01725D01*
X05542Y01624D02*
X05574D01*
X05558Y01608D02*
Y0164D01*
X05542Y01709D02*
X05574D01*
X05558Y01693D02*
Y01725D01*
X05395Y00313D02*
X05427D01*
X05411Y00297D02*
Y00329D01*
X05395Y00398D02*
X05427D01*
X05411Y00382D02*
Y00414D01*
X04663Y02693D02*
X04695D01*
X04679Y02677D02*
Y02709D01*
X04663Y02608D02*
X04695D01*
X04679Y02592D02*
Y02624D01*
X05397Y02693D02*
X05429D01*
X05413Y02677D02*
Y02709D01*
X05397Y02608D02*
X05429D01*
X05413Y02592D02*
Y02624D01*
X05248Y01296D02*
X0528D01*
X05264Y0128D02*
Y01312D01*
X05248Y01381D02*
X0528D01*
X05264Y01365D02*
Y01397D01*
X0525Y02693D02*
X05282D01*
X05266Y02677D02*
Y02709D01*
X0525Y02608D02*
X05282D01*
X05266Y02592D02*
Y02624D01*
X04956Y02693D02*
X04988D01*
X04972Y02677D02*
Y02709D01*
X04956Y02608D02*
X04988D01*
X04972Y02592D02*
Y02624D01*
X05103Y02693D02*
X05135D01*
X05119Y02677D02*
Y02709D01*
X05103Y02608D02*
X05135D01*
X05119Y02592D02*
Y02624D01*
X05248Y00641D02*
X0528D01*
X05264Y00625D02*
Y00657D01*
X05248Y00726D02*
X0528D01*
X05264Y0071D02*
Y00742D01*
X04807Y0228D02*
X04839D01*
X04823Y02264D02*
Y02296D01*
X04807Y02365D02*
X04839D01*
X04823Y02349D02*
Y02381D01*
X04954Y0228D02*
X04986D01*
X0497Y02264D02*
Y02296D01*
X04954Y02365D02*
X04986D01*
X0497Y02349D02*
Y02381D01*
X05101Y0228D02*
X05133D01*
X05117Y02264D02*
Y02296D01*
X05101Y02365D02*
X05133D01*
X05117Y02349D02*
Y02381D01*
X04809Y02693D02*
X04841D01*
X04825Y02677D02*
Y02709D01*
X04809Y02608D02*
X04841D01*
X04825Y02592D02*
Y02624D01*
X05838Y02693D02*
X0587D01*
X05854Y02677D02*
Y02709D01*
X05838Y02608D02*
X0587D01*
X05854Y02592D02*
Y02624D01*
X05691Y02693D02*
X05723D01*
X05707Y02677D02*
Y02709D01*
X05691Y02608D02*
X05723D01*
X05707Y02592D02*
Y02624D01*
X05544Y02693D02*
X05576D01*
X0556Y02677D02*
Y02709D01*
X05544Y02608D02*
X05576D01*
X0556Y02592D02*
Y02624D01*
X05985Y02693D02*
X06017D01*
X06001Y02677D02*
Y02709D01*
X05985Y02608D02*
X06017D01*
X06001Y02592D02*
Y02624D01*
X05248Y00313D02*
X0528D01*
X05264Y00297D02*
Y00329D01*
X05248Y00398D02*
X0528D01*
X05264Y00382D02*
Y00414D01*
X05836Y00313D02*
X05868D01*
X05852Y00297D02*
Y00329D01*
X05836Y00398D02*
X05868D01*
X05852Y00382D02*
Y00414D01*
X05689Y00313D02*
X05721D01*
X05705Y00297D02*
Y00329D01*
X05689Y00398D02*
X05721D01*
X05705Y00382D02*
Y00414D01*
X05542Y00313D02*
X05574D01*
X05558Y00297D02*
Y00329D01*
X05542Y00398D02*
X05574D01*
X05558Y00382D02*
Y00414D01*
X05248Y00969D02*
X0528D01*
X05264Y00953D02*
Y00985D01*
X05248Y01054D02*
X0528D01*
X05264Y01038D02*
Y0107D01*
X05542Y00969D02*
X05574D01*
X05558Y00953D02*
Y00985D01*
X05542Y01054D02*
X05574D01*
X05558Y01038D02*
Y0107D01*
X05689Y00969D02*
X05721D01*
X05705Y00953D02*
Y00985D01*
X05689Y01054D02*
X05721D01*
X05705Y01038D02*
Y0107D01*
X05395Y00969D02*
X05427D01*
X05411Y00953D02*
Y00985D01*
X05395Y01054D02*
X05427D01*
X05411Y01038D02*
Y0107D01*
X05983Y00398D02*
X06015D01*
X05999Y00382D02*
Y00414D01*
X05983Y00313D02*
X06015D01*
X05999Y00297D02*
Y00329D01*
X05836Y00641D02*
X05868D01*
X05852Y00625D02*
Y00657D01*
X05836Y00726D02*
X05868D01*
X05852Y0071D02*
Y00742D01*
X05983Y00641D02*
X06015D01*
X05999Y00625D02*
Y00657D01*
X05983Y00726D02*
X06015D01*
X05999Y0071D02*
Y00742D01*
X05395Y00641D02*
X05427D01*
X05411Y00625D02*
Y00657D01*
X05395Y00726D02*
X05427D01*
X05411Y0071D02*
Y00742D01*
X05689Y00641D02*
X05721D01*
X05705Y00625D02*
Y00657D01*
X05689Y00726D02*
X05721D01*
X05705Y0071D02*
Y00742D01*
X05542Y00641D02*
X05574D01*
X05558Y00625D02*
Y00657D01*
X05542Y00726D02*
X05574D01*
X05558Y0071D02*
Y00742D01*
X05836Y00969D02*
X05868D01*
X05852Y00953D02*
Y00985D01*
X05836Y01054D02*
X05868D01*
X05852Y01038D02*
Y0107D01*
X04661Y0228D02*
X04693D01*
X04677Y02264D02*
Y02296D01*
X04661Y02365D02*
X04693D01*
X04677Y02349D02*
Y02381D01*
X05983Y00969D02*
X06015D01*
X05999Y00953D02*
Y00985D01*
X05983Y01054D02*
X06015D01*
X05999Y01038D02*
Y0107D01*
X04661Y00313D02*
X04693D01*
X04677Y00297D02*
Y00329D01*
X04661Y00398D02*
X04693D01*
X04677Y00382D02*
Y00414D01*
X04807Y00641D02*
X04839D01*
X04823Y00625D02*
Y00657D01*
X04807Y00726D02*
X04839D01*
X04823Y0071D02*
Y00742D01*
X04661Y00641D02*
X04693D01*
X04677Y00625D02*
Y00657D01*
X04661Y00726D02*
X04693D01*
X04677Y0071D02*
Y00742D01*
X04807Y00313D02*
X04839D01*
X04823Y00297D02*
Y00329D01*
X04807Y00398D02*
X04839D01*
X04823Y00382D02*
Y00414D01*
X04661Y00969D02*
X04693D01*
X04677Y00953D02*
Y00985D01*
X04661Y01054D02*
X04693D01*
X04677Y01038D02*
Y0107D01*
X05101Y00969D02*
X05133D01*
X05117Y00953D02*
Y00985D01*
X05101Y01054D02*
X05133D01*
X05117Y01038D02*
Y0107D01*
X04661Y01296D02*
X04693D01*
X04677Y0128D02*
Y01312D01*
X04661Y01381D02*
X04693D01*
X04677Y01365D02*
Y01397D01*
X04954Y01296D02*
X04986D01*
X0497Y0128D02*
Y01312D01*
X04954Y01381D02*
X04986D01*
X0497Y01365D02*
Y01397D01*
X05101Y01296D02*
X05133D01*
X05117Y0128D02*
Y01312D01*
X05101Y01381D02*
X05133D01*
X05117Y01365D02*
Y01397D01*
X04954Y00969D02*
X04986D01*
X0497Y00953D02*
Y00985D01*
X04954Y01054D02*
X04986D01*
X0497Y01038D02*
Y0107D01*
X04807Y01296D02*
X04839D01*
X04823Y0128D02*
Y01312D01*
X04807Y01381D02*
X04839D01*
X04823Y01365D02*
Y01397D01*
X04807Y00969D02*
X04839D01*
X04823Y00953D02*
Y00985D01*
X04807Y01054D02*
X04839D01*
X04823Y01038D02*
Y0107D01*
X04661Y01624D02*
X04693D01*
X04677Y01608D02*
Y0164D01*
X04661Y01709D02*
X04693D01*
X04677Y01693D02*
Y01725D01*
X04807Y01952D02*
X04839D01*
X04823Y01936D02*
Y01968D01*
X04807Y02037D02*
X04839D01*
X04823Y02021D02*
Y02053D01*
X04807Y01624D02*
X04839D01*
X04823Y01608D02*
Y0164D01*
X04807Y01709D02*
X04839D01*
X04823Y01693D02*
Y01725D01*
X04661Y01952D02*
X04693D01*
X04677Y01936D02*
Y01968D01*
X04661Y02037D02*
X04693D01*
X04677Y02021D02*
Y02053D01*
X04954Y00313D02*
X04986D01*
X0497Y00297D02*
Y00329D01*
X04954Y00398D02*
X04986D01*
X0497Y00382D02*
Y00414D01*
X04954Y00641D02*
X04986D01*
X0497Y00625D02*
Y00657D01*
X04954Y00726D02*
X04986D01*
X0497Y0071D02*
Y00742D01*
X05101Y00641D02*
X05133D01*
X05117Y00625D02*
Y00657D01*
X05101Y00726D02*
X05133D01*
X05117Y0071D02*
Y00742D01*
X05101Y00313D02*
X05133D01*
X05117Y00297D02*
Y00329D01*
X05101Y00398D02*
X05133D01*
X05117Y00382D02*
Y00414D01*
X05101Y01624D02*
X05133D01*
X05117Y01608D02*
Y0164D01*
X05101Y01709D02*
X05133D01*
X05117Y01693D02*
Y01725D01*
X04954Y01952D02*
X04986D01*
X0497Y01936D02*
Y01968D01*
X04954Y02037D02*
X04986D01*
X0497Y02021D02*
Y02053D01*
X04954Y01624D02*
X04986D01*
X0497Y01608D02*
Y0164D01*
X04954Y01709D02*
X04986D01*
X0497Y01693D02*
Y01725D01*
X05101Y01952D02*
X05133D01*
X05117Y01936D02*
Y01968D01*
X05101Y02037D02*
X05133D01*
X05117Y02021D02*
Y02053D01*
X00085Y0015D02*
X00215D01*
X0015Y00085D02*
Y00215D01*
X00085Y0285D02*
X00215D01*
X0015Y02785D02*
Y02915D01*
X05935Y0015D02*
X06065D01*
X06Y00085D02*
Y00215D01*
X05935Y0285D02*
X06065D01*
X06Y02785D02*
Y02915D01*
X01092Y00938D02*
X01121D01*
X01107Y00923D02*
Y00952D01*
X01092Y00611D02*
X01121D01*
X01107Y00597D02*
Y00626D01*
X02447Y00097D02*
X02476D01*
X02461Y00082D02*
Y00111D01*
X02773Y00097D02*
X02802D01*
X02788Y00082D02*
Y00111D01*
X02447Y00209D02*
X02476D01*
X02461Y00194D02*
Y00223D01*
X02773Y00209D02*
X02802D01*
X02788Y00194D02*
Y00223D01*
X02447Y0032D02*
X02476D01*
X02461Y00305D02*
Y00334D01*
X02773Y0032D02*
X02802D01*
X02788Y00305D02*
Y00334D01*
X03061Y02269D02*
X03101D01*
X03081Y02249D02*
Y02289D01*
X02961Y02269D02*
X03001D01*
X02981Y02249D02*
Y02289D01*
X03216Y01955D02*
X03256D01*
X03236Y01935D02*
Y01975D01*
X03116Y01955D02*
X03156D01*
X03136Y01935D02*
Y01975D01*
X02915Y01955D02*
X02955D01*
X02935Y01935D02*
Y01975D01*
X02815Y01955D02*
X02855D01*
X02835Y01935D02*
Y01975D01*
X01856Y0226D02*
X01896D01*
X01876Y0224D02*
Y0228D01*
X01756Y0226D02*
X01796D01*
X01776Y0224D02*
Y0228D01*
X01702Y01949D02*
X01742D01*
X01722Y01929D02*
Y01969D01*
X01602Y01949D02*
X01642D01*
X01622Y01929D02*
Y01969D01*
X02312Y01956D02*
X02352D01*
X02332Y01936D02*
Y01976D01*
X02212Y01956D02*
X02252D01*
X02232Y01936D02*
Y01976D01*
X01907Y01949D02*
X01947D01*
X01927Y01929D02*
Y01969D01*
X02007Y01949D02*
X02047D01*
X02027Y01929D02*
Y01969D01*
X01296Y0195D02*
X01336D01*
X01316Y0193D02*
Y0197D01*
X01396Y0195D02*
X01436D01*
X01416Y0193D02*
Y0197D01*
X0099Y0195D02*
X0103D01*
X0101Y0193D02*
Y0197D01*
X0109Y0195D02*
X0113D01*
X0111Y0193D02*
Y0197D01*
X01151Y02264D02*
X01191D01*
X01171Y02244D02*
Y02284D01*
X01251Y02264D02*
X01291D01*
X01271Y02244D02*
Y02284D01*
X02457Y02265D02*
X02497D01*
X02477Y02245D02*
Y02285D01*
X02357Y02265D02*
X02397D01*
X02377Y02245D02*
Y02285D01*
X02616Y01956D02*
X02656D01*
X02636Y01936D02*
Y01976D01*
X02516Y01956D02*
X02556D01*
X02536Y01936D02*
Y01976D01*
X00709Y02259D02*
X0074D01*
X00724Y02243D02*
Y02274D01*
X00807Y02259D02*
X00838D01*
X00823Y02243D02*
Y02274D01*
X02681Y0046D02*
X02701D01*
X02691Y0045D02*
Y0047D01*
X02747Y0046D02*
X02767D01*
X02757Y0045D02*
Y0047D01*
X03127Y00845D02*
X03163D01*
X03145Y00827D02*
Y00862D01*
X03324Y00845D02*
X0336D01*
X03342Y00827D02*
Y00862D01*
X03013Y003D02*
X03049D01*
X03031Y00282D02*
Y00317D01*
X0321Y003D02*
X03246D01*
X03228Y00282D02*
Y00317D01*
X02528Y0046D02*
X02548D01*
X02538Y0045D02*
Y0047D01*
X02462Y0046D02*
X02482D01*
X02472Y0045D02*
Y0047D01*
X0297Y01216D02*
X03011D01*
X02991Y01195D02*
Y01236D01*
X0307Y01216D02*
X03111D01*
X03091Y01195D02*
Y01236D01*
X02271Y00517D02*
X02302D01*
X02287Y00501D02*
Y00532D01*
X02173Y00517D02*
X02204D01*
X02188Y00501D02*
Y00532D01*
X0181Y00456D02*
X0183D01*
X0182Y00446D02*
Y00466D01*
X01744Y00456D02*
X01764D01*
X01754Y00446D02*
Y00466D01*
X02023Y00456D02*
X02043D01*
X02033Y00446D02*
Y00466D01*
X01957Y00456D02*
X01977D01*
X01967Y00446D02*
Y00466D01*
X02173Y00818D02*
X02204D01*
X02188Y00802D02*
Y00833D01*
X02271Y00818D02*
X02302D01*
X02287Y00802D02*
Y00833D01*
X02464Y0122D02*
X02505D01*
X02485Y01199D02*
Y0124D01*
X02364Y0122D02*
X02405D01*
X02385Y01199D02*
Y0124D01*
X01549Y003D02*
X0158D01*
X01565Y00284D02*
Y00315D01*
X01451Y003D02*
X01482D01*
X01466Y00284D02*
Y00315D01*
X0184Y00214D02*
X01871D01*
X01856Y00198D02*
Y00229D01*
X01742Y00214D02*
X01773D01*
X01757Y00198D02*
Y00229D01*
X01863Y00602D02*
X01892D01*
X01878Y00588D02*
Y00617D01*
X01863Y00929D02*
X01892D01*
X01878Y00914D02*
Y00943D01*
X01751Y00938D02*
X0178D01*
X01766Y00923D02*
Y00952D01*
X01751Y00611D02*
X0178D01*
X01766Y00597D02*
Y00626D01*
X01314Y00601D02*
X01343D01*
X01329Y00587D02*
Y00616D01*
X01314Y00928D02*
X01343D01*
X01329Y00913D02*
Y00942D01*
X01203Y00938D02*
X01232D01*
X01218Y00923D02*
Y00952D01*
X01203Y00611D02*
X01232D01*
X01218Y00597D02*
Y00626D01*
X00981Y00601D02*
X0101D01*
X00996Y00587D02*
Y00616D01*
X00981Y00928D02*
X0101D01*
X00996Y00913D02*
Y00942D01*
X01496Y00691D02*
X01516D01*
X01506Y00681D02*
Y00701D01*
X0143Y00691D02*
X0145D01*
X0144Y00681D02*
Y00701D01*
X0143Y00901D02*
X0145D01*
X0144Y00891D02*
Y00911D01*
X01496Y00901D02*
X01516D01*
X01506Y00891D02*
Y00911D01*
X01857Y01218D02*
X01898D01*
X01878Y01197D02*
Y01238D01*
X01757Y01218D02*
X01798D01*
X01778Y01197D02*
Y01238D01*
X00507Y0206D02*
X00536D01*
X00522Y02045D02*
Y02074D01*
X00507Y01733D02*
X00536D01*
X00522Y01719D02*
Y01748D01*
X00391Y01723D02*
X0042D01*
X00406Y01709D02*
Y01738D01*
X00391Y0205D02*
X0042D01*
X00406Y02035D02*
Y02064D01*
X00482Y02259D02*
X00513D01*
X00498Y02243D02*
Y02274D01*
X00384Y02259D02*
X00415D01*
X00399Y02243D02*
Y02274D01*
X01247Y01216D02*
X01288D01*
X01268Y01195D02*
Y01236D01*
X01147Y01216D02*
X01188D01*
X01168Y01195D02*
Y01236D01*
X01315Y00454D02*
X01335D01*
X01325Y00444D02*
Y00464D01*
X01195Y00454D02*
X01215D01*
X01205Y00444D02*
Y00464D01*
X007Y00195D02*
X00741D01*
X00721Y00174D02*
Y00215D01*
X008Y00195D02*
X00841D01*
X00821Y00174D02*
Y00215D01*
X00708Y011D02*
X00749D01*
X00729Y01079D02*
Y0112D01*
X00808Y011D02*
X00849D01*
X00829Y01079D02*
Y0112D01*
X00982Y00332D02*
X01014D01*
X00998Y00316D02*
Y00347D01*
X01061Y00332D02*
X01093D01*
X01077Y00316D02*
Y00347D01*
X02863Y01725D02*
X02894D01*
X02878Y01709D02*
Y0174D01*
X02863Y01625D02*
X02894D01*
X02878Y01609D02*
Y0164D01*
X02863Y01525D02*
X02894D01*
X02878Y01509D02*
Y0154D01*
X02863Y01425D02*
X02894D01*
X02878Y01409D02*
Y0144D01*
X03175Y01425D02*
X03206D01*
X03191Y01409D02*
Y0144D01*
X03175Y01525D02*
X03206D01*
X03191Y01509D02*
Y0154D01*
X03175Y01625D02*
X03206D01*
X03191Y01609D02*
Y0164D01*
X03175Y01725D02*
X03206D01*
X03191Y01709D02*
Y0174D01*
X03595Y02273D02*
X03628D01*
X03612Y02257D02*
Y0229D01*
X03695Y02273D02*
X03728D01*
X03712Y02257D02*
Y0229D01*
X03795Y02273D02*
X03828D01*
X03812Y02257D02*
Y0229D01*
X03895Y02273D02*
X03928D01*
X03912Y02257D02*
Y0229D01*
X03995Y02273D02*
X04028D01*
X04012Y02257D02*
Y0229D01*
X04095Y02273D02*
X04128D01*
X04112Y02257D02*
Y0229D01*
X04195Y02273D02*
X04228D01*
X04212Y02257D02*
Y0229D01*
X04295Y02273D02*
X04328D01*
X04312Y02257D02*
Y0229D01*
X04395Y02273D02*
X04428D01*
X04412Y02257D02*
Y0229D01*
X04395Y01898D02*
X04428D01*
X04412Y01882D02*
Y01915D01*
X04295Y01898D02*
X04328D01*
X04312Y01882D02*
Y01915D01*
X04195Y01898D02*
X04228D01*
X04212Y01882D02*
Y01915D01*
X04095Y01898D02*
X04128D01*
X04112Y01882D02*
Y01915D01*
X03995Y01898D02*
X04028D01*
X04012Y01882D02*
Y01915D01*
X03895Y01898D02*
X03928D01*
X03912Y01882D02*
Y01915D01*
X03795Y01898D02*
X03828D01*
X03812Y01882D02*
Y01915D01*
X03695Y01898D02*
X03728D01*
X03712Y01882D02*
Y01915D01*
X03595Y01898D02*
X03628D01*
X03612Y01882D02*
Y01915D01*
X03595Y0168D02*
X03628D01*
X03612Y01664D02*
Y01696D01*
X03695Y0168D02*
X03728D01*
X03712Y01664D02*
Y01696D01*
X03795Y0168D02*
X03828D01*
X03812Y01664D02*
Y01696D01*
X03895Y0168D02*
X03928D01*
X03912Y01664D02*
Y01696D01*
X03995Y0168D02*
X04028D01*
X04012Y01664D02*
Y01696D01*
X04095Y0168D02*
X04128D01*
X04112Y01664D02*
Y01696D01*
X04195Y0168D02*
X04228D01*
X04212Y01664D02*
Y01696D01*
X04295Y0168D02*
X04328D01*
X04312Y01664D02*
Y01696D01*
X04395Y0168D02*
X04428D01*
X04412Y01664D02*
Y01696D01*
X04395Y01305D02*
X04428D01*
X04412Y01289D02*
Y01321D01*
X04295Y01305D02*
X04328D01*
X04312Y01289D02*
Y01321D01*
X04195Y01305D02*
X04228D01*
X04212Y01289D02*
Y01321D01*
X04095Y01305D02*
X04128D01*
X04112Y01289D02*
Y01321D01*
X03995Y01305D02*
X04028D01*
X04012Y01289D02*
Y01321D01*
X03895Y01305D02*
X03928D01*
X03912Y01289D02*
Y01321D01*
X03795Y01305D02*
X03828D01*
X03812Y01289D02*
Y01321D01*
X03695Y01305D02*
X03728D01*
X03712Y01289D02*
Y01321D01*
X03595Y01305D02*
X03628D01*
X03612Y01289D02*
Y01321D01*
X03595Y02867D02*
X03628D01*
X03612Y02851D02*
Y02883D01*
X03695Y02867D02*
X03728D01*
X03712Y02851D02*
Y02883D01*
X03795Y02867D02*
X03828D01*
X03812Y02851D02*
Y02883D01*
X03895Y02867D02*
X03928D01*
X03912Y02851D02*
Y02883D01*
X03995Y02867D02*
X04028D01*
X04012Y02851D02*
Y02883D01*
X04095Y02867D02*
X04128D01*
X04112Y02851D02*
Y02883D01*
X04195Y02867D02*
X04228D01*
X04212Y02851D02*
Y02883D01*
X04295Y02867D02*
X04328D01*
X04312Y02851D02*
Y02883D01*
X04395Y02867D02*
X04428D01*
X04412Y02851D02*
Y02883D01*
X04395Y02492D02*
X04428D01*
X04412Y02476D02*
Y02508D01*
X04295Y02492D02*
X04328D01*
X04312Y02476D02*
Y02508D01*
X04195Y02492D02*
X04228D01*
X04212Y02476D02*
Y02508D01*
X04095Y02492D02*
X04128D01*
X04112Y02476D02*
Y02508D01*
X03995Y02492D02*
X04028D01*
X04012Y02476D02*
Y02508D01*
X03895Y02492D02*
X03928D01*
X03912Y02476D02*
Y02508D01*
X03795Y02492D02*
X03828D01*
X03812Y02476D02*
Y02508D01*
X03695Y02492D02*
X03728D01*
X03712Y02476D02*
Y02508D01*
X03595Y02492D02*
X03628D01*
X03612Y02476D02*
Y02508D01*
X02513Y02867D02*
X02546D01*
X02529Y02851D02*
Y02883D01*
X02613Y02867D02*
X02646D01*
X02629Y02851D02*
Y02883D01*
X02713Y02867D02*
X02746D01*
X02729Y02851D02*
Y02883D01*
X02813Y02867D02*
X02846D01*
X02829Y02851D02*
Y02883D01*
X02913Y02867D02*
X02946D01*
X02929Y02851D02*
Y02883D01*
X03013Y02867D02*
X03046D01*
X03029Y02851D02*
Y02883D01*
X03113Y02867D02*
X03146D01*
X03129Y02851D02*
Y02883D01*
X03213Y02867D02*
X03246D01*
X03229Y02851D02*
Y02883D01*
X03313Y02867D02*
X03346D01*
X03329Y02851D02*
Y02883D01*
X03313Y02492D02*
X03346D01*
X03329Y02476D02*
Y02508D01*
X03213Y02492D02*
X03246D01*
X03229Y02476D02*
Y02508D01*
X03113Y02492D02*
X03146D01*
X03129Y02476D02*
Y02508D01*
X03013Y02492D02*
X03046D01*
X03029Y02476D02*
Y02508D01*
X02913Y02492D02*
X02946D01*
X02929Y02476D02*
Y02508D01*
X02813Y02492D02*
X02846D01*
X02829Y02476D02*
Y02508D01*
X02713Y02492D02*
X02746D01*
X02729Y02476D02*
Y02508D01*
X02613Y02492D02*
X02646D01*
X02629Y02476D02*
Y02508D01*
X02513Y02492D02*
X02546D01*
X02529Y02476D02*
Y02508D01*
X00348Y02867D02*
X00381D01*
X00365Y02851D02*
Y02883D01*
X00448Y02867D02*
X00481D01*
X00465Y02851D02*
Y02883D01*
X00548Y02867D02*
X00581D01*
X00565Y02851D02*
Y02883D01*
X00648Y02867D02*
X00681D01*
X00665Y02851D02*
Y02883D01*
X00748Y02867D02*
X00781D01*
X00765Y02851D02*
Y02883D01*
X00848Y02867D02*
X00881D01*
X00865Y02851D02*
Y02883D01*
X00948Y02867D02*
X00981D01*
X00965Y02851D02*
Y02883D01*
X01048Y02867D02*
X01081D01*
X01065Y02851D02*
Y02883D01*
X01148Y02867D02*
X01181D01*
X01165Y02851D02*
Y02883D01*
X01148Y02492D02*
X01181D01*
X01165Y02476D02*
Y02508D01*
X01048Y02492D02*
X01081D01*
X01065Y02476D02*
Y02508D01*
X00948Y02492D02*
X00981D01*
X00965Y02476D02*
Y02508D01*
X00848Y02492D02*
X00881D01*
X00865Y02476D02*
Y02508D01*
X00748Y02492D02*
X00781D01*
X00765Y02476D02*
Y02508D01*
X00648Y02492D02*
X00681D01*
X00665Y02476D02*
Y02508D01*
X00548Y02492D02*
X00581D01*
X00565Y02476D02*
Y02508D01*
X00448Y02492D02*
X00481D01*
X00465Y02476D02*
Y02508D01*
X00348Y02492D02*
X00381D01*
X00365Y02476D02*
Y02508D01*
X03595Y00712D02*
X03628D01*
X03612Y00695D02*
Y00728D01*
X03695Y00712D02*
X03728D01*
X03712Y00695D02*
Y00728D01*
X03795Y00712D02*
X03828D01*
X03812Y00695D02*
Y00728D01*
X03895Y00712D02*
X03928D01*
X03912Y00695D02*
Y00728D01*
X03995Y00712D02*
X04028D01*
X04012Y00695D02*
Y00728D01*
X04095Y00712D02*
X04128D01*
X04112Y00695D02*
Y00728D01*
X04195Y00712D02*
X04228D01*
X04212Y00695D02*
Y00728D01*
X04295Y00712D02*
X04328D01*
X04312Y00695D02*
Y00728D01*
X04395Y00712D02*
X04428D01*
X04412Y00695D02*
Y00728D01*
X04395Y01087D02*
X04428D01*
X04412Y0107D02*
Y01103D01*
X04295Y01087D02*
X04328D01*
X04312Y0107D02*
Y01103D01*
X04195Y01087D02*
X04228D01*
X04212Y0107D02*
Y01103D01*
X04095Y01087D02*
X04128D01*
X04112Y0107D02*
Y01103D01*
X03995Y01087D02*
X04028D01*
X04012Y0107D02*
Y01103D01*
X03895Y01087D02*
X03928D01*
X03912Y0107D02*
Y01103D01*
X03795Y01087D02*
X03828D01*
X03812Y0107D02*
Y01103D01*
X03695Y01087D02*
X03728D01*
X03712Y0107D02*
Y01103D01*
X03595Y01087D02*
X03628D01*
X03612Y0107D02*
Y01103D01*
X0143Y02867D02*
X01463D01*
X01447Y02851D02*
Y02883D01*
X0153Y02867D02*
X01563D01*
X01547Y02851D02*
Y02883D01*
X0163Y02867D02*
X01663D01*
X01647Y02851D02*
Y02883D01*
X0173Y02867D02*
X01763D01*
X01747Y02851D02*
Y02883D01*
X0183Y02867D02*
X01863D01*
X01847Y02851D02*
Y02883D01*
X0193Y02867D02*
X01963D01*
X01947Y02851D02*
Y02883D01*
X0203Y02867D02*
X02063D01*
X02047Y02851D02*
Y02883D01*
X0213Y02867D02*
X02163D01*
X02147Y02851D02*
Y02883D01*
X0223Y02867D02*
X02263D01*
X02247Y02851D02*
Y02883D01*
X0223Y02492D02*
X02263D01*
X02247Y02476D02*
Y02508D01*
X0213Y02492D02*
X02163D01*
X02147Y02476D02*
Y02508D01*
X0203Y02492D02*
X02063D01*
X02047Y02476D02*
Y02508D01*
X0193Y02492D02*
X01963D01*
X01947Y02476D02*
Y02508D01*
X0183Y02492D02*
X01863D01*
X01847Y02476D02*
Y02508D01*
X0173Y02492D02*
X01763D01*
X01747Y02476D02*
Y02508D01*
X0163Y02492D02*
X01663D01*
X01647Y02476D02*
Y02508D01*
X0153Y02492D02*
X01563D01*
X01547Y02476D02*
Y02508D01*
X0143Y02492D02*
X01463D01*
X01447Y02476D02*
Y02508D01*
X03595Y00493D02*
X03628D01*
X03612Y00477D02*
Y00509D01*
X03695Y00493D02*
X03728D01*
X03712Y00477D02*
Y00509D01*
X03795Y00493D02*
X03828D01*
X03812Y00477D02*
Y00509D01*
X03895Y00493D02*
X03928D01*
X03912Y00477D02*
Y00509D01*
X03995Y00493D02*
X04028D01*
X04012Y00477D02*
Y00509D01*
X04095Y00493D02*
X04128D01*
X04112Y00477D02*
Y00509D01*
X04195Y00493D02*
X04228D01*
X04212Y00477D02*
Y00509D01*
X04295Y00493D02*
X04328D01*
X04312Y00477D02*
Y00509D01*
X04395Y00493D02*
X04428D01*
X04412Y00477D02*
Y00509D01*
X04395Y00118D02*
X04428D01*
X04412Y00102D02*
Y00134D01*
X04295Y00118D02*
X04328D01*
X04312Y00102D02*
Y00134D01*
X04195Y00118D02*
X04228D01*
X04212Y00102D02*
Y00134D01*
X04095Y00118D02*
X04128D01*
X04112Y00102D02*
Y00134D01*
X03995Y00118D02*
X04028D01*
X04012Y00102D02*
Y00134D01*
X03895Y00118D02*
X03928D01*
X03912Y00102D02*
Y00134D01*
X03795Y00118D02*
X03828D01*
X03812Y00102D02*
Y00134D01*
X03695Y00118D02*
X03728D01*
X03712Y00102D02*
Y00134D01*
X03595Y00118D02*
X03628D01*
X03612Y00102D02*
Y00134D01*
X00203Y01657D02*
X00234D01*
X00219Y01641D02*
Y01672D01*
X00203Y01857D02*
X00234D01*
X00219Y01841D02*
Y01872D01*
X00203Y01757D02*
X00234D01*
X00219Y01741D02*
Y01772D01*
X00261Y01468D02*
X00312D01*
X00287Y01442D02*
Y01493D01*
X00261Y01368D02*
X00312D01*
X00287Y01342D02*
Y01393D01*
X00342Y00178D02*
X00371D01*
X00357Y00163D02*
Y00192D01*
X00442Y00278D02*
X00471D01*
X00457Y00263D02*
Y00292D01*
X00542Y00178D02*
X00571D01*
X00557Y00163D02*
Y00192D01*
X00262Y00477D02*
X00313D01*
X00287Y00451D02*
Y00502D01*
X00262Y00577D02*
X00313D01*
X00287Y00551D02*
Y00602D01*
X00262Y00745D02*
X00313D01*
X00287Y0072D02*
Y00771D01*
X00262Y00845D02*
X00313D01*
X00287Y0082D02*
Y00871D01*
X0051Y00424D02*
X00542D01*
X00526Y00408D02*
Y0044D01*
X0061Y00424D02*
X00642D01*
X00626Y00408D02*
Y0044D01*
X0051Y00724D02*
X00542D01*
X00526Y00708D02*
Y0074D01*
X0061Y00724D02*
X00642D01*
X00626Y00708D02*
Y0074D01*
X0081Y00424D02*
X00842D01*
X00826Y00408D02*
Y0044D01*
X0071Y00424D02*
X00742D01*
X00726Y00408D02*
Y0044D01*
X0071Y00724D02*
X00742D01*
X00726Y00708D02*
Y0074D01*
X0081Y00724D02*
X00842D01*
X00826Y00708D02*
Y0074D01*
X02443Y00611D02*
X02472D01*
X02458Y00597D02*
Y00626D01*
X02443Y00938D02*
X02472D01*
X02458Y00923D02*
Y00952D01*
X02554Y00928D02*
X02583D01*
X02569Y00913D02*
Y00942D01*
X02554Y00601D02*
X02583D01*
X02569Y00587D02*
Y00616D01*
X02887Y00928D02*
X02916D01*
X02902Y00913D02*
Y00942D01*
X02887Y00601D02*
X02916D01*
X02902Y00587D02*
Y00616D01*
X02665Y00611D02*
X02694D01*
X0268Y00597D02*
Y00626D01*
X02665Y00938D02*
X02694D01*
X0268Y00923D02*
Y00952D01*
X02776Y00928D02*
X02805D01*
X02791Y00913D02*
Y00942D01*
X02776Y00601D02*
X02805D01*
X02791Y00587D02*
Y00616D01*
X02571Y01725D02*
X02602D01*
X02587Y01709D02*
Y0174D01*
X02571Y01625D02*
X02602D01*
X02587Y01609D02*
Y0164D01*
X02571Y01525D02*
X02602D01*
X02587Y01509D02*
Y0154D01*
X02571Y01425D02*
X02602D01*
X02587Y01409D02*
Y0144D01*
X02259Y01425D02*
X0229D01*
X02274Y01409D02*
Y0144D01*
X02259Y01525D02*
X0229D01*
X02274Y01509D02*
Y0154D01*
X02259Y01625D02*
X0229D01*
X02274Y01609D02*
Y0164D01*
X02259Y01725D02*
X0229D01*
X02274Y01709D02*
Y0174D01*
X01967Y01725D02*
X01998D01*
X01983Y01709D02*
Y0174D01*
X01967Y01625D02*
X01998D01*
X01983Y01609D02*
Y0164D01*
X01967Y01525D02*
X01998D01*
X01983Y01509D02*
Y0154D01*
X01967Y01425D02*
X01998D01*
X01983Y01409D02*
Y0144D01*
X01655Y01425D02*
X01686D01*
X0167Y01409D02*
Y0144D01*
X01655Y01525D02*
X01686D01*
X0167Y01509D02*
Y0154D01*
X01655Y01625D02*
X01686D01*
X0167Y01609D02*
Y0164D01*
X01655Y01725D02*
X01686D01*
X0167Y01709D02*
Y0174D01*
X01363Y01725D02*
X01394D01*
X01379Y01709D02*
Y0174D01*
X01363Y01625D02*
X01394D01*
X01379Y01609D02*
Y0164D01*
X01363Y01525D02*
X01394D01*
X01379Y01509D02*
Y0154D01*
X01363Y01425D02*
X01394D01*
X01379Y01409D02*
Y0144D01*
X01051Y01425D02*
X01082D01*
X01066Y01409D02*
Y0144D01*
X01051Y01525D02*
X01082D01*
X01066Y01509D02*
Y0154D01*
X01051Y01625D02*
X01082D01*
X01066Y01609D02*
Y0164D01*
X01051Y01725D02*
X01082D01*
X01066Y01709D02*
Y0174D01*
X00452Y01449D02*
X00481D01*
X00467Y01434D02*
Y01463D01*
X00552Y01349D02*
X00581D01*
X00567Y01334D02*
Y01363D01*
X00652Y01449D02*
X00681D01*
X00667Y01434D02*
Y01463D01*
X00212Y01228D02*
X00236D01*
X00224Y01216D02*
Y01239D01*
X00212Y00979D02*
X00236D01*
X00224Y00968D02*
Y00991D01*
X00476Y01228D02*
X005D01*
X00488Y01216D02*
Y01239D01*
X00476Y00979D02*
X005D01*
X00488Y00968D02*
Y00991D01*
X00338Y01228D02*
X00362D01*
X0035Y01216D02*
Y01239D01*
X0022Y01104D02*
X00283D01*
X00252Y01072D02*
Y01135D01*
X00456Y01104D02*
X00519D01*
X00488Y01072D02*
Y01135D01*
X04467Y02607D02*
X04495D01*
X04481Y02593D02*
Y02621D01*
X04611Y02194D02*
X04639D01*
X04625Y0218D02*
Y02208D01*
X04339Y02594D02*
X04367D01*
X04353Y0258D02*
Y02608D01*
X01677Y02277D02*
X01705D01*
X01691Y02263D02*
Y02291D01*
X03988Y0197D02*
X04016D01*
X04002Y01956D02*
Y01984D01*
X01568Y00112D02*
X01596D01*
X01582Y00098D02*
Y00126D01*
X03259Y01097D02*
X03287D01*
X03273Y01083D02*
Y01111D01*
X01524Y00189D02*
X01552D01*
X01538Y00175D02*
Y00203D01*
X05317Y01079D02*
X05345D01*
X05331Y01065D02*
Y01093D01*
X03468Y01776D02*
X03496D01*
X03482Y01762D02*
Y0179D01*
X03466Y02023D02*
X03494D01*
X0348Y02009D02*
Y02037D01*
X03569Y01994D02*
X03597D01*
X03583Y0198D02*
Y02008D01*
X0339Y0202D02*
X03418D01*
X03404Y02006D02*
Y02034D01*
X0229Y0123D02*
X02318D01*
X02304Y01216D02*
Y01244D01*
X01317Y0158D02*
X01345D01*
X01331Y01566D02*
Y01594D01*
X02552Y01196D02*
X0258D01*
X02566Y01182D02*
Y0121D01*
X01947Y02194D02*
X01975D01*
X01961Y0218D02*
Y02208D01*
X01357Y0069D02*
X01385D01*
X01371Y00676D02*
Y00704D01*
X01636Y02344D02*
X01664D01*
X0165Y0233D02*
Y02358D01*
X027Y00544D02*
X02728D01*
X02714Y0053D02*
Y00558D01*
X04066Y00034D02*
X04094D01*
X0408Y0002D02*
Y00048D01*
X03495Y00098D02*
X03523D01*
X03509Y00084D02*
Y00112D01*
X02548Y00113D02*
X02576D01*
X02562Y00099D02*
Y00127D01*
X01506Y01387D02*
X01534D01*
X0152Y01373D02*
Y01401D01*
X01741Y01525D02*
X01769D01*
X01755Y01511D02*
Y01539D01*
X02174Y0063D02*
X02202D01*
X02188Y00616D02*
Y00644D01*
X02967Y01684D02*
X02995D01*
X02981Y0167D02*
Y01698D01*
X03916Y02648D02*
X03944D01*
X0393Y02634D02*
Y02662D01*
X03661Y02648D02*
X03689D01*
X03675Y02634D02*
Y02662D01*
X02702Y01445D02*
X0273D01*
X02716Y01431D02*
Y01459D01*
X00662Y01567D02*
X0069D01*
X00676Y01553D02*
Y01581D01*
X02564Y0133D02*
X02592D01*
X02578Y01316D02*
Y01344D01*
X03561Y00315D02*
X03589D01*
X03575Y00301D02*
Y00329D01*
X05211Y01177D02*
X05239D01*
X05225Y01163D02*
Y01191D01*
X04507Y01065D02*
X04535D01*
X04521Y01051D02*
Y01079D01*
X04511Y00407D02*
X04539D01*
X04525Y00393D02*
Y00421D01*
X05066Y0294D02*
X05094D01*
X0508Y02926D02*
Y02954D01*
X05399Y0287D02*
X05427D01*
X05413Y02856D02*
Y02884D01*
X05279Y02909D02*
X05307D01*
X05293Y02895D02*
Y02923D01*
X01315Y02703D02*
X01343D01*
X01329Y02689D02*
Y02717D01*
X05741Y02898D02*
X05769D01*
X05755Y02884D02*
Y02912D01*
X01512Y02391D02*
X0154D01*
X01526Y02377D02*
Y02405D01*
X01442Y02392D02*
X0147D01*
X01456Y02378D02*
Y02406D01*
X01682Y0254D02*
X0171D01*
X01696Y02526D02*
Y02554D01*
X01909Y02344D02*
X01937D01*
X01923Y0233D02*
Y02358D01*
X03602Y01411D02*
X0363D01*
X03616Y01397D02*
Y01425D01*
X05154Y01538D02*
X05182D01*
X05168Y01524D02*
Y01552D01*
X04048Y01172D02*
X04076D01*
X04062Y01158D02*
Y01186D01*
X04744Y01114D02*
X04772D01*
X04758Y011D02*
Y01128D01*
X03148Y02165D02*
X03176D01*
X03162Y02151D02*
Y02179D01*
X03531Y02124D02*
X03559D01*
X03545Y0211D02*
Y02138D01*
X03401Y02117D02*
X03429D01*
X03415Y02103D02*
Y02131D01*
X03416Y0222D02*
X03444D01*
X0343Y02206D02*
Y02234D01*
X03555Y01793D02*
X03583D01*
X03569Y01779D02*
Y01807D01*
X03796Y01751D02*
X03824D01*
X0381Y01737D02*
Y01765D01*
X01024Y00273D02*
X01052D01*
X01038Y00259D02*
Y00287D01*
X01753Y00761D02*
X01781D01*
X01767Y00747D02*
Y00775D01*
X01604Y00213D02*
X01632D01*
X01618Y00199D02*
Y00227D01*
X01935Y02647D02*
X01963D01*
X01949Y02633D02*
Y02661D01*
X02555Y00831D02*
X02583D01*
X02569Y00817D02*
Y00845D01*
X01943Y00732D02*
X01971D01*
X01957Y00718D02*
Y00746D01*
X04476Y00951D02*
X04504D01*
X0449Y00937D02*
Y00965D01*
X01844Y02117D02*
X01872D01*
X01858Y02103D02*
Y02131D01*
X0298Y02592D02*
X03008D01*
X02994Y02578D02*
Y02606D01*
X03195Y01871D02*
X03223D01*
X03209Y01857D02*
Y01885D01*
X03479Y02476D02*
X03507D01*
X03493Y02462D02*
Y0249D01*
X01859Y02567D02*
X01887D01*
X01873Y02553D02*
Y02581D01*
X03791Y00894D02*
X03819D01*
X03805Y0088D02*
Y00908D01*
X05422Y00848D02*
X0545D01*
X05436Y00834D02*
Y00862D01*
X05613Y00527D02*
X05641D01*
X05627Y00513D02*
Y00541D01*
X00546Y01995D02*
X00574D01*
X0056Y01981D02*
Y02009D01*
X03741Y01181D02*
X03769D01*
X03755Y01167D02*
Y01195D01*
X03165Y02585D02*
X03193D01*
X03179Y02571D02*
Y02599D01*
X04077Y02587D02*
X04105D01*
X04091Y02573D02*
Y02601D01*
X04348Y01936D02*
X04376D01*
X04362Y01922D02*
Y0195D01*
X0513Y01866D02*
X05158D01*
X05144Y01852D02*
Y0188D01*
X04586Y0138D02*
X04614D01*
X046Y01366D02*
Y01394D01*
X04571Y02272D02*
X04599D01*
X04585Y02258D02*
Y02286D01*
X03242Y02189D02*
X0327D01*
X03256Y02175D02*
Y02203D01*
X05799Y01521D02*
X05827D01*
X05813Y01507D02*
Y01535D01*
X0455Y02719D02*
X04578D01*
X04564Y02705D02*
Y02733D01*
X02181Y02735D02*
X02209D01*
X02195Y02721D02*
Y02749D01*
X01174Y02752D02*
X01202D01*
X01188Y02738D02*
Y02766D01*
X02778Y01684D02*
X02806D01*
X02792Y0167D02*
Y01698D01*
X02537Y01112D02*
X02565D01*
X02551Y01098D02*
Y01126D01*
X01199Y01855D02*
X01227D01*
X01213Y01841D02*
Y01869D01*
X03623Y01824D02*
X03651D01*
X03637Y0181D02*
Y01838D01*
X0503Y00359D02*
X05058D01*
X05044Y00345D02*
Y00373D01*
X03017Y02112D02*
X03045D01*
X03031Y02098D02*
Y02126D01*
X02599Y02072D02*
X02627D01*
X02613Y02058D02*
Y02086D01*
X02513Y02057D02*
X02541D01*
X02527Y02043D02*
Y02071D01*
X02117Y02057D02*
X02145D01*
X02131Y02043D02*
Y02071D01*
X05344Y01582D02*
X05372D01*
X05358Y01568D02*
Y01596D01*
X0382Y01597D02*
X03848D01*
X03834Y01583D02*
Y01611D01*
X03753Y01426D02*
X03781D01*
X03767Y01412D02*
Y0144D01*
X02871Y02038D02*
X02899D01*
X02885Y02024D02*
Y02052D01*
X02529Y01044D02*
X02557D01*
X02543Y0103D02*
Y01058D01*
X02033Y02567D02*
X02061D01*
X02047Y02553D02*
Y02581D01*
X04775Y02527D02*
X04803D01*
X04789Y02513D02*
Y02541D01*
X05497Y02772D02*
X05525D01*
X05511Y02758D02*
Y02786D01*
X03723Y01955D02*
X03751D01*
X03737Y01941D02*
Y01969D01*
M02*