%FSTAX23Y23*%
%MOIN*%
%SFA1B1*%

%IPPOS*%
%AMD23*
4,1,8,0.012800,0.025600,-0.012800,0.025600,-0.025600,0.012800,-0.025600,-0.012800,-0.012800,-0.025600,0.012800,-0.025600,0.025600,-0.012800,0.025600,0.012800,0.012800,0.025600,0.0*
1,1,0.025590,0.012800,0.012800*
1,1,0.025590,-0.012800,0.012800*
1,1,0.025590,-0.012800,-0.012800*
1,1,0.025590,0.012800,-0.012800*
%
%AMD25*
4,1,8,0.010000,0.020000,-0.010000,0.020000,-0.020000,0.010000,-0.020000,-0.010000,-0.010000,-0.020000,0.010000,-0.020000,0.020000,-0.010000,0.020000,0.010000,0.010000,0.020000,0.0*
1,1,0.020000,0.010000,0.010000*
1,1,0.020000,-0.010000,0.010000*
1,1,0.020000,-0.010000,-0.010000*
1,1,0.020000,0.010000,-0.010000*
%
%AMD27*
4,1,8,0.013800,0.027600,-0.013800,0.027600,-0.027600,0.013800,-0.027600,-0.013800,-0.013800,-0.027600,0.013800,-0.027600,0.027600,-0.013800,0.027600,0.013800,0.013800,0.027600,0.0*
1,1,0.027560,0.013800,0.013800*
1,1,0.027560,-0.013800,0.013800*
1,1,0.027560,-0.013800,-0.013800*
1,1,0.027560,0.013800,-0.013800*
%
%AMD34*
4,1,8,0.038400,-0.019200,0.038400,0.019200,0.019200,0.038400,-0.019200,0.038400,-0.038400,0.019200,-0.038400,-0.019200,-0.019200,-0.038400,0.019200,-0.038400,0.038400,-0.019200,0.0*
1,1,0.038386,0.019200,-0.019200*
1,1,0.038386,0.019200,0.019200*
1,1,0.038386,-0.019200,0.019200*
1,1,0.038386,-0.019200,-0.019200*
%
%ADD10R,0.037402X0.057087*%
%ADD11R,0.032677X0.054724*%
%ADD12R,0.054724X0.032677*%
%ADD13R,0.057087X0.037402*%
%ADD14C,0.010000*%
%ADD15C,0.052000*%
%ADD16C,0.200000*%
%ADD17C,0.048740*%
%ADD18R,0.048740X0.048740*%
%ADD19R,0.048740X0.048740*%
%ADD20R,0.060236X0.060236*%
%ADD21C,0.060236*%
%ADD22C,0.051181*%
G04~CAMADD=23~8~0.0~0.0~511.8~511.8~128.0~0.0~15~0.0~0.0~0.0~0.0~0~0.0~0.0~0.0~0.0~0~0.0~0.0~0.0~0.0~511.8~511.8*
%ADD23D23*%
%ADD24C,0.040000*%
G04~CAMADD=25~8~0.0~0.0~400.0~400.0~100.0~0.0~15~0.0~0.0~0.0~0.0~0~0.0~0.0~0.0~0.0~0~0.0~0.0~0.0~0.0~400.0~400.0*
%ADD25D25*%
%ADD26C,0.055118*%
G04~CAMADD=27~8~0.0~0.0~551.2~551.2~137.8~0.0~15~0.0~0.0~0.0~0.0~0~0.0~0.0~0.0~0.0~0~0.0~0.0~0.0~0.0~551.2~551.2*
%ADD27D27*%
%ADD28R,0.044488X0.044488*%
%ADD29C,0.044488*%
%ADD30C,0.046457*%
%ADD31R,0.046457X0.046457*%
%ADD32R,0.070000X0.070000*%
%ADD33C,0.070000*%
G04~CAMADD=34~8~0.0~0.0~767.7~767.7~191.9~0.0~15~0.0~0.0~0.0~0.0~0~0.0~0.0~0.0~0.0~0~0.0~0.0~0.0~270.0~768.0~768.0*
%ADD34D34*%
%ADD35C,0.076772*%
%ADD36R,0.048110X0.048110*%
%ADD37C,0.048110*%
%ADD38O,0.050000X0.100000*%
%ADD39O,0.112000X0.056000*%
%ADD40C,0.062992*%
%ADD41C,0.050000*%
%LNmb_spectrumanalyzer_copper_signal_top-1*%
%LPD*%
G54D10*
X03225Y01294D03*
X03304D03*
X01485Y01042D03*
X01406D03*
X02079Y00261D03*
X02D03*
X023D03*
X02379D03*
X01221D03*
X013D03*
X023Y00113D03*
X02379D03*
X02229Y00111D03*
X0215D03*
X02D03*
X02079D03*
X02045Y00926D03*
X01966D03*
X02104Y01169D03*
X02025D03*
X02104Y01042D03*
X02025D03*
X02104Y01294D03*
X02025D03*
X02253D03*
X02174D03*
Y01169D03*
X02253D03*
X0144Y00119D03*
X01519D03*
X01488Y00545D03*
X01409D03*
X01599D03*
X01678D03*
X01599Y00673D03*
X01678D03*
Y00801D03*
X01599D03*
X01553Y01169D03*
X01632D03*
X01406Y01294D03*
X01485D03*
X0076Y01272D03*
X00839D03*
X01566Y01735D03*
X01487D03*
X02012Y02129D03*
X02091D03*
X01411D03*
X0149D03*
X01411Y02248D03*
X0149D03*
X00953D03*
X01032D03*
X00953Y02129D03*
X01032D03*
X02612D03*
X02691D03*
X03223Y02248D03*
X03302D03*
X02691D03*
X02612D03*
X02242Y02129D03*
X02163D03*
Y02248D03*
X02242D03*
X02163Y02364D03*
X02242D03*
X02612D03*
X02691D03*
X0285Y02129D03*
X02771D03*
X0285Y02248D03*
X02771D03*
X00686Y01651D03*
X00607D03*
X00839Y01774D03*
X0076D03*
X00839Y01896D03*
X0076D03*
X00847Y01664D03*
X00926D03*
X00961Y01169D03*
X0104D03*
X0345Y0117D03*
X03371D03*
X03304D03*
X03225D03*
X02229Y00261D03*
X0215D03*
X01285Y00119D03*
X01364D03*
X01406Y01169D03*
X01485D03*
X0076Y02019D03*
X00839D03*
X00687Y01897D03*
X00608D03*
X01131Y00119D03*
X0121D03*
X00976D03*
X01055D03*
X00927Y01531D03*
X00848D03*
Y01397D03*
X00927D03*
X00179Y02155D03*
X00258D03*
Y0202D03*
X00179D03*
X00258Y02303D03*
X00179D03*
X02856Y01294D03*
X02777D03*
X02706Y01042D03*
X02627D03*
X02777Y0117D03*
X02856D03*
X02627Y01168D03*
X02706D03*
X02627Y01294D03*
X02706D03*
X01632D03*
X01553D03*
X02045Y00801D03*
X01966D03*
Y00673D03*
X02045D03*
G54D11*
X02313Y01013D03*
X0238D03*
X02073Y01416D03*
X0214D03*
X02239Y01044D03*
X02172D03*
X01613Y00928D03*
X0168D03*
X01618Y01044D03*
X01551D03*
X01631Y02128D03*
X01564D03*
X0201Y02362D03*
X02077D03*
Y02246D03*
X0201D03*
X01631D03*
X01564D03*
X02836Y02362D03*
X02769D03*
X03221Y02124D03*
X03288D03*
X0033Y0159D03*
X00397D03*
X00975Y01296D03*
X01042D03*
X0279Y01044D03*
X02858D03*
X00622Y02016D03*
X00689D03*
X00624Y01771D03*
X00691D03*
X01042Y01044D03*
X00975D03*
G54D12*
X00769Y01444D03*
Y01377D03*
X0047Y00899D03*
Y00832D03*
G54D13*
X0077Y01545D03*
Y01624D03*
X00727Y00818D03*
Y00897D03*
X00599Y00818D03*
Y00897D03*
X00855D03*
Y00818D03*
G54D14*
X01031Y00022D02*
X04003D01*
X01085Y0004D02*
X01633D01*
X01656Y00062*
X01055Y00069D02*
X01085Y0004D01*
X01023Y00155D02*
X01034Y00166D01*
X01023Y0003D02*
Y00155D01*
X01034Y00166D02*
X01148D01*
X01152Y00161*
X01155D02*
X01162Y00153D01*
X01162Y0008D02*
Y00151D01*
X01162Y00151D02*
X01162Y00151D01*
X01162Y00151D02*
Y00153D01*
X01152Y00161D02*
X01155D01*
X01055Y00111D02*
X01131D01*
X01184Y00058D02*
X01605D01*
X01633Y00086*
X01162Y0008D02*
X01184Y00058D01*
X01582Y00101D02*
Y00112D01*
X0144Y00111D02*
X01453Y00099D01*
X0131Y00078D02*
X01318Y00085D01*
X01453Y00084D02*
Y00099D01*
X01252Y00085D02*
X01259Y00078D01*
X0131*
X01559Y00078D02*
X01582Y00101D01*
X01459Y00078D02*
X01559D01*
X01453Y00084D02*
X01459Y00078D01*
X01318Y00085D02*
Y00209D01*
X01252Y00085D02*
Y00157D01*
X04003Y00022D02*
X04012Y0003D01*
X01023D02*
X01031Y00022D01*
X04012Y0003D02*
Y00118D01*
X03727Y00082D02*
X03734Y0009D01*
X03689D02*
X03696Y00082D01*
X02768Y00077D02*
X02784Y00093D01*
X03509Y00098D02*
X03542Y00064D01*
X02288Y00059D02*
X02754D01*
X02275Y00072D02*
X02288Y00059D01*
X03735Y0004D02*
X03749Y00054D01*
X03696Y00082D02*
X03727D01*
X02282Y0004D02*
X03735D01*
X02754Y00059D02*
X02768Y00073D01*
X02268Y00054D02*
X02282Y0004D01*
X02768Y00073D02*
Y00077D01*
X03542Y00064D02*
X03734D01*
X03742Y00072*
X02424Y00113D02*
X02448Y00137D01*
X02527*
X02551Y00113*
X02379D02*
X02424D01*
X02784Y00093D02*
X02788D01*
X03667Y02975D02*
X04456D01*
X04457Y02975*
X04057Y02897D02*
X04064Y02903D01*
X0374D02*
X03775Y02868D01*
X04427Y02903D02*
X04427Y02903D01*
X03696Y02903D02*
X0374D01*
X03696Y02903D02*
X03696Y02903D01*
X03757Y02921D02*
X03812Y02867D01*
X04441Y02939D02*
X04442Y02939D01*
X04054Y02921D02*
X04434D01*
X00972Y02975D02*
X03666D01*
X03688Y02921D02*
X03689Y02921D01*
X04457Y02975D02*
X04837D01*
X03674Y02957D02*
X04449D01*
X04064Y02903D02*
X04427D01*
X04449Y02957D02*
X0445Y02957D01*
X00865Y02867D02*
X00972Y02975D01*
X03666D02*
X03667Y02975D01*
X04434Y02921D02*
X04435Y02921D01*
X03673Y02957D02*
X03674Y02957D01*
X03689Y02921D02*
X03757D01*
X04039Y02906D02*
X04054Y02921D01*
X03682Y02939D02*
X04441D01*
X04837Y02975D02*
X05119Y02693D01*
X03681Y02939D02*
X03682Y02939D01*
X01903Y02957D02*
X03673D01*
X0445D02*
X04561D01*
X04825Y02693*
X01868Y02921D02*
X01903Y02957D01*
X03277Y0292D02*
X03329Y02867D01*
X03213Y0292D02*
X03277D01*
X03612Y02921D02*
X03688D01*
X04435D02*
X04479D01*
X04526Y02874*
X04427Y02903D02*
X04472D01*
X03688D02*
X03696D01*
X03675Y0289D02*
X03688Y02903D01*
X04472D02*
X04508Y02867D01*
X04057Y02845D02*
Y02897D01*
X04497Y02939D02*
X0476Y02676D01*
X02901Y02939D02*
X03681D01*
X04442D02*
X04497D01*
X02829Y02867D02*
X02901Y02939D01*
X03193Y029D02*
X03213Y0292D01*
X03557Y02866D02*
X03612Y02921D01*
X04546Y02592D02*
Y02681D01*
X04679Y02453D02*
X04813Y0232D01*
X0452Y02593D02*
Y0265D01*
X04606Y0249D02*
X04784Y02312D01*
X04412Y02622D02*
X04484Y0255D01*
X04542Y02431D02*
Y02546D01*
X04481Y02607D02*
X04542Y02546D01*
X04412Y02622D02*
Y02867D01*
X04606Y0249D02*
Y02506D01*
X04546Y02592D02*
X04679Y02458D01*
X04484Y02099D02*
Y0255D01*
X04813Y0232D02*
X04863D01*
X0452Y02593D02*
X04606Y02506D01*
X04679Y02453D02*
Y02458D01*
X04508Y02663D02*
X0452Y0265D01*
X04535Y02424D02*
X04542Y02431D01*
X04535Y02424D02*
X04536Y02423D01*
Y02226D02*
Y02423D01*
Y02226D02*
X04612Y02149D01*
X04626*
X04625Y02176D02*
X04803Y01998D01*
X04625Y02176D02*
Y02194D01*
X04626Y02149D02*
X04739Y02037D01*
X04466Y02015D02*
X04589Y01893D01*
X04484Y02099D02*
X04607Y01976D01*
X04466Y02015D02*
Y02315D01*
X04448Y01965D02*
Y02291D01*
X04388Y02393D02*
X04466Y02315D01*
X04448Y01965D02*
X04571Y01843D01*
X04429Y02311D02*
X04448Y02291D01*
X04312Y02867D02*
X04353Y02826D01*
Y02594D02*
Y02826D01*
X04848Y02241D02*
X04947Y02143D01*
X04807Y02241D02*
X04848D01*
X04784Y02264D02*
Y02312D01*
Y02264D02*
X04807Y02241D01*
X04947Y02143D02*
X05244D01*
X01691Y02287D02*
X01713Y0231D01*
Y02324D02*
X01728Y02339D01*
X01691Y02277D02*
Y02287D01*
X01713Y0231D02*
Y02324D01*
X04002Y01963D02*
X04048Y01916D01*
X04002Y01963D02*
Y0197D01*
X01633Y00086D02*
Y00118D01*
X0158Y00171D02*
X01633Y00118D01*
X03232Y01097D02*
X03273D01*
X03304Y01128D02*
Y0117D01*
X03273Y01097D02*
X03304Y01128D01*
X03188Y01141D02*
X03232Y01097D01*
X03339Y01205D02*
X0335Y01216D01*
X03436*
X0345Y01201*
X0325Y01235D02*
X03641D01*
X0328Y01253D02*
X03386D01*
X03675Y01542*
X03225Y0126D02*
X0325Y01235D01*
X03641D02*
X03712Y01305D01*
X0326Y01273D02*
X0328Y01253D01*
X0345Y0117D02*
Y01201D01*
X03339Y01136D02*
Y01205D01*
X03312Y01053D02*
X03341Y01082D01*
Y01135*
X03339Y01136D02*
X03341Y01135D01*
X03242Y01053D02*
X03312D01*
X03162Y01133D02*
X03242Y01053D01*
X01519Y00111D02*
Y00159D01*
X01538Y00178*
Y00189*
X0158Y00171D02*
Y0021D01*
X05331Y00859D02*
Y01079D01*
X05323Y0085D02*
X05331Y00859D01*
X05323Y0064D02*
Y0085D01*
X03465Y01839D02*
X03482Y01822D01*
Y01776D02*
Y01822D01*
X03465Y01839D02*
Y01875D01*
X03467Y02105D02*
Y02164D01*
Y02105D02*
X0348Y02092D01*
X03583Y01994D02*
Y01996D01*
X0348Y02023D02*
Y02092D01*
X03524Y02013D02*
Y02098D01*
X0338Y01974D02*
X03485D01*
X03524Y02013*
X03545Y02119D02*
Y02124D01*
X03524Y02098D02*
X03545Y02119D01*
X03376Y02055D02*
Y02224D01*
X03404Y0202D02*
Y02027D01*
X03376Y02055D02*
X03404Y02027D01*
X02251Y01101D02*
X02304Y01154D01*
X02239Y01044D02*
X02251Y01055D01*
Y01101*
X02304Y01154D02*
Y0123D01*
X01326Y01585D02*
Y0188D01*
Y01585D02*
X01331Y0158D01*
X01273D02*
X01328Y01525D01*
X01273Y0158D02*
Y0212D01*
X01328Y01525D02*
X01379D01*
X02587Y01228D02*
Y01236D01*
X02601Y0125*
X02566Y01206D02*
X02587Y01228D01*
X02563Y01196D02*
X02566D01*
X02462Y01169D02*
X02536D01*
X02566Y01196D02*
Y01206D01*
X02536Y01169D02*
X02563Y01196D01*
X01961Y02194D02*
Y02433D01*
X01993Y02465*
X01899Y02304D02*
X01914D01*
X0192Y02174D02*
Y02298D01*
X01914Y02304D02*
X0192Y02298D01*
Y02174D02*
X01945Y02149D01*
X01371Y0069D02*
X01378Y00683D01*
Y00576D02*
Y00683D01*
X01749Y02339D02*
X01783Y02373D01*
X01728Y02339D02*
X01749D01*
X01602Y02296D02*
X0165Y02344D01*
X01602Y02206D02*
Y02296D01*
X01733Y02297D02*
X01802Y02366D01*
Y02572*
X01783Y02373D02*
Y02803D01*
X01733Y02171D02*
Y02297D01*
X02714Y00544D02*
X02717Y00547D01*
X02752Y00677D02*
X02829Y00754D01*
X02752Y00528D02*
Y00677D01*
X02717Y00547D02*
Y00854D01*
X02724Y005D02*
X02752Y00528D01*
X02724Y00437D02*
Y005D01*
X02717Y00854D02*
X02791Y00928D01*
X01733Y02171D02*
X01784Y0212D01*
X03762Y0012D02*
X03857Y00214D01*
Y01244*
X03675Y00103D02*
Y00136D01*
X03656Y00156D02*
X03675Y00136D01*
X02851Y00156D02*
X03656D01*
X03188Y01141D02*
Y01321D01*
X03204Y01337D02*
X0325D01*
X03188Y01321D02*
X03193Y01326D01*
Y01328D02*
X03201Y01336D01*
X03203*
X03193Y01326D02*
Y01328D01*
X03203Y01336D02*
X03204Y01337D01*
X0326Y01355D02*
X03287Y01328D01*
X03162Y01332D02*
X03185Y01355D01*
X03162Y01133D02*
Y01332D01*
X0258Y02651D02*
X03026D01*
X02493Y02738D02*
Y02889D01*
Y02738D02*
X0258Y02651D01*
X03185Y01355D02*
X0326D01*
X02584Y01323D02*
X02608D01*
X02627Y01294D02*
Y01304D01*
X02608Y01323D02*
X02627Y01304D01*
X02578Y0133D02*
X02584Y01323D01*
X02764Y01193D02*
X02777D01*
X02764Y01193D02*
Y01205D01*
X02673Y0114D02*
Y01201D01*
X02764Y01193D02*
X02764Y01193D01*
X02758Y01211D02*
X02764Y01205D01*
X02682Y01211D02*
X02758D01*
X02673Y01201D02*
X02682Y01211D01*
X01083Y00273D02*
X0121Y00146D01*
Y00111D02*
Y00146D01*
X03742Y00072D02*
X03927D01*
X02229Y00102D02*
X02259Y00072D01*
X02275*
X02229Y00102D02*
Y00111D01*
X03675Y00103D02*
X03689Y0009D01*
X03961Y00054D02*
X03975Y00068D01*
X02026Y00054D02*
X02268D01*
X03927Y00072D02*
X03949Y00094D01*
X03734Y0009D02*
X03762Y00117D01*
X03749Y00054D02*
X03961D01*
X02Y0008D02*
X02026Y00054D01*
X02551Y00113D02*
X02562D01*
X02379Y00226D02*
X0244Y00166D01*
X02485D02*
X02505Y00186D01*
X0244Y00166D02*
X02485D01*
X04178Y00034D02*
X04263Y00118D01*
X0408Y00034D02*
X04178D01*
X04263Y00118D02*
X04312D01*
X01952Y00239D02*
Y00376D01*
X01972Y00219D02*
X02025D01*
X01952Y00239D02*
X01972Y00219D01*
X01905Y00224D02*
Y00371D01*
X01942Y00187D02*
X02046D01*
X01905Y00224D02*
X01942Y00187D01*
X0182Y00456D02*
X01905Y00371D01*
X02118Y00154D02*
X0213D01*
X02079Y00122D02*
X0209Y00132D01*
X02107D02*
X02113Y00138D01*
Y00148D02*
X02118Y00154D01*
X0209Y00132D02*
X02107D01*
X02113Y00138D02*
Y00148D01*
X02174Y00302D02*
X02182Y00294D01*
Y00294D02*
Y00294D01*
X02174Y00302D02*
X02174D01*
X02183Y00207D02*
Y00294D01*
X02066Y00316D02*
X02161D01*
X02174Y00302*
X02182Y00294D02*
X02183Y00294D01*
X02046Y0024D02*
Y00296D01*
X02066Y00316*
X02039Y00339D02*
X0219D01*
X02229Y003*
X02D02*
X02039Y00339D01*
X02788Y00093D02*
X02851Y00156D01*
X03762Y00117D02*
Y0012D01*
X015Y00321D02*
Y00523D01*
X01505Y00284D02*
Y00315D01*
X01488Y00535D02*
X015Y00523D01*
Y00321D02*
X01505Y00315D01*
Y00284D02*
X0158Y0021D01*
X01488Y00535D02*
Y00673D01*
X01478Y00821D02*
X01494D01*
X01584Y00911*
X01473Y00826D02*
Y00933D01*
Y00826D02*
X01478Y00821D01*
X01641Y00969D02*
X01647Y00963D01*
X0164Y01001D02*
X01669Y00971D01*
Y00939D02*
Y00971D01*
X01647Y00896D02*
X01656Y00887D01*
X01535Y00969D02*
X01641D01*
X01647Y00896D02*
Y00963D01*
X01669Y00939D02*
X0168Y00928D01*
X01606Y01255D02*
X01608Y01253D01*
X01656D02*
X01664Y0126D01*
X01608Y01253D02*
X01656D01*
X01598Y01255D02*
X01606D01*
X01664Y0126D02*
Y01331D01*
X01587Y01266D02*
X01598Y01255D01*
X01643Y012D02*
X01682Y01238D01*
X01652Y01343D02*
X01664Y01331D01*
X0167Y01394D02*
X01682Y01382D01*
Y01238D02*
Y01382D01*
X01587Y01266D02*
Y01328D01*
X01572Y01343D02*
X01587Y01328D01*
X01498Y01343D02*
X01572D01*
X01485Y01169D02*
Y01294D01*
X01488Y01297*
Y01332*
X01498Y01343*
X01521Y01389D02*
X01566Y01434D01*
X02242Y02076D02*
Y02129D01*
Y02043D02*
Y02076D01*
X0076Y01886D02*
X0078D01*
X00872Y00897D02*
Y01064D01*
X00397Y01453D02*
Y01478D01*
Y01432D02*
Y01453D01*
Y01478D02*
Y0159D01*
X03225Y0126D02*
Y01294D01*
X01945Y02149D02*
X02012D01*
X06038Y0015D02*
Y00852D01*
X01966Y00777D02*
X01995D01*
X02Y003D02*
Y00396D01*
X00763Y02046D02*
X00798Y0208D01*
X0076Y02043D02*
X00763Y02046D01*
X00179Y02026D02*
X002D01*
X01599Y00673D02*
Y0072D01*
X01409Y00357D02*
X01446Y0032D01*
X01221Y003D02*
Y00318D01*
X01069Y00641D02*
X0108Y00652D01*
X01012Y00584D02*
X01069Y00641D01*
X00998Y0057D02*
X01012Y00584D01*
X00998Y00402D02*
Y0057D01*
Y00332D02*
Y00402D01*
X0076Y01742D02*
Y01774D01*
Y01689D02*
Y01742D01*
X01271Y0229D02*
X01444D01*
X00668Y01995D02*
X00689D01*
X01553Y01249D02*
X01586Y01217D01*
Y01121D02*
Y01217D01*
Y01001D02*
Y01121D01*
X01551Y01087D02*
X01586Y01121D01*
X01618Y01025D02*
X01669D01*
X01506Y0094D02*
Y00961D01*
Y00901D02*
Y0094D01*
X01584Y00911D02*
X01613D01*
X01662Y0216D02*
Y02225D01*
Y02073D02*
Y0216D01*
X01631Y02237D02*
X0165D01*
X02104Y01138D02*
X02118D01*
X01993Y01042D02*
X02025D01*
X0224Y02249D02*
X02317Y02326D01*
X02185Y02304D02*
X0224Y02249D01*
X0268Y01291D02*
X02706D01*
X0276Y01055D02*
X0279D01*
X02791Y01537D02*
X0281Y01556D01*
X03288Y01722D02*
Y021D01*
X03036Y02312D02*
X03038D01*
X02771Y02094D02*
Y02129D01*
Y02094D02*
Y02094D01*
X02628Y02083D02*
X02628Y02082D01*
X02612Y02098D02*
X02628Y02083D01*
X0276*
X02624D02*
X02628D01*
X02804Y02175D02*
X02834Y02206D01*
X00864Y00581D02*
Y00818D01*
X00609Y00897D02*
Y0092D01*
Y00897D02*
X0063D01*
X00626Y0074D02*
X00641D01*
X01046Y01542D02*
X01066D01*
X00848Y01495D02*
Y01502D01*
X01286Y02216D02*
X01411D01*
X01032D02*
X01286D01*
X02174Y01159D02*
X02202D01*
X02527Y02057D02*
X02556Y02027D01*
X02587Y01441D02*
X02641D01*
X02556Y02027D02*
Y02262D01*
X02617Y022D02*
X0265Y02167D01*
X02612Y02205D02*
X02617Y022D01*
X00749Y016D02*
Y01624D01*
X00258Y02181D02*
X0039D01*
X03287Y01294D02*
Y01328D01*
X008Y00897D02*
X00819D01*
X00795Y00782D02*
X008Y00897D01*
X00782Y00768D02*
X00795Y00782D01*
X00782Y00549D02*
Y00768D01*
X00726Y00493D02*
X00782Y00549D01*
X00726Y00424D02*
Y00493D01*
X00397Y01432D02*
X00615Y01214D01*
Y0115D02*
Y01214D01*
Y0115D02*
X00819Y00945D01*
Y00897D02*
Y00945D01*
Y00897D02*
X00855D01*
X00522Y0206D02*
X00559D01*
X00574Y02075*
X00735*
X00763Y02046*
X0076Y02019D02*
X00763Y02046D01*
X00399Y02259D02*
Y02427D01*
X00465Y02492*
X00258Y02303D02*
Y02741D01*
X0015Y0285D02*
X00258Y02741D01*
X00302Y02259D02*
X00399D01*
X00258Y02303D02*
X00302Y02259D01*
X00224Y00979D02*
X00297Y01052D01*
Y01155*
X00224Y01228D02*
X00297Y01155D01*
X00236Y00793D02*
X00287Y00845D01*
X00236Y00628D02*
Y00793D01*
Y00628D02*
X00287Y00577D01*
X00224Y00909D02*
Y00979D01*
Y00909D02*
X00287Y00845D01*
X00224Y01228D02*
Y01405D01*
X00287Y01468*
X0033Y01511D02*
Y0159D01*
X00287Y01468D02*
X0033Y01511D01*
X00644Y01272D02*
X0076D01*
X00567Y01349D02*
X00644Y01272D01*
X03712Y00712D02*
X03749Y00675D01*
Y00155D02*
Y00675D01*
X03712Y00118D02*
X03749Y00155D01*
X03712Y01305D02*
Y01474D01*
X03749Y01511*
Y01861*
X03712Y01898D02*
X03749Y01861D01*
X02253Y01169D02*
Y01213D01*
X02217Y01249D02*
X02253Y01213D01*
X02217Y01249D02*
Y01367D01*
X02274Y01425*
X02706Y00964D02*
Y01042D01*
X0268Y00938D02*
X02706Y00964D01*
X01967Y0043D02*
Y00456D01*
Y0043D02*
X02Y00396D01*
X02641Y00899D02*
X0268Y00938D01*
X02641Y00505D02*
Y00899D01*
Y00505D02*
X02691Y00456D01*
X0167Y01394D02*
Y01425D01*
X01632Y01169D02*
X01643Y012D01*
X0108Y00652D02*
X01142D01*
X01145Y00649*
Y00395D02*
Y00649D01*
Y00395D02*
X01221Y00318D01*
X0118Y00976D02*
X01218Y00938D01*
X0108Y00976D02*
X0118D01*
X01069Y00965D02*
X0108Y00976D01*
X01069Y00641D02*
Y00965D01*
X00976Y00111D02*
Y0031D01*
X00998Y00332*
X01409Y00357D02*
Y00545D01*
X00996Y00601D02*
X01012Y00584D01*
X00488Y00979D02*
X00533Y01024D01*
Y01183*
X00488Y01228D02*
X00533Y01183D01*
X00488Y00918D02*
Y00979D01*
X0047Y00899D02*
X00488Y00918D01*
X00975Y01296D02*
Y01434D01*
X00927Y01482D02*
X00975Y01434D01*
X00927Y01482D02*
Y01531D01*
X01087Y01216D02*
X01168D01*
X0104Y01169D02*
X01087Y01216D01*
X01042Y01011D02*
Y01044D01*
Y01011D02*
X01222D01*
X01273Y0096*
Y00505D02*
Y0096D01*
Y00505D02*
X01325Y00454D01*
X01107Y00361D02*
Y00611D01*
X01077Y00332D02*
X01107Y00361D01*
X01077Y00332D02*
X01252Y00157D01*
X013Y00226D02*
X01318Y00209D01*
X013Y00226D02*
Y00261D01*
X01222Y02171D02*
X01273Y0212D01*
X01Y02171D02*
X01222D01*
X01Y02101D02*
Y02171D01*
X0096Y02061D02*
X01Y02101D01*
X00806Y02061D02*
X0096D01*
X00806Y01989D02*
Y02061D01*
X00757Y0194D02*
X00806Y01989D01*
X00697Y0194D02*
X00757D01*
X00687Y0193D02*
X00697Y0194D01*
X00687Y01897D02*
Y0193D01*
X00288Y0205D02*
X00406D01*
X00258Y0202D02*
X00288Y0205D01*
X0167Y01625D02*
X01706D01*
Y01799*
X01673Y01832D02*
X01706Y01799D01*
X01673Y01832D02*
Y0196D01*
X01622Y02011D02*
X01673Y0196D01*
X016Y02011D02*
X01622D01*
X01534Y01945D02*
X016Y02011D01*
X01534Y01644D02*
Y01945D01*
X01452Y01562D02*
X01534Y01644D01*
X01452Y01265D02*
Y01562D01*
X01398Y01211D02*
X01452Y01265D01*
X01374Y01211D02*
X01398D01*
X01374Y01133D02*
Y01211D01*
Y01133D02*
X01406Y011D01*
Y01042D02*
Y011D01*
X01631Y02237D02*
Y02246D01*
X01662Y0216D02*
X01766Y02056D01*
Y01536D02*
Y02056D01*
X01755Y01525D02*
X01766Y01536D01*
X01631Y02128D02*
Y02176D01*
X01602Y02206D02*
X01631Y02176D01*
X01411Y021D02*
Y02129D01*
Y021D02*
X01437Y02074D01*
X01605*
X01631Y021*
Y02128*
X01304Y00903D02*
X01329Y00928D01*
X01304Y00639D02*
Y00903D01*
X01291Y00626D02*
X01304Y00639D01*
X01291Y0058D02*
Y00626D01*
Y0058D02*
X01307Y00564D01*
X01366*
X01378Y00576*
X01776Y0226D02*
X01802Y02234D01*
Y02046D02*
Y02234D01*
Y02046D02*
X01811Y02037D01*
Y01254D02*
Y02037D01*
Y01254D02*
X01821Y01243D01*
Y00583D02*
Y01243D01*
X01787Y00549D02*
X01821Y00583D01*
X01787Y00283D02*
Y00549D01*
Y00283D02*
X01856Y00214D01*
X01565Y003D02*
Y0058D01*
X01616Y00631*
X01632*
Y00702*
X01678Y00749*
Y00801*
X02471Y01741D02*
X02587Y01625D01*
X02471Y01741D02*
Y02106D01*
X02477Y02265*
X0245D02*
X02477D01*
X02438Y02277D02*
X0245Y02265D01*
X02438Y02277D02*
Y023D01*
X02411Y02326D02*
X02438Y023D01*
X02317Y02326D02*
X02411D01*
X0224Y02249D02*
X02242Y02248D01*
X02188Y0063D02*
Y00818D01*
X02929Y02198D02*
Y02492D01*
Y02198D02*
X02975Y02153D01*
Y02056D02*
Y02153D01*
Y02056D02*
X03019Y02012D01*
Y01488D02*
Y02012D01*
X02909Y01378D02*
X03019Y01488D01*
X02909Y00989D02*
Y01378D01*
X02903Y00984D02*
X02909Y00989D01*
X02846Y00984D02*
X02903D01*
X02791Y00928D02*
X02846Y00984D01*
X02313Y01013D02*
Y01052D01*
X02433Y01172*
Y01262*
X02539Y01368*
X0278*
X02791Y01379*
Y01537*
X02941Y01724D02*
X02981Y01684D01*
X02941Y01724D02*
Y01823D01*
X02885Y01879D02*
X02941Y01823D01*
X02885Y01879D02*
Y01984D01*
X02923Y02022*
Y02107*
X02896Y02134D02*
X02923Y02107D01*
X02896Y02134D02*
Y0228D01*
X02886Y0229D02*
X02896Y0228D01*
X02793Y0229D02*
X02886D01*
X02771Y02268D02*
X02793Y0229D01*
X02771Y02248D02*
Y02268D01*
X02902Y00428D02*
Y00601D01*
X02788Y00315D02*
X02902Y00428D01*
X03342Y00845D02*
Y0088D01*
X03138Y01084D02*
X03342Y0088D01*
X03138Y01084D02*
Y01739D01*
X03247Y01848*
Y019*
X03236Y01911D02*
X03247Y019D01*
X03098Y01911D02*
X03236D01*
X03049Y0196D02*
X03098Y01911D01*
X03049Y0196D02*
Y02018D01*
X02993Y02074D02*
X03049Y02018D01*
X02993Y02074D02*
Y02257D01*
X02981Y02269D02*
X02993Y02257D01*
X04012Y02492D02*
Y02566D01*
X0393Y02648D02*
X04012Y02566D01*
X03675Y01542D02*
Y02648D01*
X0326Y01273D02*
Y01327D01*
X0325Y01337D02*
X0326Y01327D01*
X00729Y011D02*
Y01152D01*
X00797Y0122*
Y01349*
X00769Y01377D02*
X00797Y01349D01*
X01032Y02216D02*
Y02248D01*
X01286Y02216D02*
X01342Y0216D01*
Y0199D02*
Y0216D01*
Y0199D02*
X01359Y01972D01*
Y01913D02*
Y01972D01*
X01326Y0188D02*
X01359Y01913D01*
X01566Y01434D02*
Y01735D01*
X01411Y02216D02*
Y02248D01*
X02174Y01294D02*
Y01424D01*
X02274Y01525*
X02691Y02328D02*
Y02364D01*
X0268Y02317D02*
X02691Y02328D01*
X02611Y02317D02*
X0268D01*
X02556Y02262D02*
X02611Y02317D01*
X02556Y02027D02*
X02593Y01991D01*
Y01876D02*
Y01991D01*
Y01876D02*
X02659Y0181D01*
Y01459D02*
Y0181D01*
X02641Y01441D02*
X02659Y01459D01*
X02587Y01425D02*
Y01441D01*
X02777Y0117D02*
Y01193D01*
X0266Y01127D02*
X02673Y0114D01*
X02601Y01127D02*
X0266D01*
X02578Y0115D02*
X02601Y01127D01*
X02522Y0115D02*
X02578D01*
X02485Y01112D02*
X02522Y0115D01*
X02485Y0104D02*
Y01112D01*
Y0104D02*
X02519Y01006D01*
X02627*
Y01042*
X02716Y01445D02*
Y0196D01*
X02642Y02034D02*
X02716Y0196D01*
X02589Y02034D02*
X02642D01*
X02574Y02048D02*
X02589Y02034D01*
X02574Y02048D02*
Y02156D01*
X02617Y022*
X02612Y02248D02*
X02617Y022D01*
X00419Y01651D02*
X00607D01*
X00219Y01657D02*
X00419Y01651D01*
X00607Y01508D02*
Y01651D01*
Y01508D02*
X00667Y01449D01*
X00847Y01664D02*
Y017D01*
X0101Y01862*
Y0195*
X00676Y01567D02*
X00716D01*
X00749Y016*
Y01624D02*
X0077D01*
X02163Y02326D02*
Y02364D01*
Y02326D02*
X02211D01*
X02215Y02322*
X02275*
X02298Y02344*
X0249*
X02536Y02298*
Y02126D02*
Y02298D01*
X02489Y02079D02*
X02536Y02126D01*
X02489Y02034D02*
Y02079D01*
Y02034D02*
X02536Y01987D01*
Y01956D02*
Y01987D01*
X03575Y00315D02*
Y00675D01*
X03612Y00712*
X05323Y0064D02*
X05363Y006D01*
X05489*
X05599Y00489*
X05614*
X05705Y00398*
X05225Y006D02*
Y01177D01*
Y006D02*
X05268Y00557D01*
X054*
X05558Y00398*
X04521Y01065D02*
X04571Y01015D01*
X05003*
X05165Y00853*
Y0052D02*
Y00853D01*
Y0052D02*
X0524Y00445D01*
X05365*
X05411Y00398*
X04425Y00407D02*
X04525D01*
X04375Y00457D02*
X04425Y00407D01*
X04375Y00457D02*
Y01118D01*
X04369Y01124D02*
X04375Y01118D01*
X04149Y01124D02*
X04369D01*
X04112Y01087D02*
X04149Y01124D01*
X0508Y0294D02*
X05087Y02947D01*
X05453*
X05707Y02693*
X05413D02*
Y0287D01*
X05266Y02693D02*
X05293Y02719D01*
Y02909*
X01119Y02921D02*
X01868D01*
X01065Y02867D02*
X01119Y02921D01*
X01165Y02867D02*
X01329Y02703D01*
X05755Y02462D02*
Y02898D01*
Y02462D02*
X05852Y02365D01*
X01526Y02391D02*
X01583Y02448D01*
Y02831*
X01547Y02867D02*
X01583Y02831D01*
X01456Y02392D02*
X01495Y02353D01*
X01564*
X01611Y024*
Y02831*
X01647Y02867*
X01747Y02591D02*
Y02867D01*
X01696Y0254D02*
X01747Y02591D01*
X01783Y02803D02*
X01847Y02867D01*
X01993Y02465D02*
Y02821D01*
X01947Y02867D02*
X01993Y02821D01*
X01911Y02356D02*
X01923Y02344D01*
X01911Y02356D02*
Y02884D01*
X0193Y02903*
X02211*
X02247Y02867*
X03616Y01411D02*
X03693Y01488D01*
Y01661*
X03712Y0168*
X05168Y01538D02*
X05222Y01484D01*
Y01243D02*
Y01484D01*
Y01243D02*
X05411Y01054D01*
X04062Y01172D02*
Y0163D01*
X04012Y0168D02*
X04062Y0163D01*
X04212Y0168D02*
X04266Y01734D01*
X04409*
X04462Y01681*
Y0131D02*
Y01681D01*
Y0131D02*
X04559Y01213D01*
X04659*
X04758Y01114*
X04312Y0168D02*
X04349Y01643D01*
Y01274D02*
Y01643D01*
Y01274D02*
X04418Y01204D01*
X04539*
X04616Y01127*
X04663*
X04735Y01054*
X04823*
X04625D02*
X04677D01*
X04493Y01186D02*
X04625Y01054D01*
X04368Y01186D02*
X04493D01*
X04275Y0128D02*
X04368Y01186D01*
X04275Y0128D02*
Y01702D01*
X04289Y01716*
X04375*
X04412Y0168*
X02529Y02492D02*
X02612Y02575D01*
X02955*
X02983Y02546*
Y02478D02*
Y02546D01*
Y02478D02*
X03142Y0232D01*
Y02185D02*
Y0232D01*
Y02185D02*
X03162Y02165D01*
X03357Y01997D02*
X0338Y01974D01*
X03357Y01997D02*
Y02259D01*
X03366Y02269*
Y02511*
X03047Y02831D02*
X03366Y02511D01*
X02566Y02831D02*
X03047D01*
X02529Y02867D02*
X02566Y02831D01*
X0476Y02609D02*
Y02676D01*
Y02609D02*
X048Y02569D01*
X04845*
X0501Y02404*
Y02275D02*
Y02404D01*
Y02275D02*
X0508Y02205D01*
X05243*
X05411Y02037*
X02929Y02867D02*
X02965Y02903D01*
X03162*
X03175Y0289*
Y02817D02*
Y0289D01*
Y02817D02*
X0342Y02572D01*
Y02297D02*
Y02572D01*
Y02297D02*
X03477Y02241D01*
Y02199D02*
Y02241D01*
X03415Y02137D02*
X03477Y02199D01*
X03415Y02117D02*
Y02137D01*
X03376Y02224D02*
X03384Y02233D01*
Y02536*
X03053Y02867D02*
X03384Y02536D01*
X03029Y02867D02*
X03053D01*
X04931Y01998D02*
X0497Y02037D01*
X04803Y01998D02*
X04931D01*
X03402Y02247D02*
X0343Y0222D01*
X03402Y02247D02*
Y02553D01*
X03129Y02826D02*
X03402Y02553D01*
X03129Y02826D02*
Y02867D01*
X04142Y02343D02*
X04212Y02273D01*
X0412Y02343D02*
X04142D01*
X04075Y02298D02*
X0412Y02343D01*
X04075Y02122D02*
Y02298D01*
Y02122D02*
X04166Y0203D01*
Y01856D02*
Y0203D01*
Y01856D02*
X04233Y0179D01*
X04406*
X04514Y01682*
Y01403D02*
Y01682D01*
Y01403D02*
X0466Y01257D01*
X04846*
X0497Y01381*
X03569Y01793D02*
Y01925D01*
X03582Y01938*
X03617*
X03639Y0196*
Y02176*
X03575Y0224D02*
X03639Y02176D01*
X03575Y0224D02*
Y0283D01*
X03612Y02867*
X0381Y01751D02*
Y01816D01*
X03849Y01855*
Y0256*
X03675Y02734D02*
X03849Y0256D01*
X03675Y02734D02*
Y0289D01*
X03775Y02846D02*
Y02868D01*
Y02846D02*
X0379Y02831D01*
X03875*
X03912Y02867*
X04012D02*
X04039Y02894D01*
Y02906*
X04526Y02701D02*
Y02874D01*
Y02701D02*
X04546Y02681D01*
X04863Y0232D02*
X05014Y02169D01*
X05246*
X05372Y02043*
Y01914D02*
Y02043D01*
Y01914D02*
X054Y01886D01*
X05689*
X05745Y0183*
Y0168D02*
Y0183D01*
X05735Y0167D02*
X05745Y0168D01*
X05304Y0167D02*
X05735D01*
X05264Y01709D02*
X05304Y0167D01*
X04607Y01779D02*
X04677Y01709D01*
X04607Y01779D02*
Y01976D01*
X01038Y00273D02*
X01083D01*
X01726Y0072D02*
X01767Y00761D01*
X01726Y00509D02*
Y0072D01*
X01656Y00438D02*
X01726Y00509D01*
X01656Y00062D02*
Y00438D01*
X01055Y00069D02*
Y00111D01*
X00865Y0236D02*
Y02492D01*
X00824Y02319D02*
X00865Y0236D01*
X0048Y02319D02*
X00824D01*
X00449Y02288D02*
X0048Y02319D01*
X00449Y0224D02*
Y02288D01*
X0039Y02181D02*
X00449Y0224D01*
X00258Y02155D02*
Y02181D01*
X02147Y02492D02*
Y02546D01*
X02284Y02683*
Y0289*
X02252Y02921D02*
X02284Y0289D01*
X01922Y02921D02*
X02252D01*
X01887Y02886D02*
X01922Y02921D01*
X01887Y02657D02*
Y02886D01*
X01802Y02572D02*
X01887Y02657D01*
X01784Y01572D02*
Y0212D01*
Y01572D02*
X01793Y01563D01*
Y015D02*
Y01563D01*
X01734Y01441D02*
X01793Y015D01*
X01734Y01045D02*
Y01441D01*
Y01045D02*
X01803Y00976D01*
Y00904D02*
Y00976D01*
X01729Y0083D02*
X01803Y00904D01*
X01729Y00748D02*
Y0083D01*
X01678Y00698D02*
X01729Y00748D01*
X01678Y00673D02*
Y00698D01*
Y00512D02*
Y00545D01*
X01618Y00452D02*
X01678Y00512D01*
X01618Y00213D02*
Y00452D01*
X01949Y02494D02*
Y02647D01*
X01947Y02492D02*
X01949Y02494D01*
X02391Y00653D02*
X02569Y00831D01*
X02391Y0048D02*
Y00653D01*
X02334Y00423D02*
X02391Y0048D01*
X0201Y00423D02*
X02334D01*
X02Y00433D02*
X0201Y00423D01*
X02Y00433D02*
Y00544D01*
X02045Y00589*
Y00673*
X01966D02*
Y00722D01*
X01957Y00732D02*
X01966Y00722D01*
X04449Y00992D02*
X0449Y00951D01*
X04449Y00992D02*
Y0112D01*
X04426Y01143D02*
X04449Y0112D01*
X04374Y01143D02*
X04426D01*
X04212Y01305D02*
X04374Y01143D01*
X02079Y00111D02*
Y00122D01*
X0213Y00154D02*
X02183Y00207D01*
X02025Y00219D02*
X02046Y0024D01*
X01919Y00409D02*
X01952Y00376D01*
X01919Y00409D02*
Y01003D01*
X0194Y01024*
Y01287*
X01858Y01369D02*
X0194Y01287D01*
X01858Y01369D02*
Y02117D01*
X02994Y02592D02*
X03029Y02556D01*
Y02492D02*
Y02556D01*
X03079Y01741D02*
X03209Y01871D01*
X03079Y01508D02*
Y01741D01*
X02927Y01356D02*
X03079Y01508D01*
X02927Y0098D02*
Y01356D01*
X02913Y00966D02*
X02927Y0098D01*
X02865Y00966D02*
X02913D01*
X02829Y0093D02*
X02865Y00966D01*
X02829Y00754D02*
Y0093D01*
X0271Y00423D02*
X02724Y00437D01*
X02658Y00423D02*
X0271D01*
X02592Y00489D02*
X02658Y00423D01*
X02505Y00489D02*
X02592D01*
X02505Y00186D02*
Y00489D01*
X02379Y00226D02*
Y00261D01*
X023Y00147D02*
X02379Y00226D01*
X023Y00113D02*
Y00147D01*
X03304Y01294D02*
Y0133D01*
X03427Y01452*
Y01884*
X03543Y02*
Y02059*
X03583Y02099*
Y02145*
X03513Y02215D02*
X03583Y02145D01*
X03513Y02215D02*
Y02456D01*
X03493Y02476D02*
X03513Y02456D01*
X03287Y01294D02*
X03304D01*
X05999Y0228D02*
X06038Y02241D01*
Y01991D02*
Y02241D01*
X05999Y01952D02*
X06038Y01991D01*
X05117Y0228D02*
X05161Y02323D01*
Y02566*
X05119Y02608D02*
X05161Y02566D01*
X04677Y00641D02*
X04716Y0068D01*
Y0093*
X04677Y00969D02*
X04716Y0093D01*
X05999Y01624D02*
X06038Y01663D01*
Y01913*
X05999Y01952D02*
X06038Y01913D01*
X05999Y01296D02*
X06038Y01257D01*
Y01008D02*
Y01257D01*
X05999Y00969D02*
X06038Y01008D01*
X02012Y02129D02*
Y02149D01*
X01884Y02319D02*
X01899Y02304D01*
X01884Y02319D02*
Y02556D01*
X01873Y02567D02*
X01884Y02556D01*
X0008Y02303D02*
X00179D01*
X00037Y02346D02*
X0008Y02303D01*
X00037Y02346D02*
Y0292D01*
X0008Y02963*
X00595*
X00609Y02949*
Y0271D02*
Y02949D01*
Y0271D02*
X007Y02619D01*
X00938*
X01065Y02492*
X00406Y0205D02*
X00498Y02142D01*
Y02259*
X03612Y01087D02*
X03805Y00894D01*
X05436Y00848D02*
X05558Y00726D01*
X05411D02*
X0561Y00527D01*
X05627*
X01271Y02264D02*
Y0229D01*
X01444Y02208D02*
Y0229D01*
X01424Y02188D02*
X01444Y02208D01*
X01366Y02188D02*
X01424D01*
X0136Y02182D02*
X01366Y02188D01*
X0136Y02048D02*
Y02182D01*
Y02048D02*
X014Y02008D01*
X0144*
X01459Y0199*
Y01875D02*
Y0199D01*
X01344Y0176D02*
X01459Y01875D01*
X01344Y0166D02*
Y0176D01*
Y0166D02*
X01379Y01625D01*
X01622Y01482D02*
Y01949D01*
X01617Y01478D02*
X01622Y01482D01*
X01617Y01386D02*
Y01478D01*
Y01386D02*
X01632Y01371D01*
Y01294D02*
Y01371D01*
X01652Y01343D02*
Y0139D01*
X01635Y01406D02*
X01652Y0139D01*
X01635Y01406D02*
Y01444D01*
X0167Y01479*
Y01525*
X00357Y00178D02*
X00407Y00228D01*
X00624*
X0067Y00274*
Y00518*
X00726Y00574*
Y00724*
X00599Y00897D02*
X00609D01*
Y0092D02*
X00637Y00948D01*
X0075*
X00768Y0093*
Y0079D02*
Y0093D01*
X00764Y00786D02*
X00768Y0079D01*
X00764Y00557D02*
Y00786D01*
X00688Y00481D02*
X00764Y00557D01*
X00688Y00373D02*
Y00481D01*
Y00373D02*
X007Y00361D01*
X0075*
X00764Y00375*
Y00481*
X00864Y00581*
X00855Y00818D02*
X00864D01*
X02236Y00568D02*
X02287Y00517D01*
X02236Y00568D02*
Y00842D01*
X02222Y00857D02*
X02236Y00842D01*
X02036Y00857D02*
X02222D01*
X02013Y0088D02*
X02036Y00857D01*
X02013Y0088D02*
Y00982D01*
X01975Y0102D02*
X02013Y00982D01*
X01975Y0102D02*
Y0128D01*
X01913Y01342D02*
X01975Y0128D01*
X01913Y01342D02*
Y01524D01*
X0196Y01571*
X01989*
X02018Y016*
Y0164*
X01991Y01667D02*
X02018Y0164D01*
X01971Y01667D02*
X01991D01*
X01948Y0169D02*
X01971Y01667D01*
X01948Y0169D02*
Y01788D01*
X02196Y02036*
Y02164*
X02203Y02171*
X02282*
X02377Y02265*
X0165Y02237D02*
X01662Y02225D01*
X0164Y02051D02*
X01662Y02073D01*
X014Y02051D02*
X0164D01*
X01379Y02072D02*
X014Y02051D01*
X01379Y02072D02*
Y0217D01*
X0148*
X0149Y0216*
Y02129D02*
Y0216D01*
X0056Y01995D02*
X00592Y02027D01*
Y02057*
X0066*
X00689Y02028*
Y02016D02*
Y02028D01*
X00624Y01737D02*
Y01771D01*
Y01737D02*
X0064Y01722D01*
X0074*
X0076Y01742*
X00953Y02212D02*
Y02248D01*
X00822Y0208D02*
X00953Y02212D01*
X00798Y0208D02*
X00822D01*
X0076Y02019D02*
Y02043D01*
X0047Y00656D02*
Y00832D01*
Y00656D02*
X0052Y00606D01*
X006*
X00673Y00679*
Y0088*
X0069Y00897*
X00727*
X00953Y02248D02*
Y02295D01*
X01Y02342*
X01102*
X01298Y02538*
X01501*
X01547Y02492*
X01966Y00777D02*
Y00801D01*
X01995Y00777D02*
X02003Y00769D01*
Y00597D02*
Y00769D01*
X01967Y00561D02*
X02003Y00597D01*
X01967Y00456D02*
Y00561D01*
X02033Y00456D02*
X02294D01*
X02326Y00488*
Y00685*
X02569Y00928*
X04112Y02492D02*
X04129Y02509D01*
Y0261*
X04114Y02625D02*
X04129Y0261D01*
X04074Y02625D02*
X04114D01*
X04049Y026D02*
X04074Y02625D01*
X04049Y02438D02*
Y026D01*
X03975Y02364D02*
X04049Y02438D01*
X03975Y02079D02*
Y02364D01*
X03944Y02048D02*
X03975Y02079D01*
X03944Y01925D02*
Y02048D01*
Y01925D02*
X0395Y01919D01*
Y01865D02*
Y01919D01*
X03901Y01816D02*
X0395Y01865D01*
X03901Y01791D02*
Y01816D01*
X03875Y01765D02*
X03901Y01791D01*
X03875Y01377D02*
Y01765D01*
X03857Y01359D02*
X03875Y01377D01*
X03857Y01296D02*
Y01359D01*
X03795Y01234D02*
X03857Y01296D01*
X03795Y01158D02*
Y01234D01*
X0378Y01143D02*
X03795Y01158D01*
X03542Y01143D02*
X0378D01*
X03522Y01123D02*
X03542Y01143D01*
X03388Y01123D02*
X03522D01*
X03371Y0114D02*
X03388Y01123D01*
X03371Y0114D02*
Y0117D01*
X03755Y01181D02*
Y01315D01*
X03805Y01365*
Y01503*
X03796Y01512D02*
X03805Y01503D01*
X03796Y01512D02*
Y01664D01*
X03812Y0168*
X03229Y02492D02*
Y02534D01*
X03179Y02585D02*
X03229Y02534D01*
X04075Y02571D02*
X04091Y02587D01*
X04075Y02334D02*
Y02571D01*
X04057Y02316D02*
X04075Y02334D01*
X04057Y02097D02*
Y02316D01*
Y02097D02*
X04075Y02079D01*
Y01644D02*
Y02079D01*
Y01644D02*
X04149Y0157D01*
Y01193D02*
Y0157D01*
X0408Y01124D02*
X04149Y01193D01*
X03989Y01124D02*
X0408D01*
X03975Y0111D02*
X03989Y01124D01*
X03975Y00068D02*
Y0111D01*
X02Y0008D02*
Y00111D01*
X04112Y0284D02*
Y02867D01*
Y0284D02*
X04173Y02779D01*
Y02478D02*
Y02779D01*
Y02478D02*
X04255Y02396D01*
Y02273D02*
Y02396D01*
Y02273D02*
X04362Y02166D01*
Y01936D02*
Y02166D01*
X05144Y01866D02*
X05175Y01835D01*
Y01625D02*
Y01835D01*
X0511Y0156D02*
X05175Y01625D01*
X0511Y01468D02*
Y0156D01*
Y01468D02*
X05157Y01421D01*
Y0103D02*
Y01421D01*
X05142Y01015D02*
X05157Y0103D01*
X05073Y01015D02*
X05142D01*
X0506Y01028D02*
X05073Y01015D01*
X0506Y01028D02*
Y01652D01*
X05117Y01709*
X05117*
X04112Y02273D02*
X04249Y02136D01*
Y0188D02*
Y02136D01*
Y0188D02*
X04319Y0181D01*
X04411*
X04532Y01689*
Y01448D02*
Y01689D01*
Y01448D02*
X046Y0138D01*
X04585Y02272D02*
X04616Y0224D01*
X04671*
X04786Y02125*
X04962*
X05089Y01998*
X05131*
X05207Y01921*
Y01617D02*
Y01921D01*
Y01617D02*
X05264Y0156D01*
Y01381D02*
Y0156D01*
X02693Y02903D02*
X02729Y02867D01*
X02507Y02903D02*
X02693D01*
X02493Y02889D02*
X02507Y02903D01*
X03026Y02651D02*
X03177Y025D01*
Y02227D02*
Y025D01*
Y02227D02*
X03215Y02189D01*
X03256*
X04112Y0168D02*
X04184Y01752D01*
X04418*
X04485Y01685*
Y01366D02*
Y01685D01*
Y01366D02*
X04612Y01239D01*
X04969*
X0501Y0128*
Y0172*
X0505Y0176*
X05137*
X05157Y0174*
Y0168D02*
Y0174D01*
X05144Y01667D02*
X05157Y0168D01*
X051Y01667D02*
X05144D01*
X05078Y01645D02*
X051Y01667D01*
X05078Y01093D02*
Y01645D01*
Y01093D02*
X05117Y01054D01*
X05813Y01093D02*
Y01521D01*
Y01093D02*
X05852Y01054D01*
X04564Y02625D02*
X04823Y02365D01*
X04564Y02625D02*
Y02719D01*
X02195Y02735D02*
Y02819D01*
X02147Y02867D02*
X02195Y02819D01*
X00965Y02867D02*
X0108Y02752D01*
X01188*
X04543Y00532D02*
X04677Y00398D01*
X04543Y00532D02*
Y00663D01*
X04412Y00794D02*
X04543Y00663D01*
X04412Y00794D02*
Y01087D01*
X04784Y00358D02*
X04823Y00398D01*
X04784Y00308D02*
Y00358D01*
X0472Y00244D02*
X04784Y00308D01*
X04589Y00244D02*
X0472D01*
X04494Y00339D02*
X04589Y00244D01*
X04406Y00339D02*
X04494D01*
X04275Y0047D02*
X04406Y00339D01*
X04275Y0047D02*
Y0105D01*
X04312Y01087*
X02902Y00601D02*
X02942Y00561D01*
Y00472D02*
Y00561D01*
Y00472D02*
X03174Y0024D01*
X03249*
X03269Y0026*
Y00721*
X03145Y00845D02*
X03269Y00721D01*
X02792Y01684D02*
Y02018D01*
X02804Y0203*
Y02175*
X0285Y02222D02*
Y02248D01*
X03191Y01625D02*
X03288Y01722D01*
X0238Y01013D02*
Y01087D01*
X02462Y01169*
X02601Y0125D02*
X02652D01*
X02659Y01257*
Y0127*
X0268Y01291*
X02706D02*
Y01294D01*
X02551Y01112D02*
X0256Y01103D01*
X02847*
X02858Y01092*
Y01044D02*
Y01092D01*
X01878Y00929D02*
Y01006D01*
X01921Y0105*
Y01279*
X01833Y01367D02*
X01921Y01279D01*
X01833Y01367D02*
Y02072D01*
X0182Y02085D02*
X01833Y02072D01*
X0182Y02085D02*
Y02465D01*
X01847Y02492*
X01876Y0216D02*
Y0226D01*
Y0216D02*
X01901Y02135D01*
Y02098D02*
Y02135D01*
X01881Y02079D02*
X01901Y02098D01*
X01881Y01726D02*
Y02079D01*
Y01726D02*
X01983Y01625D01*
X01213Y01855D02*
Y01983D01*
X0116Y02036D02*
X01213Y01983D01*
X01072Y02036D02*
X0116D01*
X01032Y02076D02*
X01072Y02036D01*
X01032Y02076D02*
Y02129D01*
X03637Y01824D02*
X03657Y01844D01*
Y02447*
X03612Y02492D02*
X03657Y02447D01*
X04756Y00658D02*
X04823Y00726D01*
X04756Y00332D02*
Y00658D01*
X04686Y00262D02*
X04756Y00332D01*
X04641Y00262D02*
X04686D01*
X04547Y00357D02*
X04641Y00262D01*
X04448Y00357D02*
X04547D01*
X04312Y00493D02*
X04448Y00357D01*
X05044Y00359D02*
Y00652D01*
X05117Y00726*
X02856Y0117D02*
Y01204D01*
X02888Y01235*
Y01383*
X02913Y01408*
Y0164*
X02879Y01675D02*
X02913Y0164D01*
X0284Y01675D02*
X02879D01*
X02768Y01603D02*
X0284Y01675D01*
X02768Y0139D02*
Y01603D01*
X02764Y01386D02*
X02768Y0139D01*
X02575Y01386D02*
X02764D01*
X02552Y0141D02*
X02575Y01386D01*
X02552Y0141D02*
Y0144D01*
X02602Y0149*
X0261*
X02623Y01504*
Y01688*
X02587Y01725D02*
X02623Y01688D01*
X03188Y02128D02*
X03221D01*
X03167Y02107D02*
X03188Y02128D01*
X03117Y02107D02*
X03167D01*
X03107Y02117D02*
X03117Y02107D01*
X03107Y02117D02*
Y02208D01*
X03124Y02226*
Y02312*
X03038D02*
X03124D01*
X03038Y02119D02*
Y02312D01*
X03031Y02112D02*
X03038Y02119D01*
X02613Y02072D02*
X02624Y02083D01*
X0276D02*
X02771Y02094D01*
X02965Y02383D02*
X03036Y02312D01*
X02965Y02383D02*
Y02513D01*
X0295Y02529D02*
X02965Y02513D01*
X029Y02529D02*
X0295D01*
X02886Y02515D02*
X029Y02529D01*
X02886Y02425D02*
Y02515D01*
X02836Y02376D02*
X02886Y02425D01*
X02836Y02362D02*
Y02376D01*
X02991Y00537D02*
Y01216D01*
Y00537D02*
X03228Y003D01*
X01329Y0079D02*
X0144Y00901D01*
X01329Y00601D02*
Y0079D01*
X0144Y00654D02*
Y00691D01*
X01409Y00624D02*
X0144Y00654D01*
X01409Y00545D02*
Y00624D01*
X02131Y02057D02*
Y02096D01*
X02163Y02129*
X02629Y02492D02*
X02724Y02398D01*
Y02322D02*
Y02398D01*
X02691Y02289D02*
X02724Y02322D01*
X02691Y02248D02*
Y02289D01*
X04048Y01881D02*
Y01916D01*
X03966Y01799D02*
X04048Y01881D01*
X03966Y01644D02*
Y01799D01*
X03949Y01626D02*
X03966Y01644D01*
X03949Y00094D02*
Y01626D01*
X05358Y01435D02*
X05411Y01381D01*
X05358Y01435D02*
Y01582D01*
X03834Y01597D02*
X03849Y01612D01*
Y01772*
X03875Y01798*
Y02236*
X03912Y02273*
X03767Y01426D02*
Y01929D01*
X03812Y01974*
Y02273*
X0285Y02072D02*
Y02129D01*
Y02072D02*
X02885Y02038D01*
X04412Y01964D02*
Y02273D01*
Y01964D02*
X0455Y01826D01*
Y01508D02*
Y01826D01*
Y01508D02*
X04677Y01381D01*
X03467Y02164D02*
X03495Y02192D01*
Y02276*
X03455Y02316D02*
X03495Y02276D01*
X03455Y02316D02*
Y02567D01*
X03193Y02828D02*
X03455Y02567D01*
X03193Y02828D02*
Y029D01*
X03583Y01996D02*
X03601Y02014D01*
Y0216*
X03533Y02227D02*
X03601Y0216D01*
X03533Y02227D02*
Y02564D01*
X03229Y02867D02*
X03533Y02564D01*
X02834Y02206D02*
X0285Y02222D01*
X02739Y02206D02*
X02834D01*
X02739D02*
Y0229D01*
X02755*
X02769Y02304*
Y02362*
X02529Y00928D02*
X02569D01*
X02497Y00896D02*
X02529Y00928D01*
X02076Y00896D02*
X02497D01*
X02045Y00926D02*
X02076Y00896D01*
X01485Y00981D02*
Y01042D01*
Y00981D02*
X01506Y00961D01*
X0279Y01044D02*
Y01055D01*
X0273Y01084D02*
X0276Y01055D01*
X02583Y01084D02*
X0273D01*
X02543Y01044D02*
X02583Y01084D01*
X0279Y01003D02*
Y01044D01*
Y01003D02*
X02889D01*
Y011*
X02864Y01125D02*
X02889Y011D01*
X0272Y01125D02*
X02864D01*
X02706Y01138D02*
X0272Y01125D01*
X02706Y01138D02*
Y01168D01*
X02163Y02206D02*
X0228D01*
X02287Y02213*
Y02245*
X0235Y02308*
X024*
X0242Y02288*
Y01692D02*
Y02288D01*
Y01692D02*
X02587Y01525D01*
X02079Y0022D02*
Y00261D01*
X02046Y00187D02*
X02079Y0022D01*
X02Y00261D02*
Y003D01*
X02229Y00261D02*
Y003D01*
X0215Y00111D02*
Y00147D01*
X02229Y00225*
Y00261*
X02Y00111D02*
Y0015D01*
X02011Y00161*
X02086*
X0215Y00224*
Y00261*
X03712Y02867D02*
X03766Y02813D01*
X04025*
X04057Y02845*
X04508Y02663D02*
Y02867D01*
X05244Y02143D02*
X05314Y02073D01*
Y01883D02*
Y02073D01*
Y01883D02*
X05412Y01785D01*
X05629*
X05705Y01709*
X02047Y02567D02*
Y02867D01*
X04789Y02527D02*
X04809D01*
X0497Y02365*
X04739Y01794D02*
Y02037D01*
Y01794D02*
X04823Y01709D01*
X03857Y01244D02*
X03875Y01263D01*
Y01322*
X03894Y01341*
Y0161*
X03948Y01664*
Y01835*
X04012Y01898*
X04677Y00313D02*
X04738Y00374D01*
Y0058*
X04677Y00641D02*
X04738Y0058D01*
X04638Y00687D02*
X04677Y00726D01*
X04638Y00516D02*
Y00687D01*
Y00516D02*
X04716Y00438D01*
Y0038D02*
Y00438D01*
X04695Y00359D02*
X04716Y0038D01*
X04638Y00359D02*
X04695D01*
X04503Y00493D02*
X04638Y00359D01*
X04412Y00493D02*
X04503D01*
X05006Y00141D02*
X05264Y00398D01*
X04581Y00141D02*
X05006D01*
X04437Y00285D02*
X04581Y00141D01*
X04275Y00285D02*
X04437D01*
X04175Y00385D02*
X04275Y00285D01*
X04175Y00385D02*
Y00924D01*
X04012Y01087D02*
X04175Y00924D01*
X04945Y00373D02*
X0497Y00398D01*
X04924Y00373D02*
X04945D01*
X0491Y0036D02*
X04924Y00373D01*
X0491Y00338D02*
Y0036D01*
X04798Y00226D02*
X0491Y00338D01*
X04552Y00226D02*
X04798D01*
X04457Y00321D02*
X04552Y00226D01*
X04372Y00321D02*
X04457D01*
X04257Y00435D02*
X04372Y00321D01*
X04257Y00435D02*
Y01041D01*
X04212Y01087D02*
X04257Y01041D01*
X0497Y00726D02*
X0501Y00687D01*
Y00382D02*
Y00687D01*
X0498Y00353D02*
X0501Y00382D01*
X04944Y00353D02*
X0498D01*
X04931Y0034D02*
X04944Y00353D01*
X04931Y0024D02*
Y0034D01*
X0488Y00189D02*
X04931Y0024D01*
X04559Y00189D02*
X0488D01*
X04445Y00303D02*
X04559Y00189D01*
X04337Y00303D02*
X04445D01*
X04212Y00428D02*
X04337Y00303D01*
X04212Y00428D02*
Y00493D01*
X02627Y01168D02*
Y012D01*
X0268Y01253*
X0281*
Y01556*
X02878Y01625*
X02025Y01042D02*
Y01042D01*
X01993Y01042D02*
Y01205D01*
X0202Y01232*
X02042*
X0207Y0126*
Y01401*
X02073Y01405*
Y01416*
X00839Y01272D02*
Y01335D01*
X00816Y01358D02*
X00839Y01335D01*
X00816Y01358D02*
Y01462D01*
X00848Y01495*
X02612Y02205D02*
Y02248D01*
X0265Y02167D02*
X02672D01*
X02691Y02149*
Y02129D02*
Y02149D01*
X03081Y021D02*
Y02269D01*
Y021D02*
X03098Y02083D01*
X03271*
X03288Y021*
Y02128*
X02036Y0176D02*
X02232Y01956D01*
X02036Y01371D02*
Y0176D01*
X02025Y0136D02*
X02036Y01371D01*
X02025Y01294D02*
Y0136D01*
X02242Y02076D02*
X02276Y02043D01*
Y019D02*
Y02043D01*
Y019D02*
X0231Y01866D01*
Y01384D02*
Y01866D01*
X02253Y01328D02*
X0231Y01384D01*
X02253Y01294D02*
Y01328D01*
X02104Y01138D02*
Y01169D01*
X02118Y01138D02*
X02172Y01084D01*
Y01044D02*
Y01084D01*
X02104Y0101D02*
Y01042D01*
Y0101D02*
X02128Y00985D01*
X02215*
X02239Y0101*
Y01044*
X02174Y01159D02*
Y01169D01*
X02202Y01003D02*
Y01159D01*
X02142Y01003D02*
X02202D01*
X02142D02*
Y01074D01*
X0213Y01087D02*
X02142Y01074D01*
X02058Y01087D02*
X0213D01*
X02025Y0112D02*
X02058Y01087D01*
X02025Y0112D02*
Y01169D01*
X01766Y00938D02*
Y0098D01*
X01632Y01114D02*
X01766Y0098D01*
X01632Y01114D02*
Y01169D01*
X0173Y00902D02*
X01766Y00938D01*
X0173Y00877D02*
Y00902D01*
X01698Y00845D02*
X0173Y00877D01*
X0161Y00845D02*
X01698D01*
X01599Y00835D02*
X0161Y00845D01*
X01599Y00801D02*
Y00835D01*
X01586Y01001D02*
X0164D01*
X01506Y0094D02*
X01535Y00969D01*
X01656Y00887D02*
X01711D01*
Y00983*
X01669Y01025D02*
X01711Y00983D01*
X01618Y01025D02*
Y01044D01*
X00961Y01169D02*
X00994D01*
X01005Y0118*
Y01226*
X01042Y01264*
Y01296*
X0556Y02693D02*
Y02722D01*
X05511Y02772D02*
X0556Y02722D01*
X03465Y01875D02*
X03546Y01956D01*
X036*
X03621Y01977*
Y02166*
X03557Y0223D02*
X03621Y02166D01*
X03557Y0223D02*
Y02866D01*
X03737Y01955D02*
Y02248D01*
X03712Y02273D02*
X03737Y02248D01*
X03302Y02211D02*
Y02248D01*
Y02211D02*
X03319Y02194D01*
Y01552D02*
Y02194D01*
X03191Y01425D02*
X03319Y01552D01*
X03156Y01689D02*
X03191Y01725D01*
X03156Y014D02*
Y01689D01*
Y014D02*
X03168Y01388D01*
X03285*
X03337Y0144*
Y02287*
X03334Y0229D02*
X03337Y02287D01*
X03233Y0229D02*
X03334D01*
X03223Y0228D02*
X03233Y0229D01*
X03223Y02248D02*
Y0228D01*
X02612Y02098D02*
Y02129D01*
X02628Y02082D02*
X0276D01*
X02771Y02094*
X01488Y00673D02*
X01506Y00691D01*
X03912Y01159D02*
Y01305D01*
X03875Y01123D02*
X03912Y01159D01*
X03875Y00748D02*
Y01123D01*
Y00748D02*
X03912Y00712D01*
Y01898D02*
Y02067D01*
X03949Y02104*
Y02455*
X03912Y02492D02*
X03949Y02455D01*
X02757Y00456D02*
X02847Y00546D01*
Y00873*
X02902Y00928*
X04571Y01634D02*
X04823Y01381D01*
X04571Y01634D02*
Y01843D01*
X04349Y02311D02*
X04429D01*
X04312Y02273D02*
X04349Y02311D01*
X04928Y01667D02*
X0497Y01709D01*
X0464Y01667D02*
X04928D01*
X04589Y01718D02*
X0464Y01667D01*
X04589Y01718D02*
Y01893D01*
X04296Y02393D02*
X04388D01*
X04249Y0244D02*
X04296Y02393D01*
X04249Y0244D02*
Y0283D01*
X04212Y02867D02*
X04249Y0283D01*
X00741Y01545D02*
X0077D01*
X00725Y01529D02*
X00741Y01545D01*
X0066Y01529D02*
X00725D01*
X00638Y01551D02*
X0066Y01529D01*
X00638Y01551D02*
Y01583D01*
X0066Y01605*
X0071*
X00724Y01619*
Y01653*
X0076Y01689*
X00839Y02019D02*
X0104D01*
X01061Y01998*
Y01862D02*
Y01998D01*
Y01862D02*
X01251Y01672D01*
Y01553D02*
Y01672D01*
Y01553D02*
X01379Y01425D01*
X06Y0015D02*
X06038D01*
X0596Y0093D02*
X06038Y00852D01*
X0596Y0093D02*
Y02712D01*
X0599Y02742*
X06*
Y0285*
X0149Y02248D02*
Y0228D01*
X01448Y02322D02*
X0149Y0228D01*
X01029Y02322D02*
X01448D01*
X00987Y0228D02*
X01029Y02322D01*
X00987Y02201D02*
Y0228D01*
X00953Y02168D02*
X00987Y02201D01*
X00953Y02129D02*
Y02168D01*
X01406Y01139D02*
Y01169D01*
Y01139D02*
X0144Y01106D01*
X01489*
X01551Y01044*
X00753Y01444D02*
X00769D01*
X00722Y01413D02*
X00753Y01444D01*
X00722Y01329D02*
Y01413D01*
Y01329D02*
X0076Y01291D01*
Y01272D02*
Y01291D01*
Y01886D02*
Y01896D01*
X0078Y01886D02*
X00795Y01871D01*
Y01713D02*
Y01871D01*
Y01713D02*
X00813Y01695D01*
Y01513D02*
Y01695D01*
X0076Y01513D02*
X00813D01*
X00704Y01457D02*
X0076Y01513D01*
X00704Y01411D02*
Y01457D01*
X0044Y01411D02*
X00704D01*
X00397Y01453D02*
X0044Y01411D01*
X01613Y00911D02*
Y00928D01*
X01406Y01D02*
X01473Y00933D01*
X01406Y01D02*
Y01042D01*
X00484Y01771D02*
X00522Y01733D01*
X00484Y01771D02*
Y02082D01*
X00661Y02259*
X00724*
X01717Y00254D02*
X01757Y00214D01*
X01717Y00254D02*
Y00474D01*
X01766Y00523*
Y00611*
X02274Y01595D02*
Y01625D01*
X0226Y01581D02*
X02274Y01595D01*
X02238Y01581D02*
X0226D01*
X02073Y01416D02*
X02238Y01581D01*
X02077Y02326D02*
Y02362D01*
Y02326D02*
X021Y02304D01*
X02185*
X02538Y00343D02*
Y00456D01*
Y00343D02*
X02788Y00093D01*
X00689Y01995D02*
Y02016D01*
X00608Y01935D02*
X00668Y01995D01*
X00608Y01897D02*
Y01935D01*
X00179Y01961D02*
Y0202D01*
X00153Y01935D02*
X00179Y01961D01*
X00153Y01591D02*
Y01935D01*
Y01591D02*
X0018D01*
X00181Y0159*
X0033*
X00219Y0182D02*
Y01857D01*
X00204Y01805D02*
X00219Y0182D01*
X00196Y01805D02*
X00204D01*
X00171Y0178D02*
X00196Y01805D01*
X00171Y01609D02*
Y0178D01*
Y01609D02*
X00267D01*
X00289Y01631*
X00356*
X00397Y0159*
X01983Y01725D02*
Y01783D01*
X02242Y02043*
X02856Y01294D02*
Y01351D01*
X02839Y01368D02*
X02856Y01351D01*
X02839Y01368D02*
Y01485D01*
X02878Y01525*
X02856Y01271D02*
Y01294D01*
X02777Y01193D02*
X02856Y01271D01*
X00287Y01368D02*
X00397Y01478D01*
X01167Y00491D02*
X01205Y00454D01*
X01167Y00491D02*
Y00877D01*
X01107Y00938D02*
X01167Y00877D01*
X01066Y01725D02*
X01189Y01602D01*
Y01295D02*
Y01602D01*
Y01295D02*
X01268Y01216D01*
X02315Y00315D02*
X02461D01*
X023Y003D02*
X02315Y00315D01*
X023Y00261D02*
Y003D01*
X0015Y00439D02*
X00287Y00577D01*
X0015Y0015D02*
Y00439D01*
X01221Y00218D02*
Y00261D01*
Y00218D02*
X01285Y00154D01*
Y00111D02*
Y00154D01*
X00179Y0202D02*
Y02026D01*
X002D02*
X00212Y02038D01*
Y02193*
X00258Y0224*
Y02303*
X00219Y01716D02*
Y01757D01*
Y01716D02*
X0023Y01705D01*
X00261*
X0028Y01686*
X00456*
X00464Y01694*
X00643*
X00686Y01651*
X01446Y0032D02*
X01466Y003D01*
X01241Y0032D02*
X01446D01*
X01221Y003D02*
X01241Y0032D01*
X01221Y00261D02*
Y003D01*
X00626Y00724D02*
Y0074D01*
X00641D02*
Y00886D01*
X0063Y00897D02*
X00641Y00886D01*
X01578Y00741D02*
X01599Y0072D01*
X0149Y00741D02*
X01578D01*
X0144Y00691D02*
X0149Y00741D01*
X01066Y01525D02*
Y01542D01*
X00989Y016D02*
X01046Y01542D01*
X00989Y016D02*
Y0168D01*
X00937Y01732D02*
X00989Y0168D01*
X00919Y01732D02*
X00937D01*
X00887Y017D02*
X00919Y01732D01*
X00887Y01575D02*
Y017D01*
X00848Y01537D02*
X00887Y01575D01*
X00848Y01531D02*
Y01537D01*
X01042Y01296D02*
Y01325D01*
X01102Y01384*
Y01589*
X01066Y01625D02*
X01102Y01589D01*
X00975Y01044D02*
Y0108D01*
X00912Y01143D02*
X00975Y0108D01*
X00912Y01143D02*
Y01193D01*
X00975Y01256*
Y01296*
X00848Y01502D02*
Y01531D01*
Y01502D02*
X00927Y01424D01*
Y01397D02*
Y01424D01*
X01406Y01294D02*
Y01355D01*
X01415Y01364*
Y01689*
X01379Y01725D02*
X01415Y01689D01*
X00926Y01598D02*
Y01664D01*
Y01598D02*
X00927Y01597D01*
Y01531D02*
Y01597D01*
X00687Y01835D02*
Y01897D01*
Y01835D02*
X00691Y01831D01*
Y01771D02*
Y01831D01*
X00848Y01359D02*
Y01397D01*
Y01359D02*
X00873Y01335D01*
Y01065D02*
Y01335D01*
X00872Y01064D02*
X00873Y01065D01*
X00855Y00897D02*
X00872D01*
X02163Y02206D02*
Y02248D01*
X02039Y02206D02*
X02163D01*
X0201Y02235D02*
X02039Y02206D01*
X0201Y02235D02*
Y02246D01*
X02242Y02364D02*
Y02407D01*
X0222Y0243D02*
X02242Y02407D01*
X0204Y0243D02*
X0222D01*
X0201Y024D02*
X0204Y0243D01*
X0201Y02362D02*
Y024D01*
X00287Y00745D02*
X0034Y00693D01*
Y00529D02*
Y00693D01*
X00287Y00477D02*
X0034Y00529D01*
X01438Y01735D02*
X01487D01*
X01428Y01725D02*
X01438Y01735D01*
X01379Y01725D02*
X01428D01*
X00599Y00807D02*
Y00818D01*
X00526Y00734D02*
X00599Y00807D01*
X00526Y00724D02*
Y00734D01*
X00557Y00818D02*
X00599D01*
X0051Y00866D02*
X00557Y00818D01*
X00388Y00866D02*
X0051D01*
X00368Y00845D02*
X00388Y00866D01*
X00287Y00845D02*
X00368D01*
X03225Y0117D02*
Y0126D01*
X02472Y0039D02*
Y00456D01*
X02461Y0038D02*
X02472Y0039D01*
X02461Y00315D02*
Y0038D01*
Y00204D02*
Y00315D01*
X02229Y00261D02*
X023D01*
X01966Y00801D02*
Y00926D01*
X01599Y0072D02*
Y00801D01*
X0104Y01107D02*
Y01169D01*
Y01107D02*
X01042Y01105D01*
Y01044D02*
Y01105D01*
X00622Y01981D02*
Y02016D01*
X00573Y01932D02*
X00622Y01981D01*
X00573Y01859D02*
Y01932D01*
Y01859D02*
X00624Y01808D01*
Y01771D02*
Y01808D01*
X01553Y01249D02*
Y01294D01*
X01551Y01044D02*
Y01087D01*
X01564Y02128D02*
Y02246D01*
X01527D02*
X01564D01*
X01526Y02248D02*
X01527Y02246D01*
X0149Y02248D02*
X01526D01*
X0214Y01373D02*
Y01416D01*
X02104Y01337D02*
X0214Y01373D01*
X02104Y01294D02*
Y01337D01*
Y01169D02*
Y01294D01*
X02242Y02364D02*
X02612D01*
X0201Y02337D02*
Y02362D01*
Y02337D02*
X02077Y0227D01*
Y02246D02*
Y0227D01*
X02706Y01294D02*
X02777D01*
X00727Y00771D02*
Y00818D01*
X00726Y0077D02*
X00727Y00771D01*
X00726Y00724D02*
Y0077D01*
X00839Y01896D02*
Y02019D01*
Y01774D02*
Y01896D01*
X01485Y01169D02*
X01553D01*
X02174D02*
Y01294D01*
X02091Y02129D02*
X02163D01*
X00179Y02155D02*
Y02303D01*
X01364Y00111D02*
X0144D01*
X01678Y00647D02*
Y00673D01*
X01599Y00569D02*
X01678Y00647D01*
X01599Y00545D02*
Y00569D01*
X02045Y00673D02*
Y00801D01*
X04823Y01523D02*
Y01624D01*
Y01523D02*
X04863Y01484D01*
Y01358D02*
Y01484D01*
X04823Y01319D02*
X04863Y01358D01*
X04823Y01296D02*
Y01319D01*
G54D15*
X05852Y01952D03*
Y02037D03*
X05999Y01952D03*
Y02037D03*
X05558Y0228D03*
Y02365D03*
X05411Y0228D03*
Y02365D03*
X05705Y0228D03*
Y02365D03*
X05264Y01952D03*
Y02037D03*
X05999Y0228D03*
Y02365D03*
X05852Y0228D03*
Y02365D03*
X05558Y01952D03*
Y02037D03*
X05411Y01952D03*
Y02037D03*
X05705Y01952D03*
Y02037D03*
X05264Y0228D03*
Y02365D03*
X05558Y01296D03*
Y01381D03*
X05705Y01296D03*
Y01381D03*
X05852Y01296D03*
Y01381D03*
X05999Y01296D03*
Y01381D03*
X05411Y01296D03*
Y01381D03*
X05852Y01624D03*
Y01709D03*
X05999Y01624D03*
Y01709D03*
X05264Y01624D03*
Y01709D03*
X05411Y01624D03*
Y01709D03*
X05705Y01624D03*
Y01709D03*
X05558Y01624D03*
Y01709D03*
X05411Y00313D03*
Y00398D03*
X04679Y02693D03*
Y02608D03*
X05413Y02693D03*
Y02608D03*
X05264Y01296D03*
Y01381D03*
X05266Y02693D03*
Y02608D03*
X04972Y02693D03*
Y02608D03*
X05119Y02693D03*
Y02608D03*
X05264Y00641D03*
Y00726D03*
X04823Y0228D03*
Y02365D03*
X0497Y0228D03*
Y02365D03*
X05117Y0228D03*
Y02365D03*
X04825Y02693D03*
Y02608D03*
X05854Y02693D03*
Y02608D03*
X05707Y02693D03*
Y02608D03*
X0556Y02693D03*
Y02608D03*
X06001Y02693D03*
Y02608D03*
X05264Y00313D03*
Y00398D03*
X05852Y00313D03*
Y00398D03*
X05705Y00313D03*
Y00398D03*
X05558Y00313D03*
Y00398D03*
X05264Y00969D03*
Y01054D03*
X05558Y00969D03*
Y01054D03*
X05705Y00969D03*
Y01054D03*
X05411Y00969D03*
Y01054D03*
X05999Y00398D03*
Y00313D03*
X05852Y00641D03*
Y00726D03*
X05999Y00641D03*
Y00726D03*
X05411Y00641D03*
Y00726D03*
X05705Y00641D03*
Y00726D03*
X05558Y00641D03*
Y00726D03*
X05852Y00969D03*
Y01054D03*
X04677Y0228D03*
Y02365D03*
X05999Y00969D03*
Y01054D03*
X04677Y00313D03*
Y00398D03*
X04823Y00641D03*
Y00726D03*
X04677Y00641D03*
Y00726D03*
X04823Y00313D03*
Y00398D03*
X04677Y00969D03*
Y01054D03*
X05117Y00969D03*
Y01054D03*
X04677Y01296D03*
Y01381D03*
X0497Y01296D03*
Y01381D03*
X05117Y01296D03*
Y01381D03*
X0497Y00969D03*
Y01054D03*
X04823Y01296D03*
Y01381D03*
Y00969D03*
Y01054D03*
X04677Y01624D03*
Y01709D03*
X04823Y01952D03*
Y02037D03*
Y01624D03*
Y01709D03*
X04677Y01952D03*
Y02037D03*
X0497Y00313D03*
Y00398D03*
Y00641D03*
Y00726D03*
X05117Y00641D03*
Y00726D03*
Y00313D03*
Y00398D03*
Y01624D03*
Y01709D03*
X0497Y01952D03*
Y02037D03*
Y01624D03*
Y01709D03*
X05117Y01952D03*
Y02037D03*
G54D16*
X0015Y0015D03*
Y0285D03*
X06Y0015D03*
Y0285D03*
G54D17*
X01107Y00938D03*
X02461Y00097D03*
Y00209D03*
Y0032D03*
X01878Y00602D03*
X01766Y00938D03*
X01329Y00601D03*
X01218Y00938D03*
X00996Y00601D03*
X00522Y0206D03*
X00406Y01723D03*
X02458Y00938D03*
X02569Y00601D03*
X02902D03*
X0268Y00938D03*
X02791Y00601D03*
G54D18*
X01107Y00611D03*
X01878Y00929D03*
X01766Y00611D03*
X01329Y00928D03*
X01218Y00611D03*
X00996Y00928D03*
X00522Y01733D03*
X00406Y0205D03*
X02458Y00611D03*
X02569Y00928D03*
X02902Y00928D03*
X0268Y00611D03*
X02791Y00928D03*
G54D19*
X02788Y00097D03*
Y00209D03*
X02788Y0032D03*
G54D20*
X03081Y02269D03*
X03236Y01955D03*
X02935D03*
X01876Y0226D03*
X01722Y01949D03*
X02332Y01956D03*
X02027Y01949D03*
X01416Y0195D03*
X0111D03*
X01271Y02264D03*
X02477Y02265D03*
X02636Y01956D03*
X03091Y01216D03*
X02485Y0122D03*
X01878Y01218D03*
X01268Y01216D03*
X00821Y00195D03*
X00829Y011D03*
G54D21*
X02981Y02269D03*
X03136Y01955D03*
X02835D03*
X01776Y0226D03*
X01622Y01949D03*
X02232Y01956D03*
X01927Y01949D03*
X01316Y0195D03*
X0101D03*
X01171Y02264D03*
X02377Y02265D03*
X02536Y01956D03*
X02991Y01216D03*
X02385Y0122D03*
X01778Y01218D03*
X01168Y01216D03*
X00721Y00195D03*
X00729Y011D03*
G54D22*
X00724Y02259D03*
X02188Y00517D03*
X02188Y00818D03*
X01466Y003D03*
X01757Y00214D03*
X00399Y02259D03*
X00998Y00332D03*
G54D23*
X00823Y02259D03*
X02287Y00517D03*
Y00818D03*
X01565Y003D03*
X01856Y00214D03*
X00498Y02259D03*
X01077Y00332D03*
G54D24*
X02691Y0046D03*
X02472D03*
X01754Y00456D03*
X01967D03*
X0144Y00691D03*
Y00901D03*
X01205Y00454D03*
G54D25*
X02757Y0046D03*
X02538D03*
X0182Y00456D03*
X02033D03*
X01506Y00691D03*
Y00901D03*
X01325Y00454D03*
G54D26*
X03145Y00845D03*
X03031Y003D03*
G54D27*
X03342Y00845D03*
X03228Y003D03*
G54D28*
X02878Y01725D03*
X02274D03*
X0167D03*
X01066D03*
G54D29*
X02878Y01625D03*
Y01525D03*
Y01425D03*
X03191D03*
Y01525D03*
Y01625D03*
Y01725D03*
X02587D03*
Y01625D03*
Y01525D03*
Y01425D03*
X02274D03*
Y01525D03*
Y01625D03*
X01983Y01725D03*
Y01625D03*
Y01525D03*
Y01425D03*
X0167D03*
Y01525D03*
Y01625D03*
X01379Y01725D03*
Y01625D03*
Y01525D03*
Y01425D03*
X01066D03*
Y01525D03*
Y01625D03*
G54D30*
X03612Y02273D03*
X03712D03*
X03812D03*
X03912D03*
X04012D03*
X04112D03*
X04212D03*
X04312D03*
X04412D03*
Y01898D03*
X04312D03*
X04212D03*
X04112D03*
X04012D03*
X03912D03*
X03812D03*
X03712D03*
X03612Y0168D03*
X03712D03*
X03812D03*
X03912D03*
X04012D03*
X04112D03*
X04212D03*
X04312D03*
X04412D03*
Y01305D03*
X04312D03*
X04212D03*
X04112D03*
X04012D03*
X03912D03*
X03812D03*
X03712D03*
X03612Y02867D03*
X03712D03*
X03812D03*
X03912D03*
X04012D03*
X04112D03*
X04212D03*
X04312D03*
X04412D03*
Y02492D03*
X04312D03*
X04212D03*
X04112D03*
X04012D03*
X03912D03*
X03812D03*
X03712D03*
X02529Y02867D03*
X02629D03*
X02729D03*
X02829D03*
X02929D03*
X03029D03*
X03129D03*
X03229D03*
X03329D03*
Y02492D03*
X03229D03*
X03129D03*
X03029D03*
X02929D03*
X02829D03*
X02729D03*
X02629D03*
X00365Y02867D03*
X00465D03*
X00565D03*
X00665D03*
X00765D03*
X00865D03*
X00965D03*
X01065D03*
X01165D03*
Y02492D03*
X01065D03*
X00965D03*
X00865D03*
X00765D03*
X00665D03*
X00565D03*
X00465D03*
X03712Y00712D03*
X03812D03*
X03912D03*
X04012D03*
X04112D03*
X04212D03*
X04312D03*
X04412D03*
Y01087D03*
X04312D03*
X04212D03*
X04112D03*
X04012D03*
X03912D03*
X03812D03*
X03712D03*
X03612D03*
X01447Y02867D03*
X01547D03*
X01647D03*
X01747D03*
X01847D03*
X01947D03*
X02047D03*
X02147D03*
X02247D03*
Y02492D03*
X02147D03*
X02047D03*
X01947D03*
X01847D03*
X01747D03*
X01647D03*
X01547D03*
X03612Y00493D03*
X03712D03*
X03812D03*
X03912D03*
X04012D03*
X04112D03*
X04212D03*
X04312D03*
X04412D03*
Y00118D03*
X04312D03*
X04212D03*
X04112D03*
X04012D03*
X03912D03*
X03812D03*
X03712D03*
G54D31*
X03612Y01898D03*
Y01305D03*
Y02492D03*
X02529D03*
X00365D03*
X03612Y00712D03*
X01447Y02492D03*
X03612Y00118D03*
G54D32*
X00219Y01657D03*
G54D33*
X00219Y01857D03*
Y01757D03*
G54D34*
X00287Y01468D03*
X00287Y00577D03*
Y00845D03*
G54D35*
X00287Y01368D03*
X00287Y00477D03*
Y00745D03*
G54D36*
X00357Y00178D03*
X00667Y01449D03*
G54D37*
X00457Y00278D03*
X00557Y00178D03*
X00467Y01449D03*
X00567Y01349D03*
G54D38*
X00526Y00424D03*
X00626D03*
X00526Y00724D03*
X00626D03*
X00826Y00424D03*
X00726D03*
Y00724D03*
X00826D03*
G54D39*
X00224Y01228D03*
Y00979D03*
X00488Y01228D03*
Y00979D03*
X0035Y01228D03*
G54D40*
X00252Y01104D03*
X00488D03*
G54D41*
X04481Y02607D03*
X04625Y02194D03*
X04353Y02594D03*
X01691Y02277D03*
X04002Y0197D03*
X01582Y00112D03*
X03273Y01097D03*
X01538Y00189D03*
X05331Y01079D03*
X03482Y01776D03*
X0348Y02023D03*
X03583Y01994D03*
X03404Y0202D03*
X02304Y0123D03*
X01331Y0158D03*
X02566Y01196D03*
X01961Y02194D03*
X01371Y0069D03*
X0165Y02344D03*
X02714Y00544D03*
X0408Y00034D03*
X03509Y00098D03*
X02562Y00113D03*
X0152Y01387D03*
X01755Y01525D03*
X02188Y0063D03*
X02981Y01684D03*
X0393Y02648D03*
X03675D03*
X02716Y01445D03*
X00676Y01567D03*
X02578Y0133D03*
X03575Y00315D03*
X05225Y01177D03*
X04521Y01065D03*
X04525Y00407D03*
X0508Y0294D03*
X05413Y0287D03*
X05293Y02909D03*
X01329Y02703D03*
X05755Y02898D03*
X01526Y02391D03*
X01456Y02392D03*
X01696Y0254D03*
X01923Y02344D03*
X03616Y01411D03*
X05168Y01538D03*
X04062Y01172D03*
X04758Y01114D03*
X03162Y02165D03*
X03545Y02124D03*
X03415Y02117D03*
X0343Y0222D03*
X03569Y01793D03*
X0381Y01751D03*
X01038Y00273D03*
X01767Y00761D03*
X01618Y00213D03*
X01949Y02647D03*
X02569Y00831D03*
X01957Y00732D03*
X0449Y00951D03*
X01858Y02117D03*
X02994Y02592D03*
X03209Y01871D03*
X03493Y02476D03*
X01873Y02567D03*
X03805Y00894D03*
X05436Y00848D03*
X05627Y00527D03*
X0056Y01995D03*
X03755Y01181D03*
X03179Y02585D03*
X04091Y02587D03*
X04362Y01936D03*
X05144Y01866D03*
X046Y0138D03*
X04585Y02272D03*
X03256Y02189D03*
X05813Y01521D03*
X04564Y02719D03*
X02195Y02735D03*
X01188Y02752D03*
X02792Y01684D03*
X02551Y01112D03*
X01213Y01855D03*
X03637Y01824D03*
X05044Y00359D03*
X03031Y02112D03*
X02613Y02072D03*
X02527Y02057D03*
X02131D03*
X05358Y01582D03*
X03834Y01597D03*
X03767Y01426D03*
X02885Y02038D03*
X02543Y01044D03*
X02047Y02567D03*
X04789Y02527D03*
X05511Y02772D03*
X03737Y01955D03*
M02*