%FSTAX23Y23*%
%MOIN*%
%SFA1B1*%

%IPPOS*%
%ADD42C,0.007874*%
%ADD43C,0.006000*%
%ADD44C,0.010000*%
%ADD45C,0.005000*%
%ADD46C,0.012000*%
%ADD47C,0.005906*%
%LNmb_spectrumanalyzer_legend_top-1*%
%LPD*%
G36*
X03518Y0147D02*
Y01462D01*
X03515*
Y0146*
X03513*
Y01457*
X0351*
Y01455*
X03508*
Y01452*
X03505*
Y01449*
X035*
Y01447*
X03263*
Y01537*
X03474*
Y0155*
X03263*
Y01638*
X03474*
Y0165*
X03263*
Y01738*
X0342*
X03423*
X0352*
Y0147*
X03518*
G37*
%LNmb_spectrumanalyzer_legend_top-2*%
%LPC*%
G36*
X03363Y01457D02*
Y01529D01*
X03268*
Y01493*
X0334*
Y01488*
X03289*
X03286*
X03268*
Y01452*
X03358*
Y01455*
X03361*
Y01457*
X03363*
G37*
%LNmb_spectrumanalyzer_legend_top-3*%
%LPD*%
G54D42*
X0111Y00566D02*
D01*
X0111Y00566*
X0111Y00566*
X0111Y00567*
X0111Y00567*
X0111Y00567*
X0111Y00567*
X0111Y00568*
X0111Y00568*
X0111Y00568*
X0111Y00568*
X01109Y00569*
X01109Y00569*
X01109Y00569*
X01109Y00569*
X01108Y00569*
X01108Y00569*
X01108Y00569*
X01108Y0057*
X01107Y0057*
X01107Y0057*
X01107Y0057*
X01107Y0057*
X01106*
X01106Y0057*
X01106Y0057*
X01106Y0057*
X01105Y0057*
X01105Y00569*
X01105Y00569*
X01105Y00569*
X01104Y00569*
X01104Y00569*
X01104Y00569*
X01104Y00569*
X01103Y00568*
X01103Y00568*
X01103Y00568*
X01103Y00568*
X01103Y00567*
X01103Y00567*
X01103Y00567*
X01103Y00567*
X01103Y00566*
X01103Y00566*
X01103Y00566*
X01103Y00566*
X01103Y00565*
X01103Y00565*
X01103Y00565*
X01103Y00564*
X01103Y00564*
X01103Y00564*
X01103Y00564*
X01103Y00564*
X01103Y00563*
X01104Y00563*
X01104Y00563*
X01104Y00563*
X01104Y00563*
X01105Y00562*
X01105Y00562*
X01105Y00562*
X01105Y00562*
X01106Y00562*
X01106Y00562*
X01106Y00562*
X01106Y00562*
X01107*
X01107Y00562*
X01107Y00562*
X01107Y00562*
X01108Y00562*
X01108Y00562*
X01108Y00562*
X01108Y00562*
X01109Y00563*
X01109Y00563*
X01109Y00563*
X01109Y00563*
X0111Y00563*
X0111Y00564*
X0111Y00564*
X0111Y00564*
X0111Y00564*
X0111Y00564*
X0111Y00565*
X0111Y00565*
X0111Y00565*
X0111Y00566*
X0111Y00566*
X02837Y00097D02*
D01*
X02837Y00097*
X02837Y00097*
X02837Y00097*
X02837Y00098*
X02837Y00098*
X02837Y00098*
X02837Y00098*
X02836Y00099*
X02836Y00099*
X02836Y00099*
X02836Y00099*
X02836Y00099*
X02836Y001*
X02835Y001*
X02835Y001*
X02835Y001*
X02835Y001*
X02834Y001*
X02834Y001*
X02834Y001*
X02834Y001*
X02833Y001*
X02833*
X02833Y001*
X02832Y001*
X02832Y001*
X02832Y001*
X02832Y001*
X02831Y001*
X02831Y001*
X02831Y001*
X02831Y001*
X02831Y00099*
X0283Y00099*
X0283Y00099*
X0283Y00099*
X0283Y00099*
X0283Y00098*
X0283Y00098*
X02829Y00098*
X02829Y00098*
X02829Y00097*
X02829Y00097*
X02829Y00097*
X02829Y00097*
X02829Y00096*
X02829Y00096*
X02829Y00096*
X02829Y00095*
X02829Y00095*
X0283Y00095*
X0283Y00095*
X0283Y00094*
X0283Y00094*
X0283Y00094*
X0283Y00094*
X02831Y00094*
X02831Y00093*
X02831Y00093*
X02831Y00093*
X02831Y00093*
X02832Y00093*
X02832Y00093*
X02832Y00093*
X02832Y00093*
X02833Y00093*
X02833Y00093*
X02833*
X02834Y00093*
X02834Y00093*
X02834Y00093*
X02834Y00093*
X02835Y00093*
X02835Y00093*
X02835Y00093*
X02835Y00093*
X02836Y00093*
X02836Y00094*
X02836Y00094*
X02836Y00094*
X02836Y00094*
X02836Y00094*
X02837Y00095*
X02837Y00095*
X02837Y00095*
X02837Y00095*
X02837Y00096*
X02837Y00096*
X02837Y00096*
X02837Y00097*
Y00209D02*
D01*
X02837Y00209*
X02837Y00209*
X02837Y00209*
X02837Y0021*
X02837Y0021*
X02837Y0021*
X02837Y0021*
X02836Y00211*
X02836Y00211*
X02836Y00211*
X02836Y00211*
X02836Y00211*
X02836Y00212*
X02835Y00212*
X02835Y00212*
X02835Y00212*
X02835Y00212*
X02834Y00212*
X02834Y00212*
X02834Y00212*
X02834Y00212*
X02833Y00212*
X02833*
X02833Y00212*
X02832Y00212*
X02832Y00212*
X02832Y00212*
X02832Y00212*
X02831Y00212*
X02831Y00212*
X02831Y00212*
X02831Y00212*
X02831Y00211*
X0283Y00211*
X0283Y00211*
X0283Y00211*
X0283Y00211*
X0283Y0021*
X0283Y0021*
X02829Y0021*
X02829Y0021*
X02829Y00209*
X02829Y00209*
X02829Y00209*
X02829Y00209*
X02829Y00208*
X02829Y00208*
X02829Y00208*
X02829Y00207*
X02829Y00207*
X0283Y00207*
X0283Y00207*
X0283Y00206*
X0283Y00206*
X0283Y00206*
X0283Y00206*
X02831Y00206*
X02831Y00205*
X02831Y00205*
X02831Y00205*
X02831Y00205*
X02832Y00205*
X02832Y00205*
X02832Y00205*
X02832Y00205*
X02833Y00205*
X02833Y00205*
X02833*
X02834Y00205*
X02834Y00205*
X02834Y00205*
X02834Y00205*
X02835Y00205*
X02835Y00205*
X02835Y00205*
X02835Y00205*
X02836Y00205*
X02836Y00206*
X02836Y00206*
X02836Y00206*
X02836Y00206*
X02836Y00206*
X02837Y00207*
X02837Y00207*
X02837Y00207*
X02837Y00207*
X02837Y00208*
X02837Y00208*
X02837Y00208*
X02837Y00209*
Y0032D02*
D01*
X02837Y0032*
X02837Y0032*
X02837Y0032*
X02837Y00321*
X02837Y00321*
X02837Y00321*
X02837Y00321*
X02836Y00322*
X02836Y00322*
X02836Y00322*
X02836Y00322*
X02836Y00322*
X02836Y00323*
X02835Y00323*
X02835Y00323*
X02835Y00323*
X02835Y00323*
X02834Y00323*
X02834Y00323*
X02834Y00323*
X02834Y00323*
X02833Y00323*
X02833*
X02833Y00323*
X02832Y00323*
X02832Y00323*
X02832Y00323*
X02832Y00323*
X02831Y00323*
X02831Y00323*
X02831Y00323*
X02831Y00323*
X02831Y00322*
X0283Y00322*
X0283Y00322*
X0283Y00322*
X0283Y00322*
X0283Y00321*
X0283Y00321*
X02829Y00321*
X02829Y00321*
X02829Y0032*
X02829Y0032*
X02829Y0032*
X02829Y0032*
X02829Y00319*
X02829Y00319*
X02829Y00319*
X02829Y00318*
X02829Y00318*
X0283Y00318*
X0283Y00318*
X0283Y00317*
X0283Y00317*
X0283Y00317*
X0283Y00317*
X02831Y00317*
X02831Y00316*
X02831Y00316*
X02831Y00316*
X02831Y00316*
X02832Y00316*
X02832Y00316*
X02832Y00316*
X02832Y00316*
X02833Y00316*
X02833Y00316*
X02833*
X02834Y00316*
X02834Y00316*
X02834Y00316*
X02834Y00316*
X02835Y00316*
X02835Y00316*
X02835Y00316*
X02835Y00316*
X02836Y00316*
X02836Y00317*
X02836Y00317*
X02836Y00317*
X02836Y00317*
X02836Y00317*
X02837Y00318*
X02837Y00318*
X02837Y00318*
X02837Y00318*
X02837Y00319*
X02837Y00319*
X02837Y00319*
X02837Y0032*
X03159Y02269D02*
D01*
X03159Y02269*
X03159Y02269*
X03159Y0227*
X03159Y0227*
X03159Y0227*
X03159Y0227*
X03159Y02271*
X03158Y02271*
X03158Y02271*
X03158Y02271*
X03158Y02272*
X03158Y02272*
X03157Y02272*
X03157Y02272*
X03157Y02272*
X03157Y02272*
X03157Y02272*
X03156Y02273*
X03156Y02273*
X03156Y02273*
X03155Y02273*
X03155Y02273*
X03155*
X03155Y02273*
X03154Y02273*
X03154Y02273*
X03154Y02273*
X03154Y02272*
X03153Y02272*
X03153Y02272*
X03153Y02272*
X03153Y02272*
X03152Y02272*
X03152Y02272*
X03152Y02271*
X03152Y02271*
X03152Y02271*
X03152Y02271*
X03151Y0227*
X03151Y0227*
X03151Y0227*
X03151Y0227*
X03151Y02269*
X03151Y02269*
X03151Y02269*
X03151Y02269*
X03151Y02268*
X03151Y02268*
X03151Y02268*
X03151Y02267*
X03151Y02267*
X03152Y02267*
X03152Y02267*
X03152Y02267*
X03152Y02266*
X03152Y02266*
X03152Y02266*
X03153Y02266*
X03153Y02266*
X03153Y02265*
X03153Y02265*
X03154Y02265*
X03154Y02265*
X03154Y02265*
X03154Y02265*
X03155Y02265*
X03155Y02265*
X03155*
X03155Y02265*
X03156Y02265*
X03156Y02265*
X03156Y02265*
X03157Y02265*
X03157Y02265*
X03157Y02265*
X03157Y02266*
X03157Y02266*
X03158Y02266*
X03158Y02266*
X03158Y02266*
X03158Y02267*
X03158Y02267*
X03159Y02267*
X03159Y02267*
X03159Y02267*
X03159Y02268*
X03159Y02268*
X03159Y02268*
X03159Y02269*
X03159Y02269*
X03314Y01955D02*
D01*
X03314Y01955*
X03314Y01955*
X03314Y01956*
X03314Y01956*
X03314Y01956*
X03314Y01956*
X03314Y01957*
X03313Y01957*
X03313Y01957*
X03313Y01957*
X03313Y01958*
X03313Y01958*
X03312Y01958*
X03312Y01958*
X03312Y01958*
X03312Y01958*
X03312Y01958*
X03311Y01959*
X03311Y01959*
X03311Y01959*
X0331Y01959*
X0331Y01959*
X0331*
X0331Y01959*
X03309Y01959*
X03309Y01959*
X03309Y01959*
X03309Y01958*
X03308Y01958*
X03308Y01958*
X03308Y01958*
X03308Y01958*
X03307Y01958*
X03307Y01958*
X03307Y01957*
X03307Y01957*
X03307Y01957*
X03307Y01957*
X03306Y01956*
X03306Y01956*
X03306Y01956*
X03306Y01956*
X03306Y01955*
X03306Y01955*
X03306Y01955*
X03306Y01955*
X03306Y01954*
X03306Y01954*
X03306Y01954*
X03306Y01953*
X03306Y01953*
X03307Y01953*
X03307Y01953*
X03307Y01953*
X03307Y01952*
X03307Y01952*
X03307Y01952*
X03308Y01952*
X03308Y01952*
X03308Y01951*
X03308Y01951*
X03309Y01951*
X03309Y01951*
X03309Y01951*
X03309Y01951*
X0331Y01951*
X0331Y01951*
X0331*
X0331Y01951*
X03311Y01951*
X03311Y01951*
X03311Y01951*
X03312Y01951*
X03312Y01951*
X03312Y01951*
X03312Y01952*
X03312Y01952*
X03313Y01952*
X03313Y01952*
X03313Y01952*
X03313Y01953*
X03313Y01953*
X03314Y01953*
X03314Y01953*
X03314Y01953*
X03314Y01954*
X03314Y01954*
X03314Y01954*
X03314Y01955*
X03314Y01955*
X03013D02*
D01*
X03013Y01955*
X03013Y01955*
X03013Y01956*
X03013Y01956*
X03013Y01956*
X03013Y01956*
X03013Y01957*
X03012Y01957*
X03012Y01957*
X03012Y01957*
X03012Y01958*
X03012Y01958*
X03011Y01958*
X03011Y01958*
X03011Y01958*
X03011Y01958*
X03011Y01958*
X0301Y01959*
X0301Y01959*
X0301Y01959*
X03009Y01959*
X03009Y01959*
X03009*
X03009Y01959*
X03008Y01959*
X03008Y01959*
X03008Y01959*
X03008Y01958*
X03007Y01958*
X03007Y01958*
X03007Y01958*
X03007Y01958*
X03006Y01958*
X03006Y01958*
X03006Y01957*
X03006Y01957*
X03006Y01957*
X03006Y01957*
X03005Y01956*
X03005Y01956*
X03005Y01956*
X03005Y01956*
X03005Y01955*
X03005Y01955*
X03005Y01955*
X03005Y01955*
X03005Y01954*
X03005Y01954*
X03005Y01954*
X03005Y01953*
X03005Y01953*
X03006Y01953*
X03006Y01953*
X03006Y01953*
X03006Y01952*
X03006Y01952*
X03006Y01952*
X03007Y01952*
X03007Y01952*
X03007Y01951*
X03007Y01951*
X03008Y01951*
X03008Y01951*
X03008Y01951*
X03008Y01951*
X03009Y01951*
X03009Y01951*
X03009*
X03009Y01951*
X0301Y01951*
X0301Y01951*
X0301Y01951*
X03011Y01951*
X03011Y01951*
X03011Y01951*
X03011Y01952*
X03011Y01952*
X03012Y01952*
X03012Y01952*
X03012Y01952*
X03012Y01953*
X03012Y01953*
X03013Y01953*
X03013Y01953*
X03013Y01953*
X03013Y01954*
X03013Y01954*
X03013Y01954*
X03013Y01955*
X03013Y01955*
X01954Y0226D02*
D01*
X01954Y0226*
X01954Y0226*
X01954Y02261*
X01954Y02261*
X01954Y02261*
X01954Y02261*
X01954Y02262*
X01953Y02262*
X01953Y02262*
X01953Y02262*
X01953Y02263*
X01953Y02263*
X01952Y02263*
X01952Y02263*
X01952Y02263*
X01952Y02263*
X01952Y02263*
X01951Y02264*
X01951Y02264*
X01951Y02264*
X0195Y02264*
X0195Y02264*
X0195*
X0195Y02264*
X01949Y02264*
X01949Y02264*
X01949Y02264*
X01949Y02263*
X01948Y02263*
X01948Y02263*
X01948Y02263*
X01948Y02263*
X01947Y02263*
X01947Y02263*
X01947Y02262*
X01947Y02262*
X01947Y02262*
X01947Y02262*
X01946Y02261*
X01946Y02261*
X01946Y02261*
X01946Y02261*
X01946Y0226*
X01946Y0226*
X01946Y0226*
X01946Y0226*
X01946Y02259*
X01946Y02259*
X01946Y02259*
X01946Y02258*
X01946Y02258*
X01947Y02258*
X01947Y02258*
X01947Y02258*
X01947Y02257*
X01947Y02257*
X01947Y02257*
X01948Y02257*
X01948Y02257*
X01948Y02256*
X01948Y02256*
X01949Y02256*
X01949Y02256*
X01949Y02256*
X01949Y02256*
X0195Y02256*
X0195Y02256*
X0195*
X0195Y02256*
X01951Y02256*
X01951Y02256*
X01951Y02256*
X01952Y02256*
X01952Y02256*
X01952Y02256*
X01952Y02257*
X01952Y02257*
X01953Y02257*
X01953Y02257*
X01953Y02257*
X01953Y02258*
X01953Y02258*
X01954Y02258*
X01954Y02258*
X01954Y02258*
X01954Y02259*
X01954Y02259*
X01954Y02259*
X01954Y0226*
X01954Y0226*
X018Y01949D02*
D01*
X018Y01949*
X018Y01949*
X018Y0195*
X018Y0195*
X018Y0195*
X018Y0195*
X018Y01951*
X01799Y01951*
X01799Y01951*
X01799Y01951*
X01799Y01952*
X01799Y01952*
X01798Y01952*
X01798Y01952*
X01798Y01952*
X01798Y01952*
X01798Y01952*
X01797Y01953*
X01797Y01953*
X01797Y01953*
X01796Y01953*
X01796Y01953*
X01796*
X01796Y01953*
X01795Y01953*
X01795Y01953*
X01795Y01953*
X01795Y01952*
X01794Y01952*
X01794Y01952*
X01794Y01952*
X01794Y01952*
X01793Y01952*
X01793Y01952*
X01793Y01951*
X01793Y01951*
X01793Y01951*
X01793Y01951*
X01792Y0195*
X01792Y0195*
X01792Y0195*
X01792Y0195*
X01792Y01949*
X01792Y01949*
X01792Y01949*
X01792Y01949*
X01792Y01948*
X01792Y01948*
X01792Y01948*
X01792Y01947*
X01792Y01947*
X01793Y01947*
X01793Y01947*
X01793Y01947*
X01793Y01946*
X01793Y01946*
X01793Y01946*
X01794Y01946*
X01794Y01946*
X01794Y01945*
X01794Y01945*
X01795Y01945*
X01795Y01945*
X01795Y01945*
X01795Y01945*
X01796Y01945*
X01796Y01945*
X01796*
X01796Y01945*
X01797Y01945*
X01797Y01945*
X01797Y01945*
X01798Y01945*
X01798Y01945*
X01798Y01945*
X01798Y01946*
X01798Y01946*
X01799Y01946*
X01799Y01946*
X01799Y01946*
X01799Y01947*
X01799Y01947*
X018Y01947*
X018Y01947*
X018Y01947*
X018Y01948*
X018Y01948*
X018Y01948*
X018Y01949*
X018Y01949*
X0241Y01956D02*
D01*
X0241Y01956*
X0241Y01956*
X0241Y01957*
X0241Y01957*
X0241Y01957*
X0241Y01957*
X0241Y01958*
X02409Y01958*
X02409Y01958*
X02409Y01958*
X02409Y01959*
X02409Y01959*
X02408Y01959*
X02408Y01959*
X02408Y01959*
X02408Y01959*
X02408Y01959*
X02407Y0196*
X02407Y0196*
X02407Y0196*
X02406Y0196*
X02406Y0196*
X02406*
X02406Y0196*
X02405Y0196*
X02405Y0196*
X02405Y0196*
X02405Y01959*
X02404Y01959*
X02404Y01959*
X02404Y01959*
X02404Y01959*
X02403Y01959*
X02403Y01959*
X02403Y01958*
X02403Y01958*
X02403Y01958*
X02403Y01958*
X02402Y01957*
X02402Y01957*
X02402Y01957*
X02402Y01957*
X02402Y01956*
X02402Y01956*
X02402Y01956*
X02402Y01956*
X02402Y01955*
X02402Y01955*
X02402Y01955*
X02402Y01954*
X02402Y01954*
X02403Y01954*
X02403Y01954*
X02403Y01954*
X02403Y01953*
X02403Y01953*
X02403Y01953*
X02404Y01953*
X02404Y01953*
X02404Y01952*
X02404Y01952*
X02405Y01952*
X02405Y01952*
X02405Y01952*
X02405Y01952*
X02406Y01952*
X02406Y01952*
X02406*
X02406Y01952*
X02407Y01952*
X02407Y01952*
X02407Y01952*
X02408Y01952*
X02408Y01952*
X02408Y01952*
X02408Y01953*
X02408Y01953*
X02409Y01953*
X02409Y01953*
X02409Y01953*
X02409Y01954*
X02409Y01954*
X0241Y01954*
X0241Y01954*
X0241Y01954*
X0241Y01955*
X0241Y01955*
X0241Y01955*
X0241Y01956*
X0241Y01956*
X02105Y01949D02*
D01*
X02105Y01949*
X02105Y01949*
X02105Y0195*
X02105Y0195*
X02105Y0195*
X02105Y0195*
X02105Y01951*
X02104Y01951*
X02104Y01951*
X02104Y01951*
X02104Y01952*
X02104Y01952*
X02103Y01952*
X02103Y01952*
X02103Y01952*
X02103Y01952*
X02103Y01952*
X02102Y01953*
X02102Y01953*
X02102Y01953*
X02101Y01953*
X02101Y01953*
X02101*
X02101Y01953*
X021Y01953*
X021Y01953*
X021Y01953*
X021Y01952*
X02099Y01952*
X02099Y01952*
X02099Y01952*
X02099Y01952*
X02098Y01952*
X02098Y01952*
X02098Y01951*
X02098Y01951*
X02098Y01951*
X02098Y01951*
X02097Y0195*
X02097Y0195*
X02097Y0195*
X02097Y0195*
X02097Y01949*
X02097Y01949*
X02097Y01949*
X02097Y01949*
X02097Y01948*
X02097Y01948*
X02097Y01948*
X02097Y01947*
X02097Y01947*
X02098Y01947*
X02098Y01947*
X02098Y01947*
X02098Y01946*
X02098Y01946*
X02098Y01946*
X02099Y01946*
X02099Y01946*
X02099Y01945*
X02099Y01945*
X021Y01945*
X021Y01945*
X021Y01945*
X021Y01945*
X02101Y01945*
X02101Y01945*
X02101*
X02101Y01945*
X02102Y01945*
X02102Y01945*
X02102Y01945*
X02103Y01945*
X02103Y01945*
X02103Y01945*
X02103Y01946*
X02103Y01946*
X02104Y01946*
X02104Y01946*
X02104Y01946*
X02104Y01947*
X02104Y01947*
X02105Y01947*
X02105Y01947*
X02105Y01947*
X02105Y01948*
X02105Y01948*
X02105Y01948*
X02105Y01949*
X02105Y01949*
X01494Y0195D02*
D01*
X01494Y0195*
X01494Y0195*
X01494Y01951*
X01494Y01951*
X01494Y01951*
X01494Y01951*
X01494Y01952*
X01493Y01952*
X01493Y01952*
X01493Y01952*
X01493Y01953*
X01493Y01953*
X01492Y01953*
X01492Y01953*
X01492Y01953*
X01492Y01953*
X01492Y01953*
X01491Y01954*
X01491Y01954*
X01491Y01954*
X0149Y01954*
X0149Y01954*
X0149*
X0149Y01954*
X01489Y01954*
X01489Y01954*
X01489Y01954*
X01489Y01953*
X01488Y01953*
X01488Y01953*
X01488Y01953*
X01488Y01953*
X01487Y01953*
X01487Y01953*
X01487Y01952*
X01487Y01952*
X01487Y01952*
X01487Y01952*
X01486Y01951*
X01486Y01951*
X01486Y01951*
X01486Y01951*
X01486Y0195*
X01486Y0195*
X01486Y0195*
X01486Y0195*
X01486Y01949*
X01486Y01949*
X01486Y01949*
X01486Y01948*
X01486Y01948*
X01487Y01948*
X01487Y01948*
X01487Y01948*
X01487Y01947*
X01487Y01947*
X01487Y01947*
X01488Y01947*
X01488Y01947*
X01488Y01946*
X01488Y01946*
X01489Y01946*
X01489Y01946*
X01489Y01946*
X01489Y01946*
X0149Y01946*
X0149Y01946*
X0149*
X0149Y01946*
X01491Y01946*
X01491Y01946*
X01491Y01946*
X01492Y01946*
X01492Y01946*
X01492Y01946*
X01492Y01947*
X01492Y01947*
X01493Y01947*
X01493Y01947*
X01493Y01947*
X01493Y01948*
X01493Y01948*
X01494Y01948*
X01494Y01948*
X01494Y01948*
X01494Y01949*
X01494Y01949*
X01494Y01949*
X01494Y0195*
X01494Y0195*
X01188D02*
D01*
X01188Y0195*
X01188Y0195*
X01188Y01951*
X01188Y01951*
X01188Y01951*
X01188Y01951*
X01188Y01952*
X01187Y01952*
X01187Y01952*
X01187Y01952*
X01187Y01953*
X01187Y01953*
X01186Y01953*
X01186Y01953*
X01186Y01953*
X01186Y01953*
X01186Y01953*
X01185Y01954*
X01185Y01954*
X01185Y01954*
X01184Y01954*
X01184Y01954*
X01184*
X01184Y01954*
X01183Y01954*
X01183Y01954*
X01183Y01954*
X01183Y01953*
X01182Y01953*
X01182Y01953*
X01182Y01953*
X01182Y01953*
X01181Y01953*
X01181Y01953*
X01181Y01952*
X01181Y01952*
X01181Y01952*
X01181Y01952*
X0118Y01951*
X0118Y01951*
X0118Y01951*
X0118Y01951*
X0118Y0195*
X0118Y0195*
X0118Y0195*
X0118Y0195*
X0118Y01949*
X0118Y01949*
X0118Y01949*
X0118Y01948*
X0118Y01948*
X01181Y01948*
X01181Y01948*
X01181Y01948*
X01181Y01947*
X01181Y01947*
X01181Y01947*
X01182Y01947*
X01182Y01947*
X01182Y01946*
X01182Y01946*
X01183Y01946*
X01183Y01946*
X01183Y01946*
X01183Y01946*
X01184Y01946*
X01184Y01946*
X01184*
X01184Y01946*
X01185Y01946*
X01185Y01946*
X01185Y01946*
X01186Y01946*
X01186Y01946*
X01186Y01946*
X01186Y01947*
X01186Y01947*
X01187Y01947*
X01187Y01947*
X01187Y01947*
X01187Y01948*
X01187Y01948*
X01188Y01948*
X01188Y01948*
X01188Y01948*
X01188Y01949*
X01188Y01949*
X01188Y01949*
X01188Y0195*
X01188Y0195*
X01349Y02264D02*
D01*
X01349Y02264*
X01349Y02264*
X01349Y02265*
X01349Y02265*
X01349Y02265*
X01349Y02265*
X01349Y02266*
X01348Y02266*
X01348Y02266*
X01348Y02266*
X01348Y02267*
X01348Y02267*
X01347Y02267*
X01347Y02267*
X01347Y02267*
X01347Y02267*
X01347Y02267*
X01346Y02268*
X01346Y02268*
X01346Y02268*
X01345Y02268*
X01345Y02268*
X01345*
X01345Y02268*
X01344Y02268*
X01344Y02268*
X01344Y02268*
X01344Y02267*
X01343Y02267*
X01343Y02267*
X01343Y02267*
X01343Y02267*
X01342Y02267*
X01342Y02267*
X01342Y02266*
X01342Y02266*
X01342Y02266*
X01342Y02266*
X01341Y02265*
X01341Y02265*
X01341Y02265*
X01341Y02265*
X01341Y02264*
X01341Y02264*
X01341Y02264*
X01341Y02264*
X01341Y02263*
X01341Y02263*
X01341Y02263*
X01341Y02262*
X01341Y02262*
X01342Y02262*
X01342Y02262*
X01342Y02262*
X01342Y02261*
X01342Y02261*
X01342Y02261*
X01343Y02261*
X01343Y02261*
X01343Y0226*
X01343Y0226*
X01344Y0226*
X01344Y0226*
X01344Y0226*
X01344Y0226*
X01345Y0226*
X01345Y0226*
X01345*
X01345Y0226*
X01346Y0226*
X01346Y0226*
X01346Y0226*
X01347Y0226*
X01347Y0226*
X01347Y0226*
X01347Y02261*
X01347Y02261*
X01348Y02261*
X01348Y02261*
X01348Y02261*
X01348Y02262*
X01348Y02262*
X01349Y02262*
X01349Y02262*
X01349Y02262*
X01349Y02263*
X01349Y02263*
X01349Y02263*
X01349Y02264*
X01349Y02264*
X02555Y02265D02*
D01*
X02555Y02265*
X02555Y02265*
X02555Y02266*
X02555Y02266*
X02555Y02266*
X02555Y02266*
X02555Y02267*
X02554Y02267*
X02554Y02267*
X02554Y02267*
X02554Y02268*
X02554Y02268*
X02553Y02268*
X02553Y02268*
X02553Y02268*
X02553Y02268*
X02553Y02268*
X02552Y02269*
X02552Y02269*
X02552Y02269*
X02551Y02269*
X02551Y02269*
X02551*
X02551Y02269*
X0255Y02269*
X0255Y02269*
X0255Y02269*
X0255Y02268*
X02549Y02268*
X02549Y02268*
X02549Y02268*
X02549Y02268*
X02548Y02268*
X02548Y02268*
X02548Y02267*
X02548Y02267*
X02548Y02267*
X02548Y02267*
X02547Y02266*
X02547Y02266*
X02547Y02266*
X02547Y02266*
X02547Y02265*
X02547Y02265*
X02547Y02265*
X02547Y02265*
X02547Y02264*
X02547Y02264*
X02547Y02264*
X02547Y02263*
X02547Y02263*
X02548Y02263*
X02548Y02263*
X02548Y02263*
X02548Y02262*
X02548Y02262*
X02548Y02262*
X02549Y02262*
X02549Y02262*
X02549Y02261*
X02549Y02261*
X0255Y02261*
X0255Y02261*
X0255Y02261*
X0255Y02261*
X02551Y02261*
X02551Y02261*
X02551*
X02551Y02261*
X02552Y02261*
X02552Y02261*
X02552Y02261*
X02553Y02261*
X02553Y02261*
X02553Y02261*
X02553Y02262*
X02553Y02262*
X02554Y02262*
X02554Y02262*
X02554Y02262*
X02554Y02263*
X02554Y02263*
X02555Y02263*
X02555Y02263*
X02555Y02263*
X02555Y02264*
X02555Y02264*
X02555Y02264*
X02555Y02265*
X02555Y02265*
X02714Y01956D02*
D01*
X02714Y01956*
X02714Y01956*
X02714Y01957*
X02714Y01957*
X02714Y01957*
X02714Y01957*
X02714Y01958*
X02713Y01958*
X02713Y01958*
X02713Y01958*
X02713Y01959*
X02713Y01959*
X02712Y01959*
X02712Y01959*
X02712Y01959*
X02712Y01959*
X02712Y01959*
X02711Y0196*
X02711Y0196*
X02711Y0196*
X0271Y0196*
X0271Y0196*
X0271*
X0271Y0196*
X02709Y0196*
X02709Y0196*
X02709Y0196*
X02709Y01959*
X02708Y01959*
X02708Y01959*
X02708Y01959*
X02708Y01959*
X02707Y01959*
X02707Y01959*
X02707Y01958*
X02707Y01958*
X02707Y01958*
X02707Y01958*
X02706Y01957*
X02706Y01957*
X02706Y01957*
X02706Y01957*
X02706Y01956*
X02706Y01956*
X02706Y01956*
X02706Y01956*
X02706Y01955*
X02706Y01955*
X02706Y01955*
X02706Y01954*
X02706Y01954*
X02707Y01954*
X02707Y01954*
X02707Y01954*
X02707Y01953*
X02707Y01953*
X02707Y01953*
X02708Y01953*
X02708Y01953*
X02708Y01952*
X02708Y01952*
X02709Y01952*
X02709Y01952*
X02709Y01952*
X02709Y01952*
X0271Y01952*
X0271Y01952*
X0271*
X0271Y01952*
X02711Y01952*
X02711Y01952*
X02711Y01952*
X02712Y01952*
X02712Y01952*
X02712Y01952*
X02712Y01953*
X02712Y01953*
X02713Y01953*
X02713Y01953*
X02713Y01953*
X02713Y01954*
X02713Y01954*
X02714Y01954*
X02714Y01954*
X02714Y01954*
X02714Y01955*
X02714Y01955*
X02714Y01955*
X02714Y01956*
X02714Y01956*
X00907Y02259D02*
D01*
X00907Y02268*
X00906Y02277*
X00904Y02286*
X00902Y02295*
X00899Y02304*
X00896Y02313*
X00892Y02321*
X00887Y02329*
X00882Y02337*
X00876Y02345*
X0087Y02351*
X00863Y02358*
X00856Y02364*
X00848Y02369*
X0084Y02374*
X00832Y02379*
X00824Y02383*
X00815Y02386*
X00806Y02388*
X00797Y0239*
X00787Y02392*
X00778Y02392*
X00769*
X0076Y02392*
X0075Y0239*
X00741Y02388*
X00732Y02386*
X00723Y02383*
X00715Y02379*
X00707Y02374*
X00699Y02369*
X00691Y02364*
X00684Y02358*
X00677Y02351*
X00671Y02345*
X00665Y02337*
X0066Y02329*
X00655Y02321*
X00651Y02313*
X00648Y02304*
X00645Y02295*
X00643Y02286*
X00641Y02277*
X0064Y02268*
X0064Y02259*
X0064Y02249*
X00641Y0224*
X00643Y02231*
X00645Y02222*
X00648Y02213*
X00651Y02204*
X00655Y02196*
X0066Y02188*
X00665Y0218*
X00671Y02172*
X00677Y02166*
X00684Y02159*
X00691Y02153*
X00699Y02148*
X00707Y02143*
X00715Y02138*
X00723Y02134*
X00732Y02131*
X00741Y02129*
X0075Y02127*
X0076Y02125*
X00769Y02125*
X00778*
X00787Y02125*
X00797Y02127*
X00806Y02129*
X00815Y02131*
X00824Y02134*
X00832Y02138*
X0084Y02143*
X00848Y02148*
X00856Y02153*
X00863Y02159*
X0087Y02166*
X00876Y02172*
X00882Y0218*
X00887Y02188*
X00892Y02196*
X00896Y02204*
X00899Y02213*
X00902Y02222*
X00904Y02231*
X00906Y0224*
X00907Y02249*
X00907Y02259*
X02804Y0046D02*
D01*
X02803Y00465*
X02803Y00471*
X02802Y00476*
X028Y00482*
X02799Y00487*
X02797Y00492*
X02794Y00497*
X02791Y00502*
X02788Y00507*
X02785Y00511*
X02781Y00515*
X02777Y00519*
X02773Y00523*
X02768Y00526*
X02764Y00529*
X02759Y00531*
X02753Y00534*
X02748Y00536*
X02743Y00537*
X02737Y00538*
X02732Y00539*
X02726Y00539*
X02721*
X02715Y00539*
X0271Y00538*
X02704Y00537*
X02699Y00536*
X02694Y00534*
X02688Y00531*
X02684Y00529*
X02679Y00526*
X02674Y00523*
X0267Y00519*
X02666Y00515*
X02662Y00511*
X02659Y00507*
X02656Y00502*
X02653Y00497*
X0265Y00492*
X02648Y00487*
X02647Y00482*
X02645Y00476*
X02644Y00471*
X02644Y00465*
X02644Y0046*
X02644Y00454*
X02644Y00448*
X02645Y00443*
X02647Y00437*
X02648Y00432*
X0265Y00427*
X02653Y00422*
X02656Y00417*
X02659Y00412*
X02662Y00408*
X02666Y00404*
X0267Y004*
X02674Y00396*
X02679Y00393*
X02684Y0039*
X02688Y00388*
X02694Y00385*
X02699Y00383*
X02704Y00382*
X0271Y00381*
X02715Y0038*
X02721Y0038*
X02726*
X02732Y0038*
X02737Y00381*
X02743Y00382*
X02748Y00383*
X02753Y00385*
X02759Y00388*
X02764Y0039*
X02768Y00393*
X02773Y00396*
X02777Y004*
X02781Y00404*
X02785Y00408*
X02788Y00412*
X02791Y00417*
X02794Y00422*
X02797Y00427*
X02799Y00432*
X028Y00437*
X02802Y00443*
X02803Y00448*
X02803Y00454*
X02804Y0046*
X03509Y00845D02*
D01*
X03509Y00863*
X03507Y00881*
X03503Y009*
X03499Y00918*
X03493Y00935*
X03486Y00953*
X03478Y00969*
X03469Y00985*
X03458Y01001*
X03447Y01015*
X03435Y01029*
X03421Y01042*
X03407Y01054*
X03392Y01065*
X03376Y01075*
X0336Y01083*
X03343Y01091*
X03326Y01097*
X03308Y01102*
X0329Y01106*
X03271Y01109*
X03253Y0111*
X03234*
X03216Y01109*
X03197Y01106*
X03179Y01102*
X03161Y01097*
X03144Y01091*
X03127Y01083*
X03111Y01075*
X03095Y01065*
X0308Y01054*
X03066Y01042*
X03052Y01029*
X0304Y01015*
X03029Y01001*
X03018Y00985*
X03009Y00969*
X03001Y00953*
X02994Y00935*
X02988Y00918*
X02984Y009*
X0298Y00881*
X02978Y00863*
X02978Y00845*
X02978Y00826*
X0298Y00808*
X02984Y00789*
X02988Y00771*
X02994Y00754*
X03001Y00736*
X03009Y0072*
X03018Y00704*
X03029Y00688*
X0304Y00674*
X03052Y0066*
X03066Y00647*
X0308Y00635*
X03095Y00624*
X03111Y00614*
X03127Y00606*
X03144Y00598*
X03161Y00592*
X03179Y00587*
X03197Y00583*
X03216Y0058*
X03234Y00579*
X03253*
X03271Y0058*
X0329Y00583*
X03308Y00587*
X03326Y00592*
X03343Y00598*
X0336Y00606*
X03376Y00614*
X03392Y00624*
X03407Y00635*
X03421Y00647*
X03435Y0066*
X03447Y00674*
X03458Y00688*
X03469Y00704*
X03478Y0072*
X03486Y00736*
X03493Y00754*
X03499Y00771*
X03503Y00789*
X03507Y00808*
X03509Y00826*
X03509Y00845*
X03395Y003D02*
D01*
X03395Y00318*
X03393Y00336*
X03389Y00355*
X03385Y00373*
X03379Y0039*
X03372Y00408*
X03364Y00424*
X03355Y0044*
X03344Y00456*
X03333Y0047*
X03321Y00484*
X03307Y00497*
X03293Y00509*
X03278Y0052*
X03262Y0053*
X03246Y00538*
X03229Y00546*
X03212Y00552*
X03194Y00557*
X03176Y00561*
X03157Y00564*
X03139Y00565*
X0312*
X03102Y00564*
X03083Y00561*
X03065Y00557*
X03047Y00552*
X0303Y00546*
X03013Y00538*
X02997Y0053*
X02981Y0052*
X02966Y00509*
X02952Y00497*
X02938Y00484*
X02926Y0047*
X02915Y00456*
X02904Y0044*
X02895Y00424*
X02887Y00408*
X0288Y0039*
X02874Y00373*
X0287Y00355*
X02866Y00336*
X02864Y00318*
X02864Y003*
X02864Y00281*
X02866Y00263*
X0287Y00244*
X02874Y00226*
X0288Y00209*
X02887Y00191*
X02895Y00175*
X02904Y00159*
X02915Y00143*
X02926Y00129*
X02938Y00115*
X02952Y00102*
X02966Y0009*
X02981Y00079*
X02997Y00069*
X03013Y00061*
X0303Y00053*
X03047Y00047*
X03065Y00042*
X03083Y00038*
X03102Y00035*
X0312Y00034*
X03139*
X03157Y00035*
X03176Y00038*
X03194Y00042*
X03212Y00047*
X03229Y00053*
X03246Y00061*
X03262Y00069*
X03278Y00079*
X03293Y0009*
X03307Y00102*
X03321Y00115*
X03333Y00129*
X03344Y00143*
X03355Y00159*
X03364Y00175*
X03372Y00191*
X03379Y00209*
X03385Y00226*
X03389Y00244*
X03393Y00263*
X03395Y00281*
X03395Y003*
X02585Y0046D02*
D01*
X02584Y00465*
X02584Y00471*
X02583Y00476*
X02581Y00482*
X0258Y00487*
X02578Y00492*
X02575Y00497*
X02572Y00502*
X02569Y00507*
X02566Y00511*
X02562Y00515*
X02558Y00519*
X02554Y00523*
X02549Y00526*
X02545Y00529*
X0254Y00531*
X02534Y00534*
X02529Y00536*
X02524Y00537*
X02518Y00538*
X02513Y00539*
X02507Y00539*
X02502*
X02496Y00539*
X02491Y00538*
X02485Y00537*
X0248Y00536*
X02475Y00534*
X02469Y00531*
X02465Y00529*
X0246Y00526*
X02455Y00523*
X02451Y00519*
X02447Y00515*
X02443Y00511*
X0244Y00507*
X02437Y00502*
X02434Y00497*
X02431Y00492*
X02429Y00487*
X02428Y00482*
X02426Y00476*
X02425Y00471*
X02425Y00465*
X02425Y0046*
X02425Y00454*
X02425Y00448*
X02426Y00443*
X02428Y00437*
X02429Y00432*
X02431Y00427*
X02434Y00422*
X02437Y00417*
X0244Y00412*
X02443Y00408*
X02447Y00404*
X02451Y004*
X02455Y00396*
X0246Y00393*
X02465Y0039*
X02469Y00388*
X02475Y00385*
X0248Y00383*
X02485Y00382*
X02491Y00381*
X02496Y0038*
X02502Y0038*
X02507*
X02513Y0038*
X02518Y00381*
X02524Y00382*
X02529Y00383*
X02534Y00385*
X0254Y00388*
X02545Y0039*
X02549Y00393*
X02554Y00396*
X02558Y004*
X02562Y00404*
X02566Y00408*
X02569Y00412*
X02572Y00417*
X02575Y00422*
X02578Y00427*
X0258Y00432*
X02581Y00437*
X02583Y00443*
X02584Y00448*
X02584Y00454*
X02585Y0046*
X03169Y01216D02*
D01*
X03169Y01216*
X03169Y01216*
X03169Y01216*
X03169Y01217*
X03169Y01217*
X03169Y01217*
X03168Y01217*
X03168Y01218*
X03168Y01218*
X03168Y01218*
X03168Y01218*
X03168Y01218*
X03167Y01219*
X03167Y01219*
X03167Y01219*
X03167Y01219*
X03166Y01219*
X03166Y01219*
X03166Y01219*
X03166Y01219*
X03165Y01219*
X03165Y01219*
X03165*
X03164Y01219*
X03164Y01219*
X03164Y01219*
X03164Y01219*
X03163Y01219*
X03163Y01219*
X03163Y01219*
X03163Y01219*
X03162Y01219*
X03162Y01218*
X03162Y01218*
X03162Y01218*
X03162Y01218*
X03162Y01218*
X03161Y01217*
X03161Y01217*
X03161Y01217*
X03161Y01217*
X03161Y01216*
X03161Y01216*
X03161Y01216*
X03161Y01216*
X03161Y01215*
X03161Y01215*
X03161Y01215*
X03161Y01214*
X03161Y01214*
X03161Y01214*
X03161Y01214*
X03162Y01213*
X03162Y01213*
X03162Y01213*
X03162Y01213*
X03162Y01213*
X03162Y01212*
X03163Y01212*
X03163Y01212*
X03163Y01212*
X03163Y01212*
X03164Y01212*
X03164Y01212*
X03164Y01212*
X03164Y01212*
X03165Y01212*
X03165*
X03165Y01212*
X03166Y01212*
X03166Y01212*
X03166Y01212*
X03166Y01212*
X03167Y01212*
X03167Y01212*
X03167Y01212*
X03167Y01212*
X03168Y01213*
X03168Y01213*
X03168Y01213*
X03168Y01213*
X03168Y01213*
X03168Y01214*
X03169Y01214*
X03169Y01214*
X03169Y01214*
X03169Y01215*
X03169Y01215*
X03169Y01215*
X03169Y01216*
X02371Y00517D02*
D01*
X02371Y00526*
X0237Y00535*
X02368Y00544*
X02366Y00553*
X02363Y00562*
X0236Y00571*
X02356Y00579*
X02351Y00587*
X02346Y00595*
X0234Y00603*
X02334Y00609*
X02327Y00616*
X0232Y00622*
X02312Y00627*
X02304Y00632*
X02296Y00637*
X02288Y00641*
X02279Y00644*
X0227Y00646*
X02261Y00648*
X02251Y0065*
X02242Y0065*
X02233*
X02224Y0065*
X02214Y00648*
X02205Y00646*
X02196Y00644*
X02187Y00641*
X02179Y00637*
X02171Y00632*
X02163Y00627*
X02155Y00622*
X02148Y00616*
X02141Y00609*
X02135Y00603*
X02129Y00595*
X02124Y00587*
X02119Y00579*
X02115Y00571*
X02112Y00562*
X02109Y00553*
X02107Y00544*
X02105Y00535*
X02104Y00526*
X02104Y00517*
X02104Y00507*
X02105Y00498*
X02107Y00489*
X02109Y0048*
X02112Y00471*
X02115Y00462*
X02119Y00454*
X02124Y00446*
X02129Y00438*
X02135Y0043*
X02141Y00424*
X02148Y00417*
X02155Y00411*
X02163Y00406*
X02171Y00401*
X02179Y00396*
X02187Y00392*
X02196Y00389*
X02205Y00387*
X02214Y00385*
X02224Y00383*
X02233Y00383*
X02242*
X02251Y00383*
X02261Y00385*
X0227Y00387*
X02279Y00389*
X02288Y00392*
X02296Y00396*
X02304Y00401*
X02312Y00406*
X0232Y00411*
X02327Y00417*
X02334Y00424*
X0234Y0043*
X02346Y00438*
X02351Y00446*
X02356Y00454*
X0236Y00462*
X02363Y00471*
X02366Y0048*
X02368Y00489*
X0237Y00498*
X02371Y00507*
X02371Y00517*
X01867Y00456D02*
D01*
X01866Y00461*
X01866Y00467*
X01865Y00472*
X01863Y00478*
X01862Y00483*
X0186Y00488*
X01857Y00493*
X01854Y00498*
X01851Y00503*
X01848Y00507*
X01844Y00511*
X0184Y00515*
X01836Y00519*
X01831Y00522*
X01827Y00525*
X01822Y00527*
X01816Y0053*
X01811Y00532*
X01806Y00533*
X018Y00534*
X01795Y00535*
X01789Y00535*
X01784*
X01778Y00535*
X01773Y00534*
X01767Y00533*
X01762Y00532*
X01757Y0053*
X01751Y00527*
X01747Y00525*
X01742Y00522*
X01737Y00519*
X01733Y00515*
X01729Y00511*
X01725Y00507*
X01722Y00503*
X01719Y00498*
X01716Y00493*
X01713Y00488*
X01711Y00483*
X0171Y00478*
X01708Y00472*
X01707Y00467*
X01707Y00461*
X01707Y00456*
X01707Y0045*
X01707Y00444*
X01708Y00439*
X0171Y00433*
X01711Y00428*
X01713Y00423*
X01716Y00418*
X01719Y00413*
X01722Y00408*
X01725Y00404*
X01729Y004*
X01733Y00396*
X01737Y00392*
X01742Y00389*
X01747Y00386*
X01751Y00384*
X01757Y00381*
X01762Y00379*
X01767Y00378*
X01773Y00377*
X01778Y00376*
X01784Y00376*
X01789*
X01795Y00376*
X018Y00377*
X01806Y00378*
X01811Y00379*
X01816Y00381*
X01822Y00384*
X01827Y00386*
X01831Y00389*
X01836Y00392*
X0184Y00396*
X01844Y004*
X01848Y00404*
X01851Y00408*
X01854Y00413*
X01857Y00418*
X0186Y00423*
X01862Y00428*
X01863Y00433*
X01865Y00439*
X01866Y00444*
X01866Y0045*
X01867Y00456*
X0208D02*
D01*
X02079Y00461*
X02079Y00467*
X02078Y00472*
X02076Y00478*
X02075Y00483*
X02073Y00488*
X0207Y00493*
X02067Y00498*
X02064Y00503*
X02061Y00507*
X02057Y00511*
X02053Y00515*
X02049Y00519*
X02044Y00522*
X0204Y00525*
X02035Y00527*
X02029Y0053*
X02024Y00532*
X02019Y00533*
X02013Y00534*
X02008Y00535*
X02002Y00535*
X01997*
X01991Y00535*
X01986Y00534*
X0198Y00533*
X01975Y00532*
X0197Y0053*
X01964Y00527*
X0196Y00525*
X01955Y00522*
X0195Y00519*
X01946Y00515*
X01942Y00511*
X01938Y00507*
X01935Y00503*
X01932Y00498*
X01929Y00493*
X01926Y00488*
X01924Y00483*
X01923Y00478*
X01921Y00472*
X0192Y00467*
X0192Y00461*
X0192Y00456*
X0192Y0045*
X0192Y00444*
X01921Y00439*
X01923Y00433*
X01924Y00428*
X01926Y00423*
X01929Y00418*
X01932Y00413*
X01935Y00408*
X01938Y00404*
X01942Y004*
X01946Y00396*
X0195Y00392*
X01955Y00389*
X0196Y00386*
X01964Y00384*
X0197Y00381*
X01975Y00379*
X0198Y00378*
X01986Y00377*
X01991Y00376*
X01997Y00376*
X02002*
X02008Y00376*
X02013Y00377*
X02019Y00378*
X02024Y00379*
X02029Y00381*
X02035Y00384*
X0204Y00386*
X02044Y00389*
X02049Y00392*
X02053Y00396*
X02057Y004*
X02061Y00404*
X02064Y00408*
X02067Y00413*
X0207Y00418*
X02073Y00423*
X02075Y00428*
X02076Y00433*
X02078Y00439*
X02079Y00444*
X02079Y0045*
X0208Y00456*
X02371Y00818D02*
D01*
X02371Y00827*
X0237Y00836*
X02368Y00845*
X02366Y00854*
X02363Y00863*
X0236Y00872*
X02356Y0088*
X02351Y00888*
X02346Y00896*
X0234Y00904*
X02334Y0091*
X02327Y00917*
X0232Y00923*
X02312Y00928*
X02304Y00933*
X02296Y00938*
X02288Y00942*
X02279Y00945*
X0227Y00947*
X02261Y00949*
X02251Y00951*
X02242Y00951*
X02233*
X02224Y00951*
X02214Y00949*
X02205Y00947*
X02196Y00945*
X02187Y00942*
X02179Y00938*
X02171Y00933*
X02163Y00928*
X02155Y00923*
X02148Y00917*
X02141Y0091*
X02135Y00904*
X02129Y00896*
X02124Y00888*
X02119Y0088*
X02115Y00872*
X02112Y00863*
X02109Y00854*
X02107Y00845*
X02105Y00836*
X02104Y00827*
X02104Y00818*
X02104Y00808*
X02105Y00799*
X02107Y0079*
X02109Y00781*
X02112Y00772*
X02115Y00763*
X02119Y00755*
X02124Y00747*
X02129Y00739*
X02135Y00731*
X02141Y00725*
X02148Y00718*
X02155Y00712*
X02163Y00707*
X02171Y00702*
X02179Y00697*
X02187Y00693*
X02196Y0069*
X02205Y00688*
X02214Y00686*
X02224Y00684*
X02233Y00684*
X02242*
X02251Y00684*
X02261Y00686*
X0227Y00688*
X02279Y0069*
X02288Y00693*
X02296Y00697*
X02304Y00702*
X02312Y00707*
X0232Y00712*
X02327Y00718*
X02334Y00725*
X0234Y00731*
X02346Y00739*
X02351Y00747*
X02356Y00755*
X0236Y00763*
X02363Y00772*
X02366Y00781*
X02368Y0079*
X0237Y00799*
X02371Y00808*
X02371Y00818*
X02563Y0122D02*
D01*
X02563Y0122*
X02563Y0122*
X02563Y0122*
X02563Y01221*
X02563Y01221*
X02563Y01221*
X02562Y01221*
X02562Y01222*
X02562Y01222*
X02562Y01222*
X02562Y01222*
X02562Y01222*
X02561Y01223*
X02561Y01223*
X02561Y01223*
X02561Y01223*
X0256Y01223*
X0256Y01223*
X0256Y01223*
X0256Y01223*
X02559Y01223*
X02559Y01223*
X02559*
X02558Y01223*
X02558Y01223*
X02558Y01223*
X02558Y01223*
X02557Y01223*
X02557Y01223*
X02557Y01223*
X02557Y01223*
X02556Y01223*
X02556Y01222*
X02556Y01222*
X02556Y01222*
X02556Y01222*
X02556Y01222*
X02555Y01221*
X02555Y01221*
X02555Y01221*
X02555Y01221*
X02555Y0122*
X02555Y0122*
X02555Y0122*
X02555Y0122*
X02555Y01219*
X02555Y01219*
X02555Y01219*
X02555Y01218*
X02555Y01218*
X02555Y01218*
X02555Y01218*
X02556Y01217*
X02556Y01217*
X02556Y01217*
X02556Y01217*
X02556Y01217*
X02556Y01216*
X02557Y01216*
X02557Y01216*
X02557Y01216*
X02557Y01216*
X02558Y01216*
X02558Y01216*
X02558Y01216*
X02558Y01216*
X02559Y01216*
X02559*
X02559Y01216*
X0256Y01216*
X0256Y01216*
X0256Y01216*
X0256Y01216*
X02561Y01216*
X02561Y01216*
X02561Y01216*
X02561Y01216*
X02562Y01217*
X02562Y01217*
X02562Y01217*
X02562Y01217*
X02562Y01217*
X02562Y01218*
X02563Y01218*
X02563Y01218*
X02563Y01218*
X02563Y01219*
X02563Y01219*
X02563Y01219*
X02563Y0122*
X01649Y003D02*
D01*
X01649Y00309*
X01648Y00318*
X01646Y00327*
X01644Y00336*
X01641Y00345*
X01638Y00354*
X01634Y00362*
X01629Y0037*
X01624Y00378*
X01618Y00386*
X01612Y00392*
X01605Y00399*
X01598Y00405*
X0159Y0041*
X01582Y00415*
X01574Y0042*
X01566Y00424*
X01557Y00427*
X01548Y00429*
X01539Y00431*
X01529Y00433*
X0152Y00433*
X01511*
X01502Y00433*
X01492Y00431*
X01483Y00429*
X01474Y00427*
X01465Y00424*
X01457Y0042*
X01449Y00415*
X01441Y0041*
X01433Y00405*
X01426Y00399*
X01419Y00392*
X01413Y00386*
X01407Y00378*
X01402Y0037*
X01397Y00362*
X01393Y00354*
X0139Y00345*
X01387Y00336*
X01385Y00327*
X01383Y00318*
X01382Y00309*
X01382Y003*
X01382Y0029*
X01383Y00281*
X01385Y00272*
X01387Y00263*
X0139Y00254*
X01393Y00245*
X01397Y00237*
X01402Y00229*
X01407Y00221*
X01413Y00213*
X01419Y00207*
X01426Y002*
X01433Y00194*
X01441Y00189*
X01449Y00184*
X01457Y00179*
X01465Y00175*
X01474Y00172*
X01483Y0017*
X01492Y00168*
X01502Y00166*
X01511Y00166*
X0152*
X01529Y00166*
X01539Y00168*
X01548Y0017*
X01557Y00172*
X01566Y00175*
X01574Y00179*
X01582Y00184*
X0159Y00189*
X01598Y00194*
X01605Y002*
X01612Y00207*
X01618Y00213*
X01624Y00221*
X01629Y00229*
X01634Y00237*
X01638Y00245*
X01641Y00254*
X01644Y00263*
X01646Y00272*
X01648Y00281*
X01649Y0029*
X01649Y003*
X0194Y00214D02*
D01*
X0194Y00223*
X01939Y00232*
X01937Y00241*
X01935Y0025*
X01932Y00259*
X01929Y00268*
X01925Y00276*
X0192Y00284*
X01915Y00292*
X01909Y003*
X01903Y00306*
X01896Y00313*
X01889Y00319*
X01881Y00324*
X01873Y00329*
X01865Y00334*
X01857Y00338*
X01848Y00341*
X01839Y00343*
X0183Y00345*
X0182Y00347*
X01811Y00347*
X01802*
X01793Y00347*
X01783Y00345*
X01774Y00343*
X01765Y00341*
X01756Y00338*
X01748Y00334*
X0174Y00329*
X01732Y00324*
X01724Y00319*
X01717Y00313*
X0171Y00306*
X01704Y003*
X01698Y00292*
X01693Y00284*
X01688Y00276*
X01684Y00268*
X01681Y00259*
X01678Y0025*
X01676Y00241*
X01674Y00232*
X01673Y00223*
X01673Y00214*
X01673Y00204*
X01674Y00195*
X01676Y00186*
X01678Y00177*
X01681Y00168*
X01684Y00159*
X01688Y00151*
X01693Y00143*
X01698Y00135*
X01704Y00127*
X0171Y00121*
X01717Y00114*
X01724Y00108*
X01732Y00103*
X0174Y00098*
X01748Y00093*
X01756Y00089*
X01765Y00086*
X01774Y00084*
X01783Y00082*
X01793Y0008*
X01802Y0008*
X01811*
X0182Y0008*
X0183Y00082*
X01839Y00084*
X01848Y00086*
X01857Y00089*
X01865Y00093*
X01873Y00098*
X01881Y00103*
X01889Y00108*
X01896Y00114*
X01903Y00121*
X01909Y00127*
X01915Y00135*
X0192Y00143*
X01925Y00151*
X01929Y00159*
X01932Y00168*
X01935Y00177*
X01937Y00186*
X01939Y00195*
X0194Y00204*
X0194Y00214*
X01881Y00974D02*
D01*
X01881Y00974*
X01881Y00975*
X01881Y00975*
X01881Y00975*
X01881Y00976*
X01881Y00976*
X01881Y00976*
X01881Y00976*
X01881Y00976*
X01881Y00977*
X0188Y00977*
X0188Y00977*
X0188Y00977*
X0188Y00977*
X01879Y00978*
X01879Y00978*
X01879Y00978*
X01879Y00978*
X01878Y00978*
X01878Y00978*
X01878Y00978*
X01878Y00978*
X01877*
X01877Y00978*
X01877Y00978*
X01877Y00978*
X01876Y00978*
X01876Y00978*
X01876Y00978*
X01876Y00978*
X01875Y00977*
X01875Y00977*
X01875Y00977*
X01875Y00977*
X01874Y00977*
X01874Y00976*
X01874Y00976*
X01874Y00976*
X01874Y00976*
X01874Y00976*
X01874Y00975*
X01874Y00975*
X01874Y00975*
X01874Y00974*
X01874Y00974*
X01874Y00974*
X01874Y00974*
X01874Y00973*
X01874Y00973*
X01874Y00973*
X01874Y00973*
X01874Y00972*
X01874Y00972*
X01874Y00972*
X01874Y00972*
X01875Y00971*
X01875Y00971*
X01875Y00971*
X01875Y00971*
X01876Y00971*
X01876Y00971*
X01876Y00971*
X01876Y0097*
X01877Y0097*
X01877Y0097*
X01877Y0097*
X01877Y0097*
X01878*
X01878Y0097*
X01878Y0097*
X01878Y0097*
X01879Y0097*
X01879Y00971*
X01879Y00971*
X01879Y00971*
X0188Y00971*
X0188Y00971*
X0188Y00971*
X0188Y00971*
X01881Y00972*
X01881Y00972*
X01881Y00972*
X01881Y00972*
X01881Y00973*
X01881Y00973*
X01881Y00973*
X01881Y00973*
X01881Y00974*
X01881Y00974*
X01881Y00974*
X01769Y00566D02*
D01*
X01769Y00566*
X01769Y00566*
X01769Y00567*
X01769Y00567*
X01769Y00567*
X01769Y00567*
X01769Y00568*
X01769Y00568*
X01769Y00568*
X01769Y00568*
X01768Y00569*
X01768Y00569*
X01768Y00569*
X01768Y00569*
X01767Y00569*
X01767Y00569*
X01767Y00569*
X01767Y0057*
X01766Y0057*
X01766Y0057*
X01766Y0057*
X01766Y0057*
X01765*
X01765Y0057*
X01765Y0057*
X01765Y0057*
X01764Y0057*
X01764Y00569*
X01764Y00569*
X01764Y00569*
X01763Y00569*
X01763Y00569*
X01763Y00569*
X01763Y00569*
X01762Y00568*
X01762Y00568*
X01762Y00568*
X01762Y00568*
X01762Y00567*
X01762Y00567*
X01762Y00567*
X01762Y00567*
X01762Y00566*
X01762Y00566*
X01762Y00566*
X01762Y00566*
X01762Y00565*
X01762Y00565*
X01762Y00565*
X01762Y00564*
X01762Y00564*
X01762Y00564*
X01762Y00564*
X01762Y00564*
X01762Y00563*
X01763Y00563*
X01763Y00563*
X01763Y00563*
X01763Y00563*
X01764Y00562*
X01764Y00562*
X01764Y00562*
X01764Y00562*
X01765Y00562*
X01765Y00562*
X01765Y00562*
X01765Y00562*
X01766*
X01766Y00562*
X01766Y00562*
X01766Y00562*
X01767Y00562*
X01767Y00562*
X01767Y00562*
X01767Y00562*
X01768Y00563*
X01768Y00563*
X01768Y00563*
X01768Y00563*
X01769Y00563*
X01769Y00564*
X01769Y00564*
X01769Y00564*
X01769Y00564*
X01769Y00564*
X01769Y00565*
X01769Y00565*
X01769Y00565*
X01769Y00566*
X01769Y00566*
X01332Y00973D02*
D01*
X01332Y00973*
X01332Y00974*
X01332Y00974*
X01332Y00974*
X01332Y00975*
X01332Y00975*
X01332Y00975*
X01332Y00975*
X01332Y00975*
X01332Y00976*
X01331Y00976*
X01331Y00976*
X01331Y00976*
X01331Y00976*
X0133Y00977*
X0133Y00977*
X0133Y00977*
X0133Y00977*
X01329Y00977*
X01329Y00977*
X01329Y00977*
X01329Y00977*
X01328*
X01328Y00977*
X01328Y00977*
X01328Y00977*
X01327Y00977*
X01327Y00977*
X01327Y00977*
X01327Y00977*
X01326Y00976*
X01326Y00976*
X01326Y00976*
X01326Y00976*
X01325Y00976*
X01325Y00975*
X01325Y00975*
X01325Y00975*
X01325Y00975*
X01325Y00975*
X01325Y00974*
X01325Y00974*
X01325Y00974*
X01325Y00973*
X01325Y00973*
X01325Y00973*
X01325Y00973*
X01325Y00972*
X01325Y00972*
X01325Y00972*
X01325Y00972*
X01325Y00971*
X01325Y00971*
X01325Y00971*
X01325Y00971*
X01326Y0097*
X01326Y0097*
X01326Y0097*
X01326Y0097*
X01327Y0097*
X01327Y0097*
X01327Y0097*
X01327Y00969*
X01328Y00969*
X01328Y00969*
X01328Y00969*
X01328Y00969*
X01329*
X01329Y00969*
X01329Y00969*
X01329Y00969*
X0133Y00969*
X0133Y0097*
X0133Y0097*
X0133Y0097*
X01331Y0097*
X01331Y0097*
X01331Y0097*
X01331Y0097*
X01332Y00971*
X01332Y00971*
X01332Y00971*
X01332Y00971*
X01332Y00972*
X01332Y00972*
X01332Y00972*
X01332Y00972*
X01332Y00973*
X01332Y00973*
X01332Y00973*
X01221Y00566D02*
D01*
X01221Y00566*
X01221Y00566*
X01221Y00567*
X01221Y00567*
X01221Y00567*
X01221Y00567*
X01221Y00568*
X01221Y00568*
X01221Y00568*
X01221Y00568*
X0122Y00569*
X0122Y00569*
X0122Y00569*
X0122Y00569*
X01219Y00569*
X01219Y00569*
X01219Y00569*
X01219Y0057*
X01218Y0057*
X01218Y0057*
X01218Y0057*
X01218Y0057*
X01217*
X01217Y0057*
X01217Y0057*
X01217Y0057*
X01216Y0057*
X01216Y00569*
X01216Y00569*
X01216Y00569*
X01215Y00569*
X01215Y00569*
X01215Y00569*
X01215Y00569*
X01214Y00568*
X01214Y00568*
X01214Y00568*
X01214Y00568*
X01214Y00567*
X01214Y00567*
X01214Y00567*
X01214Y00567*
X01214Y00566*
X01214Y00566*
X01214Y00566*
X01214Y00566*
X01214Y00565*
X01214Y00565*
X01214Y00565*
X01214Y00564*
X01214Y00564*
X01214Y00564*
X01214Y00564*
X01214Y00564*
X01214Y00563*
X01215Y00563*
X01215Y00563*
X01215Y00563*
X01215Y00563*
X01216Y00562*
X01216Y00562*
X01216Y00562*
X01216Y00562*
X01217Y00562*
X01217Y00562*
X01217Y00562*
X01217Y00562*
X01218*
X01218Y00562*
X01218Y00562*
X01218Y00562*
X01219Y00562*
X01219Y00562*
X01219Y00562*
X01219Y00562*
X0122Y00563*
X0122Y00563*
X0122Y00563*
X0122Y00563*
X01221Y00563*
X01221Y00564*
X01221Y00564*
X01221Y00564*
X01221Y00564*
X01221Y00564*
X01221Y00565*
X01221Y00565*
X01221Y00565*
X01221Y00566*
X01221Y00566*
X00999Y00973D02*
D01*
X00999Y00973*
X00999Y00974*
X00999Y00974*
X00999Y00974*
X00999Y00975*
X00999Y00975*
X00999Y00975*
X00999Y00975*
X00999Y00975*
X00999Y00976*
X00998Y00976*
X00998Y00976*
X00998Y00976*
X00998Y00976*
X00997Y00977*
X00997Y00977*
X00997Y00977*
X00997Y00977*
X00996Y00977*
X00996Y00977*
X00996Y00977*
X00996Y00977*
X00995*
X00995Y00977*
X00995Y00977*
X00995Y00977*
X00994Y00977*
X00994Y00977*
X00994Y00977*
X00994Y00977*
X00993Y00976*
X00993Y00976*
X00993Y00976*
X00993Y00976*
X00992Y00976*
X00992Y00975*
X00992Y00975*
X00992Y00975*
X00992Y00975*
X00992Y00975*
X00992Y00974*
X00992Y00974*
X00992Y00974*
X00992Y00973*
X00992Y00973*
X00992Y00973*
X00992Y00973*
X00992Y00972*
X00992Y00972*
X00992Y00972*
X00992Y00972*
X00992Y00971*
X00992Y00971*
X00992Y00971*
X00992Y00971*
X00993Y0097*
X00993Y0097*
X00993Y0097*
X00993Y0097*
X00994Y0097*
X00994Y0097*
X00994Y0097*
X00994Y00969*
X00995Y00969*
X00995Y00969*
X00995Y00969*
X00995Y00969*
X00996*
X00996Y00969*
X00996Y00969*
X00996Y00969*
X00997Y00969*
X00997Y0097*
X00997Y0097*
X00997Y0097*
X00998Y0097*
X00998Y0097*
X00998Y0097*
X00998Y0097*
X00999Y00971*
X00999Y00971*
X00999Y00971*
X00999Y00971*
X00999Y00972*
X00999Y00972*
X00999Y00972*
X00999Y00972*
X00999Y00973*
X00999Y00973*
X00999Y00973*
X01553Y00691D02*
D01*
X01552Y00696*
X01552Y00702*
X01551Y00707*
X01549Y00713*
X01548Y00718*
X01546Y00723*
X01543Y00728*
X0154Y00733*
X01537Y00738*
X01534Y00742*
X0153Y00746*
X01526Y0075*
X01522Y00754*
X01517Y00757*
X01513Y0076*
X01508Y00762*
X01502Y00765*
X01497Y00767*
X01492Y00768*
X01486Y00769*
X01481Y0077*
X01475Y0077*
X0147*
X01464Y0077*
X01459Y00769*
X01453Y00768*
X01448Y00767*
X01443Y00765*
X01437Y00762*
X01433Y0076*
X01428Y00757*
X01423Y00754*
X01419Y0075*
X01415Y00746*
X01411Y00742*
X01408Y00738*
X01405Y00733*
X01402Y00728*
X01399Y00723*
X01397Y00718*
X01396Y00713*
X01394Y00707*
X01393Y00702*
X01393Y00696*
X01393Y00691*
X01393Y00685*
X01393Y00679*
X01394Y00674*
X01396Y00668*
X01397Y00663*
X01399Y00658*
X01402Y00653*
X01405Y00648*
X01408Y00643*
X01411Y00639*
X01415Y00635*
X01419Y00631*
X01423Y00627*
X01428Y00624*
X01433Y00621*
X01437Y00619*
X01443Y00616*
X01448Y00614*
X01453Y00613*
X01459Y00612*
X01464Y00611*
X0147Y00611*
X01475*
X01481Y00611*
X01486Y00612*
X01492Y00613*
X01497Y00614*
X01502Y00616*
X01508Y00619*
X01513Y00621*
X01517Y00624*
X01522Y00627*
X01526Y00631*
X0153Y00635*
X01534Y00639*
X01537Y00643*
X0154Y00648*
X01543Y00653*
X01546Y00658*
X01548Y00663*
X01549Y00668*
X01551Y00674*
X01552Y00679*
X01552Y00685*
X01553Y00691*
Y00901D02*
D01*
X01552Y00906*
X01552Y00912*
X01551Y00917*
X01549Y00923*
X01548Y00928*
X01546Y00933*
X01543Y00938*
X0154Y00943*
X01537Y00948*
X01534Y00952*
X0153Y00956*
X01526Y0096*
X01522Y00964*
X01517Y00967*
X01513Y0097*
X01508Y00972*
X01502Y00975*
X01497Y00977*
X01492Y00978*
X01486Y00979*
X01481Y0098*
X01475Y0098*
X0147*
X01464Y0098*
X01459Y00979*
X01453Y00978*
X01448Y00977*
X01443Y00975*
X01437Y00972*
X01433Y0097*
X01428Y00967*
X01423Y00964*
X01419Y0096*
X01415Y00956*
X01411Y00952*
X01408Y00948*
X01405Y00943*
X01402Y00938*
X01399Y00933*
X01397Y00928*
X01396Y00923*
X01394Y00917*
X01393Y00912*
X01393Y00906*
X01393Y00901*
X01393Y00895*
X01393Y00889*
X01394Y00884*
X01396Y00878*
X01397Y00873*
X01399Y00868*
X01402Y00863*
X01405Y00858*
X01408Y00853*
X01411Y00849*
X01415Y00845*
X01419Y00841*
X01423Y00837*
X01428Y00834*
X01433Y00831*
X01437Y00829*
X01443Y00826*
X01448Y00824*
X01453Y00823*
X01459Y00822*
X01464Y00821*
X0147Y00821*
X01475*
X01481Y00821*
X01486Y00822*
X01492Y00823*
X01497Y00824*
X01502Y00826*
X01508Y00829*
X01513Y00831*
X01517Y00834*
X01522Y00837*
X01526Y00841*
X0153Y00845*
X01534Y00849*
X01537Y00853*
X0154Y00858*
X01543Y00863*
X01546Y00868*
X01548Y00873*
X01549Y00878*
X01551Y00884*
X01552Y00889*
X01552Y00895*
X01553Y00901*
X01956Y01218D02*
D01*
X01956Y01218*
X01956Y01218*
X01956Y01218*
X01956Y01219*
X01956Y01219*
X01956Y01219*
X01955Y01219*
X01955Y0122*
X01955Y0122*
X01955Y0122*
X01955Y0122*
X01955Y0122*
X01954Y01221*
X01954Y01221*
X01954Y01221*
X01954Y01221*
X01953Y01221*
X01953Y01221*
X01953Y01221*
X01953Y01221*
X01952Y01221*
X01952Y01221*
X01952*
X01951Y01221*
X01951Y01221*
X01951Y01221*
X01951Y01221*
X0195Y01221*
X0195Y01221*
X0195Y01221*
X0195Y01221*
X01949Y01221*
X01949Y0122*
X01949Y0122*
X01949Y0122*
X01949Y0122*
X01949Y0122*
X01948Y01219*
X01948Y01219*
X01948Y01219*
X01948Y01219*
X01948Y01218*
X01948Y01218*
X01948Y01218*
X01948Y01218*
X01948Y01217*
X01948Y01217*
X01948Y01217*
X01948Y01216*
X01948Y01216*
X01948Y01216*
X01948Y01216*
X01949Y01215*
X01949Y01215*
X01949Y01215*
X01949Y01215*
X01949Y01215*
X01949Y01214*
X0195Y01214*
X0195Y01214*
X0195Y01214*
X0195Y01214*
X01951Y01214*
X01951Y01214*
X01951Y01214*
X01951Y01214*
X01952Y01214*
X01952*
X01952Y01214*
X01953Y01214*
X01953Y01214*
X01953Y01214*
X01953Y01214*
X01954Y01214*
X01954Y01214*
X01954Y01214*
X01954Y01214*
X01955Y01215*
X01955Y01215*
X01955Y01215*
X01955Y01215*
X01955Y01215*
X01955Y01216*
X01956Y01216*
X01956Y01216*
X01956Y01216*
X01956Y01217*
X01956Y01217*
X01956Y01217*
X01956Y01218*
X00525Y01688D02*
D01*
X00525Y01688*
X00525Y01688*
X00525Y01689*
X00525Y01689*
X00525Y01689*
X00525Y01689*
X00525Y0169*
X00525Y0169*
X00525Y0169*
X00525Y0169*
X00524Y01691*
X00524Y01691*
X00524Y01691*
X00524Y01691*
X00523Y01691*
X00523Y01691*
X00523Y01691*
X00523Y01692*
X00522Y01692*
X00522Y01692*
X00522Y01692*
X00522Y01692*
X00521*
X00521Y01692*
X00521Y01692*
X00521Y01692*
X0052Y01692*
X0052Y01691*
X0052Y01691*
X0052Y01691*
X00519Y01691*
X00519Y01691*
X00519Y01691*
X00519Y01691*
X00518Y0169*
X00518Y0169*
X00518Y0169*
X00518Y0169*
X00518Y01689*
X00518Y01689*
X00518Y01689*
X00518Y01689*
X00518Y01688*
X00518Y01688*
X00518Y01688*
X00518Y01688*
X00518Y01687*
X00518Y01687*
X00518Y01687*
X00518Y01686*
X00518Y01686*
X00518Y01686*
X00518Y01686*
X00518Y01686*
X00518Y01685*
X00519Y01685*
X00519Y01685*
X00519Y01685*
X00519Y01685*
X0052Y01684*
X0052Y01684*
X0052Y01684*
X0052Y01684*
X00521Y01684*
X00521Y01684*
X00521Y01684*
X00521Y01684*
X00522*
X00522Y01684*
X00522Y01684*
X00522Y01684*
X00523Y01684*
X00523Y01684*
X00523Y01684*
X00523Y01684*
X00524Y01685*
X00524Y01685*
X00524Y01685*
X00524Y01685*
X00525Y01685*
X00525Y01686*
X00525Y01686*
X00525Y01686*
X00525Y01686*
X00525Y01686*
X00525Y01687*
X00525Y01687*
X00525Y01687*
X00525Y01688*
X00525Y01688*
X00409Y02095D02*
D01*
X00409Y02095*
X00409Y02096*
X00409Y02096*
X00409Y02096*
X00409Y02097*
X00409Y02097*
X00409Y02097*
X00409Y02097*
X00409Y02097*
X00409Y02098*
X00408Y02098*
X00408Y02098*
X00408Y02098*
X00408Y02098*
X00407Y02099*
X00407Y02099*
X00407Y02099*
X00407Y02099*
X00406Y02099*
X00406Y02099*
X00406Y02099*
X00406Y02099*
X00405*
X00405Y02099*
X00405Y02099*
X00405Y02099*
X00404Y02099*
X00404Y02099*
X00404Y02099*
X00404Y02099*
X00403Y02098*
X00403Y02098*
X00403Y02098*
X00403Y02098*
X00402Y02098*
X00402Y02097*
X00402Y02097*
X00402Y02097*
X00402Y02097*
X00402Y02097*
X00402Y02096*
X00402Y02096*
X00402Y02096*
X00402Y02095*
X00402Y02095*
X00402Y02095*
X00402Y02095*
X00402Y02094*
X00402Y02094*
X00402Y02094*
X00402Y02094*
X00402Y02093*
X00402Y02093*
X00402Y02093*
X00402Y02093*
X00403Y02092*
X00403Y02092*
X00403Y02092*
X00403Y02092*
X00404Y02092*
X00404Y02092*
X00404Y02092*
X00404Y02091*
X00405Y02091*
X00405Y02091*
X00405Y02091*
X00405Y02091*
X00406*
X00406Y02091*
X00406Y02091*
X00406Y02091*
X00407Y02091*
X00407Y02092*
X00407Y02092*
X00407Y02092*
X00408Y02092*
X00408Y02092*
X00408Y02092*
X00408Y02092*
X00409Y02093*
X00409Y02093*
X00409Y02093*
X00409Y02093*
X00409Y02094*
X00409Y02094*
X00409Y02094*
X00409Y02094*
X00409Y02095*
X00409Y02095*
X00409Y02095*
X00582Y02259D02*
D01*
X00582Y02268*
X00581Y02277*
X00579Y02286*
X00577Y02295*
X00574Y02304*
X00571Y02313*
X00567Y02321*
X00562Y02329*
X00557Y02337*
X00551Y02345*
X00545Y02351*
X00538Y02358*
X00531Y02364*
X00523Y02369*
X00515Y02374*
X00507Y02379*
X00499Y02383*
X0049Y02386*
X00481Y02388*
X00472Y0239*
X00462Y02392*
X00453Y02392*
X00444*
X00435Y02392*
X00425Y0239*
X00416Y02388*
X00407Y02386*
X00398Y02383*
X0039Y02379*
X00382Y02374*
X00374Y02369*
X00366Y02364*
X00359Y02358*
X00352Y02351*
X00346Y02345*
X0034Y02337*
X00335Y02329*
X0033Y02321*
X00326Y02313*
X00323Y02304*
X0032Y02295*
X00318Y02286*
X00316Y02277*
X00315Y02268*
X00315Y02259*
X00315Y02249*
X00316Y0224*
X00318Y02231*
X0032Y02222*
X00323Y02213*
X00326Y02204*
X0033Y02196*
X00335Y02188*
X0034Y0218*
X00346Y02172*
X00352Y02166*
X00359Y02159*
X00366Y02153*
X00374Y02148*
X00382Y02143*
X0039Y02138*
X00398Y02134*
X00407Y02131*
X00416Y02129*
X00425Y02127*
X00435Y02125*
X00444Y02125*
X00453*
X00462Y02125*
X00472Y02127*
X00481Y02129*
X0049Y02131*
X00499Y02134*
X00507Y02138*
X00515Y02143*
X00523Y02148*
X00531Y02153*
X00538Y02159*
X00545Y02166*
X00551Y02172*
X00557Y0218*
X00562Y02188*
X00567Y02196*
X00571Y02204*
X00574Y02213*
X00577Y02222*
X00579Y02231*
X00581Y0224*
X00582Y02249*
X00582Y02259*
X01346Y01216D02*
D01*
X01346Y01216*
X01346Y01216*
X01346Y01216*
X01346Y01217*
X01346Y01217*
X01346Y01217*
X01345Y01217*
X01345Y01218*
X01345Y01218*
X01345Y01218*
X01345Y01218*
X01345Y01218*
X01344Y01219*
X01344Y01219*
X01344Y01219*
X01344Y01219*
X01343Y01219*
X01343Y01219*
X01343Y01219*
X01343Y01219*
X01342Y01219*
X01342Y01219*
X01342*
X01341Y01219*
X01341Y01219*
X01341Y01219*
X01341Y01219*
X0134Y01219*
X0134Y01219*
X0134Y01219*
X0134Y01219*
X01339Y01219*
X01339Y01218*
X01339Y01218*
X01339Y01218*
X01339Y01218*
X01339Y01218*
X01338Y01217*
X01338Y01217*
X01338Y01217*
X01338Y01217*
X01338Y01216*
X01338Y01216*
X01338Y01216*
X01338Y01216*
X01338Y01215*
X01338Y01215*
X01338Y01215*
X01338Y01214*
X01338Y01214*
X01338Y01214*
X01338Y01214*
X01339Y01213*
X01339Y01213*
X01339Y01213*
X01339Y01213*
X01339Y01213*
X01339Y01212*
X0134Y01212*
X0134Y01212*
X0134Y01212*
X0134Y01212*
X01341Y01212*
X01341Y01212*
X01341Y01212*
X01341Y01212*
X01342Y01212*
X01342*
X01342Y01212*
X01343Y01212*
X01343Y01212*
X01343Y01212*
X01343Y01212*
X01344Y01212*
X01344Y01212*
X01344Y01212*
X01344Y01212*
X01345Y01213*
X01345Y01213*
X01345Y01213*
X01345Y01213*
X01345Y01213*
X01345Y01214*
X01346Y01214*
X01346Y01214*
X01346Y01214*
X01346Y01215*
X01346Y01215*
X01346Y01215*
X01346Y01216*
X01171Y00488D02*
D01*
X01168Y00481*
X01167Y00474*
X01165Y00467*
X01165Y0046*
X01165Y00454*
X01165Y00447*
X01165Y0044*
X01167Y00433*
X01168Y00426*
X01171Y00419*
X01171*
X01358D02*
D01*
X01361Y00426*
X01362Y00433*
X01364Y0044*
X01364Y00447*
X01364Y00453*
X01364Y0046*
X01364Y00467*
X01362Y00474*
X01361Y00481*
X01358Y00488*
Y00488*
X00899Y00195D02*
D01*
X00899Y00195*
X00899Y00195*
X00899Y00195*
X00899Y00196*
X00899Y00196*
X00899Y00196*
X00898Y00196*
X00898Y00197*
X00898Y00197*
X00898Y00197*
X00898Y00197*
X00898Y00197*
X00897Y00198*
X00897Y00198*
X00897Y00198*
X00897Y00198*
X00896Y00198*
X00896Y00198*
X00896Y00198*
X00896Y00198*
X00895Y00198*
X00895Y00198*
X00895*
X00894Y00198*
X00894Y00198*
X00894Y00198*
X00894Y00198*
X00893Y00198*
X00893Y00198*
X00893Y00198*
X00893Y00198*
X00892Y00198*
X00892Y00197*
X00892Y00197*
X00892Y00197*
X00892Y00197*
X00892Y00197*
X00891Y00196*
X00891Y00196*
X00891Y00196*
X00891Y00196*
X00891Y00195*
X00891Y00195*
X00891Y00195*
X00891Y00195*
X00891Y00194*
X00891Y00194*
X00891Y00194*
X00891Y00193*
X00891Y00193*
X00891Y00193*
X00891Y00193*
X00892Y00192*
X00892Y00192*
X00892Y00192*
X00892Y00192*
X00892Y00192*
X00892Y00191*
X00893Y00191*
X00893Y00191*
X00893Y00191*
X00893Y00191*
X00894Y00191*
X00894Y00191*
X00894Y00191*
X00894Y00191*
X00895Y00191*
X00895*
X00895Y00191*
X00896Y00191*
X00896Y00191*
X00896Y00191*
X00896Y00191*
X00897Y00191*
X00897Y00191*
X00897Y00191*
X00897Y00191*
X00898Y00192*
X00898Y00192*
X00898Y00192*
X00898Y00192*
X00898Y00192*
X00898Y00193*
X00899Y00193*
X00899Y00193*
X00899Y00193*
X00899Y00194*
X00899Y00194*
X00899Y00194*
X00899Y00195*
X00907Y011D02*
D01*
X00907Y011*
X00907Y011*
X00907Y011*
X00907Y01101*
X00907Y01101*
X00907Y01101*
X00906Y01101*
X00906Y01102*
X00906Y01102*
X00906Y01102*
X00906Y01102*
X00906Y01102*
X00905Y01103*
X00905Y01103*
X00905Y01103*
X00905Y01103*
X00904Y01103*
X00904Y01103*
X00904Y01103*
X00904Y01103*
X00903Y01103*
X00903Y01103*
X00903*
X00902Y01103*
X00902Y01103*
X00902Y01103*
X00902Y01103*
X00901Y01103*
X00901Y01103*
X00901Y01103*
X00901Y01103*
X009Y01103*
X009Y01102*
X009Y01102*
X009Y01102*
X009Y01102*
X009Y01102*
X00899Y01101*
X00899Y01101*
X00899Y01101*
X00899Y01101*
X00899Y011*
X00899Y011*
X00899Y011*
X00899Y011*
X00899Y01099*
X00899Y01099*
X00899Y01099*
X00899Y01098*
X00899Y01098*
X00899Y01098*
X00899Y01098*
X009Y01097*
X009Y01097*
X009Y01097*
X009Y01097*
X009Y01097*
X009Y01096*
X00901Y01096*
X00901Y01096*
X00901Y01096*
X00901Y01096*
X00902Y01096*
X00902Y01096*
X00902Y01096*
X00902Y01096*
X00903Y01096*
X00903*
X00903Y01096*
X00904Y01096*
X00904Y01096*
X00904Y01096*
X00904Y01096*
X00905Y01096*
X00905Y01096*
X00905Y01096*
X00905Y01096*
X00906Y01097*
X00906Y01097*
X00906Y01097*
X00906Y01097*
X00906Y01097*
X00906Y01098*
X00907Y01098*
X00907Y01098*
X00907Y01098*
X00907Y01099*
X00907Y01099*
X00907Y01099*
X00907Y011*
X01146Y00332D02*
D01*
X01146Y00339*
X01145Y00347*
X01143Y00354*
X01142Y00361*
X01139Y00369*
X01136Y00376*
X01133Y00382*
X01129Y00389*
X01125Y00395*
X0112Y00401*
X01115Y00407*
X0111Y00412*
X01104Y00417*
X01098Y00421*
X01092Y00425*
X01085Y00429*
X01078Y00432*
X01071Y00434*
X01064Y00437*
X01056Y00438*
X01049Y00439*
X01041Y0044*
X01034*
X01026Y00439*
X01019Y00438*
X01011Y00437*
X01004Y00434*
X00997Y00432*
X0099Y00429*
X00983Y00425*
X00977Y00421*
X00971Y00417*
X00965Y00412*
X0096Y00407*
X00955Y00401*
X0095Y00395*
X00946Y00389*
X00942Y00382*
X00939Y00376*
X00936Y00369*
X00933Y00361*
X00932Y00354*
X0093Y00347*
X00929Y00339*
X00929Y00332*
X00929Y00324*
X0093Y00316*
X00932Y00309*
X00933Y00302*
X00936Y00294*
X00939Y00287*
X00942Y00281*
X00946Y00274*
X0095Y00268*
X00955Y00262*
X0096Y00256*
X00965Y00251*
X00971Y00246*
X00977Y00242*
X00983Y00238*
X0099Y00234*
X00997Y00231*
X01004Y00229*
X01011Y00226*
X01019Y00225*
X01026Y00224*
X01034Y00223*
X01041*
X01049Y00224*
X01056Y00225*
X01064Y00226*
X01071Y00229*
X01078Y00231*
X01085Y00234*
X01092Y00238*
X01098Y00242*
X01104Y00246*
X0111Y00251*
X01115Y00256*
X0112Y00262*
X01125Y00268*
X01129Y00274*
X01133Y00281*
X01136Y00287*
X01139Y00294*
X01142Y00302*
X01143Y00309*
X01145Y00316*
X01146Y00324*
X01146Y00332*
X0284Y01725D02*
D01*
X0284Y01725*
X0284Y01725*
X0284Y01725*
X0284Y01726*
X0284Y01726*
X0284Y01726*
X0284Y01726*
X0284Y01727*
X02839Y01727*
X02839Y01727*
X02839Y01727*
X02839Y01727*
X02839Y01728*
X02838Y01728*
X02838Y01728*
X02838Y01728*
X02838Y01728*
X02837Y01728*
X02837Y01728*
X02837Y01728*
X02837Y01728*
X02836Y01728*
X02836*
X02836Y01728*
X02836Y01728*
X02835Y01728*
X02835Y01728*
X02835Y01728*
X02835Y01728*
X02834Y01728*
X02834Y01728*
X02834Y01728*
X02834Y01727*
X02833Y01727*
X02833Y01727*
X02833Y01727*
X02833Y01727*
X02833Y01726*
X02833Y01726*
X02833Y01726*
X02832Y01726*
X02832Y01725*
X02832Y01725*
X02832Y01725*
X02832Y01725*
X02832Y01724*
X02832Y01724*
X02832Y01724*
X02832Y01723*
X02833Y01723*
X02833Y01723*
X02833Y01723*
X02833Y01722*
X02833Y01722*
X02833Y01722*
X02833Y01722*
X02834Y01722*
X02834Y01721*
X02834Y01721*
X02834Y01721*
X02835Y01721*
X02835Y01721*
X02835Y01721*
X02835Y01721*
X02836Y01721*
X02836Y01721*
X02836Y01721*
X02836*
X02837Y01721*
X02837Y01721*
X02837Y01721*
X02837Y01721*
X02838Y01721*
X02838Y01721*
X02838Y01721*
X02838Y01721*
X02839Y01721*
X02839Y01722*
X02839Y01722*
X02839Y01722*
X02839Y01722*
X0284Y01722*
X0284Y01723*
X0284Y01723*
X0284Y01723*
X0284Y01723*
X0284Y01724*
X0284Y01724*
X0284Y01724*
X0284Y01725*
X03615Y01856D02*
D01*
X03615Y01856*
X03615Y01856*
X03615Y01856*
X03615Y01857*
X03615Y01857*
X03615Y01857*
X03615Y01857*
X03615Y01858*
X03615Y01858*
X03615Y01858*
X03614Y01858*
X03614Y01859*
X03614Y01859*
X03614Y01859*
X03613Y01859*
X03613Y01859*
X03613Y01859*
X03613Y01859*
X03612Y01859*
X03612Y01859*
X03612Y0186*
X03612Y0186*
X03611*
X03611Y0186*
X03611Y01859*
X03611Y01859*
X0361Y01859*
X0361Y01859*
X0361Y01859*
X0361Y01859*
X03609Y01859*
X03609Y01859*
X03609Y01859*
X03609Y01858*
X03608Y01858*
X03608Y01858*
X03608Y01858*
X03608Y01857*
X03608Y01857*
X03608Y01857*
X03608Y01857*
X03608Y01856*
X03608Y01856*
X03608Y01856*
X03608Y01856*
X03608Y01855*
X03608Y01855*
X03608Y01855*
X03608Y01855*
X03608Y01854*
X03608Y01854*
X03608Y01854*
X03608Y01854*
X03608Y01853*
X03608Y01853*
X03609Y01853*
X03609Y01853*
X03609Y01852*
X03609Y01852*
X0361Y01852*
X0361Y01852*
X0361Y01852*
X0361Y01852*
X03611Y01852*
X03611Y01852*
X03611Y01852*
X03611Y01852*
X03612*
X03612Y01852*
X03612Y01852*
X03612Y01852*
X03613Y01852*
X03613Y01852*
X03613Y01852*
X03613Y01852*
X03614Y01852*
X03614Y01852*
X03614Y01853*
X03614Y01853*
X03615Y01853*
X03615Y01853*
X03615Y01854*
X03615Y01854*
X03615Y01854*
X03615Y01854*
X03615Y01855*
X03615Y01855*
X03615Y01855*
X03615Y01855*
X03615Y01856*
Y01262D02*
D01*
X03615Y01262*
X03615Y01263*
X03615Y01263*
X03615Y01263*
X03615Y01263*
X03615Y01264*
X03615Y01264*
X03615Y01264*
X03615Y01264*
X03615Y01265*
X03614Y01265*
X03614Y01265*
X03614Y01265*
X03614Y01265*
X03613Y01265*
X03613Y01266*
X03613Y01266*
X03613Y01266*
X03612Y01266*
X03612Y01266*
X03612Y01266*
X03612Y01266*
X03611*
X03611Y01266*
X03611Y01266*
X03611Y01266*
X0361Y01266*
X0361Y01266*
X0361Y01266*
X0361Y01265*
X03609Y01265*
X03609Y01265*
X03609Y01265*
X03609Y01265*
X03608Y01265*
X03608Y01264*
X03608Y01264*
X03608Y01264*
X03608Y01264*
X03608Y01263*
X03608Y01263*
X03608Y01263*
X03608Y01263*
X03608Y01262*
X03608Y01262*
X03608Y01262*
X03608Y01262*
X03608Y01261*
X03608Y01261*
X03608Y01261*
X03608Y0126*
X03608Y0126*
X03608Y0126*
X03608Y0126*
X03608Y0126*
X03609Y01259*
X03609Y01259*
X03609Y01259*
X03609Y01259*
X0361Y01259*
X0361Y01259*
X0361Y01258*
X0361Y01258*
X03611Y01258*
X03611Y01258*
X03611Y01258*
X03611Y01258*
X03612*
X03612Y01258*
X03612Y01258*
X03612Y01258*
X03613Y01258*
X03613Y01258*
X03613Y01259*
X03613Y01259*
X03614Y01259*
X03614Y01259*
X03614Y01259*
X03614Y01259*
X03615Y0126*
X03615Y0126*
X03615Y0126*
X03615Y0126*
X03615Y0126*
X03615Y01261*
X03615Y01261*
X03615Y01261*
X03615Y01262*
X03615Y01262*
X03615Y01262*
Y02449D02*
D01*
X03615Y02449*
X03615Y0245*
X03615Y0245*
X03615Y0245*
X03615Y0245*
X03615Y02451*
X03615Y02451*
X03615Y02451*
X03615Y02451*
X03615Y02452*
X03614Y02452*
X03614Y02452*
X03614Y02452*
X03614Y02452*
X03613Y02452*
X03613Y02453*
X03613Y02453*
X03613Y02453*
X03612Y02453*
X03612Y02453*
X03612Y02453*
X03612Y02453*
X03611*
X03611Y02453*
X03611Y02453*
X03611Y02453*
X0361Y02453*
X0361Y02453*
X0361Y02453*
X0361Y02452*
X03609Y02452*
X03609Y02452*
X03609Y02452*
X03609Y02452*
X03608Y02452*
X03608Y02451*
X03608Y02451*
X03608Y02451*
X03608Y02451*
X03608Y0245*
X03608Y0245*
X03608Y0245*
X03608Y0245*
X03608Y02449*
X03608Y02449*
X03608Y02449*
X03608Y02449*
X03608Y02448*
X03608Y02448*
X03608Y02448*
X03608Y02447*
X03608Y02447*
X03608Y02447*
X03608Y02447*
X03608Y02447*
X03609Y02446*
X03609Y02446*
X03609Y02446*
X03609Y02446*
X0361Y02446*
X0361Y02446*
X0361Y02445*
X0361Y02445*
X03611Y02445*
X03611Y02445*
X03611Y02445*
X03611Y02445*
X03612*
X03612Y02445*
X03612Y02445*
X03612Y02445*
X03613Y02445*
X03613Y02445*
X03613Y02446*
X03613Y02446*
X03614Y02446*
X03614Y02446*
X03614Y02446*
X03614Y02446*
X03615Y02447*
X03615Y02447*
X03615Y02447*
X03615Y02447*
X03615Y02447*
X03615Y02448*
X03615Y02448*
X03615Y02448*
X03615Y02449*
X03615Y02449*
X03615Y02449*
X02533Y02449D02*
D01*
X02533Y02449*
X02533Y0245*
X02533Y0245*
X02533Y0245*
X02533Y0245*
X02533Y02451*
X02533Y02451*
X02533Y02451*
X02532Y02451*
X02532Y02452*
X02532Y02452*
X02532Y02452*
X02532Y02452*
X02531Y02452*
X02531Y02452*
X02531Y02453*
X02531Y02453*
X0253Y02453*
X0253Y02453*
X0253Y02453*
X0253Y02453*
X02529Y02453*
X02529*
X02529Y02453*
X02528Y02453*
X02528Y02453*
X02528Y02453*
X02528Y02453*
X02527Y02453*
X02527Y02452*
X02527Y02452*
X02527Y02452*
X02527Y02452*
X02526Y02452*
X02526Y02452*
X02526Y02451*
X02526Y02451*
X02526Y02451*
X02526Y02451*
X02525Y0245*
X02525Y0245*
X02525Y0245*
X02525Y0245*
X02525Y02449*
X02525Y02449*
X02525Y02449*
X02525Y02449*
X02525Y02448*
X02525Y02448*
X02525Y02448*
X02526Y02447*
X02526Y02447*
X02526Y02447*
X02526Y02447*
X02526Y02447*
X02526Y02446*
X02527Y02446*
X02527Y02446*
X02527Y02446*
X02527Y02446*
X02527Y02446*
X02528Y02445*
X02528Y02445*
X02528Y02445*
X02528Y02445*
X02529Y02445*
X02529Y02445*
X02529*
X0253Y02445*
X0253Y02445*
X0253Y02445*
X0253Y02445*
X02531Y02445*
X02531Y02446*
X02531Y02446*
X02531Y02446*
X02532Y02446*
X02532Y02446*
X02532Y02446*
X02532Y02447*
X02532Y02447*
X02533Y02447*
X02533Y02447*
X02533Y02447*
X02533Y02448*
X02533Y02448*
X02533Y02448*
X02533Y02449*
X02533Y02449*
X02533Y02449*
X00368Y02449D02*
D01*
X00368Y02449*
X00368Y0245*
X00368Y0245*
X00368Y0245*
X00368Y0245*
X00368Y02451*
X00368Y02451*
X00368Y02451*
X00368Y02451*
X00368Y02452*
X00367Y02452*
X00367Y02452*
X00367Y02452*
X00367Y02452*
X00366Y02452*
X00366Y02453*
X00366Y02453*
X00366Y02453*
X00365Y02453*
X00365Y02453*
X00365Y02453*
X00365Y02453*
X00364*
X00364Y02453*
X00364Y02453*
X00364Y02453*
X00363Y02453*
X00363Y02453*
X00363Y02453*
X00363Y02452*
X00362Y02452*
X00362Y02452*
X00362Y02452*
X00362Y02452*
X00361Y02452*
X00361Y02451*
X00361Y02451*
X00361Y02451*
X00361Y02451*
X00361Y0245*
X00361Y0245*
X00361Y0245*
X00361Y0245*
X00361Y02449*
X00361Y02449*
X00361Y02449*
X00361Y02449*
X00361Y02448*
X00361Y02448*
X00361Y02448*
X00361Y02447*
X00361Y02447*
X00361Y02447*
X00361Y02447*
X00361Y02447*
X00362Y02446*
X00362Y02446*
X00362Y02446*
X00362Y02446*
X00363Y02446*
X00363Y02446*
X00363Y02445*
X00363Y02445*
X00364Y02445*
X00364Y02445*
X00364Y02445*
X00364Y02445*
X00365*
X00365Y02445*
X00365Y02445*
X00365Y02445*
X00366Y02445*
X00366Y02445*
X00366Y02446*
X00366Y02446*
X00367Y02446*
X00367Y02446*
X00367Y02446*
X00367Y02446*
X00368Y02447*
X00368Y02447*
X00368Y02447*
X00368Y02447*
X00368Y02447*
X00368Y02448*
X00368Y02448*
X00368Y02448*
X00368Y02449*
X00368Y02449*
X00368Y02449*
X03615Y00669D02*
D01*
X03615Y00669*
X03615Y00669*
X03615Y00669*
X03615Y0067*
X03615Y0067*
X03615Y0067*
X03615Y0067*
X03615Y00671*
X03615Y00671*
X03615Y00671*
X03614Y00671*
X03614Y00672*
X03614Y00672*
X03614Y00672*
X03613Y00672*
X03613Y00672*
X03613Y00672*
X03613Y00672*
X03612Y00672*
X03612Y00672*
X03612Y00673*
X03612Y00673*
X03611*
X03611Y00673*
X03611Y00672*
X03611Y00672*
X0361Y00672*
X0361Y00672*
X0361Y00672*
X0361Y00672*
X03609Y00672*
X03609Y00672*
X03609Y00672*
X03609Y00671*
X03608Y00671*
X03608Y00671*
X03608Y00671*
X03608Y0067*
X03608Y0067*
X03608Y0067*
X03608Y0067*
X03608Y00669*
X03608Y00669*
X03608Y00669*
X03608Y00669*
X03608Y00668*
X03608Y00668*
X03608Y00668*
X03608Y00668*
X03608Y00667*
X03608Y00667*
X03608Y00667*
X03608Y00667*
X03608Y00666*
X03608Y00666*
X03609Y00666*
X03609Y00666*
X03609Y00665*
X03609Y00665*
X0361Y00665*
X0361Y00665*
X0361Y00665*
X0361Y00665*
X03611Y00665*
X03611Y00665*
X03611Y00665*
X03611Y00665*
X03612*
X03612Y00665*
X03612Y00665*
X03612Y00665*
X03613Y00665*
X03613Y00665*
X03613Y00665*
X03613Y00665*
X03614Y00665*
X03614Y00665*
X03614Y00666*
X03614Y00666*
X03615Y00666*
X03615Y00666*
X03615Y00667*
X03615Y00667*
X03615Y00667*
X03615Y00667*
X03615Y00668*
X03615Y00668*
X03615Y00668*
X03615Y00668*
X03615Y00669*
X01451Y02449D02*
D01*
X01451Y02449*
X01451Y0245*
X01451Y0245*
X01451Y0245*
X01451Y0245*
X0145Y02451*
X0145Y02451*
X0145Y02451*
X0145Y02451*
X0145Y02452*
X0145Y02452*
X01449Y02452*
X01449Y02452*
X01449Y02452*
X01449Y02452*
X01449Y02453*
X01448Y02453*
X01448Y02453*
X01448Y02453*
X01448Y02453*
X01447Y02453*
X01447Y02453*
X01447*
X01446Y02453*
X01446Y02453*
X01446Y02453*
X01446Y02453*
X01445Y02453*
X01445Y02453*
X01445Y02452*
X01445Y02452*
X01444Y02452*
X01444Y02452*
X01444Y02452*
X01444Y02452*
X01444Y02451*
X01443Y02451*
X01443Y02451*
X01443Y02451*
X01443Y0245*
X01443Y0245*
X01443Y0245*
X01443Y0245*
X01443Y02449*
X01443Y02449*
X01443Y02449*
X01443Y02449*
X01443Y02448*
X01443Y02448*
X01443Y02448*
X01443Y02447*
X01443Y02447*
X01443Y02447*
X01444Y02447*
X01444Y02447*
X01444Y02446*
X01444Y02446*
X01444Y02446*
X01445Y02446*
X01445Y02446*
X01445Y02446*
X01445Y02445*
X01446Y02445*
X01446Y02445*
X01446Y02445*
X01446Y02445*
X01447Y02445*
X01447*
X01447Y02445*
X01448Y02445*
X01448Y02445*
X01448Y02445*
X01448Y02445*
X01449Y02446*
X01449Y02446*
X01449Y02446*
X01449Y02446*
X01449Y02446*
X0145Y02446*
X0145Y02447*
X0145Y02447*
X0145Y02447*
X0145Y02447*
X0145Y02447*
X01451Y02448*
X01451Y02448*
X01451Y02448*
X01451Y02449*
X01451Y02449*
X01451Y02449*
X03615Y00075D02*
D01*
X03615Y00075*
X03615Y00076*
X03615Y00076*
X03615Y00076*
X03615Y00076*
X03615Y00077*
X03615Y00077*
X03615Y00077*
X03615Y00077*
X03615Y00078*
X03614Y00078*
X03614Y00078*
X03614Y00078*
X03614Y00078*
X03613Y00078*
X03613Y00079*
X03613Y00079*
X03613Y00079*
X03612Y00079*
X03612Y00079*
X03612Y00079*
X03612Y00079*
X03611*
X03611Y00079*
X03611Y00079*
X03611Y00079*
X0361Y00079*
X0361Y00079*
X0361Y00079*
X0361Y00078*
X03609Y00078*
X03609Y00078*
X03609Y00078*
X03609Y00078*
X03608Y00078*
X03608Y00077*
X03608Y00077*
X03608Y00077*
X03608Y00077*
X03608Y00076*
X03608Y00076*
X03608Y00076*
X03608Y00076*
X03608Y00075*
X03608Y00075*
X03608Y00075*
X03608Y00075*
X03608Y00074*
X03608Y00074*
X03608Y00074*
X03608Y00073*
X03608Y00073*
X03608Y00073*
X03608Y00073*
X03608Y00073*
X03609Y00072*
X03609Y00072*
X03609Y00072*
X03609Y00072*
X0361Y00072*
X0361Y00072*
X0361Y00071*
X0361Y00071*
X03611Y00071*
X03611Y00071*
X03611Y00071*
X03611Y00071*
X03612*
X03612Y00071*
X03612Y00071*
X03612Y00071*
X03613Y00071*
X03613Y00071*
X03613Y00072*
X03613Y00072*
X03614Y00072*
X03614Y00072*
X03614Y00072*
X03614Y00072*
X03615Y00073*
X03615Y00073*
X03615Y00073*
X03615Y00073*
X03615Y00073*
X03615Y00074*
X03615Y00074*
X03615Y00074*
X03615Y00075*
X03615Y00075*
X03615Y00075*
X003Y00178D02*
D01*
X003Y00178*
X003Y00178*
X003Y00178*
X003Y00179*
X003Y00179*
X003Y00179*
X003Y00179*
X003Y0018*
X003Y0018*
X003Y0018*
X00299Y0018*
X00299Y0018*
X00299Y00181*
X00299Y00181*
X00298Y00181*
X00298Y00181*
X00298Y00181*
X00298Y00181*
X00297Y00181*
X00297Y00181*
X00297Y00181*
X00297Y00181*
X00296*
X00296Y00181*
X00296Y00181*
X00296Y00181*
X00295Y00181*
X00295Y00181*
X00295Y00181*
X00295Y00181*
X00294Y00181*
X00294Y00181*
X00294Y0018*
X00294Y0018*
X00293Y0018*
X00293Y0018*
X00293Y0018*
X00293Y00179*
X00293Y00179*
X00293Y00179*
X00293Y00179*
X00293Y00178*
X00293Y00178*
X00293Y00178*
X00293Y00178*
X00293Y00177*
X00293Y00177*
X00293Y00177*
X00293Y00176*
X00293Y00176*
X00293Y00176*
X00293Y00176*
X00293Y00175*
X00293Y00175*
X00293Y00175*
X00294Y00175*
X00294Y00175*
X00294Y00174*
X00294Y00174*
X00295Y00174*
X00295Y00174*
X00295Y00174*
X00295Y00174*
X00296Y00174*
X00296Y00174*
X00296Y00174*
X00296Y00174*
X00297*
X00297Y00174*
X00297Y00174*
X00297Y00174*
X00298Y00174*
X00298Y00174*
X00298Y00174*
X00298Y00174*
X00299Y00174*
X00299Y00174*
X00299Y00175*
X00299Y00175*
X003Y00175*
X003Y00175*
X003Y00175*
X003Y00176*
X003Y00176*
X003Y00176*
X003Y00176*
X003Y00177*
X003Y00177*
X003Y00177*
X003Y00178*
X02461Y00566D02*
D01*
X02461Y00566*
X02461Y00566*
X02461Y00567*
X02461Y00567*
X02461Y00567*
X02461Y00567*
X02461Y00568*
X02461Y00568*
X02461Y00568*
X02461Y00568*
X0246Y00569*
X0246Y00569*
X0246Y00569*
X0246Y00569*
X02459Y00569*
X02459Y00569*
X02459Y00569*
X02459Y0057*
X02458Y0057*
X02458Y0057*
X02458Y0057*
X02458Y0057*
X02457*
X02457Y0057*
X02457Y0057*
X02457Y0057*
X02456Y0057*
X02456Y00569*
X02456Y00569*
X02456Y00569*
X02455Y00569*
X02455Y00569*
X02455Y00569*
X02455Y00569*
X02454Y00568*
X02454Y00568*
X02454Y00568*
X02454Y00568*
X02454Y00567*
X02454Y00567*
X02454Y00567*
X02454Y00567*
X02454Y00566*
X02454Y00566*
X02454Y00566*
X02454Y00566*
X02454Y00565*
X02454Y00565*
X02454Y00565*
X02454Y00564*
X02454Y00564*
X02454Y00564*
X02454Y00564*
X02454Y00564*
X02454Y00563*
X02455Y00563*
X02455Y00563*
X02455Y00563*
X02455Y00563*
X02456Y00562*
X02456Y00562*
X02456Y00562*
X02456Y00562*
X02457Y00562*
X02457Y00562*
X02457Y00562*
X02457Y00562*
X02458*
X02458Y00562*
X02458Y00562*
X02458Y00562*
X02459Y00562*
X02459Y00562*
X02459Y00562*
X02459Y00562*
X0246Y00563*
X0246Y00563*
X0246Y00563*
X0246Y00563*
X02461Y00563*
X02461Y00564*
X02461Y00564*
X02461Y00564*
X02461Y00564*
X02461Y00564*
X02461Y00565*
X02461Y00565*
X02461Y00565*
X02461Y00566*
X02461Y00566*
X02572Y00973D02*
D01*
X02572Y00973*
X02572Y00974*
X02572Y00974*
X02572Y00974*
X02572Y00975*
X02572Y00975*
X02572Y00975*
X02572Y00975*
X02572Y00975*
X02572Y00976*
X02571Y00976*
X02571Y00976*
X02571Y00976*
X02571Y00976*
X0257Y00977*
X0257Y00977*
X0257Y00977*
X0257Y00977*
X02569Y00977*
X02569Y00977*
X02569Y00977*
X02569Y00977*
X02568*
X02568Y00977*
X02568Y00977*
X02568Y00977*
X02567Y00977*
X02567Y00977*
X02567Y00977*
X02567Y00977*
X02566Y00976*
X02566Y00976*
X02566Y00976*
X02566Y00976*
X02565Y00976*
X02565Y00975*
X02565Y00975*
X02565Y00975*
X02565Y00975*
X02565Y00975*
X02565Y00974*
X02565Y00974*
X02565Y00974*
X02565Y00973*
X02565Y00973*
X02565Y00973*
X02565Y00973*
X02565Y00972*
X02565Y00972*
X02565Y00972*
X02565Y00972*
X02565Y00971*
X02565Y00971*
X02565Y00971*
X02565Y00971*
X02566Y0097*
X02566Y0097*
X02566Y0097*
X02566Y0097*
X02567Y0097*
X02567Y0097*
X02567Y0097*
X02567Y00969*
X02568Y00969*
X02568Y00969*
X02568Y00969*
X02568Y00969*
X02569*
X02569Y00969*
X02569Y00969*
X02569Y00969*
X0257Y00969*
X0257Y0097*
X0257Y0097*
X0257Y0097*
X02571Y0097*
X02571Y0097*
X02571Y0097*
X02571Y0097*
X02572Y00971*
X02572Y00971*
X02572Y00971*
X02572Y00971*
X02572Y00972*
X02572Y00972*
X02572Y00972*
X02572Y00972*
X02572Y00973*
X02572Y00973*
X02572Y00973*
X02905D02*
D01*
X02905Y00973*
X02905Y00974*
X02905Y00974*
X02905Y00974*
X02905Y00975*
X02905Y00975*
X02905Y00975*
X02905Y00975*
X02905Y00975*
X02905Y00976*
X02904Y00976*
X02904Y00976*
X02904Y00976*
X02904Y00976*
X02903Y00977*
X02903Y00977*
X02903Y00977*
X02903Y00977*
X02902Y00977*
X02902Y00977*
X02902Y00977*
X02902Y00977*
X02901*
X02901Y00977*
X02901Y00977*
X02901Y00977*
X029Y00977*
X029Y00977*
X029Y00977*
X029Y00977*
X02899Y00976*
X02899Y00976*
X02899Y00976*
X02899Y00976*
X02898Y00976*
X02898Y00975*
X02898Y00975*
X02898Y00975*
X02898Y00975*
X02898Y00975*
X02898Y00974*
X02898Y00974*
X02898Y00974*
X02898Y00973*
X02898Y00973*
X02898Y00973*
X02898Y00973*
X02898Y00972*
X02898Y00972*
X02898Y00972*
X02898Y00972*
X02898Y00971*
X02898Y00971*
X02898Y00971*
X02898Y00971*
X02899Y0097*
X02899Y0097*
X02899Y0097*
X02899Y0097*
X029Y0097*
X029Y0097*
X029Y0097*
X029Y00969*
X02901Y00969*
X02901Y00969*
X02901Y00969*
X02901Y00969*
X02902*
X02902Y00969*
X02902Y00969*
X02902Y00969*
X02903Y00969*
X02903Y0097*
X02903Y0097*
X02903Y0097*
X02904Y0097*
X02904Y0097*
X02904Y0097*
X02904Y0097*
X02905Y00971*
X02905Y00971*
X02905Y00971*
X02905Y00971*
X02905Y00972*
X02905Y00972*
X02905Y00972*
X02905Y00972*
X02905Y00973*
X02905Y00973*
X02905Y00973*
X02683Y00566D02*
D01*
X02683Y00566*
X02683Y00566*
X02683Y00567*
X02683Y00567*
X02683Y00567*
X02683Y00567*
X02683Y00568*
X02683Y00568*
X02683Y00568*
X02683Y00568*
X02682Y00569*
X02682Y00569*
X02682Y00569*
X02682Y00569*
X02681Y00569*
X02681Y00569*
X02681Y00569*
X02681Y0057*
X0268Y0057*
X0268Y0057*
X0268Y0057*
X0268Y0057*
X02679*
X02679Y0057*
X02679Y0057*
X02679Y0057*
X02678Y0057*
X02678Y00569*
X02678Y00569*
X02678Y00569*
X02677Y00569*
X02677Y00569*
X02677Y00569*
X02677Y00569*
X02676Y00568*
X02676Y00568*
X02676Y00568*
X02676Y00568*
X02676Y00567*
X02676Y00567*
X02676Y00567*
X02676Y00567*
X02676Y00566*
X02676Y00566*
X02676Y00566*
X02676Y00566*
X02676Y00565*
X02676Y00565*
X02676Y00565*
X02676Y00564*
X02676Y00564*
X02676Y00564*
X02676Y00564*
X02676Y00564*
X02676Y00563*
X02677Y00563*
X02677Y00563*
X02677Y00563*
X02677Y00563*
X02678Y00562*
X02678Y00562*
X02678Y00562*
X02678Y00562*
X02679Y00562*
X02679Y00562*
X02679Y00562*
X02679Y00562*
X0268*
X0268Y00562*
X0268Y00562*
X0268Y00562*
X02681Y00562*
X02681Y00562*
X02681Y00562*
X02681Y00562*
X02682Y00563*
X02682Y00563*
X02682Y00563*
X02682Y00563*
X02683Y00563*
X02683Y00564*
X02683Y00564*
X02683Y00564*
X02683Y00564*
X02683Y00564*
X02683Y00565*
X02683Y00565*
X02683Y00565*
X02683Y00566*
X02683Y00566*
X02794Y00973D02*
D01*
X02794Y00973*
X02794Y00974*
X02794Y00974*
X02794Y00974*
X02794Y00975*
X02794Y00975*
X02794Y00975*
X02794Y00975*
X02794Y00975*
X02794Y00976*
X02793Y00976*
X02793Y00976*
X02793Y00976*
X02793Y00976*
X02792Y00977*
X02792Y00977*
X02792Y00977*
X02792Y00977*
X02791Y00977*
X02791Y00977*
X02791Y00977*
X02791Y00977*
X0279*
X0279Y00977*
X0279Y00977*
X0279Y00977*
X02789Y00977*
X02789Y00977*
X02789Y00977*
X02789Y00977*
X02788Y00976*
X02788Y00976*
X02788Y00976*
X02788Y00976*
X02787Y00976*
X02787Y00975*
X02787Y00975*
X02787Y00975*
X02787Y00975*
X02787Y00975*
X02787Y00974*
X02787Y00974*
X02787Y00974*
X02787Y00973*
X02787Y00973*
X02787Y00973*
X02787Y00973*
X02787Y00972*
X02787Y00972*
X02787Y00972*
X02787Y00972*
X02787Y00971*
X02787Y00971*
X02787Y00971*
X02787Y00971*
X02788Y0097*
X02788Y0097*
X02788Y0097*
X02788Y0097*
X02789Y0097*
X02789Y0097*
X02789Y0097*
X02789Y00969*
X0279Y00969*
X0279Y00969*
X0279Y00969*
X0279Y00969*
X02791*
X02791Y00969*
X02791Y00969*
X02791Y00969*
X02792Y00969*
X02792Y0097*
X02792Y0097*
X02792Y0097*
X02793Y0097*
X02793Y0097*
X02793Y0097*
X02793Y0097*
X02794Y00971*
X02794Y00971*
X02794Y00971*
X02794Y00971*
X02794Y00972*
X02794Y00972*
X02794Y00972*
X02794Y00972*
X02794Y00973*
X02794Y00973*
X02794Y00973*
X02236Y01725D02*
D01*
X02236Y01725*
X02236Y01725*
X02236Y01725*
X02236Y01726*
X02236Y01726*
X02236Y01726*
X02236Y01726*
X02236Y01727*
X02235Y01727*
X02235Y01727*
X02235Y01727*
X02235Y01727*
X02235Y01728*
X02234Y01728*
X02234Y01728*
X02234Y01728*
X02234Y01728*
X02233Y01728*
X02233Y01728*
X02233Y01728*
X02233Y01728*
X02232Y01728*
X02232*
X02232Y01728*
X02232Y01728*
X02231Y01728*
X02231Y01728*
X02231Y01728*
X02231Y01728*
X0223Y01728*
X0223Y01728*
X0223Y01728*
X0223Y01727*
X02229Y01727*
X02229Y01727*
X02229Y01727*
X02229Y01727*
X02229Y01726*
X02229Y01726*
X02229Y01726*
X02228Y01726*
X02228Y01725*
X02228Y01725*
X02228Y01725*
X02228Y01725*
X02228Y01724*
X02228Y01724*
X02228Y01724*
X02228Y01723*
X02229Y01723*
X02229Y01723*
X02229Y01723*
X02229Y01722*
X02229Y01722*
X02229Y01722*
X02229Y01722*
X0223Y01722*
X0223Y01721*
X0223Y01721*
X0223Y01721*
X02231Y01721*
X02231Y01721*
X02231Y01721*
X02231Y01721*
X02232Y01721*
X02232Y01721*
X02232Y01721*
X02232*
X02233Y01721*
X02233Y01721*
X02233Y01721*
X02233Y01721*
X02234Y01721*
X02234Y01721*
X02234Y01721*
X02234Y01721*
X02235Y01721*
X02235Y01722*
X02235Y01722*
X02235Y01722*
X02235Y01722*
X02236Y01722*
X02236Y01723*
X02236Y01723*
X02236Y01723*
X02236Y01723*
X02236Y01724*
X02236Y01724*
X02236Y01724*
X02236Y01725*
X01632D02*
D01*
X01632Y01725*
X01632Y01725*
X01632Y01725*
X01632Y01726*
X01632Y01726*
X01632Y01726*
X01632Y01726*
X01632Y01727*
X01631Y01727*
X01631Y01727*
X01631Y01727*
X01631Y01727*
X01631Y01728*
X0163Y01728*
X0163Y01728*
X0163Y01728*
X0163Y01728*
X01629Y01728*
X01629Y01728*
X01629Y01728*
X01629Y01728*
X01628Y01728*
X01628*
X01628Y01728*
X01628Y01728*
X01627Y01728*
X01627Y01728*
X01627Y01728*
X01627Y01728*
X01626Y01728*
X01626Y01728*
X01626Y01728*
X01626Y01727*
X01625Y01727*
X01625Y01727*
X01625Y01727*
X01625Y01727*
X01625Y01726*
X01625Y01726*
X01625Y01726*
X01624Y01726*
X01624Y01725*
X01624Y01725*
X01624Y01725*
X01624Y01725*
X01624Y01724*
X01624Y01724*
X01624Y01724*
X01624Y01723*
X01625Y01723*
X01625Y01723*
X01625Y01723*
X01625Y01722*
X01625Y01722*
X01625Y01722*
X01625Y01722*
X01626Y01722*
X01626Y01721*
X01626Y01721*
X01626Y01721*
X01627Y01721*
X01627Y01721*
X01627Y01721*
X01627Y01721*
X01628Y01721*
X01628Y01721*
X01628Y01721*
X01628*
X01629Y01721*
X01629Y01721*
X01629Y01721*
X01629Y01721*
X0163Y01721*
X0163Y01721*
X0163Y01721*
X0163Y01721*
X01631Y01721*
X01631Y01722*
X01631Y01722*
X01631Y01722*
X01631Y01722*
X01632Y01722*
X01632Y01723*
X01632Y01723*
X01632Y01723*
X01632Y01723*
X01632Y01724*
X01632Y01724*
X01632Y01724*
X01632Y01725*
X01028D02*
D01*
X01028Y01725*
X01028Y01725*
X01028Y01725*
X01028Y01726*
X01028Y01726*
X01028Y01726*
X01028Y01726*
X01028Y01727*
X01027Y01727*
X01027Y01727*
X01027Y01727*
X01027Y01727*
X01027Y01728*
X01026Y01728*
X01026Y01728*
X01026Y01728*
X01026Y01728*
X01025Y01728*
X01025Y01728*
X01025Y01728*
X01025Y01728*
X01024Y01728*
X01024*
X01024Y01728*
X01024Y01728*
X01023Y01728*
X01023Y01728*
X01023Y01728*
X01023Y01728*
X01022Y01728*
X01022Y01728*
X01022Y01728*
X01022Y01727*
X01021Y01727*
X01021Y01727*
X01021Y01727*
X01021Y01727*
X01021Y01726*
X01021Y01726*
X01021Y01726*
X0102Y01726*
X0102Y01725*
X0102Y01725*
X0102Y01725*
X0102Y01725*
X0102Y01724*
X0102Y01724*
X0102Y01724*
X0102Y01723*
X01021Y01723*
X01021Y01723*
X01021Y01723*
X01021Y01722*
X01021Y01722*
X01021Y01722*
X01021Y01722*
X01022Y01722*
X01022Y01721*
X01022Y01721*
X01022Y01721*
X01023Y01721*
X01023Y01721*
X01023Y01721*
X01023Y01721*
X01024Y01721*
X01024Y01721*
X01024Y01721*
X01024*
X01025Y01721*
X01025Y01721*
X01025Y01721*
X01025Y01721*
X01026Y01721*
X01026Y01721*
X01026Y01721*
X01026Y01721*
X01027Y01721*
X01027Y01722*
X01027Y01722*
X01027Y01722*
X01027Y01722*
X01028Y01722*
X01028Y01723*
X01028Y01723*
X01028Y01723*
X01028Y01723*
X01028Y01724*
X01028Y01724*
X01028Y01724*
X01028Y01725*
X0073Y01449D02*
D01*
X0073Y01449*
X0073Y01449*
X0073Y01449*
X0073Y0145*
X0073Y0145*
X0073Y0145*
X0073Y0145*
X0073Y01451*
X0073Y01451*
X0073Y01451*
X00729Y01451*
X00729Y01451*
X00729Y01452*
X00729Y01452*
X00728Y01452*
X00728Y01452*
X00728Y01452*
X00728Y01452*
X00727Y01452*
X00727Y01452*
X00727Y01452*
X00727Y01452*
X00726*
X00726Y01452*
X00726Y01452*
X00726Y01452*
X00725Y01452*
X00725Y01452*
X00725Y01452*
X00725Y01452*
X00724Y01452*
X00724Y01452*
X00724Y01451*
X00724Y01451*
X00723Y01451*
X00723Y01451*
X00723Y01451*
X00723Y0145*
X00723Y0145*
X00723Y0145*
X00723Y0145*
X00723Y01449*
X00723Y01449*
X00723Y01449*
X00723Y01449*
X00723Y01448*
X00723Y01448*
X00723Y01448*
X00723Y01447*
X00723Y01447*
X00723Y01447*
X00723Y01447*
X00723Y01446*
X00723Y01446*
X00723Y01446*
X00724Y01446*
X00724Y01446*
X00724Y01445*
X00724Y01445*
X00725Y01445*
X00725Y01445*
X00725Y01445*
X00725Y01445*
X00726Y01445*
X00726Y01445*
X00726Y01445*
X00726Y01445*
X00727*
X00727Y01445*
X00727Y01445*
X00727Y01445*
X00728Y01445*
X00728Y01445*
X00728Y01445*
X00728Y01445*
X00729Y01445*
X00729Y01445*
X00729Y01446*
X00729Y01446*
X0073Y01446*
X0073Y01446*
X0073Y01446*
X0073Y01447*
X0073Y01447*
X0073Y01447*
X0073Y01447*
X0073Y01448*
X0073Y01448*
X0073Y01448*
X0073Y01449*
X03265Y01274D02*
Y01315D01*
X02347Y00992D02*
Y01033D01*
X01446Y01022D02*
Y01063D01*
X0204Y0024D02*
Y00281D01*
X0234Y0024D02*
Y00281D01*
X01261Y0024D02*
Y00281D01*
X0234Y00092D02*
Y00133D01*
X0219Y00091D02*
Y00132D01*
X0204Y00091D02*
Y00132D01*
X02107Y01395D02*
Y01436D01*
X02006Y00906D02*
Y00947D01*
X02065Y01148D02*
Y01189D01*
Y01022D02*
Y01063D01*
Y01274D02*
Y01315D01*
X02214Y01274D02*
Y01315D01*
Y01148D02*
Y01189D01*
X02206Y01023D02*
Y01064D01*
X0148Y00099D02*
Y0014D01*
X01449Y00524D02*
Y00565D01*
X01639Y00524D02*
Y00565D01*
Y00652D02*
Y00693D01*
Y0078D02*
Y00821D01*
X01646Y00907D02*
Y00948D01*
X01585Y01023D02*
Y01064D01*
X01592Y01148D02*
Y01189D01*
X01446Y01274D02*
Y01315D01*
X008Y01251D02*
Y01292D01*
X01527Y01714D02*
Y01755D01*
X02931Y02318D02*
X03131D01*
Y0222D02*
Y02318D01*
X02931Y0222D02*
X03131D01*
X02931D02*
Y02318D01*
X03086Y02004D02*
X03286D01*
Y01906D02*
Y02004D01*
X03086Y01906D02*
X03286D01*
X03086D02*
Y02004D01*
X02785D02*
X02985D01*
Y01906D02*
Y02004D01*
X02785Y01906D02*
X02985D01*
X02785D02*
Y02004D01*
X01726Y02309D02*
X01926D01*
Y02211D02*
Y02309D01*
X01726Y02211D02*
X01926D01*
X01726D02*
Y02309D01*
X01572Y01998D02*
X01772D01*
Y019D02*
Y01998D01*
X01572Y019D02*
X01772D01*
X01572D02*
Y01998D01*
X02182Y02005D02*
X02382D01*
Y01907D02*
Y02005D01*
X02182Y01907D02*
X02382D01*
X02182D02*
Y02005D01*
X01877Y019D02*
Y01998D01*
Y019D02*
X02077D01*
Y01998*
X01877D02*
X02077D01*
X01266Y01901D02*
Y01999D01*
Y01901D02*
X01466D01*
Y01999*
X01266D02*
X01466D01*
X0096Y01901D02*
Y01999D01*
Y01901D02*
X0116D01*
Y01999*
X0096D02*
X0116D01*
X01121Y02215D02*
Y02313D01*
Y02215D02*
X01321D01*
Y02313*
X01121D02*
X01321D01*
X02327Y02314D02*
X02527D01*
Y02216D02*
Y02314D01*
X02327Y02216D02*
X02527D01*
X02327D02*
Y02314D01*
X02486Y02005D02*
X02686D01*
Y01907D02*
Y02005D01*
X02486Y01907D02*
X02686D01*
X02486D02*
Y02005D01*
X02051Y02108D02*
Y02149D01*
X01598Y02107D02*
Y02148D01*
X02044Y02342D02*
Y02383D01*
Y02226D02*
Y02267D01*
X01598Y02226D02*
Y02267D01*
X01451Y02108D02*
Y02149D01*
Y02227D02*
Y02268D01*
X00993Y02227D02*
Y02268D01*
Y02108D02*
Y02149D01*
X02652Y02108D02*
Y02149D01*
X03262Y02227D02*
Y02268D01*
X02652Y02227D02*
Y02268D01*
X02203Y02108D02*
Y02149D01*
Y02227D02*
Y02268D01*
Y02343D02*
Y02384D01*
X02652Y02343D02*
Y02384D01*
X02803Y02342D02*
Y02383D01*
X0281Y02108D02*
Y02149D01*
Y02227D02*
Y02268D01*
X03255Y02103D02*
Y02144D01*
X00647Y0163D02*
Y01671D01*
X00364Y01569D02*
Y0161D01*
X008Y01753D02*
Y01795D01*
Y01875D02*
Y01916D01*
X00887Y01644D02*
Y01685D01*
X00748Y01411D02*
X00789D01*
X00749Y01585D02*
X00791D01*
X01001Y01148D02*
Y01189D01*
X01009Y01275D02*
Y01316D01*
X03411Y01149D02*
Y0119D01*
X03265Y01149D02*
Y0119D01*
X02941Y01167D02*
Y01264D01*
Y01167D02*
X03141D01*
Y01264*
X02941D02*
X03141D01*
X02824Y01023D02*
Y01064D01*
X0219Y0024D02*
Y00281D01*
X02335Y01268D02*
X02535D01*
Y01171D02*
Y01268D01*
X02335Y01171D02*
X02535D01*
X02335D02*
Y01268D01*
X01325Y00099D02*
Y0014D01*
X01728Y01266D02*
X01928D01*
Y01169D02*
Y01266D01*
X01728Y01169D02*
X01928D01*
X01728D02*
Y01266D01*
X01446Y01148D02*
Y01189D01*
X008Y01998D02*
Y02039D01*
X00656Y01996D02*
Y02037D01*
X00648Y01876D02*
Y01917D01*
X00658Y0175D02*
Y01791D01*
X0117Y00099D02*
Y0014D01*
X01016Y00099D02*
Y0014D01*
X00888Y0151D02*
Y01551D01*
X01009Y01023D02*
Y01064D01*
X01118Y01264D02*
X01318D01*
Y01167D02*
Y01264D01*
X01118Y01167D02*
X01318D01*
X01118D02*
Y01264D01*
X00671Y00146D02*
Y00243D01*
Y00146D02*
X00871D01*
Y00243*
X00671D02*
X00871D01*
X00679Y01051D02*
Y01148D01*
Y01051D02*
X00879D01*
Y01148*
X00679D02*
X00879D01*
X00888Y01376D02*
Y01418D01*
X00414Y0131D02*
Y01525D01*
X00159Y0131D02*
X00414D01*
X00159D02*
Y01525D01*
X00414*
X00706Y00858D02*
X00747D01*
X00578D02*
X00619D01*
X00159Y00634D02*
X00415D01*
X00159Y00419D02*
Y00634D01*
Y00419D02*
X00415D01*
Y00634*
X00159Y00903D02*
X00415D01*
X00159Y00687D02*
Y00903D01*
Y00687D02*
X00415D01*
Y00903*
X00219Y02134D02*
Y02175D01*
Y01999D02*
Y0204D01*
Y02282D02*
Y02323D01*
X00834Y00858D02*
X00875D01*
X00449Y00865D02*
X0049D01*
X02816Y01274D02*
Y01315D01*
X02667Y01022D02*
Y01063D01*
X02816Y01149D02*
Y0119D01*
X02667Y01148D02*
Y01189D01*
Y01274D02*
Y01315D01*
X01592Y01274D02*
Y01315D01*
X02006Y0078D02*
Y00821D01*
Y00652D02*
Y00693D01*
G54D43*
X00876Y00614D02*
D01*
X00873Y00613*
X0087Y00613*
X00867Y00613*
X00864Y00612*
X00862Y00611*
X00859Y0061*
X00857Y00609*
X00854Y00607*
X00852Y00606*
X0085Y00604*
X00848Y00602*
X00846Y006*
X00844Y00598*
X00842Y00596*
X00841Y00594*
X0084Y00591*
X00838Y00588*
X00837Y00586*
X00837Y00583*
X00836Y0058*
X00836Y00578*
X00836Y00575*
Y00572*
X00836Y00569*
X00836Y00567*
X00837Y00564*
X00837Y00561*
X00838Y00559*
X0084Y00556*
X00841Y00553*
X00842Y00551*
X00844Y00549*
X00846Y00547*
X00848Y00545*
X0085Y00543*
X00852Y00541*
X00854Y0054*
X00857Y00538*
X00859Y00537*
X00862Y00536*
X00864Y00535*
X00867Y00534*
X0087Y00534*
X00873Y00534*
X00876Y00534*
Y00614D02*
Y00689D01*
Y00459D02*
Y00534D01*
X00476Y00459D02*
Y00689D01*
X00876*
X00476Y00459D02*
X00876D01*
G54D44*
X02907Y01057D02*
X03187D01*
X02907Y01337D02*
X03187D01*
Y01057D02*
Y01337D01*
X02907Y01057D02*
Y01337D01*
X01697Y01059D02*
X01977D01*
X01697Y01339D02*
X01977D01*
Y01059D02*
Y01339D01*
X01697Y01059D02*
Y01339D01*
X02299Y01058D02*
X02579D01*
X02299Y01338D02*
X02579D01*
Y01058D02*
Y01338D01*
X02299Y01058D02*
Y01338D01*
X01688Y02105D02*
X01968D01*
X01688Y02385D02*
X01968D01*
Y02105D02*
Y02385D01*
X01688Y02105D02*
Y02385D01*
X01082Y01056D02*
X01362D01*
X01082Y01336D02*
X01362D01*
Y01056D02*
Y01336D01*
X01082Y01056D02*
Y01336D01*
X02751Y01796D02*
X03031D01*
X02751Y02076D02*
X03031D01*
Y01796D02*
Y02076D01*
X02751Y01796D02*
Y02076D01*
X00929Y0179D02*
X01209D01*
X00929Y0207D02*
X01209D01*
Y0179D02*
Y0207D01*
X00929Y0179D02*
Y0207D01*
X01536Y01791D02*
X01816D01*
X01536Y02071D02*
X01816D01*
Y01791D02*
Y02071D01*
X01536Y01791D02*
Y02071D01*
X00634Y00039D02*
X00914D01*
X00634Y00319D02*
X00914D01*
Y00039D02*
Y00319D01*
X00634Y00039D02*
Y00319D01*
X0064Y00943D02*
X0092D01*
X0064Y01223D02*
X0092D01*
Y00943D02*
Y01223D01*
X0064Y00943D02*
Y01223D01*
X01081Y02104D02*
X01361D01*
X01081Y02384D02*
X01361D01*
Y02104D02*
Y02384D01*
X01081Y02104D02*
Y02384D01*
X02293Y02106D02*
X02573D01*
X02293Y02386D02*
X02573D01*
Y02106D02*
Y02386D01*
X02293Y02106D02*
Y02386D01*
X02901Y02106D02*
X03181D01*
X02901Y02386D02*
X03181D01*
Y02106D02*
Y02386D01*
X02901Y02106D02*
Y02386D01*
X02145Y01798D02*
X02425D01*
X02145Y02078D02*
X02425D01*
Y01798D02*
Y02078D01*
X02145Y01798D02*
Y02078D01*
X02448Y01799D02*
X02728D01*
X02448Y02079D02*
X02728D01*
Y01799D02*
Y02079D01*
X02448Y01799D02*
Y02079D01*
X03054Y01797D02*
X03334D01*
X03054Y02077D02*
X03334D01*
Y01797D02*
Y02077D01*
X03054Y01797D02*
Y02077D01*
X01232Y01791D02*
X01512D01*
X01232Y02071D02*
X01512D01*
Y01791D02*
Y02071D01*
X01232Y01791D02*
Y02071D01*
X01839Y01792D02*
X02119D01*
X01839Y02072D02*
X02119D01*
Y01792D02*
Y02072D01*
X01839Y01792D02*
Y02072D01*
X05891Y01935D02*
Y02055D01*
X05813Y01936D02*
Y02055D01*
X06038Y01935D02*
Y02055D01*
X0596Y01936D02*
Y02055D01*
X05597Y02263D02*
Y02383D01*
X05519Y02264D02*
Y02383D01*
X0545Y02263D02*
Y02383D01*
X05372Y02264D02*
Y02383D01*
X05744Y02263D02*
Y02383D01*
X05666Y02264D02*
Y02383D01*
X05303Y01935D02*
Y02055D01*
X05225Y01936D02*
Y02055D01*
X06038Y02263D02*
Y02383D01*
X0596Y02264D02*
Y02383D01*
X05891Y02263D02*
Y02383D01*
X05813Y02264D02*
Y02383D01*
X05597Y01935D02*
Y02055D01*
X05519Y01936D02*
Y02055D01*
X0545Y01935D02*
Y02055D01*
X05372Y01936D02*
Y02055D01*
X05744Y01935D02*
Y02055D01*
X05666Y01936D02*
Y02055D01*
X05303Y02263D02*
Y02383D01*
X05225Y02264D02*
Y02383D01*
X05597Y01279D02*
Y01399D01*
X05519Y0128D02*
Y01399D01*
X05744Y01279D02*
Y01399D01*
X05666Y0128D02*
Y01399D01*
X05891Y01279D02*
Y01399D01*
X05813Y0128D02*
Y01399D01*
X06038Y01279D02*
Y01399D01*
X0596Y0128D02*
Y01399D01*
X0545Y01279D02*
Y01399D01*
X05372Y0128D02*
Y01399D01*
X05891Y01607D02*
Y01727D01*
X05813Y01608D02*
Y01727D01*
X06038Y01607D02*
Y01727D01*
X0596Y01608D02*
Y01727D01*
X05303Y01607D02*
Y01727D01*
X05225Y01608D02*
Y01727D01*
X0545Y01607D02*
Y01727D01*
X05372Y01608D02*
Y01727D01*
X05744Y01607D02*
Y01727D01*
X05666Y01608D02*
Y01727D01*
X05597Y01607D02*
Y01727D01*
X05519Y01608D02*
Y01727D01*
X0545Y00296D02*
Y00416D01*
X05372Y00297D02*
Y00416D01*
X0464Y02592D02*
Y02711D01*
X04718Y02591D02*
Y02711D01*
X05374Y02592D02*
Y02711D01*
X05452Y02591D02*
Y02711D01*
X05303Y01279D02*
Y01399D01*
X05225Y0128D02*
Y01399D01*
X05227Y02592D02*
Y02711D01*
X05305Y02591D02*
Y02711D01*
X04933Y02592D02*
Y02711D01*
X05011Y02591D02*
Y02711D01*
X0508Y02592D02*
Y02711D01*
X05158Y02591D02*
Y02711D01*
X05303Y00624D02*
Y00744D01*
X05225Y00625D02*
Y00744D01*
X04862Y02263D02*
Y02383D01*
X04784Y02264D02*
Y02383D01*
X05009Y02263D02*
Y02383D01*
X04931Y02264D02*
Y02383D01*
X05156Y02263D02*
Y02383D01*
X05078Y02264D02*
Y02383D01*
X04786Y02592D02*
Y02711D01*
X04864Y02591D02*
Y02711D01*
X05815Y02592D02*
Y02711D01*
X05893Y02591D02*
Y02711D01*
X05668Y02592D02*
Y02711D01*
X05746Y02591D02*
Y02711D01*
X05521Y02592D02*
Y02711D01*
X05599Y02591D02*
Y02711D01*
X05962Y02592D02*
Y02711D01*
X0604Y02591D02*
Y02711D01*
X05303Y00296D02*
Y00416D01*
X05225Y00297D02*
Y00416D01*
X05891Y00296D02*
Y00416D01*
X05813Y00297D02*
Y00416D01*
X05744Y00296D02*
Y00416D01*
X05666Y00297D02*
Y00416D01*
X05597Y00296D02*
Y00416D01*
X05519Y00297D02*
Y00416D01*
X05303Y00952D02*
Y01072D01*
X05225Y00953D02*
Y01072D01*
X05597Y00952D02*
Y01072D01*
X05519Y00953D02*
Y01072D01*
X05744Y00952D02*
Y01072D01*
X05666Y00953D02*
Y01072D01*
X0545Y00952D02*
Y01072D01*
X05372Y00953D02*
Y01072D01*
X0596Y00297D02*
Y00416D01*
X06038Y00296D02*
Y00416D01*
X05891Y00624D02*
Y00744D01*
X05813Y00625D02*
Y00744D01*
X06038Y00624D02*
Y00744D01*
X0596Y00625D02*
Y00744D01*
X0545Y00624D02*
Y00744D01*
X05372Y00625D02*
Y00744D01*
X05744Y00624D02*
Y00744D01*
X05666Y00625D02*
Y00744D01*
X05597Y00624D02*
Y00744D01*
X05519Y00625D02*
Y00744D01*
X05891Y00952D02*
Y01072D01*
X05813Y00953D02*
Y01072D01*
X04716Y02263D02*
Y02383D01*
X04638Y02264D02*
Y02383D01*
X06038Y00952D02*
Y01072D01*
X0596Y00953D02*
Y01072D01*
X04716Y00296D02*
Y00416D01*
X04638Y00297D02*
Y00416D01*
X04862Y00624D02*
Y00744D01*
X04784Y00625D02*
Y00744D01*
X04716Y00624D02*
Y00744D01*
X04638Y00625D02*
Y00744D01*
X04862Y00296D02*
Y00416D01*
X04784Y00297D02*
Y00416D01*
X04716Y00952D02*
Y01072D01*
X04638Y00953D02*
Y01072D01*
X05156Y00952D02*
Y01072D01*
X05078Y00953D02*
Y01072D01*
X04716Y01279D02*
Y01399D01*
X04638Y0128D02*
Y01399D01*
X05009Y01279D02*
Y01399D01*
X04931Y0128D02*
Y01399D01*
X05156Y01279D02*
Y01399D01*
X05078Y0128D02*
Y01399D01*
X05009Y00952D02*
Y01072D01*
X04931Y00953D02*
Y01072D01*
X04862Y01279D02*
Y01399D01*
X04784Y0128D02*
Y01399D01*
X04862Y00952D02*
Y01072D01*
X04784Y00953D02*
Y01072D01*
X04716Y01607D02*
Y01727D01*
X04638Y01608D02*
Y01727D01*
X04862Y01935D02*
Y02055D01*
X04784Y01936D02*
Y02055D01*
X04862Y01607D02*
Y01727D01*
X04784Y01608D02*
Y01727D01*
X04716Y01935D02*
Y02055D01*
X04638Y01936D02*
Y02055D01*
X05009Y00296D02*
Y00416D01*
X04931Y00297D02*
Y00416D01*
X05009Y00624D02*
Y00744D01*
X04931Y00625D02*
Y00744D01*
X05156Y00624D02*
Y00744D01*
X05078Y00625D02*
Y00744D01*
X05156Y00296D02*
Y00416D01*
X05078Y00297D02*
Y00416D01*
X05156Y01607D02*
Y01727D01*
X05078Y01608D02*
Y01727D01*
X05009Y01935D02*
Y02055D01*
X04931Y01936D02*
Y02055D01*
X05009Y01607D02*
Y01727D01*
X04931Y01608D02*
Y01727D01*
X05156Y01935D02*
Y02055D01*
X05078Y01936D02*
Y02055D01*
X03442Y02608D02*
X03481D01*
Y02588*
X03475Y02581*
X03461*
X03455Y02588*
Y02608*
X03481Y02568D02*
X03442Y02541D01*
X03481D02*
X03442Y02568D01*
X03481Y02528D02*
X03442D01*
Y02501*
X03481Y02448D02*
X03442D01*
X03481Y02428D02*
X03442D01*
Y02348D02*
Y02361D01*
X03448Y02368*
X03461*
X03468Y02361*
Y02348*
X03461Y02341*
X03455*
Y02368*
X03442Y02328D02*
Y02314D01*
Y02321*
X03481*
Y02328*
X03442Y02274D02*
Y02288D01*
X03448Y02294*
X03461*
X03468Y02288*
Y02274*
X03461Y02268*
X03455*
Y02294*
X03468Y02228D02*
Y02248D01*
X03461Y02254*
X03448*
X03442Y02248*
Y02228*
X03475Y02208D02*
X03468D01*
Y02214*
Y02201*
Y02208*
X03448*
X03442Y02201*
X03468Y02181D02*
X03442D01*
X03455*
X03461Y02174*
X03468Y02168*
Y02161*
X03442Y02134D02*
Y02121D01*
X03448Y02114*
X03461*
X03468Y02121*
Y02134*
X03461Y02141*
X03448*
X03442Y02134*
Y02101D02*
X03468D01*
Y02081*
X03461Y02074*
X03442*
Y02061D02*
Y02048D01*
Y02054*
X03468*
Y02061*
X03442Y02028D02*
X03481D01*
X03455D02*
X03468Y02008D01*
X03455Y02028D02*
X03442Y02008D01*
X03468Y01981D02*
Y01968D01*
X03461Y01961*
X03442*
Y01981*
X03448Y01988*
X03455Y01981*
Y01961*
X03461Y01948D02*
Y01921D01*
X03481Y01908D02*
Y01894D01*
Y01901*
X03442*
Y01908*
Y01894*
X03475Y01848D02*
X03481Y01854D01*
Y01868*
X03475Y01874*
X03448*
X03442Y01868*
Y01854*
X03448Y01848*
X03481Y01834D02*
Y01808D01*
Y01821*
X03442*
X04703Y02908D02*
X04693Y02918D01*
X04673*
X04664Y02908*
Y02898*
X04673Y02888*
X04693*
X04703Y02878*
Y02868*
X04693Y02858*
X04673*
X04664Y02868*
X04723Y02839D02*
Y02898D01*
X04753*
X04763Y02888*
Y02868*
X04753Y02858*
X04723*
X04813D02*
X04793D01*
X04783Y02868*
Y02888*
X04793Y02898*
X04813*
X04823Y02888*
Y02878*
X04783*
X04883Y02898D02*
X04853D01*
X04843Y02888*
Y02868*
X04853Y02858*
X04883*
X04913Y02908D02*
Y02898D01*
X04903*
X04923*
X04913*
Y02868*
X04923Y02858*
X04953Y02898D02*
Y02858D01*
Y02878*
X04963Y02888*
X04973Y02898*
X04983*
X05013D02*
Y02868D01*
X05023Y02858*
X05053*
Y02898*
X05073Y02858D02*
Y02898D01*
X05083*
X05093Y02888*
Y02858*
Y02888*
X05103Y02898*
X05113Y02888*
Y02858*
X05193D02*
Y02898D01*
X05213Y02918*
X05233Y02898*
Y02858*
Y02888*
X05193*
X05253Y02858D02*
Y02898D01*
X05283*
X05293Y02888*
Y02858*
X05323Y02898D02*
X05343D01*
X05353Y02888*
Y02858*
X05323*
X05313Y02868*
X05323Y02878*
X05353*
X05373Y02858D02*
X05393D01*
X05383*
Y02918*
X05373*
X05423Y02898D02*
Y02868D01*
X05433Y02858*
X05463*
Y02848*
X05453Y02839*
X05443*
X05463Y02858D02*
Y02898D01*
X05483D02*
X05523D01*
X05483Y02858*
X05523*
X05573D02*
X05553D01*
X05543Y02868*
Y02888*
X05553Y02898*
X05573*
X05583Y02888*
Y02878*
X05543*
X05603Y02898D02*
Y02858D01*
Y02878*
X05613Y02888*
X05623Y02898*
X05633*
X05723D02*
X05743Y02858D01*
X05763Y02898*
X05783Y02858D02*
X05803D01*
X05793*
Y02918*
X05783Y02908*
X04744Y00114D02*
Y00174D01*
X04763Y00154*
X04783Y00174*
Y00114*
X04803D02*
X04823D01*
X04813*
Y00154*
X04803*
X04873Y00095D02*
X04883D01*
X04893Y00104*
Y00154*
X04863*
X04853Y00144*
Y00124*
X04863Y00114*
X04893*
X04913Y00154D02*
Y00124D01*
X04923Y00114*
X04953*
Y00154*
X05003Y00114D02*
X04983D01*
X04973Y00124*
Y00144*
X04983Y00154*
X05003*
X05013Y00144*
Y00134*
X04973*
X05033Y00114D02*
X05053D01*
X05043*
Y00174*
X05033*
X05143Y00114D02*
Y00174D01*
X05183Y00114*
Y00174*
X05203Y00154D02*
Y00124D01*
X05213Y00114*
X05243*
Y00154*
X05263Y00114D02*
Y00154D01*
X05293*
X05303Y00144*
Y00114*
X05353D02*
X05333D01*
X05323Y00124*
Y00144*
X05333Y00154*
X05353*
X05363Y00144*
Y00134*
X05323*
X05383Y00154D02*
X05423D01*
X05383Y00114*
X05423*
X05543D02*
X05503D01*
X05543Y00154*
Y00164*
X05533Y00174*
X05513*
X05503Y00164*
X05563D02*
X05573Y00174D01*
X05593*
X05603Y00164*
Y00124*
X05593Y00114*
X05573*
X05563Y00124*
Y00164*
X05663Y00114D02*
X05623D01*
X05663Y00154*
Y00164*
X05653Y00174*
X05633*
X05623Y00164*
X05683D02*
X05693Y00174D01*
X05713*
X05723Y00164*
Y00154*
X05713Y00144*
X05703*
X05713*
X05723Y00134*
Y00124*
X05713Y00114*
X05693*
X05683Y00124*
X05799Y02041D02*
X05769D01*
Y02021*
X05799Y02011D02*
X05769D01*
Y01996*
X05774Y01991*
X05794*
X05799Y01996*
Y02011*
Y01961D02*
Y01981D01*
X05784*
X05789Y01971*
Y01966*
X05784Y01961*
X05774*
X05769Y01966*
Y01976*
X05774Y01981*
X05769Y01951D02*
Y01941D01*
Y01946*
X05799*
X05794Y01951*
X05945Y02046D02*
X05915D01*
Y02026*
X05945Y02016D02*
X05915D01*
Y02001*
X0592Y01996*
X0594*
X05945Y02001*
Y02016*
Y01966D02*
Y01986D01*
X0593*
X05935Y01976*
Y01971*
X0593Y01966*
X0592*
X05915Y01971*
Y01981*
X0592Y01986*
X0594Y01956D02*
X05945Y01951D01*
Y01941*
X0594Y01936*
X0592*
X05915Y01941*
Y01951*
X0592Y01956*
X0594*
X05505Y02373D02*
X05475D01*
Y02353*
X05505Y02343D02*
X05475D01*
Y02328*
X0548Y02323*
X055*
X05505Y02328*
Y02343*
X055Y02313D02*
X05505Y02308D01*
Y02298*
X055Y02293*
X05495*
X0549Y02298*
Y02303*
Y02298*
X05485Y02293*
X0548*
X05475Y02298*
Y02308*
X0548Y02313*
X055Y02283D02*
X05505Y02278D01*
Y02268*
X055Y02263*
X05495*
X0549Y02268*
Y02273*
Y02268*
X05485Y02263*
X0548*
X05475Y02268*
Y02278*
X0548Y02283*
X05358Y02373D02*
X05328D01*
Y02353*
X05358Y02343D02*
X05328D01*
Y02328*
X05333Y02323*
X05353*
X05358Y02328*
Y02343*
X05353Y02313D02*
X05358Y02308D01*
Y02298*
X05353Y02293*
X05348*
X05343Y02298*
Y02303*
Y02298*
X05338Y02293*
X05333*
X05328Y02298*
Y02308*
X05333Y02313*
X05328Y02268D02*
X05358D01*
X05343Y02283*
Y02263*
X05652Y02373D02*
X05622D01*
Y02353*
X05652Y02343D02*
X05622D01*
Y02328*
X05627Y02323*
X05647*
X05652Y02328*
Y02343*
X05647Y02313D02*
X05652Y02308D01*
Y02298*
X05647Y02293*
X05642*
X05637Y02298*
Y02303*
Y02298*
X05632Y02293*
X05627*
X05622Y02298*
Y02308*
X05627Y02313*
X05622Y02263D02*
Y02283D01*
X05642Y02263*
X05647*
X05652Y02268*
Y02278*
X05647Y02283*
X05211Y02046D02*
X05181D01*
Y02026*
X05211Y02016D02*
X05181D01*
Y02001*
X05186Y01996*
X05206*
X05211Y02001*
Y02016*
Y01966D02*
Y01986D01*
X05196*
X05201Y01976*
Y01971*
X05196Y01966*
X05186*
X05181Y01971*
Y01981*
X05186Y01986*
X05211Y01936D02*
Y01956D01*
X05196*
X05201Y01946*
Y01941*
X05196Y01936*
X05186*
X05181Y01941*
Y01951*
X05186Y01956*
X05945Y02373D02*
X05915D01*
Y02353*
X05945Y02343D02*
X05915D01*
Y02328*
X0592Y02323*
X0594*
X05945Y02328*
Y02343*
X0594Y02313D02*
X05945Y02308D01*
Y02298*
X0594Y02293*
X05935*
X0593Y02298*
Y02303*
Y02298*
X05925Y02293*
X0592*
X05915Y02298*
Y02308*
X0592Y02313*
X0594Y02283D02*
X05945Y02278D01*
Y02268*
X0594Y02263*
X0592*
X05915Y02268*
Y02278*
X0592Y02283*
X0594*
X05799Y02368D02*
X05769D01*
Y02348*
X05799Y02338D02*
X05769D01*
Y02323*
X05774Y02318*
X05794*
X05799Y02323*
Y02338*
X05794Y02308D02*
X05799Y02303D01*
Y02293*
X05794Y02288*
X05789*
X05784Y02293*
Y02298*
Y02293*
X05779Y02288*
X05774*
X05769Y02293*
Y02303*
X05774Y02308*
X05769Y02278D02*
Y02268D01*
Y02273*
X05799*
X05794Y02278*
X05505Y02046D02*
X05475D01*
Y02026*
X05505Y02016D02*
X05475D01*
Y02001*
X0548Y01996*
X055*
X05505Y02001*
Y02016*
Y01966D02*
Y01986D01*
X0549*
X05495Y01976*
Y01971*
X0549Y01966*
X0548*
X05475Y01971*
Y01981*
X0548Y01986*
X055Y01956D02*
X05505Y01951D01*
Y01941*
X055Y01936*
X05495*
X0549Y01941*
Y01946*
Y01941*
X05485Y01936*
X0548*
X05475Y01941*
Y01951*
X0548Y01956*
X05358Y02046D02*
X05328D01*
Y02026*
X05358Y02016D02*
X05328D01*
Y02001*
X05333Y01996*
X05353*
X05358Y02001*
Y02016*
Y01966D02*
Y01986D01*
X05343*
X05348Y01976*
Y01971*
X05343Y01966*
X05333*
X05328Y01971*
Y01981*
X05333Y01986*
X05328Y01941D02*
X05358D01*
X05343Y01956*
Y01936*
X05652Y02046D02*
X05622D01*
Y02026*
X05652Y02016D02*
X05622D01*
Y02001*
X05627Y01996*
X05647*
X05652Y02001*
Y02016*
Y01966D02*
Y01986D01*
X05637*
X05642Y01976*
Y01971*
X05637Y01966*
X05627*
X05622Y01971*
Y01981*
X05627Y01986*
X05622Y01936D02*
Y01956D01*
X05642Y01936*
X05647*
X05652Y01941*
Y01951*
X05647Y01956*
X05211Y02373D02*
X05181D01*
Y02353*
X05211Y02343D02*
X05181D01*
Y02328*
X05186Y02323*
X05206*
X05211Y02328*
Y02343*
X05206Y02313D02*
X05211Y02308D01*
Y02298*
X05206Y02293*
X05201*
X05196Y02298*
Y02303*
Y02298*
X05191Y02293*
X05186*
X05181Y02298*
Y02308*
X05186Y02313*
X05211Y02263D02*
Y02283D01*
X05196*
X05201Y02273*
Y02268*
X05196Y02263*
X05186*
X05181Y02268*
Y02278*
X05186Y02283*
X05505Y0139D02*
X05475D01*
Y0137*
X05505Y0136D02*
X05475D01*
Y01345*
X0548Y0134*
X055*
X05505Y01345*
Y0136*
Y01311D02*
X055Y01321D01*
X0549Y01331*
X0548*
X05475Y01326*
Y01316*
X0548Y01311*
X05485*
X0549Y01316*
Y01331*
X055Y01301D02*
X05505Y01296D01*
Y01286*
X055Y01281*
X05495*
X0549Y01286*
Y01291*
Y01286*
X05485Y01281*
X0548*
X05475Y01286*
Y01296*
X0548Y01301*
X05652Y0139D02*
X05622D01*
Y0137*
X05652Y0136D02*
X05622D01*
Y01345*
X05627Y0134*
X05647*
X05652Y01345*
Y0136*
Y01311D02*
X05647Y01321D01*
X05637Y01331*
X05627*
X05622Y01326*
Y01316*
X05627Y01311*
X05632*
X05637Y01316*
Y01331*
X05622Y01281D02*
Y01301D01*
X05642Y01281*
X05647*
X05652Y01286*
Y01296*
X05647Y01301*
X05799Y01385D02*
X05769D01*
Y01365*
X05799Y01355D02*
X05769D01*
Y0134*
X05774Y01335*
X05794*
X05799Y0134*
Y01355*
Y01306D02*
X05794Y01316D01*
X05784Y01326*
X05774*
X05769Y01321*
Y01311*
X05774Y01306*
X05779*
X05784Y01311*
Y01326*
X05769Y01296D02*
Y01286D01*
Y01291*
X05799*
X05794Y01296*
X05945Y0139D02*
X05915D01*
Y0137*
X05945Y0136D02*
X05915D01*
Y01345*
X0592Y0134*
X0594*
X05945Y01345*
Y0136*
Y01311D02*
X0594Y01321D01*
X0593Y01331*
X0592*
X05915Y01326*
Y01316*
X0592Y01311*
X05925*
X0593Y01316*
Y01331*
X0594Y01301D02*
X05945Y01296D01*
Y01286*
X0594Y01281*
X0592*
X05915Y01286*
Y01296*
X0592Y01301*
X0594*
X05358Y0139D02*
X05328D01*
Y0137*
X05358Y0136D02*
X05328D01*
Y01345*
X05333Y0134*
X05353*
X05358Y01345*
Y0136*
Y01311D02*
X05353Y01321D01*
X05343Y01331*
X05333*
X05328Y01326*
Y01316*
X05333Y01311*
X05338*
X05343Y01316*
Y01331*
X05328Y01286D02*
X05358D01*
X05343Y01301*
Y01281*
X05799Y01713D02*
X05769D01*
Y01693*
X05799Y01683D02*
X05769D01*
Y01668*
X05774Y01663*
X05794*
X05799Y01668*
Y01683*
Y01653D02*
Y01633D01*
X05794*
X05774Y01653*
X05769*
Y01623D02*
Y01613D01*
Y01618*
X05799*
X05794Y01623*
X05945Y01718D02*
X05915D01*
Y01698*
X05945Y01688D02*
X05915D01*
Y01673*
X0592Y01668*
X0594*
X05945Y01673*
Y01688*
Y01658D02*
Y01638D01*
X0594*
X0592Y01658*
X05915*
X0594Y01628D02*
X05945Y01623D01*
Y01613*
X0594Y01608*
X0592*
X05915Y01613*
Y01623*
X0592Y01628*
X0594*
X05211Y01718D02*
X05181D01*
Y01698*
X05211Y01688D02*
X05181D01*
Y01673*
X05186Y01668*
X05206*
X05211Y01673*
Y01688*
Y01658D02*
Y01638D01*
X05206*
X05186Y01658*
X05181*
X05211Y01608D02*
Y01628D01*
X05196*
X05201Y01618*
Y01613*
X05196Y01608*
X05186*
X05181Y01613*
Y01623*
X05186Y01628*
X05358Y01718D02*
X05328D01*
Y01698*
X05358Y01688D02*
X05328D01*
Y01673*
X05333Y01668*
X05353*
X05358Y01673*
Y01688*
Y01658D02*
Y01638D01*
X05353*
X05333Y01658*
X05328*
Y01613D02*
X05358D01*
X05343Y01628*
Y01608*
X05652Y01718D02*
X05622D01*
Y01698*
X05652Y01688D02*
X05622D01*
Y01673*
X05627Y01668*
X05647*
X05652Y01673*
Y01688*
Y01658D02*
Y01638D01*
X05647*
X05627Y01658*
X05622*
Y01608D02*
Y01628D01*
X05642Y01608*
X05647*
X05652Y01613*
Y01623*
X05647Y01628*
X05505Y01718D02*
X05475D01*
Y01698*
X05505Y01688D02*
X05475D01*
Y01673*
X0548Y01668*
X055*
X05505Y01673*
Y01688*
Y01658D02*
Y01638D01*
X055*
X0548Y01658*
X05475*
X055Y01628D02*
X05505Y01623D01*
Y01613*
X055Y01608*
X05495*
X0549Y01613*
Y01618*
Y01613*
X05485Y01608*
X0548*
X05475Y01613*
Y01623*
X0548Y01628*
X05358Y00408D02*
X05328D01*
Y00388*
X05358Y00378D02*
X05328D01*
Y00363*
X05333Y00358*
X05353*
X05358Y00363*
Y00378*
X05353Y00348D02*
X05358Y00343D01*
Y00333*
X05353Y00328*
X05333*
X05328Y00333*
Y00343*
X05333Y00348*
X05353*
X05328Y00303D02*
X05358D01*
X05343Y00318*
Y00298*
X04625Y02699D02*
X04596D01*
Y02679*
X04625Y02669D02*
X04596D01*
Y02654*
X046Y02649*
X0462*
X04625Y02654*
Y02669*
X04596Y02639D02*
Y02629D01*
Y02634*
X04625*
X0462Y02639*
X046Y02614D02*
X04596Y02609D01*
Y02599*
X046Y02594*
X0462*
X04625Y02599*
Y02609*
X0462Y02614*
X04615*
X0461Y02609*
Y02594*
X0536Y02699D02*
X0533D01*
Y02679*
X0536Y02669D02*
X0533D01*
Y02654*
X05335Y02649*
X05355*
X0536Y02654*
Y02669*
X0533Y02639D02*
Y02629D01*
Y02634*
X0536*
X05355Y02639*
X0533Y02599D02*
X0536D01*
X05345Y02614*
Y02594*
X05211Y0139D02*
X05181D01*
Y0137*
X05211Y0136D02*
X05181D01*
Y01345*
X05186Y0134*
X05206*
X05211Y01345*
Y0136*
Y01311D02*
X05206Y01321D01*
X05196Y01331*
X05186*
X05181Y01326*
Y01316*
X05186Y01311*
X05191*
X05196Y01316*
Y01331*
X05211Y01281D02*
Y01301D01*
X05196*
X05201Y01291*
Y01286*
X05196Y01281*
X05186*
X05181Y01286*
Y01296*
X05186Y01301*
X05213Y02699D02*
X05183D01*
Y02679*
X05213Y02669D02*
X05183D01*
Y02654*
X05188Y02649*
X05208*
X05213Y02654*
Y02669*
X05183Y02639D02*
Y02629D01*
Y02634*
X05213*
X05208Y02639*
X05213Y02594D02*
Y02614D01*
X05198*
X05203Y02604*
Y02599*
X05198Y02594*
X05188*
X05183Y02599*
Y02609*
X05188Y02614*
X04919Y02699D02*
X04889D01*
Y02679*
X04919Y02669D02*
X04889D01*
Y02654*
X04894Y02649*
X04914*
X04919Y02654*
Y02669*
X04889Y02639D02*
Y02629D01*
Y02634*
X04919*
X04914Y02639*
X04919Y02614D02*
Y02594D01*
X04914*
X04894Y02614*
X04889*
X05066Y02699D02*
X05036D01*
Y02679*
X05066Y02669D02*
X05036D01*
Y02654*
X05041Y02649*
X05061*
X05066Y02654*
Y02669*
X05036Y02639D02*
Y02629D01*
Y02634*
X05066*
X05061Y02639*
X05066Y02594D02*
X05061Y02604D01*
X05051Y02614*
X05041*
X05036Y02609*
Y02599*
X05041Y02594*
X05046*
X05051Y02599*
Y02614*
X05211Y00735D02*
X05181D01*
Y00715*
X05211Y00705D02*
X05181D01*
Y0069*
X05186Y00685*
X05206*
X05211Y0069*
Y00705*
X05181Y00655D02*
Y00675D01*
X05201Y00655*
X05206*
X05211Y0066*
Y0067*
X05206Y00675*
X05211Y00625D02*
Y00645D01*
X05196*
X05201Y00635*
Y0063*
X05196Y00625*
X05186*
X05181Y0063*
Y0064*
X05186Y00645*
X0477Y02373D02*
X0474D01*
Y02353*
X0477Y02343D02*
X0474D01*
Y02328*
X04745Y02323*
X04765*
X0477Y02328*
Y02343*
X04765Y02313D02*
X0477Y02308D01*
Y02298*
X04765Y02293*
X0476*
X04755Y02298*
Y02303*
Y02298*
X0475Y02293*
X04745*
X0474Y02298*
Y02308*
X04745Y02313*
X04765Y02283D02*
X0477Y02278D01*
Y02268*
X04765Y02263*
X0476*
X04755Y02268*
X0475Y02263*
X04745*
X0474Y02268*
Y02278*
X04745Y02283*
X0475*
X04755Y02278*
X0476Y02283*
X04765*
X04755Y02278D02*
Y02268D01*
X04917Y02373D02*
X04887D01*
Y02353*
X04917Y02343D02*
X04887D01*
Y02328*
X04892Y02323*
X04912*
X04917Y02328*
Y02343*
X04912Y02313D02*
X04917Y02308D01*
Y02298*
X04912Y02293*
X04907*
X04902Y02298*
Y02303*
Y02298*
X04897Y02293*
X04892*
X04887Y02298*
Y02308*
X04892Y02313*
X04917Y02283D02*
Y02263D01*
X04912*
X04892Y02283*
X04887*
X05064Y02373D02*
X05034D01*
Y02353*
X05064Y02343D02*
X05034D01*
Y02328*
X05039Y02323*
X05059*
X05064Y02328*
Y02343*
X05059Y02313D02*
X05064Y02308D01*
Y02298*
X05059Y02293*
X05054*
X05049Y02298*
Y02303*
Y02298*
X05044Y02293*
X05039*
X05034Y02298*
Y02308*
X05039Y02313*
X05064Y02263D02*
X05059Y02273D01*
X05049Y02283*
X05039*
X05034Y02278*
Y02268*
X05039Y02263*
X05044*
X05049Y02268*
Y02283*
X04772Y02699D02*
X04742D01*
Y02679*
X04772Y02669D02*
X04742D01*
Y02654*
X04747Y02649*
X04767*
X04772Y02654*
Y02669*
X04742Y02639D02*
Y02629D01*
Y02634*
X04772*
X04767Y02639*
Y02614D02*
X04772Y02609D01*
Y02599*
X04767Y02594*
X04762*
X04757Y02599*
X04752Y02594*
X04747*
X04742Y02599*
Y02609*
X04747Y02614*
X04752*
X04757Y02609*
X04762Y02614*
X04767*
X04757Y02609D02*
Y02599D01*
X05801Y02694D02*
X05771D01*
Y02674*
X05801Y02664D02*
X05771D01*
Y02649*
X05776Y02644*
X05796*
X05801Y02649*
Y02664*
X05771Y02634D02*
Y02624D01*
Y02629*
X05801*
X05796Y02634*
X05771Y02609D02*
Y02599D01*
Y02604*
X05801*
X05796Y02609*
X05654Y02699D02*
X05624D01*
Y02679*
X05654Y02669D02*
X05624D01*
Y02654*
X05629Y02649*
X05649*
X05654Y02654*
Y02669*
X05624Y02639D02*
Y02629D01*
Y02634*
X05654*
X05649Y02639*
X05624Y02594D02*
Y02614D01*
X05644Y02594*
X05649*
X05654Y02599*
Y02609*
X05649Y02614*
X05507Y02699D02*
X05477D01*
Y02679*
X05507Y02669D02*
X05477D01*
Y02654*
X05482Y02649*
X05502*
X05507Y02654*
Y02669*
X05477Y02639D02*
Y02629D01*
Y02634*
X05507*
X05502Y02639*
Y02614D02*
X05507Y02609D01*
Y02599*
X05502Y02594*
X05497*
X05492Y02599*
Y02604*
Y02599*
X05487Y02594*
X05482*
X05477Y02599*
Y02609*
X05482Y02614*
X05947Y02699D02*
X05917D01*
Y02679*
X05947Y02669D02*
X05917D01*
Y02654*
X05922Y02649*
X05942*
X05947Y02654*
Y02669*
X05917Y02639D02*
Y02629D01*
Y02634*
X05947*
X05942Y02639*
Y02614D02*
X05947Y02609D01*
Y02599*
X05942Y02594*
X05922*
X05917Y02599*
Y02609*
X05922Y02614*
X05942*
X05211Y00408D02*
X05181D01*
Y00388*
X05211Y00378D02*
X05181D01*
Y00363*
X05186Y00358*
X05206*
X05211Y00363*
Y00378*
X05206Y00348D02*
X05211Y00343D01*
Y00333*
X05206Y00328*
X05186*
X05181Y00333*
Y00343*
X05186Y00348*
X05206*
X05211Y00298D02*
Y00318D01*
X05196*
X05201Y00308*
Y00303*
X05196Y00298*
X05186*
X05181Y00303*
Y00313*
X05186Y00318*
X05799Y00403D02*
X05769D01*
Y00383*
X05799Y00373D02*
X05769D01*
Y00358*
X05774Y00353*
X05794*
X05799Y00358*
Y00373*
X05794Y00343D02*
X05799Y00338D01*
Y00328*
X05794Y00323*
X05774*
X05769Y00328*
Y00338*
X05774Y00343*
X05794*
X05769Y00313D02*
Y00303D01*
Y00308*
X05799*
X05794Y00313*
X05652Y00408D02*
X05622D01*
Y00388*
X05652Y00378D02*
X05622D01*
Y00363*
X05627Y00358*
X05647*
X05652Y00363*
Y00378*
X05647Y00348D02*
X05652Y00343D01*
Y00333*
X05647Y00328*
X05627*
X05622Y00333*
Y00343*
X05627Y00348*
X05647*
X05622Y00298D02*
Y00318D01*
X05642Y00298*
X05647*
X05652Y00303*
Y00313*
X05647Y00318*
X05505Y00408D02*
X05475D01*
Y00388*
X05505Y00378D02*
X05475D01*
Y00363*
X0548Y00358*
X055*
X05505Y00363*
Y00378*
X055Y00348D02*
X05505Y00343D01*
Y00333*
X055Y00328*
X0548*
X05475Y00333*
Y00343*
X0548Y00348*
X055*
Y00318D02*
X05505Y00313D01*
Y00303*
X055Y00298*
X05495*
X0549Y00303*
Y00308*
Y00303*
X05485Y00298*
X0548*
X05475Y00303*
Y00313*
X0548Y00318*
X05211Y01063D02*
X05181D01*
Y01043*
X05211Y01033D02*
X05181D01*
Y01018*
X05186Y01013*
X05206*
X05211Y01018*
Y01033*
X05181Y00988D02*
X05211D01*
X05196Y01003*
Y00983*
X05211Y00953D02*
Y00973D01*
X05196*
X05201Y00963*
Y00958*
X05196Y00953*
X05186*
X05181Y00958*
Y00968*
X05186Y00973*
X05505Y01063D02*
X05475D01*
Y01043*
X05505Y01033D02*
X05475D01*
Y01018*
X0548Y01013*
X055*
X05505Y01018*
Y01033*
X05475Y00988D02*
X05505D01*
X0549Y01003*
Y00983*
X055Y00973D02*
X05505Y00968D01*
Y00958*
X055Y00953*
X05495*
X0549Y00958*
Y00963*
Y00958*
X05485Y00953*
X0548*
X05475Y00958*
Y00968*
X0548Y00973*
X05652Y01063D02*
X05622D01*
Y01043*
X05652Y01033D02*
X05622D01*
Y01018*
X05627Y01013*
X05647*
X05652Y01018*
Y01033*
X05622Y00988D02*
X05652D01*
X05637Y01003*
Y00983*
X05622Y00953D02*
Y00973D01*
X05642Y00953*
X05647*
X05652Y00958*
Y00968*
X05647Y00973*
X05358Y01063D02*
X05328D01*
Y01043*
X05358Y01033D02*
X05328D01*
Y01018*
X05333Y01013*
X05353*
X05358Y01018*
Y01033*
X05328Y00988D02*
X05358D01*
X05343Y01003*
Y00983*
X05328Y00958D02*
X05358D01*
X05343Y00973*
Y00953*
X05945Y00408D02*
X05915D01*
Y00388*
X05945Y00378D02*
X05915D01*
Y00363*
X0592Y00358*
X0594*
X05945Y00363*
Y00378*
X0594Y00348D02*
X05945Y00343D01*
Y00333*
X0594Y00328*
X0592*
X05915Y00333*
Y00343*
X0592Y00348*
X0594*
Y00318D02*
X05945Y00313D01*
Y00303*
X0594Y00298*
X0592*
X05915Y00303*
Y00313*
X0592Y00318*
X0594*
X05799Y0073D02*
X05769D01*
Y0071*
X05799Y007D02*
X05769D01*
Y00685*
X05774Y0068*
X05794*
X05799Y00685*
Y007*
X05769Y0065D02*
Y0067D01*
X05789Y0065*
X05794*
X05799Y00655*
Y00665*
X05794Y0067*
X05769Y0064D02*
Y0063D01*
Y00635*
X05799*
X05794Y0064*
X05945Y00735D02*
X05915D01*
Y00715*
X05945Y00705D02*
X05915D01*
Y0069*
X0592Y00685*
X0594*
X05945Y0069*
Y00705*
X05915Y00655D02*
Y00675D01*
X05935Y00655*
X0594*
X05945Y0066*
Y0067*
X0594Y00675*
Y00645D02*
X05945Y0064D01*
Y0063*
X0594Y00625*
X0592*
X05915Y0063*
Y0064*
X0592Y00645*
X0594*
X05358Y00735D02*
X05328D01*
Y00715*
X05358Y00705D02*
X05328D01*
Y0069*
X05333Y00685*
X05353*
X05358Y0069*
Y00705*
X05328Y00655D02*
Y00675D01*
X05348Y00655*
X05353*
X05358Y0066*
Y0067*
X05353Y00675*
X05328Y0063D02*
X05358D01*
X05343Y00645*
Y00625*
X05652Y00735D02*
X05622D01*
Y00715*
X05652Y00705D02*
X05622D01*
Y0069*
X05627Y00685*
X05647*
X05652Y0069*
Y00705*
X05622Y00655D02*
Y00675D01*
X05642Y00655*
X05647*
X05652Y0066*
Y0067*
X05647Y00675*
X05622Y00625D02*
Y00645D01*
X05642Y00625*
X05647*
X05652Y0063*
Y0064*
X05647Y00645*
X05505Y00735D02*
X05475D01*
Y00715*
X05505Y00705D02*
X05475D01*
Y0069*
X0548Y00685*
X055*
X05505Y0069*
Y00705*
X05475Y00655D02*
Y00675D01*
X05495Y00655*
X055*
X05505Y0066*
Y0067*
X055Y00675*
Y00645D02*
X05505Y0064D01*
Y0063*
X055Y00625*
X05495*
X0549Y0063*
Y00635*
Y0063*
X05485Y00625*
X0548*
X05475Y0063*
Y0064*
X0548Y00645*
X05799Y01058D02*
X05769D01*
Y01038*
X05799Y01028D02*
X05769D01*
Y01013*
X05774Y01008*
X05794*
X05799Y01013*
Y01028*
X05769Y00983D02*
X05799D01*
X05784Y00998*
Y00978*
X05769Y00968D02*
Y00958D01*
Y00963*
X05799*
X05794Y00968*
X04623Y02373D02*
X04594D01*
Y02353*
X04623Y02343D02*
X04594D01*
Y02328*
X04598Y02323*
X04618*
X04623Y02328*
Y02343*
X04618Y02313D02*
X04623Y02308D01*
Y02298*
X04618Y02293*
X04613*
X04608Y02298*
Y02303*
Y02298*
X04603Y02293*
X04598*
X04594Y02298*
Y02308*
X04598Y02313*
Y02283D02*
X04594Y02278D01*
Y02268*
X04598Y02263*
X04618*
X04623Y02268*
Y02278*
X04618Y02283*
X04613*
X04608Y02278*
Y02263*
X05945Y01063D02*
X05915D01*
Y01043*
X05945Y01033D02*
X05915D01*
Y01018*
X0592Y01013*
X0594*
X05945Y01018*
Y01033*
X05915Y00988D02*
X05945D01*
X0593Y01003*
Y00983*
X0594Y00973D02*
X05945Y00968D01*
Y00958*
X0594Y00953*
X0592*
X05915Y00958*
Y00968*
X0592Y00973*
X0594*
X04623Y00408D02*
X04594D01*
Y00388*
X04623Y00378D02*
X04594D01*
Y00363*
X04598Y00358*
X04618*
X04623Y00363*
Y00378*
X04618Y00348D02*
X04623Y00343D01*
Y00333*
X04618Y00328*
X04598*
X04594Y00333*
Y00343*
X04598Y00348*
X04618*
X04598Y00318D02*
X04594Y00313D01*
Y00303*
X04598Y00298*
X04618*
X04623Y00303*
Y00313*
X04618Y00318*
X04613*
X04608Y00313*
Y00298*
X0477Y00735D02*
X0474D01*
Y00715*
X0477Y00705D02*
X0474D01*
Y0069*
X04745Y00685*
X04765*
X0477Y0069*
Y00705*
X0474Y00655D02*
Y00675D01*
X0476Y00655*
X04765*
X0477Y0066*
Y0067*
X04765Y00675*
Y00645D02*
X0477Y0064D01*
Y0063*
X04765Y00625*
X0476*
X04755Y0063*
X0475Y00625*
X04745*
X0474Y0063*
Y0064*
X04745Y00645*
X0475*
X04755Y0064*
X0476Y00645*
X04765*
X04755Y0064D02*
Y0063D01*
X04623Y00735D02*
X04594D01*
Y00715*
X04623Y00705D02*
X04594D01*
Y0069*
X04598Y00685*
X04618*
X04623Y0069*
Y00705*
X04594Y00655D02*
Y00675D01*
X04613Y00655*
X04618*
X04623Y0066*
Y0067*
X04618Y00675*
X04598Y00645D02*
X04594Y0064D01*
Y0063*
X04598Y00625*
X04618*
X04623Y0063*
Y0064*
X04618Y00645*
X04613*
X04608Y0064*
Y00625*
X0477Y00408D02*
X0474D01*
Y00388*
X0477Y00378D02*
X0474D01*
Y00363*
X04745Y00358*
X04765*
X0477Y00363*
Y00378*
X04765Y00348D02*
X0477Y00343D01*
Y00333*
X04765Y00328*
X04745*
X0474Y00333*
Y00343*
X04745Y00348*
X04765*
Y00318D02*
X0477Y00313D01*
Y00303*
X04765Y00298*
X0476*
X04755Y00303*
X0475Y00298*
X04745*
X0474Y00303*
Y00313*
X04745Y00318*
X0475*
X04755Y00313*
X0476Y00318*
X04765*
X04755Y00313D02*
Y00303D01*
X04623Y01063D02*
X04594D01*
Y01043*
X04623Y01033D02*
X04594D01*
Y01018*
X04598Y01013*
X04618*
X04623Y01018*
Y01033*
X04594Y00988D02*
X04623D01*
X04608Y01003*
Y00983*
X04598Y00973D02*
X04594Y00968D01*
Y00958*
X04598Y00953*
X04618*
X04623Y00958*
Y00968*
X04618Y00973*
X04613*
X04608Y00968*
Y00953*
X05064Y01063D02*
X05034D01*
Y01043*
X05064Y01033D02*
X05034D01*
Y01018*
X05039Y01013*
X05059*
X05064Y01018*
Y01033*
X05034Y00988D02*
X05064D01*
X05049Y01003*
Y00983*
X05064Y00953D02*
X05059Y00963D01*
X05049Y00973*
X05039*
X05034Y00968*
Y00958*
X05039Y00953*
X05044*
X05049Y00958*
Y00973*
X04623Y0139D02*
X04594D01*
Y0137*
X04623Y0136D02*
X04594D01*
Y01345*
X04598Y0134*
X04618*
X04623Y01345*
Y0136*
Y01311D02*
X04618Y01321D01*
X04608Y01331*
X04598*
X04594Y01326*
Y01316*
X04598Y01311*
X04603*
X04608Y01316*
Y01331*
X04598Y01301D02*
X04594Y01296D01*
Y01286*
X04598Y01281*
X04618*
X04623Y01286*
Y01296*
X04618Y01301*
X04613*
X04608Y01296*
Y01281*
X04917Y0139D02*
X04887D01*
Y0137*
X04917Y0136D02*
X04887D01*
Y01345*
X04892Y0134*
X04912*
X04917Y01345*
Y0136*
Y01311D02*
X04912Y01321D01*
X04902Y01331*
X04892*
X04887Y01326*
Y01316*
X04892Y01311*
X04897*
X04902Y01316*
Y01331*
X04917Y01301D02*
Y01281D01*
X04912*
X04892Y01301*
X04887*
X05064Y0139D02*
X05034D01*
Y0137*
X05064Y0136D02*
X05034D01*
Y01345*
X05039Y0134*
X05059*
X05064Y01345*
Y0136*
Y01311D02*
X05059Y01321D01*
X05049Y01331*
X05039*
X05034Y01326*
Y01316*
X05039Y01311*
X05044*
X05049Y01316*
Y01331*
X05064Y01281D02*
X05059Y01291D01*
X05049Y01301*
X05039*
X05034Y01296*
Y01286*
X05039Y01281*
X05044*
X05049Y01286*
Y01301*
X04917Y01063D02*
X04887D01*
Y01043*
X04917Y01033D02*
X04887D01*
Y01018*
X04892Y01013*
X04912*
X04917Y01018*
Y01033*
X04887Y00988D02*
X04917D01*
X04902Y01003*
Y00983*
X04917Y00973D02*
Y00953D01*
X04912*
X04892Y00973*
X04887*
X0477Y0139D02*
X0474D01*
Y0137*
X0477Y0136D02*
X0474D01*
Y01345*
X04745Y0134*
X04765*
X0477Y01345*
Y0136*
Y01311D02*
X04765Y01321D01*
X04755Y01331*
X04745*
X0474Y01326*
Y01316*
X04745Y01311*
X0475*
X04755Y01316*
Y01331*
X04765Y01301D02*
X0477Y01296D01*
Y01286*
X04765Y01281*
X0476*
X04755Y01286*
X0475Y01281*
X04745*
X0474Y01286*
Y01296*
X04745Y01301*
X0475*
X04755Y01296*
X0476Y01301*
X04765*
X04755Y01296D02*
Y01286D01*
X0477Y01063D02*
X0474D01*
Y01043*
X0477Y01033D02*
X0474D01*
Y01018*
X04745Y01013*
X04765*
X0477Y01018*
Y01033*
X0474Y00988D02*
X0477D01*
X04755Y01003*
Y00983*
X04765Y00973D02*
X0477Y00968D01*
Y00958*
X04765Y00953*
X0476*
X04755Y00958*
X0475Y00953*
X04745*
X0474Y00958*
Y00968*
X04745Y00973*
X0475*
X04755Y00968*
X0476Y00973*
X04765*
X04755Y00968D02*
Y00958D01*
X04623Y01718D02*
X04594D01*
Y01698*
X04623Y01688D02*
X04594D01*
Y01673*
X04598Y01668*
X04618*
X04623Y01673*
Y01688*
Y01658D02*
Y01638D01*
X04618*
X04598Y01658*
X04594*
X04598Y01628D02*
X04594Y01623D01*
Y01613*
X04598Y01608*
X04618*
X04623Y01613*
Y01623*
X04618Y01628*
X04613*
X04608Y01623*
Y01608*
X0477Y02046D02*
X0474D01*
Y02026*
X0477Y02016D02*
X0474D01*
Y02001*
X04745Y01996*
X04765*
X0477Y02001*
Y02016*
Y01966D02*
Y01986D01*
X04755*
X0476Y01976*
Y01971*
X04755Y01966*
X04745*
X0474Y01971*
Y01981*
X04745Y01986*
X04765Y01956D02*
X0477Y01951D01*
Y01941*
X04765Y01936*
X0476*
X04755Y01941*
X0475Y01936*
X04745*
X0474Y01941*
Y01951*
X04745Y01956*
X0475*
X04755Y01951*
X0476Y01956*
X04765*
X04755Y01951D02*
Y01941D01*
X0477Y01718D02*
X0474D01*
Y01698*
X0477Y01688D02*
X0474D01*
Y01673*
X04745Y01668*
X04765*
X0477Y01673*
Y01688*
Y01658D02*
Y01638D01*
X04765*
X04745Y01658*
X0474*
X04765Y01628D02*
X0477Y01623D01*
Y01613*
X04765Y01608*
X0476*
X04755Y01613*
X0475Y01608*
X04745*
X0474Y01613*
Y01623*
X04745Y01628*
X0475*
X04755Y01623*
X0476Y01628*
X04765*
X04755Y01623D02*
Y01613D01*
X04623Y02046D02*
X04594D01*
Y02026*
X04623Y02016D02*
X04594D01*
Y02001*
X04598Y01996*
X04618*
X04623Y02001*
Y02016*
Y01966D02*
Y01986D01*
X04608*
X04613Y01976*
Y01971*
X04608Y01966*
X04598*
X04594Y01971*
Y01981*
X04598Y01986*
Y01956D02*
X04594Y01951D01*
Y01941*
X04598Y01936*
X04618*
X04623Y01941*
Y01951*
X04618Y01956*
X04613*
X04608Y01951*
Y01936*
X04917Y00408D02*
X04887D01*
Y00388*
X04917Y00378D02*
X04887D01*
Y00363*
X04892Y00358*
X04912*
X04917Y00363*
Y00378*
X04912Y00348D02*
X04917Y00343D01*
Y00333*
X04912Y00328*
X04892*
X04887Y00333*
Y00343*
X04892Y00348*
X04912*
X04917Y00318D02*
Y00298D01*
X04912*
X04892Y00318*
X04887*
X04917Y00735D02*
X04887D01*
Y00715*
X04917Y00705D02*
X04887D01*
Y0069*
X04892Y00685*
X04912*
X04917Y0069*
Y00705*
X04887Y00655D02*
Y00675D01*
X04907Y00655*
X04912*
X04917Y0066*
Y0067*
X04912Y00675*
X04917Y00645D02*
Y00625D01*
X04912*
X04892Y00645*
X04887*
X05064Y00735D02*
X05034D01*
Y00715*
X05064Y00705D02*
X05034D01*
Y0069*
X05039Y00685*
X05059*
X05064Y0069*
Y00705*
X05034Y00655D02*
Y00675D01*
X05054Y00655*
X05059*
X05064Y0066*
Y0067*
X05059Y00675*
X05064Y00625D02*
X05059Y00635D01*
X05049Y00645*
X05039*
X05034Y0064*
Y0063*
X05039Y00625*
X05044*
X05049Y0063*
Y00645*
X05064Y00408D02*
X05034D01*
Y00388*
X05064Y00378D02*
X05034D01*
Y00363*
X05039Y00358*
X05059*
X05064Y00363*
Y00378*
X05059Y00348D02*
X05064Y00343D01*
Y00333*
X05059Y00328*
X05039*
X05034Y00333*
Y00343*
X05039Y00348*
X05059*
X05064Y00298D02*
X05059Y00308D01*
X05049Y00318*
X05039*
X05034Y00313*
Y00303*
X05039Y00298*
X05044*
X05049Y00303*
Y00318*
X05064Y01718D02*
X05034D01*
Y01698*
X05064Y01688D02*
X05034D01*
Y01673*
X05039Y01668*
X05059*
X05064Y01673*
Y01688*
Y01658D02*
Y01638D01*
X05059*
X05039Y01658*
X05034*
X05064Y01608D02*
X05059Y01618D01*
X05049Y01628*
X05039*
X05034Y01623*
Y01613*
X05039Y01608*
X05044*
X05049Y01613*
Y01628*
X04917Y02046D02*
X04887D01*
Y02026*
X04917Y02016D02*
X04887D01*
Y02001*
X04892Y01996*
X04912*
X04917Y02001*
Y02016*
Y01966D02*
Y01986D01*
X04902*
X04907Y01976*
Y01971*
X04902Y01966*
X04892*
X04887Y01971*
Y01981*
X04892Y01986*
X04917Y01956D02*
Y01936D01*
X04912*
X04892Y01956*
X04887*
X04917Y01718D02*
X04887D01*
Y01698*
X04917Y01688D02*
X04887D01*
Y01673*
X04892Y01668*
X04912*
X04917Y01673*
Y01688*
Y01658D02*
Y01638D01*
X04912*
X04892Y01658*
X04887*
X04917Y01628D02*
Y01608D01*
X04912*
X04892Y01628*
X04887*
X05064Y02046D02*
X05034D01*
Y02026*
X05064Y02016D02*
X05034D01*
Y02001*
X05039Y01996*
X05059*
X05064Y02001*
Y02016*
Y01966D02*
Y01986D01*
X05049*
X05054Y01976*
Y01971*
X05049Y01966*
X05039*
X05034Y01971*
Y01981*
X05039Y01986*
X05064Y01936D02*
X05059Y01946D01*
X05049Y01956*
X05039*
X05034Y01951*
Y01941*
X05039Y01936*
X05044*
X05049Y01941*
Y01956*
X03247Y01347D02*
Y01377D01*
X03261*
X03266Y01372*
Y01362*
X03261Y01357*
X03247*
X03256D02*
X03266Y01347D01*
X03296Y01377D02*
X03286Y01372D01*
X03276Y01362*
Y01352*
X03281Y01347*
X03291*
X03296Y01352*
Y01357*
X03291Y01362*
X03276*
X03306Y01377D02*
X03326D01*
Y01372*
X03306Y01352*
Y01347*
X02335Y00962D02*
X0233Y00967D01*
X0232*
X02315Y00962*
Y00943*
X0232Y00938*
X0233*
X02335Y00943*
X02364Y00938D02*
X02345D01*
X02364Y00957*
Y00962*
X02359Y00967*
X0235*
X02345Y00962*
X02374Y00967D02*
X02394D01*
Y00962*
X02374Y00943*
Y00938*
X01387Y01092D02*
Y01122D01*
X01401*
X01406Y01117*
Y01107*
X01401Y01102*
X01387*
X01396D02*
X01406Y01092D01*
X01436D02*
X01416D01*
X01436Y01112*
Y01117*
X01431Y01122*
X01421*
X01416Y01117*
X01446Y01092D02*
X01456D01*
X01451*
Y01122*
X01446Y01117*
X02018Y00313D02*
Y00342D01*
X02032*
X02037Y00337*
Y00327*
X02032Y00322*
X02018*
X02027D02*
X02037Y00313D01*
X02067Y00342D02*
X02047D01*
Y00327*
X02057Y00332*
X02062*
X02067Y00327*
Y00317*
X02062Y00313*
X02052*
X02047Y00317*
X02077Y00337D02*
X02082Y00342D01*
X02092*
X02097Y00337*
Y00317*
X02092Y00313*
X02082*
X02077Y00317*
Y00337*
X02281Y00316D02*
Y00346D01*
X02295*
X023Y00341*
Y00331*
X02295Y00326*
X02281*
X0229D02*
X023Y00316D01*
X0233Y00346D02*
X0232Y00341D01*
X0231Y00331*
Y00321*
X02315Y00316*
X02325*
X0233Y00321*
Y00326*
X02325Y00331*
X0231*
X02355Y00316D02*
Y00346D01*
X0234Y00331*
X0236*
X01201Y00312D02*
Y00341D01*
X01216*
X01221Y00336*
Y00327*
X01216Y00322*
X01201*
X01211D02*
X01221Y00312D01*
X0125Y00341D02*
X0124Y00336D01*
X0123Y00327*
Y00317*
X01235Y00312*
X01245*
X0125Y00317*
Y00322*
X01245Y00327*
X0123*
X02281Y00166D02*
Y00195D01*
X02296*
X02301Y0019*
Y0018*
X02296Y00176*
X02281*
X02291D02*
X02301Y00166D01*
X0233Y00195D02*
X02321Y0019D01*
X02311Y0018*
Y00171*
X02316Y00166*
X02325*
X0233Y00171*
Y00176*
X02325Y0018*
X02311*
X0236Y00195D02*
X0234D01*
Y0018*
X0235Y00185*
X02355*
X0236Y0018*
Y00171*
X02355Y00166*
X02345*
X0234Y00171*
X02131Y00166D02*
Y00196D01*
X02145*
X0215Y00191*
Y00181*
X02145Y00176*
X02131*
X0214D02*
X0215Y00166D01*
X0218Y00196D02*
X0217Y00191D01*
X0216Y00181*
Y00171*
X02165Y00166*
X02175*
X0218Y00171*
Y00176*
X02175Y00181*
X0216*
X0219Y00191D02*
X02195Y00196D01*
X02205*
X0221Y00191*
Y00186*
X02205Y00181*
X022*
X02205*
X0221Y00176*
Y00171*
X02205Y00166*
X02195*
X0219Y00171*
X02017Y00163D02*
Y00193D01*
X02032*
X02037Y00188*
Y00178*
X02032Y00173*
X02017*
X02027D02*
X02037Y00163D01*
X02067Y00193D02*
X02047D01*
Y00178*
X02057Y00183*
X02062*
X02067Y00178*
Y00168*
X02062Y00163*
X02052*
X02047Y00168*
X02097Y00163D02*
X02077D01*
X02097Y00183*
Y00188*
X02092Y00193*
X02082*
X02077Y00188*
X01082Y00784D02*
Y00755D01*
X01096*
X01101Y00759*
Y00779*
X01096Y00784*
X01082*
X01131Y00755D02*
X01111D01*
X01131Y00774*
Y00779*
X01126Y00784*
X01116*
X01111Y00779*
X02593Y00111D02*
Y00082D01*
X02607*
X02612Y00086*
Y00106*
X02607Y00111*
X02593*
X02622Y00082D02*
X02632D01*
X02627*
Y00111*
X02622Y00106*
X02647D02*
X02652Y00111D01*
X02662*
X02667Y00106*
Y00101*
X02662Y00096*
X02657*
X02662*
X02667Y00091*
Y00086*
X02662Y00082*
X02652*
X02647Y00086*
X02593Y00223D02*
Y00194D01*
X02607*
X02612Y00198*
Y00218*
X02607Y00223*
X02593*
X02622Y00194D02*
X02632D01*
X02627*
Y00223*
X02622Y00218*
X02662Y00194D02*
Y00223D01*
X02647Y00208*
X02667*
X02097Y0149D02*
X02092Y01495D01*
X02082*
X02077Y0149*
Y01471*
X02082Y01466*
X02092*
X02097Y01471*
X02107Y01466D02*
X02117D01*
X02112*
Y01495*
X02107Y0149*
X02132Y01471D02*
X02137Y01466D01*
X02147*
X02152Y01471*
Y0149*
X02147Y01495*
X02137*
X02132Y0149*
Y01485*
X02137Y01481*
X02152*
X01947Y00981D02*
Y01011D01*
X01961*
X01966Y01006*
Y00996*
X01961Y00991*
X01947*
X01956D02*
X01966Y00981D01*
X01991D02*
Y01011D01*
X01976Y00996*
X01996*
X02006Y01011D02*
X02026D01*
Y01006*
X02006Y00986*
Y00981*
X02006Y01219D02*
Y01248D01*
X0202*
X02025Y01243*
Y01233*
X0202Y01228*
X02006*
X02015D02*
X02025Y01219D01*
X02035Y01243D02*
X0204Y01248D01*
X0205*
X02055Y01243*
Y01238*
X0205Y01233*
X02045*
X0205*
X02055Y01228*
Y01223*
X0205Y01219*
X0204*
X02035Y01223*
X02065Y01248D02*
X02085D01*
Y01243*
X02065Y01223*
Y01219*
X02006Y01092D02*
Y01122D01*
X0202*
X02025Y01117*
Y01107*
X0202Y01102*
X02006*
X02015D02*
X02025Y01092D01*
X02035Y01117D02*
X0204Y01122D01*
X0205*
X02055Y01117*
Y01112*
X0205Y01107*
X02045*
X0205*
X02055Y01102*
Y01097*
X0205Y01092*
X0204*
X02035Y01097*
X02065Y01117D02*
X0207Y01122D01*
X0208*
X02085Y01117*
Y01112*
X0208Y01107*
X02085Y01102*
Y01097*
X0208Y01092*
X0207*
X02065Y01097*
Y01102*
X0207Y01107*
X02065Y01112*
Y01117*
X0207Y01107D02*
X0208D01*
X02006Y01344D02*
Y01374D01*
X0202*
X02025Y01369*
Y01359*
X0202Y01354*
X02006*
X02015D02*
X02025Y01344D01*
X02035Y01369D02*
X0204Y01374D01*
X0205*
X02055Y01369*
Y01364*
X0205Y01359*
X02045*
X0205*
X02055Y01354*
Y01349*
X0205Y01344*
X0204*
X02035Y01349*
X02085Y01374D02*
X02075Y01369D01*
X02065Y01359*
Y01349*
X0207Y01344*
X0208*
X02085Y01349*
Y01354*
X0208Y01359*
X02065*
X02155Y01344D02*
Y01374D01*
X02169*
X02174Y01369*
Y01359*
X02169Y01354*
X02155*
X02164D02*
X02174Y01344D01*
X02184Y01369D02*
X02189Y01374D01*
X02199*
X02204Y01369*
Y01364*
X02199Y01359*
X02194*
X02199*
X02204Y01354*
Y01349*
X02199Y01344*
X02189*
X02184Y01349*
X02214D02*
X02219Y01344D01*
X02229*
X02234Y01349*
Y01369*
X02229Y01374*
X02219*
X02214Y01369*
Y01364*
X02219Y01359*
X02234*
X02155Y01219D02*
Y01248D01*
X02169*
X02174Y01243*
Y01233*
X02169Y01228*
X02155*
X02164D02*
X02174Y01219D01*
X02199D02*
Y01248D01*
X02184Y01233*
X02204*
X02214Y01243D02*
X02219Y01248D01*
X02229*
X02234Y01243*
Y01223*
X02229Y01219*
X02219*
X02214Y01223*
Y01243*
X02177Y01117D02*
X02172Y01122D01*
X02162*
X02157Y01117*
Y01097*
X02162Y01093*
X02172*
X02177Y01097*
X02187Y01093D02*
X02197D01*
X02192*
Y01122*
X02187Y01117*
X02212D02*
X02217Y01122D01*
X02227*
X02232Y01117*
Y01112*
X02227Y01107*
X02232Y01102*
Y01097*
X02227Y01093*
X02217*
X02212Y01097*
Y01102*
X02217Y01107*
X02212Y01112*
Y01117*
X02217Y01107D02*
X02227D01*
X02593Y00334D02*
Y00305D01*
X02607*
X02612Y00309*
Y00329*
X02607Y00334*
X02593*
X02622Y00305D02*
X02632D01*
X02627*
Y00334*
X02622Y00329*
X02667Y00334D02*
X02647D01*
Y00319*
X02657Y00324*
X02662*
X02667Y00319*
Y00309*
X02662Y00305*
X02652*
X02647Y00309*
X01565Y00105D02*
Y00134D01*
X0158*
X01585Y00129*
Y00119*
X0158Y00114*
X01565*
X01575D02*
X01585Y00105D01*
X01595Y00129D02*
X016Y00134D01*
X01609*
X01614Y00129*
Y00124*
X01609Y00119*
X01604*
X01609*
X01614Y00114*
Y0011*
X01609Y00105*
X016*
X01595Y0011*
X01624Y00105D02*
X01634D01*
X01629*
Y00134*
X01624Y00129*
X01428Y00459D02*
Y00489D01*
X01443*
X01448Y00484*
Y00474*
X01443Y00469*
X01428*
X01438D02*
X01448Y00459D01*
X01458Y00484D02*
X01463Y00489D01*
X01473*
X01478Y00484*
Y00479*
X01473Y00474*
X01468*
X01473*
X01478Y00469*
Y00464*
X01473Y00459*
X01463*
X01458Y00464*
X01488Y00484D02*
X01493Y00489D01*
X01503*
X01508Y00484*
Y00464*
X01503Y00459*
X01493*
X01488Y00464*
Y00484*
X01618Y00595D02*
Y00624D01*
X01633*
X01638Y00619*
Y0061*
X01633Y00605*
X01618*
X01628D02*
X01638Y00595D01*
X01648Y00619D02*
X01653Y00624D01*
X01663*
X01668Y00619*
Y00614*
X01663Y0061*
X01658*
X01663*
X01668Y00605*
Y006*
X01663Y00595*
X01653*
X01648Y006*
X01698Y00624D02*
X01678D01*
Y0061*
X01688Y00614*
X01693*
X01698Y0061*
Y006*
X01693Y00595*
X01683*
X01678Y006*
X01618Y00725D02*
Y00755D01*
X01632*
X01637Y0075*
Y0074*
X01632Y00735*
X01618*
X01627D02*
X01637Y00725D01*
X01647Y0075D02*
X01652Y00755D01*
X01662*
X01667Y0075*
Y00745*
X01662Y0074*
X01657*
X01662*
X01667Y00735*
Y0073*
X01662Y00725*
X01652*
X01647Y0073*
X01692Y00725D02*
Y00755D01*
X01677Y0074*
X01697*
X01618Y00853D02*
Y00883D01*
X01632*
X01637Y00878*
Y00868*
X01632Y00863*
X01618*
X01627D02*
X01637Y00853D01*
X01647Y00878D02*
X01652Y00883D01*
X01662*
X01667Y00878*
Y00873*
X01662Y00868*
X01657*
X01662*
X01667Y00863*
Y00858*
X01662Y00853*
X01652*
X01647Y00858*
X01677Y00878D02*
X01682Y00883D01*
X01692*
X01697Y00878*
Y00873*
X01692Y00868*
X01687*
X01692*
X01697Y00863*
Y00858*
X01692Y00853*
X01682*
X01677Y00858*
X01619Y00999D02*
X01614Y01004D01*
X01604*
X01599Y00999*
Y00979*
X01604Y00974*
X01614*
X01619Y00979*
X01629Y00974D02*
X01639D01*
X01634*
Y01004*
X01629Y00999*
X01654Y00974D02*
X01664D01*
X01659*
Y01004*
X01654Y00999*
X01553Y01117D02*
X01548Y01122D01*
X01538*
X01534Y01117*
Y01097*
X01538Y01092*
X01548*
X01553Y01097*
X01563Y01092D02*
X01573D01*
X01568*
Y01122*
X01563Y01117*
X01588D02*
X01593Y01122D01*
X01603*
X01608Y01117*
Y01097*
X01603Y01092*
X01593*
X01588Y01097*
Y01117*
X01532Y01219D02*
Y01248D01*
X01547*
X01552Y01243*
Y01234*
X01547Y01229*
X01532*
X01542D02*
X01552Y01219D01*
X01582D02*
X01562D01*
X01582Y01238*
Y01243*
X01577Y01248*
X01567*
X01562Y01243*
X01592D02*
X01597Y01248D01*
X01607*
X01612Y01243*
Y01238*
X01607Y01234*
X01602*
X01607*
X01612Y01229*
Y01224*
X01607Y01219*
X01597*
X01592Y01224*
X01387Y01349D02*
Y01379D01*
X01402*
X01407Y01374*
Y01364*
X01402Y01359*
X01387*
X01397D02*
X01407Y01349D01*
X01437D02*
X01417D01*
X01437Y01369*
Y01374*
X01432Y01379*
X01422*
X01417Y01374*
X01467Y01349D02*
X01447D01*
X01467Y01369*
Y01374*
X01462Y01379*
X01452*
X01447Y01374*
X00792Y01321D02*
Y0135D01*
X00807*
X00812Y01345*
Y01336*
X00807Y01331*
X00792*
X00802D02*
X00812Y01321D01*
X00822D02*
X00832D01*
X00827*
Y0135*
X00822Y01345*
X00847Y01321D02*
X00857D01*
X00852*
Y0135*
X00847Y01345*
X01506Y01652D02*
Y01681D01*
X01521*
X01526Y01676*
Y01667*
X01521Y01662*
X01506*
X01516D02*
X01526Y01652D01*
X01555D02*
X01536D01*
X01555Y01671*
Y01676*
X0155Y01681*
X01541*
X01536Y01676*
X01585Y01681D02*
X01575Y01676D01*
X01565Y01667*
Y01657*
X0157Y01652*
X0158*
X01585Y01657*
Y01662*
X0158Y01667*
X01565*
X03068Y02364D02*
X03058D01*
X03063*
Y02339*
X03058Y02334*
X03053*
X03048Y02339*
X03078Y02334D02*
X03088D01*
X03083*
Y02364*
X03078Y02359*
X03103Y02339D02*
X03108Y02334D01*
X03118*
X03123Y02339*
Y02359*
X03118Y02364*
X03108*
X03103Y02359*
Y02354*
X03108Y02349*
X03123*
X03237Y02052D02*
X03227D01*
X03232*
Y02027*
X03227Y02022*
X03222*
X03217Y02027*
X03247Y02022D02*
X03257D01*
X03252*
Y02052*
X03247Y02047*
X03272Y02052D02*
X03292D01*
Y02047*
X03272Y02027*
Y02022*
X02923Y02057D02*
X02913D01*
X02918*
Y02032*
X02913Y02027*
X02908*
X02903Y02032*
X02933Y02027D02*
X02943D01*
X02938*
Y02057*
X02933Y02052*
X02978Y02057D02*
X02968Y02052D01*
X02958Y02042*
Y02032*
X02963Y02027*
X02973*
X02978Y02032*
Y02037*
X02973Y02042*
X02958*
X01874Y02364D02*
X01864D01*
X01869*
Y02339*
X01864Y02334*
X01859*
X01854Y02339*
X01884Y02334D02*
X01894D01*
X01889*
Y02364*
X01884Y02359*
X01909D02*
X01914Y02364D01*
X01924*
X01929Y02359*
Y02354*
X01924Y02349*
X01919*
X01924*
X01929Y02344*
Y02339*
X01924Y02334*
X01914*
X01909Y02339*
X01742Y0205D02*
X01732D01*
X01737*
Y02025*
X01732Y0202*
X01727*
X01722Y02025*
X01752Y0205D02*
X01772D01*
Y02045*
X01752Y02025*
Y0202*
X02324Y02056D02*
X02314D01*
X02319*
Y02031*
X02314Y02026*
X02309*
X02304Y02031*
X02354Y02026D02*
X02334D01*
X02354Y02046*
Y02051*
X02349Y02056*
X02339*
X02334Y02051*
X02364D02*
X02369Y02056D01*
X02379*
X02384Y02051*
Y02031*
X02379Y02026*
X02369*
X02364Y02031*
Y02051*
X02051Y02049D02*
X02041D01*
X02046*
Y02024*
X02041Y02019*
X02036*
X02031Y02024*
X02061Y02044D02*
X02066Y02049D01*
X02076*
X02081Y02044*
Y02039*
X02076Y02034*
X02081Y02029*
Y02024*
X02076Y02019*
X02066*
X02061Y02024*
Y02029*
X02066Y02034*
X02061Y02039*
Y02044*
X02066Y02034D02*
X02076D01*
X01437Y02056D02*
X01427D01*
X01432*
Y02031*
X01427Y02026*
X01422*
X01417Y02031*
X01467Y02056D02*
X01457Y02051D01*
X01447Y02041*
Y02031*
X01452Y02026*
X01462*
X01467Y02031*
Y02036*
X01462Y02041*
X01447*
X01132Y02055D02*
X01122D01*
X01127*
Y0203*
X01122Y02025*
X01117*
X01112Y0203*
X01162Y02055D02*
X01142D01*
Y0204*
X01152Y02045*
X01157*
X01162Y0204*
Y0203*
X01157Y02025*
X01147*
X01142Y0203*
X01277Y02365D02*
X01267D01*
X01272*
Y0234*
X01267Y02335*
X01262*
X01257Y0234*
X01287Y02335D02*
X01297D01*
X01292*
Y02365*
X01287Y0236*
X01312Y02335D02*
X01322D01*
X01317*
Y02365*
X01312Y0236*
X02471Y02366D02*
X02461D01*
X02466*
Y02341*
X02461Y02336*
X02456*
X02451Y02341*
X02481Y02336D02*
X02491D01*
X02486*
Y02366*
X02481Y02361*
X02526Y02366D02*
X02506D01*
Y02351*
X02516Y02356*
X02521*
X02526Y02351*
Y02341*
X02521Y02336*
X02511*
X02506Y02341*
X02659Y02056D02*
X02649D01*
X02654*
Y02031*
X02649Y02026*
X02644*
X02639Y02031*
X02669D02*
X02674Y02026D01*
X02684*
X02689Y02031*
Y02051*
X02684Y02056*
X02674*
X02669Y02051*
Y02046*
X02674Y02041*
X02689*
X01992Y02182D02*
Y02212D01*
X02007*
X02012Y02207*
Y02197*
X02007Y02192*
X01992*
X02002D02*
X02012Y02182D01*
X02037D02*
Y02212D01*
X02022Y02197*
X02042*
X02072Y02212D02*
X02052D01*
Y02197*
X02062Y02202*
X02067*
X02072Y02197*
Y02187*
X02067Y02182*
X02057*
X02052Y02187*
X0157Y02197D02*
X01565Y02202D01*
X01555*
X0155Y02197*
Y02177*
X01555Y02173*
X01565*
X0157Y02177*
X0158Y02173D02*
X0159D01*
X01585*
Y02202*
X0158Y02197*
X01605D02*
X0161Y02202D01*
X0162*
X01625Y02197*
Y02192*
X0162Y02187*
X01615*
X0162*
X01625Y02182*
Y02177*
X0162Y02173*
X0161*
X01605Y02177*
X02016Y02434D02*
X02011Y02439D01*
X02001*
X01996Y02434*
Y02414*
X02001Y02409*
X02011*
X02016Y02414*
X02046Y02409D02*
X02026D01*
X02046Y02429*
Y02434*
X02041Y02439*
X02031*
X02026Y02434*
X02056D02*
X02061Y02439D01*
X02071*
X02076Y02434*
Y02414*
X02071Y02409*
X02061*
X02056Y02414*
Y02434*
X02016Y02318D02*
X02011Y02323D01*
X02001*
X01997Y02318*
Y02298*
X02001Y02293*
X02011*
X02016Y02298*
X02046Y02293D02*
X02026D01*
X02046Y02313*
Y02318*
X02041Y02323*
X02031*
X02026Y02318*
X02056Y02293D02*
X02066D01*
X02061*
Y02323*
X02056Y02318*
X0157Y02316D02*
X01565Y02321D01*
X01555*
X01551Y02316*
Y02296*
X01555Y02291*
X01565*
X0157Y02296*
X0158Y02291D02*
X0159D01*
X01585*
Y02321*
X0158Y02316*
X01625Y02291D02*
X01605D01*
X01625Y02311*
Y02316*
X0162Y02321*
X0161*
X01605Y02316*
X01392Y02179D02*
Y02209D01*
X01406*
X01411Y02204*
Y02194*
X01406Y02189*
X01392*
X01401D02*
X01411Y02179D01*
X01441D02*
X01421D01*
X01441Y02199*
Y02204*
X01436Y02209*
X01426*
X01421Y02204*
X01451D02*
X01456Y02209D01*
X01466*
X01471Y02204*
Y02199*
X01466Y02194*
X01471Y02189*
Y02184*
X01466Y02179*
X01456*
X01451Y02184*
Y02189*
X01456Y02194*
X01451Y02199*
Y02204*
X01456Y02194D02*
X01466D01*
X01392Y02299D02*
Y02328D01*
X01406*
X01411Y02323*
Y02313*
X01406Y02308*
X01392*
X01401D02*
X01411Y02299D01*
X01441D02*
X01421D01*
X01441Y02318*
Y02323*
X01436Y02328*
X01426*
X01421Y02323*
X01471Y02328D02*
X01451D01*
Y02313*
X01461Y02318*
X01466*
X01471Y02313*
Y02303*
X01466Y02299*
X01456*
X01451Y02303*
X00934Y02299D02*
Y02328D01*
X00949*
X00954Y02323*
Y02313*
X00949Y02308*
X00934*
X00944D02*
X00954Y02299D01*
X00984D02*
X00964D01*
X00984Y02318*
Y02323*
X00979Y02328*
X00969*
X00964Y02323*
X00994Y02328D02*
X01014D01*
Y02323*
X00994Y02303*
Y02299*
X00934Y0218D02*
Y0221D01*
X00949*
X00954Y02205*
Y02195*
X00949Y0219*
X00934*
X00944D02*
X00954Y0218D01*
X00984D02*
X00964D01*
X00984Y022*
Y02205*
X00979Y0221*
X00969*
X00964Y02205*
X01009Y0218D02*
Y0221D01*
X00994Y02195*
X01014*
X02593Y02179D02*
Y02209D01*
X02607*
X02612Y02204*
Y02194*
X02607Y02189*
X02593*
X02602D02*
X02612Y02179D01*
X02642Y02209D02*
X02622D01*
Y02194*
X02632Y02199*
X02637*
X02642Y02194*
Y02184*
X02637Y02179*
X02627*
X02622Y02184*
X02652D02*
X02657Y02179D01*
X02667*
X02672Y02184*
Y02204*
X02667Y02209*
X02657*
X02652Y02204*
Y02199*
X02657Y02194*
X02672*
X03205Y02301D02*
Y02331D01*
X0322*
X03225Y02326*
Y02316*
X0322Y02311*
X03205*
X03215D02*
X03225Y02301D01*
X03255Y02331D02*
X03245Y02326D01*
X03235Y02316*
Y02306*
X0324Y02301*
X0325*
X03255Y02306*
Y02311*
X0325Y02316*
X03235*
X03265Y02301D02*
X03275D01*
X0327*
Y02331*
X03265Y02326*
X02593Y02298D02*
Y02327D01*
X02607*
X02612Y02322*
Y02312*
X02607Y02307*
X02593*
X02602D02*
X02612Y02298D01*
X02642Y02327D02*
X02632Y02322D01*
X02622Y02312*
Y02302*
X02627Y02298*
X02637*
X02642Y02302*
Y02307*
X02637Y02312*
X02622*
X02672Y02298D02*
X02652D01*
X02672Y02317*
Y02322*
X02667Y02327*
X02657*
X02652Y02322*
X02144Y02179D02*
Y02209D01*
X02158*
X02163Y02204*
Y02194*
X02158Y02189*
X02144*
X02153D02*
X02163Y02179D01*
X02188D02*
Y02209D01*
X02173Y02194*
X02193*
X02218Y02179D02*
Y02209D01*
X02203Y02194*
X02223*
X02144Y023D02*
Y02329D01*
X02158*
X02163Y02324*
Y02314*
X02158Y02309*
X02144*
X02153D02*
X02163Y023D01*
X02188D02*
Y02329D01*
X02173Y02314*
X02193*
X02203Y02324D02*
X02208Y02329D01*
X02218*
X02223Y02324*
Y02319*
X02218Y02314*
X02213*
X02218*
X02223Y02309*
Y02304*
X02218Y023*
X02208*
X02203Y02304*
X02148Y02414D02*
Y02443D01*
X02163*
X02168Y02438*
Y02429*
X02163Y02424*
X02148*
X02158D02*
X02168Y02414D01*
X02192D02*
Y02443D01*
X02178Y02429*
X02197*
X02207Y02414D02*
X02217D01*
X02212*
Y02443*
X02207Y02438*
X02593Y02416D02*
Y02445D01*
X02607*
X02612Y0244*
Y0243*
X02607Y02425*
X02593*
X02602D02*
X02612Y02416D01*
X02637D02*
Y02445D01*
X02622Y0243*
X02642*
X02672Y02416D02*
X02652D01*
X02672Y02435*
Y0244*
X02667Y02445*
X02657*
X02652Y0244*
X02775Y02451D02*
X0277Y02456D01*
X0276*
X02756Y02451*
Y02431*
X0276Y02427*
X0277*
X02775Y02431*
X02805Y02427D02*
X02785D01*
X02805Y02446*
Y02451*
X028Y02456*
X0279*
X02785Y02451*
X02815Y02431D02*
X0282Y02427D01*
X0283*
X02835Y02431*
Y02451*
X0283Y02456*
X0282*
X02815Y02451*
Y02446*
X0282Y02441*
X02835*
X02751Y02179D02*
Y02209D01*
X02766*
X02771Y02204*
Y02194*
X02766Y02189*
X02751*
X02761D02*
X02771Y02179D01*
X02801Y02209D02*
X02781D01*
Y02194*
X02791Y02199*
X02796*
X02801Y02194*
Y02184*
X02796Y02179*
X02786*
X02781Y02184*
X02811Y02204D02*
X02816Y02209D01*
X02826*
X02831Y02204*
Y02199*
X02826Y02194*
X02831Y02189*
Y02184*
X02826Y02179*
X02816*
X02811Y02184*
Y02189*
X02816Y02194*
X02811Y02199*
Y02204*
X02816Y02194D02*
X02826D01*
X02751Y02298D02*
Y02327D01*
X02766*
X02771Y02322*
Y02312*
X02766Y02307*
X02751*
X02761D02*
X02771Y02298D01*
X02801Y02327D02*
X02791Y02322D01*
X02781Y02312*
Y02302*
X02786Y02298*
X02796*
X02801Y02302*
Y02307*
X02796Y02312*
X02781*
X02811Y02322D02*
X02816Y02327D01*
X02826*
X02831Y02322*
Y02302*
X02826Y02298*
X02816*
X02811Y02302*
Y02322*
X03227Y02212D02*
X03222Y02217D01*
X03212*
X03208Y02212*
Y02192*
X03212Y02188*
X03222*
X03227Y02192*
X03257Y02188D02*
X03237D01*
X03257Y02207*
Y02212*
X03252Y02217*
X03242*
X03237Y02212*
X03267D02*
X03272Y02217D01*
X03282*
X03287Y02212*
Y02207*
X03282Y02202*
X03287Y02197*
Y02192*
X03282Y02188*
X03272*
X03267Y02192*
Y02197*
X03272Y02202*
X03267Y02207*
Y02212*
X03272Y02202D02*
X03282D01*
X01718Y0213D02*
X01734D01*
X01726*
Y0218*
X01718Y02171*
X01793Y0213D02*
X01759D01*
X01793Y02163*
Y02171*
X01784Y0218*
X01768*
X01759Y02171*
X01843Y0218D02*
X01809D01*
Y02155*
X01826Y02163*
X01834*
X01843Y02155*
Y02138*
X01834Y0213*
X01818*
X01809Y02138*
X01859Y0218D02*
Y0213D01*
Y02155*
X01893*
Y0218*
Y0213*
X01909Y02163D02*
X01943D01*
X01909Y0213*
X01943*
X02175Y01874D02*
X02191D01*
X02183*
Y01824*
X02175*
X02191*
X02216D02*
Y01874D01*
X0225Y01824*
Y01874*
X02291Y01824D02*
Y01874D01*
X02266Y01849*
X023*
X02316D02*
X0235D01*
X02366Y01824D02*
X02383D01*
X02375*
Y01874*
X02366Y01865*
X01566Y01867D02*
X01582D01*
X01574*
Y01817*
X01566*
X01582*
X01607D02*
Y01867D01*
X01641Y01817*
Y01867*
X01657Y01858D02*
X01666Y01867D01*
X01682*
X01691Y01858*
Y0185*
X01682Y01842*
X01674*
X01682*
X01691Y01833*
Y01825*
X01682Y01817*
X01666*
X01657Y01825*
X01707Y01842D02*
X01741D01*
X01757Y01817D02*
X01774D01*
X01766*
Y01867*
X01757Y01858*
X01869Y01867D02*
X01885D01*
X01877*
Y01817*
X01869*
X01885*
X0191D02*
Y01867D01*
X01944Y01817*
Y01867*
X0196Y01858D02*
X01969Y01867D01*
X01985*
X01994Y01858*
Y0185*
X01985Y01842*
X01977*
X01985*
X01994Y01833*
Y01825*
X01985Y01817*
X01969*
X0196Y01825*
X0201Y01842D02*
X02044D01*
X02094Y01817D02*
X0206D01*
X02094Y0185*
Y01858*
X02085Y01867*
X02069*
X0206Y01858*
X01262Y01866D02*
X01278D01*
X0127*
Y01816*
X01262*
X01278*
X01303D02*
Y01866D01*
X01337Y01816*
Y01866*
X01387Y01816D02*
X01353D01*
X01387Y01849*
Y01857*
X01378Y01866*
X01362*
X01353Y01857*
X01403Y01841D02*
X01437D01*
X01487Y01816D02*
X01453D01*
X01487Y01849*
Y01857*
X01478Y01866*
X01462*
X01453Y01857*
X02478Y01874D02*
X02494D01*
X02486*
Y01824*
X02478*
X02494*
X02519D02*
Y01874D01*
X02553Y01824*
Y01874*
X02594Y01824D02*
Y01874D01*
X02569Y01849*
X02603*
X02619D02*
X02653D01*
X02703Y01824D02*
X02669D01*
X02703Y01857*
Y01865*
X02694Y01874*
X02678*
X02669Y01865*
X02781Y01872D02*
X02797D01*
X02789*
Y01822*
X02781*
X02797*
X02822D02*
Y01872D01*
X02856Y01822*
Y01872*
X02897Y01822D02*
Y01872D01*
X02872Y01847*
X02906*
X02922D02*
X02956D01*
X02972Y01822D02*
X02989D01*
X02981*
Y01872*
X02972Y01863*
X02958Y02182D02*
X02925D01*
Y02157*
X02941Y02165*
X0295*
X02958Y02157*
Y0214*
X0295Y02132*
X02933*
X02925Y0214*
X02975Y02173D02*
X02983Y02182D01*
X03*
X03008Y02173*
Y0214*
X03Y02132*
X02983*
X02975Y0214*
Y02173*
X03025D02*
X03033Y02182D01*
X0305*
X03058Y02173*
Y0214*
X0305Y02132*
X03033*
X03025Y0214*
Y02173*
X03075Y02182D02*
Y02132D01*
Y02157*
X03108*
Y02182*
Y02132*
X03125Y02165D02*
X03158D01*
X03125Y02132*
X03158*
X0235D02*
X02317D01*
X0235Y02165*
Y02173*
X02342Y02182*
X02325*
X02317Y02173*
X024Y02182D02*
X02367D01*
Y02157*
X02383Y02165*
X02392*
X024Y02157*
Y0214*
X02392Y02132*
X02375*
X02367Y0214*
X02417Y02173D02*
X02425Y02182D01*
X02442*
X0245Y02173*
Y0214*
X02442Y02132*
X02425*
X02417Y0214*
Y02173*
X02467Y02182D02*
Y02132D01*
Y02157*
X025*
Y02182*
Y02132*
X02517Y02165D02*
X0255D01*
X02517Y02132*
X0255*
X00764Y02192D02*
X00759Y02197D01*
X00749*
X00745Y02192*
Y02172*
X00749Y02168*
X00759*
X00764Y02172*
X00774Y02192D02*
X00779Y02197D01*
X00789*
X00794Y02192*
Y02187*
X00789Y02182*
X00794Y02177*
Y02172*
X00789Y02168*
X00779*
X00774Y02172*
Y02177*
X00779Y02182*
X00774Y02187*
Y02192*
X00779Y02182D02*
X00789D01*
X01167Y0218D02*
X0115Y02171D01*
X01134Y02155*
Y02138*
X01142Y0213*
X01159*
X01167Y02138*
Y02146*
X01159Y02155*
X01134*
X01209Y0213D02*
Y0218D01*
X01184Y02155*
X01217*
X01234Y0218D02*
Y0213D01*
Y02155*
X01267*
Y0218*
Y0213*
X01284Y02163D02*
X01317D01*
X01284Y0213*
X01317*
X00959Y01866D02*
X00975D01*
X00967*
Y01816*
X00959*
X00975*
X01D02*
Y01866D01*
X01034Y01816*
Y01866*
X01084Y01816D02*
X0105D01*
X01084Y01849*
Y01857*
X01075Y01866*
X01059*
X0105Y01857*
X011Y01841D02*
X01134D01*
X0115Y01816D02*
X01167D01*
X01159*
Y01866*
X0115Y01857*
X03084Y01872D02*
X031D01*
X03092*
Y01822*
X03084*
X031*
X03125D02*
Y01872D01*
X03159Y01822*
Y01872*
X032Y01822D02*
Y01872D01*
X03175Y01847*
X03209*
X03225D02*
X03259D01*
X03309Y01822D02*
X03275D01*
X03309Y01855*
Y01863*
X033Y01872*
X03284*
X03275Y01863*
X00629Y01705D02*
Y01734D01*
X00644*
X00649Y01729*
Y0172*
X00644Y01715*
X00629*
X00639D02*
X00649Y01705D01*
X00678Y01734D02*
X00669Y01729D01*
X00659Y0172*
Y0171*
X00664Y01705*
X00673*
X00678Y0171*
Y01715*
X00673Y0172*
X00659*
X00688Y0171D02*
X00693Y01705D01*
X00703*
X00708Y0171*
Y01729*
X00703Y01734*
X00693*
X00688Y01729*
Y01724*
X00693Y0172*
X00708*
X00357Y01661D02*
X00352Y01666D01*
X00342*
X00337Y01661*
Y01642*
X00342Y01637*
X00352*
X00357Y01642*
X00367Y01661D02*
X00372Y01666D01*
X00381*
X00386Y01661*
Y01656*
X00381Y01652*
X00377*
X00381*
X00386Y01647*
Y01642*
X00381Y01637*
X00372*
X00367Y01642*
X00416Y01666D02*
X00396D01*
Y01652*
X00406Y01656*
X00411*
X00416Y01652*
Y01642*
X00411Y01637*
X00401*
X00396Y01642*
X00789Y01827D02*
Y01857D01*
X00803*
X00808Y01852*
Y01842*
X00803Y01837*
X00789*
X00798D02*
X00808Y01827D01*
X00818D02*
X00828D01*
X00823*
Y01857*
X00818Y01852*
X00843D02*
X00848Y01857D01*
X00858*
X00863Y01852*
Y01847*
X00858Y01842*
X00853*
X00858*
X00863Y01837*
Y01832*
X00858Y01827*
X00848*
X00843Y01832*
X00789Y01949D02*
Y01978D01*
X00803*
X00808Y01973*
Y01963*
X00803Y01958*
X00789*
X00798D02*
X00808Y01949D01*
X00818D02*
X00828D01*
X00823*
Y01978*
X00818Y01973*
X00858Y01949D02*
Y01978D01*
X00843Y01963*
X00863*
X00892Y01717D02*
Y01747D01*
X00907*
X00912Y01742*
Y01732*
X00907Y01727*
X00892*
X00902D02*
X00912Y01717D01*
X00921Y01722D02*
X00926Y01717D01*
X00936*
X00941Y01722*
Y01742*
X00936Y01747*
X00926*
X00921Y01742*
Y01737*
X00926Y01732*
X00941*
X00743Y01504D02*
X00738Y01509D01*
X00728*
X00723Y01504*
Y01485*
X00728Y0148*
X00738*
X00743Y01485*
X00753Y01504D02*
X00758Y01509D01*
X00768*
X00773Y01504*
Y01499*
X00768Y01495*
X00763*
X00768*
X00773Y0149*
Y01485*
X00768Y0148*
X00758*
X00753Y01485*
X00798Y0148D02*
Y01509D01*
X00783Y01495*
X00803*
X00726Y0166D02*
Y01689D01*
X00741*
X00746Y01684*
Y01675*
X00741Y0167*
X00726*
X00736D02*
X00746Y0166D01*
X00756D02*
X00766D01*
X00761*
Y01689*
X00756Y01684*
X00801Y0166D02*
X00781D01*
X00801Y01679*
Y01684*
X00796Y01689*
X00786*
X00781Y01684*
X01012Y01219D02*
Y01248D01*
X01027*
X01032Y01243*
Y01234*
X01027Y01229*
X01012*
X01022D02*
X01032Y01219D01*
X01062Y01248D02*
X01042D01*
Y01234*
X01052Y01238*
X01057*
X01062Y01234*
Y01224*
X01057Y01219*
X01047*
X01042Y01224*
X01028Y01366D02*
X01023Y01371D01*
X01013*
X01008Y01366*
Y01347*
X01013Y01342*
X01023*
X01028Y01347*
X01037Y01366D02*
X01042Y01371D01*
X01052*
X01057Y01366*
Y01361*
X01052Y01357*
X01047*
X01052*
X01057Y01352*
Y01347*
X01052Y01342*
X01042*
X01037Y01347*
X03393Y01223D02*
Y01252D01*
X03407*
X03412Y01247*
Y01237*
X03407Y01232*
X03393*
X03402D02*
X03412Y01223D01*
X03442Y01252D02*
X03432Y01247D01*
X03422Y01237*
Y01227*
X03427Y01223*
X03437*
X03442Y01227*
Y01232*
X03437Y01237*
X03422*
X03452Y01247D02*
X03457Y01252D01*
X03467*
X03472Y01247*
Y01242*
X03467Y01237*
X03472Y01232*
Y01227*
X03467Y01223*
X03457*
X03452Y01227*
Y01232*
X03457Y01237*
X03452Y01242*
Y01247*
X03457Y01237D02*
X03467D01*
X03247Y01223D02*
Y01252D01*
X03261*
X03266Y01247*
Y01237*
X03261Y01232*
X03247*
X03256D02*
X03266Y01223D01*
X03296Y01252D02*
X03286Y01247D01*
X03276Y01237*
Y01227*
X03281Y01223*
X03291*
X03296Y01227*
Y01232*
X03291Y01237*
X03276*
X03326Y01252D02*
X03316Y01247D01*
X03306Y01237*
Y01227*
X03311Y01223*
X03321*
X03326Y01227*
Y01232*
X03321Y01237*
X03306*
X02704Y00423D02*
X02699Y00428D01*
X02689*
X02684Y00423*
Y00404*
X02689Y00399*
X02699*
X02704Y00404*
X02714Y00423D02*
X02719Y00428D01*
X02728*
X02733Y00423*
Y00418*
X02728Y00414*
X02724*
X02728*
X02733Y00409*
Y00404*
X02728Y00399*
X02719*
X02714Y00404*
X02743Y00423D02*
X02748Y00428D01*
X02758*
X02763Y00423*
Y00418*
X02758Y00414*
X02753*
X02758*
X02763Y00409*
Y00404*
X02758Y00399*
X02748*
X02743Y00404*
X03234Y00741D02*
X03229Y00746D01*
X03219*
X03214Y00741*
Y00722*
X03219Y00717*
X03229*
X03234Y00722*
X03244Y00741D02*
X03249Y00746D01*
X03258*
X03263Y00741*
Y00736*
X03258Y00732*
X03254*
X03258*
X03263Y00727*
Y00722*
X03258Y00717*
X03249*
X03244Y00722*
X03293Y00717D02*
X03273D01*
X03293Y00736*
Y00741*
X03288Y00746*
X03278*
X03273Y00741*
X03111Y00186D02*
X03106Y00191D01*
X03096*
X03091Y00186*
Y00167*
X03096Y00162*
X03106*
X03111Y00167*
X03121Y00186D02*
X03126Y00191D01*
X03135*
X0314Y00186*
Y00181*
X03135Y00177*
X03131*
X03135*
X0314Y00172*
Y00167*
X03135Y00162*
X03126*
X03121Y00167*
X0315Y00186D02*
X03155Y00191D01*
X03165*
X0317Y00186*
Y00167*
X03165Y00162*
X03155*
X0315Y00167*
Y00186*
X02493Y00424D02*
X02488Y00429D01*
X02478*
X02473Y00424*
Y00405*
X02478Y004*
X02488*
X02493Y00405*
X02503Y00424D02*
X02508Y00429D01*
X02517*
X02522Y00424*
Y00419*
X02517Y00415*
X02512*
X02517*
X02522Y0041*
Y00405*
X02517Y004*
X02508*
X02503Y00405*
X02532Y004D02*
X02542D01*
X02537*
Y00429*
X02532Y00424*
X03088Y01317D02*
X03078D01*
X03083*
Y01293*
X03078Y01288*
X03073*
X03068Y01293*
X03098Y01288D02*
X03108D01*
X03103*
Y01317*
X03098Y01312*
X03123D02*
X03128Y01317D01*
X03138*
X03143Y01312*
Y01307*
X03138Y01303*
X03143Y01298*
Y01293*
X03138Y01288*
X03128*
X03123Y01293*
Y01298*
X03128Y01303*
X03123Y01307*
Y01312*
X03128Y01303D02*
X03138D01*
X02796Y01111D02*
X02791Y01116D01*
X02781*
X02776Y01111*
Y01092*
X02781Y01087*
X02791*
X02796Y01092*
X02826Y01087D02*
X02806D01*
X02826Y01106*
Y01111*
X02821Y01116*
X02811*
X02806Y01111*
X02856Y01116D02*
X02846Y01111D01*
X02836Y01102*
Y01092*
X02841Y01087*
X02851*
X02856Y01092*
Y01097*
X02851Y01102*
X02836*
X02955Y01087D02*
X02971D01*
X02963*
Y01136*
X02955Y01128*
X02996Y01087D02*
Y01136D01*
Y01103D02*
X03021Y0112D01*
X02996Y01103D02*
X03021Y01087D01*
X03046Y01136D02*
Y01087D01*
Y01111*
X03079*
Y01136*
Y01087*
X03096Y0112D02*
X03129D01*
X03096Y01087*
X03129*
X02178Y00313D02*
Y00342D01*
X02192*
X02197Y00337*
Y00327*
X02192Y00322*
X02178*
X02187D02*
X02197Y00313D01*
X02227Y00342D02*
X02207D01*
Y00327*
X02217Y00332*
X02222*
X02227Y00327*
Y00317*
X02222Y00313*
X02212*
X02207Y00317*
X02237Y00313D02*
X02247D01*
X02242*
Y00342*
X02237Y00337*
X0222Y00447D02*
X02215Y00452D01*
X02205*
X022Y00447*
Y00428*
X02205Y00423*
X02215*
X0222Y00428*
X02249Y00423D02*
X0223D01*
X02249Y00442*
Y00447*
X02244Y00452*
X02235*
X0223Y00447*
X02274Y00423D02*
Y00452D01*
X02259Y00438*
X02279*
X01766Y00416D02*
X01761Y00421D01*
X01751*
X01747Y00416*
Y00396*
X01751Y00392*
X01761*
X01766Y00396*
X01796Y00392D02*
X01776D01*
X01796Y00411*
Y00416*
X01791Y00421*
X01781*
X01776Y00416*
X01826Y00421D02*
X01806D01*
Y00406*
X01816Y00411*
X01821*
X01826Y00406*
Y00396*
X01821Y00392*
X01811*
X01806Y00396*
X02384Y01091D02*
X02351D01*
X02384Y01124*
Y01132*
X02375Y0114*
X02359*
X02351Y01132*
X024Y01091D02*
Y0114D01*
Y01107D02*
X02425Y01124D01*
X024Y01107D02*
X02425Y01091D01*
X0245Y0114D02*
Y01091D01*
Y01115*
X02484*
Y0114*
Y01091*
X025Y01124D02*
X02534D01*
X025Y01091*
X02534*
X0198Y00415D02*
X01975Y0042D01*
X01965*
X01961Y00415*
Y00395*
X01965Y00391*
X01975*
X0198Y00395*
X0201Y00391D02*
X0199D01*
X0201Y0041*
Y00415*
X02005Y0042*
X01995*
X0199Y00415*
X0202D02*
X02025Y0042D01*
X02035*
X0204Y00415*
Y0041*
X02035Y00405*
X0203*
X02035*
X0204Y004*
Y00395*
X02035Y00391*
X02025*
X0202Y00395*
X02217Y00755D02*
X02212Y0076D01*
X02202*
X02197Y00755*
Y00736*
X02202Y00731*
X02212*
X02217Y00736*
X02246Y00731D02*
X02227D01*
X02246Y0075*
Y00755*
X02241Y0076*
X02232*
X02227Y00755*
X02276Y00731D02*
X02256D01*
X02276Y0075*
Y00755*
X02271Y0076*
X02261*
X02256Y00755*
X02477Y0132D02*
X02467D01*
X02472*
Y01296*
X02467Y01291*
X02462*
X02457Y01296*
X02487Y01291D02*
X02497D01*
X02492*
Y0132*
X02487Y01315*
X02527Y01291D02*
Y0132D01*
X02512Y01306*
X02532*
X01267Y00172D02*
Y00201D01*
X01282*
X01287Y00196*
Y00186*
X01282Y00181*
X01267*
X01277D02*
X01287Y00172D01*
X01297Y00196D02*
X01302Y00201D01*
X01312*
X01317Y00196*
Y00191*
X01312Y00186*
X01307*
X01312*
X01317Y00181*
Y00176*
X01312Y00172*
X01302*
X01297Y00176*
X01347Y00172D02*
X01327D01*
X01347Y00191*
Y00196*
X01342Y00201*
X01332*
X01327Y00196*
X01497Y00239D02*
X01492Y00244D01*
X01482*
X01478Y00239*
Y00219*
X01482Y00215*
X01492*
X01497Y00219*
X01507Y00215D02*
X01517D01*
X01512*
Y00244*
X01507Y00239*
X01532Y00244D02*
X01552D01*
Y00239*
X01532Y00219*
Y00215*
X01788Y00153D02*
X01783Y00158D01*
X01773*
X01769Y00153*
Y00133*
X01773Y00129*
X01783*
X01788Y00133*
X01798Y00129D02*
X01808D01*
X01803*
Y00158*
X01798Y00153*
X01843Y00158D02*
X01833Y00153D01*
X01823Y00143*
Y00133*
X01828Y00129*
X01838*
X01843Y00133*
Y00138*
X01838Y00143*
X01823*
X01853Y00785D02*
Y00756D01*
X01867*
X01872Y0076*
Y0078*
X01867Y00785*
X01853*
X01882Y0078D02*
X01887Y00785D01*
X01897*
X01902Y0078*
Y00775*
X01897Y0077*
X01902Y00765*
Y0076*
X01897Y00756*
X01887*
X01882Y0076*
Y00765*
X01887Y0077*
X01882Y00775*
Y0078*
X01887Y0077D02*
X01897D01*
X01741Y00784D02*
Y00755D01*
X01755*
X0176Y00759*
Y00779*
X01755Y00784*
X01741*
X0177D02*
X0179D01*
Y00779*
X0177Y00759*
Y00755*
X01304Y00784D02*
Y00754D01*
X01318*
X01323Y00759*
Y00779*
X01318Y00784*
X01304*
X01353D02*
X01333D01*
Y00769*
X01343Y00774*
X01348*
X01353Y00769*
Y00759*
X01348Y00754*
X01338*
X01333Y00759*
X01193Y00784D02*
Y00754D01*
X01207*
X01212Y00759*
Y00779*
X01207Y00784*
X01193*
X01242D02*
X01232Y00779D01*
X01222Y00769*
Y00759*
X01227Y00754*
X01237*
X01242Y00759*
Y00764*
X01237Y00769*
X01222*
X00976Y00784D02*
Y00755D01*
X0099*
X00995Y00759*
Y00779*
X0099Y00784*
X00976*
X01005Y00755D02*
X01015D01*
X0101*
Y00784*
X01005Y00779*
X01454Y00652D02*
X01449Y00657D01*
X01439*
X01435Y00652*
Y00632*
X01439Y00628*
X01449*
X01454Y00632*
X01464Y00628D02*
X01474D01*
X01469*
Y00657*
X01464Y00652*
X01509Y00657D02*
X01489D01*
Y00642*
X01499Y00647*
X01504*
X01509Y00642*
Y00632*
X01504Y00628*
X01494*
X01489Y00632*
X01458Y00862D02*
X01453Y00867D01*
X01443*
X01439Y00862*
Y00842*
X01443Y00838*
X01453*
X01458Y00842*
X01468Y00838D02*
X01478D01*
X01473*
Y00867*
X01468Y00862*
X01508Y00838D02*
Y00867D01*
X01493Y00852*
X01513*
X01877Y01316D02*
X01867D01*
X01872*
Y01292*
X01867Y01287*
X01862*
X01857Y01292*
X01887Y01287D02*
X01897D01*
X01892*
Y01316*
X01887Y01311*
X01932Y01287D02*
X01912D01*
X01932Y01306*
Y01311*
X01927Y01316*
X01917*
X01912Y01311*
X01773Y01089D02*
Y01138D01*
X01749Y01113*
X01782*
X01798Y01089D02*
Y01138D01*
Y01105D02*
X01823Y01122D01*
X01798Y01105D02*
X01823Y01089D01*
X01848Y01138D02*
Y01089D01*
Y01113*
X01882*
Y01138*
Y01089*
X01898Y01122D02*
X01932D01*
X01898Y01089*
X01932*
X01391Y01219D02*
Y01248D01*
X01406*
X01411Y01243*
Y01234*
X01406Y01229*
X01391*
X01401D02*
X01411Y01219D01*
X0144D02*
X01421D01*
X0144Y01238*
Y01243*
X01435Y01248*
X01426*
X01421Y01243*
X0145D02*
X01455Y01248D01*
X01465*
X0147Y01243*
Y01224*
X01465Y01219*
X01455*
X0145Y01224*
Y01243*
X01134Y01128D02*
X01142Y01136D01*
X01158*
X01167Y01128*
Y0112*
X01158Y01111*
X01167Y01103*
Y01095*
X01158Y01087*
X01142*
X01134Y01095*
Y01103*
X01142Y01111*
X01134Y0112*
Y01128*
X01142Y01111D02*
X01158D01*
X01183Y01087D02*
Y01136D01*
Y01103D02*
X01208Y0112D01*
X01183Y01103D02*
X01208Y01087D01*
X01233Y01136D02*
Y01087D01*
Y01111*
X01267*
Y01136*
Y01087*
X01283Y0112D02*
X01317D01*
X01283Y01087*
X01317*
X00732Y01024D02*
X00712D01*
X00703Y01014*
Y00974*
X00712Y00965*
X00732*
X00742Y00974*
Y01014*
X00732Y01024*
X00762D02*
Y00974D01*
X00772Y00965*
X00792*
X00802Y00974*
Y01024*
X00822D02*
X00862D01*
X00842*
Y00965*
X00113Y01362D02*
X00142D01*
X00127Y01377D02*
Y01348D01*
Y01456D02*
Y01485D01*
X00664Y00114D02*
X0068D01*
X00672*
Y00065*
X00664*
X0068*
X00705D02*
Y00114D01*
X00738Y00065*
Y00114*
X00755Y00065D02*
Y00114D01*
X0078*
X00788Y00106*
Y00089*
X0078Y00081*
X00755*
X00805Y00114D02*
Y00073D01*
X00813Y00065*
X0083*
X00838Y00073*
Y00114*
X00855D02*
X00888D01*
X00872*
Y00065*
X00035Y01172D02*
X00101D01*
X00134Y01138*
X00101Y01105*
X00035*
X00084*
Y01172*
X00101Y01072D02*
X00051D01*
X00035Y01055*
Y01005*
X00101*
X00134Y00905D02*
X00035D01*
Y00955*
X00051Y00972*
X00084*
X00101Y00955*
Y00905*
X00035Y00872D02*
Y00838D01*
Y00855*
X00101*
Y00872*
X00035Y00772D02*
Y00738D01*
X00051Y00722*
X00084*
X00101Y00738*
Y00772*
X00084Y00788*
X00051*
X00035Y00772*
X00134Y00588D02*
Y00555D01*
Y00572*
X00035*
Y00588*
Y00555*
Y00505D02*
X00134D01*
X00035Y00438*
X00134*
X00838Y01201D02*
X00828D01*
X00833*
Y01177*
X00828Y01172*
X00823*
X00818Y01177*
X00868Y01172D02*
X00848D01*
X00868Y01191*
Y01196*
X00863Y01201*
X00853*
X00848Y01196*
X00878Y01172D02*
X00888D01*
X00883*
Y01201*
X00878Y01196*
X00527Y01469D02*
Y01443D01*
X0054Y0143*
X00553Y01443*
Y01469*
X00566Y0143D02*
Y01469D01*
X00586*
X00593Y01463*
Y01449*
X00586Y01443*
X00566*
X0058D02*
X00593Y0143D01*
X00633D02*
X00606D01*
X00633Y01456*
Y01463*
X00626Y01469*
X00613*
X00606Y01463*
X00397Y00196D02*
Y0017D01*
X0041Y00157*
X00423Y0017*
Y00196*
X00436Y00157D02*
Y00196D01*
X00456*
X00463Y0019*
Y00176*
X00456Y0017*
X00436*
X0045D02*
X00463Y00157D01*
X00476D02*
X0049D01*
X00483*
Y00196*
X00476Y0019*
X03551Y02971D02*
Y02938D01*
X03557Y02932*
X0357*
X03577Y02938*
Y02971*
X0359Y02965D02*
X03597Y02971D01*
X0361*
X03617Y02965*
Y02958*
X0361Y02951*
X03617Y02945*
Y02938*
X0361Y02932*
X03597*
X0359Y02938*
Y02945*
X03597Y02951*
X0359Y02958*
Y02965*
X03597Y02951D02*
X0361D01*
X03684Y02932D02*
X0367D01*
Y02971*
X03684*
X0373D02*
X03704D01*
Y02951*
X03717Y02958*
X03724*
X0373Y02951*
Y02938*
X03724Y02932*
X0371*
X03704Y02938*
X03744Y02965D02*
X0375Y02971D01*
X03764*
X0377Y02965*
Y02938*
X03764Y02932*
X0375*
X03744Y02938*
Y02965*
X03784D02*
X0379Y02971D01*
X03804*
X0381Y02965*
Y02938*
X03804Y02932*
X0379*
X03784Y02938*
Y02965*
X03824Y02971D02*
Y02932D01*
Y02951*
X0385*
Y02971*
Y02932*
X03864Y02958D02*
X0389D01*
X03864Y02932*
X0389*
X03904D02*
X03917D01*
Y02971*
X03904*
X03551Y02377D02*
Y02344D01*
X03557Y02338*
X0357*
X03577Y02344*
Y02377*
X0359D02*
X03617D01*
Y02371*
X0359Y02344*
Y02338*
X03684D02*
X0367D01*
Y02377*
X03684*
X03704Y02338D02*
X03717D01*
X0371*
Y02377*
X03704Y02371*
X03737Y02338D02*
Y02377D01*
Y02351D02*
X03757Y02364D01*
X03737Y02351D02*
X03757Y02338D01*
X03777Y02377D02*
Y02338D01*
Y02357*
X03804*
Y02377*
Y02338*
X03817Y02364D02*
X03844D01*
X03817Y02338*
X03844*
X03857D02*
X0387D01*
Y02377*
X03857*
X02469Y02971D02*
Y02938D01*
X02475Y02932*
X02488*
X02495Y02938*
Y02971*
X02535D02*
X02522Y02965D01*
X02508Y02951*
Y02938*
X02515Y02932*
X02528*
X02535Y02938*
Y02945*
X02528Y02951*
X02508*
X02602Y02932D02*
X02588D01*
Y02971*
X02602*
X02648Y02932D02*
X02622D01*
X02648Y02958*
Y02965*
X02642Y02971*
X02628*
X02622Y02965*
X02688Y02971D02*
X02662D01*
Y02951*
X02675Y02958*
X02682*
X02688Y02951*
Y02938*
X02682Y02932*
X02668*
X02662Y02938*
X02702Y02965D02*
X02708Y02971D01*
X02722*
X02728Y02965*
Y02938*
X02722Y02932*
X02708*
X02702Y02938*
Y02965*
X02742Y02971D02*
Y02932D01*
Y02951*
X02768*
Y02971*
Y02932*
X02782Y02958D02*
X02808D01*
X02782Y02932*
X02808*
X02822D02*
X02835D01*
Y02971*
X02822*
X03551Y01784D02*
Y01751D01*
X03557Y01745*
X0357*
X03577Y01751*
Y01784*
X03617D02*
X0359D01*
Y01764*
X03604Y01771*
X0361*
X03617Y01764*
Y01751*
X0361Y01745*
X03597*
X0359Y01751*
X03684Y01745D02*
X0367D01*
Y01784*
X03684*
X0373Y01745D02*
X03704D01*
X0373Y01771*
Y01778*
X03724Y01784*
X0371*
X03704Y01778*
X03744Y01745D02*
Y01784D01*
Y01758D02*
X03764Y01771D01*
X03744Y01758D02*
X03764Y01745D01*
X03784Y01784D02*
Y01745D01*
Y01764*
X0381*
Y01784*
Y01745*
X03824Y01771D02*
X0385D01*
X03824Y01745*
X0385*
X03864D02*
X03877D01*
Y01784*
X03864*
X01387Y02971D02*
Y02938D01*
X01393Y02932*
X01406*
X01413Y02938*
Y02971*
X01446Y02932D02*
Y02971D01*
X01426Y02951*
X01453*
X0152Y02932D02*
X01506D01*
Y02971*
X0152*
X0154Y02932D02*
X01553D01*
X01546*
Y02971*
X0154Y02965*
X016Y02932D02*
X01573D01*
X016Y02958*
Y02965*
X01593Y02971*
X0158*
X01573Y02965*
X0164Y02971D02*
X01613D01*
Y02951*
X01626Y02958*
X01633*
X0164Y02951*
Y02938*
X01633Y02932*
X0162*
X01613Y02938*
X01653Y02971D02*
Y02932D01*
Y02951*
X0168*
Y02971*
Y02932*
X01693Y02958D02*
X0172D01*
X01693Y02932*
X0172*
X01733D02*
X01746D01*
Y02971*
X01733*
X03551Y00597D02*
Y00564D01*
X03557Y00558*
X0357*
X03577Y00564*
Y00597*
X0359Y00591D02*
X03597Y00597D01*
X0361*
X03617Y00591*
Y00584*
X0361Y00577*
X03604*
X0361*
X03617Y00571*
Y00564*
X0361Y00558*
X03597*
X0359Y00564*
X03684Y00558D02*
X0367D01*
Y00597*
X03684*
X03724Y00558D02*
Y00597D01*
X03704Y00577*
X0373*
X03784Y00558D02*
Y00597D01*
Y00571D02*
X03804Y00584D01*
X03784Y00571D02*
X03804Y00558D01*
X03824Y00597D02*
Y00558D01*
Y00577*
X0385*
Y00597*
Y00558*
X03864Y00584D02*
X0389D01*
X03864Y00558*
X0389*
X03904D02*
X03917D01*
Y00597*
X03904*
X00304Y02971D02*
Y02938D01*
X0031Y02932*
X00323*
X0033Y02938*
Y02971*
X0037Y02932D02*
X00343D01*
X0037Y02958*
Y02965*
X00363Y02971*
X0035*
X00343Y02965*
X00437Y02932D02*
X00423D01*
Y02971*
X00437*
X00483D02*
X0047Y02965D01*
X00457Y02951*
Y02938*
X00463Y02932*
X00477*
X00483Y02938*
Y02945*
X00477Y02951*
X00457*
X00517Y02932D02*
Y02971D01*
X00497Y02951*
X00523*
X00537Y02971D02*
Y02932D01*
Y02951*
X00563*
Y02971*
Y02932*
X00577Y02958D02*
X00603D01*
X00577Y02932*
X00603*
X00617D02*
X0063D01*
Y02971*
X00617*
X03551Y0119D02*
Y01157D01*
X03557Y01151*
X0357*
X03577Y01157*
Y0119*
X0359Y01151D02*
X03604D01*
X03597*
Y0119*
X0359Y01184*
X03677Y01151D02*
X03664D01*
Y0119*
X03677*
X03697Y01184D02*
X03704Y0119D01*
X03717*
X03724Y01184*
Y01177*
X03717Y0117*
X03724Y01164*
Y01157*
X03717Y01151*
X03704*
X03697Y01157*
Y01164*
X03704Y0117*
X03697Y01177*
Y01184*
X03704Y0117D02*
X03717D01*
X03777Y01151D02*
Y0119D01*
Y01164D02*
X03797Y01177D01*
X03777Y01164D02*
X03797Y01151D01*
X03817Y0119D02*
Y01151D01*
Y0117*
X03844*
Y0119*
Y01151*
X03857Y01177D02*
X03884D01*
X03857Y01151*
X03884*
X03897D02*
X0391D01*
Y0119*
X03897*
X02608Y01092D02*
Y01122D01*
X02622*
X02627Y01117*
Y01107*
X02622Y01102*
X02608*
X02617D02*
X02627Y01092D01*
X02657Y01122D02*
X02637D01*
Y01107*
X02647Y01112*
X02652*
X02657Y01107*
Y01097*
X02652Y01092*
X02642*
X02637Y01097*
X02667Y01122D02*
X02687D01*
Y01117*
X02667Y01097*
Y01092*
X02757Y0122D02*
Y01249D01*
X02772*
X02777Y01244*
Y01234*
X02772Y01229*
X02757*
X02767D02*
X02777Y0122D01*
X02807Y01249D02*
X02787D01*
Y01234*
X02797Y01239*
X02802*
X02807Y01234*
Y01224*
X02802Y0122*
X02792*
X02787Y01224*
X02837Y01249D02*
X02827Y01244D01*
X02817Y01234*
Y01224*
X02822Y0122*
X02832*
X02837Y01224*
Y01229*
X02832Y01234*
X02817*
X02608Y01218D02*
Y01248D01*
X02622*
X02627Y01243*
Y01233*
X02622Y01228*
X02608*
X02617D02*
X02627Y01218D01*
X02657Y01248D02*
X02637D01*
Y01233*
X02647Y01238*
X02652*
X02657Y01233*
Y01223*
X02652Y01218*
X02642*
X02637Y01223*
X02687Y01248D02*
X02667D01*
Y01233*
X02677Y01238*
X02682*
X02687Y01233*
Y01223*
X02682Y01218*
X02672*
X02667Y01223*
X02757Y01344D02*
Y01374D01*
X02772*
X02777Y01369*
Y01359*
X02772Y01354*
X02757*
X02767D02*
X02777Y01344D01*
X02807Y01374D02*
X02787D01*
Y01359*
X02797Y01364*
X02802*
X02807Y01359*
Y01349*
X02802Y01344*
X02792*
X02787Y01349*
X02832Y01344D02*
Y01374D01*
X02817Y01359*
X02837*
X02608Y01344D02*
Y01374D01*
X02622*
X02627Y01369*
Y01359*
X02622Y01354*
X02608*
X02617D02*
X02627Y01344D01*
X02657Y01374D02*
X02637D01*
Y01359*
X02647Y01364*
X02652*
X02657Y01359*
Y01349*
X02652Y01344*
X02642*
X02637Y01349*
X02667Y01369D02*
X02672Y01374D01*
X02682*
X02687Y01369*
Y01364*
X02682Y01359*
X02677*
X02682*
X02687Y01354*
Y01349*
X02682Y01344*
X02672*
X02667Y01349*
X01947Y00728D02*
Y00758D01*
X01961*
X01966Y00753*
Y00743*
X01961Y00738*
X01947*
X01956D02*
X01966Y00728D01*
X01991D02*
Y00758D01*
X01976Y00743*
X01996*
X02006Y00733D02*
X02011Y00728D01*
X02021*
X02026Y00733*
Y00753*
X02021Y00758*
X02011*
X02006Y00753*
Y00748*
X02011Y00743*
X02026*
X01947Y00856D02*
Y00886D01*
X01961*
X01966Y00881*
Y00871*
X01961Y00866*
X01947*
X01956D02*
X01966Y00856D01*
X01991D02*
Y00886D01*
X01976Y00871*
X01996*
X02006Y00881D02*
X02011Y00886D01*
X02021*
X02026Y00881*
Y00876*
X02021Y00871*
X02026Y00866*
Y00861*
X02021Y00856*
X02011*
X02006Y00861*
Y00866*
X02011Y00871*
X02006Y00876*
Y00881*
X02011Y00871D02*
X02021D01*
X01533Y01344D02*
Y01374D01*
X01548*
X01553Y01369*
Y01359*
X01548Y01354*
X01533*
X01543D02*
X01553Y01344D01*
X01583D02*
X01563D01*
X01583Y01364*
Y01369*
X01578Y01374*
X01568*
X01563Y01369*
X01593Y01349D02*
X01598Y01344D01*
X01608*
X01613Y01349*
Y01369*
X01608Y01374*
X01598*
X01593Y01369*
Y01364*
X01598Y01359*
X01613*
X0016Y02358D02*
Y02388D01*
X00174*
X00179Y02383*
Y02373*
X00174Y02368*
X0016*
X00169D02*
X00179Y02358D01*
X00189D02*
X00199D01*
X00194*
Y02388*
X00189Y02383*
X00214Y02363D02*
X00219Y02358D01*
X00229*
X00234Y02363*
Y02383*
X00229Y02388*
X00219*
X00214Y02383*
Y02378*
X00219Y02373*
X00234*
X0016Y0221D02*
Y0224D01*
X00174*
X00179Y02235*
Y02225*
X00174Y0222*
X0016*
X00169D02*
X00179Y0221D01*
X00189D02*
X00199D01*
X00194*
Y0224*
X00189Y02235*
X00214D02*
X00219Y0224D01*
X00229*
X00234Y02235*
Y0223*
X00229Y02225*
X00234Y0222*
Y02215*
X00229Y0221*
X00219*
X00214Y02215*
Y0222*
X00219Y02225*
X00214Y0223*
Y02235*
X00219Y02225D02*
X00229D01*
X0016Y02075D02*
Y02104D01*
X00174*
X00179Y02099*
Y02089*
X00174Y02084*
X0016*
X00169D02*
X00179Y02075D01*
X00189D02*
X00199D01*
X00194*
Y02104*
X00189Y02099*
X00214Y02104D02*
X00234D01*
Y02099*
X00214Y02079*
Y02075*
X00637Y0195D02*
Y01979D01*
X00652*
X00657Y01974*
Y01964*
X00652Y01959*
X00637*
X00647D02*
X00657Y0195D01*
X00667D02*
X00677D01*
X00672*
Y01979*
X00667Y01974*
X00712Y01979D02*
X00702Y01974D01*
X00692Y01964*
Y01954*
X00697Y0195*
X00707*
X00712Y01954*
Y01959*
X00707Y01964*
X00692*
X00789Y02072D02*
Y02101D01*
X00803*
X00808Y02096*
Y02086*
X00803Y02081*
X00789*
X00798D02*
X00808Y02072D01*
X00818D02*
X00828D01*
X00823*
Y02101*
X00818Y02096*
X00863Y02101D02*
X00843D01*
Y02086*
X00853Y02091*
X00858*
X00863Y02086*
Y02076*
X00858Y02072*
X00848*
X00843Y02076*
X00872Y01444D02*
Y01474D01*
X00886*
X00891Y01469*
Y01459*
X00886Y01454*
X00872*
X00881D02*
X00891Y01444D01*
X00901D02*
X00911D01*
X00906*
Y01474*
X00901Y01469*
X00926D02*
X00931Y01474D01*
X00941*
X00946Y01469*
Y01449*
X00941Y01444*
X00931*
X00926Y01449*
Y01469*
X01024Y00173D02*
Y00202D01*
X01039*
X01044Y00197*
Y00187*
X01039Y00183*
X01024*
X01034D02*
X01044Y00173D01*
X01053Y00197D02*
X01058Y00202D01*
X01068*
X01073Y00197*
Y00192*
X01068Y00187*
X01073Y00183*
Y00178*
X01068Y00173*
X01058*
X01053Y00178*
Y00183*
X01058Y00187*
X01053Y00192*
Y00197*
X01058Y00187D02*
X01068D01*
X0118Y00168D02*
Y00197D01*
X01195*
X012Y00192*
Y00182*
X01195Y00177*
X0118*
X0119D02*
X012Y00168D01*
X0121Y00197D02*
X0123D01*
Y00192*
X0121Y00173*
Y00168*
X00898Y0158D02*
Y0161D01*
X00913*
X00918Y01605*
Y01595*
X00913Y0159*
X00898*
X00908D02*
X00918Y0158D01*
X00942D02*
Y0161D01*
X00927Y01595*
X00947*
X00782Y00907D02*
X00812D01*
Y00892*
X00807Y00887*
X00797*
X00792Y00892*
Y00907*
Y00897D02*
X00782Y00887D01*
X00807Y00878D02*
X00812Y00873D01*
Y00863*
X00807Y00858*
X00802*
X00797Y00863*
Y00868*
Y00863*
X00792Y00858*
X00787*
X00782Y00863*
Y00873*
X00787Y00878*
X00654Y00917D02*
X00684D01*
Y00902*
X00679Y00897*
X00669*
X00664Y00902*
Y00917*
Y00907D02*
X00654Y00897D01*
Y00867D02*
Y00887D01*
X00674Y00867*
X00679*
X00684Y00872*
Y00882*
X00679Y00887*
X0091Y00917D02*
X00939D01*
Y00902*
X00934Y00897*
X00924*
X00919Y00902*
Y00917*
Y00907D02*
X0091Y00897D01*
Y00887D02*
Y00877D01*
Y00882*
X00939*
X00934Y00887*
X00222Y01441D02*
Y01454D01*
Y01448*
X00189*
X00182Y01454*
Y01461*
X00189Y01468*
X00182Y01401D02*
Y01428D01*
X00209Y01401*
X00216*
X00222Y01408*
Y01421*
X00216Y01428*
X00182Y01361D02*
Y01388D01*
X00209Y01361*
X00216*
X00222Y01368*
Y01381*
X00216Y01388*
X01265Y01314D02*
X01255D01*
X0126*
Y0129*
X01255Y01285*
X0125*
X01245Y0129*
X01275Y01285D02*
X01285D01*
X0128*
Y01314*
X01275Y01309*
X013D02*
X01305Y01314D01*
X01315*
X0132Y01309*
Y0129*
X01315Y01285*
X01305*
X013Y0129*
Y01309*
X00845Y00298D02*
X00835D01*
X0084*
Y00274*
X00835Y00269*
X0083*
X00825Y00274*
X00869Y00269D02*
Y00298D01*
X00854Y00284*
X00874*
X00199Y00546D02*
X00186D01*
X00193*
Y00512*
X00186Y00506*
X00179*
X00173Y00512*
X00213Y00539D02*
X00219Y00546D01*
X00233*
X00239Y00539*
Y00532*
X00233Y00526*
X00226*
X00233*
X00239Y00519*
Y00512*
X00233Y00506*
X00219*
X00213Y00512*
X00199Y00814D02*
X00186D01*
X00193*
Y00781*
X00186Y00774*
X00179*
X00173Y00781*
X00239Y00774D02*
X00213D01*
X00239Y00801*
Y00808*
X00233Y00814*
X00219*
X00213Y00808*
X00379Y01123D02*
X00366D01*
X00372*
Y0109*
X00366Y01084*
X00359*
X00353Y0109*
X00392Y01084D02*
X00406D01*
X00399*
Y01123*
X00392Y01117*
X00165Y01805D02*
Y01792D01*
Y01799*
X00126*
Y01805*
Y01792*
X00159Y01746D02*
X00165Y01752D01*
Y01765*
X00159Y01772*
X00132*
X00126Y01765*
Y01752*
X00132Y01746*
X00165Y01706D02*
X00159Y01719D01*
X00146Y01732*
X00132*
X00126Y01726*
Y01712*
X00132Y01706*
X00139*
X00146Y01712*
Y01732*
X02977Y01594D02*
X0299D01*
X02983*
Y01555*
X02977*
X0299*
X03036Y01588D02*
X0303Y01594D01*
X03016*
X0301Y01588*
Y01561*
X03016Y01555*
X0303*
X03036Y01561*
X03076Y01594D02*
X0305D01*
Y01574*
X03063Y01581*
X0307*
X03076Y01574*
Y01561*
X0307Y01555*
X03056*
X0305Y01561*
X02373Y01594D02*
X02386D01*
X02379*
Y01555*
X02373*
X02386*
X02432Y01588D02*
X02426Y01594D01*
X02412*
X02406Y01588*
Y01561*
X02412Y01555*
X02426*
X02432Y01561*
X02466Y01555D02*
Y01594D01*
X02446Y01574*
X02472*
X01769Y01594D02*
X01782D01*
X01775*
Y01555*
X01769*
X01782*
X01828Y01588D02*
X01822Y01594D01*
X01808*
X01802Y01588*
Y01561*
X01808Y01555*
X01822*
X01828Y01561*
X01842Y01588D02*
X01848Y01594D01*
X01862*
X01868Y01588*
Y01581*
X01862Y01574*
X01855*
X01862*
X01868Y01568*
Y01561*
X01862Y01555*
X01848*
X01842Y01561*
X01165Y01594D02*
X01178D01*
X01171*
Y01555*
X01165*
X01178*
X01224Y01588D02*
X01218Y01594D01*
X01204*
X01198Y01588*
Y01561*
X01204Y01555*
X01218*
X01224Y01561*
X01264Y01555D02*
X01238D01*
X01264Y01581*
Y01588*
X01258Y01594*
X01244*
X01238Y01588*
X00497Y00652D02*
X00511D01*
X00504*
Y00613*
X00497*
X00511*
X00557Y00646D02*
X0055Y00652D01*
X00537*
X00531Y00646*
Y00619*
X00537Y00613*
X0055*
X00557Y00619*
X0057Y00613D02*
X00584D01*
X00577*
Y00652*
X0057Y00646*
X02865Y00784D02*
Y00755D01*
X02879*
X02884Y00759*
Y00779*
X02879Y00784*
X02865*
X02894Y00755D02*
X02904D01*
X02899*
Y00784*
X02894Y00779*
X02939Y00784D02*
X02929Y00779D01*
X02919Y00769*
Y00759*
X02924Y00755*
X02934*
X02939Y00759*
Y00764*
X02934Y00769*
X02919*
X02754Y00784D02*
Y00755D01*
X02768*
X02773Y00759*
Y00779*
X02768Y00784*
X02754*
X02783Y00755D02*
X02793D01*
X02788*
Y00784*
X02783Y00779*
X02828Y00755D02*
X02808D01*
X02828Y00774*
Y00779*
X02823Y00784*
X02813*
X02808Y00779*
X02647Y00784D02*
Y00755D01*
X02662*
X02667Y00759*
Y00779*
X02662Y00784*
X02647*
X02677Y00755D02*
X02687D01*
X02682*
Y00784*
X02677Y00779*
X02702Y00755D02*
X02712D01*
X02707*
Y00784*
X02702Y00779*
X02421Y00784D02*
Y00755D01*
X02435*
X0244Y00759*
Y00779*
X02435Y00784*
X02421*
X0245Y00755D02*
X0246D01*
X02455*
Y00784*
X0245Y00779*
X02475D02*
X0248Y00784D01*
X0249*
X02495Y00779*
Y00759*
X0249Y00755*
X0248*
X02475Y00759*
Y00779*
X02543Y00784D02*
Y00755D01*
X02558*
X02563Y00759*
Y00779*
X02558Y00784*
X02543*
X02573Y00759D02*
X02578Y00755D01*
X02588*
X02593Y00759*
Y00779*
X02588Y00784*
X02578*
X02573Y00779*
Y00774*
X02578Y00769*
X02593*
X00381Y01906D02*
Y01877D01*
X00395*
X004Y01881*
Y01901*
X00395Y01906*
X00381*
X00425Y01877D02*
Y01906D01*
X0041Y01891*
X0043*
X00497Y01906D02*
Y01877D01*
X00511*
X00516Y01881*
Y01901*
X00511Y01906*
X00497*
X00526Y01901D02*
X00531Y01906D01*
X00541*
X00546Y01901*
Y01896*
X00541Y01891*
X00536*
X00541*
X00546Y01886*
Y01881*
X00541Y01877*
X00531*
X00526Y01881*
X00446Y02192D02*
X00441Y02197D01*
X00431*
X00427Y02192*
Y02172*
X00431Y02168*
X00441*
X00446Y02172*
X00456D02*
X00461Y02168D01*
X00471*
X00476Y02172*
Y02192*
X00471Y02197*
X00461*
X00456Y02192*
Y02187*
X00461Y02182*
X00476*
X00677Y02088D02*
X00672Y02093D01*
X00662*
X00658Y02088*
Y02068*
X00662Y02063*
X00672*
X00677Y02068*
X00687Y02093D02*
X00707D01*
Y02088*
X00687Y02068*
Y02063*
X00679Y01842D02*
X00674Y01847D01*
X00664*
X0066Y01842*
Y01822*
X00664Y01818*
X00674*
X00679Y01822*
X00709Y01847D02*
X00699Y01842D01*
X00689Y01832*
Y01822*
X00694Y01818*
X00704*
X00709Y01822*
Y01827*
X00704Y01832*
X00689*
X01034Y00278D02*
X01029Y00283D01*
X01019*
X01014Y00278*
Y00258*
X01019Y00253*
X01029*
X01034Y00258*
X01063Y00283D02*
X01043D01*
Y00268*
X01053Y00273*
X01058*
X01063Y00268*
Y00258*
X01058Y00253*
X01048*
X01043Y00258*
X01328Y00337D02*
X01323Y00342D01*
X01313*
X01309Y00337*
Y00317*
X01313Y00313*
X01323*
X01328Y00317*
X01353Y00313D02*
Y00342D01*
X01338Y00327*
X01358*
X01028Y01119D02*
X01023Y01124D01*
X01013*
X01008Y01119*
Y011*
X01013Y01095*
X01023*
X01028Y011*
X01057Y01095D02*
X01037D01*
X01057Y01114*
Y01119*
X01052Y01124*
X01042*
X01037Y01119*
X00543Y00892D02*
X00548Y00897D01*
Y00907*
X00543Y00912*
X00523*
X00519Y00907*
Y00897*
X00523Y00892*
X00519Y00882D02*
Y00872D01*
Y00877*
X00548*
X00543Y00882*
G54D45*
X01107Y00864D02*
Y009D01*
Y00649D02*
Y00685D01*
X01144*
X01069D02*
X01107D01*
Y00864D02*
X01144D01*
X01069D02*
X01107D01*
X01069Y00834D02*
Y00864D01*
X01144Y00834D02*
Y00864D01*
Y00685D02*
Y00715D01*
X01069Y00685D02*
Y00715D01*
X02499Y00097D02*
X02535D01*
X02714D02*
X0275D01*
X02714D02*
Y00134D01*
Y00059D02*
Y00097D01*
X02535D02*
Y00134D01*
Y00059D02*
Y00097D01*
Y00059D02*
X02565D01*
X02535Y00134D02*
X02565D01*
X02684D02*
X02714D01*
X02684Y00059D02*
X02714D01*
X02499Y00209D02*
X02535D01*
X02714D02*
X0275D01*
X02714D02*
Y00246D01*
Y00171D02*
Y00209D01*
X02535D02*
Y00246D01*
Y00171D02*
Y00209D01*
Y00171D02*
X02565D01*
X02535Y00246D02*
X02565D01*
X02684D02*
X02714D01*
X02684Y00171D02*
X02714D01*
X02499Y0032D02*
X02535D01*
X02714D02*
X0275D01*
X02714D02*
Y00357D01*
Y00282D02*
Y0032D01*
X02535D02*
Y00357D01*
Y00282D02*
Y0032D01*
Y00282D02*
X02565D01*
X02535Y00357D02*
X02565D01*
X02684D02*
X02714D01*
X02684Y00282D02*
X02714D01*
X01878Y0064D02*
Y00676D01*
Y00855D02*
Y00891D01*
X0184Y00855D02*
X01878D01*
X01915*
X0184Y00676D02*
X01878D01*
X01915*
X01915D02*
Y00706D01*
X0184Y00676D02*
Y00706D01*
Y00825D02*
Y00855D01*
X01915Y00825D02*
Y00855D01*
X01766Y00864D02*
Y009D01*
Y00649D02*
Y00685D01*
X01803*
X01728D02*
X01766D01*
Y00864D02*
X01803D01*
X01728D02*
X01766D01*
X01728Y00834D02*
Y00864D01*
X01803Y00834D02*
Y00864D01*
Y00685D02*
Y00715D01*
X01728Y00685D02*
Y00715D01*
X01329Y00639D02*
Y00675D01*
Y00854D02*
Y0089D01*
X01291Y00854D02*
X01329D01*
X01366*
X01291Y00675D02*
X01329D01*
X01366*
X01366D02*
Y00705D01*
X01291Y00675D02*
Y00705D01*
Y00824D02*
Y00854D01*
X01366Y00824D02*
Y00854D01*
X01218Y00864D02*
Y009D01*
Y00649D02*
Y00685D01*
X01255*
X0118D02*
X01218D01*
Y00864D02*
X01255D01*
X0118D02*
X01218D01*
X0118Y00834D02*
Y00864D01*
X01255Y00834D02*
Y00864D01*
Y00685D02*
Y00715D01*
X0118Y00685D02*
Y00715D01*
X00996Y00639D02*
Y00675D01*
Y00854D02*
Y0089D01*
X00958Y00854D02*
X00996D01*
X01033*
X00958Y00675D02*
X00996D01*
X01033*
X01033D02*
Y00705D01*
X00958Y00675D02*
Y00705D01*
Y00824D02*
Y00854D01*
X01033Y00824D02*
Y00854D01*
X00522Y01986D02*
Y02022D01*
Y01771D02*
Y01807D01*
X00559*
X00484D02*
X00522D01*
Y01986D02*
X00559D01*
X00484D02*
X00522D01*
X00484Y01956D02*
Y01986D01*
X00559Y01956D02*
Y01986D01*
Y01807D02*
Y01837D01*
X00484Y01807D02*
Y01837D01*
X00406Y01761D02*
Y01797D01*
Y01976D02*
Y02012D01*
X00368Y01976D02*
X00406D01*
X00443*
X00368Y01797D02*
X00406D01*
X00443*
X00443D02*
Y01827D01*
X00368Y01797D02*
Y01827D01*
Y01946D02*
Y01976D01*
X00443Y01946D02*
Y01976D01*
X0291Y01763D02*
X0316D01*
X0291Y01386D02*
X0316D01*
X04472Y01956D02*
Y02216D01*
X03552Y01956D02*
Y02216D01*
X04472*
X03552Y01956D02*
X04472D01*
Y01363D02*
Y01623D01*
X03552Y01363D02*
Y01623D01*
X04472*
X03552Y01363D02*
X04472D01*
Y0255D02*
Y0281D01*
X03552Y0255D02*
Y0281D01*
X04472*
X03552Y0255D02*
X04472D01*
X03389D02*
Y0281D01*
X02469Y0255D02*
Y0281D01*
X03389*
X02469Y0255D02*
X03389D01*
X01225D02*
Y0281D01*
X00305Y0255D02*
Y0281D01*
X01225*
X00305Y0255D02*
X01225D01*
X03552Y00769D02*
X04472D01*
X03552Y01029D02*
X04472D01*
X03552Y00769D02*
Y01029D01*
X04472Y00769D02*
Y01029D01*
X02307Y0255D02*
Y0281D01*
X01387Y0255D02*
Y0281D01*
X02307*
X01387Y0255D02*
X02307D01*
X04472Y00176D02*
Y00436D01*
X03552Y00176D02*
Y00436D01*
X04472*
X03552Y00176D02*
X04472D01*
X00144Y01607D02*
X00269D01*
Y01907*
X00144D02*
X00269D01*
X00144Y01607D02*
Y01907D01*
X00327Y00039D02*
X00586D01*
Y00039D02*
Y00129D01*
Y00229D02*
Y00314D01*
X00327D02*
X00586D01*
X00327Y00229D02*
Y00314D01*
Y00039D02*
Y00129D01*
X0242Y00685D02*
Y00715D01*
X02495Y00685D02*
Y00715D01*
Y00834D02*
Y00864D01*
X0242Y00834D02*
Y00864D01*
X0242D02*
X02458D01*
X02495*
X0242Y00685D02*
X02458D01*
X02495*
X02458Y00649D02*
Y00685D01*
Y00864D02*
Y009D01*
X02606Y00824D02*
Y00854D01*
X02531Y00824D02*
Y00854D01*
Y00675D02*
Y00705D01*
X02606Y00675D02*
Y00705D01*
X02569Y00675D02*
X02606D01*
X02531D02*
X02569D01*
Y00854D02*
X02606D01*
X02531D02*
X02569D01*
Y0089*
Y00639D02*
Y00675D01*
X02939Y00824D02*
Y00854D01*
X02864Y00824D02*
Y00854D01*
Y00675D02*
Y00705D01*
X02939Y00675D02*
Y00705D01*
X02902Y00675D02*
X02939D01*
X02864D02*
X02902D01*
Y00854D02*
X02939D01*
X02864D02*
X02902D01*
Y0089*
Y00639D02*
Y00675D01*
X02642Y00685D02*
Y00715D01*
X02717Y00685D02*
Y00715D01*
Y00834D02*
Y00864D01*
X02642Y00834D02*
Y00864D01*
X02642D02*
X0268D01*
X02717*
X02642Y00685D02*
X0268D01*
X02717*
X0268Y00649D02*
Y00685D01*
Y00864D02*
Y009D01*
X02828Y00824D02*
Y00854D01*
X02753Y00824D02*
Y00854D01*
Y00675D02*
Y00705D01*
X02828Y00675D02*
Y00705D01*
X02791Y00675D02*
X02828D01*
X02753D02*
X02791D01*
Y00854D02*
X02828D01*
X02753D02*
X02791D01*
Y0089*
Y00639D02*
Y00675D01*
X02306Y01386D02*
X02556D01*
X02306Y01763D02*
X02556D01*
X01701Y01386D02*
X01951D01*
X01701Y01763D02*
X01951D01*
X01098Y01386D02*
X01348D01*
X01098Y01763D02*
X01348D01*
X00696Y01497D02*
Y01587D01*
Y01312D02*
Y01397D01*
X00437Y01312D02*
X00696D01*
X00437D02*
Y01397D01*
Y01497D02*
Y01587D01*
Y01587D02*
X00696D01*
X00153Y00985D02*
Y01222D01*
X00606Y00985D02*
Y01222D01*
X00547D02*
X00606D01*
X00547Y00985D02*
X00606D01*
X00286D02*
X00424D01*
X00409Y01222D02*
X00429D01*
X00153D02*
X00163D01*
X00153Y00985D02*
X00163D01*
X00922Y02256D02*
X00948D01*
X00935Y02269D02*
Y02243D01*
X02821Y0046D02*
X0284D01*
X0283Y0047D02*
Y0045D01*
X02601Y0046D02*
X0262D01*
X0261Y0047D02*
Y0045D01*
X02383Y00516D02*
X02409D01*
X02396Y0053D02*
Y00503D01*
X01884Y00456D02*
X01903D01*
X01893Y00466D02*
Y00446D01*
X02096Y00456D02*
X02115D01*
X02105Y00466D02*
Y00446D01*
X02383Y00817D02*
X02409D01*
X02396Y00831D02*
Y00804D01*
X01658Y00337D02*
X01684D01*
X01671Y0035D02*
Y00324D01*
X01955Y00211D02*
X01981D01*
X01968Y00224D02*
Y00198D01*
X01565Y00692D02*
X01584D01*
X01574Y00702D02*
Y00682D01*
X01573Y00898D02*
X01592D01*
X01582Y00908D02*
Y00888D01*
X00594Y02258D02*
X0062D01*
X00607Y02272D02*
Y02245D01*
X01158Y00331D02*
X01184D01*
X01171Y00345D02*
Y00318D01*
G54D46*
X06105Y02685D02*
X06109Y02687D01*
X0611Y02692*
Y02696*
X06109Y02702*
X06103Y02706*
X06093Y02708*
X06084*
X06076Y02706*
X06072Y02702*
X06071Y02696*
Y02694*
X06072Y02688*
X06076Y02685*
X06082Y02683*
X06084*
X0609Y02685*
X06093Y02688*
X06095Y02694*
Y02696*
X06093Y02702*
X0609Y02706*
X06084Y02708*
X0611Y02655D02*
X06084Y02674D01*
Y02645*
X0611Y02655D02*
X06071D01*
X0611Y02638D02*
X06071D01*
X0611Y02612D02*
X06071D01*
X06091Y02638D02*
Y02612D01*
X06097Y0258D02*
X06071Y02601D01*
X06097D02*
Y0258D01*
X06071Y02601D02*
Y0258D01*
X06103Y01399D02*
X06105Y01395D01*
X0611Y01389*
X06071*
X0611Y01369D02*
X06071D01*
X06097Y0135D02*
X06078Y01369D01*
X06086Y01362D02*
X06071Y01348D01*
X0611Y01342D02*
X06071D01*
X0611Y01315D02*
X06071D01*
X06091Y01342D02*
Y01315D01*
X06097Y01283D02*
X06071Y01304D01*
X06097D02*
Y01283D01*
X06071Y01304D02*
Y01283D01*
X06101Y0208D02*
X06103D01*
X06107Y02078*
X06109Y02076*
X0611Y02072*
Y02064*
X06109Y02061*
X06107Y02059*
X06103Y02057*
X06099*
X06095Y02059*
X0609Y02062*
X06071Y02082*
Y02055*
X0611Y02023D02*
Y02042D01*
X06093Y02044*
X06095Y02042*
X06097Y02036*
Y02031*
X06095Y02025*
X06091Y02021*
X06086Y02019*
X06082*
X06076Y02021*
X06072Y02025*
X06071Y02031*
Y02036*
X06072Y02042*
X06074Y02044*
X06078Y02046*
X0611Y01999D02*
X06109Y02005D01*
X06103Y02008*
X06093Y0201*
X06088*
X06078Y02008*
X06072Y02005*
X06071Y01999*
Y01995*
X06072Y01989*
X06078Y01986*
X06088Y01984*
X06093*
X06103Y01986*
X06109Y01989*
X0611Y01995*
Y01999*
Y01975D02*
X06071D01*
X0611Y01948D02*
X06071D01*
X06091Y01975D02*
Y01948D01*
X06097Y01916D02*
X06071Y01937D01*
X06097D02*
Y01916D01*
X06071Y01937D02*
Y01916D01*
X06101Y01068D02*
X06103D01*
X06107Y01066*
X06109Y01064*
X0611Y0106*
Y01052*
X06109Y01049*
X06107Y01047*
X06103Y01045*
X06099*
X06095Y01047*
X0609Y0105*
X06071Y0107*
Y01043*
X0611Y01034D02*
X06071D01*
X06097Y01015D02*
X06078Y01034D01*
X06086Y01026D02*
X06071Y01013D01*
X0611Y01007D02*
X06071D01*
X0611Y0098D02*
X06071D01*
X06091Y01007D02*
Y0098D01*
X06097Y00948D02*
X06071Y00969D01*
X06097D02*
Y00948D01*
X06071Y00969D02*
Y00948D01*
X06103Y0241D02*
X06105Y02406D01*
X0611Y024*
X06071*
X06101Y02378D02*
X06103D01*
X06107Y02376*
X06109Y02374*
X0611Y02371*
Y02363*
X06109Y02359*
X06107Y02357*
X06103Y02355*
X06099*
X06095Y02357*
X0609Y02361*
X06071Y0238*
Y02354*
X0611Y02322D02*
Y02341D01*
X06093Y02343*
X06095Y02341*
X06097Y02335*
Y02329*
X06095Y02324*
X06091Y0232*
X06086Y02318*
X06082*
X06076Y0232*
X06072Y02324*
X06071Y02329*
Y02335*
X06072Y02341*
X06074Y02343*
X06078Y02345*
X0611Y02309D02*
X06071D01*
X0611Y02282D02*
X06071D01*
X06091Y02309D02*
Y02282D01*
X06097Y0225D02*
X06071Y02271D01*
X06097D02*
Y0225D01*
X06071Y02271D02*
Y0225D01*
X0611Y01727D02*
Y01746D01*
X06093Y01748*
X06095Y01746*
X06097Y0174*
Y01734*
X06095Y01729*
X06091Y01725*
X06086Y01723*
X06082*
X06076Y01725*
X06072Y01729*
X06071Y01734*
Y0174*
X06072Y01746*
X06074Y01748*
X06078Y0175*
X0611Y01702D02*
X06109Y01708D01*
X06103Y01712*
X06093Y01714*
X06088*
X06078Y01712*
X06072Y01708*
X06071Y01702*
Y01699*
X06072Y01693*
X06078Y01689*
X06088Y01687*
X06093*
X06103Y01689*
X06109Y01693*
X0611Y01699*
Y01702*
Y01667D02*
X06109Y01673D01*
X06103Y01676*
X06093Y01678*
X06088*
X06078Y01676*
X06072Y01673*
X06071Y01667*
Y01663*
X06072Y01657*
X06078Y01654*
X06088Y01652*
X06093*
X06103Y01654*
X06109Y01657*
X0611Y01663*
Y01667*
Y01643D02*
X06071D01*
X0611Y01616D02*
X06071D01*
X06091Y01643D02*
Y01616D01*
X06097Y01584D02*
X06071Y01605D01*
X06097D02*
Y01584D01*
X06071Y01605D02*
Y01584D01*
X0611Y00406D02*
X06109Y00412D01*
X06105Y00414*
X06101*
X06097Y00412*
X06095Y00408*
X06093Y004*
X06091Y00395*
X06088Y00391*
X06084Y00389*
X06078*
X06074Y00391*
X06072Y00393*
X06071Y00398*
Y00406*
X06072Y00412*
X06074Y00414*
X06078Y00416*
X06084*
X06088Y00414*
X06091Y0041*
X06093Y00404*
X06095Y00396*
X06097Y00393*
X06101Y00391*
X06105*
X06109Y00393*
X0611Y00398*
Y00406*
Y0038D02*
X06071D01*
X06097Y00361D02*
X06078Y0038D01*
X06086Y00372D02*
X06071Y00359D01*
X0611Y00353D02*
X06071D01*
X0611Y00326D02*
X06071D01*
X06091Y00353D02*
Y00326D01*
X06097Y00294D02*
X06071Y00315D01*
X06097D02*
Y00294D01*
X06071Y00315D02*
Y00294D01*
X0611Y00723D02*
X06084Y00743D01*
Y00714*
X0611Y00723D02*
X06071D01*
X0611Y00707D02*
X06071D01*
X06097Y00688D02*
X06078Y00707D01*
X06086Y00699D02*
X06071Y00686D01*
X0611Y0068D02*
X06071D01*
X0611Y00653D02*
X06071D01*
X06091Y0068D02*
Y00653D01*
X06097Y00621D02*
X06071Y00642D01*
X06097D02*
Y00621D01*
X06071Y00642D02*
Y00621D01*
X00092Y01502D02*
X00033Y01479D01*
X00092Y01456D02*
X00033Y01479D01*
X00078Y01405D02*
X00084Y01408D01*
X0009Y01414*
X00092Y0142*
Y01431*
X0009Y01437*
X00084Y01442*
X00078Y01445*
X0007Y01448*
X00055*
X00047Y01445*
X00041Y01442*
X00035Y01437*
X00033Y01431*
Y0142*
X00035Y01414*
X00041Y01408*
X00047Y01405*
X00078Y01346D02*
X00084Y01348D01*
X0009Y01354*
X00092Y0136*
Y01371*
X0009Y01377*
X00084Y01383*
X00078Y01386*
X0007Y01388*
X00055*
X00047Y01386*
X00041Y01383*
X00035Y01377*
X00033Y01371*
Y0136*
X00035Y01354*
X00041Y01348*
X00047Y01346*
G54D47*
X03526Y00837D02*
X03565D01*
X03545Y00857D02*
Y00817D01*
X03416Y00303D02*
X03455D01*
X03436Y00323D02*
Y00283D01*
M02*