%FSTAX23Y23*%
%MOIN*%
%SFA1B1*%

%IPPOS*%
%AMD60*
4,1,8,0.012800,0.029600,-0.012800,0.029600,-0.029600,0.012800,-0.029600,-0.012800,-0.012800,-0.029600,0.012800,-0.029600,0.029600,-0.012800,0.029600,0.012800,0.012800,0.029600,0.0*
1,1,0.033590,0.012800,0.012800*
1,1,0.033590,-0.012800,0.012800*
1,1,0.033590,-0.012800,-0.012800*
1,1,0.033590,0.012800,-0.012800*
%
%AMD62*
4,1,8,0.010000,0.024000,-0.010000,0.024000,-0.024000,0.010000,-0.024000,-0.010000,-0.010000,-0.024000,0.010000,-0.024000,0.024000,-0.010000,0.024000,0.010000,0.010000,0.024000,0.0*
1,1,0.028000,0.010000,0.010000*
1,1,0.028000,-0.010000,0.010000*
1,1,0.028000,-0.010000,-0.010000*
1,1,0.028000,0.010000,-0.010000*
%
%AMD64*
4,1,8,0.013800,0.031600,-0.013800,0.031600,-0.031600,0.013800,-0.031600,-0.013800,-0.013800,-0.031600,0.013800,-0.031600,0.031600,-0.013800,0.031600,0.013800,0.013800,0.031600,0.0*
1,1,0.035558,0.013800,0.013800*
1,1,0.035558,-0.013800,0.013800*
1,1,0.035558,-0.013800,-0.013800*
1,1,0.035558,0.013800,-0.013800*
%
%AMD71*
4,1,8,0.042400,-0.019200,0.042400,0.019200,0.019200,0.042400,-0.019200,0.042400,-0.042400,0.019200,-0.042400,-0.019200,-0.019200,-0.042400,0.019200,-0.042400,0.042400,-0.019200,0.0*
1,1,0.046386,0.019200,-0.019200*
1,1,0.046386,0.019200,0.019200*
1,1,0.046386,-0.019200,0.019200*
1,1,0.046386,-0.019200,-0.019200*
%
%ADD48R,0.045402X0.065087*%
%ADD49R,0.040677X0.062724*%
%ADD50R,0.062724X0.040677*%
%ADD51R,0.065087X0.045402*%
%ADD52C,0.060000*%
%ADD53C,0.208000*%
%ADD54C,0.056740*%
%ADD55R,0.056740X0.056740*%
%ADD56R,0.056740X0.056740*%
%ADD57R,0.068236X0.068236*%
%ADD58C,0.068236*%
%ADD59C,0.059181*%
G04~CAMADD=60~8~0.0~0.0~591.8~591.8~167.9~0.0~15~0.0~0.0~0.0~0.0~0~0.0~0.0~0.0~0.0~0~0.0~0.0~0.0~0.0~591.8~591.8*
%ADD60D60*%
%ADD61C,0.048000*%
G04~CAMADD=62~8~0.0~0.0~480.0~480.0~140.0~0.0~15~0.0~0.0~0.0~0.0~0~0.0~0.0~0.0~0.0~0~0.0~0.0~0.0~0.0~480.0~480.0*
%ADD62D62*%
%ADD63C,0.063118*%
G04~CAMADD=64~8~0.0~0.0~631.2~631.2~177.8~0.0~15~0.0~0.0~0.0~0.0~0~0.0~0.0~0.0~0.0~0~0.0~0.0~0.0~0.0~631.2~631.2*
%ADD64D64*%
%ADD65R,0.052488X0.052488*%
%ADD66C,0.052488*%
%ADD67C,0.054457*%
%ADD68R,0.054457X0.054457*%
%ADD69R,0.078000X0.078000*%
%ADD70C,0.078000*%
G04~CAMADD=71~8~0.0~0.0~847.7~847.7~231.9~0.0~15~0.0~0.0~0.0~0.0~0~0.0~0.0~0.0~0.0~0~0.0~0.0~0.0~270.0~848.0~848.0*
%ADD71D71*%
%ADD72C,0.084772*%
%ADD73R,0.056110X0.056110*%
%ADD74C,0.056110*%
%ADD75O,0.058000X0.108000*%
%ADD76O,0.120000X0.064000*%
%ADD77C,0.070992*%
%ADD78C,0.058000*%
%LNmb_spectrumanalyzer_soldermask_top-1*%
%LPD*%
G54D48*
X03225Y01294D03*
X03304D03*
X01485Y01042D03*
X01406D03*
X02079Y00261D03*
X02D03*
X023D03*
X02379D03*
X01221D03*
X013D03*
X023Y00113D03*
X02379D03*
X02229Y00111D03*
X0215D03*
X02D03*
X02079D03*
X02045Y00926D03*
X01966D03*
X02104Y01169D03*
X02025D03*
X02104Y01042D03*
X02025D03*
X02104Y01294D03*
X02025D03*
X02253D03*
X02174D03*
Y01169D03*
X02253D03*
X0144Y00119D03*
X01519D03*
X01488Y00545D03*
X01409D03*
X01599D03*
X01678D03*
X01599Y00673D03*
X01678D03*
Y00801D03*
X01599D03*
X01553Y01169D03*
X01632D03*
X01406Y01294D03*
X01485D03*
X0076Y01272D03*
X00839D03*
X01566Y01735D03*
X01487D03*
X02012Y02129D03*
X02091D03*
X01411D03*
X0149D03*
X01411Y02248D03*
X0149D03*
X00953D03*
X01032D03*
X00953Y02129D03*
X01032D03*
X02612D03*
X02691D03*
X03223Y02248D03*
X03302D03*
X02691D03*
X02612D03*
X02242Y02129D03*
X02163D03*
Y02248D03*
X02242D03*
X02163Y02364D03*
X02242D03*
X02612D03*
X02691D03*
X0285Y02129D03*
X02771D03*
X0285Y02248D03*
X02771D03*
X00686Y01651D03*
X00607D03*
X00839Y01774D03*
X0076D03*
X00839Y01896D03*
X0076D03*
X00847Y01664D03*
X00926D03*
X00961Y01169D03*
X0104D03*
X0345Y0117D03*
X03371D03*
X03304D03*
X03225D03*
X02229Y00261D03*
X0215D03*
X01285Y00119D03*
X01364D03*
X01406Y01169D03*
X01485D03*
X0076Y02019D03*
X00839D03*
X00687Y01897D03*
X00608D03*
X01131Y00119D03*
X0121D03*
X00976D03*
X01055D03*
X00927Y01531D03*
X00848D03*
Y01397D03*
X00927D03*
X00179Y02155D03*
X00258D03*
Y0202D03*
X00179D03*
X00258Y02303D03*
X00179D03*
X02856Y01294D03*
X02777D03*
X02706Y01042D03*
X02627D03*
X02777Y0117D03*
X02856D03*
X02627Y01168D03*
X02706D03*
X02627Y01294D03*
X02706D03*
X01632D03*
X01553D03*
X02045Y00801D03*
X01966D03*
Y00673D03*
X02045D03*
G54D49*
X02313Y01013D03*
X0238D03*
X02073Y01416D03*
X0214D03*
X02239Y01044D03*
X02172D03*
X01613Y00928D03*
X0168D03*
X01618Y01044D03*
X01551D03*
X01631Y02128D03*
X01564D03*
X0201Y02362D03*
X02077D03*
Y02246D03*
X0201D03*
X01631D03*
X01564D03*
X02836Y02362D03*
X02769D03*
X03221Y02124D03*
X03288D03*
X0033Y0159D03*
X00397D03*
X00975Y01296D03*
X01042D03*
X0279Y01044D03*
X02858D03*
X00622Y02016D03*
X00689D03*
X00624Y01771D03*
X00691D03*
X01042Y01044D03*
X00975D03*
G54D50*
X00769Y01444D03*
Y01377D03*
X0047Y00899D03*
Y00832D03*
G54D51*
X0077Y01545D03*
Y01624D03*
X00727Y00818D03*
Y00897D03*
X00599Y00818D03*
Y00897D03*
X00855D03*
Y00818D03*
G54D52*
X05852Y01952D03*
Y02037D03*
X05999Y01952D03*
Y02037D03*
X05558Y0228D03*
Y02365D03*
X05411Y0228D03*
Y02365D03*
X05705Y0228D03*
Y02365D03*
X05264Y01952D03*
Y02037D03*
X05999Y0228D03*
Y02365D03*
X05852Y0228D03*
Y02365D03*
X05558Y01952D03*
Y02037D03*
X05411Y01952D03*
Y02037D03*
X05705Y01952D03*
Y02037D03*
X05264Y0228D03*
Y02365D03*
X05558Y01296D03*
Y01381D03*
X05705Y01296D03*
Y01381D03*
X05852Y01296D03*
Y01381D03*
X05999Y01296D03*
Y01381D03*
X05411Y01296D03*
Y01381D03*
X05852Y01624D03*
Y01709D03*
X05999Y01624D03*
Y01709D03*
X05264Y01624D03*
Y01709D03*
X05411Y01624D03*
Y01709D03*
X05705Y01624D03*
Y01709D03*
X05558Y01624D03*
Y01709D03*
X05411Y00313D03*
Y00398D03*
X04679Y02693D03*
Y02608D03*
X05413Y02693D03*
Y02608D03*
X05264Y01296D03*
Y01381D03*
X05266Y02693D03*
Y02608D03*
X04972Y02693D03*
Y02608D03*
X05119Y02693D03*
Y02608D03*
X05264Y00641D03*
Y00726D03*
X04823Y0228D03*
Y02365D03*
X0497Y0228D03*
Y02365D03*
X05117Y0228D03*
Y02365D03*
X04825Y02693D03*
Y02608D03*
X05854Y02693D03*
Y02608D03*
X05707Y02693D03*
Y02608D03*
X0556Y02693D03*
Y02608D03*
X06001Y02693D03*
Y02608D03*
X05264Y00313D03*
Y00398D03*
X05852Y00313D03*
Y00398D03*
X05705Y00313D03*
Y00398D03*
X05558Y00313D03*
Y00398D03*
X05264Y00969D03*
Y01054D03*
X05558Y00969D03*
Y01054D03*
X05705Y00969D03*
Y01054D03*
X05411Y00969D03*
Y01054D03*
X05999Y00398D03*
Y00313D03*
X05852Y00641D03*
Y00726D03*
X05999Y00641D03*
Y00726D03*
X05411Y00641D03*
Y00726D03*
X05705Y00641D03*
Y00726D03*
X05558Y00641D03*
Y00726D03*
X05852Y00969D03*
Y01054D03*
X04677Y0228D03*
Y02365D03*
X05999Y00969D03*
Y01054D03*
X04677Y00313D03*
Y00398D03*
X04823Y00641D03*
Y00726D03*
X04677Y00641D03*
Y00726D03*
X04823Y00313D03*
Y00398D03*
X04677Y00969D03*
Y01054D03*
X05117Y00969D03*
Y01054D03*
X04677Y01296D03*
Y01381D03*
X0497Y01296D03*
Y01381D03*
X05117Y01296D03*
Y01381D03*
X0497Y00969D03*
Y01054D03*
X04823Y01296D03*
Y01381D03*
Y00969D03*
Y01054D03*
X04677Y01624D03*
Y01709D03*
X04823Y01952D03*
Y02037D03*
Y01624D03*
Y01709D03*
X04677Y01952D03*
Y02037D03*
X0497Y00313D03*
Y00398D03*
Y00641D03*
Y00726D03*
X05117Y00641D03*
Y00726D03*
Y00313D03*
Y00398D03*
Y01624D03*
Y01709D03*
X0497Y01952D03*
Y02037D03*
Y01624D03*
Y01709D03*
X05117Y01952D03*
Y02037D03*
G54D53*
X0015Y0015D03*
Y0285D03*
X06Y0015D03*
Y0285D03*
G54D54*
X01107Y00938D03*
X02461Y00097D03*
Y00209D03*
Y0032D03*
X01878Y00602D03*
X01766Y00938D03*
X01329Y00601D03*
X01218Y00938D03*
X00996Y00601D03*
X00522Y0206D03*
X00406Y01723D03*
X02458Y00938D03*
X02569Y00601D03*
X02902D03*
X0268Y00938D03*
X02791Y00601D03*
G54D55*
X01107Y00611D03*
X01878Y00929D03*
X01766Y00611D03*
X01329Y00928D03*
X01218Y00611D03*
X00996Y00928D03*
X00522Y01733D03*
X00406Y0205D03*
X02458Y00611D03*
X02569Y00928D03*
X02902Y00928D03*
X0268Y00611D03*
X02791Y00928D03*
G54D56*
X02788Y00097D03*
Y00209D03*
X02788Y0032D03*
G54D57*
X03081Y02269D03*
X03236Y01955D03*
X02935D03*
X01876Y0226D03*
X01722Y01949D03*
X02332Y01956D03*
X02027Y01949D03*
X01416Y0195D03*
X0111D03*
X01271Y02264D03*
X02477Y02265D03*
X02636Y01956D03*
X03091Y01216D03*
X02485Y0122D03*
X01878Y01218D03*
X01268Y01216D03*
X00821Y00195D03*
X00829Y011D03*
G54D58*
X02981Y02269D03*
X03136Y01955D03*
X02835D03*
X01776Y0226D03*
X01622Y01949D03*
X02232Y01956D03*
X01927Y01949D03*
X01316Y0195D03*
X0101D03*
X01171Y02264D03*
X02377Y02265D03*
X02536Y01956D03*
X02991Y01216D03*
X02385Y0122D03*
X01778Y01218D03*
X01168Y01216D03*
X00721Y00195D03*
X00729Y011D03*
G54D59*
X00724Y02259D03*
X02188Y00517D03*
X02188Y00818D03*
X01466Y003D03*
X01757Y00214D03*
X00399Y02259D03*
X00998Y00332D03*
G54D60*
X00823Y02259D03*
X02287Y00517D03*
Y00818D03*
X01565Y003D03*
X01856Y00214D03*
X00498Y02259D03*
X01077Y00332D03*
G54D61*
X02691Y0046D03*
X02472D03*
X01754Y00456D03*
X01967D03*
X0144Y00691D03*
Y00901D03*
X01205Y00454D03*
G54D62*
X02757Y0046D03*
X02538D03*
X0182Y00456D03*
X02033D03*
X01506Y00691D03*
Y00901D03*
X01325Y00454D03*
G54D63*
X03145Y00845D03*
X03031Y003D03*
G54D64*
X03342Y00845D03*
X03228Y003D03*
G54D65*
X02878Y01725D03*
X02274D03*
X0167D03*
X01066D03*
G54D66*
X02878Y01625D03*
Y01525D03*
Y01425D03*
X03191D03*
Y01525D03*
Y01625D03*
Y01725D03*
X02587D03*
Y01625D03*
Y01525D03*
Y01425D03*
X02274D03*
Y01525D03*
Y01625D03*
X01983Y01725D03*
Y01625D03*
Y01525D03*
Y01425D03*
X0167D03*
Y01525D03*
Y01625D03*
X01379Y01725D03*
Y01625D03*
Y01525D03*
Y01425D03*
X01066D03*
Y01525D03*
Y01625D03*
G54D67*
X03612Y02273D03*
X03712D03*
X03812D03*
X03912D03*
X04012D03*
X04112D03*
X04212D03*
X04312D03*
X04412D03*
Y01898D03*
X04312D03*
X04212D03*
X04112D03*
X04012D03*
X03912D03*
X03812D03*
X03712D03*
X03612Y0168D03*
X03712D03*
X03812D03*
X03912D03*
X04012D03*
X04112D03*
X04212D03*
X04312D03*
X04412D03*
Y01305D03*
X04312D03*
X04212D03*
X04112D03*
X04012D03*
X03912D03*
X03812D03*
X03712D03*
X03612Y02867D03*
X03712D03*
X03812D03*
X03912D03*
X04012D03*
X04112D03*
X04212D03*
X04312D03*
X04412D03*
Y02492D03*
X04312D03*
X04212D03*
X04112D03*
X04012D03*
X03912D03*
X03812D03*
X03712D03*
X02529Y02867D03*
X02629D03*
X02729D03*
X02829D03*
X02929D03*
X03029D03*
X03129D03*
X03229D03*
X03329D03*
Y02492D03*
X03229D03*
X03129D03*
X03029D03*
X02929D03*
X02829D03*
X02729D03*
X02629D03*
X00365Y02867D03*
X00465D03*
X00565D03*
X00665D03*
X00765D03*
X00865D03*
X00965D03*
X01065D03*
X01165D03*
Y02492D03*
X01065D03*
X00965D03*
X00865D03*
X00765D03*
X00665D03*
X00565D03*
X00465D03*
X03712Y00712D03*
X03812D03*
X03912D03*
X04012D03*
X04112D03*
X04212D03*
X04312D03*
X04412D03*
Y01087D03*
X04312D03*
X04212D03*
X04112D03*
X04012D03*
X03912D03*
X03812D03*
X03712D03*
X03612D03*
X01447Y02867D03*
X01547D03*
X01647D03*
X01747D03*
X01847D03*
X01947D03*
X02047D03*
X02147D03*
X02247D03*
Y02492D03*
X02147D03*
X02047D03*
X01947D03*
X01847D03*
X01747D03*
X01647D03*
X01547D03*
X03612Y00493D03*
X03712D03*
X03812D03*
X03912D03*
X04012D03*
X04112D03*
X04212D03*
X04312D03*
X04412D03*
Y00118D03*
X04312D03*
X04212D03*
X04112D03*
X04012D03*
X03912D03*
X03812D03*
X03712D03*
G54D68*
X03612Y01898D03*
Y01305D03*
Y02492D03*
X02529D03*
X00365D03*
X03612Y00712D03*
X01447Y02492D03*
X03612Y00118D03*
G54D69*
X00219Y01657D03*
G54D70*
X00219Y01857D03*
Y01757D03*
G54D71*
X00287Y01468D03*
X00287Y00577D03*
Y00845D03*
G54D72*
X00287Y01368D03*
X00287Y00477D03*
Y00745D03*
G54D73*
X00357Y00178D03*
X00667Y01449D03*
G54D74*
X00457Y00278D03*
X00557Y00178D03*
X00467Y01449D03*
X00567Y01349D03*
G54D75*
X00526Y00424D03*
X00626D03*
X00526Y00724D03*
X00626D03*
X00826Y00424D03*
X00726D03*
Y00724D03*
X00826D03*
G54D76*
X00224Y01228D03*
Y00979D03*
X00488Y01228D03*
Y00979D03*
X0035Y01228D03*
G54D77*
X00252Y01104D03*
X00488D03*
G54D78*
X04481Y02607D03*
X04625Y02194D03*
X04353Y02594D03*
X01691Y02277D03*
X04002Y0197D03*
X01582Y00112D03*
X03273Y01097D03*
X01538Y00189D03*
X05331Y01079D03*
X03482Y01776D03*
X0348Y02023D03*
X03583Y01994D03*
X03404Y0202D03*
X02304Y0123D03*
X01331Y0158D03*
X02566Y01196D03*
X01961Y02194D03*
X01371Y0069D03*
X0165Y02344D03*
X02714Y00544D03*
X0408Y00034D03*
X03509Y00098D03*
X02562Y00113D03*
X0152Y01387D03*
X01755Y01525D03*
X02188Y0063D03*
X02981Y01684D03*
X0393Y02648D03*
X03675D03*
X02716Y01445D03*
X00676Y01567D03*
X02578Y0133D03*
X03575Y00315D03*
X05225Y01177D03*
X04521Y01065D03*
X04525Y00407D03*
X0508Y0294D03*
X05413Y0287D03*
X05293Y02909D03*
X01329Y02703D03*
X05755Y02898D03*
X01526Y02391D03*
X01456Y02392D03*
X01696Y0254D03*
X01923Y02344D03*
X03616Y01411D03*
X05168Y01538D03*
X04062Y01172D03*
X04758Y01114D03*
X03162Y02165D03*
X03545Y02124D03*
X03415Y02117D03*
X0343Y0222D03*
X03569Y01793D03*
X0381Y01751D03*
X01038Y00273D03*
X01767Y00761D03*
X01618Y00213D03*
X01949Y02647D03*
X02569Y00831D03*
X01957Y00732D03*
X0449Y00951D03*
X01858Y02117D03*
X02994Y02592D03*
X03209Y01871D03*
X03493Y02476D03*
X01873Y02567D03*
X03805Y00894D03*
X05436Y00848D03*
X05627Y00527D03*
X0056Y01995D03*
X03755Y01181D03*
X03179Y02585D03*
X04091Y02587D03*
X04362Y01936D03*
X05144Y01866D03*
X046Y0138D03*
X04585Y02272D03*
X03256Y02189D03*
X05813Y01521D03*
X04564Y02719D03*
X02195Y02735D03*
X01188Y02752D03*
X02792Y01684D03*
X02551Y01112D03*
X01213Y01855D03*
X03637Y01824D03*
X05044Y00359D03*
X03031Y02112D03*
X02613Y02072D03*
X02527Y02057D03*
X02131D03*
X05358Y01582D03*
X03834Y01597D03*
X03767Y01426D03*
X02885Y02038D03*
X02543Y01044D03*
X02047Y02567D03*
X04789Y02527D03*
X05511Y02772D03*
X03737Y01955D03*
M02*