%FSTAX23Y23*%
%MOIN*%
%SFA1B1*%

%IPPOS*%
%AMD23*
4,1,8,0.012800,0.025600,-0.012800,0.025600,-0.025600,0.012800,-0.025600,-0.012800,-0.012800,-0.025600,0.012800,-0.025600,0.025600,-0.012800,0.025600,0.012800,0.012800,0.025600,0.0*
1,1,0.025590,0.012800,0.012800*
1,1,0.025590,-0.012800,0.012800*
1,1,0.025590,-0.012800,-0.012800*
1,1,0.025590,0.012800,-0.012800*
%
%AMD25*
4,1,8,0.010000,0.020000,-0.010000,0.020000,-0.020000,0.010000,-0.020000,-0.010000,-0.010000,-0.020000,0.010000,-0.020000,0.020000,-0.010000,0.020000,0.010000,0.010000,0.020000,0.0*
1,1,0.020000,0.010000,0.010000*
1,1,0.020000,-0.010000,0.010000*
1,1,0.020000,-0.010000,-0.010000*
1,1,0.020000,0.010000,-0.010000*
%
%AMD27*
4,1,8,0.013800,0.027600,-0.013800,0.027600,-0.027600,0.013800,-0.027600,-0.013800,-0.013800,-0.027600,0.013800,-0.027600,0.027600,-0.013800,0.027600,0.013800,0.013800,0.027600,0.0*
1,1,0.027560,0.013800,0.013800*
1,1,0.027560,-0.013800,0.013800*
1,1,0.027560,-0.013800,-0.013800*
1,1,0.027560,0.013800,-0.013800*
%
%AMD34*
4,1,8,0.038400,-0.019200,0.038400,0.019200,0.019200,0.038400,-0.019200,0.038400,-0.038400,0.019200,-0.038400,-0.019200,-0.019200,-0.038400,0.019200,-0.038400,0.038400,-0.019200,0.0*
1,1,0.038386,0.019200,-0.019200*
1,1,0.038386,0.019200,0.019200*
1,1,0.038386,-0.019200,0.019200*
1,1,0.038386,-0.019200,-0.019200*
%
%ADD14C,0.010000*%
%ADD15C,0.052000*%
%ADD16C,0.200000*%
%ADD17C,0.048740*%
%ADD18R,0.048740X0.048740*%
%ADD19R,0.048740X0.048740*%
%ADD20R,0.060236X0.060236*%
%ADD21C,0.060236*%
%ADD22C,0.051181*%
G04~CAMADD=23~8~0.0~0.0~511.8~511.8~128.0~0.0~15~0.0~0.0~0.0~0.0~0~0.0~0.0~0.0~0.0~0~0.0~0.0~0.0~0.0~511.8~511.8*
%ADD23D23*%
%ADD24C,0.040000*%
G04~CAMADD=25~8~0.0~0.0~400.0~400.0~100.0~0.0~15~0.0~0.0~0.0~0.0~0~0.0~0.0~0.0~0.0~0~0.0~0.0~0.0~0.0~400.0~400.0*
%ADD25D25*%
%ADD26C,0.055118*%
G04~CAMADD=27~8~0.0~0.0~551.2~551.2~137.8~0.0~15~0.0~0.0~0.0~0.0~0~0.0~0.0~0.0~0.0~0~0.0~0.0~0.0~0.0~551.2~551.2*
%ADD27D27*%
%ADD28R,0.044488X0.044488*%
%ADD29C,0.044488*%
%ADD30C,0.046457*%
%ADD31R,0.046457X0.046457*%
%ADD32R,0.070000X0.070000*%
%ADD33C,0.070000*%
G04~CAMADD=34~8~0.0~0.0~767.7~767.7~191.9~0.0~15~0.0~0.0~0.0~0.0~0~0.0~0.0~0.0~0.0~0~0.0~0.0~0.0~270.0~768.0~768.0*
%ADD34D34*%
%ADD35C,0.076772*%
%ADD36R,0.048110X0.048110*%
%ADD37C,0.048110*%
%ADD38O,0.050000X0.100000*%
%ADD39O,0.112000X0.056000*%
%ADD40C,0.062992*%
%ADD41C,0.050000*%
%LNmb_spectrumanalyzer_copper_signal_bot-1*%
%LPD*%
G54D14*
X04474Y026D02*
X04481Y02607D01*
X04353Y02594D02*
X04359Y026D01*
X04474*
X04029Y02602D02*
X04074Y02647D01*
X05955*
X06001Y02693*
X04769Y02547D02*
X04789Y02527D01*
X02068Y02547D02*
X04769D01*
X02047Y02567D02*
X02068Y02547D01*
X03456Y02194D02*
X04625D01*
X04312Y02853D02*
X04313Y02852D01*
X04312Y02853D02*
Y02867D01*
X04522Y02907D02*
X04558Y0287D01*
X02694Y02907D02*
X04522D01*
X02679Y02921D02*
X02694Y02907D01*
X02715Y02957D02*
X0273Y02943D01*
X04548Y0294D02*
X0508D01*
X02716Y02925D02*
X04538D01*
X02701Y02939D02*
X02716Y02925D01*
X04538D02*
X04565Y02898D01*
X04545Y02943D02*
X04548Y0294D01*
X0273Y02943D02*
X04545D01*
X01691Y02277D02*
X01738Y02229D01*
Y02202D02*
Y02229D01*
X03962Y01932D02*
X04Y0197D01*
X04396Y02026D02*
X0451Y01912D01*
X04Y0197D02*
X04002D01*
X04202Y02008D02*
X04312Y01898D01*
X03791Y02049D02*
X03814Y02026D01*
X03764Y02031D02*
X03787Y02008D01*
X03814Y02026D02*
X04396D01*
X03787Y02008D02*
X04202D01*
X03962Y0188D02*
Y01932D01*
X01574Y00104D02*
X01582Y00112D01*
X01574Y00073D02*
Y00104D01*
X01574Y00073D02*
X01574Y00073D01*
X01574Y0006D02*
Y00073D01*
X03209Y01097D02*
X03273D01*
X03144Y01108D02*
X03198D01*
X03209Y01097*
X03296Y01044D02*
X03575Y01323D01*
X03593Y01341D02*
X03593Y01341D01*
X03583Y01341D02*
X03593D01*
X03575Y01323D02*
Y01334D01*
X0316Y01044D02*
X03296D01*
X03575Y01334D02*
X03583Y01341D01*
X03593Y01341D02*
X03648D01*
X01538Y00189D02*
X01578D01*
X01723Y00044*
X01324Y00037D02*
X01521Y00234D01*
X01613Y00213D02*
X01618D01*
X01521Y00234D02*
X01592D01*
X01613Y00213*
X05331Y01079D02*
Y01146D01*
X05257Y01221D02*
X05331Y01146D01*
X03482Y01776D02*
Y01852D01*
X03492Y01862*
X03736*
X03611Y02049D02*
X03646Y02085D01*
X03584Y02049D02*
X03611D01*
X03583Y01994D02*
X03591D01*
X03558Y02023D02*
X03584Y02049D01*
X0348Y02023D02*
X03558D01*
X03591Y01994D02*
X03664Y02067D01*
X03425Y02052D02*
Y02061D01*
X03404Y0202D02*
Y0203D01*
X03425Y02061D02*
X0344Y02076D01*
X03404Y0203D02*
X03425Y02052D01*
X0238Y01225D02*
X02385Y0122D01*
X02309Y01225D02*
X0238D01*
X02304Y0123D02*
X02309Y01225D01*
X01058Y01475D02*
X01226D01*
X01331Y0158*
X02551Y01112D02*
Y0117D01*
X02566Y01185*
Y01196*
X01961Y02194D02*
X02097Y0233D01*
X03142*
X01371Y0069D02*
X01403Y00658D01*
X01461*
X01738Y02202D02*
X01741Y02199D01*
X01785Y02155*
X01792Y02344D02*
X01876Y0226D01*
X0165Y02344D02*
X01792D01*
X01459Y02335D02*
X01581D01*
X0163Y02384D02*
X01689D01*
X01581Y02335D02*
X0163Y02384D01*
X0157Y02353D02*
X01619Y02402D01*
X01526Y02391D02*
X01555Y0242D01*
X01501Y02438D02*
X0318D01*
X03165Y02402D02*
X03183Y02384D01*
X03198Y0242D02*
X0458D01*
X01555D02*
X03172D01*
X0318Y02438D02*
X03198Y0242D01*
X04608Y02384D02*
X04646Y02422D01*
X03183Y02384D02*
X04608D01*
X0319Y02402D02*
X046D01*
X01447Y02492D02*
X01501Y02438D01*
X046Y02402D02*
X04638Y0244D01*
X01619Y02402D02*
X03165D01*
X0458Y0242D02*
X04618Y02458D01*
X01689Y02384D02*
X01706Y02366D01*
X03172Y0242D02*
X0319Y02402D01*
X01706Y02366D02*
X01869D01*
X02668Y00498D02*
X02714Y00544D01*
X0239Y00498D02*
X02668D01*
X01785Y02155D02*
X01901D01*
X01574Y0006D02*
X01592Y00042D01*
X01597Y00025D02*
X03632D01*
X01592Y0003D02*
X01597Y00025D01*
X01592Y0003D02*
Y00042D01*
X03632Y00025D02*
X03641Y00034D01*
X03626Y00044D02*
X03662Y0008D01*
X01723Y00044D02*
X03626D01*
X05915Y00072D02*
X05993Y0015D01*
X03641Y00034D02*
X0408D01*
X05993Y0015D02*
X06D01*
X03912Y00118D02*
X03958Y00072D01*
X05915*
X03456Y0014D02*
X03498Y00098D01*
X03662Y0008D02*
Y0012D01*
X03775Y00096D02*
Y00125D01*
X0379Y00082D02*
X0383D01*
X03712Y00118D02*
X03766Y00064D01*
X02562Y00113D02*
X02686D01*
X03766Y00064D02*
X03857D01*
X03848Y001D02*
Y00127D01*
X03498Y00098D02*
X03509D01*
X03775Y00096D02*
X0379Y00082D01*
X0383D02*
X03848Y001D01*
X03857Y00064D02*
X03912Y00118D01*
X02713Y0014D02*
X03456D01*
X02686Y00113D02*
X02713Y0014D01*
X01042Y01389D02*
X01947D01*
X01783Y02528D02*
X01841Y02587D01*
X0046Y00917D02*
Y00979D01*
X02188Y0063D02*
X0254D01*
X02587Y01725D02*
X02623Y01761D01*
X03155*
X03191Y01725*
X01983D02*
X02019Y01761D01*
X02551*
X02587Y01725*
X01379D02*
X01415Y01761D01*
X01947*
X01983Y01725*
X03192Y01999D02*
X03236Y01955D01*
X02978Y01999D02*
X03192D01*
X02935Y01955D02*
X02978Y01999D01*
X02592Y02D02*
X02636Y01956D01*
X02375Y02D02*
X02592D01*
X02332Y01956D02*
X02375Y02D01*
X02935Y01955D02*
Y02063D01*
X02923Y02076D02*
X02935Y02063D01*
X02755Y02076D02*
X02923D01*
X02636Y01956D02*
X02755Y02076D01*
X02027Y01949D02*
X02081Y02004D01*
X02284*
X02332Y01956*
X01983Y01993D02*
X02027Y01949D01*
X01765Y01993D02*
X01983D01*
X01722Y01949D02*
X01765Y01993D01*
X01416Y0195D02*
X01462Y01997D01*
X01674*
X01722Y01949*
X01372Y01994D02*
X01416Y0195D01*
X01153Y01994D02*
X01372D01*
X0111Y0195D02*
X01153Y01994D01*
X02629Y02492D02*
X02666Y02456D01*
X02793*
X02829Y02492*
X00399Y02182D02*
Y02259D01*
Y02182D02*
X00522Y0206D01*
X00287Y01468D02*
X00448D01*
X00467Y01449*
X03875Y02456D02*
X03912Y02492D01*
X03748Y02456D02*
X03875D01*
X03712Y02492D02*
X03748Y02456D01*
X03712Y01305D02*
X03748Y01269D01*
X03875*
X03912Y01305*
X0167Y01425D02*
X0172Y01475D01*
X02224*
X02274Y01425*
X02458Y00938D02*
X0251Y00886D01*
X02627*
X0268Y00938*
X00498Y02259D02*
X00524Y02284D01*
Y02517*
X00535Y02528*
X0059*
X00601Y02517*
Y02493D02*
Y02517D01*
Y02493D02*
X00637Y02456D01*
X00728*
X00765Y02492*
X01755Y01525D02*
X01983D01*
X01461Y00658D02*
X01473Y0067D01*
X01484Y00691*
X01506*
X01526Y00339D02*
X01565Y003D01*
X01398Y00339D02*
X01526D01*
X01269Y0021D02*
X01398Y00339D01*
X01031Y0021D02*
X01269D01*
X0096Y00281D02*
X01031Y0021D01*
X0096Y00281D02*
Y00506D01*
X01033Y00579*
Y00712*
X01119Y00798*
X01746*
X01878Y00929*
X0254Y0063D02*
X02569Y00601D01*
Y00928D02*
X02649Y01009D01*
X03011*
X03362Y01359*
X03666*
Y01278D02*
Y01359D01*
Y01278D02*
X03697Y01248D01*
X03907*
X03964Y01305*
X04012*
X02188Y00517D02*
X02236Y00565D01*
X02345*
X02373Y00537*
X02605*
X0268Y00611*
X0304Y01625D02*
X03191D01*
X02981Y01684D02*
X0304Y01625D01*
X02572Y00204D02*
X02788D01*
X02461Y00093D02*
X02572Y00204D01*
X02884Y003D02*
X03031D01*
X02788Y00204D02*
X02884Y003D01*
X03675Y02648D02*
X0393D01*
X01814Y01282D02*
X01878Y01218D01*
X01109Y01282D02*
X01814D01*
X01013Y01377D02*
X01109Y01282D01*
X01013Y01377D02*
Y01522D01*
X01051Y0156*
X01252*
X01367Y01675*
X0162*
X0167Y01725*
X01031Y01448D02*
X01058Y01475D01*
X01031Y014D02*
Y01448D01*
Y014D02*
X01042Y01389D01*
X01947D02*
X01983Y01425D01*
X03111Y01345D02*
X03191Y01425D01*
X02816Y01345D02*
X03111D01*
X02716Y01445D02*
X02816Y01345D01*
X00773Y00243D02*
X00821Y00195D01*
X00622Y00243D02*
X00773D01*
X00557Y00178D02*
X00622Y00243D01*
X01316Y01919D02*
Y0195D01*
X013Y01903D02*
X01316Y01919D01*
X01012Y01903D02*
X013D01*
X00676Y01567D02*
X01012Y01903D01*
X02578Y0133D02*
X02617Y01291D01*
X03*
X03047Y01244*
Y01172D02*
Y01244D01*
Y01172D02*
X03138D01*
X03299Y01332*
Y0167*
X03133Y01836D02*
X03299Y0167D01*
X0291Y01836D02*
X03133D01*
X02835Y0191D02*
X0291Y01836D01*
X02835Y0191D02*
Y01955D01*
X05999Y00398D02*
X06038Y00359D01*
Y0029D02*
Y00359D01*
X06022Y00274D02*
X06038Y0029D01*
X04382Y00274D02*
X06022D01*
X04341Y00315D02*
X04382Y00274D01*
X03575Y00315D02*
X04341D01*
X03712Y01087D02*
X03768Y01143D01*
X0393*
X04015Y01228*
X04558*
X04565Y01221*
X05257*
X03812Y01087D02*
X03848Y0105D01*
X03928*
X03975Y01097*
Y01141*
X04043Y0121*
X04505*
X04538Y01177*
X05225*
X03875Y01124D02*
X03912Y01087D01*
X03789Y01124D02*
X03875D01*
X03775Y0111D02*
X03789Y01124D01*
X03775Y01056D02*
Y0111D01*
Y01056D02*
X03799Y01032D01*
X04488*
X04521Y01065*
X05078Y00437D02*
X05117Y00398D01*
X04555Y00437D02*
X05078D01*
X04525Y00407D02*
X04555Y00437D01*
X00465Y02867D02*
X00555Y02957D01*
X02715*
X04558Y0287D02*
X05413D01*
X00719Y02921D02*
X02679D01*
X00665Y02867D02*
X00719Y02921D01*
X05282Y02898D02*
X05293Y02909D01*
X04565Y02898D02*
X05282D01*
X00683Y02939D02*
X02701D01*
X00628Y02884D02*
X00683Y02939D01*
X00628Y02842D02*
Y02884D01*
Y02842D02*
X0064Y02831D01*
X00728*
X00765Y02867*
X01329Y02703D02*
X02005D01*
X02015Y02693*
X04488*
X04501Y0268*
X04581*
X04594Y02693*
X04679*
X05999Y00726D02*
X06056Y00669D01*
Y00614D02*
Y00669D01*
X05929Y00488D02*
X06056Y00614D01*
X05227Y00488D02*
X05929D01*
X05185Y0053D02*
X05227Y00488D01*
X04075Y0053D02*
X05185D01*
X04057Y00547D02*
X04075Y0053D01*
X03986Y00547D02*
X04057D01*
X03952Y00513D02*
X03986Y00547D01*
X03952Y00439D02*
Y00513D01*
X03866Y00353D02*
X03952Y00439D01*
X0355Y00353D02*
X03866D01*
X03537Y0034D02*
X0355Y00353D01*
X03537Y00193D02*
Y0034D01*
Y00193D02*
X03612Y00118D01*
X05806Y00681D02*
X05852Y00726D01*
X04463Y00681D02*
X05806D01*
X04383Y00601D02*
X04463Y00681D01*
X0372Y00601D02*
X04383D01*
X03612Y00493D02*
X0372Y00601D01*
X03712Y00493D02*
X03784Y00565D01*
X03939*
X03957Y00583*
X0411*
X04124Y0057*
X05986*
X06038Y00622*
Y0066*
X06014Y00684D02*
X06038Y0066D01*
X05952Y00684D02*
X06014D01*
X0587Y00765D02*
X05952Y00684D01*
X05744Y00765D02*
X0587D01*
X05705Y00726D02*
X05744Y00765D01*
X04618Y02458D02*
X05906D01*
X05999Y02365*
X01447Y02867D02*
X01483Y02903D01*
X02652*
X02693Y02863*
Y02848D02*
Y02863D01*
Y02848D02*
X0271Y02831D01*
X05688*
X05755Y02898*
X0563Y0244D02*
X05705Y02365D01*
X04638Y0244D02*
X0563D01*
X05501Y02422D02*
X05558Y02365D01*
X04646Y02422D02*
X05501D01*
X01495Y02353D02*
X0157D01*
X01456Y02392D02*
X01495Y02353D01*
X01641Y0254D02*
X01696D01*
X01611Y0251D02*
X01641Y0254D01*
X01611Y0248D02*
Y0251D01*
X01587Y02456D02*
X01611Y0248D01*
X01525Y02456D02*
X01587D01*
X01511Y0247D02*
X01525Y02456D01*
X01511Y0247D02*
Y02525D01*
X0148Y02556D02*
X01511Y02525D01*
X0144Y02556D02*
X0148D01*
X01411Y02527D02*
X0144Y02556D01*
X01411Y02383D02*
Y02527D01*
Y02383D02*
X01459Y02335D01*
X01869Y02366D02*
X01885Y02382D01*
X01945*
X01961Y02366*
X03175*
X03177Y02364*
X04619*
X0466Y02404*
X05372*
X05411Y02365*
X05264D02*
X05303Y02326D01*
X06012*
X06038Y023*
Y0226D02*
Y023D01*
X06016Y02238D02*
X06038Y0226D01*
X04614Y02238D02*
X06016D01*
X04596Y02219D02*
X04614Y02238D01*
X03985Y02219D02*
X04596D01*
X03965Y0224D02*
X03985Y02219D01*
X03965Y0224D02*
Y02293D01*
X03948Y0231D02*
X03965Y02293D01*
X03127Y0231D02*
X03948D01*
X03125Y02312D02*
X03127Y0231D01*
X03038Y02312D02*
X03125D01*
X03038Y02264D02*
Y02312D01*
X02921Y02148D02*
X03038Y02264D01*
X01908Y02148D02*
X02921D01*
X01901Y02155D02*
X01908Y02148D01*
X05072Y0232D02*
X05117Y02365D01*
X03966Y0232D02*
X05072D01*
X03958Y02328D02*
X03966Y0232D01*
X03144Y02328D02*
X03958D01*
X03142Y0233D02*
X03144Y02328D01*
X04657Y02346D02*
X04677Y02365D01*
X03162Y02346D02*
X04657D01*
X0316Y02348D02*
X03162Y02346D01*
X01927Y02348D02*
X0316D01*
X01923Y02344D02*
X01927Y02348D01*
X05502Y01257D02*
X05705Y01054D01*
X04634Y01257D02*
X05502D01*
X04532Y0136D02*
X04634Y01257D01*
X03701Y0136D02*
X04532D01*
X0365Y01411D02*
X03701Y0136D01*
X03616Y01411D02*
X0365D01*
X03871Y0164D02*
X03912Y0168D01*
X03816Y0164D02*
X03871D01*
X03796Y0162D02*
X03816Y0164D01*
X03796Y0158D02*
Y0162D01*
Y0158D02*
X03817Y01559D01*
X05147*
X05168Y01538*
X05166Y01152D02*
X05264Y01054D01*
X04082Y01152D02*
X05166D01*
X04062Y01172D02*
X04082Y01152D01*
X04758Y01114D02*
X04911D01*
X0497Y01054*
X03162Y02165D02*
X03371Y01956D01*
X036*
X03693Y02049*
X03791*
X0451Y01912D02*
X0602D01*
X06038Y0193*
Y01998*
X05999Y02037D02*
X06038Y01998D01*
X05812Y01998D02*
X05852Y02037D01*
X05537Y01998D02*
X05812D01*
X05415Y0212D02*
X05537Y01998D01*
X0392Y0212D02*
X05415D01*
X03901Y02139D02*
X0392Y0212D01*
X0356Y02139D02*
X03901D01*
X03545Y02124D02*
X0356Y02139D01*
X03415Y02117D02*
X03485D01*
X03516Y02085*
X03575*
X0361Y02121*
X03883*
X03902Y02101*
X052*
X05264Y02037*
X05071Y02083D02*
X05117Y02037D01*
X03884Y02083D02*
X05071D01*
X03865Y02103D02*
X03884Y02083D01*
X03628Y02103D02*
X03865D01*
X03593Y02067D02*
X03628Y02103D01*
X03487Y02067D02*
X03593D01*
X03478Y02076D02*
X03487Y02067D01*
X0344Y02076D02*
X03478D01*
X0343Y0222D02*
X03456Y02194D01*
X0579Y01444D02*
X05852Y01381D01*
X05074Y01444D02*
X0579D01*
X05054Y01464D02*
X05074Y01444D01*
X03537Y01464D02*
X05054D01*
X03171Y0183D02*
X03537Y01464D01*
X03171Y0183D02*
Y0189D01*
X0319Y01909*
X0327*
X0328Y01919*
Y01999*
X0326Y02019D02*
X0328Y01999D01*
X0316Y02019D02*
X0326D01*
X03104Y02075D02*
X0316Y02019D01*
X03104Y02075D02*
Y02198D01*
X03179Y02273*
X03612*
X05812Y01749D02*
X05852Y01709D01*
X03897Y01749D02*
X05812D01*
X03853Y01793D02*
X03897Y01749D01*
X03682Y01793D02*
X03853D01*
X03675Y01786D02*
X03682Y01793D01*
X03576Y01786D02*
X03675D01*
X03569Y01793D02*
X03576Y01786D01*
X05371Y0167D02*
X05411Y01709D01*
X04638Y0167D02*
X05371D01*
X04587Y01721D02*
X04638Y0167D01*
X0384Y01721D02*
X04587D01*
X0381Y01751D02*
X0384Y01721D01*
X01038Y00273D02*
Y00523D01*
X01051Y00536*
Y00647*
X01134Y0073*
X01669*
X01723Y00676*
X02058*
X02086Y00704*
X0353*
X0361Y00784*
X04039*
X04112Y00712*
X04221Y00803D02*
X04312Y00712D01*
X03269Y00803D02*
X04221D01*
X03188Y00722D02*
X03269Y00803D01*
X02009Y00722D02*
X03188D01*
X01981Y00694D02*
X02009Y00722D01*
X0194Y00694D02*
X01981D01*
X01873Y00761D02*
X0194Y00694D01*
X01767Y00761D02*
X01873D01*
X04075Y00155D02*
X04112Y00118D01*
X03876Y00155D02*
X04075D01*
X03848Y00127D02*
X03876Y00155D01*
X03741Y0016D02*
X03775Y00125D01*
X03702Y0016D02*
X03741D01*
X03662Y0012D02*
X03702Y0016D01*
X0008Y00037D02*
X01324D01*
X00037Y0008D02*
X0008Y00037D01*
X00037Y0008D02*
Y02152D01*
X00227Y02342*
X004*
X00449Y02293*
Y02232D02*
Y02293D01*
Y02232D02*
X0048Y02201D01*
X00609*
X00769Y02361*
X01189*
X01475Y02647*
X01949*
X04275Y01269D02*
X04312Y01305D01*
X03987Y01269D02*
X04275D01*
X03948Y0123D02*
X03987Y01269D01*
X03678Y0123D02*
X03948D01*
X03648Y0126D02*
X03678Y0123D01*
X03648Y0126D02*
Y01341D01*
X02947Y00831D02*
X0316Y01044D01*
X02569Y00831D02*
X02947D01*
X01957Y00732D02*
X01965Y0074D01*
X03164*
X03375Y00951*
X0449*
X0158Y02117D02*
X01858D01*
X01393Y02304D02*
X0158Y02117D01*
X01393Y02304D02*
Y02534D01*
X01467Y02609*
X02977*
X02994Y02592*
X03712Y02031D02*
X03764D01*
X03619Y01938D02*
X03712Y02031D01*
X03427Y01938D02*
X03619D01*
X0336Y01871D02*
X03427Y01938D01*
X03209Y01871D02*
X0336D01*
X03493Y02476D02*
X03531Y02438D01*
X04257*
X04312Y02492*
X0111Y02438D02*
X01165Y02492D01*
X00619Y02438D02*
X0111D01*
X00565Y02492D02*
X00619Y02438D01*
X03812Y00118D02*
X0399Y00297D01*
X04233*
X04412Y00118*
X02729Y02492D02*
X02766Y02529D01*
X03293*
X03329Y02492*
X03812D02*
X03848Y02529D01*
X04375*
X04412Y02492*
X00829Y011D02*
X01829D01*
X0215Y00779*
X02991*
X03201Y00989*
X04656*
X04677Y00969*
X01853Y02587D02*
X01873Y02567D01*
X01841Y02587D02*
X01853D01*
X00365Y02492D02*
X00523Y02651D01*
X01444*
X01478Y02685*
X01987*
X02021Y02651*
X03167*
X03216Y02602*
X04029*
X05264Y00726D02*
X05321Y00783D01*
X06014*
X06074Y00724*
Y00599D02*
Y00724D01*
X0593Y00455D02*
X06074Y00599D01*
X04049Y00455D02*
X0593D01*
X04012Y00493D02*
X04049Y00455D01*
X03805Y00894D02*
X06051D01*
X06092Y00853*
Y00591D02*
Y00853D01*
X05899Y00398D02*
X06092Y00591D01*
X05852Y00398D02*
X05899D01*
X03759Y00441D02*
X03812Y00493D01*
X036Y00441D02*
X03759D01*
X03575Y00466D02*
X036Y00441D01*
X03575Y00466D02*
Y0056D01*
X03634Y00619*
X04375*
X04604Y00848*
X05436*
X05601Y00552D02*
X05627Y00527D01*
X04092Y00552D02*
X05601D01*
X04079Y00565D02*
X04092Y00552D01*
X03975Y00565D02*
X04079D01*
X03932Y00522D02*
X03975Y00565D01*
X03932Y00513D02*
Y00522D01*
X03912Y00493D02*
X03932Y00513D01*
X02274Y01425D02*
X02332Y01483D01*
X02642*
X0266Y01501*
X02802*
X02878Y01425*
X02274Y01725D02*
X02416Y01583D01*
X02749*
X02843Y01489*
X02865*
X02914Y0144*
Y01398D02*
Y0144D01*
X029Y01384D02*
X02914Y01398D01*
X02835Y01384D02*
X029D01*
X02736Y01483D02*
X02835Y01384D01*
X02696Y01483D02*
X02736D01*
X02678Y01465D02*
X02696Y01483D01*
X02532Y01465D02*
X02678D01*
X02485Y01418D02*
X02532Y01465D01*
X02485Y0122D02*
Y01418D01*
X01107Y00611D02*
X01147Y00652D01*
X0134*
X01364Y00628*
X01467*
X01491Y00652*
X0212*
X02155Y00686*
X02196*
X02231Y00652*
X0372*
X03771Y00703*
Y00736*
X03783Y00748*
X0383*
X03848Y0073*
Y00712D02*
Y0073D01*
Y00712D02*
X03884Y00675D01*
X04*
X04012Y00687*
Y00712*
X01271Y02192D02*
Y02264D01*
X012Y02121D02*
X01271Y02192D01*
X00686Y02121D02*
X012D01*
X0056Y01995D02*
X00686Y02121D01*
X0046Y00979D02*
X00488D01*
X00287Y00745D02*
X0046Y00917D01*
X00624Y00098D02*
X00721Y00195D01*
X00552Y00098D02*
X00624D01*
X00072Y00578D02*
X00552Y00098D01*
X00072Y00578D02*
Y01867D01*
X0012Y01915*
X00776*
X00861Y02*
X0106*
X0111Y0195*
X02902Y00928D02*
X02965D01*
X03144Y01108*
X05474Y01054D02*
X05558D01*
X0529Y01239D02*
X05474Y01054D01*
X04591Y01239D02*
X0529D01*
X04583Y01247D02*
X04591Y01239D01*
X03991Y01247D02*
X04583D01*
X03925Y01181D02*
X03991Y01247D01*
X03755Y01181D02*
X03925D01*
X05264Y01624D02*
X05411D01*
X03179Y02585D02*
X03189Y02575D01*
X04079*
X04091Y02587*
X04362Y01936D02*
X04443D01*
X04513Y01866*
X05144*
X046Y0138D02*
X04641Y01339D01*
X05074*
X05117Y01381*
X04012Y02273D02*
X04048Y02237D01*
X0455*
X04585Y02272*
X03256Y02189D02*
X03272Y02173D01*
X04556*
X04573Y02156*
X05439*
X05558Y02037*
X03612Y0168D02*
X03762Y0153D01*
X05106*
X05136Y015*
X05792*
X05813Y01521*
X02211Y02719D02*
X04564D01*
X02195Y02735D02*
X02211Y02719D01*
X01188Y02752D02*
X01209Y02773D01*
X0225*
X02266Y02757*
X04827*
X04891Y02693*
X04972*
X03132Y01525D02*
X03191D01*
X03082Y01575D02*
X03132Y01525D01*
X0285Y01575D02*
X03082D01*
X02792Y01633D02*
X0285Y01575D01*
X02792Y01633D02*
Y01684D01*
X02287Y00818D02*
Y01122D01*
X02385Y0122*
X02593Y02528D02*
X02629Y02492D01*
X01783Y02528D02*
X02593D01*
X01747Y02492D02*
X01783Y02528D01*
X01832Y01855D02*
X01927Y01949D01*
X01213Y01855D02*
X01832D01*
X00235Y0142D02*
X00287Y01368D01*
X00235Y0142D02*
Y01504D01*
X0026Y01529*
X00804*
X00853Y01578*
X01232*
X01379Y01725*
X01421Y00816D02*
X01506Y00901D01*
X00945Y00816D02*
X01421D01*
X00785Y00976D02*
X00945Y00816D01*
X00785Y00976D02*
Y0114D01*
X00805Y0116*
X0172*
X01778Y01218*
X03575Y01268D02*
X03612Y01305D01*
X03575Y0106D02*
Y01268D01*
Y0106D02*
X03626Y01009D01*
X05953*
X05999Y01054*
Y01709D02*
X06038Y0167D01*
Y016D02*
Y0167D01*
X05918Y0148D02*
X06038Y016D01*
X0512Y0148D02*
X05918D01*
X051Y015D02*
X0512Y0148D01*
X03693Y015D02*
X051D01*
X03531Y01662D02*
X03693Y015D01*
X03531Y01662D02*
Y0182D01*
X03542Y01831*
X0363*
X03637Y01824*
X03812Y00712D02*
X03866Y00657D01*
X04357*
X04412Y00712*
X04065Y00493D02*
X04112D01*
X04029Y00529D02*
X04065Y00493D01*
X03993Y00529D02*
X04029D01*
X03975Y00511D02*
X03993Y00529D01*
X03975Y00478D02*
Y00511D01*
Y00478D02*
X04094Y00359D01*
X05044*
X03091Y01216D02*
X03278Y01403D01*
Y01545*
X0324Y01584D02*
X03278Y01545D01*
X03129Y01584D02*
X0324D01*
X0311Y01603D02*
X03129Y01584D01*
X03Y01603D02*
X0311D01*
X02878Y01725D02*
X03Y01603D01*
X02653Y02112D02*
X03031D01*
X02613Y02072D02*
X02653Y02112D01*
X02763Y00601D02*
X02791D01*
X02753Y00611D02*
X02763Y00601D01*
X0268Y00611D02*
X02753D01*
X02339Y00447D02*
X0239Y00498D01*
X02142Y00447D02*
X02339D01*
X02084Y00505D02*
X02142Y00447D01*
X01869Y00505D02*
X02084D01*
X0182Y00456D02*
X01869Y00505D01*
X02131Y02057D02*
X02527D01*
X04056Y01843D02*
X04112Y01898D01*
X03999Y01843D02*
X04056D01*
X03962Y0188D02*
X03999Y01843D01*
X03849Y01582D02*
X05358D01*
X03834Y01597D02*
X03849Y01582D01*
X03446Y01898D02*
X03612D01*
X03427Y01879D02*
X03446Y01898D01*
X03427Y01739D02*
Y01879D01*
Y01739D02*
X03684Y01482D01*
X05072*
X05092Y01462*
X05918*
X05999Y01381*
X05514Y01426D02*
X05558Y01381D01*
X03767Y01426D02*
X05514D01*
X02885Y0192D02*
Y02038D01*
Y0192D02*
X02935Y0187D01*
X0305*
X03136Y01955*
X04649Y02065D02*
X04677Y02037D01*
X03866Y02065D02*
X04649D01*
X03847Y02085D02*
X03866Y02065D01*
X03646Y02085D02*
X03847D01*
X0478Y01994D02*
X04823Y02037D01*
X04507Y01994D02*
X0478D01*
X04453Y02047D02*
X04507Y01994D01*
X03848Y02047D02*
X04453D01*
X03829Y02067D02*
X03848Y02047D01*
X03664Y02067D02*
X03829D01*
X05705Y02037D02*
X05744Y02077D01*
X05967*
X06113Y02223*
Y0292*
X06068Y02965D02*
X06113Y0292D01*
X05878Y02965D02*
X06068D01*
X05726Y02813D02*
X05878Y02965D01*
X02684Y02813D02*
X05726D01*
X02629Y02867D02*
X02684Y02813D01*
X02543Y01044D02*
X02819D01*
X02991Y01216*
X01747Y02492D02*
Y02559D01*
X0172Y02586D02*
X01747Y02559D01*
X01641Y02586D02*
X0172D01*
X01547Y02492D02*
X01641Y02586D01*
X01066Y01425D02*
X01308D01*
X01344Y01461*
X01634*
X0167Y01425*
X03675Y02456D02*
X03712Y02492D01*
X03577Y02456D02*
X03675D01*
X0352Y02514D02*
X03577Y02456D01*
X03468Y02514D02*
X0352D01*
X0341Y02456D02*
X03468Y02514D01*
X02866Y02456D02*
X0341D01*
X02829Y02492D02*
X02866Y02456D01*
X01647Y02492D02*
X01683Y02456D01*
X0221*
X02247Y02492*
X05815Y02732D02*
X05854Y02693D01*
X049Y02732D02*
X05815D01*
X04855Y02777D02*
X049Y02732D01*
X02297Y02777D02*
X04855D01*
X02265Y02809D02*
X02297Y02777D01*
X0113Y02809D02*
X02265D01*
X01097Y02777D02*
X0113Y02809D01*
X00455Y02777D02*
X01097D01*
X00365Y02867D02*
X00455Y02777D01*
X05488Y02795D02*
X05511Y02772D01*
X02635Y02795D02*
X05488D01*
X02602Y02827D02*
X02635Y02795D01*
X01112Y02827D02*
X02602D01*
X01093Y02809D02*
X01112Y02827D01*
X00623Y02809D02*
X01093D01*
X00565Y02867D02*
X00623Y02809D01*
X05558Y01709D02*
X05598Y0167D01*
X05882*
X05892Y0168*
Y01767*
X05886Y01773D02*
X05892Y01767D01*
X03911Y01773D02*
X05886D01*
X03873Y01811D02*
X03911Y01773D01*
X03787Y01811D02*
X03873D01*
X03736Y01862D02*
X03787Y01811D01*
X05705Y01381D02*
X05745Y01342D01*
X0602*
X06056Y01378*
Y01742*
X06007Y01791D02*
X06056Y01742D01*
X0394Y01791D02*
X06007D01*
X03902Y01829D02*
X0394Y01791D01*
X038Y01829D02*
X03902D01*
X03766Y01863D02*
X038Y01829D01*
X03766Y01863D02*
Y01926D01*
X03737Y01955D02*
X03766Y01926D01*
X04322Y01809D02*
X04412Y01898D01*
X03958Y01809D02*
X04322D01*
X0392Y01847D02*
X03958Y01809D01*
X03863Y01847D02*
X0392D01*
X03812Y01898D02*
X03863Y01847D01*
X03712Y01898D02*
Y01925D01*
X03699Y01938D02*
X03712Y01925D01*
X03699Y01938D02*
Y01992D01*
X0372Y02013*
X0374*
X03817Y01936*
X03874*
X03912Y01898*
X04823Y0228D02*
X0497D01*
X00686Y01057D02*
X00729Y011D01*
X00182Y01057D02*
X00686D01*
X0009Y01149D02*
X00182Y01057D01*
X0009Y01149D02*
Y01628D01*
X00219Y01757*
X03857Y00766D02*
X03912Y00712D01*
X03766Y00766D02*
X03857D01*
X03712Y00712D02*
X03766Y00766D01*
X01754Y0032D02*
Y00456D01*
X0169Y00256D02*
X01754Y0032D01*
X0151Y00256D02*
X0169D01*
X01466Y003D02*
X0151Y00256D01*
X03812Y01305D02*
X03848Y01342D01*
X04375*
X04412Y01305*
X0061Y02546D02*
X00665Y02492D01*
X00519Y02546D02*
X0061D01*
X00465Y02492D02*
X00519Y02546D01*
X00626Y0032D02*
Y00424D01*
X00584Y00278D02*
X00626Y0032D01*
X00457Y00278D02*
X00584D01*
X00526Y00635D02*
Y00724D01*
Y00635D02*
X0056Y00601D01*
X00996*
X02472Y00456D02*
X02508Y0042D01*
X02655*
X02691Y00456*
X01754D02*
X0181Y004D01*
X01911*
X01967Y00456*
X00467Y01449D02*
X00567Y01349D01*
X0035Y01228D02*
X00488D01*
X01056Y00938D02*
X01107D01*
X01046Y00928D02*
X01056Y00938D01*
X00996Y00928D02*
X01046D01*
X00469Y01733D02*
X00522D01*
X00459Y01723D02*
X00469Y01733D01*
X00406Y01723D02*
X00459D01*
X00999Y02264D02*
X01171D01*
X00994Y02259D02*
X00999Y02264D01*
X00823Y02259D02*
X00994D01*
X01278Y00601D02*
X01329D01*
X01268Y00611D02*
X01278Y00601D01*
X01218Y00611D02*
X01268D01*
X01826Y00602D02*
X01878D01*
X01817Y00611D02*
X01826Y00602D01*
X01766Y00611D02*
X01817D01*
X02518Y00601D02*
X02569D01*
X02508Y00611D02*
X02518Y00601D01*
X02458Y00611D02*
X02508D01*
X04112Y00712D02*
X04212D01*
X00865Y02492D02*
X00965D01*
X04112Y00118D02*
X04212D01*
X01947Y02492D02*
X02047D01*
X04112Y01305D02*
X04212D01*
X03029Y02492D02*
X03129D01*
X04112Y01898D02*
X04212D01*
X04112Y02492D02*
X04212D01*
X04972Y02608D02*
X05119D01*
X04825D02*
X04972D01*
X04679D02*
X04825D01*
X05854D02*
X06001D01*
X05707D02*
X05854D01*
X0556D02*
X05707D01*
X05413D02*
X0556D01*
X05119D02*
X05266D01*
X05413*
X05852Y01952D02*
X05999D01*
X05705D02*
X05852D01*
X05558D02*
X05705D01*
X05411D02*
X05558D01*
X05264D02*
X05411D01*
X05117D02*
X05264D01*
X0497D02*
X05117D01*
X04823D02*
X0497D01*
X04677D02*
X04823D01*
X05852Y0228D02*
X05999D01*
X05705D02*
X05852D01*
X05558D02*
X05705D01*
X05411D02*
X05558D01*
X05264D02*
X05411D01*
X04677D02*
X04823D01*
X05117D02*
X05264D01*
X0497D02*
X05117D01*
X04677Y00641D02*
X04823D01*
X05852D02*
X05999D01*
X05705D02*
X05852D01*
X05558D02*
X05705D01*
X05411D02*
X05558D01*
X05264D02*
X05411D01*
X05117D02*
X05264D01*
X04823D02*
X0497D01*
X05117*
X05852Y00313D02*
X05999D01*
X05705D02*
X05852D01*
X05558D02*
X05705D01*
X05411D02*
X05558D01*
X05264D02*
X05411D01*
X05117D02*
X05264D01*
X0497D02*
X05117D01*
X04823D02*
X0497D01*
X04677D02*
X04823D01*
X05852Y00969D02*
X05999D01*
X05705D02*
X05852D01*
X05558D02*
X05705D01*
X05264D02*
X05411D01*
X05558*
X05117D02*
X05264D01*
X0497D02*
X05117D01*
X04823D02*
X0497D01*
X04677D02*
X04823D01*
X04677Y01624D02*
X04823D01*
X05852D02*
X05999D01*
X05705D02*
X05852D01*
X05558D02*
X05705D01*
X05411D02*
X05558D01*
X05117D02*
X05264D01*
X04823D02*
X0497D01*
X05117*
X05852Y01296D02*
X05999D01*
X05705D02*
X05852D01*
X05558D02*
X05705D01*
X05264D02*
X05411D01*
X05558*
X04677D02*
X04823D01*
X05117D02*
X05264D01*
X04823D02*
X0497D01*
X05117*
G54D15*
X05852Y01952D03*
Y02037D03*
X05999Y01952D03*
Y02037D03*
X05558Y0228D03*
Y02365D03*
X05411Y0228D03*
Y02365D03*
X05705Y0228D03*
Y02365D03*
X05264Y01952D03*
Y02037D03*
X05999Y0228D03*
Y02365D03*
X05852Y0228D03*
Y02365D03*
X05558Y01952D03*
Y02037D03*
X05411Y01952D03*
Y02037D03*
X05705Y01952D03*
Y02037D03*
X05264Y0228D03*
Y02365D03*
X05558Y01296D03*
Y01381D03*
X05705Y01296D03*
Y01381D03*
X05852Y01296D03*
Y01381D03*
X05999Y01296D03*
Y01381D03*
X05411Y01296D03*
Y01381D03*
X05852Y01624D03*
Y01709D03*
X05999Y01624D03*
Y01709D03*
X05264Y01624D03*
Y01709D03*
X05411Y01624D03*
Y01709D03*
X05705Y01624D03*
Y01709D03*
X05558Y01624D03*
Y01709D03*
X05411Y00313D03*
Y00398D03*
X04679Y02693D03*
Y02608D03*
X05413Y02693D03*
Y02608D03*
X05264Y01296D03*
Y01381D03*
X05266Y02693D03*
Y02608D03*
X04972Y02693D03*
Y02608D03*
X05119Y02693D03*
Y02608D03*
X05264Y00641D03*
Y00726D03*
X04823Y0228D03*
Y02365D03*
X0497Y0228D03*
Y02365D03*
X05117Y0228D03*
Y02365D03*
X04825Y02693D03*
Y02608D03*
X05854Y02693D03*
Y02608D03*
X05707Y02693D03*
Y02608D03*
X0556Y02693D03*
Y02608D03*
X06001Y02693D03*
Y02608D03*
X05264Y00313D03*
Y00398D03*
X05852Y00313D03*
Y00398D03*
X05705Y00313D03*
Y00398D03*
X05558Y00313D03*
Y00398D03*
X05264Y00969D03*
Y01054D03*
X05558Y00969D03*
Y01054D03*
X05705Y00969D03*
Y01054D03*
X05411Y00969D03*
Y01054D03*
X05999Y00398D03*
Y00313D03*
X05852Y00641D03*
Y00726D03*
X05999Y00641D03*
Y00726D03*
X05411Y00641D03*
Y00726D03*
X05705Y00641D03*
Y00726D03*
X05558Y00641D03*
Y00726D03*
X05852Y00969D03*
Y01054D03*
X04677Y0228D03*
Y02365D03*
X05999Y00969D03*
Y01054D03*
X04677Y00313D03*
Y00398D03*
X04823Y00641D03*
Y00726D03*
X04677Y00641D03*
Y00726D03*
X04823Y00313D03*
Y00398D03*
X04677Y00969D03*
Y01054D03*
X05117Y00969D03*
Y01054D03*
X04677Y01296D03*
Y01381D03*
X0497Y01296D03*
Y01381D03*
X05117Y01296D03*
Y01381D03*
X0497Y00969D03*
Y01054D03*
X04823Y01296D03*
Y01381D03*
Y00969D03*
Y01054D03*
X04677Y01624D03*
Y01709D03*
X04823Y01952D03*
Y02037D03*
Y01624D03*
Y01709D03*
X04677Y01952D03*
Y02037D03*
X0497Y00313D03*
Y00398D03*
Y00641D03*
Y00726D03*
X05117Y00641D03*
Y00726D03*
Y00313D03*
Y00398D03*
Y01624D03*
Y01709D03*
X0497Y01952D03*
Y02037D03*
Y01624D03*
Y01709D03*
X05117Y01952D03*
Y02037D03*
G54D16*
X0015Y0015D03*
Y0285D03*
X06Y0015D03*
Y0285D03*
G54D17*
X01107Y00938D03*
X02461Y00097D03*
Y00209D03*
Y0032D03*
X01878Y00602D03*
X01766Y00938D03*
X01329Y00601D03*
X01218Y00938D03*
X00996Y00601D03*
X00522Y0206D03*
X00406Y01723D03*
X02458Y00938D03*
X02569Y00601D03*
X02902D03*
X0268Y00938D03*
X02791Y00601D03*
G54D18*
X01107Y00611D03*
X01878Y00929D03*
X01766Y00611D03*
X01329Y00928D03*
X01218Y00611D03*
X00996Y00928D03*
X00522Y01733D03*
X00406Y0205D03*
X02458Y00611D03*
X02569Y00928D03*
X02902Y00928D03*
X0268Y00611D03*
X02791Y00928D03*
G54D19*
X02788Y00097D03*
Y00209D03*
X02788Y0032D03*
G54D20*
X03081Y02269D03*
X03236Y01955D03*
X02935D03*
X01876Y0226D03*
X01722Y01949D03*
X02332Y01956D03*
X02027Y01949D03*
X01416Y0195D03*
X0111D03*
X01271Y02264D03*
X02477Y02265D03*
X02636Y01956D03*
X03091Y01216D03*
X02485Y0122D03*
X01878Y01218D03*
X01268Y01216D03*
X00821Y00195D03*
X00829Y011D03*
G54D21*
X02981Y02269D03*
X03136Y01955D03*
X02835D03*
X01776Y0226D03*
X01622Y01949D03*
X02232Y01956D03*
X01927Y01949D03*
X01316Y0195D03*
X0101D03*
X01171Y02264D03*
X02377Y02265D03*
X02536Y01956D03*
X02991Y01216D03*
X02385Y0122D03*
X01778Y01218D03*
X01168Y01216D03*
X00721Y00195D03*
X00729Y011D03*
G54D22*
X00724Y02259D03*
X02188Y00517D03*
X02188Y00818D03*
X01466Y003D03*
X01757Y00214D03*
X00399Y02259D03*
X00998Y00332D03*
G54D23*
X00823Y02259D03*
X02287Y00517D03*
Y00818D03*
X01565Y003D03*
X01856Y00214D03*
X00498Y02259D03*
X01077Y00332D03*
G54D24*
X02691Y0046D03*
X02472D03*
X01754Y00456D03*
X01967D03*
X0144Y00691D03*
Y00901D03*
X01205Y00454D03*
G54D25*
X02757Y0046D03*
X02538D03*
X0182Y00456D03*
X02033D03*
X01506Y00691D03*
Y00901D03*
X01325Y00454D03*
G54D26*
X03145Y00845D03*
X03031Y003D03*
G54D27*
X03342Y00845D03*
X03228Y003D03*
G54D28*
X02878Y01725D03*
X02274D03*
X0167D03*
X01066D03*
G54D29*
X02878Y01625D03*
Y01525D03*
Y01425D03*
X03191D03*
Y01525D03*
Y01625D03*
Y01725D03*
X02587D03*
Y01625D03*
Y01525D03*
Y01425D03*
X02274D03*
Y01525D03*
Y01625D03*
X01983Y01725D03*
Y01625D03*
Y01525D03*
Y01425D03*
X0167D03*
Y01525D03*
Y01625D03*
X01379Y01725D03*
Y01625D03*
Y01525D03*
Y01425D03*
X01066D03*
Y01525D03*
Y01625D03*
G54D30*
X03612Y02273D03*
X03712D03*
X03812D03*
X03912D03*
X04012D03*
X04112D03*
X04212D03*
X04312D03*
X04412D03*
Y01898D03*
X04312D03*
X04212D03*
X04112D03*
X04012D03*
X03912D03*
X03812D03*
X03712D03*
X03612Y0168D03*
X03712D03*
X03812D03*
X03912D03*
X04012D03*
X04112D03*
X04212D03*
X04312D03*
X04412D03*
Y01305D03*
X04312D03*
X04212D03*
X04112D03*
X04012D03*
X03912D03*
X03812D03*
X03712D03*
X03612Y02867D03*
X03712D03*
X03812D03*
X03912D03*
X04012D03*
X04112D03*
X04212D03*
X04312D03*
X04412D03*
Y02492D03*
X04312D03*
X04212D03*
X04112D03*
X04012D03*
X03912D03*
X03812D03*
X03712D03*
X02529Y02867D03*
X02629D03*
X02729D03*
X02829D03*
X02929D03*
X03029D03*
X03129D03*
X03229D03*
X03329D03*
Y02492D03*
X03229D03*
X03129D03*
X03029D03*
X02929D03*
X02829D03*
X02729D03*
X02629D03*
X00365Y02867D03*
X00465D03*
X00565D03*
X00665D03*
X00765D03*
X00865D03*
X00965D03*
X01065D03*
X01165D03*
Y02492D03*
X01065D03*
X00965D03*
X00865D03*
X00765D03*
X00665D03*
X00565D03*
X00465D03*
X03712Y00712D03*
X03812D03*
X03912D03*
X04012D03*
X04112D03*
X04212D03*
X04312D03*
X04412D03*
Y01087D03*
X04312D03*
X04212D03*
X04112D03*
X04012D03*
X03912D03*
X03812D03*
X03712D03*
X03612D03*
X01447Y02867D03*
X01547D03*
X01647D03*
X01747D03*
X01847D03*
X01947D03*
X02047D03*
X02147D03*
X02247D03*
Y02492D03*
X02147D03*
X02047D03*
X01947D03*
X01847D03*
X01747D03*
X01647D03*
X01547D03*
X03612Y00493D03*
X03712D03*
X03812D03*
X03912D03*
X04012D03*
X04112D03*
X04212D03*
X04312D03*
X04412D03*
Y00118D03*
X04312D03*
X04212D03*
X04112D03*
X04012D03*
X03912D03*
X03812D03*
X03712D03*
G54D31*
X03612Y01898D03*
Y01305D03*
Y02492D03*
X02529D03*
X00365D03*
X03612Y00712D03*
X01447Y02492D03*
X03612Y00118D03*
G54D32*
X00219Y01657D03*
G54D33*
X00219Y01857D03*
Y01757D03*
G54D34*
X00287Y01468D03*
X00287Y00577D03*
Y00845D03*
G54D35*
X00287Y01368D03*
X00287Y00477D03*
Y00745D03*
G54D36*
X00357Y00178D03*
X00667Y01449D03*
G54D37*
X00457Y00278D03*
X00557Y00178D03*
X00467Y01449D03*
X00567Y01349D03*
G54D38*
X00526Y00424D03*
X00626D03*
X00526Y00724D03*
X00626D03*
X00826Y00424D03*
X00726D03*
Y00724D03*
X00826D03*
G54D39*
X00224Y01228D03*
Y00979D03*
X00488Y01228D03*
Y00979D03*
X0035Y01228D03*
G54D40*
X00252Y01104D03*
X00488D03*
G54D41*
X04481Y02607D03*
X04625Y02194D03*
X04353Y02594D03*
X01691Y02277D03*
X04002Y0197D03*
X01582Y00112D03*
X03273Y01097D03*
X01538Y00189D03*
X05331Y01079D03*
X03482Y01776D03*
X0348Y02023D03*
X03583Y01994D03*
X03404Y0202D03*
X02304Y0123D03*
X01331Y0158D03*
X02566Y01196D03*
X01961Y02194D03*
X01371Y0069D03*
X0165Y02344D03*
X02714Y00544D03*
X0408Y00034D03*
X03509Y00098D03*
X02562Y00113D03*
X0152Y01387D03*
X01755Y01525D03*
X02188Y0063D03*
X02981Y01684D03*
X0393Y02648D03*
X03675D03*
X02716Y01445D03*
X00676Y01567D03*
X02578Y0133D03*
X03575Y00315D03*
X05225Y01177D03*
X04521Y01065D03*
X04525Y00407D03*
X0508Y0294D03*
X05413Y0287D03*
X05293Y02909D03*
X01329Y02703D03*
X05755Y02898D03*
X01526Y02391D03*
X01456Y02392D03*
X01696Y0254D03*
X01923Y02344D03*
X03616Y01411D03*
X05168Y01538D03*
X04062Y01172D03*
X04758Y01114D03*
X03162Y02165D03*
X03545Y02124D03*
X03415Y02117D03*
X0343Y0222D03*
X03569Y01793D03*
X0381Y01751D03*
X01038Y00273D03*
X01767Y00761D03*
X01618Y00213D03*
X01949Y02647D03*
X02569Y00831D03*
X01957Y00732D03*
X0449Y00951D03*
X01858Y02117D03*
X02994Y02592D03*
X03209Y01871D03*
X03493Y02476D03*
X01873Y02567D03*
X03805Y00894D03*
X05436Y00848D03*
X05627Y00527D03*
X0056Y01995D03*
X03755Y01181D03*
X03179Y02585D03*
X04091Y02587D03*
X04362Y01936D03*
X05144Y01866D03*
X046Y0138D03*
X04585Y02272D03*
X03256Y02189D03*
X05813Y01521D03*
X04564Y02719D03*
X02195Y02735D03*
X01188Y02752D03*
X02792Y01684D03*
X02551Y01112D03*
X01213Y01855D03*
X03637Y01824D03*
X05044Y00359D03*
X03031Y02112D03*
X02613Y02072D03*
X02527Y02057D03*
X02131D03*
X05358Y01582D03*
X03834Y01597D03*
X03767Y01426D03*
X02885Y02038D03*
X02543Y01044D03*
X02047Y02567D03*
X04789Y02527D03*
X05511Y02772D03*
X03737Y01955D03*
M02*